<svg xmlns="http://www.w3.org/2000/svg" xmlns:xlink="http://www.w3.org/1999/xlink" width="1030" height="374.38" viewBox="0 0 1030 374.38">
  <defs>
    <linearGradient id="linear-gradient" x1="0.506" y1="1.027" x2="0.5" gradientUnits="objectBoundingBox">
      <stop offset="0" stop-color="#def8f3"/>
      <stop offset="1" stop-color="#fff"/>
    </linearGradient>
    <linearGradient id="linear-gradient-2" x1="0.506" y1="1.027" x2="0.5" gradientUnits="objectBoundingBox">
      <stop offset="0" stop-color="#def8f3"/>
      <stop offset="0.414" stop-color="#e4f9f5"/>
      <stop offset="1" stop-color="#f6fdfc"/>
    </linearGradient>
    <clipPath id="clip-path">
      <path id="Trazado_600868" data-name="Trazado 600868" d="M17,0h996c9.389,0,17,7.036,17,15.715V358.666c0,8.679-7.611,15.715-17,15.715H17c-9.389,0-17-7.036-17-15.715V15.715C0,7.036,7.611,0,17,0Z" fill="url(#linear-gradient)"/>
    </clipPath>
    <clipPath id="clip-path-2">
      <rect id="Rectángulo_47369" data-name="Rectángulo 47369" width="108.237" height="130.676" fill="none"/>
    </clipPath>
    <clipPath id="clip-path-4">
      <rect id="Rectángulo_47366" data-name="Rectángulo 47366" width="13.068" height="29.676" fill="none"/>
    </clipPath>
    <clipPath id="clip-path-5">
      <rect id="Rectángulo_47367" data-name="Rectángulo 47367" width="24.538" height="55.698" fill="none"/>
    </clipPath>
    <clipPath id="clip-path-6">
      <rect id="Rectángulo_47370" data-name="Rectángulo 47370" width="114.404" height="130.675" fill="none"/>
    </clipPath>
  </defs>
  <g id="Grupo_161431" data-name="Grupo 161431" transform="translate(-285 -4163)">
    <g id="Grupo_160628" data-name="Grupo 160628" transform="translate(0 -1808)">
      <path id="Trazado_600867" data-name="Trazado 600867" d="M17,0h996c9.389,0,17,7.036,17,15.715V358.666c0,8.679-7.611,15.715-17,15.715H17c-9.389,0-17-7.036-17-15.715V15.715C0,7.036,7.611,0,17,0Z" transform="translate(285 5971)" fill="url(#linear-gradient-2)"/>
      <g id="Enmascarar_grupo_67" data-name="Enmascarar grupo 67" transform="translate(285 5971)" clip-path="url(#clip-path)">
        <path id="Trazado_113530" data-name="Trazado 113530" d="M1842.37,0V17h-7.909V38.428h-21.969V64.292h-13.184v65.029l-25.482,21.431v35.1h-15.38V151.863l-44.379-37.319V71.681h-20.209V62.075h-31.639v7.39h-19.332v83.506h-22.849V124.15h-15.818l-27.243,22.907V175.14h-16.7V51.729l-52.729,44.338h-21.968v-17h-14.059V96.807h-24.607v48.771h-18.454V104.935h-28.121V127.1h-36.03v10.347h-15.818V147.8h-23.726v33.992h-14.062v-87.2l-87.878-12.566v9.609h-10.545V219.478h-16.7V146.319h-16.7v33.994h-13.181v46.555h-13.184V152.23H1116.5v-7.39H1077.94v36.116l-21.2-17.826h-34.934l-19.551,16.442v-90.9H961.83v67.986H947.987v46L929.754,218V156.3l-24.167-20.323L880.1,157.4v74.638H858.134V192.136H833.527v29.559H822.1V169.229H811.118v29.929l-27.684-23.28V153.709h14.94v-6.465H697.534l-20.872,17.55v24.756L652.5,169.229H630.527v-9.976H594.057l-10.983,9.236v25.867H569.893V157.4l-29.88-25.126V39.906H446.862V192.874H432.8V176.616l-12.3-10.344v-13.3H411.71v11.822H401.6V131.169L384.469,116.76V94.591H362.5v20.691H351.075V95.329H338.331V116.39l-19.769,16.628H303.619v12.56h-8.787v84.246H277.256V150.014l-12.3-10.344V85.723h-8.787V139.67L246.5,147.8v79.07H218.377V83.507l-21.09-17.739V31.776H133.135V60.6h-21.09V82.766h-29V179.2H73.16v-41.57L47.453,159.252h-14.5v96.436H10.545V171.445H0V313.672H2045.81V116.02H1994.4v93.852h-21.091v-30.3l-34.272,28.821V179.573h-21.093V67.249h-49.209V17h-17.579V0Z" transform="translate(-445 89.665)" fill="#91e8d6" opacity="0.15"/>
        <path id="Trazado_600882" data-name="Trazado 600882" d="M108.758,0,22.983,20.828,0,98.559l62.79,56.9,85.774-20.828L171.55,56.9Z" transform="translate(543.45 212.573)" fill="#fff" opacity="0.41"/>
        <path id="Trazado_600883" data-name="Trazado 600883" d="M100.788,0,21.3,19.3,0,91.337,58.19,144.071l79.489-19.3,21.3-72.037Z" transform="translate(277.021 102.431)" fill="#fff" opacity="0.41"/>
      </g>
    </g>
    <g id="Grupo_161411" data-name="Grupo 161411" transform="translate(-241 -2470)">
      <path id="Trazado_600880" data-name="Trazado 600880" d="M92.293,0,19.5,19.5,0,92.292l53.284,53.286,72.789-19.5,19.5-72.79Z" transform="translate(716 6659)" fill="#91e8d6"/>
      <path id="Trazado_601791" data-name="Trazado 601791" d="M0,1.183,2.107,0V40.055L.122,41.144Z" transform="matrix(0.259, 0.966, -0.966, 0.259, 777.284, 6659)" fill="#833343"/>
    </g>
    <g id="Grupo_161430" data-name="Grupo 161430" transform="translate(260 -2470)">
      <path id="Trazado_600880-2" data-name="Trazado 600880" d="M92.293,0,19.5,19.5,0,92.292l53.284,53.286,72.789-19.5,19.5-72.79Z" transform="translate(716 6659)" fill="#91e8d6"/>
      <path id="Trazado_601791-2" data-name="Trazado 601791" d="M0,1.183,2.107,0V40.055L.122,41.144Z" transform="matrix(0.259, 0.966, -0.966, 0.259, 777.284, 6659)" fill="#833343"/>
    </g>
    <path id="Trazado_606830" data-name="Trazado 606830" d="M10.567,11.974a4.277,4.277,0,0,1-1.44,3.071A5.058,5.058,0,0,1,5.7,16.166,4.548,4.548,0,0,1,2.046,14.6a6.416,6.416,0,0,1-1.332-4.3V9.567A7.245,7.245,0,0,1,1.328,6.5,4.6,4.6,0,0,1,3.084,4.458a4.918,4.918,0,0,1,2.652-.71,4.927,4.927,0,0,1,3.37,1.121,4.6,4.6,0,0,1,1.478,3.146H8.093a2.524,2.524,0,0,0-.652-1.7A2.413,2.413,0,0,0,5.736,5.79a2.116,2.116,0,0,0-1.864.892,5,5,0,0,0-.635,2.768v.913a5.352,5.352,0,0,0,.594,2.864,2.077,2.077,0,0,0,1.872.9,2.458,2.458,0,0,0,1.722-.527,2.381,2.381,0,0,0,.652-1.631ZM14.576,16H12.169V3.25h2.407Zm4.507,0H16.676V7.019h2.407ZM16.535,4.694a1.181,1.181,0,0,1,.361-.888,1.556,1.556,0,0,1,1.963,0,1.175,1.175,0,0,1,.365.888,1.178,1.178,0,0,1-.369.9,1.539,1.539,0,0,1-1.951,0A1.178,1.178,0,0,1,16.535,4.694Zm8.658,11.472a4.409,4.409,0,0,1-3.217-1.212,4.308,4.308,0,0,1-1.241-3.229v-.232a5.426,5.426,0,0,1,.523-2.42A3.838,3.838,0,0,1,22.74,7.429a4.159,4.159,0,0,1,2.187-.577,3.727,3.727,0,0,1,2.9,1.162,4.722,4.722,0,0,1,1.058,3.3v.979H23.167a2.229,2.229,0,0,0,.7,1.411,2.12,2.12,0,0,0,1.482.531,2.589,2.589,0,0,0,2.167-1l1.179,1.32a3.6,3.6,0,0,1-1.461,1.191A4.793,4.793,0,0,1,25.193,16.166Zm-.274-7.379a1.5,1.5,0,0,0-1.158.484,2.5,2.5,0,0,0-.569,1.384h3.337v-.192A1.786,1.786,0,0,0,26.1,9.224,1.547,1.547,0,0,0,24.919,8.787Zm7.537-1.768.075,1.038a3.136,3.136,0,0,1,2.582-1.2,2.606,2.606,0,0,1,2.125.838,3.912,3.912,0,0,1,.714,2.507V16h-2.4V10.256a1.556,1.556,0,0,0-.332-1.108,1.486,1.486,0,0,0-1.1-.344,1.65,1.65,0,0,0-1.519.863V16H30.2V7.019ZM42.641,4.811V7.019h1.536v1.76H42.641v4.482a1.07,1.07,0,0,0,.191.714.959.959,0,0,0,.73.216,3.826,3.826,0,0,0,.706-.058V15.95a4.939,4.939,0,0,1-1.453.216,2.29,2.29,0,0,1-2.573-2.548V8.778H38.931V7.019h1.312V4.811Zm7.006,11.355a4.409,4.409,0,0,1-3.217-1.212,4.308,4.308,0,0,1-1.241-3.229v-.232a5.426,5.426,0,0,1,.523-2.42,3.838,3.838,0,0,1,1.482-1.644,4.159,4.159,0,0,1,2.187-.577,3.727,3.727,0,0,1,2.9,1.162,4.722,4.722,0,0,1,1.058,3.3v.979H47.622a2.229,2.229,0,0,0,.7,1.411,2.12,2.12,0,0,0,1.482.531,2.589,2.589,0,0,0,2.167-1l1.179,1.32a3.6,3.6,0,0,1-1.461,1.191A4.793,4.793,0,0,1,49.647,16.166Zm-.274-7.379a1.5,1.5,0,0,0-1.158.484,2.5,2.5,0,0,0-.569,1.384h3.337v-.192a1.786,1.786,0,0,0-.432-1.238A1.547,1.547,0,0,0,49.373,8.787ZM64.14,16a2.664,2.664,0,0,1-.241-.805,2.9,2.9,0,0,1-2.266.971,3.189,3.189,0,0,1-2.187-.764,2.456,2.456,0,0,1-.867-1.926,2.538,2.538,0,0,1,1.058-2.191,5.222,5.222,0,0,1,3.059-.772h1.1V10a1.48,1.48,0,0,0-.32-1,1.257,1.257,0,0,0-1.009-.374,1.429,1.429,0,0,0-.95.291.987.987,0,0,0-.344.8h-2.4a2.41,2.41,0,0,1,.481-1.444A3.182,3.182,0,0,1,60.621,7.23,4.961,4.961,0,0,1,62.6,6.853a3.92,3.92,0,0,1,2.635.834,2.918,2.918,0,0,1,.975,2.345v3.893a4.294,4.294,0,0,0,.357,1.934V16Zm-1.984-1.668a2.066,2.066,0,0,0,.979-.237,1.554,1.554,0,0,0,.664-.635V11.916h-.9q-1.8,0-1.917,1.245l-.008.141a.96.96,0,0,0,.315.739A1.225,1.225,0,0,0,62.156,14.332Zm9.629-.1a1.573,1.573,0,0,0,1.079-.365A1.28,1.28,0,0,0,73.3,12.9h2.25a3.077,3.077,0,0,1-.5,1.673,3.286,3.286,0,0,1-1.341,1.179,4.2,4.2,0,0,1-1.88.419,3.9,3.9,0,0,1-3.038-1.224,4.845,4.845,0,0,1-1.112-3.383V11.4a4.79,4.79,0,0,1,1.1-3.312,3.854,3.854,0,0,1,3.03-1.237,3.778,3.778,0,0,1,2.7.959,3.4,3.4,0,0,1,1.033,2.552H73.3a1.648,1.648,0,0,0-.432-1.139A1.6,1.6,0,0,0,70.5,9.4a3.541,3.541,0,0,0-.427,1.983v.249a3.586,3.586,0,0,0,.423,2A1.463,1.463,0,0,0,71.785,14.232Zm8-9.421V7.019h1.536v1.76H79.787v4.482a1.07,1.07,0,0,0,.191.714.959.959,0,0,0,.73.216,3.826,3.826,0,0,0,.706-.058V15.95a4.938,4.938,0,0,1-1.453.216,2.29,2.29,0,0,1-2.573-2.548V8.778H76.077V7.019h1.312V4.811Zm8.251,10.276a3.008,3.008,0,0,1-2.457,1.079,2.837,2.837,0,0,1-2.2-.83A3.543,3.543,0,0,1,82.6,12.9V7.019H85v5.809q0,1.4,1.278,1.4a1.732,1.732,0,0,0,1.677-.848V7.019h2.407V16H88.1ZM97.376,16a2.664,2.664,0,0,1-.241-.805,2.9,2.9,0,0,1-2.266.971,3.189,3.189,0,0,1-2.187-.764,2.456,2.456,0,0,1-.867-1.926,2.538,2.538,0,0,1,1.058-2.191,5.222,5.222,0,0,1,3.059-.772h1.1V10a1.48,1.48,0,0,0-.32-1,1.257,1.257,0,0,0-1.009-.374,1.429,1.429,0,0,0-.95.291.987.987,0,0,0-.344.8h-2.4A2.41,2.41,0,0,1,92.5,8.272,3.182,3.182,0,0,1,93.857,7.23a4.961,4.961,0,0,1,1.976-.378,3.92,3.92,0,0,1,2.635.834,2.918,2.918,0,0,1,.975,2.345v3.893a4.294,4.294,0,0,0,.357,1.934V16Zm-1.984-1.668a2.066,2.066,0,0,0,.979-.237,1.554,1.554,0,0,0,.664-.635V11.916h-.9q-1.8,0-1.917,1.245l-.008.141a.96.96,0,0,0,.315.739A1.225,1.225,0,0,0,95.393,14.332ZM103.818,16h-2.407V3.25h2.407Z" transform="translate(493 4344.578)" fill="#12263f"/>
    <path id="Trazado_606836" data-name="Trazado 606836" d="M10.567,11.974a4.277,4.277,0,0,1-1.44,3.071A5.058,5.058,0,0,1,5.7,16.166,4.548,4.548,0,0,1,2.046,14.6a6.416,6.416,0,0,1-1.332-4.3V9.567A7.245,7.245,0,0,1,1.328,6.5,4.6,4.6,0,0,1,3.084,4.458a4.918,4.918,0,0,1,2.652-.71,4.927,4.927,0,0,1,3.37,1.121,4.6,4.6,0,0,1,1.478,3.146H8.093a2.524,2.524,0,0,0-.652-1.7A2.413,2.413,0,0,0,5.736,5.79a2.116,2.116,0,0,0-1.864.892,5,5,0,0,0-.635,2.768v.913a5.352,5.352,0,0,0,.594,2.864,2.077,2.077,0,0,0,1.872.9,2.458,2.458,0,0,0,1.722-.527,2.381,2.381,0,0,0,.652-1.631ZM14.576,16H12.169V3.25h2.407Zm4.507,0H16.676V7.019h2.407ZM16.535,4.694a1.181,1.181,0,0,1,.361-.888,1.556,1.556,0,0,1,1.963,0,1.175,1.175,0,0,1,.365.888,1.178,1.178,0,0,1-.369.9,1.539,1.539,0,0,1-1.951,0A1.178,1.178,0,0,1,16.535,4.694Zm8.658,11.472a4.409,4.409,0,0,1-3.217-1.212,4.308,4.308,0,0,1-1.241-3.229v-.232a5.426,5.426,0,0,1,.523-2.42A3.838,3.838,0,0,1,22.74,7.429a4.159,4.159,0,0,1,2.187-.577,3.727,3.727,0,0,1,2.9,1.162,4.722,4.722,0,0,1,1.058,3.3v.979H23.167a2.229,2.229,0,0,0,.7,1.411,2.12,2.12,0,0,0,1.482.531,2.589,2.589,0,0,0,2.167-1l1.179,1.32a3.6,3.6,0,0,1-1.461,1.191A4.793,4.793,0,0,1,25.193,16.166Zm-.274-7.379a1.5,1.5,0,0,0-1.158.484,2.5,2.5,0,0,0-.569,1.384h3.337v-.192A1.786,1.786,0,0,0,26.1,9.224,1.547,1.547,0,0,0,24.919,8.787Zm7.537-1.768.075,1.038a3.136,3.136,0,0,1,2.582-1.2,2.606,2.606,0,0,1,2.125.838,3.912,3.912,0,0,1,.714,2.507V16h-2.4V10.256a1.556,1.556,0,0,0-.332-1.108,1.486,1.486,0,0,0-1.1-.344,1.65,1.65,0,0,0-1.519.863V16H30.2V7.019ZM42.641,4.811V7.019h1.536v1.76H42.641v4.482a1.07,1.07,0,0,0,.191.714.959.959,0,0,0,.73.216,3.826,3.826,0,0,0,.706-.058V15.95a4.939,4.939,0,0,1-1.453.216,2.29,2.29,0,0,1-2.573-2.548V8.778H38.931V7.019h1.312V4.811Zm7.006,11.355a4.409,4.409,0,0,1-3.217-1.212,4.308,4.308,0,0,1-1.241-3.229v-.232a5.426,5.426,0,0,1,.523-2.42,3.838,3.838,0,0,1,1.482-1.644,4.159,4.159,0,0,1,2.187-.577,3.727,3.727,0,0,1,2.9,1.162,4.722,4.722,0,0,1,1.058,3.3v.979H47.622a2.229,2.229,0,0,0,.7,1.411,2.12,2.12,0,0,0,1.482.531,2.589,2.589,0,0,0,2.167-1l1.179,1.32a3.6,3.6,0,0,1-1.461,1.191A4.793,4.793,0,0,1,49.647,16.166Zm-.274-7.379a1.5,1.5,0,0,0-1.158.484,2.5,2.5,0,0,0-.569,1.384h3.337v-.192a1.786,1.786,0,0,0-.432-1.238A1.547,1.547,0,0,0,49.373,8.787Zm17.647,2.806a5.387,5.387,0,0,1-.942,3.324,3.021,3.021,0,0,1-2.544,1.249,2.8,2.8,0,0,1-2.2-.946v4.233h-2.4V7.019H61.16l.083.88a2.819,2.819,0,0,1,2.274-1.046A3.041,3.041,0,0,1,66.1,8.081a5.532,5.532,0,0,1,.921,3.387Zm-2.4-.174a3.535,3.535,0,0,0-.444-1.934A1.446,1.446,0,0,0,62.887,8.8a1.571,1.571,0,0,0-1.552.863v3.677a1.6,1.6,0,0,0,1.569.888Q64.622,14.232,64.622,11.418Zm3.511.008a5.326,5.326,0,0,1,.515-2.382,3.768,3.768,0,0,1,1.482-1.619,4.323,4.323,0,0,1,2.245-.573,4.09,4.09,0,0,1,2.968,1.112,4.464,4.464,0,0,1,1.282,3.021l.017.614a4.694,4.694,0,0,1-1.154,3.316,4.472,4.472,0,0,1-6.2,0,4.777,4.777,0,0,1-1.158-3.387Zm2.4.17a3.357,3.357,0,0,0,.481,1.958,1.73,1.73,0,0,0,2.739.008,3.674,3.674,0,0,0,.49-2.141,3.324,3.324,0,0,0-.49-1.945,1.592,1.592,0,0,0-1.378-.69,1.566,1.566,0,0,0-1.361.686A3.736,3.736,0,0,0,70.532,11.6ZM80.991,4.811V7.019h1.536v1.76H80.991v4.482a1.07,1.07,0,0,0,.191.714.959.959,0,0,0,.73.216,3.826,3.826,0,0,0,.706-.058V15.95a4.938,4.938,0,0,1-1.453.216,2.29,2.29,0,0,1-2.573-2.548V8.778H77.28V7.019h1.312V4.811ZM88,16.166a4.409,4.409,0,0,1-3.217-1.212,4.308,4.308,0,0,1-1.241-3.229v-.232a5.426,5.426,0,0,1,.523-2.42,3.838,3.838,0,0,1,1.482-1.644,4.159,4.159,0,0,1,2.187-.577,3.727,3.727,0,0,1,2.9,1.162,4.722,4.722,0,0,1,1.058,3.3v.979H85.971a2.229,2.229,0,0,0,.7,1.411,2.12,2.12,0,0,0,1.482.531,2.589,2.589,0,0,0,2.167-1l1.179,1.32a3.6,3.6,0,0,1-1.461,1.191A4.793,4.793,0,0,1,88,16.166Zm-.274-7.379a1.5,1.5,0,0,0-1.158.484A2.5,2.5,0,0,0,86,10.654h3.337v-.192A1.786,1.786,0,0,0,88.9,9.224,1.547,1.547,0,0,0,87.723,8.787ZM95.26,7.019l.075,1.038a3.136,3.136,0,0,1,2.582-1.2,2.606,2.606,0,0,1,2.125.838,3.912,3.912,0,0,1,.714,2.507V16h-2.4V10.256a1.556,1.556,0,0,0-.332-1.108,1.486,1.486,0,0,0-1.1-.344,1.65,1.65,0,0,0-1.519.863V16H93V7.019Zm11.048,7.213a1.573,1.573,0,0,0,1.079-.365,1.28,1.28,0,0,0,.432-.971h2.25a3.077,3.077,0,0,1-.5,1.673,3.286,3.286,0,0,1-1.341,1.179,4.2,4.2,0,0,1-1.88.419,3.9,3.9,0,0,1-3.038-1.224,4.845,4.845,0,0,1-1.112-3.383V11.4a4.79,4.79,0,0,1,1.1-3.312,3.854,3.854,0,0,1,3.03-1.237,3.778,3.778,0,0,1,2.7.959,3.4,3.4,0,0,1,1.033,2.552h-2.25a1.648,1.648,0,0,0-.432-1.139,1.6,1.6,0,0,0-2.362.173,3.541,3.541,0,0,0-.427,1.983v.249a3.586,3.586,0,0,0,.423,2A1.463,1.463,0,0,0,106.308,14.232ZM113.97,16h-2.407V7.019h2.407ZM111.421,4.694a1.181,1.181,0,0,1,.361-.888,1.556,1.556,0,0,1,1.963,0,1.175,1.175,0,0,1,.365.888,1.178,1.178,0,0,1-.369.9,1.539,1.539,0,0,1-1.951,0A1.178,1.178,0,0,1,111.421,4.694ZM121.15,16a2.664,2.664,0,0,1-.241-.805,2.9,2.9,0,0,1-2.266.971,3.189,3.189,0,0,1-2.187-.764,2.456,2.456,0,0,1-.867-1.926,2.538,2.538,0,0,1,1.058-2.191,5.222,5.222,0,0,1,3.059-.772h1.1V10a1.48,1.48,0,0,0-.32-1,1.257,1.257,0,0,0-1.009-.374,1.429,1.429,0,0,0-.95.291.987.987,0,0,0-.344.8h-2.4a2.41,2.41,0,0,1,.481-1.444A3.182,3.182,0,0,1,117.63,7.23a4.961,4.961,0,0,1,1.976-.378,3.92,3.92,0,0,1,2.635.834,2.918,2.918,0,0,1,.975,2.345v3.893a4.294,4.294,0,0,0,.357,1.934V16Zm-1.984-1.668a2.066,2.066,0,0,0,.979-.237,1.554,1.554,0,0,0,.664-.635V11.916h-.9q-1.8,0-1.917,1.245l-.008.141a.96.96,0,0,0,.315.739A1.225,1.225,0,0,0,119.166,14.332ZM127.591,16h-2.407V3.25h2.407Z" transform="translate(983 4344.578)" fill="#12263f"/>
    <g id="Rectángulo_47357" data-name="Rectángulo 47357" transform="translate(455 4334.578)" fill="none" stroke="#144567" stroke-width="1.5">
      <rect width="186" height="39" rx="9" stroke="none"/>
      <rect x="0.75" y="0.75" width="184.5" height="37.5" rx="8.25" fill="none"/>
    </g>
    <g id="Rectángulo_47363" data-name="Rectángulo 47363" transform="translate(956 4334.578)" fill="none" stroke="#144567" stroke-width="1.5">
      <rect width="186" height="39" rx="9" stroke="none"/>
      <rect x="0.75" y="0.75" width="184.5" height="37.5" rx="8.25" fill="none"/>
    </g>
    <rect id="Rectángulo_47358" data-name="Rectángulo 47358" width="186" height="62" rx="9" transform="translate(328 4404.578)" fill="#f6efe9"/>
    <rect id="Rectángulo_47364" data-name="Rectángulo 47364" width="186" height="60" rx="9" transform="translate(831.594 4404.578)" fill="#f6efe9"/>
    <rect id="Rectángulo_47361" data-name="Rectángulo 47361" width="186" height="62" rx="9" transform="translate(580 4404.578)" fill="#f6efe9"/>
    <rect id="Rectángulo_47362" data-name="Rectángulo 47362" width="186" height="60" rx="9" transform="translate(1081 4404.578)" fill="#f6efe9"/>
    <path id="Trazado_606832" data-name="Trazado 606832" d="M10.293,12.165a4.447,4.447,0,0,1-1.415,2.959,4.638,4.638,0,0,1-3.167,1.042A4.259,4.259,0,0,1,2.279,14.63,6.178,6.178,0,0,1,.988,10.521V9.359A6.886,6.886,0,0,1,1.59,6.4,4.5,4.5,0,0,1,3.3,4.433a4.75,4.75,0,0,1,2.557-.685A4.367,4.367,0,0,1,8.94,4.823,4.5,4.5,0,0,1,10.293,7.8h-1.6a3.472,3.472,0,0,0-.9-2.1,2.725,2.725,0,0,0-1.938-.649,2.851,2.851,0,0,0-2.395,1.13A5.187,5.187,0,0,0,2.59,9.4v1.171A5.332,5.332,0,0,0,3.412,13.7a2.655,2.655,0,0,0,2.3,1.163,3.067,3.067,0,0,0,2.038-.6,3.34,3.34,0,0,0,.942-2.1ZM13.9,16H12.36V3.25H13.9Zm4.125,0H16.485V7.019h1.536ZM16.361,4.636a.917.917,0,0,1,.228-.631.857.857,0,0,1,.677-.257.87.87,0,0,1,.681.257.907.907,0,0,1,.232.631.877.877,0,0,1-.232.623.886.886,0,0,1-.681.249.872.872,0,0,1-.677-.249A.886.886,0,0,1,16.361,4.636Zm7.844,11.53a3.924,3.924,0,0,1-2.972-1.2,4.452,4.452,0,0,1-1.146-3.208v-.282A5.39,5.39,0,0,1,20.6,9.09a3.982,3.982,0,0,1,1.428-1.644,3.59,3.59,0,0,1,1.988-.594,3.364,3.364,0,0,1,2.723,1.154,5,5,0,0,1,.971,3.3v.639H21.624a3.193,3.193,0,0,0,.776,2.146,2.44,2.44,0,0,0,1.888.818,2.675,2.675,0,0,0,1.378-.332,3.462,3.462,0,0,0,.988-.88l.938.73A3.772,3.772,0,0,1,24.205,16.166Zm-.191-8.052a2.048,2.048,0,0,0-1.561.677,3.288,3.288,0,0,0-.78,1.9h4.5v-.116a2.925,2.925,0,0,0-.631-1.814A1.928,1.928,0,0,0,24.014,8.114Zm6.923-1.1.05,1.129a3.273,3.273,0,0,1,2.689-1.295q2.847,0,2.872,3.212V16H35.013V10.057a2.068,2.068,0,0,0-.444-1.436,1.78,1.78,0,0,0-1.357-.465,2.216,2.216,0,0,0-1.312.4A2.706,2.706,0,0,0,31.02,9.6V16H29.484V7.019ZM40.948,4.844V7.019h1.677V8.206H40.948v5.577a1.247,1.247,0,0,0,.224.81.943.943,0,0,0,.764.27,3.718,3.718,0,0,0,.73-.1V16a4.478,4.478,0,0,1-1.179.165,1.912,1.912,0,0,1-1.552-.623,2.675,2.675,0,0,1-.523-1.768V8.206H37.777V7.019h1.635V4.844Zm7.2,11.322a3.924,3.924,0,0,1-2.972-1.2,4.452,4.452,0,0,1-1.146-3.208v-.282a5.39,5.39,0,0,1,.51-2.386,3.982,3.982,0,0,1,1.428-1.644,3.59,3.59,0,0,1,1.988-.594,3.364,3.364,0,0,1,2.723,1.154,5,5,0,0,1,.971,3.3v.639H45.563a3.193,3.193,0,0,0,.776,2.146,2.44,2.44,0,0,0,1.888.818,2.675,2.675,0,0,0,1.378-.332,3.462,3.462,0,0,0,.988-.88l.938.73A3.772,3.772,0,0,1,48.145,16.166Zm-.191-8.052a2.048,2.048,0,0,0-1.561.677,3.288,3.288,0,0,0-.78,1.9h4.5v-.116a2.925,2.925,0,0,0-.631-1.814A1.928,1.928,0,0,0,47.954,8.114ZM63.177,16a3.226,3.226,0,0,1-.216-.946A3.426,3.426,0,0,1,60.4,16.166a3.17,3.17,0,0,1-2.179-.751,2.43,2.43,0,0,1-.851-1.905,2.539,2.539,0,0,1,1.067-2.179,5.029,5.029,0,0,1,3-.776h1.494V9.849a1.725,1.725,0,0,0-.481-1.282,1.935,1.935,0,0,0-1.419-.477,2.239,2.239,0,0,0-1.378.415,1.223,1.223,0,0,0-.556,1H57.558a2.119,2.119,0,0,1,.477-1.3,3.258,3.258,0,0,1,1.295-.992,4.356,4.356,0,0,1,1.8-.365,3.551,3.551,0,0,1,2.432.776,2.8,2.8,0,0,1,.913,2.137V13.9a5.054,5.054,0,0,0,.315,1.967V16Zm-2.548-1.17A2.7,2.7,0,0,0,62,14.456a2.259,2.259,0,0,0,.938-.971V11.642h-1.2q-2.822,0-2.822,1.652a1.4,1.4,0,0,0,.481,1.129A1.85,1.85,0,0,0,60.629,14.83Zm9.853.083a2.212,2.212,0,0,0,1.436-.5,1.752,1.752,0,0,0,.681-1.245h1.453a2.785,2.785,0,0,1-.531,1.469,3.5,3.5,0,0,1-1.307,1.112,3.772,3.772,0,0,1-1.731.415,3.7,3.7,0,0,1-2.918-1.224,4.877,4.877,0,0,1-1.083-3.349v-.257A5.407,5.407,0,0,1,66.962,9a3.667,3.667,0,0,1,1.382-1.585,3.926,3.926,0,0,1,2.129-.564,3.6,3.6,0,0,1,2.511.9,3.234,3.234,0,0,1,1.067,2.349H72.6a2.116,2.116,0,0,0-.66-1.432,2.053,2.053,0,0,0-1.465-.56,2.149,2.149,0,0,0-1.814.843,3.957,3.957,0,0,0-.643,2.436v.291a3.878,3.878,0,0,0,.639,2.391A2.16,2.16,0,0,0,70.482,14.913ZM77.861,4.844V7.019h1.677V8.206H77.861v5.577a1.247,1.247,0,0,0,.224.81.943.943,0,0,0,.764.27,3.718,3.718,0,0,0,.73-.1V16a4.478,4.478,0,0,1-1.179.165,1.912,1.912,0,0,1-1.552-.623,2.675,2.675,0,0,1-.523-1.768V8.206H74.69V7.019h1.635V4.844ZM83,16H81.464V7.019H83ZM81.339,4.636a.917.917,0,0,1,.228-.631.857.857,0,0,1,.677-.257.87.87,0,0,1,.681.257.907.907,0,0,1,.232.631.877.877,0,0,1-.232.623.886.886,0,0,1-.681.249.872.872,0,0,1-.677-.249A.886.886,0,0,1,81.339,4.636Zm7.081,9.28,2.225-6.9h1.569L88.993,16h-1.17L84.568,7.019h1.569Zm4.74-2.49a5.3,5.3,0,0,1,.519-2.374,3.87,3.87,0,0,1,1.444-1.627,3.932,3.932,0,0,1,2.113-.573,3.788,3.788,0,0,1,2.968,1.27,4.886,4.886,0,0,1,1.133,3.378v.108a5.351,5.351,0,0,1-.5,2.353A3.813,3.813,0,0,1,99.4,15.585a3.977,3.977,0,0,1-2.146.581,3.778,3.778,0,0,1-2.959-1.27,4.861,4.861,0,0,1-1.133-3.362Zm1.544.183a3.842,3.842,0,0,0,.693,2.4A2.349,2.349,0,0,0,99.111,14a4.2,4.2,0,0,0,.689-2.569,3.836,3.836,0,0,0-.7-2.395,2.23,2.23,0,0,0-1.864-.917,2.205,2.205,0,0,0-1.834.9A4.17,4.17,0,0,0,94.7,11.609Z" transform="translate(369 4425.578)" fill="#12263f"/>
    <path id="Trazado_606835" data-name="Trazado 606835" d="M10.293,12.165a4.447,4.447,0,0,1-1.415,2.959,4.638,4.638,0,0,1-3.167,1.042A4.259,4.259,0,0,1,2.279,14.63,6.178,6.178,0,0,1,.988,10.521V9.359A6.886,6.886,0,0,1,1.59,6.4,4.5,4.5,0,0,1,3.3,4.433a4.75,4.75,0,0,1,2.557-.685A4.367,4.367,0,0,1,8.94,4.823,4.5,4.5,0,0,1,10.293,7.8h-1.6a3.472,3.472,0,0,0-.9-2.1,2.725,2.725,0,0,0-1.938-.649,2.851,2.851,0,0,0-2.395,1.13A5.187,5.187,0,0,0,2.59,9.4v1.171A5.332,5.332,0,0,0,3.412,13.7a2.655,2.655,0,0,0,2.3,1.163,3.067,3.067,0,0,0,2.038-.6,3.34,3.34,0,0,0,.942-2.1ZM13.9,16H12.36V3.25H13.9Zm4.125,0H16.485V7.019h1.536ZM16.361,4.636a.917.917,0,0,1,.228-.631.857.857,0,0,1,.677-.257.87.87,0,0,1,.681.257.907.907,0,0,1,.232.631.877.877,0,0,1-.232.623.886.886,0,0,1-.681.249.872.872,0,0,1-.677-.249A.886.886,0,0,1,16.361,4.636Zm7.844,11.53a3.924,3.924,0,0,1-2.972-1.2,4.452,4.452,0,0,1-1.146-3.208v-.282A5.39,5.39,0,0,1,20.6,9.09a3.982,3.982,0,0,1,1.428-1.644,3.59,3.59,0,0,1,1.988-.594,3.364,3.364,0,0,1,2.723,1.154,5,5,0,0,1,.971,3.3v.639H21.624a3.193,3.193,0,0,0,.776,2.146,2.44,2.44,0,0,0,1.888.818,2.675,2.675,0,0,0,1.378-.332,3.462,3.462,0,0,0,.988-.88l.938.73A3.772,3.772,0,0,1,24.205,16.166Zm-.191-8.052a2.048,2.048,0,0,0-1.561.677,3.288,3.288,0,0,0-.78,1.9h4.5v-.116a2.925,2.925,0,0,0-.631-1.814A1.928,1.928,0,0,0,24.014,8.114Zm6.923-1.1.05,1.129a3.273,3.273,0,0,1,2.689-1.295q2.847,0,2.872,3.212V16H35.013V10.057a2.068,2.068,0,0,0-.444-1.436,1.78,1.78,0,0,0-1.357-.465,2.216,2.216,0,0,0-1.312.4A2.706,2.706,0,0,0,31.02,9.6V16H29.484V7.019ZM40.948,4.844V7.019h1.677V8.206H40.948v5.577a1.247,1.247,0,0,0,.224.81.943.943,0,0,0,.764.27,3.718,3.718,0,0,0,.73-.1V16a4.478,4.478,0,0,1-1.179.165,1.912,1.912,0,0,1-1.552-.623,2.675,2.675,0,0,1-.523-1.768V8.206H37.777V7.019h1.635V4.844Zm7.2,11.322a3.924,3.924,0,0,1-2.972-1.2,4.452,4.452,0,0,1-1.146-3.208v-.282a5.39,5.39,0,0,1,.51-2.386,3.982,3.982,0,0,1,1.428-1.644,3.59,3.59,0,0,1,1.988-.594,3.364,3.364,0,0,1,2.723,1.154,5,5,0,0,1,.971,3.3v.639H45.563a3.193,3.193,0,0,0,.776,2.146,2.44,2.44,0,0,0,1.888.818,2.675,2.675,0,0,0,1.378-.332,3.462,3.462,0,0,0,.988-.88l.938.73A3.772,3.772,0,0,1,48.145,16.166Zm-.191-8.052a2.048,2.048,0,0,0-1.561.677,3.288,3.288,0,0,0-.78,1.9h4.5v-.116a2.925,2.925,0,0,0-.631-1.814A1.928,1.928,0,0,0,47.954,8.114Zm13.406,8.052a3.924,3.924,0,0,1-2.972-1.2,4.452,4.452,0,0,1-1.146-3.208v-.282a5.39,5.39,0,0,1,.51-2.386A3.982,3.982,0,0,1,59.18,7.446a3.59,3.59,0,0,1,1.988-.594,3.364,3.364,0,0,1,2.723,1.154,5,5,0,0,1,.971,3.3v.639H58.778a3.193,3.193,0,0,0,.776,2.146,2.44,2.44,0,0,0,1.888.818,2.675,2.675,0,0,0,1.378-.332,3.462,3.462,0,0,0,.988-.88l.938.73A3.772,3.772,0,0,1,61.359,16.166Zm-.191-8.052a2.048,2.048,0,0,0-1.561.677,3.288,3.288,0,0,0-.78,1.9h4.5v-.116A2.925,2.925,0,0,0,62.7,8.758,1.928,1.928,0,0,0,61.168,8.114Zm6.923-1.1.05,1.129a3.273,3.273,0,0,1,2.689-1.295q2.847,0,2.872,3.212V16H72.167V10.057a2.068,2.068,0,0,0-.444-1.436,1.78,1.78,0,0,0-1.357-.465,2.216,2.216,0,0,0-1.312.4,2.706,2.706,0,0,0-.88,1.046V16H66.639V7.019ZM81.9,16H80.36V3.25H81.9Zm8,0a3.226,3.226,0,0,1-.216-.946,3.426,3.426,0,0,1-2.557,1.112,3.17,3.17,0,0,1-2.179-.751A2.43,2.43,0,0,1,84.1,13.51a2.539,2.539,0,0,1,1.067-2.179,5.029,5.029,0,0,1,3-.776h1.494V9.849a1.725,1.725,0,0,0-.481-1.282,1.935,1.935,0,0,0-1.419-.477,2.239,2.239,0,0,0-1.378.415,1.223,1.223,0,0,0-.556,1H84.278a2.119,2.119,0,0,1,.477-1.3,3.258,3.258,0,0,1,1.295-.992,4.356,4.356,0,0,1,1.8-.365,3.551,3.551,0,0,1,2.432.776,2.8,2.8,0,0,1,.913,2.137V13.9a5.054,5.054,0,0,0,.315,1.967V16Zm-2.548-1.17a2.7,2.7,0,0,0,1.37-.374,2.259,2.259,0,0,0,.938-.971V11.642h-1.2q-2.822,0-2.822,1.652a1.4,1.4,0,0,0,.481,1.129A1.85,1.85,0,0,0,87.349,14.83Z" transform="translate(877.594 4413.578)" fill="#12263f"/>
    <path id="Trazado_606834" data-name="Trazado 606834" d="M4.765,14.913a2.212,2.212,0,0,0,1.436-.5,1.752,1.752,0,0,0,.681-1.245H8.334A2.785,2.785,0,0,1,7.8,14.639,3.5,3.5,0,0,1,6.5,15.751a3.772,3.772,0,0,1-1.731.415,3.7,3.7,0,0,1-2.918-1.224A4.877,4.877,0,0,1,.764,11.592v-.257A5.407,5.407,0,0,1,1.245,9,3.667,3.667,0,0,1,2.627,7.417a3.926,3.926,0,0,1,2.129-.564,3.6,3.6,0,0,1,2.511.9,3.234,3.234,0,0,1,1.067,2.349H6.881a2.116,2.116,0,0,0-.66-1.432,2.053,2.053,0,0,0-1.465-.56,2.149,2.149,0,0,0-1.814.843A3.957,3.957,0,0,0,2.3,11.393v.291a3.878,3.878,0,0,0,.639,2.391A2.16,2.16,0,0,0,4.765,14.913Zm4.889-3.486a5.3,5.3,0,0,1,.519-2.374,3.87,3.87,0,0,1,1.444-1.627,3.932,3.932,0,0,1,2.113-.573A3.788,3.788,0,0,1,16.7,8.123,4.886,4.886,0,0,1,17.83,11.5v.108a5.351,5.351,0,0,1-.5,2.353,3.813,3.813,0,0,1-1.436,1.623,3.977,3.977,0,0,1-2.146.581,3.778,3.778,0,0,1-2.959-1.27,4.861,4.861,0,0,1-1.133-3.362Zm1.544.183a3.842,3.842,0,0,0,.693,2.4A2.349,2.349,0,0,0,15.605,14a4.2,4.2,0,0,0,.689-2.569,3.836,3.836,0,0,0-.7-2.395,2.23,2.23,0,0,0-1.864-.917,2.205,2.205,0,0,0-1.834.9A4.17,4.17,0,0,0,11.2,11.609Zm10-4.59.042,1a3.317,3.317,0,0,1,2.665-1.162A2.568,2.568,0,0,1,26.471,8.3a3.4,3.4,0,0,1,1.166-1.046,3.445,3.445,0,0,1,1.7-.4q2.955,0,3,3.129V16H30.8V10.073a2.062,2.062,0,0,0-.44-1.44,1.937,1.937,0,0,0-1.478-.477,2.036,2.036,0,0,0-1.419.51,2.071,2.071,0,0,0-.656,1.374V16H25.268V10.115A1.713,1.713,0,0,0,23.35,8.156a2.055,2.055,0,0,0-2.067,1.287V16H19.748V7.019Zm21.042,4.59a5.378,5.378,0,0,1-.938,3.3,3.006,3.006,0,0,1-2.54,1.253,3.294,3.294,0,0,1-2.573-1.038v4.325H34.656V7.019h1.4l.075,1A3.163,3.163,0,0,1,38.74,6.853,3.063,3.063,0,0,1,41.3,8.073a5.437,5.437,0,0,1,.942,3.4Zm-1.536-.174a3.968,3.968,0,0,0-.647-2.4,2.086,2.086,0,0,0-1.776-.88,2.257,2.257,0,0,0-2.092,1.237v4.292A2.262,2.262,0,0,0,38.3,14.913a2.076,2.076,0,0,0,1.756-.876A4.332,4.332,0,0,0,40.707,11.435Zm7.213,4.731a3.924,3.924,0,0,1-2.972-1.2A4.452,4.452,0,0,1,43.8,11.758v-.282a5.39,5.39,0,0,1,.51-2.386,3.982,3.982,0,0,1,1.428-1.644,3.59,3.59,0,0,1,1.988-.594,3.364,3.364,0,0,1,2.723,1.154,5,5,0,0,1,.971,3.3v.639H45.339a3.193,3.193,0,0,0,.776,2.146A2.44,2.44,0,0,0,48,14.913a2.675,2.675,0,0,0,1.378-.332,3.462,3.462,0,0,0,.988-.88l.938.73A3.772,3.772,0,0,1,47.92,16.166Zm-.191-8.052a2.048,2.048,0,0,0-1.561.677,3.288,3.288,0,0,0-.78,1.9h4.5v-.116a2.925,2.925,0,0,0-.631-1.814A1.928,1.928,0,0,0,47.729,8.114Zm7.554-3.271V7.019H56.96V8.206H55.283v5.577a1.247,1.247,0,0,0,.224.81.943.943,0,0,0,.764.27,3.718,3.718,0,0,0,.73-.1V16a4.478,4.478,0,0,1-1.179.165,1.912,1.912,0,0,1-1.552-.623,2.675,2.675,0,0,1-.523-1.768V8.206H52.112V7.019h1.635V4.844Zm7.2,11.322a3.924,3.924,0,0,1-2.972-1.2,4.452,4.452,0,0,1-1.146-3.208v-.282a5.39,5.39,0,0,1,.51-2.386A3.982,3.982,0,0,1,60.3,7.446a3.59,3.59,0,0,1,1.988-.594,3.364,3.364,0,0,1,2.723,1.154,5,5,0,0,1,.971,3.3v.639H59.9a3.193,3.193,0,0,0,.776,2.146,2.44,2.44,0,0,0,1.888.818,2.675,2.675,0,0,0,1.378-.332,3.462,3.462,0,0,0,.988-.88l.938.73A3.772,3.772,0,0,1,62.48,16.166Zm-.191-8.052a2.048,2.048,0,0,0-1.561.677,3.288,3.288,0,0,0-.78,1.9h4.5v-.116a2.925,2.925,0,0,0-.631-1.814A1.928,1.928,0,0,0,62.289,8.114Zm6.923-1.1.05,1.129a3.273,3.273,0,0,1,2.689-1.295q2.847,0,2.872,3.212V16H73.288V10.057a2.068,2.068,0,0,0-.444-1.436,1.78,1.78,0,0,0-1.357-.465,2.216,2.216,0,0,0-1.312.4,2.706,2.706,0,0,0-.88,1.046V16H67.759V7.019Zm11.53,7.894a2.212,2.212,0,0,0,1.436-.5,1.752,1.752,0,0,0,.681-1.245h1.453a2.785,2.785,0,0,1-.531,1.469,3.5,3.5,0,0,1-1.307,1.112,3.772,3.772,0,0,1-1.731.415,3.7,3.7,0,0,1-2.918-1.224,4.877,4.877,0,0,1-1.083-3.349v-.257A5.407,5.407,0,0,1,77.222,9,3.667,3.667,0,0,1,78.6,7.417a3.926,3.926,0,0,1,2.129-.564,3.6,3.6,0,0,1,2.511.9,3.234,3.234,0,0,1,1.067,2.349H82.858a2.116,2.116,0,0,0-.66-1.432,2.053,2.053,0,0,0-1.465-.56,2.149,2.149,0,0,0-1.814.843,3.957,3.957,0,0,0-.643,2.436v.291a3.878,3.878,0,0,0,.639,2.391A2.16,2.16,0,0,0,80.742,14.913ZM87.706,16H86.17V7.019h1.536ZM86.046,4.636a.917.917,0,0,1,.228-.631.857.857,0,0,1,.677-.257.87.87,0,0,1,.681.257.907.907,0,0,1,.232.631.877.877,0,0,1-.232.623.886.886,0,0,1-.681.249.872.872,0,0,1-.677-.249A.886.886,0,0,1,86.046,4.636ZM95.708,16a3.226,3.226,0,0,1-.216-.946,3.426,3.426,0,0,1-2.557,1.112,3.17,3.17,0,0,1-2.179-.751,2.43,2.43,0,0,1-.851-1.905,2.539,2.539,0,0,1,1.067-2.179,5.029,5.029,0,0,1,3-.776h1.494V9.849a1.725,1.725,0,0,0-.481-1.282,1.935,1.935,0,0,0-1.419-.477,2.239,2.239,0,0,0-1.378.415,1.223,1.223,0,0,0-.556,1H90.088a2.119,2.119,0,0,1,.477-1.3,3.258,3.258,0,0,1,1.295-.992,4.356,4.356,0,0,1,1.8-.365,3.551,3.551,0,0,1,2.432.776A2.8,2.8,0,0,1,97,9.766V13.9a5.054,5.054,0,0,0,.315,1.967V16ZM93.16,14.83a2.7,2.7,0,0,0,1.37-.374,2.259,2.259,0,0,0,.938-.971V11.642h-1.2q-2.822,0-2.822,1.652a1.4,1.4,0,0,0,.481,1.129A1.85,1.85,0,0,0,93.16,14.83Z" transform="translate(874.594 4434.578)" fill="#12263f"/>
    <path id="Trazado_606833" data-name="Trazado 606833" d="M10.293,12.165a4.447,4.447,0,0,1-1.415,2.959,4.638,4.638,0,0,1-3.167,1.042A4.259,4.259,0,0,1,2.279,14.63,6.178,6.178,0,0,1,.988,10.521V9.359A6.886,6.886,0,0,1,1.59,6.4,4.5,4.5,0,0,1,3.3,4.433a4.75,4.75,0,0,1,2.557-.685A4.367,4.367,0,0,1,8.94,4.823,4.5,4.5,0,0,1,10.293,7.8h-1.6a3.472,3.472,0,0,0-.9-2.1,2.725,2.725,0,0,0-1.938-.649,2.851,2.851,0,0,0-2.395,1.13A5.187,5.187,0,0,0,2.59,9.4v1.171A5.332,5.332,0,0,0,3.412,13.7a2.655,2.655,0,0,0,2.3,1.163,3.067,3.067,0,0,0,2.038-.6,3.34,3.34,0,0,0,.942-2.1ZM13.9,16H12.36V3.25H13.9Zm4.125,0H16.485V7.019h1.536ZM16.361,4.636a.917.917,0,0,1,.228-.631.857.857,0,0,1,.677-.257.87.87,0,0,1,.681.257.907.907,0,0,1,.232.631.877.877,0,0,1-.232.623.886.886,0,0,1-.681.249.872.872,0,0,1-.677-.249A.886.886,0,0,1,16.361,4.636Zm7.844,11.53a3.924,3.924,0,0,1-2.972-1.2,4.452,4.452,0,0,1-1.146-3.208v-.282A5.39,5.39,0,0,1,20.6,9.09a3.982,3.982,0,0,1,1.428-1.644,3.59,3.59,0,0,1,1.988-.594,3.364,3.364,0,0,1,2.723,1.154,5,5,0,0,1,.971,3.3v.639H21.624a3.193,3.193,0,0,0,.776,2.146,2.44,2.44,0,0,0,1.888.818,2.675,2.675,0,0,0,1.378-.332,3.462,3.462,0,0,0,.988-.88l.938.73A3.772,3.772,0,0,1,24.205,16.166Zm-.191-8.052a2.048,2.048,0,0,0-1.561.677,3.288,3.288,0,0,0-.78,1.9h4.5v-.116a2.925,2.925,0,0,0-.631-1.814A1.928,1.928,0,0,0,24.014,8.114Zm6.923-1.1.05,1.129a3.273,3.273,0,0,1,2.689-1.295q2.847,0,2.872,3.212V16H35.013V10.057a2.068,2.068,0,0,0-.444-1.436,1.78,1.78,0,0,0-1.357-.465,2.216,2.216,0,0,0-1.312.4A2.706,2.706,0,0,0,31.02,9.6V16H29.484V7.019ZM40.948,4.844V7.019h1.677V8.206H40.948v5.577a1.247,1.247,0,0,0,.224.81.943.943,0,0,0,.764.27,3.718,3.718,0,0,0,.73-.1V16a4.478,4.478,0,0,1-1.179.165,1.912,1.912,0,0,1-1.552-.623,2.675,2.675,0,0,1-.523-1.768V8.206H37.777V7.019h1.635V4.844Zm7.2,11.322a3.924,3.924,0,0,1-2.972-1.2,4.452,4.452,0,0,1-1.146-3.208v-.282a5.39,5.39,0,0,1,.51-2.386,3.982,3.982,0,0,1,1.428-1.644,3.59,3.59,0,0,1,1.988-.594,3.364,3.364,0,0,1,2.723,1.154,5,5,0,0,1,.971,3.3v.639H45.563a3.193,3.193,0,0,0,.776,2.146,2.44,2.44,0,0,0,1.888.818,2.675,2.675,0,0,0,1.378-.332,3.462,3.462,0,0,0,.988-.88l.938.73A3.772,3.772,0,0,1,48.145,16.166Zm-.191-8.052a2.048,2.048,0,0,0-1.561.677,3.288,3.288,0,0,0-.78,1.9h4.5v-.116a2.925,2.925,0,0,0-.631-1.814A1.928,1.928,0,0,0,47.954,8.114ZM59.3,16H57.765V7.019H59.3ZM57.641,4.636a.917.917,0,0,1,.228-.631.857.857,0,0,1,.677-.257.87.87,0,0,1,.681.257.907.907,0,0,1,.232.631.877.877,0,0,1-.232.623.886.886,0,0,1-.681.249.872.872,0,0,1-.677-.249A.886.886,0,0,1,57.641,4.636Zm5.57,2.382.05,1.129A3.273,3.273,0,0,1,65.95,6.853q2.847,0,2.872,3.212V16H67.286V10.057a2.068,2.068,0,0,0-.444-1.436,1.78,1.78,0,0,0-1.357-.465,2.216,2.216,0,0,0-1.312.4,2.706,2.706,0,0,0-.88,1.046V16H61.758V7.019ZM76.683,16a3.226,3.226,0,0,1-.216-.946,3.426,3.426,0,0,1-2.557,1.112,3.17,3.17,0,0,1-2.179-.751,2.43,2.43,0,0,1-.851-1.905,2.539,2.539,0,0,1,1.067-2.179,5.029,5.029,0,0,1,3-.776h1.494V9.849a1.725,1.725,0,0,0-.481-1.282,1.935,1.935,0,0,0-1.419-.477,2.239,2.239,0,0,0-1.378.415,1.223,1.223,0,0,0-.556,1H71.063a2.119,2.119,0,0,1,.477-1.3,3.258,3.258,0,0,1,1.295-.992,4.356,4.356,0,0,1,1.8-.365,3.551,3.551,0,0,1,2.432.776,2.8,2.8,0,0,1,.913,2.137V13.9a5.054,5.054,0,0,0,.315,1.967V16Zm-2.548-1.17a2.7,2.7,0,0,0,1.37-.374,2.259,2.259,0,0,0,.938-.971V11.642h-1.2q-2.822,0-2.822,1.652a1.4,1.4,0,0,0,.481,1.129A1.85,1.85,0,0,0,74.134,14.83Zm9.853.083a2.212,2.212,0,0,0,1.436-.5,1.752,1.752,0,0,0,.681-1.245h1.453a2.785,2.785,0,0,1-.531,1.469,3.5,3.5,0,0,1-1.307,1.112,3.772,3.772,0,0,1-1.731.415,3.7,3.7,0,0,1-2.918-1.224,4.877,4.877,0,0,1-1.083-3.349v-.257A5.407,5.407,0,0,1,80.468,9,3.667,3.667,0,0,1,81.85,7.417a3.926,3.926,0,0,1,2.129-.564,3.6,3.6,0,0,1,2.511.9,3.234,3.234,0,0,1,1.067,2.349H86.1a2.116,2.116,0,0,0-.66-1.432,2.053,2.053,0,0,0-1.465-.56,2.149,2.149,0,0,0-1.814.843,3.957,3.957,0,0,0-.643,2.436v.291a3.878,3.878,0,0,0,.639,2.391A2.16,2.16,0,0,0,83.987,14.913ZM91.367,4.844V7.019h1.677V8.206H91.367v5.577a1.247,1.247,0,0,0,.224.81.943.943,0,0,0,.764.27,3.718,3.718,0,0,0,.73-.1V16a4.478,4.478,0,0,1-1.179.165,1.912,1.912,0,0,1-1.552-.623,2.675,2.675,0,0,1-.523-1.768V8.206H88.2V7.019h1.635V4.844ZM96.5,16H94.969V7.019H96.5ZM94.845,4.636a.917.917,0,0,1,.228-.631.857.857,0,0,1,.677-.257.87.87,0,0,1,.681.257.907.907,0,0,1,.232.631.877.877,0,0,1-.232.623.886.886,0,0,1-.681.249.872.872,0,0,1-.677-.249A.886.886,0,0,1,94.845,4.636Zm7.081,9.28,2.225-6.9h1.569L102.5,16h-1.17L98.074,7.019h1.569Zm4.74-2.49a5.3,5.3,0,0,1,.519-2.374,3.87,3.87,0,0,1,1.444-1.627,3.932,3.932,0,0,1,2.113-.573,3.788,3.788,0,0,1,2.968,1.27,4.886,4.886,0,0,1,1.133,3.378v.108a5.351,5.351,0,0,1-.5,2.353,3.813,3.813,0,0,1-1.436,1.623,3.977,3.977,0,0,1-2.146.581A3.778,3.778,0,0,1,107.8,14.9a4.861,4.861,0,0,1-1.133-3.362Zm1.544.183a3.842,3.842,0,0,0,.693,2.4A2.349,2.349,0,0,0,112.617,14a4.2,4.2,0,0,0,.689-2.569,3.836,3.836,0,0,0-.7-2.395,2.23,2.23,0,0,0-1.864-.917,2.205,2.205,0,0,0-1.834.9A4.17,4.17,0,0,0,108.209,11.609Z" transform="translate(615 4425.578)" fill="#12263f"/>
    <path id="Trazado_606837" data-name="Trazado 606837" d="M10.293,12.165a4.447,4.447,0,0,1-1.415,2.959,4.638,4.638,0,0,1-3.167,1.042A4.259,4.259,0,0,1,2.279,14.63,6.178,6.178,0,0,1,.988,10.521V9.359A6.886,6.886,0,0,1,1.59,6.4,4.5,4.5,0,0,1,3.3,4.433a4.75,4.75,0,0,1,2.557-.685A4.367,4.367,0,0,1,8.94,4.823,4.5,4.5,0,0,1,10.293,7.8h-1.6a3.472,3.472,0,0,0-.9-2.1,2.725,2.725,0,0,0-1.938-.649,2.851,2.851,0,0,0-2.395,1.13A5.187,5.187,0,0,0,2.59,9.4v1.171A5.332,5.332,0,0,0,3.412,13.7a2.655,2.655,0,0,0,2.3,1.163,3.067,3.067,0,0,0,2.038-.6,3.34,3.34,0,0,0,.942-2.1ZM13.9,16H12.36V3.25H13.9Zm4.125,0H16.485V7.019h1.536ZM16.361,4.636a.917.917,0,0,1,.228-.631.857.857,0,0,1,.677-.257.87.87,0,0,1,.681.257.907.907,0,0,1,.232.631.877.877,0,0,1-.232.623.886.886,0,0,1-.681.249.872.872,0,0,1-.677-.249A.886.886,0,0,1,16.361,4.636Zm7.844,11.53a3.924,3.924,0,0,1-2.972-1.2,4.452,4.452,0,0,1-1.146-3.208v-.282A5.39,5.39,0,0,1,20.6,9.09a3.982,3.982,0,0,1,1.428-1.644,3.59,3.59,0,0,1,1.988-.594,3.364,3.364,0,0,1,2.723,1.154,5,5,0,0,1,.971,3.3v.639H21.624a3.193,3.193,0,0,0,.776,2.146,2.44,2.44,0,0,0,1.888.818,2.675,2.675,0,0,0,1.378-.332,3.462,3.462,0,0,0,.988-.88l.938.73A3.772,3.772,0,0,1,24.205,16.166Zm-.191-8.052a2.048,2.048,0,0,0-1.561.677,3.288,3.288,0,0,0-.78,1.9h4.5v-.116a2.925,2.925,0,0,0-.631-1.814A1.928,1.928,0,0,0,24.014,8.114Zm6.923-1.1.05,1.129a3.273,3.273,0,0,1,2.689-1.295q2.847,0,2.872,3.212V16H35.013V10.057a2.068,2.068,0,0,0-.444-1.436,1.78,1.78,0,0,0-1.357-.465,2.216,2.216,0,0,0-1.312.4A2.706,2.706,0,0,0,31.02,9.6V16H29.484V7.019ZM40.948,4.844V7.019h1.677V8.206H40.948v5.577a1.247,1.247,0,0,0,.224.81.943.943,0,0,0,.764.27,3.718,3.718,0,0,0,.73-.1V16a4.478,4.478,0,0,1-1.179.165,1.912,1.912,0,0,1-1.552-.623,2.675,2.675,0,0,1-.523-1.768V8.206H37.777V7.019h1.635V4.844Zm7.2,11.322a3.924,3.924,0,0,1-2.972-1.2,4.452,4.452,0,0,1-1.146-3.208v-.282a5.39,5.39,0,0,1,.51-2.386,3.982,3.982,0,0,1,1.428-1.644,3.59,3.59,0,0,1,1.988-.594,3.364,3.364,0,0,1,2.723,1.154,5,5,0,0,1,.971,3.3v.639H45.563a3.193,3.193,0,0,0,.776,2.146,2.44,2.44,0,0,0,1.888.818,2.675,2.675,0,0,0,1.378-.332,3.462,3.462,0,0,0,.988-.88l.938.73A3.772,3.772,0,0,1,48.145,16.166Zm-.191-8.052a2.048,2.048,0,0,0-1.561.677,3.288,3.288,0,0,0-.78,1.9h4.5v-.116a2.925,2.925,0,0,0-.631-1.814A1.928,1.928,0,0,0,47.954,8.114Zm13.281,6.8a2.212,2.212,0,0,0,1.436-.5,1.752,1.752,0,0,0,.681-1.245H64.8a2.785,2.785,0,0,1-.531,1.469,3.5,3.5,0,0,1-1.307,1.112,3.772,3.772,0,0,1-1.731.415,3.7,3.7,0,0,1-2.918-1.224,4.877,4.877,0,0,1-1.083-3.349v-.257A5.407,5.407,0,0,1,57.715,9,3.667,3.667,0,0,1,59.1,7.417a3.926,3.926,0,0,1,2.129-.564,3.6,3.6,0,0,1,2.511.9A3.234,3.234,0,0,1,64.8,10.106H63.352a2.116,2.116,0,0,0-.66-1.432,2.053,2.053,0,0,0-1.465-.56,2.149,2.149,0,0,0-1.814.843,3.957,3.957,0,0,0-.643,2.436v.291a3.878,3.878,0,0,0,.639,2.391A2.16,2.16,0,0,0,61.235,14.913Zm4.889-3.486a5.3,5.3,0,0,1,.519-2.374,3.87,3.87,0,0,1,1.444-1.627A3.932,3.932,0,0,1,70.2,6.853a3.788,3.788,0,0,1,2.968,1.27A4.886,4.886,0,0,1,74.3,11.5v.108a5.351,5.351,0,0,1-.5,2.353,3.813,3.813,0,0,1-1.436,1.623,3.977,3.977,0,0,1-2.146.581,3.778,3.778,0,0,1-2.959-1.27,4.861,4.861,0,0,1-1.133-3.362Zm1.544.183a3.842,3.842,0,0,0,.693,2.4A2.349,2.349,0,0,0,72.076,14a4.2,4.2,0,0,0,.689-2.569,3.836,3.836,0,0,0-.7-2.395A2.23,2.23,0,0,0,70.2,8.114a2.205,2.205,0,0,0-1.834.9A4.17,4.17,0,0,0,67.668,11.609Zm10.011-4.59.05,1.129a3.273,3.273,0,0,1,2.689-1.295q2.847,0,2.872,3.212V16H81.754V10.057a2.068,2.068,0,0,0-.444-1.436,1.78,1.78,0,0,0-1.357-.465,2.216,2.216,0,0,0-1.312.4,2.706,2.706,0,0,0-.88,1.046V16H76.226V7.019Zm11.762,4.416A5.261,5.261,0,0,1,90.42,8.11a3.333,3.333,0,0,1,5.063-.178V3.25H97.02V16H95.608l-.075-.963a3.127,3.127,0,0,1-2.565,1.129,3.068,3.068,0,0,1-2.544-1.278,5.321,5.321,0,0,1-.984-3.337Zm1.536.174A3.984,3.984,0,0,0,91.607,14a2.039,2.039,0,0,0,1.743.863,2.24,2.24,0,0,0,2.133-1.312V9.426a2.257,2.257,0,0,0-2.117-1.27,2.049,2.049,0,0,0-1.76.872A4.386,4.386,0,0,0,90.977,11.609Zm12.152,4.557a3.924,3.924,0,0,1-2.972-1.2,4.452,4.452,0,0,1-1.146-3.208v-.282a5.39,5.39,0,0,1,.51-2.386,3.982,3.982,0,0,1,1.428-1.644,3.59,3.59,0,0,1,1.988-.594,3.364,3.364,0,0,1,2.723,1.154,5,5,0,0,1,.971,3.3v.639h-6.084a3.193,3.193,0,0,0,.776,2.146,2.44,2.44,0,0,0,1.888.818,2.675,2.675,0,0,0,1.378-.332,3.462,3.462,0,0,0,.988-.88l.938.73A3.772,3.772,0,0,1,103.129,16.166Zm-.191-8.052a2.048,2.048,0,0,0-1.561.677,3.288,3.288,0,0,0-.78,1.9h4.5v-.116a2.925,2.925,0,0,0-.631-1.814A1.928,1.928,0,0,0,102.938,8.114Zm9.073,6.8a2.212,2.212,0,0,0,1.436-.5,1.752,1.752,0,0,0,.681-1.245h1.453a2.785,2.785,0,0,1-.531,1.469,3.5,3.5,0,0,1-1.307,1.112,3.772,3.772,0,0,1-1.731.415,3.7,3.7,0,0,1-2.918-1.224,4.877,4.877,0,0,1-1.083-3.349v-.257A5.407,5.407,0,0,1,108.491,9a3.667,3.667,0,0,1,1.382-1.585A3.926,3.926,0,0,1,112,6.853a3.6,3.6,0,0,1,2.511.9,3.234,3.234,0,0,1,1.067,2.349h-1.453a2.116,2.116,0,0,0-.66-1.432A2.053,2.053,0,0,0,112,8.114a2.149,2.149,0,0,0-1.814.843,3.957,3.957,0,0,0-.643,2.436v.291a3.878,3.878,0,0,0,.639,2.391A2.16,2.16,0,0,0,112.011,14.913ZM118.975,16h-1.536V7.019h1.536Zm-1.66-11.364a.917.917,0,0,1,.228-.631.857.857,0,0,1,.677-.257.87.87,0,0,1,.681.257.907.907,0,0,1,.232.631.877.877,0,0,1-.232.623.886.886,0,0,1-.681.249.872.872,0,0,1-.677-.249A.886.886,0,0,1,117.315,4.636Zm9.347,8.981a1.131,1.131,0,0,0-.469-.967,4.514,4.514,0,0,0-1.635-.594,7.731,7.731,0,0,1-1.851-.6,2.633,2.633,0,0,1-1.013-.83,1.986,1.986,0,0,1-.328-1.146,2.33,2.33,0,0,1,.934-1.868,3.647,3.647,0,0,1,2.386-.764,3.753,3.753,0,0,1,2.478.789,2.5,2.5,0,0,1,.95,2.017H126.57a1.386,1.386,0,0,0-.535-1.087,2.006,2.006,0,0,0-1.349-.457,2.1,2.1,0,0,0-1.312.365,1.15,1.15,0,0,0-.473.955.932.932,0,0,0,.44.838,5.413,5.413,0,0,0,1.59.54,8.283,8.283,0,0,1,1.864.614,2.718,2.718,0,0,1,1.058.859,2.112,2.112,0,0,1,.344,1.224,2.3,2.3,0,0,1-.963,1.93,4.039,4.039,0,0,1-2.5.726,4.523,4.523,0,0,1-1.909-.382,3.105,3.105,0,0,1-1.3-1.067,2.571,2.571,0,0,1-.469-1.482h1.536a1.59,1.59,0,0,0,.618,1.224,2.4,2.4,0,0,0,1.523.452,2.476,2.476,0,0,0,1.4-.353A1.084,1.084,0,0,0,126.662,13.618Zm5.2,2.382h-1.536V7.019h1.536Zm-1.66-11.364a.917.917,0,0,1,.228-.631.857.857,0,0,1,.677-.257.87.87,0,0,1,.681.257.907.907,0,0,1,.232.631.877.877,0,0,1-.232.623.886.886,0,0,1-.681.249.872.872,0,0,1-.677-.249A.886.886,0,0,1,130.206,4.636Zm3.71,6.79a5.3,5.3,0,0,1,.519-2.374,3.87,3.87,0,0,1,1.444-1.627,3.932,3.932,0,0,1,2.113-.573,3.788,3.788,0,0,1,2.968,1.27,4.886,4.886,0,0,1,1.133,3.378v.108a5.351,5.351,0,0,1-.5,2.353,3.813,3.813,0,0,1-1.436,1.623,3.977,3.977,0,0,1-2.146.581,3.778,3.778,0,0,1-2.959-1.27,4.861,4.861,0,0,1-1.133-3.362Zm1.544.183a3.842,3.842,0,0,0,.693,2.4A2.349,2.349,0,0,0,139.868,14a4.2,4.2,0,0,0,.689-2.569,3.836,3.836,0,0,0-.7-2.395,2.23,2.23,0,0,0-1.864-.917,2.205,2.205,0,0,0-1.834.9A4.17,4.17,0,0,0,135.46,11.609Zm3.229-8.359h1.859l-2.225,2.44-1.237,0Zm6.782,3.769.05,1.129a3.273,3.273,0,0,1,2.689-1.295q2.847,0,2.872,3.212V16h-1.536V10.057a2.068,2.068,0,0,0-.444-1.436,1.78,1.78,0,0,0-1.357-.465,2.216,2.216,0,0,0-1.312.4,2.706,2.706,0,0,0-.88,1.046V16h-1.536V7.019Z" transform="translate(1094 4413.578)" fill="#12263f"/>
    <path id="Trazado_606838" data-name="Trazado 606838" d="M.789,11.435A5.261,5.261,0,0,1,1.768,8.11,3.1,3.1,0,0,1,4.333,6.853a3.115,3.115,0,0,1,2.5,1.079V3.25H8.367V16H6.956l-.075-.963a3.127,3.127,0,0,1-2.565,1.129,3.068,3.068,0,0,1-2.544-1.278,5.321,5.321,0,0,1-.984-3.337Zm1.536.174A3.984,3.984,0,0,0,2.955,14a2.039,2.039,0,0,0,1.743.863,2.24,2.24,0,0,0,2.133-1.312V9.426a2.257,2.257,0,0,0-2.117-1.27,2.049,2.049,0,0,0-1.76.872A4.386,4.386,0,0,0,2.324,11.609Zm12.152,4.557a3.924,3.924,0,0,1-2.972-1.2,4.452,4.452,0,0,1-1.146-3.208v-.282a5.39,5.39,0,0,1,.51-2.386A3.982,3.982,0,0,1,12.3,7.446a3.59,3.59,0,0,1,1.988-.594,3.364,3.364,0,0,1,2.723,1.154,5,5,0,0,1,.971,3.3v.639H11.9a3.193,3.193,0,0,0,.776,2.146,2.44,2.44,0,0,0,1.888.818,2.675,2.675,0,0,0,1.378-.332,3.462,3.462,0,0,0,.988-.88l.938.73A3.772,3.772,0,0,1,14.477,16.166Zm-.191-8.052a2.048,2.048,0,0,0-1.561.677,3.288,3.288,0,0,0-.78,1.9h4.5v-.116a2.925,2.925,0,0,0-.631-1.814A1.928,1.928,0,0,0,14.286,8.114Zm13.281,6.8a2.212,2.212,0,0,0,1.436-.5,1.752,1.752,0,0,0,.681-1.245h1.453a2.785,2.785,0,0,1-.531,1.469A3.5,3.5,0,0,1,29.3,15.751a3.772,3.772,0,0,1-1.731.415,3.7,3.7,0,0,1-2.918-1.224,4.877,4.877,0,0,1-1.083-3.349v-.257A5.407,5.407,0,0,1,24.047,9a3.667,3.667,0,0,1,1.382-1.585,3.926,3.926,0,0,1,2.129-.564,3.6,3.6,0,0,1,2.511.9,3.234,3.234,0,0,1,1.067,2.349H29.684a2.116,2.116,0,0,0-.66-1.432,2.053,2.053,0,0,0-1.465-.56,2.149,2.149,0,0,0-1.814.843,3.957,3.957,0,0,0-.643,2.436v.291a3.878,3.878,0,0,0,.639,2.391A2.16,2.16,0,0,0,27.567,14.913Zm4.889-3.486a5.3,5.3,0,0,1,.519-2.374,3.87,3.87,0,0,1,1.444-1.627,3.932,3.932,0,0,1,2.113-.573A3.788,3.788,0,0,1,39.5,8.123,4.886,4.886,0,0,1,40.632,11.5v.108a5.351,5.351,0,0,1-.5,2.353,3.813,3.813,0,0,1-1.436,1.623,3.977,3.977,0,0,1-2.146.581,3.778,3.778,0,0,1-2.959-1.27,4.861,4.861,0,0,1-1.133-3.362ZM34,11.609a3.842,3.842,0,0,0,.693,2.4A2.349,2.349,0,0,0,38.408,14a4.2,4.2,0,0,0,.689-2.569,3.836,3.836,0,0,0-.7-2.395,2.23,2.23,0,0,0-1.864-.917,2.205,2.205,0,0,0-1.834.9A4.17,4.17,0,0,0,34,11.609Zm10-4.59.042,1a3.317,3.317,0,0,1,2.665-1.162A2.568,2.568,0,0,1,49.273,8.3,3.4,3.4,0,0,1,50.44,7.251a3.445,3.445,0,0,1,1.7-.4q2.955,0,3,3.129V16H53.606V10.073a2.062,2.062,0,0,0-.44-1.44,1.937,1.937,0,0,0-1.478-.477,2.036,2.036,0,0,0-1.419.51,2.071,2.071,0,0,0-.656,1.374V16H48.07V10.115a1.713,1.713,0,0,0-1.917-1.959,2.055,2.055,0,0,0-2.067,1.287V16H42.55V7.019Zm21.042,4.59a5.378,5.378,0,0,1-.938,3.3,3.006,3.006,0,0,1-2.54,1.253,3.294,3.294,0,0,1-2.573-1.038v4.325H57.458V7.019h1.4l.075,1a3.163,3.163,0,0,1,2.606-1.162A3.063,3.063,0,0,1,64.1,8.073a5.437,5.437,0,0,1,.942,3.4Zm-1.536-.174a3.968,3.968,0,0,0-.647-2.4,2.086,2.086,0,0,0-1.776-.88,2.257,2.257,0,0,0-2.092,1.237v4.292A2.262,2.262,0,0,0,61.1,14.913a2.076,2.076,0,0,0,1.756-.876A4.332,4.332,0,0,0,63.509,11.435ZM71.337,8.4a4.6,4.6,0,0,0-.755-.058,2.024,2.024,0,0,0-2.05,1.287V16H67V7.019H68.49l.025,1.038a2.391,2.391,0,0,1,2.142-1.2,1.569,1.569,0,0,1,.681.116ZM77.961,16a3.226,3.226,0,0,1-.216-.946,3.426,3.426,0,0,1-2.557,1.112,3.17,3.17,0,0,1-2.179-.751,2.43,2.43,0,0,1-.851-1.905,2.539,2.539,0,0,1,1.067-2.179,5.029,5.029,0,0,1,3-.776H77.72V9.849a1.725,1.725,0,0,0-.481-1.282,1.935,1.935,0,0,0-1.419-.477,2.239,2.239,0,0,0-1.378.415,1.223,1.223,0,0,0-.556,1H72.341a2.119,2.119,0,0,1,.477-1.3,3.258,3.258,0,0,1,1.295-.992,4.356,4.356,0,0,1,1.8-.365,3.551,3.551,0,0,1,2.432.776,2.8,2.8,0,0,1,.913,2.137V13.9a5.054,5.054,0,0,0,.315,1.967V16Zm-2.548-1.17a2.7,2.7,0,0,0,1.37-.374,2.259,2.259,0,0,0,.938-.971V11.642h-1.2q-2.822,0-2.822,1.652a1.4,1.4,0,0,0,.481,1.129A1.85,1.85,0,0,0,75.413,14.83Z" transform="translate(1133 4433.578)" fill="#12263f"/>
    <path id="Trazado_603598" data-name="Trazado 603598" d="M-7754-7329.455h31.406v49.721" transform="translate(8395 11684.033)" fill="none" stroke="#144567" stroke-width="1.5" stroke-dasharray="4"/>
    <path id="Trazado_603600" data-name="Trazado 603600" d="M-7754-7329.455h31.406v49.721" transform="translate(8896 11684.033)" fill="none" stroke="#144567" stroke-width="1.5" stroke-dasharray="4"/>
    <path id="Trazado_603599" data-name="Trazado 603599" d="M-7722.594-7329.455H-7754v49.721" transform="translate(8177.594 11684.033)" fill="none" stroke="#144567" stroke-width="1.5" stroke-dasharray="4"/>
    <path id="Trazado_603601" data-name="Trazado 603601" d="M-7722.594-7329.455H-7754v49.721" transform="translate(8678.594 11684.033)" fill="none" stroke="#144567" stroke-width="1.5" stroke-dasharray="4"/>
    <g id="Grupo_161427" data-name="Grupo 161427" transform="translate(995 4203.903)">
      <g id="Grupo_161426" data-name="Grupo 161426" clip-path="url(#clip-path-2)">
        <g id="Grupo_161425" data-name="Grupo 161425">
          <g id="Grupo_161424" data-name="Grupo 161424" clip-path="url(#clip-path-2)">
            <path id="Trazado_603602" data-name="Trazado 603602" d="M68.945,112.489c-6.216-3.391-4.521-19.782-4.521-19.782l-9.31.6v-.6l-1,.3-1-.3v.6l-9.31-.6s1.7,16.39-4.52,19.782S-3.659,117.575.3,155.438H107.939c3.956-37.863-32.777-39.559-38.994-42.95" transform="translate(0 -24.763)" fill="#ffac9d"/>
            <path id="Trazado_603603" data-name="Trazado 603603" d="M58,108.26q11.155-1.662,22.295-3.431a49.667,49.667,0,0,1-.377-12.123l-9.31.6v-.6l-1,.3-1-.3v.6l-9.31-.6S60.286,102.23,58,108.26" transform="translate(-15.492 -24.763)" fill="#cc887f"/>
            <path id="Trazado_603604" data-name="Trazado 603604" d="M74.839,122.268a42.023,42.023,0,0,1-20.946,5.192,42.121,42.121,0,0,1-20.8-5.109C20.787,125.666-2.92,132.533.3,163.334H107.939c3.246-31.062-20.891-37.782-33.1-41.066" transform="translate(0 -32.659)" fill="#7aa8ce"/>
            <path id="Trazado_603605" data-name="Trazado 603605" d="M100.755,140c-4.943,2.372-10.408,3.177-15.825,4.861q-11.486,3.571-23.05,6.879c-15.452,4.424-30.976,8.588-46.5,12.757Q8.741,166.281,2.1,168.071H108.5c1.384-13.247-2.219-22.056-7.746-28.071" transform="translate(-0.562 -37.395)" fill="#6f96bd"/>
            <path id="Trazado_603606" data-name="Trazado 603606" d="M28.758,124.052C15.985,127.9-2.574,136.328.3,163.811H44.16Z" transform="translate(0 -33.135)" fill="#ffa65b"/>
            <path id="Trazado_603607" data-name="Trazado 603607" d="M105.472,123.925l-7,39.851h35.767c2.9-27.707-15.991-36.042-28.77-39.851" transform="translate(-26.303 -33.101)" fill="#ffa65b"/>
            <path id="Trazado_603608" data-name="Trazado 603608" d="M46.94,163.811H50.8L35.4,124.052a62.679,62.679,0,0,0-10.544,4.133Z" transform="translate(-6.638 -33.135)" fill="#d68950"/>
            <path id="Trazado_603609" data-name="Trazado 603609" d="M105.472,123.925l-7,39.851h3.217l18.447-33.413a55.875,55.875,0,0,0-14.667-6.438" transform="translate(-26.303 -33.101)" fill="#d68950"/>
            <path id="Trazado_603610" data-name="Trazado 603610" d="M45.069,58.347c-1.831-5.682-6.169-4.367-6.575-4.23-.426.05-4.909.715-4.134,6.635.779,5.955,4.234,9.182,7.474,8.235,3.335-.529,5.077-4.924,3.235-10.64" transform="translate(-9.154 -14.394)" fill="#cc887f"/>
            <path id="Trazado_603611" data-name="Trazado 603611" d="M98.634,58.347c1.831-5.682,6.169-4.367,6.575-4.23.426.05,4.909.715,4.134,6.635-.779,5.955-4.234,9.182-7.474,8.235-3.335-.529-5.077-4.924-3.235-10.64" transform="translate(-26.146 -14.394)" fill="#cc887f"/>
            <path id="Trazado_603612" data-name="Trazado 603612" d="M42.834,39.7C45.1,14.784,64.042,16.18,65.828,16.368c1.786-.188,20.724-1.584,22.994,23.328,2.284,25.06-8.878,41.427-22.994,40.526-14.116.9-25.278-15.466-22.995-40.526" transform="translate(-11.362 -4.352)" fill="#ffac9d"/>
            <path id="Trazado_603613" data-name="Trazado 603613" d="M78.292,64.219a21.767,21.767,0,0,1,2.055,7.559,34.342,34.342,0,0,1-3.374,2.777c.375-.593.794-1.145,1.21-1.7s.857-1.084,1.3-1.609l-.126.438a21.469,21.469,0,0,1-1.069-7.466" transform="translate(-20.56 -17.153)" fill="#cc887f"/>
            <path id="Trazado_603614" data-name="Trazado 603614" d="M80.956,84.428c-4.509,4.383-12.146,4.14-17.931.234" transform="translate(-16.834 -22.551)" fill="#fff"/>
            <path id="Trazado_603615" data-name="Trazado 603615" d="M94.357,51.121c-3.343-1.97-6.722-3.421-10.329-1.324-.5.248-.97.577-1.549.829,2.38-5.581,9.668-4.723,11.878.495" transform="translate(-22.031 -12.503)" fill="#352c38"/>
            <path id="Trazado_603616" data-name="Trazado 603616" d="M62.168,51.121c-3.343-1.97-6.722-3.421-10.329-1.324-.5.248-.97.577-1.549.829,2.38-5.581,9.668-4.723,11.878.495" transform="translate(-13.433 -12.503)" fill="#352c38"/>
            <path id="Trazado_603617" data-name="Trazado 603617" d="M62.691,63.228A7.393,7.393,0,0,0,61.3,60.4a3.421,3.421,0,0,0-5.109-.113,6.017,6.017,0,0,0-1.019,2.944,4.628,4.628,0,0,1,.455-3.33,3.415,3.415,0,0,1,3.132-1.557c2.543-.081,4.145,2.613,3.935,4.887" transform="translate(-14.704 -15.582)" fill="#352c38"/>
            <path id="Trazado_603618" data-name="Trazado 603618" d="M91.617,62.761a7.393,7.393,0,0,0-1.394-2.831,3.42,3.42,0,0,0-5.108-.113,6.011,6.011,0,0,0-1.02,2.944,4.628,4.628,0,0,1,.455-3.33,3.416,3.416,0,0,1,3.132-1.557c2.543-.081,4.145,2.613,3.935,4.887" transform="translate(-22.43 -15.457)" fill="#352c38"/>
            <g id="Grupo_161420" data-name="Grupo 161420" transform="translate(16.437 14.924)" opacity="0.3">
              <g id="Grupo_161419" data-name="Grupo 161419">
                <g id="Grupo_161418" data-name="Grupo 161418" clip-path="url(#clip-path-4)">
                  <path id="Trazado_603619" data-name="Trazado 603619" d="M26.415,44.517a13.194,13.194,0,0,0,3.368-3.6,11.267,11.267,0,0,0,.583-1.307c.111-.468.265-.945.343-1.435.053-.493.138-.995.155-1.506s0-1.035.007-1.564q-.06-.759-.124-1.535l-.032-.39a1.006,1.006,0,0,1,0-.147l0-.186q.011-.381.035-.771a28.608,28.608,0,0,1,.364-3.157,16.01,16.01,0,0,1,.846-3.109,6.831,6.831,0,0,1,.327-.726,4.915,4.915,0,0,1,.377-.657l.191-.3.281-.327.142-.163.036-.041,0-.006.058-.053.32-.3a11.051,11.051,0,0,1,1.8-1.251c-.011-.542-.01-1.086,0-1.63a13.02,13.02,0,0,0-2.762,1.844l-.317.3-.079.074-.071.075-.053.062-.141.165-.281.331-.281.423a6.058,6.058,0,0,0-.464.842,8.053,8.053,0,0,0-.358.842,17.29,17.29,0,0,0-.846,3.393,25.92,25.92,0,0,0-.3,3.317c-.007.272-.01.543-.007.816l0,.207c0,.033.012.235.014.245l.046.388q.091.775.18,1.53a10.407,10.407,0,0,1-.745,5.319,13.682,13.682,0,0,1-2.991,3.583,13.4,13.4,0,0,0-2.376,2.915,8.338,8.338,0,0,0-.628,1.24,6.488,6.488,0,0,0-.355.96l-.259.808.333-.78a11.156,11.156,0,0,1,1.148-2.073,12.989,12.989,0,0,1,2.506-2.668" transform="translate(-22.428 -20.363)" fill="#352c38"/>
                </g>
              </g>
            </g>
            <path id="Trazado_603620" data-name="Trazado 603620" d="M91.606,19.019s8.306.244,10.993,10.5-.244,12.215-.244,20.521c0,0,0,5.13-1.222,6.841l-1.71-16.857s-11.482-6.108-7.818-21.01" transform="translate(-24.276 -5.08)" fill="#965450"/>
            <path id="Trazado_603621" data-name="Trazado 603621" d="M58.337.191a13.162,13.162,0,0,0-4.448,0,9.345,9.345,0,0,0-3.1,1.137,10.488,10.488,0,0,0-2.607,2.235c-1.513,1.747-2.653,3.75-4.026,5.539A13.636,13.636,0,0,1,39.1,13.386c-.512.254-1,.429-1.576.654a17.852,17.852,0,0,0-1.671.7,13.461,13.461,0,0,0-3.115,2.026l-.317.3-.08.075-.071.075-.018.021-.035.042-.141.165-.281.331-.281.423a6.178,6.178,0,0,0-.464.842,8.053,8.053,0,0,0-.358.842,17.3,17.3,0,0,0-.846,3.393,26.027,26.027,0,0,0-.3,3.317c-.007.271-.01.542-.007.815l0,.207c0,.033.011.235.013.245l.046.388.18,1.53a10.419,10.419,0,0,1-.745,5.319,13.67,13.67,0,0,1-2.991,3.583,13.4,13.4,0,0,0-2.376,2.915,8.343,8.343,0,0,0-.628,1.241,6.476,6.476,0,0,0-.355.959l-.259.808s.116-.272.333-.78a11.139,11.139,0,0,1,1.148-2.075,13,13,0,0,1,2.505-2.668,13.165,13.165,0,0,0,3.368-3.6,10.972,10.972,0,0,0,.583-1.307c.111-.468.265-.944.343-1.435.053-.492.138-.994.155-1.505s.005-1.036.007-1.564q-.062-.757-.125-1.535l-.032-.39a1.121,1.121,0,0,1,0-.147l0-.186c.007-.254.019-.512.035-.771a28.608,28.608,0,0,1,.364-3.157,16.017,16.017,0,0,1,.846-3.11,7.055,7.055,0,0,1,.327-.726,4.916,4.916,0,0,1,.377-.657l.19-.3.282-.327.142-.163.035-.041.005-.006.057-.053.32-.3a11.477,11.477,0,0,1,2.062-1.4c-.337.217-.66.439-.954.669-.155.117-.3.24-.453.366-.056.049-.117.1-.171.146q-.3.269-.569.569c-2.655,2.839-2.342,10.012-2.309,10.2,1.954,11.237-4.886,9.039-7.085,17.1s8.68,13.295,6.107,16.124C25.438,66.951,23,59.866,23,59.866c-.977,4.153,3.42,10.26,8.795,9.528,5.087-.693,10.606-4.673,8.7-12.968l.016.04.569,1.36c.17.429.377.85.52,1.287l.4,1.32.262,1.346c.028.451.093.906.1,1.359a9.7,9.7,0,0,1-.1,1.354,6.881,6.881,0,0,1-.3,1.324,7.566,7.566,0,0,1-.5,1.271,8.631,8.631,0,0,1-1.617,2.242,10.469,10.469,0,0,1-2.221,1.753,13.474,13.474,0,0,1-2.622,1.206,12.823,12.823,0,0,0,2.8-.863,10.808,10.808,0,0,0,2.525-1.574A9.478,9.478,0,0,0,42.3,67.567,8.1,8.1,0,0,0,43,66.192a7.981,7.981,0,0,0,.457-1.478,10.865,10.865,0,0,0,.225-1.532c.036-.514,0-1.028.005-1.545-.051-.509-.122-1.017-.193-1.527-.11-.5-.243-.989-.365-1.485s-.33-.956-.493-1.437l-.483-1.351c-.078-.226-.172-.461-.237-.681l-.138-.622a5.9,5.9,0,0,1-.171-1.228,3.123,3.123,0,0,1,.712-2.076c.49-.635,1.25-1.252,1.963-2.006A11.994,11.994,0,0,0,45.3,48.018a9.627,9.627,0,0,0,.833-1.4l.35-.735.251-.765c.077-.256.174-.51.232-.768l.144-.776.139-.777.054-.772.092-1.474.08-1.452a10.833,10.833,0,0,1,.111-1.417,20.035,20.035,0,0,1,.485-2.679,11.17,11.17,0,0,1,.368-1.319l.447-1.211.44-.637.55-.627c.21-.177.409-.369.623-.542.233-.145.454-.313.694-.45.255-.115.5-.251.76-.357l.814-.269.859-.18c.292-.047.593-.064.889-.1l1.958-.215.965-.114c.325-.048.668-.141,1-.21.663-.167,1.349-.267,1.985-.493l1.906-.679.248-.125A15.059,15.059,0,0,0,74.3,16.87C75.712,10.958,69.442.973,58.337.191M44.232,45.68a8.514,8.514,0,0,1-1.475,2.13c-.59.681-1.342,1.307-2.024,2.224a4.946,4.946,0,0,0-.465.74,3.429,3.429,0,0,0-.343.836l-.133.438-.045.444a3.982,3.982,0,0,0-.034.875c.012.114.023.228.035.342-1.335-5.671,2.372-5.337,4.844-8.889L44.5,45.1Z" transform="translate(-5.991 0)" fill="#76413b"/>
            <g id="Grupo_161423" data-name="Grupo 161423" transform="translate(16.868 16.588)" opacity="0.3">
              <g id="Grupo_161422" data-name="Grupo 161422">
                <g id="Grupo_161421" data-name="Grupo 161421" clip-path="url(#clip-path-5)">
                  <path id="Trazado_603622" data-name="Trazado 603622" d="M42.03,40.927a29.729,29.729,0,0,1-6.378-18.294c-.237.159-.477.317-.69.484-.155.117-.3.24-.453.367-.056.048-.117.1-.171.145q-.3.269-.569.569c-2.655,2.839-2.342,10.012-2.309,10.2,1.954,11.237-4.886,9.039-7.085,17.1s8.68,13.295,6.107,16.124c-4.886,5.375-7.329-1.71-7.329-1.71-.977,4.153,3.42,10.26,8.795,9.528,5.087-.693,10.606-4.673,8.7-12.968.005.013.011.026.016.04l.569,1.36c.17.429.377.85.52,1.287l.4,1.32.262,1.346c.028.451.093.906.1,1.359a9.7,9.7,0,0,1-.1,1.354,6.936,6.936,0,0,1-.3,1.324,7.566,7.566,0,0,1-.5,1.271,8.631,8.631,0,0,1-1.617,2.242,10.469,10.469,0,0,1-2.221,1.753,13.474,13.474,0,0,1-2.622,1.206,12.823,12.823,0,0,0,2.8-.863A10.808,10.808,0,0,0,40.469,75.9a9.478,9.478,0,0,0,1.991-2.283,8.1,8.1,0,0,0,.692-1.375,7.981,7.981,0,0,0,.457-1.478,10.865,10.865,0,0,0,.225-1.532c.036-.514,0-1.028.005-1.545-.051-.509-.122-1.017-.193-1.527-.11-.5-.243-.989-.365-1.485s-.33-.956-.493-1.437L42.3,61.882c-.078-.226-.172-.46-.237-.681l-.138-.622a5.9,5.9,0,0,1-.171-1.228,3.123,3.123,0,0,1,.712-2.076c.49-.635,1.25-1.252,1.963-2.006a11.994,11.994,0,0,0,1.028-1.206,9.627,9.627,0,0,0,.833-1.4l.35-.735.251-.765c.077-.256.174-.51.232-.768l.144-.776.139-.777.054-.772.089-1.438a38.916,38.916,0,0,1-5.523-5.71m2.631,10.22-.273.578a8.514,8.514,0,0,1-1.475,2.13c-.59.681-1.342,1.307-2.024,2.224a4.946,4.946,0,0,0-.465.74,3.429,3.429,0,0,0-.343.836l-.134.438-.045.444a3.982,3.982,0,0,0-.034.875l.035.342c-1.335-5.671,2.372-5.337,4.844-8.889Z" transform="translate(-23.015 -22.633)" fill="#352c38"/>
                </g>
              </g>
            </g>
          </g>
        </g>
      </g>
    </g>
    <g id="Grupo_161429" data-name="Grupo 161429" transform="translate(491 4203.903)">
      <g id="Grupo_161428" data-name="Grupo 161428" clip-path="url(#clip-path-6)">
        <path id="Trazado_603623" data-name="Trazado 603623" d="M73.312,110.855c-6.279-3.425-4.567-19.981-4.567-19.981l-9.4.606v-.6l-1.006.3-1.007-.3v.6l-9.4-.606s1.712,16.557-4.567,19.981S-.025,115.993,3.971,154.238H112.7c4-38.246-33.108-39.958-39.387-43.383" transform="translate(-0.953 -23.601)" fill="#f19c7c"/>
        <path id="Trazado_603624" data-name="Trazado 603624" d="M61.67,106.584q11.268-1.679,22.52-3.465a50.169,50.169,0,0,1-.381-12.245l-9.4.606v-.6l-1.007.3-1.006-.3v.6l-9.4-.606s.991,9.619-1.318,15.71" transform="translate(-16.016 -23.601)" fill="#c47d66"/>
        <path id="Trazado_603625" data-name="Trazado 603625" d="M79.344,120.463c-5.112,4.559-12.625,7.444-21.008,7.444s-15.9-2.885-21.007-7.444C24.971,123.788.7,130.612,3.972,161.923H112.7c3.271-31.311-21-38.135-33.357-41.46" transform="translate(-0.953 -31.285)" fill="#fc6a5a"/>
        <path id="Trazado_603626" data-name="Trazado 603626" d="M3.7,159.918a52.089,52.089,0,0,0,.273,6.5H112.7c1.42-13.589-2.351-22.561-8.081-28.642C70.685,143.7,37.1,151.437,3.7,159.918" transform="translate(-0.959 -35.782)" fill="#d35450"/>
        <path id="Trazado_603627" data-name="Trazado 603627" d="M34.7,118.519l6.416,42.937H.152S-4.289,124.935,34.7,118.519" transform="translate(0 -30.781)" fill="#765e69"/>
        <path id="Trazado_603628" data-name="Trazado 603628" d="M42.371,118.519l6.416,42.937L31.514,134.312l6.91-9.377L29.54,121.48a37.766,37.766,0,0,1,12.831-2.961" transform="translate(-7.672 -30.781)" fill="#8e7280"/>
        <path id="Trazado_603629" data-name="Trazado 603629" d="M105.416,118.519,99,161.456h40.963s4.442-36.521-34.547-42.937" transform="translate(-25.711 -30.781)" fill="#765e69"/>
        <path id="Trazado_603630" data-name="Trazado 603630" d="M105.416,118.519,99,161.456l17.274-27.144-6.91-9.377,8.883-3.455a37.766,37.766,0,0,0-12.831-2.961" transform="translate(-25.711 -30.781)" fill="#8e7280"/>
        <path id="Trazado_603631" data-name="Trazado 603631" d="M48.849,56.559c-1.85-5.739-6.231-4.411-6.641-4.272-.43.05-4.958.723-4.176,6.7.787,6.016,4.277,9.275,7.549,8.318,3.368-.534,5.129-4.973,3.268-10.748" transform="translate(-9.854 -13.52)" fill="#c47d66"/>
        <path id="Trazado_603632" data-name="Trazado 603632" d="M102.313,56.559c1.85-5.739,6.231-4.411,6.641-4.272.43.05,4.958.723,4.176,6.7-.787,6.016-4.277,9.275-7.549,8.318-3.368-.534-5.129-4.973-3.268-10.748" transform="translate(-26.375 -13.52)" fill="#c47d66"/>
        <path id="Trazado_603633" data-name="Trazado 603633" d="M46.509,38.1C48.8,12.936,67.931,14.345,69.735,14.535c1.8-.19,20.933-1.6,23.226,23.564,2.307,25.313-8.968,41.845-23.226,40.935C55.476,79.944,44.2,63.412,46.509,38.1" transform="translate(-12.001 -3.755)" fill="#f19c7c"/>
        <path id="Trazado_603634" data-name="Trazado 603634" d="M81.457,50.378c.318,1.155.564,2.318.785,3.483s.4,2.336.569,3.507c.087.585.149,1.173.224,1.76s.135,1.176.192,1.764c.124,1.176.211,2.357.281,3.539l.019.318-.229.141q-1.13.7-2.29,1.351c-.778.428-1.553.86-2.363,1.243.648-.618,1.331-1.185,2.011-1.757s1.381-1.113,2.085-1.649l-.211.46c-.191-1.169-.364-2.34-.5-3.515-.074-.586-.146-1.174-.2-1.763s-.124-1.177-.167-1.767c-.095-1.179-.17-2.361-.212-3.547s-.054-2.374,0-3.57" transform="translate(-20.425 -13.084)" fill="#a06653"/>
        <path id="Trazado_603635" data-name="Trazado 603635" d="M85.027,79.593c-4.554,4.427-11.644,4.137-17.487.192" transform="translate(-17.541 -20.671)" fill="#fff"/>
        <path id="Trazado_603636" data-name="Trazado 603636" d="M97.888,46.147l-2.21-.826c-.32-.1-.637-.244-.988-.342-.175-.05-.343-.121-.52-.176s-.357-.1-.537-.15c-.355-.12-.728-.163-1.085-.267a9.9,9.9,0,0,0-1.085-.133l-.536-.047c-.175.021-.352.019-.529.024a7.9,7.9,0,0,0-1.049.105,2.124,2.124,0,0,0-.515.1c-.17.041-.337.087-.508.121a6.655,6.655,0,0,0-.961.3,6.731,6.731,0,0,0-.863.3c-.252.111-.494.195-.691.27-.4.148-.663.218-.663.218a5.04,5.04,0,0,1,.253-.642c.093-.2.206-.447.359-.717a4.108,4.108,0,0,1,.62-.833,4.857,4.857,0,0,1,.91-.87,6.31,6.31,0,0,1,1.241-.746c.236-.1.483-.187.735-.277a2.892,2.892,0,0,1,.787-.184c.271-.038.546-.084.822-.108.275,0,.552.019.83.033a7.255,7.255,0,0,1,1.6.317c.252.081.488.193.723.3a3.711,3.711,0,0,1,.668.344c.208.13.414.252.606.385s.361.283.526.428a7.653,7.653,0,0,1,.86.871,6.719,6.719,0,0,1,.964,1.544,3.333,3.333,0,0,1,.235.66" transform="translate(-22.114 -10.718)" fill="#352c38"/>
        <path id="Trazado_603637" data-name="Trazado 603637" d="M68.671,45.654l-2.33-.673c-.336-.078-.676-.2-1.045-.272-.361-.1-.738-.175-1.118-.252s-.768-.114-1.15-.189a10.483,10.483,0,0,0-1.144-.058l-.566-.01c-.184.033-.369.044-.554.061a8.3,8.3,0,0,0-1.091.179,2.218,2.218,0,0,0-.53.138c-.174.053-.344.111-.519.157a6.768,6.768,0,0,0-.975.366,7.355,7.355,0,0,0-.871.356c-.253.129-.495.229-.694.318-.4.175-.664.263-.664.263a5.282,5.282,0,0,1,.236-.667c.088-.207.194-.466.34-.749a4.379,4.379,0,0,1,.6-.879,5.023,5.023,0,0,1,.894-.929c.181-.146.378-.284.577-.433a2.808,2.808,0,0,1,.653-.389,6,6,0,0,1,1.521-.556c.273-.056.549-.12.828-.161.28-.016.562-.02.844-.025a7.584,7.584,0,0,1,1.649.2,7.469,7.469,0,0,1,.761.241,3.978,3.978,0,0,1,.711.292,7.1,7.1,0,0,1,1.228.728,7.962,7.962,0,0,1,.961.81A6.945,6.945,0,0,1,68.364,45a3.461,3.461,0,0,1,.306.649" transform="translate(-14.394 -10.712)" fill="#352c38"/>
        <path id="Trazado_603638" data-name="Trazado 603638" d="M66.439,58.443s-.052-.2-.168-.546a8.937,8.937,0,0,0-.579-1.35,4.617,4.617,0,0,0-1.241-1.506,2.943,2.943,0,0,0-.93-.48A1.949,1.949,0,0,0,63,54.435a2.314,2.314,0,0,0-.552-.044,5.189,5.189,0,0,0-.537.01,4.041,4.041,0,0,0-.583.105,2.691,2.691,0,0,0-.9.428,3,3,0,0,0-.683.707,4.9,4.9,0,0,0-.43.827,7.562,7.562,0,0,0-.387,1.41c-.063.356-.081.566-.081.566a3.8,3.8,0,0,1-.094-.572,5.161,5.161,0,0,1,.076-1.547,4.1,4.1,0,0,1,.346-1.016,3.149,3.149,0,0,1,.764-.98,3.082,3.082,0,0,1,1.209-.657,4.721,4.721,0,0,1,.623-.128,4.953,4.953,0,0,1,.7-.036,3.175,3.175,0,0,1,.68.072,2.764,2.764,0,0,1,.662.178,2.424,2.424,0,0,1,.611.295,3.039,3.039,0,0,1,.529.391,4.341,4.341,0,0,1,1.21,1.9,5.772,5.772,0,0,1,.286,1.518,4.121,4.121,0,0,1,0,.578" transform="translate(-15.25 -13.896)" fill="#352c38"/>
        <path id="Trazado_603639" data-name="Trazado 603639" d="M95.365,57.976s-.052-.2-.168-.546a8.97,8.97,0,0,0-.579-1.35,4.617,4.617,0,0,0-1.241-1.506,2.943,2.943,0,0,0-.93-.48,1.956,1.956,0,0,0-.526-.127,2.314,2.314,0,0,0-.552-.044,5,5,0,0,0-.537.01,4.04,4.04,0,0,0-.583.105,2.692,2.692,0,0,0-.9.428,3,3,0,0,0-.683.707,4.909,4.909,0,0,0-.43.828,7.532,7.532,0,0,0-.387,1.41c-.063.355-.081.566-.081.566a3.821,3.821,0,0,1-.094-.572,5.162,5.162,0,0,1,.076-1.547,4.053,4.053,0,0,1,.346-1.015,3.144,3.144,0,0,1,.764-.981,3.066,3.066,0,0,1,1.209-.657,4.611,4.611,0,0,1,.623-.129,4.833,4.833,0,0,1,.7-.036,3.072,3.072,0,0,1,.679.072,2.725,2.725,0,0,1,.663.178,2.424,2.424,0,0,1,.611.295,3.005,3.005,0,0,1,.529.392,4.335,4.335,0,0,1,1.21,1.9,5.772,5.772,0,0,1,.286,1.518,4.135,4.135,0,0,1,0,.579" transform="translate(-22.763 -13.774)" fill="#352c38"/>
        <path id="Trazado_603640" data-name="Trazado 603640" d="M62.54,77.941H74.385l12.338.247s-2.885-5.206-12.261-4.712S64.267,76.214,62.54,77.941" transform="translate(-16.242 -19.074)" fill="#352c38"/>
        <path id="Trazado_603641" data-name="Trazado 603641" d="M53.08,17.9S62.7,30.243,76.523,28.022l-3.208-4.442s8.39,3.948,22.456.247c0,0,.987-15.3-22.949-18.754,0,0,11.351.987,19.248,5.675,0,0-23.2-24.182-42.2,0,0,0-10.858.247-11.352,12.338S40.989,39.62,40.989,39.62s2.467-1.974,3.208,2.221,0,10.611,2.715,16.534l4.442-3.208s-5.676-13.325-4.442-24.43c0,0,7.156-1.481,6.169-12.831" transform="translate(-9.99 0)" fill="#352c38"/>
        <path id="Trazado_603642" data-name="Trazado 603642" d="M108.61,29.186s3.208,27.144-4.442,38l-2.961-3.7a41.831,41.831,0,0,0,1.974-32.573Z" transform="translate(-26.284 -7.58)" fill="#352c38"/>
      </g>
    </g>
    <path id="Rectángulo_48421" data-name="Rectángulo 48421" d="M0,0H214a0,0,0,0,1,0,0V29a26,26,0,0,1-26,26H23A23,23,0,0,1,0,32V0A0,0,0,0,1,0,0Z" transform="translate(693 4165)" fill="#91e8d6"/>
    <path id="Trazado_606831" data-name="Trazado 606831" d="M10.177,5.931h-3.7V16H3.984V5.931H.332V3.914h9.845ZM13.97,16H11.563V7.019H13.97ZM11.422,4.694a1.181,1.181,0,0,1,.361-.888,1.356,1.356,0,0,1,.984-.349,1.36,1.36,0,0,1,.979.349,1.175,1.175,0,0,1,.365.888,1.178,1.178,0,0,1-.369.9,1.539,1.539,0,0,1-1.951,0A1.178,1.178,0,0,1,11.422,4.694Zm12.609,6.9a5.387,5.387,0,0,1-.942,3.324,3.021,3.021,0,0,1-2.544,1.249,2.8,2.8,0,0,1-2.2-.946v4.233h-2.4V7.019H18.17l.083.88a2.819,2.819,0,0,1,2.274-1.046,3.041,3.041,0,0,1,2.582,1.229,5.532,5.532,0,0,1,.921,3.387Zm-2.4-.174a3.535,3.535,0,0,0-.444-1.934A1.446,1.446,0,0,0,19.9,8.8a1.571,1.571,0,0,0-1.552.863v3.677a1.6,1.6,0,0,0,1.569.888Q21.632,14.232,21.632,11.418Zm3.511.008a5.327,5.327,0,0,1,.515-2.382,3.768,3.768,0,0,1,1.482-1.619,4.323,4.323,0,0,1,2.245-.573,4.09,4.09,0,0,1,2.968,1.112,4.464,4.464,0,0,1,1.282,3.021l.017.614A4.694,4.694,0,0,1,32.5,14.917a4.011,4.011,0,0,1-3.1,1.249,4.031,4.031,0,0,1-3.1-1.245,4.777,4.777,0,0,1-1.158-3.387Zm2.4.17a3.357,3.357,0,0,0,.481,1.958,1.73,1.73,0,0,0,2.739.008,3.674,3.674,0,0,0,.49-2.141,3.324,3.324,0,0,0-.49-1.945,1.592,1.592,0,0,0-1.378-.69,1.566,1.566,0,0,0-1.361.686A3.735,3.735,0,0,0,27.542,11.6Zm11.447-.154A5.413,5.413,0,0,1,39.931,8.1a3.057,3.057,0,0,1,2.577-1.245,2.751,2.751,0,0,1,2.167.979V3.25h2.407V16H44.916l-.116-.955a2.823,2.823,0,0,1-2.308,1.121,3.049,3.049,0,0,1-2.544-1.249A5.587,5.587,0,0,1,38.989,11.443Zm2.4.179a3.546,3.546,0,0,0,.44,1.937,1.433,1.433,0,0,0,1.278.673,1.605,1.605,0,0,0,1.569-.939V9.743A1.582,1.582,0,0,0,43.123,8.8Q41.388,8.8,41.388,11.621Zm11.688,4.545a4.409,4.409,0,0,1-3.217-1.212,4.308,4.308,0,0,1-1.241-3.229v-.232a5.426,5.426,0,0,1,.523-2.42,3.838,3.838,0,0,1,1.482-1.644,4.159,4.159,0,0,1,2.187-.577,3.727,3.727,0,0,1,2.9,1.162,4.722,4.722,0,0,1,1.058,3.3v.979H51.05a2.229,2.229,0,0,0,.7,1.411,2.12,2.12,0,0,0,1.482.531,2.589,2.589,0,0,0,2.167-1l1.179,1.32a3.6,3.6,0,0,1-1.461,1.191A4.793,4.793,0,0,1,53.075,16.166ZM52.8,8.787a1.5,1.5,0,0,0-1.158.484,2.5,2.5,0,0,0-.569,1.384h3.337v-.192a1.786,1.786,0,0,0-.432-1.238A1.547,1.547,0,0,0,52.8,8.787Zm13.3,5.445a1.573,1.573,0,0,0,1.079-.365,1.28,1.28,0,0,0,.432-.971h2.25a3.077,3.077,0,0,1-.5,1.673,3.286,3.286,0,0,1-1.341,1.179,4.2,4.2,0,0,1-1.88.419A3.9,3.9,0,0,1,63.1,14.942a4.845,4.845,0,0,1-1.112-3.383V11.4a4.79,4.79,0,0,1,1.1-3.312,3.854,3.854,0,0,1,3.03-1.237,3.778,3.778,0,0,1,2.7.959,3.4,3.4,0,0,1,1.033,2.552H67.61a1.648,1.648,0,0,0-.432-1.139,1.6,1.6,0,0,0-2.362.173,3.541,3.541,0,0,0-.427,1.983v.249a3.586,3.586,0,0,0,.423,2A1.463,1.463,0,0,0,66.1,14.232ZM73.761,16H71.354V3.25h2.407Zm4.507,0H75.861V7.019h2.407ZM75.72,4.694a1.181,1.181,0,0,1,.361-.888,1.556,1.556,0,0,1,1.963,0,1.175,1.175,0,0,1,.365.888,1.178,1.178,0,0,1-.369.9,1.539,1.539,0,0,1-1.951,0A1.178,1.178,0,0,1,75.72,4.694Zm8.658,11.472a4.409,4.409,0,0,1-3.217-1.212,4.308,4.308,0,0,1-1.241-3.229v-.232a5.426,5.426,0,0,1,.523-2.42,3.838,3.838,0,0,1,1.482-1.644,4.159,4.159,0,0,1,2.187-.577,3.727,3.727,0,0,1,2.9,1.162,4.722,4.722,0,0,1,1.058,3.3v.979H82.352a2.229,2.229,0,0,0,.7,1.411,2.12,2.12,0,0,0,1.482.531,2.589,2.589,0,0,0,2.167-1l1.179,1.32a3.6,3.6,0,0,1-1.461,1.191A4.793,4.793,0,0,1,84.377,16.166ZM84.1,8.787a1.5,1.5,0,0,0-1.158.484,2.5,2.5,0,0,0-.569,1.384h3.337v-.192a1.786,1.786,0,0,0-.432-1.238A1.547,1.547,0,0,0,84.1,8.787Zm7.537-1.768.075,1.038a3.136,3.136,0,0,1,2.582-1.2,2.606,2.606,0,0,1,2.125.838,3.912,3.912,0,0,1,.714,2.507V16h-2.4V10.256A1.556,1.556,0,0,0,94.4,9.148,1.486,1.486,0,0,0,93.3,8.8a1.65,1.65,0,0,0-1.519.863V16h-2.4V7.019Zm10.185-2.208V7.019h1.536v1.76h-1.536v4.482a1.07,1.07,0,0,0,.191.714.959.959,0,0,0,.73.216,3.826,3.826,0,0,0,.706-.058V15.95a4.938,4.938,0,0,1-1.453.216,2.29,2.29,0,0,1-2.573-2.548V8.778H98.115V7.019h1.312V4.811Zm7.006,11.355a4.409,4.409,0,0,1-3.217-1.212,4.308,4.308,0,0,1-1.241-3.229v-.232a5.426,5.426,0,0,1,.523-2.42,3.838,3.838,0,0,1,1.482-1.644,4.159,4.159,0,0,1,2.187-.577,3.727,3.727,0,0,1,2.9,1.162,4.722,4.722,0,0,1,1.058,3.3v.979h-5.719a2.229,2.229,0,0,0,.7,1.411,2.12,2.12,0,0,0,1.482.531,2.589,2.589,0,0,0,2.167-1l1.179,1.32a3.6,3.6,0,0,1-1.461,1.191A4.793,4.793,0,0,1,108.832,16.166Zm-.274-7.379a1.5,1.5,0,0,0-1.158.484,2.5,2.5,0,0,0-.569,1.384h3.337v-.192a1.786,1.786,0,0,0-.432-1.238A1.547,1.547,0,0,0,108.558,8.787Z" transform="translate(741 4180)" fill="#12263f"/>
    <rect id="Rectángulo_48422" data-name="Rectángulo 48422" width="355" height="4" transform="translate(623 4163)" fill="#66b9a8"/>
  </g>
</svg>
