<svg xmlns="http://www.w3.org/2000/svg" xmlns:xlink="http://www.w3.org/1999/xlink" width="610" height="303" viewBox="0 0 610 303">
  <defs>
    <clipPath id="clip-path">
      <rect id="Rectángulo_46628" data-name="Rectángulo 46628" width="18.266" height="23.916" fill="#144567"/>
    </clipPath>
    <clipPath id="clip-path-5">
      <rect id="Rectángulo_47355" data-name="Rectángulo 47355" width="89" height="88.821" fill="#144567"/>
    </clipPath>
  </defs>
  <g id="Grupo_162115" data-name="Grupo 162115" transform="translate(-180 -3726)">
    <rect id="Rectángulo_47353" data-name="Rectángulo 47353" width="210" height="75" transform="translate(580 3726)" fill="#f6efe9"/>
    <rect id="Rectángulo_47354" data-name="Rectángulo 47354" width="210" height="75" transform="translate(180 3726)" fill="#f6efe9"/>
    <rect id="Rectángulo_47350" data-name="Rectángulo 47350" width="210" height="106" transform="translate(580 3923)" fill="#f6efe9"/>
    <rect id="Rectángulo_47352" data-name="Rectángulo 47352" width="210" height="106" transform="translate(180 3923)" fill="#f6efe9"/>
    <path id="Trazado_606820" data-name="Trazado 606820" d="M3,11.269V16H1.4V3.914H5.86A4.478,4.478,0,0,1,8.969,4.927a3.433,3.433,0,0,1,1.125,2.681,3.388,3.388,0,0,1-1.1,2.71,4.678,4.678,0,0,1-3.15.95Zm0-1.3H5.86a2.863,2.863,0,0,0,1.959-.6A2.2,2.2,0,0,0,8.5,7.62a2.277,2.277,0,0,0-.681-1.73,2.682,2.682,0,0,0-1.868-.674H3ZM17.34,16a3.226,3.226,0,0,1-.216-.946,3.426,3.426,0,0,1-2.557,1.112,3.17,3.17,0,0,1-2.179-.751,2.43,2.43,0,0,1-.851-1.905A2.539,2.539,0,0,1,12.6,11.331a5.029,5.029,0,0,1,3-.776H17.1V9.849a1.725,1.725,0,0,0-.481-1.282A1.935,1.935,0,0,0,15.2,8.089a2.239,2.239,0,0,0-1.378.415,1.223,1.223,0,0,0-.556,1H11.721a2.119,2.119,0,0,1,.477-1.3,3.258,3.258,0,0,1,1.295-.992,4.356,4.356,0,0,1,1.8-.365,3.551,3.551,0,0,1,2.432.776,2.8,2.8,0,0,1,.913,2.137V13.9a5.054,5.054,0,0,0,.315,1.967V16Zm-2.548-1.17a2.7,2.7,0,0,0,1.37-.374,2.259,2.259,0,0,0,.938-.971V11.642H15.9q-2.822,0-2.822,1.652a1.4,1.4,0,0,0,.481,1.129A1.85,1.85,0,0,0,14.792,14.83Zm8.334-9.986V7.019H24.8V8.206H23.126v5.577a1.247,1.247,0,0,0,.224.81.943.943,0,0,0,.764.27,3.718,3.718,0,0,0,.73-.1V16a4.478,4.478,0,0,1-1.179.165,1.912,1.912,0,0,1-1.552-.623,2.675,2.675,0,0,1-.523-1.768V8.206H19.955V7.019H21.59V4.844ZM30.937,8.4a4.6,4.6,0,0,0-.755-.058,2.024,2.024,0,0,0-2.05,1.287V16H26.6V7.019H28.09l.025,1.038a2.391,2.391,0,0,1,2.142-1.2,1.569,1.569,0,0,1,.681.116Zm3.08,7.6H32.481V7.019h1.536ZM32.356,4.636a.917.917,0,0,1,.228-.631.857.857,0,0,1,.677-.257.87.87,0,0,1,.681.257.907.907,0,0,1,.232.631.877.877,0,0,1-.232.623.886.886,0,0,1-.681.249.872.872,0,0,1-.677-.249A.886.886,0,0,1,32.356,4.636Zm5.562,2.382.042,1a3.317,3.317,0,0,1,2.665-1.162A2.568,2.568,0,0,1,43.189,8.3a3.4,3.4,0,0,1,1.166-1.046,3.445,3.445,0,0,1,1.7-.4q2.955,0,3,3.129V16H47.522V10.073a2.062,2.062,0,0,0-.44-1.44A1.937,1.937,0,0,0,45.6,8.156a2.036,2.036,0,0,0-1.419.51,2.071,2.071,0,0,0-.656,1.374V16H41.985V10.115a1.713,1.713,0,0,0-1.917-1.959A2.055,2.055,0,0,0,38,9.442V16H36.465V7.019Zm13.049,4.408a5.3,5.3,0,0,1,.519-2.374A3.87,3.87,0,0,1,52.93,7.425a3.932,3.932,0,0,1,2.113-.573,3.788,3.788,0,0,1,2.968,1.27A4.886,4.886,0,0,1,59.143,11.5v.108a5.351,5.351,0,0,1-.5,2.353A3.813,3.813,0,0,1,57.2,15.585a3.977,3.977,0,0,1-2.146.581A3.778,3.778,0,0,1,52.1,14.9a4.861,4.861,0,0,1-1.133-3.362Zm1.544.183a3.842,3.842,0,0,0,.693,2.4A2.349,2.349,0,0,0,56.918,14a4.2,4.2,0,0,0,.689-2.569,3.836,3.836,0,0,0-.7-2.395,2.23,2.23,0,0,0-1.864-.917,2.205,2.205,0,0,0-1.834.9A4.17,4.17,0,0,0,52.511,11.609Zm10.011-4.59.05,1.129a3.273,3.273,0,0,1,2.689-1.295q2.847,0,2.872,3.212V16H66.6V10.057a2.068,2.068,0,0,0-.444-1.436A1.78,1.78,0,0,0,64.8,8.156a2.216,2.216,0,0,0-1.312.4A2.706,2.706,0,0,0,62.6,9.6V16H61.069V7.019ZM72.117,16H70.582V7.019h1.536ZM70.457,4.636a.917.917,0,0,1,.228-.631.857.857,0,0,1,.677-.257.87.87,0,0,1,.681.257.907.907,0,0,1,.232.631.877.877,0,0,1-.232.623.886.886,0,0,1-.681.249.872.872,0,0,1-.677-.249A.886.886,0,0,1,70.457,4.636Zm3.71,6.79a5.3,5.3,0,0,1,.519-2.374,3.87,3.87,0,0,1,1.444-1.627,3.932,3.932,0,0,1,2.113-.573,3.788,3.788,0,0,1,2.968,1.27A4.886,4.886,0,0,1,82.344,11.5v.108a5.351,5.351,0,0,1-.5,2.353,3.813,3.813,0,0,1-1.436,1.623,3.977,3.977,0,0,1-2.146.581A3.778,3.778,0,0,1,75.3,14.9a4.861,4.861,0,0,1-1.133-3.362Zm1.544.183a3.842,3.842,0,0,0,.693,2.4A2.349,2.349,0,0,0,80.119,14a4.2,4.2,0,0,0,.689-2.569,3.836,3.836,0,0,0-.7-2.395,2.23,2.23,0,0,0-1.864-.917,2.205,2.205,0,0,0-1.834.9A4.17,4.17,0,0,0,75.711,11.609ZM88.1,11.435a5.261,5.261,0,0,1,.979-3.324,3.333,3.333,0,0,1,5.063-.178V3.25h1.536V16H94.272l-.075-.963a3.127,3.127,0,0,1-2.565,1.129,3.068,3.068,0,0,1-2.544-1.278,5.321,5.321,0,0,1-.984-3.337Zm1.536.174A3.984,3.984,0,0,0,90.271,14a2.039,2.039,0,0,0,1.743.863,2.24,2.24,0,0,0,2.133-1.312V9.426a2.257,2.257,0,0,0-2.117-1.27,2.049,2.049,0,0,0-1.76.872A4.386,4.386,0,0,0,89.64,11.609Zm12.152,4.557a3.924,3.924,0,0,1-2.972-1.2,4.452,4.452,0,0,1-1.146-3.208v-.282a5.39,5.39,0,0,1,.51-2.386,3.982,3.982,0,0,1,1.428-1.644,3.59,3.59,0,0,1,1.988-.594,3.364,3.364,0,0,1,2.723,1.154,5,5,0,0,1,.971,3.3v.639H99.211a3.193,3.193,0,0,0,.776,2.146,2.44,2.44,0,0,0,1.888.818,2.675,2.675,0,0,0,1.378-.332,3.462,3.462,0,0,0,.988-.88l.938.73A3.772,3.772,0,0,1,101.792,16.166ZM101.6,8.114a2.048,2.048,0,0,0-1.561.677,3.288,3.288,0,0,0-.78,1.9h4.5v-.116a2.925,2.925,0,0,0-.631-1.814A1.928,1.928,0,0,0,101.6,8.114ZM112.949,16h-1.536V3.25h1.536Zm8,0a3.226,3.226,0,0,1-.216-.946,3.426,3.426,0,0,1-2.557,1.112A3.17,3.17,0,0,1,116,15.415a2.43,2.43,0,0,1-.851-1.905,2.539,2.539,0,0,1,1.067-2.179,5.029,5.029,0,0,1,3-.776h1.494V9.849a1.725,1.725,0,0,0-.481-1.282,1.935,1.935,0,0,0-1.419-.477,2.239,2.239,0,0,0-1.378.415,1.223,1.223,0,0,0-.556,1h-1.544a2.119,2.119,0,0,1,.477-1.3,3.258,3.258,0,0,1,1.295-.992,4.356,4.356,0,0,1,1.8-.365,3.551,3.551,0,0,1,2.432.776,2.8,2.8,0,0,1,.913,2.137V13.9a5.054,5.054,0,0,0,.315,1.967V16ZM118.4,14.83a2.7,2.7,0,0,0,1.37-.374,2.259,2.259,0,0,0,.938-.971V11.642h-1.2q-2.822,0-2.822,1.652a1.4,1.4,0,0,0,.481,1.129A1.85,1.85,0,0,0,118.4,14.83Zm18.046-3.221a5.378,5.378,0,0,1-.938,3.3,3.006,3.006,0,0,1-2.54,1.253,3.294,3.294,0,0,1-2.573-1.038v4.325h-1.536V7.019h1.4l.075,1a3.163,3.163,0,0,1,2.606-1.162,3.063,3.063,0,0,1,2.561,1.22,5.437,5.437,0,0,1,.942,3.4Zm-1.536-.174a3.968,3.968,0,0,0-.647-2.4,2.086,2.086,0,0,0-1.776-.88A2.257,2.257,0,0,0,130.4,9.393v4.292a2.262,2.262,0,0,0,2.108,1.229,2.076,2.076,0,0,0,1.756-.876A4.332,4.332,0,0,0,134.913,11.435Zm7.213,4.731a3.924,3.924,0,0,1-2.972-1.2,4.452,4.452,0,0,1-1.146-3.208v-.282a5.39,5.39,0,0,1,.51-2.386,3.982,3.982,0,0,1,1.428-1.644,3.59,3.59,0,0,1,1.988-.594,3.364,3.364,0,0,1,2.723,1.154,5,5,0,0,1,.971,3.3v.639h-6.084a3.193,3.193,0,0,0,.776,2.146,2.44,2.44,0,0,0,1.888.818,2.675,2.675,0,0,0,1.378-.332,3.462,3.462,0,0,0,.988-.88l.938.73A3.772,3.772,0,0,1,142.126,16.166Zm-.191-8.052a2.048,2.048,0,0,0-1.561.677,3.288,3.288,0,0,0-.78,1.9h4.5v-.116a2.925,2.925,0,0,0-.631-1.814A1.928,1.928,0,0,0,141.935,8.114Zm9.812.282a4.6,4.6,0,0,0-.755-.058,2.024,2.024,0,0,0-2.05,1.287V16h-1.536V7.019H148.9l.025,1.038a2.391,2.391,0,0,1,2.142-1.2,1.569,1.569,0,0,1,.681.116Zm6.641,5.221a1.13,1.13,0,0,0-.469-.967,4.514,4.514,0,0,0-1.635-.594,7.731,7.731,0,0,1-1.851-.6,2.633,2.633,0,0,1-1.013-.83,1.986,1.986,0,0,1-.328-1.146,2.33,2.33,0,0,1,.934-1.868,3.647,3.647,0,0,1,2.386-.764,3.753,3.753,0,0,1,2.478.789,2.5,2.5,0,0,1,.95,2.017H158.3a1.386,1.386,0,0,0-.535-1.087,2.006,2.006,0,0,0-1.349-.457,2.1,2.1,0,0,0-1.312.365,1.15,1.15,0,0,0-.473.955.932.932,0,0,0,.44.838,5.413,5.413,0,0,0,1.59.54,8.283,8.283,0,0,1,1.864.614,2.718,2.718,0,0,1,1.058.859,2.112,2.112,0,0,1,.344,1.224,2.3,2.3,0,0,1-.963,1.93,4.039,4.039,0,0,1-2.5.726,4.523,4.523,0,0,1-1.909-.382,3.105,3.105,0,0,1-1.3-1.067,2.571,2.571,0,0,1-.469-1.482h1.536a1.59,1.59,0,0,0,.618,1.224,2.4,2.4,0,0,0,1.523.452,2.476,2.476,0,0,0,1.4-.353A1.084,1.084,0,0,0,158.387,13.618Zm3.129-2.191a5.3,5.3,0,0,1,.519-2.374,3.87,3.87,0,0,1,1.444-1.627,3.932,3.932,0,0,1,2.113-.573,3.788,3.788,0,0,1,2.968,1.27,4.886,4.886,0,0,1,1.133,3.378v.108a5.351,5.351,0,0,1-.5,2.353,3.813,3.813,0,0,1-1.436,1.623,3.977,3.977,0,0,1-2.146.581,3.778,3.778,0,0,1-2.959-1.27,4.861,4.861,0,0,1-1.133-3.362Zm1.544.183a3.842,3.842,0,0,0,.693,2.4A2.349,2.349,0,0,0,167.468,14a4.2,4.2,0,0,0,.689-2.569,3.836,3.836,0,0,0-.7-2.395,2.23,2.23,0,0,0-1.864-.917,2.205,2.205,0,0,0-1.834.9A4.17,4.17,0,0,0,163.061,11.609Zm10.011-4.59.05,1.129a3.273,3.273,0,0,1,2.689-1.295q2.847,0,2.872,3.212V16h-1.536V10.057a2.068,2.068,0,0,0-.444-1.436,1.78,1.78,0,0,0-1.357-.465,2.216,2.216,0,0,0-1.312.4,2.706,2.706,0,0,0-.88,1.046V16h-1.536V7.019ZM186.543,16a3.226,3.226,0,0,1-.216-.946,3.426,3.426,0,0,1-2.557,1.112,3.17,3.17,0,0,1-2.179-.751,2.43,2.43,0,0,1-.851-1.905,2.539,2.539,0,0,1,1.067-2.179,5.029,5.029,0,0,1,3-.776H186.3V9.849a1.725,1.725,0,0,0-.481-1.282,1.935,1.935,0,0,0-1.419-.477,2.239,2.239,0,0,0-1.378.415,1.223,1.223,0,0,0-.556,1h-1.544a2.119,2.119,0,0,1,.477-1.3,3.258,3.258,0,0,1,1.295-.992,4.356,4.356,0,0,1,1.8-.365,3.551,3.551,0,0,1,2.432.776,2.8,2.8,0,0,1,.913,2.137V13.9a5.054,5.054,0,0,0,.315,1.967V16ZM184,14.83a2.7,2.7,0,0,0,1.37-.374,2.259,2.259,0,0,0,.938-.971V11.642h-1.2q-2.822,0-2.822,1.652a1.4,1.4,0,0,0,.481,1.129A1.85,1.85,0,0,0,184,14.83Z" transform="translate(190 3753)" fill="#12263f"/>
    <path id="Trazado_606821" data-name="Trazado 606821" d="M9.911,3.914v8.218a3.855,3.855,0,0,1-1.075,2.8,4.332,4.332,0,0,1-2.893,1.22l-.423.017A4.524,4.524,0,0,1,2.357,15.1a3.83,3.83,0,0,1-1.2-2.947V3.914H2.739V12.1a2.764,2.764,0,0,0,.722,2.038,2.776,2.776,0,0,0,2.059.726,2.794,2.794,0,0,0,2.071-.722,2.759,2.759,0,0,0,.718-2.034V3.914Zm3.727,3.1.05,1.129a3.273,3.273,0,0,1,2.689-1.295q2.847,0,2.872,3.212V16H17.714V10.057a2.068,2.068,0,0,0-.444-1.436,1.78,1.78,0,0,0-1.357-.465,2.216,2.216,0,0,0-1.312.4,2.706,2.706,0,0,0-.88,1.046V16H12.186V7.019ZM27.11,16a3.226,3.226,0,0,1-.216-.946,3.426,3.426,0,0,1-2.557,1.112,3.17,3.17,0,0,1-2.179-.751,2.43,2.43,0,0,1-.851-1.905,2.539,2.539,0,0,1,1.067-2.179,5.029,5.029,0,0,1,3-.776H26.87V9.849a1.725,1.725,0,0,0-.481-1.282,1.935,1.935,0,0,0-1.419-.477,2.239,2.239,0,0,0-1.378.415,1.223,1.223,0,0,0-.556,1H21.491a2.119,2.119,0,0,1,.477-1.3,3.258,3.258,0,0,1,1.295-.992,4.356,4.356,0,0,1,1.8-.365,3.551,3.551,0,0,1,2.432.776,2.8,2.8,0,0,1,.913,2.137V13.9a5.054,5.054,0,0,0,.315,1.967V16Zm-2.548-1.17a2.7,2.7,0,0,0,1.37-.374,2.259,2.259,0,0,0,.938-.971V11.642h-1.2q-2.822,0-2.822,1.652a1.4,1.4,0,0,0,.481,1.129A1.85,1.85,0,0,0,24.562,14.83Zm18.046-3.221a5.378,5.378,0,0,1-.938,3.3,3.006,3.006,0,0,1-2.54,1.253,3.294,3.294,0,0,1-2.573-1.038v4.325H35.021V7.019h1.4l.075,1A3.163,3.163,0,0,1,39.1,6.853a3.063,3.063,0,0,1,2.561,1.22,5.437,5.437,0,0,1,.942,3.4Zm-1.536-.174a3.968,3.968,0,0,0-.647-2.4,2.086,2.086,0,0,0-1.776-.88,2.257,2.257,0,0,0-2.092,1.237v4.292a2.262,2.262,0,0,0,2.108,1.229,2.076,2.076,0,0,0,1.756-.876A4.332,4.332,0,0,0,41.072,11.435Zm7.213,4.731a3.924,3.924,0,0,1-2.972-1.2,4.452,4.452,0,0,1-1.146-3.208v-.282a5.39,5.39,0,0,1,.51-2.386,3.982,3.982,0,0,1,1.428-1.644,3.59,3.59,0,0,1,1.988-.594,3.364,3.364,0,0,1,2.723,1.154,5,5,0,0,1,.971,3.3v.639H45.7a3.193,3.193,0,0,0,.776,2.146,2.44,2.44,0,0,0,1.888.818,2.675,2.675,0,0,0,1.378-.332,3.462,3.462,0,0,0,.988-.88l.938.73A3.772,3.772,0,0,1,48.286,16.166Zm-.191-8.052a2.048,2.048,0,0,0-1.561.677,3.288,3.288,0,0,0-.78,1.9h4.5v-.116a2.925,2.925,0,0,0-.631-1.814A1.928,1.928,0,0,0,48.095,8.114Zm9.812.282a4.6,4.6,0,0,0-.755-.058A2.024,2.024,0,0,0,55.1,9.625V16H53.565V7.019h1.494l.025,1.038a2.391,2.391,0,0,1,2.142-1.2,1.569,1.569,0,0,1,.681.116Zm6.641,5.221a1.131,1.131,0,0,0-.469-.967,4.514,4.514,0,0,0-1.635-.594,7.731,7.731,0,0,1-1.851-.6,2.633,2.633,0,0,1-1.013-.83,1.986,1.986,0,0,1-.328-1.146,2.33,2.33,0,0,1,.934-1.868,3.647,3.647,0,0,1,2.386-.764,3.753,3.753,0,0,1,2.478.789A2.5,2.5,0,0,1,66,9.658H64.456a1.386,1.386,0,0,0-.535-1.087,2.006,2.006,0,0,0-1.349-.457,2.1,2.1,0,0,0-1.312.365,1.15,1.15,0,0,0-.473.955.932.932,0,0,0,.44.838,5.413,5.413,0,0,0,1.59.54,8.283,8.283,0,0,1,1.864.614,2.718,2.718,0,0,1,1.058.859,2.112,2.112,0,0,1,.344,1.224,2.3,2.3,0,0,1-.963,1.93,4.039,4.039,0,0,1-2.5.726,4.523,4.523,0,0,1-1.909-.382,3.105,3.105,0,0,1-1.3-1.067,2.571,2.571,0,0,1-.469-1.482h1.536A1.59,1.59,0,0,0,61.1,14.46a2.4,2.4,0,0,0,1.523.452,2.476,2.476,0,0,0,1.4-.353A1.084,1.084,0,0,0,64.547,13.618Zm3.129-2.191A5.3,5.3,0,0,1,68.2,9.052a3.87,3.87,0,0,1,1.444-1.627,3.932,3.932,0,0,1,2.113-.573,3.788,3.788,0,0,1,2.968,1.27A4.886,4.886,0,0,1,75.853,11.5v.108a5.351,5.351,0,0,1-.5,2.353,3.813,3.813,0,0,1-1.436,1.623,3.977,3.977,0,0,1-2.146.581,3.778,3.778,0,0,1-2.959-1.27,4.861,4.861,0,0,1-1.133-3.362Zm1.544.183a3.842,3.842,0,0,0,.693,2.4A2.349,2.349,0,0,0,73.628,14a4.2,4.2,0,0,0,.689-2.569,3.836,3.836,0,0,0-.7-2.395,2.23,2.23,0,0,0-1.864-.917,2.205,2.205,0,0,0-1.834.9A4.17,4.17,0,0,0,69.22,11.609Zm10.011-4.59.05,1.129A3.273,3.273,0,0,1,81.97,6.853q2.847,0,2.872,3.212V16H83.307V10.057a2.068,2.068,0,0,0-.444-1.436,1.78,1.78,0,0,0-1.357-.465,2.216,2.216,0,0,0-1.312.4,2.706,2.706,0,0,0-.88,1.046V16H77.778V7.019ZM92.7,16a3.226,3.226,0,0,1-.216-.946,3.426,3.426,0,0,1-2.557,1.112,3.17,3.17,0,0,1-2.179-.751A2.43,2.43,0,0,1,86.9,13.51a2.539,2.539,0,0,1,1.067-2.179,5.029,5.029,0,0,1,3-.776h1.494V9.849a1.725,1.725,0,0,0-.481-1.282,1.935,1.935,0,0,0-1.419-.477,2.239,2.239,0,0,0-1.378.415,1.223,1.223,0,0,0-.556,1H87.083a2.119,2.119,0,0,1,.477-1.3,3.258,3.258,0,0,1,1.295-.992,4.356,4.356,0,0,1,1.8-.365,3.551,3.551,0,0,1,2.432.776A2.8,2.8,0,0,1,94,9.766V13.9a5.054,5.054,0,0,0,.315,1.967V16Zm-2.548-1.17a2.7,2.7,0,0,0,1.37-.374,2.259,2.259,0,0,0,.938-.971V11.642h-1.2q-2.822,0-2.822,1.652a1.4,1.4,0,0,0,.481,1.129A1.85,1.85,0,0,0,90.155,14.83Z" transform="translate(636 3753)" fill="#12263f"/>
    <path id="Trazado_606822" data-name="Trazado 606822" d="M3,11.269V16H1.4V3.914H5.86A4.478,4.478,0,0,1,8.969,4.927a3.433,3.433,0,0,1,1.125,2.681,3.388,3.388,0,0,1-1.1,2.71,4.678,4.678,0,0,1-3.15.95Zm0-1.3H5.86a2.863,2.863,0,0,0,1.959-.6A2.2,2.2,0,0,0,8.5,7.62a2.277,2.277,0,0,0-.681-1.73,2.682,2.682,0,0,0-1.868-.674H3Zm12.509,6.2a3.924,3.924,0,0,1-2.972-1.2,4.452,4.452,0,0,1-1.146-3.208v-.282A5.39,5.39,0,0,1,11.9,9.09a3.982,3.982,0,0,1,1.428-1.644,3.59,3.59,0,0,1,1.988-.594,3.364,3.364,0,0,1,2.723,1.154,5,5,0,0,1,.971,3.3v.639H12.924a3.193,3.193,0,0,0,.776,2.146,2.44,2.44,0,0,0,1.888.818,2.675,2.675,0,0,0,1.378-.332,3.462,3.462,0,0,0,.988-.88l.938.73A3.772,3.772,0,0,1,15.506,16.166Zm-.191-8.052a2.048,2.048,0,0,0-1.561.677,3.288,3.288,0,0,0-.78,1.9h4.5v-.116a2.925,2.925,0,0,0-.631-1.814A1.928,1.928,0,0,0,15.315,8.114Zm9.812.282a4.6,4.6,0,0,0-.755-.058,2.024,2.024,0,0,0-2.05,1.287V16H20.785V7.019h1.494L22.3,8.056a2.391,2.391,0,0,1,2.142-1.2,1.569,1.569,0,0,1,.681.116Zm6.641,5.221a1.131,1.131,0,0,0-.469-.967,4.514,4.514,0,0,0-1.635-.594,7.731,7.731,0,0,1-1.851-.6,2.633,2.633,0,0,1-1.013-.83,1.986,1.986,0,0,1-.328-1.146,2.33,2.33,0,0,1,.934-1.868,3.647,3.647,0,0,1,2.386-.764,3.753,3.753,0,0,1,2.478.789,2.5,2.5,0,0,1,.95,2.017H31.676a1.386,1.386,0,0,0-.535-1.087,2.006,2.006,0,0,0-1.349-.457,2.1,2.1,0,0,0-1.312.365,1.15,1.15,0,0,0-.473.955.932.932,0,0,0,.44.838,5.413,5.413,0,0,0,1.59.54,8.283,8.283,0,0,1,1.864.614,2.718,2.718,0,0,1,1.058.859A2.112,2.112,0,0,1,33.3,13.51a2.3,2.3,0,0,1-.963,1.93,4.039,4.039,0,0,1-2.5.726,4.523,4.523,0,0,1-1.909-.382,3.105,3.105,0,0,1-1.3-1.067,2.571,2.571,0,0,1-.469-1.482H27.7a1.59,1.59,0,0,0,.618,1.224,2.4,2.4,0,0,0,1.523.452,2.476,2.476,0,0,0,1.4-.353A1.084,1.084,0,0,0,31.767,13.618ZM34.9,11.426a5.3,5.3,0,0,1,.519-2.374A3.87,3.87,0,0,1,36.86,7.425a3.932,3.932,0,0,1,2.113-.573,3.788,3.788,0,0,1,2.968,1.27A4.886,4.886,0,0,1,43.073,11.5v.108a5.351,5.351,0,0,1-.5,2.353,3.813,3.813,0,0,1-1.436,1.623,3.977,3.977,0,0,1-2.146.581A3.778,3.778,0,0,1,36.03,14.9,4.861,4.861,0,0,1,34.9,11.534Zm1.544.183a3.842,3.842,0,0,0,.693,2.4A2.349,2.349,0,0,0,40.848,14a4.2,4.2,0,0,0,.689-2.569,3.836,3.836,0,0,0-.7-2.395,2.23,2.23,0,0,0-1.864-.917,2.205,2.205,0,0,0-1.834.9A4.17,4.17,0,0,0,36.44,11.609Zm10.011-4.59.05,1.129A3.273,3.273,0,0,1,49.19,6.853q2.847,0,2.872,3.212V16H50.527V10.057a2.068,2.068,0,0,0-.444-1.436,1.78,1.78,0,0,0-1.357-.465,2.216,2.216,0,0,0-1.312.4,2.706,2.706,0,0,0-.88,1.046V16H45V7.019ZM59.923,16a3.226,3.226,0,0,1-.216-.946,3.426,3.426,0,0,1-2.557,1.112,3.17,3.17,0,0,1-2.179-.751,2.43,2.43,0,0,1-.851-1.905,2.539,2.539,0,0,1,1.067-2.179,5.029,5.029,0,0,1,3-.776h1.494V9.849A1.725,1.725,0,0,0,59.2,8.567a1.935,1.935,0,0,0-1.419-.477A2.239,2.239,0,0,0,56.4,8.5a1.223,1.223,0,0,0-.556,1H54.3a2.119,2.119,0,0,1,.477-1.3,3.258,3.258,0,0,1,1.295-.992,4.356,4.356,0,0,1,1.8-.365,3.551,3.551,0,0,1,2.432.776,2.8,2.8,0,0,1,.913,2.137V13.9a5.054,5.054,0,0,0,.315,1.967V16Zm-2.548-1.17a2.7,2.7,0,0,0,1.37-.374,2.259,2.259,0,0,0,.938-.971V11.642h-1.2q-2.822,0-2.822,1.652a1.4,1.4,0,0,0,.481,1.129A1.85,1.85,0,0,0,57.375,14.83ZM69.37,8.106a3.265,3.265,0,0,1,2.656-1.253q2.847,0,2.872,3.212V16H73.362V10.057a2.068,2.068,0,0,0-.444-1.436,1.78,1.78,0,0,0-1.357-.465,2.216,2.216,0,0,0-1.312.4A2.706,2.706,0,0,0,69.37,9.6V16H67.834V3.25H69.37Zm13.373,7.006a3.262,3.262,0,0,1-2.631,1.054,2.792,2.792,0,0,1-2.187-.834,3.611,3.611,0,0,1-.76-2.469V7.019H78.7v5.8q0,2.042,1.66,2.042A2.3,2.3,0,0,0,82.7,13.551V7.019h1.536V16H82.775Zm5.271-8.093.042,1a3.317,3.317,0,0,1,2.665-1.162A2.568,2.568,0,0,1,93.284,8.3,3.4,3.4,0,0,1,94.45,7.251a3.445,3.445,0,0,1,1.7-.4q2.955,0,3,3.129V16H97.617V10.073a2.062,2.062,0,0,0-.44-1.44A1.937,1.937,0,0,0,95.7,8.156a2.036,2.036,0,0,0-1.419.51,2.071,2.071,0,0,0-.656,1.374V16H92.081V10.115a1.713,1.713,0,0,0-1.917-1.959A2.055,2.055,0,0,0,88.1,9.442V16H86.561V7.019Zm19,8.981a3.226,3.226,0,0,1-.216-.946,3.426,3.426,0,0,1-2.557,1.112,3.17,3.17,0,0,1-2.179-.751,2.43,2.43,0,0,1-.851-1.905,2.539,2.539,0,0,1,1.067-2.179,5.029,5.029,0,0,1,3-.776h1.494V9.849a1.725,1.725,0,0,0-.481-1.282,1.935,1.935,0,0,0-1.419-.477,2.239,2.239,0,0,0-1.378.415,1.223,1.223,0,0,0-.556,1h-1.544a2.119,2.119,0,0,1,.477-1.3,3.258,3.258,0,0,1,1.295-.992,4.356,4.356,0,0,1,1.8-.365,3.551,3.551,0,0,1,2.432.776,2.8,2.8,0,0,1,.913,2.137V13.9a5.054,5.054,0,0,0,.315,1.967V16Zm-2.548-1.17a2.7,2.7,0,0,0,1.37-.374,2.259,2.259,0,0,0,.938-.971V11.642h-1.2q-2.822,0-2.822,1.652a1.4,1.4,0,0,0,.481,1.129A1.85,1.85,0,0,0,104.465,14.83Zm7.7-7.811.05,1.129a3.273,3.273,0,0,1,2.689-1.295q2.847,0,2.872,3.212V16h-1.536V10.057a2.068,2.068,0,0,0-.444-1.436,1.78,1.78,0,0,0-1.357-.465,2.216,2.216,0,0,0-1.312.4,2.706,2.706,0,0,0-.88,1.046V16h-1.536V7.019ZM125.641,16a3.226,3.226,0,0,1-.216-.946,3.426,3.426,0,0,1-2.557,1.112,3.17,3.17,0,0,1-2.179-.751,2.43,2.43,0,0,1-.851-1.905,2.539,2.539,0,0,1,1.067-2.179,5.029,5.029,0,0,1,3-.776H125.4V9.849a1.725,1.725,0,0,0-.481-1.282,1.935,1.935,0,0,0-1.419-.477,2.239,2.239,0,0,0-1.378.415,1.223,1.223,0,0,0-.556,1h-1.544a2.119,2.119,0,0,1,.477-1.3,3.258,3.258,0,0,1,1.295-.992,4.356,4.356,0,0,1,1.8-.365,3.551,3.551,0,0,1,2.432.776,2.8,2.8,0,0,1,.913,2.137V13.9a5.054,5.054,0,0,0,.315,1.967V16Zm-2.548-1.17a2.7,2.7,0,0,0,1.37-.374,2.259,2.259,0,0,0,.938-.971V11.642h-1.2q-2.822,0-2.822,1.652a1.4,1.4,0,0,0,.481,1.129A1.85,1.85,0,0,0,123.092,14.83Z" transform="translate(618 3966)" fill="#12263f"/>
    <path id="Trazado_606823" data-name="Trazado 606823" d="M8.077,12.837H3.013L1.876,16H.232L4.848,3.914H6.242L10.866,16H9.23Zm-4.582-1.3H7.6L5.545,5.881Zm12.36,3.378a2.212,2.212,0,0,0,1.436-.5,1.752,1.752,0,0,0,.681-1.245h1.453a2.785,2.785,0,0,1-.531,1.469,3.5,3.5,0,0,1-1.307,1.112,3.772,3.772,0,0,1-1.731.415,3.7,3.7,0,0,1-2.918-1.224,4.877,4.877,0,0,1-1.083-3.349v-.257A5.407,5.407,0,0,1,12.335,9a3.667,3.667,0,0,1,1.382-1.585,3.926,3.926,0,0,1,2.129-.564,3.6,3.6,0,0,1,2.511.9,3.234,3.234,0,0,1,1.067,2.349H17.971a2.116,2.116,0,0,0-.66-1.432,2.053,2.053,0,0,0-1.465-.56,2.149,2.149,0,0,0-1.814.843,3.957,3.957,0,0,0-.643,2.436v.291a3.878,3.878,0,0,0,.639,2.391A2.16,2.16,0,0,0,15.854,14.913ZM23.234,4.844V7.019h1.677V8.206H23.234v5.577a1.247,1.247,0,0,0,.224.81.943.943,0,0,0,.764.27,3.718,3.718,0,0,0,.73-.1V16a4.478,4.478,0,0,1-1.179.165,1.912,1.912,0,0,1-1.552-.623,2.675,2.675,0,0,1-.523-1.768V8.206H20.063V7.019H21.7V4.844Zm9.015,10.268a3.262,3.262,0,0,1-2.631,1.054,2.792,2.792,0,0,1-2.187-.834,3.611,3.611,0,0,1-.76-2.469V7.019h1.536v5.8q0,2.042,1.66,2.042a2.3,2.3,0,0,0,2.341-1.312V7.019h1.536V16H32.282ZM31,3.25h1.859L30.638,5.69l-1.237,0ZM41.62,16a3.226,3.226,0,0,1-.216-.946,3.426,3.426,0,0,1-2.557,1.112,3.17,3.17,0,0,1-2.179-.751,2.43,2.43,0,0,1-.851-1.905,2.539,2.539,0,0,1,1.067-2.179,5.029,5.029,0,0,1,3-.776h1.494V9.849A1.725,1.725,0,0,0,40.9,8.567a1.935,1.935,0,0,0-1.419-.477A2.239,2.239,0,0,0,38.1,8.5a1.223,1.223,0,0,0-.556,1H36a2.119,2.119,0,0,1,.477-1.3,3.258,3.258,0,0,1,1.295-.992,4.356,4.356,0,0,1,1.8-.365A3.551,3.551,0,0,1,42,7.629a2.8,2.8,0,0,1,.913,2.137V13.9a5.054,5.054,0,0,0,.315,1.967V16Zm-2.548-1.17a2.7,2.7,0,0,0,1.37-.374,2.259,2.259,0,0,0,.938-.971V11.642h-1.2q-2.822,0-2.822,1.652a1.4,1.4,0,0,0,.481,1.129A1.85,1.85,0,0,0,39.072,14.83Zm16,1.17a3.226,3.226,0,0,1-.216-.946A3.426,3.426,0,0,1,52.3,16.166a3.17,3.17,0,0,1-2.179-.751,2.43,2.43,0,0,1-.851-1.905,2.539,2.539,0,0,1,1.067-2.179,5.029,5.029,0,0,1,3-.776h1.494V9.849a1.725,1.725,0,0,0-.481-1.282,1.935,1.935,0,0,0-1.419-.477,2.239,2.239,0,0,0-1.378.415,1.223,1.223,0,0,0-.556,1H49.456a2.119,2.119,0,0,1,.477-1.3,3.258,3.258,0,0,1,1.295-.992,4.356,4.356,0,0,1,1.8-.365,3.551,3.551,0,0,1,2.432.776,2.8,2.8,0,0,1,.913,2.137V13.9a5.054,5.054,0,0,0,.315,1.967V16Zm-2.548-1.17a2.7,2.7,0,0,0,1.37-.374,2.259,2.259,0,0,0,.938-.971V11.642h-1.2q-2.822,0-2.822,1.652a1.4,1.4,0,0,0,.481,1.129A1.85,1.85,0,0,0,52.527,14.83ZM64.439,7.019l.05,1.129a3.273,3.273,0,0,1,2.689-1.295q2.847,0,2.872,3.212V16H68.515V10.057a2.068,2.068,0,0,0-.444-1.436,1.78,1.78,0,0,0-1.357-.465,2.216,2.216,0,0,0-1.312.4,2.706,2.706,0,0,0-.88,1.046V16H62.986V7.019Zm7.521,4.408a5.3,5.3,0,0,1,.519-2.374,3.87,3.87,0,0,1,1.444-1.627,3.932,3.932,0,0,1,2.113-.573A3.788,3.788,0,0,1,79,8.123,4.886,4.886,0,0,1,80.136,11.5v.108a5.351,5.351,0,0,1-.5,2.353A3.813,3.813,0,0,1,78.2,15.585a3.977,3.977,0,0,1-2.146.581,3.778,3.778,0,0,1-2.959-1.27,4.861,4.861,0,0,1-1.133-3.362Zm1.544.183a3.842,3.842,0,0,0,.693,2.4A2.349,2.349,0,0,0,77.911,14a4.2,4.2,0,0,0,.689-2.569,3.836,3.836,0,0,0-.7-2.395,2.23,2.23,0,0,0-1.864-.917,2.205,2.205,0,0,0-1.834.9A4.17,4.17,0,0,0,73.5,11.609Zm10-4.59.042,1a3.317,3.317,0,0,1,2.665-1.162A2.568,2.568,0,0,1,88.777,8.3a3.4,3.4,0,0,1,1.166-1.046,3.445,3.445,0,0,1,1.7-.4q2.955,0,3,3.129V16H93.11V10.073a2.062,2.062,0,0,0-.44-1.44,1.937,1.937,0,0,0-1.478-.477,2.036,2.036,0,0,0-1.419.51,2.071,2.071,0,0,0-.656,1.374V16H87.573V10.115a1.713,1.713,0,0,0-1.917-1.959,2.055,2.055,0,0,0-2.067,1.287V16H82.053V7.019Zm21.059,4.59a5.34,5.34,0,0,1-.946,3.308,3.024,3.024,0,0,1-2.54,1.249,3.131,3.131,0,0,1-2.631-1.2L98.373,16H96.961V3.25H98.5V8.006a3.113,3.113,0,0,1,2.565-1.154,3.042,3.042,0,0,1,2.569,1.237,5.5,5.5,0,0,1,.934,3.387Zm-1.536-.174a4.15,4.15,0,0,0-.606-2.424,2.006,2.006,0,0,0-1.743-.855A2.255,2.255,0,0,0,98.5,9.567v3.885a2.318,2.318,0,0,0,2.2,1.411,2,2,0,0,0,1.718-.855A4.413,4.413,0,0,0,103.029,11.435ZM110.84,8.4a4.6,4.6,0,0,0-.755-.058,2.024,2.024,0,0,0-2.05,1.287V16H106.5V7.019h1.494l.025,1.038a2.391,2.391,0,0,1,2.142-1.2,1.569,1.569,0,0,1,.681.116Zm4.98,7.77a3.924,3.924,0,0,1-2.972-1.2,4.452,4.452,0,0,1-1.146-3.208v-.282a5.39,5.39,0,0,1,.51-2.386,3.982,3.982,0,0,1,1.428-1.644,3.59,3.59,0,0,1,1.988-.594,3.364,3.364,0,0,1,2.723,1.154,5,5,0,0,1,.971,3.3v.639h-6.084a3.193,3.193,0,0,0,.776,2.146,2.44,2.44,0,0,0,1.888.818,2.675,2.675,0,0,0,1.378-.332,3.462,3.462,0,0,0,.988-.88l.938.73A3.772,3.772,0,0,1,115.821,16.166Zm-.191-8.052a2.048,2.048,0,0,0-1.561.677,3.288,3.288,0,0,0-.78,1.9h4.5v-.116a2.925,2.925,0,0,0-.631-1.814A1.928,1.928,0,0,0,115.63,8.114ZM132.9,11.609a5.378,5.378,0,0,1-.938,3.3,3.006,3.006,0,0,1-2.54,1.253,3.294,3.294,0,0,1-2.573-1.038v4.325h-1.536V7.019h1.4l.075,1a3.163,3.163,0,0,1,2.606-1.162,3.063,3.063,0,0,1,2.561,1.22,5.437,5.437,0,0,1,.942,3.4Zm-1.536-.174a3.968,3.968,0,0,0-.647-2.4,2.086,2.086,0,0,0-1.776-.88,2.257,2.257,0,0,0-2.092,1.237v4.292a2.262,2.262,0,0,0,2.108,1.229,2.076,2.076,0,0,0,1.756-.876A4.332,4.332,0,0,0,131.36,11.435ZM139.188,8.4a4.6,4.6,0,0,0-.755-.058,2.024,2.024,0,0,0-2.05,1.287V16h-1.536V7.019h1.494l.025,1.038a2.391,2.391,0,0,1,2.142-1.2,1.569,1.569,0,0,1,.681.116Zm.838,3.03a5.3,5.3,0,0,1,.519-2.374,3.87,3.87,0,0,1,1.444-1.627,3.932,3.932,0,0,1,2.113-.573,3.788,3.788,0,0,1,2.968,1.27A4.886,4.886,0,0,1,148.2,11.5v.108a5.351,5.351,0,0,1-.5,2.353,3.813,3.813,0,0,1-1.436,1.623,3.977,3.977,0,0,1-2.146.581,3.778,3.778,0,0,1-2.959-1.27,4.861,4.861,0,0,1-1.133-3.362Zm1.544.183a3.842,3.842,0,0,0,.693,2.4A2.349,2.349,0,0,0,145.978,14a4.2,4.2,0,0,0,.689-2.569,3.836,3.836,0,0,0-.7-2.395,2.23,2.23,0,0,0-1.864-.917,2.205,2.205,0,0,0-1.834.9A4.17,4.17,0,0,0,141.57,11.609Zm16.145,0a5.378,5.378,0,0,1-.938,3.3,3.006,3.006,0,0,1-2.54,1.253,3.294,3.294,0,0,1-2.573-1.038v4.325h-1.536V7.019h1.4l.075,1a3.163,3.163,0,0,1,2.606-1.162,3.063,3.063,0,0,1,2.561,1.22,5.437,5.437,0,0,1,.942,3.4Zm-1.536-.174a3.968,3.968,0,0,0-.647-2.4,2.086,2.086,0,0,0-1.776-.88,2.257,2.257,0,0,0-2.092,1.237v4.292a2.262,2.262,0,0,0,2.108,1.229,2.076,2.076,0,0,0,1.756-.876A4.332,4.332,0,0,0,156.179,11.435ZM161.334,16H159.8V7.019h1.536Zm-1.66-11.364a.917.917,0,0,1,.228-.631.857.857,0,0,1,.677-.257.87.87,0,0,1,.681.257.907.907,0,0,1,.232.631.877.877,0,0,1-.232.623.886.886,0,0,1-.681.249.872.872,0,0,1-.677-.249A.886.886,0,0,1,159.674,4.636Zm3.71,6.79a5.3,5.3,0,0,1,.519-2.374,3.87,3.87,0,0,1,1.444-1.627,3.932,3.932,0,0,1,2.113-.573,3.788,3.788,0,0,1,2.968,1.27,4.886,4.886,0,0,1,1.133,3.378v.108a5.351,5.351,0,0,1-.5,2.353,3.813,3.813,0,0,1-1.436,1.623,3.977,3.977,0,0,1-2.146.581,3.778,3.778,0,0,1-2.959-1.27,4.861,4.861,0,0,1-1.133-3.362Zm1.544.183a3.842,3.842,0,0,0,.693,2.4A2.349,2.349,0,0,0,169.336,14a4.2,4.2,0,0,0,.689-2.569,3.836,3.836,0,0,0-.7-2.395,2.23,2.23,0,0,0-1.864-.917,2.205,2.205,0,0,0-1.834.9A4.17,4.17,0,0,0,164.928,11.609Z" transform="translate(197 3966)" fill="#12263f"/>
    <g id="Grupo_161394" data-name="Grupo 161394" transform="translate(-259 2182.567)">
      <g id="Grupo_160582" data-name="Grupo 160582" transform="translate(932 1634)">
        <g id="Grupo_160578" data-name="Grupo 160578" transform="translate(23.916 75.333) rotate(90)">
          <g id="Grupo_160577" data-name="Grupo 160577" transform="translate(0 0)" clip-path="url(#clip-path)">
            <path id="Trazado_600822" data-name="Trazado 600822" d="M1.787,23.916A1.787,1.787,0,0,1,.523,20.866l8.908-8.908L.523,3.05A1.787,1.787,0,0,1,3.05.523L13.222,10.695a1.787,1.787,0,0,1,0,2.527L3.05,23.393a1.784,1.784,0,0,1-1.263.523" transform="translate(4.521 0)" fill="#144567"/>
          </g>
        </g>
        <rect id="Rectángulo_46641" data-name="Rectángulo 46641" width="82.85" height="3.417" rx="1.708" transform="translate(13.667) rotate(90)" fill="#144567"/>
      </g>
      <path id="Trazado_600829" data-name="Trazado 600829" d="M1.266,16.944a1.266,1.266,0,0,1-.9-2.161L6.682,8.472.371,2.161A1.266,1.266,0,0,1,2.161.371L9.367,7.577a1.266,1.266,0,0,1,0,1.79L2.161,16.574a1.264,1.264,0,0,1-.9.371" transform="translate(952.5 1709.334) rotate(90)" fill="#144567"/>
    </g>
    <g id="Grupo_161396" data-name="Grupo 161396" transform="translate(1228.917 5544.167) rotate(180)">
      <g id="Grupo_160582-2" data-name="Grupo 160582" transform="translate(932 1634)">
        <g id="Grupo_160578-2" data-name="Grupo 160578" transform="translate(23.916 75.333) rotate(90)">
          <g id="Grupo_160577-2" data-name="Grupo 160577" transform="translate(0 0)" clip-path="url(#clip-path)">
            <path id="Trazado_600822-2" data-name="Trazado 600822" d="M1.787,23.916A1.787,1.787,0,0,1,.523,20.866l8.908-8.908L.523,3.05A1.787,1.787,0,0,1,3.05.523L13.222,10.695a1.787,1.787,0,0,1,0,2.527L3.05,23.393a1.784,1.784,0,0,1-1.263.523" transform="translate(4.521 0)" fill="#144567"/>
          </g>
        </g>
        <rect id="Rectángulo_46641-2" data-name="Rectángulo 46641" width="82.85" height="3.417" rx="1.708" transform="translate(13.667) rotate(90)" fill="#144567"/>
      </g>
      <path id="Trazado_600829-2" data-name="Trazado 600829" d="M1.266,16.944a1.266,1.266,0,0,1-.9-2.161L6.682,8.472.371,2.161A1.266,1.266,0,0,1,2.161.371L9.367,7.577a1.266,1.266,0,0,1,0,1.79L2.161,16.574a1.264,1.264,0,0,1-.9.371" transform="translate(952.5 1709.334) rotate(90)" fill="#144567"/>
    </g>
    <g id="Grupo_161395" data-name="Grupo 161395" transform="translate(2180.286 3014) rotate(90)">
      <g id="Grupo_160582-3" data-name="Grupo 160582" transform="translate(932 1634)">
        <g id="Grupo_160578-3" data-name="Grupo 160578" transform="translate(23.916 104.02) rotate(90)">
          <g id="Grupo_160577-3" data-name="Grupo 160577" transform="translate(0 0)" clip-path="url(#clip-path)">
            <path id="Trazado_600822-3" data-name="Trazado 600822" d="M1.787,23.916A1.787,1.787,0,0,1,.523,20.866l8.908-8.908L.523,3.05A1.787,1.787,0,0,1,3.05.523L13.222,10.695a1.787,1.787,0,0,1,0,2.527L3.05,23.393a1.784,1.784,0,0,1-1.263.523" transform="translate(4.521 0)" fill="#144567"/>
          </g>
        </g>
        <rect id="Rectángulo_46641-3" data-name="Rectángulo 46641" width="111.537" height="3.417" rx="1.708" transform="translate(13.667) rotate(90)" fill="#144567"/>
      </g>
      <path id="Trazado_600829-3" data-name="Trazado 600829" d="M1.266,16.944a1.266,1.266,0,0,1-.9-2.161L6.682,8.472.371,2.161A1.266,1.266,0,0,1,2.161.371L9.367,7.577a1.266,1.266,0,0,1,0,1.79L2.161,16.574a1.264,1.264,0,0,1-.9.371" transform="translate(952.5 1738.02) rotate(90)" fill="#144567"/>
    </g>
    <g id="Grupo_161397" data-name="Grupo 161397" transform="translate(-1210 4707.917) rotate(-90)">
      <g id="Grupo_160582-4" data-name="Grupo 160582" transform="translate(932 1634)">
        <g id="Grupo_160578-4" data-name="Grupo 160578" transform="translate(23.916 104.02) rotate(90)">
          <g id="Grupo_160577-4" data-name="Grupo 160577" transform="translate(0 0)" clip-path="url(#clip-path)">
            <path id="Trazado_600822-4" data-name="Trazado 600822" d="M1.787,23.916A1.787,1.787,0,0,1,.523,20.866l8.908-8.908L.523,3.05A1.787,1.787,0,0,1,3.05.523L13.222,10.695a1.787,1.787,0,0,1,0,2.527L3.05,23.393a1.784,1.784,0,0,1-1.263.523" transform="translate(4.521 0)" fill="#144567"/>
          </g>
        </g>
        <rect id="Rectángulo_46641-4" data-name="Rectángulo 46641" width="111.537" height="3.417" rx="1.708" transform="translate(13.667) rotate(90)" fill="#144567"/>
      </g>
      <path id="Trazado_600829-4" data-name="Trazado 600829" d="M1.266,16.944a1.266,1.266,0,0,1-.9-2.161L6.682,8.472.371,2.161A1.266,1.266,0,0,1,2.161.371L9.367,7.577a1.266,1.266,0,0,1,0,1.79L2.161,16.574a1.264,1.264,0,0,1-.9.371" transform="translate(952.5 1738.02) rotate(90)" fill="#144567"/>
    </g>
    <rect id="Rectángulo_47351" data-name="Rectángulo 47351" width="190" height="32" rx="16" transform="translate(390 3878)" fill="#144567"/>
    <path id="Trazado_606824" data-name="Trazado 606824" d="M3.569,11.742V16H1.079V3.914H5.794a5.455,5.455,0,0,1,2.395.5,3.67,3.67,0,0,1,1.59,1.415,3.946,3.946,0,0,1,.556,2.088,3.47,3.47,0,0,1-1.216,2.8,5.065,5.065,0,0,1-3.366,1.025Zm0-2.017H5.794A2.187,2.187,0,0,0,7.3,9.26a1.691,1.691,0,0,0,.519-1.328A1.994,1.994,0,0,0,7.3,6.5a1.953,1.953,0,0,0-1.444-.564H3.569Zm12.343,6.441A4.409,4.409,0,0,1,12.7,14.954a4.308,4.308,0,0,1-1.241-3.229v-.232a5.426,5.426,0,0,1,.523-2.42A3.838,3.838,0,0,1,13.46,7.429a4.159,4.159,0,0,1,2.187-.577,3.727,3.727,0,0,1,2.9,1.162,4.722,4.722,0,0,1,1.058,3.3v.979H13.887a2.229,2.229,0,0,0,.7,1.411,2.12,2.12,0,0,0,1.482.531,2.589,2.589,0,0,0,2.167-1l1.179,1.32a3.6,3.6,0,0,1-1.461,1.191A4.793,4.793,0,0,1,15.913,16.166Zm-.274-7.379a1.5,1.5,0,0,0-1.158.484,2.5,2.5,0,0,0-.569,1.384h3.337v-.192a1.786,1.786,0,0,0-.432-1.238A1.547,1.547,0,0,0,15.639,8.787Zm10.376.481a6.517,6.517,0,0,0-.863-.066,1.757,1.757,0,0,0-1.785.921V16h-2.4V7.019h2.266L23.3,8.089a2.223,2.223,0,0,1,2-1.237,2.514,2.514,0,0,1,.747.108Zm6.018,4.25a.773.773,0,0,0-.436-.693,4.95,4.95,0,0,0-1.4-.452q-3.2-.672-3.2-2.723a2.468,2.468,0,0,1,.992-2,4,4,0,0,1,2.594-.8,4.307,4.307,0,0,1,2.735.805A2.538,2.538,0,0,1,34.34,9.75h-2.4a1.161,1.161,0,0,0-.332-.851,1.405,1.405,0,0,0-1.038-.336,1.436,1.436,0,0,0-.938.274.865.865,0,0,0-.332.7.739.739,0,0,0,.378.643,3.885,3.885,0,0,0,1.274.423,10.407,10.407,0,0,1,1.511.4,2.482,2.482,0,0,1,1.9,2.416,2.343,2.343,0,0,1-1.054,1.988,4.548,4.548,0,0,1-2.723.76,4.75,4.75,0,0,1-2-.4,3.363,3.363,0,0,1-1.374-1.1,2.565,2.565,0,0,1-.5-1.515h2.274a1.252,1.252,0,0,0,.473.979,1.877,1.877,0,0,0,1.179.34A1.737,1.737,0,0,0,31.68,14.2.814.814,0,0,0,32.033,13.518Zm3.5-2.092a5.327,5.327,0,0,1,.515-2.382,3.767,3.767,0,0,1,1.482-1.619,4.323,4.323,0,0,1,2.245-.573,4.09,4.09,0,0,1,2.968,1.112,4.464,4.464,0,0,1,1.282,3.021l.017.614a4.694,4.694,0,0,1-1.154,3.316,4.472,4.472,0,0,1-6.2,0,4.777,4.777,0,0,1-1.158-3.387Zm2.4.17a3.357,3.357,0,0,0,.481,1.958,1.73,1.73,0,0,0,2.739.008,3.674,3.674,0,0,0,.49-2.141,3.324,3.324,0,0,0-.49-1.945,1.592,1.592,0,0,0-1.378-.69,1.566,1.566,0,0,0-1.361.686A3.735,3.735,0,0,0,37.935,11.6Zm9.795-4.578L47.8,8.056a3.136,3.136,0,0,1,2.582-1.2,2.606,2.606,0,0,1,2.125.838,3.912,3.912,0,0,1,.714,2.507V16h-2.4V10.256a1.556,1.556,0,0,0-.332-1.108,1.486,1.486,0,0,0-1.1-.344,1.65,1.65,0,0,0-1.519.863V16h-2.4V7.019ZM60.247,16a2.664,2.664,0,0,1-.241-.805,2.9,2.9,0,0,1-2.266.971,3.189,3.189,0,0,1-2.187-.764,2.456,2.456,0,0,1-.867-1.926,2.538,2.538,0,0,1,1.058-2.191,5.222,5.222,0,0,1,3.059-.772h1.1V10a1.48,1.48,0,0,0-.32-1,1.257,1.257,0,0,0-1.009-.374,1.429,1.429,0,0,0-.95.291.987.987,0,0,0-.344.8h-2.4a2.41,2.41,0,0,1,.481-1.444A3.182,3.182,0,0,1,56.728,7.23,4.961,4.961,0,0,1,58.7,6.853a3.92,3.92,0,0,1,2.635.834,2.918,2.918,0,0,1,.975,2.345v3.893a4.294,4.294,0,0,0,.357,1.934V16Zm-1.984-1.668a2.066,2.066,0,0,0,.979-.237,1.554,1.554,0,0,0,.664-.635V11.916h-.9q-1.8,0-1.917,1.245l-.008.141a.96.96,0,0,0,.315.739A1.225,1.225,0,0,0,58.263,14.332ZM70.6,7.019l.075,1.038a3.136,3.136,0,0,1,2.582-1.2,2.606,2.606,0,0,1,2.125.838,3.912,3.912,0,0,1,.714,2.507V16h-2.4V10.256a1.556,1.556,0,0,0-.332-1.108,1.486,1.486,0,0,0-1.1-.344,1.65,1.65,0,0,0-1.519.863V16h-2.4V7.019ZM83.116,16a2.664,2.664,0,0,1-.241-.805,2.9,2.9,0,0,1-2.266.971,3.189,3.189,0,0,1-2.187-.764,2.456,2.456,0,0,1-.867-1.926,2.538,2.538,0,0,1,1.058-2.191,5.222,5.222,0,0,1,3.059-.772h1.1V10a1.48,1.48,0,0,0-.32-1,1.257,1.257,0,0,0-1.009-.374,1.429,1.429,0,0,0-.95.291.987.987,0,0,0-.344.8h-2.4a2.41,2.41,0,0,1,.481-1.444A3.182,3.182,0,0,1,79.6,7.23a4.961,4.961,0,0,1,1.976-.378,3.92,3.92,0,0,1,2.635.834,2.918,2.918,0,0,1,.975,2.345v3.893a4.294,4.294,0,0,0,.357,1.934V16Zm-1.984-1.668a2.066,2.066,0,0,0,.979-.237,1.554,1.554,0,0,0,.664-.635V11.916h-.9q-1.8,0-1.917,1.245l-.008.141a.96.96,0,0,0,.315.739A1.225,1.225,0,0,0,81.132,14.332ZM89.9,4.811V7.019h1.536v1.76H89.9v4.482a1.07,1.07,0,0,0,.191.714.959.959,0,0,0,.73.216,3.826,3.826,0,0,0,.706-.058V15.95a4.938,4.938,0,0,1-1.453.216A2.29,2.29,0,0,1,87.5,13.618V8.778H86.187V7.019H87.5V4.811Zm8.251,10.276a3.008,3.008,0,0,1-2.457,1.079,2.837,2.837,0,0,1-2.2-.83,3.543,3.543,0,0,1-.776-2.432V7.019h2.4v5.809q0,1.4,1.278,1.4a1.732,1.732,0,0,0,1.677-.848V7.019h2.407V16H98.215Zm9.181-5.819a6.517,6.517,0,0,0-.863-.066,1.757,1.757,0,0,0-1.785.921V16h-2.4V7.019h2.266l.066,1.071a2.223,2.223,0,0,1,2-1.237,2.514,2.514,0,0,1,.747.108ZM113.438,16a2.664,2.664,0,0,1-.241-.805,2.9,2.9,0,0,1-2.266.971,3.189,3.189,0,0,1-2.187-.764,2.456,2.456,0,0,1-.867-1.926,2.538,2.538,0,0,1,1.058-2.191,5.222,5.222,0,0,1,3.059-.772h1.1V10a1.48,1.48,0,0,0-.32-1,1.257,1.257,0,0,0-1.009-.374,1.429,1.429,0,0,0-.95.291.987.987,0,0,0-.344.8h-2.4a2.41,2.41,0,0,1,.481-1.444,3.182,3.182,0,0,1,1.361-1.042,4.961,4.961,0,0,1,1.976-.378,3.92,3.92,0,0,1,2.635.834,2.918,2.918,0,0,1,.975,2.345v3.893a4.294,4.294,0,0,0,.357,1.934V16Zm-1.984-1.668a2.066,2.066,0,0,0,.979-.237,1.554,1.554,0,0,0,.664-.635V11.916h-.9q-1.8,0-1.917,1.245l-.008.141a.96.96,0,0,0,.315.739A1.225,1.225,0,0,0,111.455,14.332ZM119.88,16h-2.407V3.25h2.407Z" transform="translate(421 3884)" fill="#fff"/>
    <g id="Grupo_161400" data-name="Grupo 161400" transform="translate(441 3795.179)">
      <g id="Grupo_161399" data-name="Grupo 161399" clip-path="url(#clip-path-5)">
        <path id="Trazado_603585" data-name="Trazado 603585" d="M277.582,152.746c-.435.608-.908,1.152-1.773.9-.849-.25-1.027-.894-1.025-1.69q.023-7.675.016-15.351a10.677,10.677,0,0,0-.017-1.127,3.132,3.132,0,0,0-2.056-2.869c-2.1-.725-4.242-1.3-6.36-1.942-1.524,4.141-7.974,4.18-9.61-.037-2.17.65-4.383,1.21-6.517,1.99a3.184,3.184,0,0,0-1.961,3.287c-.012,1.937-.017,3.874-.027,5.811a6.186,6.186,0,0,1-.028.779,1.274,1.274,0,0,1-1.275,1.192,1.248,1.248,0,0,1-1.391-1.049,7.179,7.179,0,0,1-.079-1.465c0-1.792-.013-3.585.027-5.377a6.174,6.174,0,0,1,4.761-6.159A33.2,33.2,0,0,0,254.2,128.3c-.934,0-1.867.012-2.8,0-1.009-.016-1.552-.474-1.553-1.464,0-4.249-.13-8.506.1-12.743.318-5.782,5.3-10.31,11.275-10.556a11.7,11.7,0,0,1,11.825,9.566,20.249,20.249,0,0,1,.2,3.107c.023,3.44.012,6.88.007,10.32,0,1.332-.44,1.767-1.761,1.774a24.653,24.653,0,0,0-2.727.107,6.127,6.127,0,0,0,.578.236c1.191.355,2.389.688,3.577,1.052a6.191,6.191,0,0,1,4.505,4.7,1.438,1.438,0,0,0,.152.3Zm-7.114-27.254c0-3.565.053-7.031-.013-10.5a8.89,8.89,0,0,0-17.742-.475c-.2,3.572-.064,7.161-.073,10.743,0,.073.071.146.091.184h3.324a7.424,7.424,0,0,1-1.942-4.474c-.055-1.1-.027-2.2-.032-3.293a5.452,5.452,0,0,1,1.587-3.9,13.508,13.508,0,0,0,1.775-2.324c.335-.563.622-1.035,1.334-1.04a1.365,1.365,0,0,1,1.352,1.025,4.984,4.984,0,0,0,2.832,3.005c1.538.645,3.131,1.169,4.724,1.667.985.308,1.354.661,1.367,1.7q.016,1.257,0,2.514a7.576,7.576,0,0,1-1.617,4.66c-.113.146-.205.309-.338.512Zm-11.686-10.834a4.158,4.158,0,0,0-1.933,4.178c.076.567,0,1.153.024,1.729a4.69,4.69,0,0,0,9.17,1.155,16.825,16.825,0,0,0,.239-2.4c.066-.545-.191-.741-.678-.883-2.57-.75-5.048-1.683-6.821-3.782m4.935,13.039h-4.338c.014,1.048-.351,2.271.866,2.989a2.5,2.5,0,0,0,2.73-.044c1.136-.753.681-1.945.742-2.945" transform="translate(-188.582 -79.534)" fill="#144567"/>
        <path id="Trazado_603586" data-name="Trazado 603586" d="M0,130.308a4.466,4.466,0,0,0,.183-.464,6.172,6.172,0,0,1,4.435-4.563c1.774-.526,3.551-1.042,5.339-1.518.517-.138.749-.365.663-.892a.646.646,0,0,1,0-.173,3.98,3.98,0,0,0-1.093-3.433,6.672,6.672,0,0,1-1.571-5.336,2.457,2.457,0,0,0-.822-2.123A7.914,7.914,0,0,1,4.615,105.4c.349-4.45,3.369-7.194,8.131-7.533a17.789,17.789,0,0,1,7.929,1.1c1.2.476,2.228.568,3.217-.507.626-.68,1.51-.462,2.149.391a9.56,9.56,0,0,1,1.523,8.786,9.38,9.38,0,0,1-2.748,4.338,1.79,1.79,0,0,0-.633,1.594,8.119,8.119,0,0,1-2.372,6.716,2.068,2.068,0,0,0-.266,1.283c-.031,2-.017,2,1.871,2.564,1.386.41,2.78.792,4.158,1.226a6.155,6.155,0,0,1,4.52,5.912c.056,2.137.011,4.278-.016,6.417-.013,1.011-.595,1.646-1.414,1.629s-1.35-.644-1.353-1.679c-.006-1.937.018-3.873.018-5.81a3.566,3.566,0,0,0-2.934-3.929c-1.744-.515-3.493-1.013-5.228-1.515-3.222,4.093-7.145,4.089-10.061-.1-2.128.648-4.342,1.2-6.459,2.009a3.162,3.162,0,0,0-1.854,3.263q0,7.544-.009,15.089c0,.231-.011.463,0,.694.045.805-.092,1.533-.964,1.83-.829.282-1.359-.208-1.818-.808V130.308M9.3,110.1c.36-.59.685-1.066.954-1.573.858-1.617,1.2-1.7,2.848-.925,2.417,1.142,4.815,1.588,7.174-.241a1.77,1.77,0,0,1,2.594.48,13.142,13.142,0,0,1,.741,1.233,6.623,6.623,0,0,0,.777-7.5,4.3,4.3,0,0,1-3.756.289c-.437-.15-.886-.266-1.317-.43a13.957,13.957,0,0,0-6.572-.76c-2.212.241-4.246.906-5.053,3.287A5.692,5.692,0,0,0,9.3,110.1m3.168.327c-1.775,2.141-1.775,2.141-1.748,4.281a6.329,6.329,0,0,0,4.92,5.553,2.916,2.916,0,0,0,.777,0c1.978-.253,4.629-2.587,4.879-4.558a27.627,27.627,0,0,0-.041-4.4,5.368,5.368,0,0,0-.284-1.1c-2.865,1.784-5.69,1.211-8.5.215m.992,12.045c-.217,1.624-.1,3.012,1.4,3.811a2.6,2.6,0,0,0,2.88-.115c1.283-.93,1.007-2.3.958-3.716a6.03,6.03,0,0,1-5.24.021" transform="translate(0 -75.138)" fill="#144567"/>
        <path id="Trazado_603587" data-name="Trazado 603587" d="M139.918,0c.617.143,1.24.264,1.85.431a12.245,12.245,0,0,1,9.079,11.758c.037,4.943.018,9.887,0,14.831a1.276,1.276,0,0,0,.744,1.357,5.647,5.647,0,0,1,2.759,3.424,1.377,1.377,0,0,1-.8,1.845,1.356,1.356,0,0,1-1.8-.915,3.741,3.741,0,0,0-2.79-2.467c-1.65-.431-3.293-.9-4.927-1.381-.47-.14-.723-.073-.953.388-1.67,3.346-7.587,3.31-9.171-.079a.892.892,0,0,0-.783-.334c-1.821.462-3.636.955-5.435,1.5a3.363,3.363,0,0,0-2.492,3.108c-.031.287-.02.578-.044.866a1.38,1.38,0,1,1-2.76-.011,6.254,6.254,0,0,1,3.163-6.038,1.2,1.2,0,0,0,.7-1.215c-.022-4.654-.013-9.309-.013-13.963,0-7,3.8-11.622,10.66-12.984A.936.936,0,0,0,137.136,0Zm8.123,27.121c0-5.281.175-10.432-.05-15.566a9.306,9.306,0,0,0-9.367-8.778,9.5,9.5,0,0,0-9.59,9.758c-.037,4.6-.009,9.193-.006,13.79,0,.22.035.44.06.742,1.342-.366,2.619-.711,3.893-1.069a.6.6,0,0,0,.331-.239,4.08,4.08,0,0,0-.385-2.7,7.828,7.828,0,0,1-2.215-5.487c-.009-.751,0-1.5,0-2.255,0-1.551.247-1.755,1.748-2.172,3.182-.882,6.45-1.636,7.87-5.242a1.334,1.334,0,0,1,2.347.016,24.172,24.172,0,0,0,2.133,2.908,5.707,5.707,0,0,1,1.555,3.752c.024,1.069.015,2.139,0,3.209a7.638,7.638,0,0,1-2.161,5.241,4.223,4.223,0,0,0-.429,2.766.608.608,0,0,0,.341.219c1.274.364,2.551.717,3.925,1.1m-6.568-15.63c-1.571,2-3.844,2.933-6.176,3.756-1.929.68-1.937.66-1.793,2.718a5.078,5.078,0,0,0,4.744,4.7,4.944,4.944,0,0,0,5.156-3.771c.211-.912.076-1.9.2-2.838a4.594,4.594,0,0,0-2.133-4.565m-5.231,13.818c-.332,1.516-.051,2.767.784,3.3a3.094,3.094,0,0,0,3.134-.1c1.1-.924.763-2.155.752-3.2Z" transform="translate(-94.027)" fill="#144567"/>
        <path id="Trazado_603588" data-name="Trazado 603588" d="M108.77,189.421c0-2.168,0-4.336,0-6.5a7.259,7.259,0,0,1,5.4-7.21c2.218-.654,4.44-1.3,6.67-1.909.584-.16.941-.385.8-1.046a.3.3,0,0,1,0-.086,5.7,5.7,0,0,0-1.52-4.932,7.6,7.6,0,0,1-1.777-6.155,3.234,3.234,0,0,0-1.082-2.787,9.728,9.728,0,0,1-1.185-12.733c1.809-2.377,4.387-3.29,7.225-3.659a20.684,20.684,0,0,1,10.314,1.3,3.175,3.175,0,0,0,3.929-.718c.667-.725,1.546-.535,2.22.347a11.284,11.284,0,0,1,1.946,10.165,12.476,12.476,0,0,1-3.571,5.741,2.592,2.592,0,0,0-.57,1.334,7.8,7.8,0,0,0-.02,1.644,8.741,8.741,0,0,1-2.68,6.636,1.766,1.766,0,0,0-.577,1.445,25.615,25.615,0,0,1,0,2.6c-.025.5.163.695.634.826,2.284.636,4.56,1.3,6.833,1.973a7.2,7.2,0,0,1,5.436,7.173q.082,6.548.143,13.1a7.547,7.547,0,0,1-.007.78,1.382,1.382,0,0,1-2.762,0c-.02-.23-.009-.462-.011-.693q-.071-6.592-.143-13.183a4.428,4.428,0,0,0-3.365-4.5c-2.161-.644-4.336-1.244-6.5-1.879-.4-.117-.692-.18-.9.305-1.871,4.281-8.545,4.469-11.046.2-.357-.61-.681-.66-1.3-.469-2.072.639-4.166,1.2-6.248,1.809a4.477,4.477,0,0,0-3.5,4.659c.032,4.25.088,8.5.133,12.749,0,.26.013.521,0,.78a1.433,1.433,0,0,1-1.392,1.564,1.382,1.382,0,0,1-1.38-1.55c-.015-2.371-.005-4.741-.005-7.111h-.144m28.253-33.18c2.53-2.141,3.153-7.487,1.142-10.2a5.145,5.145,0,0,1-5.036.4c-.65-.239-1.316-.436-1.977-.643a16.925,16.925,0,0,0-8.652-.445c-2.44.508-4.341,1.73-5.138,4.24a7.267,7.267,0,0,0,2.4,7.741c.491-.791,1.017-1.544,1.447-2.348.837-1.566,1.216-1.66,2.858-.887,3.077,1.449,6.135,2.057,9.134-.283a1.862,1.862,0,0,1,2.8.545,17.361,17.361,0,0,1,1.024,1.876m-2.865.534a28.61,28.61,0,0,1-3.686,1.235,11.637,11.637,0,0,1-6.451-.89.7.7,0,0,0-1.038.339c-.463.728-1.033,1.388-1.545,2.086a1.182,1.182,0,0,0-.3.579,16.671,16.671,0,0,0,.092,3.457c.644,3.066,2.823,4.8,5.61,5.86a2.791,2.791,0,0,0,1.614.141c2.943-.8,5.286-2.5,6.068-5.5a12.316,12.316,0,0,0-.36-7.309m-9.725,14.66c0,1.06-.058,1.949.013,2.827a3.7,3.7,0,0,0,3.156,3.009c1.917.211,3.3-.5,3.718-2.185a22.762,22.762,0,0,0,.288-3.746,6.93,6.93,0,0,1-7.175.1" transform="translate(-83.559 -109.262)" fill="#144567"/>
      </g>
    </g>
  </g>
</svg>
