<svg xmlns="http://www.w3.org/2000/svg" xmlns:xlink="http://www.w3.org/1999/xlink" width="610" height="303" viewBox="0 0 610 303">
  <defs>
    <clipPath id="clip-path">
      <rect id="Rectángulo_46628" data-name="Rectángulo 46628" width="18.266" height="23.916" fill="#3c5d56"/>
    </clipPath>
    <clipPath id="clip-path-5">
      <rect id="Rectángulo_47356" data-name="Rectángulo 47356" width="88.83" height="86.786" fill="#144567"/>
    </clipPath>
  </defs>
  <g id="Grupo_162114" data-name="Grupo 162114" transform="translate(-810 -3726)">
    <rect id="Rectángulo_46661" data-name="Rectángulo 46661" width="210" height="75" transform="translate(1210 3726)" fill="#e2e8ec"/>
    <rect id="Rectángulo_46664" data-name="Rectángulo 46664" width="210" height="75" transform="translate(810 3726)" fill="#e2e8ec"/>
    <rect id="Rectángulo_46662" data-name="Rectángulo 46662" width="210" height="106" transform="translate(1210 3923)" fill="#e2e8ec"/>
    <rect id="Rectángulo_46663" data-name="Rectángulo 46663" width="210" height="106" transform="translate(810 3923)" fill="#e2e8ec"/>
    <path id="Trazado_606825" data-name="Trazado 606825" d="M9.911,3.914v8.218a3.855,3.855,0,0,1-1.075,2.8,4.332,4.332,0,0,1-2.893,1.22l-.423.017A4.524,4.524,0,0,1,2.357,15.1a3.83,3.83,0,0,1-1.2-2.947V3.914H2.739V12.1a2.764,2.764,0,0,0,.722,2.038,2.776,2.776,0,0,0,2.059.726,2.794,2.794,0,0,0,2.071-.722,2.759,2.759,0,0,0,.718-2.034V3.914Zm3.727,3.1.05,1.129a3.273,3.273,0,0,1,2.689-1.295q2.847,0,2.872,3.212V16H17.714V10.057a2.068,2.068,0,0,0-.444-1.436,1.78,1.78,0,0,0-1.357-.465,2.216,2.216,0,0,0-1.312.4,2.706,2.706,0,0,0-.88,1.046V16H12.186V7.019ZM27.11,16a3.226,3.226,0,0,1-.216-.946,3.426,3.426,0,0,1-2.557,1.112,3.17,3.17,0,0,1-2.179-.751,2.43,2.43,0,0,1-.851-1.905,2.539,2.539,0,0,1,1.067-2.179,5.029,5.029,0,0,1,3-.776H26.87V9.849a1.725,1.725,0,0,0-.481-1.282,1.935,1.935,0,0,0-1.419-.477,2.239,2.239,0,0,0-1.378.415,1.223,1.223,0,0,0-.556,1H21.491a2.119,2.119,0,0,1,.477-1.3,3.258,3.258,0,0,1,1.295-.992,4.356,4.356,0,0,1,1.8-.365,3.551,3.551,0,0,1,2.432.776,2.8,2.8,0,0,1,.913,2.137V13.9a5.054,5.054,0,0,0,.315,1.967V16Zm-2.548-1.17a2.7,2.7,0,0,0,1.37-.374,2.259,2.259,0,0,0,.938-.971V11.642h-1.2q-2.822,0-2.822,1.652a1.4,1.4,0,0,0,.481,1.129A1.85,1.85,0,0,0,24.562,14.83Zm10.052-3.4a5.3,5.3,0,0,1,.519-2.374,3.87,3.87,0,0,1,1.444-1.627,3.932,3.932,0,0,1,2.113-.573,3.788,3.788,0,0,1,2.968,1.27A4.886,4.886,0,0,1,42.791,11.5v.108a5.351,5.351,0,0,1-.5,2.353,3.813,3.813,0,0,1-1.436,1.623,3.977,3.977,0,0,1-2.146.581,3.778,3.778,0,0,1-2.959-1.27,4.861,4.861,0,0,1-1.133-3.362Zm1.544.183a3.842,3.842,0,0,0,.693,2.4A2.349,2.349,0,0,0,40.566,14a4.2,4.2,0,0,0,.689-2.569,3.836,3.836,0,0,0-.7-2.395,2.23,2.23,0,0,0-1.864-.917,2.205,2.205,0,0,0-1.834.9A4.17,4.17,0,0,0,36.158,11.609Zm14.211-4.59.042,1a3.317,3.317,0,0,1,2.665-1.162A2.568,2.568,0,0,1,55.64,8.3a3.4,3.4,0,0,1,1.166-1.046,3.445,3.445,0,0,1,1.7-.4q2.955,0,3,3.129V16H59.973V10.073a2.062,2.062,0,0,0-.44-1.44,1.937,1.937,0,0,0-1.478-.477,2.036,2.036,0,0,0-1.419.51,2.071,2.071,0,0,0-.656,1.374V16H54.437V10.115a1.713,1.713,0,0,0-1.917-1.959,2.055,2.055,0,0,0-2.067,1.287V16H48.917V7.019ZM69.37,16a3.226,3.226,0,0,1-.216-.946A3.426,3.426,0,0,1,66.6,16.166a3.17,3.17,0,0,1-2.179-.751,2.43,2.43,0,0,1-.851-1.905,2.539,2.539,0,0,1,1.067-2.179,5.029,5.029,0,0,1,3-.776h1.494V9.849a1.725,1.725,0,0,0-.481-1.282,1.935,1.935,0,0,0-1.419-.477A2.239,2.239,0,0,0,65.85,8.5a1.223,1.223,0,0,0-.556,1H63.75a2.119,2.119,0,0,1,.477-1.3,3.258,3.258,0,0,1,1.295-.992,4.356,4.356,0,0,1,1.8-.365,3.551,3.551,0,0,1,2.432.776,2.8,2.8,0,0,1,.913,2.137V13.9a5.054,5.054,0,0,0,.315,1.967V16Zm-2.548-1.17a2.7,2.7,0,0,0,1.37-.374,2.259,2.259,0,0,0,.938-.971V11.642h-1.2q-2.822,0-2.822,1.652a1.4,1.4,0,0,0,.481,1.129A1.85,1.85,0,0,0,66.821,14.83ZM68.241,3.25H70.1L67.875,5.69l-1.237,0ZM78.3,13.618a1.131,1.131,0,0,0-.469-.967,4.514,4.514,0,0,0-1.635-.594,7.731,7.731,0,0,1-1.851-.6,2.633,2.633,0,0,1-1.013-.83,1.986,1.986,0,0,1-.328-1.146,2.33,2.33,0,0,1,.934-1.868,3.647,3.647,0,0,1,2.386-.764,3.753,3.753,0,0,1,2.478.789,2.5,2.5,0,0,1,.95,2.017H78.21a1.386,1.386,0,0,0-.535-1.087,2.006,2.006,0,0,0-1.349-.457,2.1,2.1,0,0,0-1.312.365,1.15,1.15,0,0,0-.473.955.932.932,0,0,0,.44.838,5.413,5.413,0,0,0,1.59.54,8.283,8.283,0,0,1,1.864.614,2.718,2.718,0,0,1,1.058.859,2.112,2.112,0,0,1,.344,1.224,2.3,2.3,0,0,1-.963,1.93,4.039,4.039,0,0,1-2.5.726,4.523,4.523,0,0,1-1.909-.382,3.105,3.105,0,0,1-1.3-1.067,2.571,2.571,0,0,1-.469-1.482h1.536a1.59,1.59,0,0,0,.618,1.224,2.4,2.4,0,0,0,1.523.452,2.476,2.476,0,0,0,1.4-.353A1.084,1.084,0,0,0,78.3,13.618Zm15.332-2.009a5.378,5.378,0,0,1-.938,3.3,3.006,3.006,0,0,1-2.54,1.253,3.294,3.294,0,0,1-2.573-1.038v4.325H86.046V7.019h1.4l.075,1A3.163,3.163,0,0,1,90.13,6.853a3.063,3.063,0,0,1,2.561,1.22,5.437,5.437,0,0,1,.942,3.4ZM92.1,11.435a3.968,3.968,0,0,0-.647-2.4,2.086,2.086,0,0,0-1.776-.88,2.257,2.257,0,0,0-2.092,1.237v4.292a2.262,2.262,0,0,0,2.108,1.229,2.076,2.076,0,0,0,1.756-.876A4.332,4.332,0,0,0,92.1,11.435Zm7.213,4.731a3.924,3.924,0,0,1-2.972-1.2,4.452,4.452,0,0,1-1.146-3.208v-.282A5.39,5.39,0,0,1,95.7,9.09a3.982,3.982,0,0,1,1.428-1.644,3.59,3.59,0,0,1,1.988-.594,3.364,3.364,0,0,1,2.723,1.154,5,5,0,0,1,.971,3.3v.639H96.729a3.193,3.193,0,0,0,.776,2.146,2.44,2.44,0,0,0,1.888.818,2.675,2.675,0,0,0,1.378-.332,3.462,3.462,0,0,0,.988-.88l.938.73A3.772,3.772,0,0,1,99.311,16.166ZM99.12,8.114a2.048,2.048,0,0,0-1.561.677,3.288,3.288,0,0,0-.78,1.9h4.5v-.116a2.925,2.925,0,0,0-.631-1.814A1.928,1.928,0,0,0,99.12,8.114Zm9.812.282a4.6,4.6,0,0,0-.755-.058,2.024,2.024,0,0,0-2.05,1.287V16H104.59V7.019h1.494l.025,1.038a2.391,2.391,0,0,1,2.142-1.2,1.569,1.569,0,0,1,.681.116Zm6.641,5.221a1.131,1.131,0,0,0-.469-.967,4.514,4.514,0,0,0-1.635-.594,7.731,7.731,0,0,1-1.851-.6,2.633,2.633,0,0,1-1.013-.83,1.986,1.986,0,0,1-.328-1.146,2.33,2.33,0,0,1,.934-1.868,3.647,3.647,0,0,1,2.386-.764,3.753,3.753,0,0,1,2.478.789,2.5,2.5,0,0,1,.95,2.017H115.48a1.386,1.386,0,0,0-.535-1.087,2.006,2.006,0,0,0-1.349-.457,2.1,2.1,0,0,0-1.312.365,1.15,1.15,0,0,0-.473.955.932.932,0,0,0,.44.838,5.413,5.413,0,0,0,1.59.54,8.283,8.283,0,0,1,1.864.614,2.718,2.718,0,0,1,1.058.859,2.112,2.112,0,0,1,.344,1.224,2.3,2.3,0,0,1-.963,1.93,4.039,4.039,0,0,1-2.5.726,4.523,4.523,0,0,1-1.909-.382,3.105,3.105,0,0,1-1.3-1.067,2.571,2.571,0,0,1-.469-1.482H111.5a1.59,1.59,0,0,0,.618,1.224,2.4,2.4,0,0,0,1.523.452,2.476,2.476,0,0,0,1.4-.353A1.084,1.084,0,0,0,115.572,13.618Zm3.129-2.191a5.3,5.3,0,0,1,.519-2.374,3.87,3.87,0,0,1,1.444-1.627,3.932,3.932,0,0,1,2.113-.573,3.788,3.788,0,0,1,2.968,1.27,4.886,4.886,0,0,1,1.133,3.378v.108a5.351,5.351,0,0,1-.5,2.353,3.813,3.813,0,0,1-1.436,1.623,3.977,3.977,0,0,1-2.146.581,3.778,3.778,0,0,1-2.959-1.27,4.861,4.861,0,0,1-1.133-3.362Zm1.544.183a3.842,3.842,0,0,0,.693,2.4A2.349,2.349,0,0,0,124.653,14a4.2,4.2,0,0,0,.689-2.569,3.836,3.836,0,0,0-.7-2.395,2.23,2.23,0,0,0-1.864-.917,2.205,2.205,0,0,0-1.834.9A4.17,4.17,0,0,0,120.245,11.609Zm10.011-4.59.05,1.129A3.273,3.273,0,0,1,133,6.853q2.847,0,2.872,3.212V16h-1.536V10.057a2.068,2.068,0,0,0-.444-1.436,1.78,1.78,0,0,0-1.357-.465,2.216,2.216,0,0,0-1.312.4,2.706,2.706,0,0,0-.88,1.046V16H128.8V7.019ZM143.728,16a3.226,3.226,0,0,1-.216-.946,3.426,3.426,0,0,1-2.557,1.112,3.17,3.17,0,0,1-2.179-.751,2.43,2.43,0,0,1-.851-1.905,2.539,2.539,0,0,1,1.067-2.179,5.029,5.029,0,0,1,3-.776h1.494V9.849a1.725,1.725,0,0,0-.481-1.282,1.935,1.935,0,0,0-1.419-.477,2.239,2.239,0,0,0-1.378.415,1.223,1.223,0,0,0-.556,1h-1.544a2.119,2.119,0,0,1,.477-1.3,3.258,3.258,0,0,1,1.295-.992,4.356,4.356,0,0,1,1.8-.365,3.551,3.551,0,0,1,2.432.776,2.8,2.8,0,0,1,.913,2.137V13.9a5.054,5.054,0,0,0,.315,1.967V16Zm-2.548-1.17a2.7,2.7,0,0,0,1.37-.374,2.259,2.259,0,0,0,.938-.971V11.642h-1.2q-2.822,0-2.822,1.652a1.4,1.4,0,0,0,.481,1.129A1.85,1.85,0,0,0,141.18,14.83Zm11.48-1.212a1.13,1.13,0,0,0-.469-.967,4.514,4.514,0,0,0-1.635-.594,7.731,7.731,0,0,1-1.851-.6,2.633,2.633,0,0,1-1.013-.83,1.986,1.986,0,0,1-.328-1.146,2.33,2.33,0,0,1,.934-1.868,3.647,3.647,0,0,1,2.386-.764,3.753,3.753,0,0,1,2.478.789,2.5,2.5,0,0,1,.95,2.017h-1.544a1.386,1.386,0,0,0-.535-1.087,2.006,2.006,0,0,0-1.349-.457,2.1,2.1,0,0,0-1.312.365,1.15,1.15,0,0,0-.473.955.932.932,0,0,0,.44.838,5.413,5.413,0,0,0,1.59.54,8.283,8.283,0,0,1,1.864.614,2.718,2.718,0,0,1,1.058.859,2.112,2.112,0,0,1,.344,1.224,2.3,2.3,0,0,1-.963,1.93,4.039,4.039,0,0,1-2.5.726,4.523,4.523,0,0,1-1.909-.382,3.105,3.105,0,0,1-1.3-1.067,2.571,2.571,0,0,1-.469-1.482h1.536a1.59,1.59,0,0,0,.618,1.224,2.4,2.4,0,0,0,1.523.452,2.476,2.476,0,0,0,1.4-.353A1.084,1.084,0,0,0,152.66,13.618Z" transform="translate(837 3753)" fill="#12263f"/>
    <path id="Trazado_606826" data-name="Trazado 606826" d="M3,11.269V16H1.4V3.914H5.86A4.478,4.478,0,0,1,8.969,4.927a3.433,3.433,0,0,1,1.125,2.681,3.388,3.388,0,0,1-1.1,2.71,4.678,4.678,0,0,1-3.15.95Zm0-1.3H5.86a2.863,2.863,0,0,0,1.959-.6A2.2,2.2,0,0,0,8.5,7.62a2.277,2.277,0,0,0-.681-1.73,2.682,2.682,0,0,0-1.868-.674H3Zm12.509,6.2a3.924,3.924,0,0,1-2.972-1.2,4.452,4.452,0,0,1-1.146-3.208v-.282A5.39,5.39,0,0,1,11.9,9.09a3.982,3.982,0,0,1,1.428-1.644,3.59,3.59,0,0,1,1.988-.594,3.364,3.364,0,0,1,2.723,1.154,5,5,0,0,1,.971,3.3v.639H12.924a3.193,3.193,0,0,0,.776,2.146,2.44,2.44,0,0,0,1.888.818,2.675,2.675,0,0,0,1.378-.332,3.462,3.462,0,0,0,.988-.88l.938.73A3.772,3.772,0,0,1,15.506,16.166Zm-.191-8.052a2.048,2.048,0,0,0-1.561.677,3.288,3.288,0,0,0-.78,1.9h4.5v-.116a2.925,2.925,0,0,0-.631-1.814A1.928,1.928,0,0,0,15.315,8.114Zm9.812.282a4.6,4.6,0,0,0-.755-.058,2.024,2.024,0,0,0-2.05,1.287V16H20.785V7.019h1.494L22.3,8.056a2.391,2.391,0,0,1,2.142-1.2,1.569,1.569,0,0,1,.681.116Zm6.641,5.221a1.131,1.131,0,0,0-.469-.967,4.514,4.514,0,0,0-1.635-.594,7.731,7.731,0,0,1-1.851-.6,2.633,2.633,0,0,1-1.013-.83,1.986,1.986,0,0,1-.328-1.146,2.33,2.33,0,0,1,.934-1.868,3.647,3.647,0,0,1,2.386-.764,3.753,3.753,0,0,1,2.478.789,2.5,2.5,0,0,1,.95,2.017H31.676a1.386,1.386,0,0,0-.535-1.087,2.006,2.006,0,0,0-1.349-.457,2.1,2.1,0,0,0-1.312.365,1.15,1.15,0,0,0-.473.955.932.932,0,0,0,.44.838,5.413,5.413,0,0,0,1.59.54,8.283,8.283,0,0,1,1.864.614,2.718,2.718,0,0,1,1.058.859A2.112,2.112,0,0,1,33.3,13.51a2.3,2.3,0,0,1-.963,1.93,4.039,4.039,0,0,1-2.5.726,4.523,4.523,0,0,1-1.909-.382,3.105,3.105,0,0,1-1.3-1.067,2.571,2.571,0,0,1-.469-1.482H27.7a1.59,1.59,0,0,0,.618,1.224,2.4,2.4,0,0,0,1.523.452,2.476,2.476,0,0,0,1.4-.353A1.084,1.084,0,0,0,31.767,13.618ZM34.9,11.426a5.3,5.3,0,0,1,.519-2.374A3.87,3.87,0,0,1,36.86,7.425a3.932,3.932,0,0,1,2.113-.573,3.788,3.788,0,0,1,2.968,1.27A4.886,4.886,0,0,1,43.073,11.5v.108a5.351,5.351,0,0,1-.5,2.353,3.813,3.813,0,0,1-1.436,1.623,3.977,3.977,0,0,1-2.146.581A3.778,3.778,0,0,1,36.03,14.9,4.861,4.861,0,0,1,34.9,11.534Zm1.544.183a3.842,3.842,0,0,0,.693,2.4A2.349,2.349,0,0,0,40.848,14a4.2,4.2,0,0,0,.689-2.569,3.836,3.836,0,0,0-.7-2.395,2.23,2.23,0,0,0-1.864-.917,2.205,2.205,0,0,0-1.834.9A4.17,4.17,0,0,0,36.44,11.609Zm10.011-4.59.05,1.129A3.273,3.273,0,0,1,49.19,6.853q2.847,0,2.872,3.212V16H50.527V10.057a2.068,2.068,0,0,0-.444-1.436,1.78,1.78,0,0,0-1.357-.465,2.216,2.216,0,0,0-1.312.4,2.706,2.706,0,0,0-.88,1.046V16H45V7.019ZM59.923,16a3.226,3.226,0,0,1-.216-.946,3.426,3.426,0,0,1-2.557,1.112,3.17,3.17,0,0,1-2.179-.751,2.43,2.43,0,0,1-.851-1.905,2.539,2.539,0,0,1,1.067-2.179,5.029,5.029,0,0,1,3-.776h1.494V9.849A1.725,1.725,0,0,0,59.2,8.567a1.935,1.935,0,0,0-1.419-.477A2.239,2.239,0,0,0,56.4,8.5a1.223,1.223,0,0,0-.556,1H54.3a2.119,2.119,0,0,1,.477-1.3,3.258,3.258,0,0,1,1.295-.992,4.356,4.356,0,0,1,1.8-.365,3.551,3.551,0,0,1,2.432.776,2.8,2.8,0,0,1,.913,2.137V13.9a5.054,5.054,0,0,0,.315,1.967V16Zm-2.548-1.17a2.7,2.7,0,0,0,1.37-.374,2.259,2.259,0,0,0,.938-.971V11.642h-1.2q-2.822,0-2.822,1.652a1.4,1.4,0,0,0,.481,1.129A1.85,1.85,0,0,0,57.375,14.83ZM68.349,16V8.206H66.929V7.019h1.419V6.255a3.12,3.12,0,0,1,.859-2.341,3.332,3.332,0,0,1,2.428-.838,7.311,7.311,0,0,1,2.349.506l-.257,1.295a5.321,5.321,0,0,0-1.976-.415,1.933,1.933,0,0,0-1.424.444,1.831,1.831,0,0,0-.436,1.332v.78h1.834V8.206H69.893V16Zm6.4,0H73.2V7.019h1.544Zm6.1-1.087a2.212,2.212,0,0,0,1.436-.5,1.752,1.752,0,0,0,.681-1.245h1.453a2.785,2.785,0,0,1-.531,1.469,3.5,3.5,0,0,1-1.307,1.112,3.772,3.772,0,0,1-1.731.415,3.7,3.7,0,0,1-2.918-1.224,4.877,4.877,0,0,1-1.083-3.349v-.257A5.407,5.407,0,0,1,77.33,9a3.667,3.667,0,0,1,1.382-1.585,3.926,3.926,0,0,1,2.129-.564,3.6,3.6,0,0,1,2.511.9,3.234,3.234,0,0,1,1.067,2.349H82.966a2.116,2.116,0,0,0-.66-1.432,2.053,2.053,0,0,0-1.465-.56,2.149,2.149,0,0,0-1.814.843,3.957,3.957,0,0,0-.643,2.436v.291a3.878,3.878,0,0,0,.639,2.391A2.16,2.16,0,0,0,80.85,14.913ZM88.229,4.844V7.019h1.677V8.206H88.229v5.577a1.247,1.247,0,0,0,.224.81.943.943,0,0,0,.764.27,3.718,3.718,0,0,0,.73-.1V16a4.478,4.478,0,0,1-1.179.165,1.912,1.912,0,0,1-1.552-.623,2.675,2.675,0,0,1-.523-1.768V8.206H85.058V7.019h1.635V4.844ZM93.367,16H91.832V7.019h1.536ZM91.707,4.636a.917.917,0,0,1,.228-.631.857.857,0,0,1,.677-.257.87.87,0,0,1,.681.257.907.907,0,0,1,.232.631.877.877,0,0,1-.232.623.886.886,0,0,1-.681.249.872.872,0,0,1-.677-.249A.886.886,0,0,1,91.707,4.636Zm7.72,10.276a2.212,2.212,0,0,0,1.436-.5,1.752,1.752,0,0,0,.681-1.245H103a2.785,2.785,0,0,1-.531,1.469,3.5,3.5,0,0,1-1.307,1.112,3.772,3.772,0,0,1-1.731.415,3.7,3.7,0,0,1-2.918-1.224,4.877,4.877,0,0,1-1.083-3.349v-.257A5.407,5.407,0,0,1,95.907,9a3.667,3.667,0,0,1,1.382-1.585,3.926,3.926,0,0,1,2.129-.564,3.6,3.6,0,0,1,2.511.9A3.234,3.234,0,0,1,103,10.106h-1.453a2.116,2.116,0,0,0-.66-1.432,2.053,2.053,0,0,0-1.465-.56,2.149,2.149,0,0,0-1.814.843,3.957,3.957,0,0,0-.643,2.436v.291a3.878,3.878,0,0,0,.639,2.391A2.16,2.16,0,0,0,99.427,14.913ZM106.391,16h-1.536V7.019h1.536Zm-1.66-11.364a.917.917,0,0,1,.228-.631.857.857,0,0,1,.677-.257.87.87,0,0,1,.681.257.907.907,0,0,1,.232.631.877.877,0,0,1-.232.623.886.886,0,0,1-.681.249.872.872,0,0,1-.677-.249A.886.886,0,0,1,104.731,4.636ZM114.393,16a3.226,3.226,0,0,1-.216-.946,3.426,3.426,0,0,1-2.557,1.112,3.17,3.17,0,0,1-2.179-.751,2.43,2.43,0,0,1-.851-1.905,2.539,2.539,0,0,1,1.067-2.179,5.029,5.029,0,0,1,3-.776h1.494V9.849a1.725,1.725,0,0,0-.481-1.282,1.935,1.935,0,0,0-1.419-.477,2.239,2.239,0,0,0-1.378.415,1.223,1.223,0,0,0-.556,1h-1.544a2.119,2.119,0,0,1,.477-1.3,3.258,3.258,0,0,1,1.295-.992,4.356,4.356,0,0,1,1.8-.365,3.551,3.551,0,0,1,2.432.776,2.8,2.8,0,0,1,.913,2.137V13.9A5.054,5.054,0,0,0,116,15.867V16Zm-2.548-1.17a2.7,2.7,0,0,0,1.37-.374,2.259,2.259,0,0,0,.938-.971V11.642h-1.2q-2.822,0-2.822,1.652a1.4,1.4,0,0,0,.481,1.129A1.85,1.85,0,0,0,111.845,14.83Z" transform="translate(1254 3753)" fill="#12263f"/>
    <path id="Trazado_606828" data-name="Trazado 606828" d="M8.077,12.837H3.013L1.876,16H.232L4.848,3.914H6.242L10.866,16H9.23Zm-4.582-1.3H7.6L5.545,5.881Zm12.36,3.378a2.212,2.212,0,0,0,1.436-.5,1.752,1.752,0,0,0,.681-1.245h1.453a2.785,2.785,0,0,1-.531,1.469,3.5,3.5,0,0,1-1.307,1.112,3.772,3.772,0,0,1-1.731.415,3.7,3.7,0,0,1-2.918-1.224,4.877,4.877,0,0,1-1.083-3.349v-.257A5.407,5.407,0,0,1,12.335,9a3.667,3.667,0,0,1,1.382-1.585,3.926,3.926,0,0,1,2.129-.564,3.6,3.6,0,0,1,2.511.9,3.234,3.234,0,0,1,1.067,2.349H17.971a2.116,2.116,0,0,0-.66-1.432,2.053,2.053,0,0,0-1.465-.56,2.149,2.149,0,0,0-1.814.843,3.957,3.957,0,0,0-.643,2.436v.291a3.878,3.878,0,0,0,.639,2.391A2.16,2.16,0,0,0,15.854,14.913ZM23.234,4.844V7.019h1.677V8.206H23.234v5.577a1.247,1.247,0,0,0,.224.81.943.943,0,0,0,.764.27,3.718,3.718,0,0,0,.73-.1V16a4.478,4.478,0,0,1-1.179.165,1.912,1.912,0,0,1-1.552-.623,2.675,2.675,0,0,1-.523-1.768V8.206H20.063V7.019H21.7V4.844Zm9.015,10.268a3.262,3.262,0,0,1-2.631,1.054,2.792,2.792,0,0,1-2.187-.834,3.611,3.611,0,0,1-.76-2.469V7.019h1.536v5.8q0,2.042,1.66,2.042a2.3,2.3,0,0,0,2.341-1.312V7.019h1.536V16H32.282ZM31,3.25h1.859L30.638,5.69l-1.237,0ZM41.62,16a3.226,3.226,0,0,1-.216-.946,3.426,3.426,0,0,1-2.557,1.112,3.17,3.17,0,0,1-2.179-.751,2.43,2.43,0,0,1-.851-1.905,2.539,2.539,0,0,1,1.067-2.179,5.029,5.029,0,0,1,3-.776h1.494V9.849A1.725,1.725,0,0,0,40.9,8.567a1.935,1.935,0,0,0-1.419-.477A2.239,2.239,0,0,0,38.1,8.5a1.223,1.223,0,0,0-.556,1H36a2.119,2.119,0,0,1,.477-1.3,3.258,3.258,0,0,1,1.295-.992,4.356,4.356,0,0,1,1.8-.365A3.551,3.551,0,0,1,42,7.629a2.8,2.8,0,0,1,.913,2.137V13.9a5.054,5.054,0,0,0,.315,1.967V16Zm-2.548-1.17a2.7,2.7,0,0,0,1.37-.374,2.259,2.259,0,0,0,.938-.971V11.642h-1.2q-2.822,0-2.822,1.652a1.4,1.4,0,0,0,.481,1.129A1.85,1.85,0,0,0,39.072,14.83Zm16,1.17a3.226,3.226,0,0,1-.216-.946A3.426,3.426,0,0,1,52.3,16.166a3.17,3.17,0,0,1-2.179-.751,2.43,2.43,0,0,1-.851-1.905,2.539,2.539,0,0,1,1.067-2.179,5.029,5.029,0,0,1,3-.776h1.494V9.849a1.725,1.725,0,0,0-.481-1.282,1.935,1.935,0,0,0-1.419-.477,2.239,2.239,0,0,0-1.378.415,1.223,1.223,0,0,0-.556,1H49.456a2.119,2.119,0,0,1,.477-1.3,3.258,3.258,0,0,1,1.295-.992,4.356,4.356,0,0,1,1.8-.365,3.551,3.551,0,0,1,2.432.776,2.8,2.8,0,0,1,.913,2.137V13.9a5.054,5.054,0,0,0,.315,1.967V16Zm-2.548-1.17a2.7,2.7,0,0,0,1.37-.374,2.259,2.259,0,0,0,.938-.971V11.642h-1.2q-2.822,0-2.822,1.652a1.4,1.4,0,0,0,.481,1.129A1.85,1.85,0,0,0,52.527,14.83ZM64.439,7.019l.05,1.129a3.273,3.273,0,0,1,2.689-1.295q2.847,0,2.872,3.212V16H68.515V10.057a2.068,2.068,0,0,0-.444-1.436,1.78,1.78,0,0,0-1.357-.465,2.216,2.216,0,0,0-1.312.4,2.706,2.706,0,0,0-.88,1.046V16H62.986V7.019Zm7.521,4.408a5.3,5.3,0,0,1,.519-2.374,3.87,3.87,0,0,1,1.444-1.627,3.932,3.932,0,0,1,2.113-.573A3.788,3.788,0,0,1,79,8.123,4.886,4.886,0,0,1,80.136,11.5v.108a5.351,5.351,0,0,1-.5,2.353A3.813,3.813,0,0,1,78.2,15.585a3.977,3.977,0,0,1-2.146.581,3.778,3.778,0,0,1-2.959-1.27,4.861,4.861,0,0,1-1.133-3.362Zm1.544.183a3.842,3.842,0,0,0,.693,2.4A2.349,2.349,0,0,0,77.911,14a4.2,4.2,0,0,0,.689-2.569,3.836,3.836,0,0,0-.7-2.395,2.23,2.23,0,0,0-1.864-.917,2.205,2.205,0,0,0-1.834.9A4.17,4.17,0,0,0,73.5,11.609Zm10-4.59.042,1a3.317,3.317,0,0,1,2.665-1.162A2.568,2.568,0,0,1,88.777,8.3a3.4,3.4,0,0,1,1.166-1.046,3.445,3.445,0,0,1,1.7-.4q2.955,0,3,3.129V16H93.11V10.073a2.062,2.062,0,0,0-.44-1.44,1.937,1.937,0,0,0-1.478-.477,2.036,2.036,0,0,0-1.419.51,2.071,2.071,0,0,0-.656,1.374V16H87.573V10.115a1.713,1.713,0,0,0-1.917-1.959,2.055,2.055,0,0,0-2.067,1.287V16H82.053V7.019Zm21.059,4.59a5.34,5.34,0,0,1-.946,3.308,3.024,3.024,0,0,1-2.54,1.249,3.131,3.131,0,0,1-2.631-1.2L98.373,16H96.961V3.25H98.5V8.006a3.113,3.113,0,0,1,2.565-1.154,3.042,3.042,0,0,1,2.569,1.237,5.5,5.5,0,0,1,.934,3.387Zm-1.536-.174a4.15,4.15,0,0,0-.606-2.424,2.006,2.006,0,0,0-1.743-.855A2.255,2.255,0,0,0,98.5,9.567v3.885a2.318,2.318,0,0,0,2.2,1.411,2,2,0,0,0,1.718-.855A4.413,4.413,0,0,0,103.029,11.435ZM110.84,8.4a4.6,4.6,0,0,0-.755-.058,2.024,2.024,0,0,0-2.05,1.287V16H106.5V7.019h1.494l.025,1.038a2.391,2.391,0,0,1,2.142-1.2,1.569,1.569,0,0,1,.681.116Zm4.98,7.77a3.924,3.924,0,0,1-2.972-1.2,4.452,4.452,0,0,1-1.146-3.208v-.282a5.39,5.39,0,0,1,.51-2.386,3.982,3.982,0,0,1,1.428-1.644,3.59,3.59,0,0,1,1.988-.594,3.364,3.364,0,0,1,2.723,1.154,5,5,0,0,1,.971,3.3v.639h-6.084a3.193,3.193,0,0,0,.776,2.146,2.44,2.44,0,0,0,1.888.818,2.675,2.675,0,0,0,1.378-.332,3.462,3.462,0,0,0,.988-.88l.938.73A3.772,3.772,0,0,1,115.821,16.166Zm-.191-8.052a2.048,2.048,0,0,0-1.561.677,3.288,3.288,0,0,0-.78,1.9h4.5v-.116a2.925,2.925,0,0,0-.631-1.814A1.928,1.928,0,0,0,115.63,8.114Zm9.305,3.32a5.261,5.261,0,0,1,.979-3.324,3.333,3.333,0,0,1,5.063-.178V3.25h1.536V16H131.1l-.075-.963a3.127,3.127,0,0,1-2.565,1.129,3.068,3.068,0,0,1-2.544-1.278,5.321,5.321,0,0,1-.984-3.337Zm1.536.174A3.984,3.984,0,0,0,127.1,14a2.039,2.039,0,0,0,1.743.863,2.24,2.24,0,0,0,2.133-1.312V9.426a2.257,2.257,0,0,0-2.117-1.27,2.049,2.049,0,0,0-1.76.872A4.386,4.386,0,0,0,126.471,11.609Zm12.152,4.557a3.924,3.924,0,0,1-2.972-1.2,4.452,4.452,0,0,1-1.146-3.208v-.282a5.39,5.39,0,0,1,.51-2.386,3.982,3.982,0,0,1,1.428-1.644,3.59,3.59,0,0,1,1.988-.594,3.364,3.364,0,0,1,2.723,1.154,5,5,0,0,1,.971,3.3v.639h-6.084a3.193,3.193,0,0,0,.776,2.146,2.44,2.44,0,0,0,1.888.818,2.675,2.675,0,0,0,1.378-.332,3.462,3.462,0,0,0,.988-.88l.938.73A3.772,3.772,0,0,1,138.623,16.166Zm-.191-8.052a2.048,2.048,0,0,0-1.561.677,3.288,3.288,0,0,0-.78,1.9h4.5v-.116a2.925,2.925,0,0,0-.631-1.814A1.928,1.928,0,0,0,138.432,8.114ZM149.779,16h-1.536V3.25h1.536Zm8,0a3.226,3.226,0,0,1-.216-.946,3.426,3.426,0,0,1-2.557,1.112,3.17,3.17,0,0,1-2.179-.751,2.43,2.43,0,0,1-.851-1.905,2.539,2.539,0,0,1,1.067-2.179,5.029,5.029,0,0,1,3-.776h1.494V9.849a1.725,1.725,0,0,0-.481-1.282,1.935,1.935,0,0,0-1.419-.477,2.239,2.239,0,0,0-1.378.415,1.223,1.223,0,0,0-.556,1h-1.544a2.119,2.119,0,0,1,.477-1.3,3.258,3.258,0,0,1,1.295-.992,4.356,4.356,0,0,1,1.8-.365,3.551,3.551,0,0,1,2.432.776,2.8,2.8,0,0,1,.913,2.137V13.9a5.054,5.054,0,0,0,.315,1.967V16Zm-2.548-1.17a2.7,2.7,0,0,0,1.37-.374,2.259,2.259,0,0,0,.938-.971V11.642h-1.2q-2.822,0-2.822,1.652A1.4,1.4,0,0,0,154,14.423,1.85,1.85,0,0,0,155.233,14.83ZM6.392,37.618a1.131,1.131,0,0,0-.469-.967,4.514,4.514,0,0,0-1.635-.594,7.731,7.731,0,0,1-1.851-.6,2.633,2.633,0,0,1-1.013-.83A1.986,1.986,0,0,1,1.1,33.484a2.33,2.33,0,0,1,.934-1.868,3.647,3.647,0,0,1,2.386-.764,3.753,3.753,0,0,1,2.478.789,2.5,2.5,0,0,1,.95,2.017H6.3a1.386,1.386,0,0,0-.535-1.087,2.006,2.006,0,0,0-1.349-.457,2.1,2.1,0,0,0-1.312.365,1.15,1.15,0,0,0-.473.955.932.932,0,0,0,.44.838,5.413,5.413,0,0,0,1.59.54,8.283,8.283,0,0,1,1.864.614,2.718,2.718,0,0,1,1.058.859,2.112,2.112,0,0,1,.344,1.224,2.3,2.3,0,0,1-.963,1.93,4.039,4.039,0,0,1-2.5.726,4.523,4.523,0,0,1-1.909-.382,3.105,3.105,0,0,1-1.3-1.067,2.571,2.571,0,0,1-.469-1.482H2.324a1.59,1.59,0,0,0,.618,1.224,2.4,2.4,0,0,0,1.523.452,2.476,2.476,0,0,0,1.4-.353A1.084,1.084,0,0,0,6.392,37.618Zm3.129-2.191a5.3,5.3,0,0,1,.519-2.374,3.87,3.87,0,0,1,1.444-1.627,3.932,3.932,0,0,1,2.113-.573,3.788,3.788,0,0,1,2.968,1.27A4.886,4.886,0,0,1,17.7,35.5v.108a5.351,5.351,0,0,1-.5,2.353,3.813,3.813,0,0,1-1.436,1.623,3.977,3.977,0,0,1-2.146.581,3.778,3.778,0,0,1-2.959-1.27,4.861,4.861,0,0,1-1.133-3.362Zm1.544.183a3.842,3.842,0,0,0,.693,2.4A2.349,2.349,0,0,0,15.473,38a4.2,4.2,0,0,0,.689-2.569,3.836,3.836,0,0,0-.7-2.395,2.23,2.23,0,0,0-1.864-.917,2.205,2.205,0,0,0-1.834.9A4.17,4.17,0,0,0,11.065,35.609Zm12.161,3.3a2.212,2.212,0,0,0,1.436-.5,1.752,1.752,0,0,0,.681-1.245h1.453a2.785,2.785,0,0,1-.531,1.469,3.5,3.5,0,0,1-1.307,1.112,3.772,3.772,0,0,1-1.731.415,3.7,3.7,0,0,1-2.918-1.224,4.877,4.877,0,0,1-1.083-3.349v-.257A5.407,5.407,0,0,1,19.706,33a3.667,3.667,0,0,1,1.382-1.585,3.926,3.926,0,0,1,2.129-.564,3.6,3.6,0,0,1,2.511.9,3.234,3.234,0,0,1,1.067,2.349H25.342a2.116,2.116,0,0,0-.66-1.432,2.053,2.053,0,0,0-1.465-.56,2.149,2.149,0,0,0-1.814.843,3.957,3.957,0,0,0-.643,2.436v.291a3.878,3.878,0,0,0,.639,2.391A2.16,2.16,0,0,0,23.226,38.913ZM30.19,40H28.654V31.019H30.19ZM28.53,28.636a.917.917,0,0,1,.228-.631.857.857,0,0,1,.677-.257.87.87,0,0,1,.681.257.907.907,0,0,1,.232.631.877.877,0,0,1-.232.623.886.886,0,0,1-.681.249.872.872,0,0,1-.677-.249A.886.886,0,0,1,28.53,28.636Zm7.844,11.53a3.924,3.924,0,0,1-2.972-1.2,4.452,4.452,0,0,1-1.146-3.208v-.282a5.39,5.39,0,0,1,.51-2.386A3.982,3.982,0,0,1,34.2,31.446a3.59,3.59,0,0,1,1.988-.594,3.364,3.364,0,0,1,2.723,1.154,5,5,0,0,1,.971,3.3v.639H33.792a3.193,3.193,0,0,0,.776,2.146,2.44,2.44,0,0,0,1.888.818,2.675,2.675,0,0,0,1.378-.332,3.462,3.462,0,0,0,.988-.88l.938.73A3.772,3.772,0,0,1,36.374,40.166Zm-.191-8.052a2.048,2.048,0,0,0-1.561.677,3.288,3.288,0,0,0-.78,1.9h4.5v-.116a2.925,2.925,0,0,0-.631-1.814A1.928,1.928,0,0,0,36.183,32.114Zm5.1,3.32a5.261,5.261,0,0,1,.979-3.324,3.333,3.333,0,0,1,5.063-.178V27.25h1.536V40H47.447l-.075-.963a3.127,3.127,0,0,1-2.565,1.129,3.068,3.068,0,0,1-2.544-1.278,5.321,5.321,0,0,1-.984-3.337Zm1.536.174A3.984,3.984,0,0,0,43.446,38a2.039,2.039,0,0,0,1.743.863,2.24,2.24,0,0,0,2.133-1.312V33.426a2.257,2.257,0,0,0-2.117-1.27,2.049,2.049,0,0,0-1.76.872A4.386,4.386,0,0,0,42.815,35.609ZM56.786,40a3.226,3.226,0,0,1-.216-.946,3.426,3.426,0,0,1-2.557,1.112,3.17,3.17,0,0,1-2.179-.751,2.43,2.43,0,0,1-.851-1.905,2.539,2.539,0,0,1,1.067-2.179,5.029,5.029,0,0,1,3-.776h1.494v-.706a1.725,1.725,0,0,0-.481-1.282,1.935,1.935,0,0,0-1.419-.477,2.239,2.239,0,0,0-1.378.415,1.223,1.223,0,0,0-.556,1H51.166a2.119,2.119,0,0,1,.477-1.3,3.258,3.258,0,0,1,1.295-.992,4.356,4.356,0,0,1,1.8-.365,3.551,3.551,0,0,1,2.432.776,2.8,2.8,0,0,1,.913,2.137V37.9a5.054,5.054,0,0,0,.315,1.967V40Zm-2.548-1.17a2.7,2.7,0,0,0,1.37-.374,2.259,2.259,0,0,0,.938-.971V35.642h-1.2q-2.822,0-2.822,1.652A1.4,1.4,0,0,0,53,38.423,1.85,1.85,0,0,0,54.237,38.83Zm5.877-3.4a5.261,5.261,0,0,1,.979-3.324,3.333,3.333,0,0,1,5.063-.178V27.25h1.536V40H66.282l-.075-.963a3.127,3.127,0,0,1-2.565,1.129A3.068,3.068,0,0,1,61.1,38.888a5.321,5.321,0,0,1-.984-3.337Zm1.536.174A3.984,3.984,0,0,0,62.281,38a2.039,2.039,0,0,0,1.743.863,2.24,2.24,0,0,0,2.133-1.312V33.426a2.257,2.257,0,0,0-2.117-1.27,2.049,2.049,0,0,0-1.76.872A4.386,4.386,0,0,0,61.65,35.609Zm20.221,0a5.378,5.378,0,0,1-.938,3.3,3.006,3.006,0,0,1-2.54,1.253,3.294,3.294,0,0,1-2.573-1.038v4.325H74.284V31.019h1.4l.075,1a3.163,3.163,0,0,1,2.606-1.162,3.063,3.063,0,0,1,2.561,1.22,5.437,5.437,0,0,1,.942,3.4Zm-1.536-.174a3.968,3.968,0,0,0-.647-2.4,2.086,2.086,0,0,0-1.776-.88,2.257,2.257,0,0,0-2.092,1.237v4.292a2.262,2.262,0,0,0,2.108,1.229,2.076,2.076,0,0,0,1.756-.876A4.332,4.332,0,0,0,80.335,35.435Zm3.08-.008a5.3,5.3,0,0,1,.519-2.374,3.87,3.87,0,0,1,1.444-1.627,3.932,3.932,0,0,1,2.113-.573,3.788,3.788,0,0,1,2.968,1.27A4.886,4.886,0,0,1,91.591,35.5v.108a5.351,5.351,0,0,1-.5,2.353,3.813,3.813,0,0,1-1.436,1.623,3.977,3.977,0,0,1-2.146.581,3.778,3.778,0,0,1-2.959-1.27,4.861,4.861,0,0,1-1.133-3.362Zm1.544.183a3.842,3.842,0,0,0,.693,2.4A2.349,2.349,0,0,0,89.366,38a4.2,4.2,0,0,0,.689-2.569,3.836,3.836,0,0,0-.7-2.395,2.23,2.23,0,0,0-1.864-.917,2.205,2.205,0,0,0-1.834.9A4.17,4.17,0,0,0,84.958,35.609Zm12.9-3.212a4.6,4.6,0,0,0-.755-.058,2.024,2.024,0,0,0-2.05,1.287V40H93.517V31.019h1.494l.025,1.038a2.391,2.391,0,0,1,2.142-1.2,1.569,1.569,0,0,1,.681.116Zm7.064-1.378.042,1a3.317,3.317,0,0,1,2.665-1.162,2.568,2.568,0,0,1,2.565,1.444,3.4,3.4,0,0,1,1.166-1.046,3.445,3.445,0,0,1,1.7-.4q2.955,0,3,3.129V40h-1.536V34.073a2.062,2.062,0,0,0-.44-1.44,1.937,1.937,0,0,0-1.478-.477,2.036,2.036,0,0,0-1.419.51,2.071,2.071,0,0,0-.656,1.374V40h-1.544V34.115a1.713,1.713,0,0,0-1.917-1.959A2.055,2.055,0,0,0,105,33.442V40h-1.536V31.019ZM122.1,40.166a3.924,3.924,0,0,1-2.972-1.2,4.452,4.452,0,0,1-1.146-3.208v-.282a5.39,5.39,0,0,1,.51-2.386,3.982,3.982,0,0,1,1.428-1.644,3.59,3.59,0,0,1,1.988-.594,3.364,3.364,0,0,1,2.723,1.154,5,5,0,0,1,.971,3.3v.639h-6.084a3.193,3.193,0,0,0,.776,2.146,2.44,2.44,0,0,0,1.888.818,2.675,2.675,0,0,0,1.378-.332,3.462,3.462,0,0,0,.988-.88l.938.73A3.772,3.772,0,0,1,122.1,40.166Zm-.191-8.052a2.048,2.048,0,0,0-1.561.677,3.288,3.288,0,0,0-.78,1.9h4.5v-.116a2.925,2.925,0,0,0-.631-1.814A1.928,1.928,0,0,0,121.914,32.114Zm5.1,3.32a5.261,5.261,0,0,1,.979-3.324,3.333,3.333,0,0,1,5.063-.178V27.25h1.536V40h-1.411l-.075-.963a3.127,3.127,0,0,1-2.565,1.129,3.068,3.068,0,0,1-2.544-1.278,5.321,5.321,0,0,1-.984-3.337Zm1.536.174A3.984,3.984,0,0,0,129.177,38a2.039,2.039,0,0,0,1.743.863,2.24,2.24,0,0,0,2.133-1.312V33.426a2.257,2.257,0,0,0-2.117-1.27,2.049,2.049,0,0,0-1.76.872A4.386,4.386,0,0,0,128.546,35.609ZM138.64,40H137.1V31.019h1.536Zm-1.66-11.364a.917.917,0,0,1,.228-.631.857.857,0,0,1,.677-.257.87.87,0,0,1,.681.257.907.907,0,0,1,.232.631.877.877,0,0,1-.232.623.886.886,0,0,1-.681.249.872.872,0,0,1-.677-.249A.886.886,0,0,1,136.979,28.636Zm3.71,6.79a5.3,5.3,0,0,1,.519-2.374,3.87,3.87,0,0,1,1.444-1.627,3.932,3.932,0,0,1,2.113-.573,3.788,3.788,0,0,1,2.968,1.27,4.886,4.886,0,0,1,1.133,3.378v.108a5.351,5.351,0,0,1-.5,2.353,3.813,3.813,0,0,1-1.436,1.623,3.977,3.977,0,0,1-2.146.581,3.778,3.778,0,0,1-2.959-1.27,4.861,4.861,0,0,1-1.133-3.362Zm1.544.183a3.842,3.842,0,0,0,.693,2.4A2.349,2.349,0,0,0,146.642,38a4.2,4.2,0,0,0,.689-2.569,3.836,3.836,0,0,0-.7-2.395,2.23,2.23,0,0,0-1.864-.917,2.205,2.205,0,0,0-1.834.9A4.17,4.17,0,0,0,142.234,35.609Zm12.393-.174a5.261,5.261,0,0,1,.979-3.324,3.333,3.333,0,0,1,5.063-.178V27.25h1.536V40h-1.411l-.075-.963a3.127,3.127,0,0,1-2.565,1.129,3.068,3.068,0,0,1-2.544-1.278,5.321,5.321,0,0,1-.984-3.337Zm1.536.174A3.984,3.984,0,0,0,156.793,38a2.039,2.039,0,0,0,1.743.863,2.24,2.24,0,0,0,2.133-1.312V33.426a2.257,2.257,0,0,0-2.117-1.27,2.049,2.049,0,0,0-1.76.872A4.386,4.386,0,0,0,156.163,35.609Zm12.152,4.557a3.924,3.924,0,0,1-2.972-1.2,4.452,4.452,0,0,1-1.146-3.208v-.282a5.39,5.39,0,0,1,.51-2.386,3.982,3.982,0,0,1,1.428-1.644,3.59,3.59,0,0,1,1.988-.594,3.364,3.364,0,0,1,2.723,1.154,5,5,0,0,1,.971,3.3v.639h-6.084a3.193,3.193,0,0,0,.776,2.146,2.44,2.44,0,0,0,1.888.818,2.675,2.675,0,0,0,1.378-.332,3.462,3.462,0,0,0,.988-.88l.938.73A3.772,3.772,0,0,1,168.315,40.166Zm-.191-8.052a2.048,2.048,0,0,0-1.561.677,3.288,3.288,0,0,0-.78,1.9h4.5v-.116a2.925,2.925,0,0,0-.631-1.814A1.928,1.928,0,0,0,168.124,32.114ZM175.263,40h-1.536V27.25h1.536ZM5.5,56.4a4.6,4.6,0,0,0-.755-.058A2.024,2.024,0,0,0,2.7,57.625V64H1.162V55.019H2.656l.025,1.038a2.391,2.391,0,0,1,2.142-1.2,1.569,1.569,0,0,1,.681.116Zm4.98,7.77a3.924,3.924,0,0,1-2.972-1.2,4.452,4.452,0,0,1-1.146-3.208v-.282a5.39,5.39,0,0,1,.51-2.386A3.982,3.982,0,0,1,8.3,55.446a3.59,3.59,0,0,1,1.988-.594,3.364,3.364,0,0,1,2.723,1.154,5,5,0,0,1,.971,3.3v.639H7.9a3.193,3.193,0,0,0,.776,2.146,2.44,2.44,0,0,0,1.888.818,2.675,2.675,0,0,0,1.378-.332,3.462,3.462,0,0,0,.988-.88l.938.73A3.772,3.772,0,0,1,10.484,64.166Zm-.191-8.052a2.048,2.048,0,0,0-1.561.677,3.288,3.288,0,0,0-.78,1.9h4.5v-.116a2.925,2.925,0,0,0-.631-1.814A1.928,1.928,0,0,0,10.293,56.114ZM23.35,59.609a5.378,5.378,0,0,1-.938,3.3,3.006,3.006,0,0,1-2.54,1.253A3.294,3.294,0,0,1,17.3,63.128v4.325H15.763V55.019h1.4l.075,1a3.163,3.163,0,0,1,2.606-1.162,3.063,3.063,0,0,1,2.561,1.22,5.437,5.437,0,0,1,.942,3.4Zm-1.536-.174a3.968,3.968,0,0,0-.647-2.4,2.086,2.086,0,0,0-1.776-.88A2.257,2.257,0,0,0,17.3,57.393v4.292a2.262,2.262,0,0,0,2.108,1.229,2.076,2.076,0,0,0,1.756-.876A4.332,4.332,0,0,0,21.814,59.435ZM29.642,56.4a4.6,4.6,0,0,0-.755-.058,2.024,2.024,0,0,0-2.05,1.287V64H25.3V55.019h1.494l.025,1.038a2.391,2.391,0,0,1,2.142-1.2,1.569,1.569,0,0,1,.681.116Zm4.98,7.77a3.924,3.924,0,0,1-2.972-1.2,4.452,4.452,0,0,1-1.146-3.208v-.282a5.39,5.39,0,0,1,.51-2.386,3.982,3.982,0,0,1,1.428-1.644,3.59,3.59,0,0,1,1.988-.594,3.364,3.364,0,0,1,2.723,1.154,5,5,0,0,1,.971,3.3v.639H32.041a3.193,3.193,0,0,0,.776,2.146,2.44,2.44,0,0,0,1.888.818,2.675,2.675,0,0,0,1.378-.332,3.462,3.462,0,0,0,.988-.88l.938.73A3.772,3.772,0,0,1,34.623,64.166Zm-.191-8.052a2.048,2.048,0,0,0-1.561.677,3.288,3.288,0,0,0-.78,1.9h4.5v-.116a2.925,2.925,0,0,0-.631-1.814A1.928,1.928,0,0,0,34.432,56.114Zm10.7,5.5a1.13,1.13,0,0,0-.469-.967,4.514,4.514,0,0,0-1.635-.594,7.731,7.731,0,0,1-1.851-.6,2.633,2.633,0,0,1-1.013-.83,1.986,1.986,0,0,1-.328-1.146,2.33,2.33,0,0,1,.934-1.868,3.647,3.647,0,0,1,2.386-.764,3.753,3.753,0,0,1,2.478.789,2.5,2.5,0,0,1,.95,2.017H45.04a1.386,1.386,0,0,0-.535-1.087,2.006,2.006,0,0,0-1.349-.457,2.1,2.1,0,0,0-1.312.365,1.15,1.15,0,0,0-.473.955.932.932,0,0,0,.44.838,5.413,5.413,0,0,0,1.59.54,8.283,8.283,0,0,1,1.864.614,2.718,2.718,0,0,1,1.058.859,2.112,2.112,0,0,1,.344,1.224,2.3,2.3,0,0,1-.963,1.93,4.039,4.039,0,0,1-2.5.726,4.523,4.523,0,0,1-1.909-.382A3.105,3.105,0,0,1,40,62.718a2.571,2.571,0,0,1-.469-1.482h1.536a1.59,1.59,0,0,0,.618,1.224,2.4,2.4,0,0,0,1.523.452,2.476,2.476,0,0,0,1.4-.353A1.084,1.084,0,0,0,45.131,61.618Zm7.263,2.548a3.924,3.924,0,0,1-2.972-1.2,4.452,4.452,0,0,1-1.146-3.208v-.282a5.39,5.39,0,0,1,.51-2.386,3.982,3.982,0,0,1,1.428-1.644,3.59,3.59,0,0,1,1.988-.594,3.364,3.364,0,0,1,2.723,1.154,5,5,0,0,1,.971,3.3v.639H49.813a3.193,3.193,0,0,0,.776,2.146,2.44,2.44,0,0,0,1.888.818,2.675,2.675,0,0,0,1.378-.332,3.462,3.462,0,0,0,.988-.88l.938.73A3.772,3.772,0,0,1,52.395,64.166ZM52.2,56.114a2.048,2.048,0,0,0-1.561.677,3.288,3.288,0,0,0-.78,1.9h4.5v-.116a2.925,2.925,0,0,0-.631-1.814A1.928,1.928,0,0,0,52.2,56.114Zm6.923-1.1.05,1.129a3.273,3.273,0,0,1,2.689-1.295q2.847,0,2.872,3.212V64H63.2V58.057a2.068,2.068,0,0,0-.444-1.436,1.78,1.78,0,0,0-1.357-.465,2.216,2.216,0,0,0-1.312.4,2.706,2.706,0,0,0-.88,1.046V64H57.674V55.019Zm10.011-2.175v2.175h1.677v1.187H69.137v5.577a1.247,1.247,0,0,0,.224.81.943.943,0,0,0,.764.27,3.718,3.718,0,0,0,.73-.1V64a4.478,4.478,0,0,1-1.179.165,1.912,1.912,0,0,1-1.552-.623,2.675,2.675,0,0,1-.523-1.768v-5.57H65.966V55.019H67.6V52.844ZM78.152,64a3.226,3.226,0,0,1-.216-.946,3.426,3.426,0,0,1-2.557,1.112,3.17,3.17,0,0,1-2.179-.751,2.43,2.43,0,0,1-.851-1.905,2.539,2.539,0,0,1,1.067-2.179,5.029,5.029,0,0,1,3-.776h1.494v-.706a1.725,1.725,0,0,0-.481-1.282,1.935,1.935,0,0,0-1.419-.477,2.239,2.239,0,0,0-1.378.415,1.223,1.223,0,0,0-.556,1H72.532a2.119,2.119,0,0,1,.477-1.3,3.258,3.258,0,0,1,1.295-.992,4.356,4.356,0,0,1,1.8-.365,3.551,3.551,0,0,1,2.432.776,2.8,2.8,0,0,1,.913,2.137V61.9a5.054,5.054,0,0,0,.315,1.967V64ZM75.6,62.83a2.7,2.7,0,0,0,1.37-.374,2.259,2.259,0,0,0,.938-.971V59.642h-1.2q-2.822,0-2.822,1.652a1.4,1.4,0,0,0,.481,1.129A1.85,1.85,0,0,0,75.6,62.83Zm7.7-7.811.05,1.129a3.273,3.273,0,0,1,2.689-1.295q2.847,0,2.872,3.212V64H87.382V58.057a2.068,2.068,0,0,0-.444-1.436,1.78,1.78,0,0,0-1.357-.465,2.216,2.216,0,0,0-1.312.4,2.706,2.706,0,0,0-.88,1.046V64H81.854V55.019Zm10.011-2.175v2.175h1.677v1.187H93.317v5.577a1.247,1.247,0,0,0,.224.81.943.943,0,0,0,.764.27,3.718,3.718,0,0,0,.73-.1V64a4.478,4.478,0,0,1-1.179.165,1.912,1.912,0,0,1-1.552-.623,2.675,2.675,0,0,1-.523-1.768v-5.57H90.146V55.019h1.635V52.844Zm7.2,11.322a3.924,3.924,0,0,1-2.972-1.2A4.452,4.452,0,0,1,96.4,59.758v-.282a5.39,5.39,0,0,1,.51-2.386,3.982,3.982,0,0,1,1.428-1.644,3.59,3.59,0,0,1,1.988-.594,3.364,3.364,0,0,1,2.723,1.154,5,5,0,0,1,.971,3.3v.639H97.933a3.193,3.193,0,0,0,.776,2.146,2.44,2.44,0,0,0,1.888.818,2.675,2.675,0,0,0,1.378-.332,3.462,3.462,0,0,0,.988-.88l.938.73A3.772,3.772,0,0,1,100.514,64.166Zm-.191-8.052a2.048,2.048,0,0,0-1.561.677,3.288,3.288,0,0,0-.78,1.9h4.5v-.116a2.925,2.925,0,0,0-.631-1.814A1.928,1.928,0,0,0,100.323,56.114ZM111.67,64h-1.536V51.25h1.536Zm6.184.166a3.924,3.924,0,0,1-2.972-1.2,4.452,4.452,0,0,1-1.146-3.208v-.282a5.39,5.39,0,0,1,.51-2.386,3.982,3.982,0,0,1,1.428-1.644,3.59,3.59,0,0,1,1.988-.594,3.364,3.364,0,0,1,2.723,1.154,5,5,0,0,1,.971,3.3v.639h-6.084a3.193,3.193,0,0,0,.776,2.146,2.44,2.44,0,0,0,1.888.818,2.675,2.675,0,0,0,1.378-.332,3.462,3.462,0,0,0,.988-.88l.938.73A3.772,3.772,0,0,1,117.854,64.166Zm-.191-8.052a2.048,2.048,0,0,0-1.561.677,3.288,3.288,0,0,0-.78,1.9h4.5v-.116a2.925,2.925,0,0,0-.631-1.814A1.928,1.928,0,0,0,117.664,56.114Zm5.1,3.32a5.279,5.279,0,0,1,.971-3.341,3.348,3.348,0,0,1,5.138-.079l.075-1h1.4v8.766a3.654,3.654,0,0,1-1.033,2.748,3.814,3.814,0,0,1-2.777,1,4.619,4.619,0,0,1-1.9-.415,3.272,3.272,0,0,1-1.419-1.137l.8-.921a3,3,0,0,0,2.416,1.22,2.353,2.353,0,0,0,1.747-.631,2.411,2.411,0,0,0,.627-1.776V63.1a3.156,3.156,0,0,1-2.515,1.063,3.068,3.068,0,0,1-2.552-1.27A5.55,5.55,0,0,1,122.769,59.435Zm1.544.174A4.027,4.027,0,0,0,124.935,62a2.023,2.023,0,0,0,1.743.867,2.249,2.249,0,0,0,2.133-1.32v-4.1a2.276,2.276,0,0,0-2.117-1.287,2.041,2.041,0,0,0-1.751.872A4.386,4.386,0,0,0,124.313,59.609ZM138.216,64a3.226,3.226,0,0,1-.216-.946,3.426,3.426,0,0,1-2.557,1.112,3.17,3.17,0,0,1-2.179-.751,2.43,2.43,0,0,1-.851-1.905,2.539,2.539,0,0,1,1.067-2.179,5.029,5.029,0,0,1,3-.776h1.494v-.706a1.725,1.725,0,0,0-.481-1.282,1.935,1.935,0,0,0-1.419-.477,2.239,2.239,0,0,0-1.378.415,1.223,1.223,0,0,0-.556,1H132.6a2.119,2.119,0,0,1,.477-1.3,3.258,3.258,0,0,1,1.295-.992,4.356,4.356,0,0,1,1.8-.365,3.551,3.551,0,0,1,2.432.776,2.8,2.8,0,0,1,.913,2.137V61.9a5.054,5.054,0,0,0,.315,1.967V64Zm-2.548-1.17a2.7,2.7,0,0,0,1.37-.374,2.259,2.259,0,0,0,.938-.971V59.642h-1.2q-2.822,0-2.822,1.652a1.4,1.4,0,0,0,.481,1.129A1.85,1.85,0,0,0,135.668,62.83ZM143.587,64h-1.536V51.25h1.536Z" transform="translate(1226 3941)" fill="#12263f"/>
    <path id="Trazado_606829" data-name="Trazado 606829" d="M3,11.269V16H1.4V3.914H5.86A4.478,4.478,0,0,1,8.969,4.927a3.433,3.433,0,0,1,1.125,2.681,3.388,3.388,0,0,1-1.1,2.71,4.678,4.678,0,0,1-3.15.95Zm0-1.3H5.86a2.863,2.863,0,0,0,1.959-.6A2.2,2.2,0,0,0,8.5,7.62a2.277,2.277,0,0,0-.681-1.73,2.682,2.682,0,0,0-1.868-.674H3ZM17.34,16a3.226,3.226,0,0,1-.216-.946,3.426,3.426,0,0,1-2.557,1.112,3.17,3.17,0,0,1-2.179-.751,2.43,2.43,0,0,1-.851-1.905A2.539,2.539,0,0,1,12.6,11.331a5.029,5.029,0,0,1,3-.776H17.1V9.849a1.725,1.725,0,0,0-.481-1.282A1.935,1.935,0,0,0,15.2,8.089a2.239,2.239,0,0,0-1.378.415,1.223,1.223,0,0,0-.556,1H11.721a2.119,2.119,0,0,1,.477-1.3,3.258,3.258,0,0,1,1.295-.992,4.356,4.356,0,0,1,1.8-.365,3.551,3.551,0,0,1,2.432.776,2.8,2.8,0,0,1,.913,2.137V13.9a5.054,5.054,0,0,0,.315,1.967V16Zm-2.548-1.17a2.7,2.7,0,0,0,1.37-.374,2.259,2.259,0,0,0,.938-.971V11.642H15.9q-2.822,0-2.822,1.652a1.4,1.4,0,0,0,.481,1.129A1.85,1.85,0,0,0,14.792,14.83Zm8.334-9.986V7.019H24.8V8.206H23.126v5.577a1.247,1.247,0,0,0,.224.81.943.943,0,0,0,.764.27,3.718,3.718,0,0,0,.73-.1V16a4.478,4.478,0,0,1-1.179.165,1.912,1.912,0,0,1-1.552-.623,2.675,2.675,0,0,1-.523-1.768V8.206H19.955V7.019H21.59V4.844ZM30.937,8.4a4.6,4.6,0,0,0-.755-.058,2.024,2.024,0,0,0-2.05,1.287V16H26.6V7.019H28.09l.025,1.038a2.391,2.391,0,0,1,2.142-1.2,1.569,1.569,0,0,1,.681.116Zm3.08,7.6H32.481V7.019h1.536ZM32.356,4.636a.917.917,0,0,1,.228-.631.857.857,0,0,1,.677-.257.87.87,0,0,1,.681.257.907.907,0,0,1,.232.631.877.877,0,0,1-.232.623.886.886,0,0,1-.681.249.872.872,0,0,1-.677-.249A.886.886,0,0,1,32.356,4.636Zm5.562,2.382.042,1a3.317,3.317,0,0,1,2.665-1.162A2.568,2.568,0,0,1,43.189,8.3a3.4,3.4,0,0,1,1.166-1.046,3.445,3.445,0,0,1,1.7-.4q2.955,0,3,3.129V16H47.522V10.073a2.062,2.062,0,0,0-.44-1.44A1.937,1.937,0,0,0,45.6,8.156a2.036,2.036,0,0,0-1.419.51,2.071,2.071,0,0,0-.656,1.374V16H41.985V10.115a1.713,1.713,0,0,0-1.917-1.959A2.055,2.055,0,0,0,38,9.442V16H36.465V7.019Zm13.049,4.408a5.3,5.3,0,0,1,.519-2.374A3.87,3.87,0,0,1,52.93,7.425a3.932,3.932,0,0,1,2.113-.573,3.788,3.788,0,0,1,2.968,1.27A4.886,4.886,0,0,1,59.143,11.5v.108a5.351,5.351,0,0,1-.5,2.353A3.813,3.813,0,0,1,57.2,15.585a3.977,3.977,0,0,1-2.146.581A3.778,3.778,0,0,1,52.1,14.9a4.861,4.861,0,0,1-1.133-3.362Zm1.544.183a3.842,3.842,0,0,0,.693,2.4A2.349,2.349,0,0,0,56.918,14a4.2,4.2,0,0,0,.689-2.569,3.836,3.836,0,0,0-.7-2.395,2.23,2.23,0,0,0-1.864-.917,2.205,2.205,0,0,0-1.834.9A4.17,4.17,0,0,0,52.511,11.609Zm10.011-4.59.05,1.129a3.273,3.273,0,0,1,2.689-1.295q2.847,0,2.872,3.212V16H66.6V10.057a2.068,2.068,0,0,0-.444-1.436A1.78,1.78,0,0,0,64.8,8.156a2.216,2.216,0,0,0-1.312.4A2.706,2.706,0,0,0,62.6,9.6V16H61.069V7.019ZM72.117,16H70.582V7.019h1.536ZM70.457,4.636a.917.917,0,0,1,.228-.631.857.857,0,0,1,.677-.257.87.87,0,0,1,.681.257.907.907,0,0,1,.232.631.877.877,0,0,1-.232.623.886.886,0,0,1-.681.249.872.872,0,0,1-.677-.249A.886.886,0,0,1,70.457,4.636Zm3.71,6.79a5.3,5.3,0,0,1,.519-2.374,3.87,3.87,0,0,1,1.444-1.627,3.932,3.932,0,0,1,2.113-.573,3.788,3.788,0,0,1,2.968,1.27A4.886,4.886,0,0,1,82.344,11.5v.108a5.351,5.351,0,0,1-.5,2.353,3.813,3.813,0,0,1-1.436,1.623,3.977,3.977,0,0,1-2.146.581A3.778,3.778,0,0,1,75.3,14.9a4.861,4.861,0,0,1-1.133-3.362Zm1.544.183a3.842,3.842,0,0,0,.693,2.4A2.349,2.349,0,0,0,80.119,14a4.2,4.2,0,0,0,.689-2.569,3.836,3.836,0,0,0-.7-2.395,2.23,2.23,0,0,0-1.864-.917,2.205,2.205,0,0,0-1.834.9A4.17,4.17,0,0,0,75.711,11.609ZM88.1,11.435a5.261,5.261,0,0,1,.979-3.324,3.333,3.333,0,0,1,5.063-.178V3.25h1.536V16H94.272l-.075-.963a3.127,3.127,0,0,1-2.565,1.129,3.068,3.068,0,0,1-2.544-1.278,5.321,5.321,0,0,1-.984-3.337Zm1.536.174A3.984,3.984,0,0,0,90.271,14a2.039,2.039,0,0,0,1.743.863,2.24,2.24,0,0,0,2.133-1.312V9.426a2.257,2.257,0,0,0-2.117-1.27,2.049,2.049,0,0,0-1.76.872A4.386,4.386,0,0,0,89.64,11.609ZM99.734,16H98.2V7.019h1.536ZM98.074,4.636a.917.917,0,0,1,.228-.631.857.857,0,0,1,.677-.257.87.87,0,0,1,.681.257.907.907,0,0,1,.232.631.877.877,0,0,1-.232.623.886.886,0,0,1-.681.249.872.872,0,0,1-.677-.249A.886.886,0,0,1,98.074,4.636ZM102.946,16V8.206h-1.419V7.019h1.419V6.1a3.058,3.058,0,0,1,.772-2.233,2.916,2.916,0,0,1,2.183-.789,4.055,4.055,0,0,1,1.054.14l-.083,1.238a4.41,4.41,0,0,0-.83-.075,1.5,1.5,0,0,0-1.154.437,1.773,1.773,0,0,0-.407,1.253v.949H106.4V8.206h-1.917V16Zm8.674.166a3.924,3.924,0,0,1-2.972-1.2,4.452,4.452,0,0,1-1.146-3.208v-.282a5.39,5.39,0,0,1,.51-2.386,3.982,3.982,0,0,1,1.428-1.644,3.59,3.59,0,0,1,1.988-.594,3.364,3.364,0,0,1,2.723,1.154,5,5,0,0,1,.971,3.3v.639h-6.084a3.193,3.193,0,0,0,.776,2.146,2.44,2.44,0,0,0,1.888.818,2.675,2.675,0,0,0,1.378-.332,3.462,3.462,0,0,0,.988-.88l.938.73A3.772,3.772,0,0,1,111.621,16.166Zm-.191-8.052a2.048,2.048,0,0,0-1.561.677,3.288,3.288,0,0,0-.78,1.9h4.5v-.116a2.925,2.925,0,0,0-.631-1.814A1.928,1.928,0,0,0,111.43,8.114Zm9.812.282a4.6,4.6,0,0,0-.755-.058,2.024,2.024,0,0,0-2.05,1.287V16H116.9V7.019h1.494l.025,1.038a2.391,2.391,0,0,1,2.142-1.2,1.569,1.569,0,0,1,.681.116Zm4.98,7.77a3.924,3.924,0,0,1-2.972-1.2,4.452,4.452,0,0,1-1.146-3.208v-.282a5.39,5.39,0,0,1,.51-2.386,3.982,3.982,0,0,1,1.428-1.644,3.59,3.59,0,0,1,1.988-.594,3.364,3.364,0,0,1,2.723,1.154,5,5,0,0,1,.971,3.3v.639H123.64a3.193,3.193,0,0,0,.776,2.146,2.44,2.44,0,0,0,1.888.818,2.675,2.675,0,0,0,1.378-.332,3.462,3.462,0,0,0,.988-.88l.938.73A3.772,3.772,0,0,1,126.222,16.166Zm-.191-8.052a2.048,2.048,0,0,0-1.561.677,3.288,3.288,0,0,0-.78,1.9h4.5v-.116a2.925,2.925,0,0,0-.631-1.814A1.928,1.928,0,0,0,126.031,8.114Zm6.923-1.1L133,8.147a3.273,3.273,0,0,1,2.689-1.295q2.847,0,2.872,3.212V16h-1.536V10.057a2.068,2.068,0,0,0-.444-1.436,1.78,1.78,0,0,0-1.357-.465,2.216,2.216,0,0,0-1.312.4,2.706,2.706,0,0,0-.88,1.046V16H131.5V7.019Zm10.011-2.175V7.019h1.677V8.206h-1.677v5.577a1.247,1.247,0,0,0,.224.81.943.943,0,0,0,.764.27,3.718,3.718,0,0,0,.73-.1V16a4.478,4.478,0,0,1-1.179.165,1.912,1.912,0,0,1-1.552-.623,2.675,2.675,0,0,1-.523-1.768V8.206h-1.635V7.019h1.635V4.844Zm7.2,11.322a3.924,3.924,0,0,1-2.972-1.2,4.452,4.452,0,0,1-1.146-3.208v-.282a5.39,5.39,0,0,1,.51-2.386,3.982,3.982,0,0,1,1.428-1.644,3.59,3.59,0,0,1,1.988-.594,3.364,3.364,0,0,1,2.723,1.154,5,5,0,0,1,.971,3.3v.639H147.58a3.193,3.193,0,0,0,.776,2.146,2.44,2.44,0,0,0,1.888.818,2.675,2.675,0,0,0,1.378-.332,3.462,3.462,0,0,0,.988-.88l.938.73A3.772,3.772,0,0,1,150.161,16.166Zm-.191-8.052a2.048,2.048,0,0,0-1.561.677,3.288,3.288,0,0,0-.78,1.9h4.5v-.116a2.925,2.925,0,0,0-.631-1.814A1.928,1.928,0,0,0,149.97,8.114ZM6.707,40a3.226,3.226,0,0,1-.216-.946,3.426,3.426,0,0,1-2.557,1.112,3.17,3.17,0,0,1-2.179-.751A2.43,2.43,0,0,1,.9,37.51a2.539,2.539,0,0,1,1.067-2.179,5.029,5.029,0,0,1,3-.776H6.466v-.706a1.725,1.725,0,0,0-.481-1.282,1.935,1.935,0,0,0-1.419-.477,2.239,2.239,0,0,0-1.378.415,1.223,1.223,0,0,0-.556,1H1.087a2.119,2.119,0,0,1,.477-1.3,3.258,3.258,0,0,1,1.295-.992,4.356,4.356,0,0,1,1.8-.365,3.551,3.551,0,0,1,2.432.776A2.8,2.8,0,0,1,8,33.766V37.9a5.054,5.054,0,0,0,.315,1.967V40ZM4.159,38.83a2.7,2.7,0,0,0,1.37-.374,2.259,2.259,0,0,0,.938-.971V35.642h-1.2q-2.822,0-2.822,1.652a1.4,1.4,0,0,0,.481,1.129A1.85,1.85,0,0,0,4.159,38.83ZM12.078,40H10.542V27.25h1.536Zm6.292-4.565a5.261,5.261,0,0,1,.979-3.324,3.333,3.333,0,0,1,5.063-.178V27.25h1.536V40H24.537l-.075-.963A3.127,3.127,0,0,1,21.9,40.166a3.068,3.068,0,0,1-2.544-1.278,5.321,5.321,0,0,1-.984-3.337Zm1.536.174A3.984,3.984,0,0,0,20.536,38a2.039,2.039,0,0,0,1.743.863,2.24,2.24,0,0,0,2.133-1.312V33.426a2.257,2.257,0,0,0-2.117-1.27,2.049,2.049,0,0,0-1.76.872A4.386,4.386,0,0,0,19.905,35.609Zm12.152,4.557a3.924,3.924,0,0,1-2.972-1.2,4.452,4.452,0,0,1-1.146-3.208v-.282a5.39,5.39,0,0,1,.51-2.386,3.982,3.982,0,0,1,1.428-1.644,3.59,3.59,0,0,1,1.988-.594,3.364,3.364,0,0,1,2.723,1.154,5,5,0,0,1,.971,3.3v.639H29.476a3.193,3.193,0,0,0,.776,2.146,2.44,2.44,0,0,0,1.888.818,2.675,2.675,0,0,0,1.378-.332,3.462,3.462,0,0,0,.988-.88l.938.73A3.772,3.772,0,0,1,32.058,40.166Zm-.191-8.052a2.048,2.048,0,0,0-1.561.677,3.288,3.288,0,0,0-.78,1.9h4.5v-.116a2.925,2.925,0,0,0-.631-1.814A1.928,1.928,0,0,0,31.867,32.114ZM43.214,40H41.678V27.25h1.536Zm2.05-4.574a5.3,5.3,0,0,1,.519-2.374,3.87,3.87,0,0,1,1.444-1.627,3.932,3.932,0,0,1,2.113-.573,3.788,3.788,0,0,1,2.968,1.27A4.886,4.886,0,0,1,53.44,35.5v.108a5.351,5.351,0,0,1-.5,2.353A3.813,3.813,0,0,1,51.5,39.585a3.977,3.977,0,0,1-2.146.581A3.778,3.778,0,0,1,46.4,38.9a4.861,4.861,0,0,1-1.133-3.362Zm1.544.183a3.842,3.842,0,0,0,.693,2.4A2.349,2.349,0,0,0,51.216,38a4.2,4.2,0,0,0,.689-2.569,3.836,3.836,0,0,0-.7-2.395,2.23,2.23,0,0,0-1.864-.917,2.205,2.205,0,0,0-1.834.9A4.17,4.17,0,0,0,46.808,35.609ZM60.6,37.618a1.13,1.13,0,0,0-.469-.967,4.514,4.514,0,0,0-1.635-.594,7.731,7.731,0,0,1-1.851-.6,2.633,2.633,0,0,1-1.013-.83,1.986,1.986,0,0,1-.328-1.146,2.33,2.33,0,0,1,.934-1.868,3.647,3.647,0,0,1,2.386-.764,3.753,3.753,0,0,1,2.478.789,2.5,2.5,0,0,1,.95,2.017H60.5a1.386,1.386,0,0,0-.535-1.087,2.006,2.006,0,0,0-1.349-.457,2.1,2.1,0,0,0-1.312.365,1.15,1.15,0,0,0-.473.955.932.932,0,0,0,.44.838,5.413,5.413,0,0,0,1.59.54,8.283,8.283,0,0,1,1.864.614,2.718,2.718,0,0,1,1.058.859,2.112,2.112,0,0,1,.344,1.224,2.3,2.3,0,0,1-.963,1.93,4.039,4.039,0,0,1-2.5.726,4.523,4.523,0,0,1-1.909-.382,3.105,3.105,0,0,1-1.3-1.067,2.571,2.571,0,0,1-.469-1.482h1.536a1.59,1.59,0,0,0,.618,1.224,2.4,2.4,0,0,0,1.523.452,2.476,2.476,0,0,0,1.4-.353A1.084,1.084,0,0,0,60.6,37.618Zm12.974,0a1.131,1.131,0,0,0-.469-.967,4.514,4.514,0,0,0-1.635-.594,7.731,7.731,0,0,1-1.851-.6,2.633,2.633,0,0,1-1.013-.83,1.986,1.986,0,0,1-.328-1.146,2.33,2.33,0,0,1,.934-1.868,3.647,3.647,0,0,1,2.386-.764,3.753,3.753,0,0,1,2.478.789,2.5,2.5,0,0,1,.95,2.017H73.479a1.386,1.386,0,0,0-.535-1.087,2.006,2.006,0,0,0-1.349-.457,2.1,2.1,0,0,0-1.312.365,1.15,1.15,0,0,0-.473.955.932.932,0,0,0,.44.838,5.413,5.413,0,0,0,1.59.54,8.283,8.283,0,0,1,1.864.614,2.718,2.718,0,0,1,1.058.859,2.112,2.112,0,0,1,.344,1.224,2.3,2.3,0,0,1-.963,1.93,4.039,4.039,0,0,1-2.5.726,4.523,4.523,0,0,1-1.909-.382,3.105,3.105,0,0,1-1.3-1.067,2.571,2.571,0,0,1-.469-1.482H69.5a1.59,1.59,0,0,0,.618,1.224,2.4,2.4,0,0,0,1.523.452,2.476,2.476,0,0,0,1.4-.353A1.084,1.084,0,0,0,73.57,37.618ZM76.7,35.426a5.3,5.3,0,0,1,.519-2.374,3.87,3.87,0,0,1,1.444-1.627,3.932,3.932,0,0,1,2.113-.573,3.788,3.788,0,0,1,2.968,1.27A4.886,4.886,0,0,1,84.875,35.5v.108a5.351,5.351,0,0,1-.5,2.353,3.813,3.813,0,0,1-1.436,1.623,3.977,3.977,0,0,1-2.146.581,3.778,3.778,0,0,1-2.959-1.27A4.861,4.861,0,0,1,76.7,35.534Zm1.544.183a3.842,3.842,0,0,0,.693,2.4A2.349,2.349,0,0,0,82.651,38a4.2,4.2,0,0,0,.689-2.569,3.836,3.836,0,0,0-.7-2.395,2.23,2.23,0,0,0-1.864-.917,2.205,2.205,0,0,0-1.834.9A4.17,4.17,0,0,0,78.243,35.609Zm12.161,3.3a2.212,2.212,0,0,0,1.436-.5,1.752,1.752,0,0,0,.681-1.245h1.453a2.785,2.785,0,0,1-.531,1.469,3.5,3.5,0,0,1-1.307,1.112,3.772,3.772,0,0,1-1.731.415,3.7,3.7,0,0,1-2.918-1.224A4.877,4.877,0,0,1,86.4,35.592v-.257A5.407,5.407,0,0,1,86.884,33a3.667,3.667,0,0,1,1.382-1.585,3.926,3.926,0,0,1,2.129-.564,3.6,3.6,0,0,1,2.511.9,3.234,3.234,0,0,1,1.067,2.349H92.521a2.116,2.116,0,0,0-.66-1.432,2.053,2.053,0,0,0-1.465-.56,2.149,2.149,0,0,0-1.814.843,3.957,3.957,0,0,0-.643,2.436v.291a3.878,3.878,0,0,0,.639,2.391A2.16,2.16,0,0,0,90.4,38.913ZM97.368,40H95.833V31.019h1.536Zm-1.66-11.364a.917.917,0,0,1,.228-.631.857.857,0,0,1,.677-.257.87.87,0,0,1,.681.257.907.907,0,0,1,.232.631.877.877,0,0,1-.232.623.886.886,0,0,1-.681.249.872.872,0,0,1-.677-.249A.886.886,0,0,1,95.708,28.636Zm3.71,6.79a5.3,5.3,0,0,1,.519-2.374,3.87,3.87,0,0,1,1.444-1.627,3.932,3.932,0,0,1,2.113-.573,3.788,3.788,0,0,1,2.968,1.27,4.886,4.886,0,0,1,1.133,3.378v.108a5.351,5.351,0,0,1-.5,2.353,3.813,3.813,0,0,1-1.436,1.623,3.977,3.977,0,0,1-2.146.581,3.778,3.778,0,0,1-2.959-1.27,4.861,4.861,0,0,1-1.133-3.362Zm1.544.183a3.842,3.842,0,0,0,.693,2.4A2.349,2.349,0,0,0,105.37,38a4.2,4.2,0,0,0,.689-2.569,3.836,3.836,0,0,0-.7-2.395,2.23,2.23,0,0,0-1.864-.917,2.205,2.205,0,0,0-1.834.9A4.17,4.17,0,0,0,100.962,35.609Zm13.788,2.009a1.131,1.131,0,0,0-.469-.967,4.514,4.514,0,0,0-1.635-.594,7.731,7.731,0,0,1-1.851-.6,2.633,2.633,0,0,1-1.013-.83,1.986,1.986,0,0,1-.328-1.146,2.33,2.33,0,0,1,.934-1.868,3.647,3.647,0,0,1,2.386-.764,3.753,3.753,0,0,1,2.478.789,2.5,2.5,0,0,1,.95,2.017h-1.544a1.386,1.386,0,0,0-.535-1.087,2.006,2.006,0,0,0-1.349-.457,2.1,2.1,0,0,0-1.312.365,1.15,1.15,0,0,0-.473.955.932.932,0,0,0,.44.838,5.413,5.413,0,0,0,1.59.54,8.283,8.283,0,0,1,1.864.614,2.718,2.718,0,0,1,1.058.859,2.112,2.112,0,0,1,.344,1.224,2.3,2.3,0,0,1-.963,1.93,4.039,4.039,0,0,1-2.5.726,4.523,4.523,0,0,1-1.909-.382,3.105,3.105,0,0,1-1.3-1.067,2.571,2.571,0,0,1-.469-1.482h1.536a1.59,1.59,0,0,0,.618,1.224,2.4,2.4,0,0,0,1.523.452,2.476,2.476,0,0,0,1.4-.353A1.084,1.084,0,0,0,114.75,37.618Z" transform="translate(834 3954)" fill="#12263f"/>
    <g id="Grupo_160597" data-name="Grupo 160597" transform="translate(371 2182.567)">
      <g id="Grupo_160582" data-name="Grupo 160582" transform="translate(932 1634)">
        <g id="Grupo_160578" data-name="Grupo 160578" transform="translate(23.916 75.333) rotate(90)">
          <g id="Grupo_160577" data-name="Grupo 160577" transform="translate(0 0)" clip-path="url(#clip-path)">
            <path id="Trazado_600822" data-name="Trazado 600822" d="M1.787,23.916A1.787,1.787,0,0,1,.523,20.866l8.908-8.908L.523,3.05A1.787,1.787,0,0,1,3.05.523L13.222,10.695a1.787,1.787,0,0,1,0,2.527L3.05,23.393a1.784,1.784,0,0,1-1.263.523" transform="translate(4.521 0)" fill="#3c5d56"/>
          </g>
        </g>
        <rect id="Rectángulo_46641" data-name="Rectángulo 46641" width="82.85" height="3.417" rx="1.708" transform="translate(13.667) rotate(90)" fill="#3c5d56"/>
      </g>
      <path id="Trazado_600829" data-name="Trazado 600829" d="M1.266,16.944a1.266,1.266,0,0,1-.9-2.161L6.682,8.472.371,2.161A1.266,1.266,0,0,1,2.161.371L9.367,7.577a1.266,1.266,0,0,1,0,1.79L2.161,16.574a1.264,1.264,0,0,1-.9.371" transform="translate(952.5 1709.334) rotate(90)" fill="#3c5d56"/>
    </g>
    <g id="Grupo_160600" data-name="Grupo 160600" transform="translate(1858.917 5544.167) rotate(180)">
      <g id="Grupo_160582-2" data-name="Grupo 160582" transform="translate(932 1634)">
        <g id="Grupo_160578-2" data-name="Grupo 160578" transform="translate(23.916 75.333) rotate(90)">
          <g id="Grupo_160577-2" data-name="Grupo 160577" transform="translate(0 0)" clip-path="url(#clip-path)">
            <path id="Trazado_600822-2" data-name="Trazado 600822" d="M1.787,23.916A1.787,1.787,0,0,1,.523,20.866l8.908-8.908L.523,3.05A1.787,1.787,0,0,1,3.05.523L13.222,10.695a1.787,1.787,0,0,1,0,2.527L3.05,23.393a1.784,1.784,0,0,1-1.263.523" transform="translate(4.521 0)" fill="#3c5d56"/>
          </g>
        </g>
        <rect id="Rectángulo_46641-2" data-name="Rectángulo 46641" width="82.85" height="3.417" rx="1.708" transform="translate(13.667) rotate(90)" fill="#3c5d56"/>
      </g>
      <path id="Trazado_600829-2" data-name="Trazado 600829" d="M1.266,16.944a1.266,1.266,0,0,1-.9-2.161L6.682,8.472.371,2.161A1.266,1.266,0,0,1,2.161.371L9.367,7.577a1.266,1.266,0,0,1,0,1.79L2.161,16.574a1.264,1.264,0,0,1-.9.371" transform="translate(952.5 1709.334) rotate(90)" fill="#3c5d56"/>
    </g>
    <g id="Grupo_160598" data-name="Grupo 160598" transform="translate(2810.286 3032) rotate(90)">
      <g id="Grupo_160582-3" data-name="Grupo 160582" transform="translate(932 1634)">
        <g id="Grupo_160578-3" data-name="Grupo 160578" transform="translate(23.916 104.02) rotate(90)">
          <g id="Grupo_160577-3" data-name="Grupo 160577" transform="translate(0 0)" clip-path="url(#clip-path)">
            <path id="Trazado_600822-3" data-name="Trazado 600822" d="M1.787,23.916A1.787,1.787,0,0,1,.523,20.866l8.908-8.908L.523,3.05A1.787,1.787,0,0,1,3.05.523L13.222,10.695a1.787,1.787,0,0,1,0,2.527L3.05,23.393a1.784,1.784,0,0,1-1.263.523" transform="translate(4.521 0)" fill="#3c5d56"/>
          </g>
        </g>
        <rect id="Rectángulo_46641-3" data-name="Rectángulo 46641" width="111.537" height="3.417" rx="1.708" transform="translate(13.667) rotate(90)" fill="#3c5d56"/>
      </g>
      <path id="Trazado_600829-3" data-name="Trazado 600829" d="M1.266,16.944a1.266,1.266,0,0,1-.9-2.161L6.682,8.472.371,2.161A1.266,1.266,0,0,1,2.161.371L9.367,7.577a1.266,1.266,0,0,1,0,1.79L2.161,16.574a1.264,1.264,0,0,1-.9.371" transform="translate(952.5 1738.02) rotate(90)" fill="#3c5d56"/>
    </g>
    <g id="Grupo_160599" data-name="Grupo 160599" transform="translate(-580 4707.917) rotate(-90)">
      <g id="Grupo_160582-4" data-name="Grupo 160582" transform="translate(932 1634)">
        <g id="Grupo_160578-4" data-name="Grupo 160578" transform="translate(23.916 104.02) rotate(90)">
          <g id="Grupo_160577-4" data-name="Grupo 160577" transform="translate(0 0)" clip-path="url(#clip-path)">
            <path id="Trazado_600822-4" data-name="Trazado 600822" d="M1.787,23.916A1.787,1.787,0,0,1,.523,20.866l8.908-8.908L.523,3.05A1.787,1.787,0,0,1,3.05.523L13.222,10.695a1.787,1.787,0,0,1,0,2.527L3.05,23.393a1.784,1.784,0,0,1-1.263.523" transform="translate(4.521 0)" fill="#3c5d56"/>
          </g>
        </g>
        <rect id="Rectángulo_46641-4" data-name="Rectángulo 46641" width="111.537" height="3.417" rx="1.708" transform="translate(13.667) rotate(90)" fill="#3c5d56"/>
      </g>
      <path id="Trazado_600829-4" data-name="Trazado 600829" d="M1.266,16.944a1.266,1.266,0,0,1-.9-2.161L6.682,8.472.371,2.161A1.266,1.266,0,0,1,2.161.371L9.367,7.577a1.266,1.266,0,0,1,0,1.79L2.161,16.574a1.264,1.264,0,0,1-.9.371" transform="translate(952.5 1738.02) rotate(90)" fill="#3c5d56"/>
    </g>
    <rect id="Rectángulo_47349" data-name="Rectángulo 47349" width="190" height="32" rx="16" transform="translate(1020 3878)" fill="#144567"/>
    <path id="Trazado_606827" data-name="Trazado 606827" d="M3.569,11.742V16H1.079V3.914H5.794a5.455,5.455,0,0,1,2.395.5,3.67,3.67,0,0,1,1.59,1.415,3.946,3.946,0,0,1,.556,2.088,3.47,3.47,0,0,1-1.216,2.8,5.065,5.065,0,0,1-3.366,1.025Zm0-2.017H5.794A2.187,2.187,0,0,0,7.3,9.26a1.691,1.691,0,0,0,.519-1.328A1.994,1.994,0,0,0,7.3,6.5a1.953,1.953,0,0,0-1.444-.564H3.569Zm12.343,6.441A4.409,4.409,0,0,1,12.7,14.954a4.308,4.308,0,0,1-1.241-3.229v-.232a5.426,5.426,0,0,1,.523-2.42A3.838,3.838,0,0,1,13.46,7.429a4.159,4.159,0,0,1,2.187-.577,3.727,3.727,0,0,1,2.9,1.162,4.722,4.722,0,0,1,1.058,3.3v.979H13.887a2.229,2.229,0,0,0,.7,1.411,2.12,2.12,0,0,0,1.482.531,2.589,2.589,0,0,0,2.167-1l1.179,1.32a3.6,3.6,0,0,1-1.461,1.191A4.793,4.793,0,0,1,15.913,16.166Zm-.274-7.379a1.5,1.5,0,0,0-1.158.484,2.5,2.5,0,0,0-.569,1.384h3.337v-.192a1.786,1.786,0,0,0-.432-1.238A1.547,1.547,0,0,0,15.639,8.787Zm10.376.481a6.517,6.517,0,0,0-.863-.066,1.757,1.757,0,0,0-1.785.921V16h-2.4V7.019h2.266L23.3,8.089a2.223,2.223,0,0,1,2-1.237,2.514,2.514,0,0,1,.747.108Zm6.018,4.25a.773.773,0,0,0-.436-.693,4.95,4.95,0,0,0-1.4-.452q-3.2-.672-3.2-2.723a2.468,2.468,0,0,1,.992-2,4,4,0,0,1,2.594-.8,4.307,4.307,0,0,1,2.735.805A2.538,2.538,0,0,1,34.34,9.75h-2.4a1.161,1.161,0,0,0-.332-.851,1.405,1.405,0,0,0-1.038-.336,1.436,1.436,0,0,0-.938.274.865.865,0,0,0-.332.7.739.739,0,0,0,.378.643,3.885,3.885,0,0,0,1.274.423,10.407,10.407,0,0,1,1.511.4,2.482,2.482,0,0,1,1.9,2.416,2.343,2.343,0,0,1-1.054,1.988,4.548,4.548,0,0,1-2.723.76,4.75,4.75,0,0,1-2-.4,3.363,3.363,0,0,1-1.374-1.1,2.565,2.565,0,0,1-.5-1.515h2.274a1.252,1.252,0,0,0,.473.979,1.877,1.877,0,0,0,1.179.34A1.737,1.737,0,0,0,31.68,14.2.814.814,0,0,0,32.033,13.518Zm3.5-2.092a5.327,5.327,0,0,1,.515-2.382,3.767,3.767,0,0,1,1.482-1.619,4.323,4.323,0,0,1,2.245-.573,4.09,4.09,0,0,1,2.968,1.112,4.464,4.464,0,0,1,1.282,3.021l.017.614a4.694,4.694,0,0,1-1.154,3.316,4.472,4.472,0,0,1-6.2,0,4.777,4.777,0,0,1-1.158-3.387Zm2.4.17a3.357,3.357,0,0,0,.481,1.958,1.73,1.73,0,0,0,2.739.008,3.674,3.674,0,0,0,.49-2.141,3.324,3.324,0,0,0-.49-1.945,1.592,1.592,0,0,0-1.378-.69,1.566,1.566,0,0,0-1.361.686A3.735,3.735,0,0,0,37.935,11.6Zm9.795-4.578L47.8,8.056a3.136,3.136,0,0,1,2.582-1.2,2.606,2.606,0,0,1,2.125.838,3.912,3.912,0,0,1,.714,2.507V16h-2.4V10.256a1.556,1.556,0,0,0-.332-1.108,1.486,1.486,0,0,0-1.1-.344,1.65,1.65,0,0,0-1.519.863V16h-2.4V7.019ZM60.247,16a2.664,2.664,0,0,1-.241-.805,2.9,2.9,0,0,1-2.266.971,3.189,3.189,0,0,1-2.187-.764,2.456,2.456,0,0,1-.867-1.926,2.538,2.538,0,0,1,1.058-2.191,5.222,5.222,0,0,1,3.059-.772h1.1V10a1.48,1.48,0,0,0-.32-1,1.257,1.257,0,0,0-1.009-.374,1.429,1.429,0,0,0-.95.291.987.987,0,0,0-.344.8h-2.4a2.41,2.41,0,0,1,.481-1.444A3.182,3.182,0,0,1,56.728,7.23,4.961,4.961,0,0,1,58.7,6.853a3.92,3.92,0,0,1,2.635.834,2.918,2.918,0,0,1,.975,2.345v3.893a4.294,4.294,0,0,0,.357,1.934V16Zm-1.984-1.668a2.066,2.066,0,0,0,.979-.237,1.554,1.554,0,0,0,.664-.635V11.916h-.9q-1.8,0-1.917,1.245l-.008.141a.96.96,0,0,0,.315.739A1.225,1.225,0,0,0,58.263,14.332ZM70.93,7.019V16.49a3.213,3.213,0,0,1-.789,2.312,3,3,0,0,1-2.274.826,4.878,4.878,0,0,1-1.187-.141v-1.9a4.5,4.5,0,0,0,.755.075q1.087,0,1.087-1.154V7.019Zm-2.6-2.324a1.181,1.181,0,0,1,.361-.888,1.562,1.562,0,0,1,1.967,0,1.181,1.181,0,0,1,.361.888,1.178,1.178,0,0,1-.369.9,1.539,1.539,0,0,1-1.951,0A1.178,1.178,0,0,1,68.332,4.694Zm9.853,10.393a3.008,3.008,0,0,1-2.457,1.079,2.837,2.837,0,0,1-2.2-.83,3.543,3.543,0,0,1-.776-2.432V7.019h2.4v5.809q0,1.4,1.278,1.4a1.732,1.732,0,0,0,1.677-.848V7.019h2.407V16H78.251Zm9.181-5.819A6.517,6.517,0,0,0,86.5,9.2a1.757,1.757,0,0,0-1.785.921V16h-2.4V7.019h2.266l.066,1.071a2.223,2.223,0,0,1,2-1.237,2.514,2.514,0,0,1,.747.108ZM91.109,16h-2.4V7.019h2.4ZM90.4,3.375h2.615l-2.3,2.573H88.769Zm2.4,8.068A5.413,5.413,0,0,1,93.745,8.1a3.057,3.057,0,0,1,2.577-1.245,2.751,2.751,0,0,1,2.167.979V3.25H100.9V16H98.729l-.116-.955a2.823,2.823,0,0,1-2.308,1.121,3.049,3.049,0,0,1-2.544-1.249A5.587,5.587,0,0,1,92.8,11.443Zm2.4.179a3.546,3.546,0,0,0,.44,1.937,1.433,1.433,0,0,0,1.278.673,1.605,1.605,0,0,0,1.569-.939V9.743A1.582,1.582,0,0,0,96.937,8.8Q95.2,8.8,95.2,11.621ZM105.287,16H102.88V7.019h2.407ZM102.739,4.694a1.181,1.181,0,0,1,.361-.888,1.556,1.556,0,0,1,1.963,0,1.175,1.175,0,0,1,.365.888,1.178,1.178,0,0,1-.369.9,1.539,1.539,0,0,1-1.951,0A1.178,1.178,0,0,1,102.739,4.694ZM111,14.232a1.573,1.573,0,0,0,1.079-.365,1.28,1.28,0,0,0,.432-.971h2.25a3.077,3.077,0,0,1-.5,1.673,3.286,3.286,0,0,1-1.341,1.179,4.2,4.2,0,0,1-1.88.419A3.9,3.9,0,0,1,108,14.942a4.845,4.845,0,0,1-1.112-3.383V11.4a4.79,4.79,0,0,1,1.1-3.312,3.854,3.854,0,0,1,3.03-1.237,3.778,3.778,0,0,1,2.7.959,3.4,3.4,0,0,1,1.033,2.552h-2.25a1.648,1.648,0,0,0-.432-1.139,1.6,1.6,0,0,0-2.362.173,3.541,3.541,0,0,0-.427,1.983v.249a3.586,3.586,0,0,0,.423,2A1.463,1.463,0,0,0,111,14.232ZM121.333,16a2.664,2.664,0,0,1-.241-.805,2.9,2.9,0,0,1-2.266.971,3.189,3.189,0,0,1-2.187-.764,2.456,2.456,0,0,1-.867-1.926,2.538,2.538,0,0,1,1.058-2.191,5.222,5.222,0,0,1,3.059-.772h1.1V10a1.48,1.48,0,0,0-.32-1,1.257,1.257,0,0,0-1.009-.374,1.429,1.429,0,0,0-.95.291.987.987,0,0,0-.344.8h-2.4a2.41,2.41,0,0,1,.481-1.444,3.182,3.182,0,0,1,1.361-1.042,4.961,4.961,0,0,1,1.976-.378,3.92,3.92,0,0,1,2.635.834,2.918,2.918,0,0,1,.975,2.345v3.893a4.294,4.294,0,0,0,.357,1.934V16Zm-1.984-1.668a2.066,2.066,0,0,0,.979-.237,1.554,1.554,0,0,0,.664-.635V11.916h-.9q-1.8,0-1.917,1.245l-.008.141a.96.96,0,0,0,.315.739A1.225,1.225,0,0,0,119.349,14.332Z" transform="translate(1051 3884)" fill="#fff"/>
    <g id="Grupo_161402" data-name="Grupo 161402" transform="translate(1071 3795.179)">
      <g id="Grupo_161401" data-name="Grupo 161401" clip-path="url(#clip-path-5)">
        <path id="Trazado_603589" data-name="Trazado 603589" d="M37.379,103.928l-3.854,3.828c1.022,1.017,2.069,2.059,3.115,3.1,1.165,1.163,1.164,1.542,0,2.716-.185.186-.36.382-.588.625l3.074,2.629Q49.041,125.3,58.95,133.77a6.369,6.369,0,1,1-8.938,8.98c-2.727-3.111-5.4-6.272-8.089-9.411Q36.4,126.9,30.877,120.466c-.154-.179-.323-.344-.714-.759a4.772,4.772,0,0,1-.541.874c-1,1.022-1.484,1.005-2.515-.031-1.048-1.053-2.095-2.109-3.067-3.088l-3.808,3.833a7.189,7.189,0,0,1,.694,1.382,2.271,2.271,0,0,1-.667,2.288c-1.021,1.042-2.039,2.088-3.1,3.089a2.421,2.421,0,0,1-3.654-.023Q7.161,121.744.864,115.411a2.43,2.43,0,0,1,0-3.716c.889-.92,1.805-1.815,2.713-2.717,1.373-1.364,2.582-1.41,4.012-.216L24.9,91.524c-1.277-1.891-1.2-2.673.481-4.349.8-.8,1.587-1.613,2.406-2.393a2.526,2.526,0,0,1,3.864.027q6.237,6.2,12.451,12.428a2.492,2.492,0,0,1-.013,3.913c-.833.851-1.682,1.686-2.526,2.526-1.5,1.492-2.541,1.549-4.183.252M26.748,93.53,9.656,110.593l8.642,8.623L35.409,102.16l-8.661-8.63M32.2,118.206c.105.137.257.353.428.553q5.84,6.815,11.684,13.627c2.558,2.982,5.1,5.982,7.684,8.939a3.878,3.878,0,0,0,5.031.76,3.763,3.763,0,0,0,1.573-4.733,7.416,7.416,0,0,0-1.9-2.3c-4.883-4.231-9.808-8.414-14.719-12.612q-3.8-3.247-7.609-6.5L32.2,118.206M2.614,113.553l12.846,12.66,2.952-3.08L5.65,110.562l-3.037,2.991M29.758,86.579l-3.144,3.054,12.806,12.619,3.024-3.188L29.758,86.579m4.629,25.715-2.529-2.675-6.034,6.029,2.588,2.6,5.975-5.951" transform="translate(0 -63.896)" fill="#144567"/>
        <path id="Trazado_603590" data-name="Trazado 603590" d="M156.22,19.97c-3.542,0-6.938.021-10.333-.006a7.1,7.1,0,0,1-7.049-5.583,9.947,9.947,0,0,1-.183-2.126c-.019-2.916-.008-5.831-.008-8.747V2.438h-1.058c-12.726,0-25.453.046-38.179-.032A5.028,5.028,0,0,0,94.044,7.8c.1,3.627.023,7.259.023,10.889,0,.238.007.477-.005.714-.046.865-.5,1.362-1.24,1.312a1.152,1.152,0,0,1-1.161-1.3c-.006-1.428,0-2.856,0-4.284,0-2.588-.018-5.177,0-7.765A7.116,7.116,0,0,1,99.074.015Q119.191,0,139.309,0a2.357,2.357,0,0,1,1.811.758q8.354,8.385,16.746,16.733a2.351,2.351,0,0,1,.765,1.8q-.024,29.946-.016,59.892c0,4.595-3.01,7.571-7.634,7.572q-20.565.008-41.129,0c-.3,0-.687.089-.873-.061-.381-.309-.892-.747-.9-1.141s.481-.866.866-1.153c.239-.178.689-.094,1.044-.094,13.62,0,27.241.011,40.861-.031a6.8,6.8,0,0,0,2.991-.657c1.788-.919,2.388-2.6,2.387-4.558q-.017-26.465-.007-52.93Zm-2.3-2.491L141.069,4.6c0,2.7-.052,5.582.017,8.459a4.455,4.455,0,0,0,3.955,4.381c3.048.154,6.109.039,8.883.039" transform="translate(-69.8 0)" fill="#144567"/>
        <path id="Trazado_603591" data-name="Trazado 603591" d="M33.1,285.324c.709,0,1.327-.008,1.945,0a1.187,1.187,0,0,1,1.3,1.278q.046,2.721,0,5.443c-.015.916-.51,1.317-1.535,1.319q-6.257.009-12.514,0-9.43,0-18.86,0c-1.473,0-1.794-.315-1.8-1.761,0-1.606-.011-3.213,0-4.819.009-1.052.415-1.444,1.46-1.464.506-.01,1.012-.009,1.519-.018a1.3,1.3,0,0,0,.268-.1c0-1.407,0-2.854,0-4.3a3.422,3.422,0,0,1,3.756-3.774q10.324-.009,20.648,0c2.44,0,3.792,1.371,3.806,3.834.007,1.42,0,2.84,0,4.358m-25.783-.061H30.655c0-1.6.01-3.142,0-4.684-.007-.7-.425-1-1.1-1q-10.543,0-21.085,0c-.729,0-1.139.32-1.146,1.051-.016,1.514,0,3.028,0,4.632m26.55,2.526H4.046v3.058H33.863Z" transform="translate(-1.241 -211.063)" fill="#144567"/>
        <path id="Trazado_603592" data-name="Trazado 603592" d="M132.527,34.857q-7.951,0-15.9,0c-1.387,0-1.735-.346-1.737-1.736q-.006-4.1,0-8.2c0-1.257.393-1.646,1.655-1.646q16.036,0,32.072,0c1.255,0,1.665.4,1.67,1.653q.015,4.147,0,8.294c0,1.247-.415,1.639-1.678,1.64q-8.04,0-16.081,0m15.261-9.083H117.347v6.574h30.441Z" transform="translate(-87.497 -17.72)" fill="#144567"/>
        <path id="Trazado_603593" data-name="Trazado 603593" d="M257.375,201.386a11.588,11.588,0,1,1-11.65,11.522,11.57,11.57,0,0,1,11.65-11.522m9.142,11.6a9.168,9.168,0,1,0-9.225,9.141,9.16,9.16,0,0,0,9.225-9.141" transform="translate(-187.146 -153.377)" fill="#144567"/>
        <path id="Trazado_603594" data-name="Trazado 603594" d="M214.465,127.373q7.777,0,15.553,0a3.911,3.911,0,0,1,.889.042c.619.147,1.086.585.943,1.2a2.75,2.75,0,0,1-.924,1.153c-.135.124-.458.055-.7.055q-15.732,0-31.464,0a3,3,0,0,1-.711-.039c-.621-.154-1.082-.6-.947-1.2a2.45,2.45,0,0,1,.931-1.141c.188-.151.575-.067.871-.067q7.777,0,15.553,0" transform="translate(-150.102 -96.993)" fill="#144567"/>
        <path id="Trazado_603595" data-name="Trazado 603595" d="M214.437,103.9q7.775,0,15.55,0c.3,0,.685-.1.873.05.383.3.9.73.91,1.12s-.473.857-.846,1.16c-.206.168-.631.086-.957.086q-15.55,0-31.1,0c-.179,0-.358.005-.536-.007-.834-.059-1.39-.563-1.311-1.258a1.2,1.2,0,0,1,1.33-1.153c.983,0,1.966,0,2.949,0h13.137" transform="translate(-150.047 -79.107)" fill="#144567"/>
        <path id="Trazado_603596" data-name="Trazado 603596" d="M205.612,174.479c2.353,0,4.707,0,7.06,0,1,0,1.539.437,1.541,1.208s-.541,1.236-1.534,1.238q-7.061.015-14.121,0c-.982,0-1.553-.48-1.556-1.228s.585-1.216,1.549-1.218c2.353-.006,4.707,0,7.06,0" transform="translate(-150.039 -132.884)" fill="#144567"/>
        <path id="Trazado_603597" data-name="Trazado 603597" d="M205.638,153.417q-3.529,0-7.057,0c-.995,0-1.564-.43-1.586-1.17-.022-.772.56-1.227,1.617-1.228q7.013-.007,14.025,0c1.026,0,1.555.408,1.572,1.17.017.791-.542,1.226-1.6,1.228q-3.484.006-6.968,0" transform="translate(-150.033 -115.014)" fill="#144567"/>
      </g>
    </g>
  </g>
</svg>
