<svg xmlns="http://www.w3.org/2000/svg" xmlns:xlink="http://www.w3.org/1999/xlink" width="610" height="303" viewBox="0 0 610 303">
  <defs>
    <clipPath id="clip-path">
      <rect id="Rectángulo_46628" data-name="Rectángulo 46628" width="18.266" height="23.916" fill="#3c5d56"/>
    </clipPath>
    <clipPath id="clip-path-5">
      <rect id="Rectángulo_47356" data-name="Rectángulo 47356" width="88.83" height="86.786" fill="#144567"/>
    </clipPath>
  </defs>
  <g id="Grupo_162114" data-name="Grupo 162114" transform="translate(-810 -3726)">
    <rect id="Rectángulo_46661" data-name="Rectángulo 46661" width="210" height="75" transform="translate(1210 3726)" fill="#e2e8ec"/>
    <rect id="Rectángulo_46664" data-name="Rectángulo 46664" width="210" height="75" transform="translate(810 3726)" fill="#e2e8ec"/>
    <rect id="Rectángulo_46662" data-name="Rectángulo 46662" width="210" height="106" transform="translate(1210 3923)" fill="#e2e8ec"/>
    <rect id="Rectángulo_46663" data-name="Rectángulo 46663" width="210" height="106" transform="translate(810 3923)" fill="#e2e8ec"/>
    <text id="Una_o_más_personas" data-name="Una o más personas" transform="translate(837 3753)" fill="#12263f" font-size="17" font-family="Roboto-Regular, Roboto"><tspan x="0" y="16">Una o más personas</tspan></text>
    <text id="Persona_ficticia" data-name="Persona ficticia" transform="translate(1254 3753)" fill="#12263f" font-size="17" font-family="Roboto-Regular, Roboto"><tspan x="0" y="16">Persona ficticia</tspan></text>
    <text id="Actúa_a_nombre_de_la_sociedad_por_medio_del_representante_legal" data-name="Actúa a nombre de la sociedad por medio del representante legal" transform="translate(1226 3941)" fill="#12263f" font-size="17" font-family="Roboto-Regular, Roboto"><tspan x="0" y="16">Actúa a nombre de la </tspan><tspan x="0" y="40">sociedad por medio del </tspan><tspan x="0" y="64">representante legal</tspan></text>
    <text id="Patrimonio_diferente_al_de_los_socios" data-name="Patrimonio diferente al de los socios" transform="translate(834 3954)" fill="#12263f" font-size="17" font-family="Roboto-Regular, Roboto"><tspan x="0" y="16">Patrimonio diferente </tspan><tspan x="0" y="40">al de los socios</tspan></text>
    <g id="Grupo_160597" data-name="Grupo 160597" transform="translate(371 2182.567)">
      <g id="Grupo_160582" data-name="Grupo 160582" transform="translate(932 1634)">
        <g id="Grupo_160578" data-name="Grupo 160578" transform="translate(23.916 75.333) rotate(90)">
          <g id="Grupo_160577" data-name="Grupo 160577" transform="translate(0 0)" clip-path="url(#clip-path)">
            <path id="Trazado_600822" data-name="Trazado 600822" d="M1.787,23.916A1.787,1.787,0,0,1,.523,20.866l8.908-8.908L.523,3.05A1.787,1.787,0,0,1,3.05.523L13.222,10.695a1.787,1.787,0,0,1,0,2.527L3.05,23.393a1.784,1.784,0,0,1-1.263.523" transform="translate(4.521 0)" fill="#3c5d56"/>
          </g>
        </g>
        <rect id="Rectángulo_46641" data-name="Rectángulo 46641" width="82.85" height="3.417" rx="1.708" transform="translate(13.667) rotate(90)" fill="#3c5d56"/>
      </g>
      <path id="Trazado_600829" data-name="Trazado 600829" d="M1.266,16.944a1.266,1.266,0,0,1-.9-2.161L6.682,8.472.371,2.161A1.266,1.266,0,0,1,2.161.371L9.367,7.577a1.266,1.266,0,0,1,0,1.79L2.161,16.574a1.264,1.264,0,0,1-.9.371" transform="translate(952.5 1709.334) rotate(90)" fill="#3c5d56"/>
    </g>
    <g id="Grupo_160600" data-name="Grupo 160600" transform="translate(1858.917 5544.167) rotate(180)">
      <g id="Grupo_160582-2" data-name="Grupo 160582" transform="translate(932 1634)">
        <g id="Grupo_160578-2" data-name="Grupo 160578" transform="translate(23.916 75.333) rotate(90)">
          <g id="Grupo_160577-2" data-name="Grupo 160577" transform="translate(0 0)" clip-path="url(#clip-path)">
            <path id="Trazado_600822-2" data-name="Trazado 600822" d="M1.787,23.916A1.787,1.787,0,0,1,.523,20.866l8.908-8.908L.523,3.05A1.787,1.787,0,0,1,3.05.523L13.222,10.695a1.787,1.787,0,0,1,0,2.527L3.05,23.393a1.784,1.784,0,0,1-1.263.523" transform="translate(4.521 0)" fill="#3c5d56"/>
          </g>
        </g>
        <rect id="Rectángulo_46641-2" data-name="Rectángulo 46641" width="82.85" height="3.417" rx="1.708" transform="translate(13.667) rotate(90)" fill="#3c5d56"/>
      </g>
      <path id="Trazado_600829-2" data-name="Trazado 600829" d="M1.266,16.944a1.266,1.266,0,0,1-.9-2.161L6.682,8.472.371,2.161A1.266,1.266,0,0,1,2.161.371L9.367,7.577a1.266,1.266,0,0,1,0,1.79L2.161,16.574a1.264,1.264,0,0,1-.9.371" transform="translate(952.5 1709.334) rotate(90)" fill="#3c5d56"/>
    </g>
    <g id="Grupo_160598" data-name="Grupo 160598" transform="translate(2810.286 3032) rotate(90)">
      <g id="Grupo_160582-3" data-name="Grupo 160582" transform="translate(932 1634)">
        <g id="Grupo_160578-3" data-name="Grupo 160578" transform="translate(23.916 104.02) rotate(90)">
          <g id="Grupo_160577-3" data-name="Grupo 160577" transform="translate(0 0)" clip-path="url(#clip-path)">
            <path id="Trazado_600822-3" data-name="Trazado 600822" d="M1.787,23.916A1.787,1.787,0,0,1,.523,20.866l8.908-8.908L.523,3.05A1.787,1.787,0,0,1,3.05.523L13.222,10.695a1.787,1.787,0,0,1,0,2.527L3.05,23.393a1.784,1.784,0,0,1-1.263.523" transform="translate(4.521 0)" fill="#3c5d56"/>
          </g>
        </g>
        <rect id="Rectángulo_46641-3" data-name="Rectángulo 46641" width="111.537" height="3.417" rx="1.708" transform="translate(13.667) rotate(90)" fill="#3c5d56"/>
      </g>
      <path id="Trazado_600829-3" data-name="Trazado 600829" d="M1.266,16.944a1.266,1.266,0,0,1-.9-2.161L6.682,8.472.371,2.161A1.266,1.266,0,0,1,2.161.371L9.367,7.577a1.266,1.266,0,0,1,0,1.79L2.161,16.574a1.264,1.264,0,0,1-.9.371" transform="translate(952.5 1738.02) rotate(90)" fill="#3c5d56"/>
    </g>
    <g id="Grupo_160599" data-name="Grupo 160599" transform="translate(-580 4707.917) rotate(-90)">
      <g id="Grupo_160582-4" data-name="Grupo 160582" transform="translate(932 1634)">
        <g id="Grupo_160578-4" data-name="Grupo 160578" transform="translate(23.916 104.02) rotate(90)">
          <g id="Grupo_160577-4" data-name="Grupo 160577" transform="translate(0 0)" clip-path="url(#clip-path)">
            <path id="Trazado_600822-4" data-name="Trazado 600822" d="M1.787,23.916A1.787,1.787,0,0,1,.523,20.866l8.908-8.908L.523,3.05A1.787,1.787,0,0,1,3.05.523L13.222,10.695a1.787,1.787,0,0,1,0,2.527L3.05,23.393a1.784,1.784,0,0,1-1.263.523" transform="translate(4.521 0)" fill="#3c5d56"/>
          </g>
        </g>
        <rect id="Rectángulo_46641-4" data-name="Rectángulo 46641" width="111.537" height="3.417" rx="1.708" transform="translate(13.667) rotate(90)" fill="#3c5d56"/>
      </g>
      <path id="Trazado_600829-4" data-name="Trazado 600829" d="M1.266,16.944a1.266,1.266,0,0,1-.9-2.161L6.682,8.472.371,2.161A1.266,1.266,0,0,1,2.161.371L9.367,7.577a1.266,1.266,0,0,1,0,1.79L2.161,16.574a1.264,1.264,0,0,1-.9.371" transform="translate(952.5 1738.02) rotate(90)" fill="#3c5d56"/>
    </g>
    <rect id="Rectángulo_47349" data-name="Rectángulo 47349" width="190" height="32" rx="16" transform="translate(1020 3878)" fill="#144567"/>
    <text id="Persona_jurídica" data-name="Persona jurídica" transform="translate(1051 3884)" fill="#fff" font-size="17" font-family="Roboto-Bold, Roboto" font-weight="700"><tspan x="0" y="16">Persona jurídica</tspan></text>
    <g id="Grupo_161402" data-name="Grupo 161402" transform="translate(1071 3795.179)">
      <g id="Grupo_161401" data-name="Grupo 161401" clip-path="url(#clip-path-5)">
        <path id="Trazado_603589" data-name="Trazado 603589" d="M37.379,103.928l-3.854,3.828c1.022,1.017,2.069,2.059,3.115,3.1,1.165,1.163,1.164,1.542,0,2.716-.185.186-.36.382-.588.625l3.074,2.629Q49.041,125.3,58.95,133.77a6.369,6.369,0,1,1-8.938,8.98c-2.727-3.111-5.4-6.272-8.089-9.411Q36.4,126.9,30.877,120.466c-.154-.179-.323-.344-.714-.759a4.772,4.772,0,0,1-.541.874c-1,1.022-1.484,1.005-2.515-.031-1.048-1.053-2.095-2.109-3.067-3.088l-3.808,3.833a7.189,7.189,0,0,1,.694,1.382,2.271,2.271,0,0,1-.667,2.288c-1.021,1.042-2.039,2.088-3.1,3.089a2.421,2.421,0,0,1-3.654-.023Q7.161,121.744.864,115.411a2.43,2.43,0,0,1,0-3.716c.889-.92,1.805-1.815,2.713-2.717,1.373-1.364,2.582-1.41,4.012-.216L24.9,91.524c-1.277-1.891-1.2-2.673.481-4.349.8-.8,1.587-1.613,2.406-2.393a2.526,2.526,0,0,1,3.864.027q6.237,6.2,12.451,12.428a2.492,2.492,0,0,1-.013,3.913c-.833.851-1.682,1.686-2.526,2.526-1.5,1.492-2.541,1.549-4.183.252M26.748,93.53,9.656,110.593l8.642,8.623L35.409,102.16l-8.661-8.63M32.2,118.206c.105.137.257.353.428.553q5.84,6.815,11.684,13.627c2.558,2.982,5.1,5.982,7.684,8.939a3.878,3.878,0,0,0,5.031.76,3.763,3.763,0,0,0,1.573-4.733,7.416,7.416,0,0,0-1.9-2.3c-4.883-4.231-9.808-8.414-14.719-12.612q-3.8-3.247-7.609-6.5L32.2,118.206M2.614,113.553l12.846,12.66,2.952-3.08L5.65,110.562l-3.037,2.991M29.758,86.579l-3.144,3.054,12.806,12.619,3.024-3.188L29.758,86.579m4.629,25.715-2.529-2.675-6.034,6.029,2.588,2.6,5.975-5.951" transform="translate(0 -63.896)" fill="#144567"/>
        <path id="Trazado_603590" data-name="Trazado 603590" d="M156.22,19.97c-3.542,0-6.938.021-10.333-.006a7.1,7.1,0,0,1-7.049-5.583,9.947,9.947,0,0,1-.183-2.126c-.019-2.916-.008-5.831-.008-8.747V2.438h-1.058c-12.726,0-25.453.046-38.179-.032A5.028,5.028,0,0,0,94.044,7.8c.1,3.627.023,7.259.023,10.889,0,.238.007.477-.005.714-.046.865-.5,1.362-1.24,1.312a1.152,1.152,0,0,1-1.161-1.3c-.006-1.428,0-2.856,0-4.284,0-2.588-.018-5.177,0-7.765A7.116,7.116,0,0,1,99.074.015Q119.191,0,139.309,0a2.357,2.357,0,0,1,1.811.758q8.354,8.385,16.746,16.733a2.351,2.351,0,0,1,.765,1.8q-.024,29.946-.016,59.892c0,4.595-3.01,7.571-7.634,7.572q-20.565.008-41.129,0c-.3,0-.687.089-.873-.061-.381-.309-.892-.747-.9-1.141s.481-.866.866-1.153c.239-.178.689-.094,1.044-.094,13.62,0,27.241.011,40.861-.031a6.8,6.8,0,0,0,2.991-.657c1.788-.919,2.388-2.6,2.387-4.558q-.017-26.465-.007-52.93Zm-2.3-2.491L141.069,4.6c0,2.7-.052,5.582.017,8.459a4.455,4.455,0,0,0,3.955,4.381c3.048.154,6.109.039,8.883.039" transform="translate(-69.8 0)" fill="#144567"/>
        <path id="Trazado_603591" data-name="Trazado 603591" d="M33.1,285.324c.709,0,1.327-.008,1.945,0a1.187,1.187,0,0,1,1.3,1.278q.046,2.721,0,5.443c-.015.916-.51,1.317-1.535,1.319q-6.257.009-12.514,0-9.43,0-18.86,0c-1.473,0-1.794-.315-1.8-1.761,0-1.606-.011-3.213,0-4.819.009-1.052.415-1.444,1.46-1.464.506-.01,1.012-.009,1.519-.018a1.3,1.3,0,0,0,.268-.1c0-1.407,0-2.854,0-4.3a3.422,3.422,0,0,1,3.756-3.774q10.324-.009,20.648,0c2.44,0,3.792,1.371,3.806,3.834.007,1.42,0,2.84,0,4.358m-25.783-.061H30.655c0-1.6.01-3.142,0-4.684-.007-.7-.425-1-1.1-1q-10.543,0-21.085,0c-.729,0-1.139.32-1.146,1.051-.016,1.514,0,3.028,0,4.632m26.55,2.526H4.046v3.058H33.863Z" transform="translate(-1.241 -211.063)" fill="#144567"/>
        <path id="Trazado_603592" data-name="Trazado 603592" d="M132.527,34.857q-7.951,0-15.9,0c-1.387,0-1.735-.346-1.737-1.736q-.006-4.1,0-8.2c0-1.257.393-1.646,1.655-1.646q16.036,0,32.072,0c1.255,0,1.665.4,1.67,1.653q.015,4.147,0,8.294c0,1.247-.415,1.639-1.678,1.64q-8.04,0-16.081,0m15.261-9.083H117.347v6.574h30.441Z" transform="translate(-87.497 -17.72)" fill="#144567"/>
        <path id="Trazado_603593" data-name="Trazado 603593" d="M257.375,201.386a11.588,11.588,0,1,1-11.65,11.522,11.57,11.57,0,0,1,11.65-11.522m9.142,11.6a9.168,9.168,0,1,0-9.225,9.141,9.16,9.16,0,0,0,9.225-9.141" transform="translate(-187.146 -153.377)" fill="#144567"/>
        <path id="Trazado_603594" data-name="Trazado 603594" d="M214.465,127.373q7.777,0,15.553,0a3.911,3.911,0,0,1,.889.042c.619.147,1.086.585.943,1.2a2.75,2.75,0,0,1-.924,1.153c-.135.124-.458.055-.7.055q-15.732,0-31.464,0a3,3,0,0,1-.711-.039c-.621-.154-1.082-.6-.947-1.2a2.45,2.45,0,0,1,.931-1.141c.188-.151.575-.067.871-.067q7.777,0,15.553,0" transform="translate(-150.102 -96.993)" fill="#144567"/>
        <path id="Trazado_603595" data-name="Trazado 603595" d="M214.437,103.9q7.775,0,15.55,0c.3,0,.685-.1.873.05.383.3.9.73.91,1.12s-.473.857-.846,1.16c-.206.168-.631.086-.957.086q-15.55,0-31.1,0c-.179,0-.358.005-.536-.007-.834-.059-1.39-.563-1.311-1.258a1.2,1.2,0,0,1,1.33-1.153c.983,0,1.966,0,2.949,0h13.137" transform="translate(-150.047 -79.107)" fill="#144567"/>
        <path id="Trazado_603596" data-name="Trazado 603596" d="M205.612,174.479c2.353,0,4.707,0,7.06,0,1,0,1.539.437,1.541,1.208s-.541,1.236-1.534,1.238q-7.061.015-14.121,0c-.982,0-1.553-.48-1.556-1.228s.585-1.216,1.549-1.218c2.353-.006,4.707,0,7.06,0" transform="translate(-150.039 -132.884)" fill="#144567"/>
        <path id="Trazado_603597" data-name="Trazado 603597" d="M205.638,153.417q-3.529,0-7.057,0c-.995,0-1.564-.43-1.586-1.17-.022-.772.56-1.227,1.617-1.228q7.013-.007,14.025,0c1.026,0,1.555.408,1.572,1.17.017.791-.542,1.226-1.6,1.228q-3.484.006-6.968,0" transform="translate(-150.033 -115.014)" fill="#144567"/>
      </g>
    </g>
  </g>
</svg>
