<svg xmlns="http://www.w3.org/2000/svg" xmlns:xlink="http://www.w3.org/1999/xlink" width="610" height="303" viewBox="0 0 610 303">
  <defs>
    <clipPath id="clip-path">
      <rect id="Rectángulo_46628" data-name="Rectángulo 46628" width="18.266" height="23.916" fill="#144567"/>
    </clipPath>
    <clipPath id="clip-path-5">
      <rect id="Rectángulo_47355" data-name="Rectángulo 47355" width="89" height="88.821" fill="#144567"/>
    </clipPath>
  </defs>
  <g id="Grupo_162115" data-name="Grupo 162115" transform="translate(-180 -3726)">
    <rect id="Rectángulo_47353" data-name="Rectángulo 47353" width="210" height="75" transform="translate(580 3726)" fill="#f6efe9"/>
    <rect id="Rectángulo_47354" data-name="Rectángulo 47354" width="210" height="75" transform="translate(180 3726)" fill="#f6efe9"/>
    <rect id="Rectángulo_47350" data-name="Rectángulo 47350" width="210" height="106" transform="translate(580 3923)" fill="#f6efe9"/>
    <rect id="Rectángulo_47352" data-name="Rectángulo 47352" width="210" height="106" transform="translate(180 3923)" fill="#f6efe9"/>
    <text id="Patrimonio_de_la_persona" data-name="Patrimonio de la persona" transform="translate(190 3753)" fill="#12263f" font-size="17" font-family="Roboto-Regular, Roboto"><tspan x="0" y="16">Patrimonio de la persona</tspan></text>
    <text id="Una_persona" data-name="Una persona" transform="translate(636 3753)" fill="#12263f" font-size="17" font-family="Roboto-Regular, Roboto"><tspan x="0" y="16">Una persona</tspan></text>
    <text id="Persona_humana" data-name="Persona humana" transform="translate(618 3966)" fill="#12263f" font-size="17" font-family="Roboto-Regular, Roboto"><tspan x="0" y="16">Persona humana</tspan></text>
    <text id="Actúa_a_nombre_propio" data-name="Actúa a nombre propio" transform="translate(197 3966)" fill="#12263f" font-size="17" font-family="Roboto-Regular, Roboto"><tspan x="0" y="16">Actúa a nombre propio</tspan></text>
    <g id="Grupo_161394" data-name="Grupo 161394" transform="translate(-259 2182.567)">
      <g id="Grupo_160582" data-name="Grupo 160582" transform="translate(932 1634)">
        <g id="Grupo_160578" data-name="Grupo 160578" transform="translate(23.916 75.333) rotate(90)">
          <g id="Grupo_160577" data-name="Grupo 160577" transform="translate(0 0)" clip-path="url(#clip-path)">
            <path id="Trazado_600822" data-name="Trazado 600822" d="M1.787,23.916A1.787,1.787,0,0,1,.523,20.866l8.908-8.908L.523,3.05A1.787,1.787,0,0,1,3.05.523L13.222,10.695a1.787,1.787,0,0,1,0,2.527L3.05,23.393a1.784,1.784,0,0,1-1.263.523" transform="translate(4.521 0)" fill="#144567"/>
          </g>
        </g>
        <rect id="Rectángulo_46641" data-name="Rectángulo 46641" width="82.85" height="3.417" rx="1.708" transform="translate(13.667) rotate(90)" fill="#144567"/>
      </g>
      <path id="Trazado_600829" data-name="Trazado 600829" d="M1.266,16.944a1.266,1.266,0,0,1-.9-2.161L6.682,8.472.371,2.161A1.266,1.266,0,0,1,2.161.371L9.367,7.577a1.266,1.266,0,0,1,0,1.79L2.161,16.574a1.264,1.264,0,0,1-.9.371" transform="translate(952.5 1709.334) rotate(90)" fill="#144567"/>
    </g>
    <g id="Grupo_161396" data-name="Grupo 161396" transform="translate(1228.917 5544.167) rotate(180)">
      <g id="Grupo_160582-2" data-name="Grupo 160582" transform="translate(932 1634)">
        <g id="Grupo_160578-2" data-name="Grupo 160578" transform="translate(23.916 75.333) rotate(90)">
          <g id="Grupo_160577-2" data-name="Grupo 160577" transform="translate(0 0)" clip-path="url(#clip-path)">
            <path id="Trazado_600822-2" data-name="Trazado 600822" d="M1.787,23.916A1.787,1.787,0,0,1,.523,20.866l8.908-8.908L.523,3.05A1.787,1.787,0,0,1,3.05.523L13.222,10.695a1.787,1.787,0,0,1,0,2.527L3.05,23.393a1.784,1.784,0,0,1-1.263.523" transform="translate(4.521 0)" fill="#144567"/>
          </g>
        </g>
        <rect id="Rectángulo_46641-2" data-name="Rectángulo 46641" width="82.85" height="3.417" rx="1.708" transform="translate(13.667) rotate(90)" fill="#144567"/>
      </g>
      <path id="Trazado_600829-2" data-name="Trazado 600829" d="M1.266,16.944a1.266,1.266,0,0,1-.9-2.161L6.682,8.472.371,2.161A1.266,1.266,0,0,1,2.161.371L9.367,7.577a1.266,1.266,0,0,1,0,1.79L2.161,16.574a1.264,1.264,0,0,1-.9.371" transform="translate(952.5 1709.334) rotate(90)" fill="#144567"/>
    </g>
    <g id="Grupo_161395" data-name="Grupo 161395" transform="translate(2180.286 3014) rotate(90)">
      <g id="Grupo_160582-3" data-name="Grupo 160582" transform="translate(932 1634)">
        <g id="Grupo_160578-3" data-name="Grupo 160578" transform="translate(23.916 104.02) rotate(90)">
          <g id="Grupo_160577-3" data-name="Grupo 160577" transform="translate(0 0)" clip-path="url(#clip-path)">
            <path id="Trazado_600822-3" data-name="Trazado 600822" d="M1.787,23.916A1.787,1.787,0,0,1,.523,20.866l8.908-8.908L.523,3.05A1.787,1.787,0,0,1,3.05.523L13.222,10.695a1.787,1.787,0,0,1,0,2.527L3.05,23.393a1.784,1.784,0,0,1-1.263.523" transform="translate(4.521 0)" fill="#144567"/>
          </g>
        </g>
        <rect id="Rectángulo_46641-3" data-name="Rectángulo 46641" width="111.537" height="3.417" rx="1.708" transform="translate(13.667) rotate(90)" fill="#144567"/>
      </g>
      <path id="Trazado_600829-3" data-name="Trazado 600829" d="M1.266,16.944a1.266,1.266,0,0,1-.9-2.161L6.682,8.472.371,2.161A1.266,1.266,0,0,1,2.161.371L9.367,7.577a1.266,1.266,0,0,1,0,1.79L2.161,16.574a1.264,1.264,0,0,1-.9.371" transform="translate(952.5 1738.02) rotate(90)" fill="#144567"/>
    </g>
    <g id="Grupo_161397" data-name="Grupo 161397" transform="translate(-1210 4707.917) rotate(-90)">
      <g id="Grupo_160582-4" data-name="Grupo 160582" transform="translate(932 1634)">
        <g id="Grupo_160578-4" data-name="Grupo 160578" transform="translate(23.916 104.02) rotate(90)">
          <g id="Grupo_160577-4" data-name="Grupo 160577" transform="translate(0 0)" clip-path="url(#clip-path)">
            <path id="Trazado_600822-4" data-name="Trazado 600822" d="M1.787,23.916A1.787,1.787,0,0,1,.523,20.866l8.908-8.908L.523,3.05A1.787,1.787,0,0,1,3.05.523L13.222,10.695a1.787,1.787,0,0,1,0,2.527L3.05,23.393a1.784,1.784,0,0,1-1.263.523" transform="translate(4.521 0)" fill="#144567"/>
          </g>
        </g>
        <rect id="Rectángulo_46641-4" data-name="Rectángulo 46641" width="111.537" height="3.417" rx="1.708" transform="translate(13.667) rotate(90)" fill="#144567"/>
      </g>
      <path id="Trazado_600829-4" data-name="Trazado 600829" d="M1.266,16.944a1.266,1.266,0,0,1-.9-2.161L6.682,8.472.371,2.161A1.266,1.266,0,0,1,2.161.371L9.367,7.577a1.266,1.266,0,0,1,0,1.79L2.161,16.574a1.264,1.264,0,0,1-.9.371" transform="translate(952.5 1738.02) rotate(90)" fill="#144567"/>
    </g>
    <rect id="Rectángulo_47351" data-name="Rectángulo 47351" width="190" height="32" rx="16" transform="translate(390 3878)" fill="#144567"/>
    <text id="Persona_natural" data-name="Persona natural" transform="translate(421 3884)" fill="#fff" font-size="17" font-family="Roboto-Bold, Roboto" font-weight="700"><tspan x="0" y="16">Persona natural</tspan></text>
    <g id="Grupo_161400" data-name="Grupo 161400" transform="translate(441 3795.179)">
      <g id="Grupo_161399" data-name="Grupo 161399" clip-path="url(#clip-path-5)">
        <path id="Trazado_603585" data-name="Trazado 603585" d="M277.582,152.746c-.435.608-.908,1.152-1.773.9-.849-.25-1.027-.894-1.025-1.69q.023-7.675.016-15.351a10.677,10.677,0,0,0-.017-1.127,3.132,3.132,0,0,0-2.056-2.869c-2.1-.725-4.242-1.3-6.36-1.942-1.524,4.141-7.974,4.18-9.61-.037-2.17.65-4.383,1.21-6.517,1.99a3.184,3.184,0,0,0-1.961,3.287c-.012,1.937-.017,3.874-.027,5.811a6.186,6.186,0,0,1-.028.779,1.274,1.274,0,0,1-1.275,1.192,1.248,1.248,0,0,1-1.391-1.049,7.179,7.179,0,0,1-.079-1.465c0-1.792-.013-3.585.027-5.377a6.174,6.174,0,0,1,4.761-6.159A33.2,33.2,0,0,0,254.2,128.3c-.934,0-1.867.012-2.8,0-1.009-.016-1.552-.474-1.553-1.464,0-4.249-.13-8.506.1-12.743.318-5.782,5.3-10.31,11.275-10.556a11.7,11.7,0,0,1,11.825,9.566,20.249,20.249,0,0,1,.2,3.107c.023,3.44.012,6.88.007,10.32,0,1.332-.44,1.767-1.761,1.774a24.653,24.653,0,0,0-2.727.107,6.127,6.127,0,0,0,.578.236c1.191.355,2.389.688,3.577,1.052a6.191,6.191,0,0,1,4.505,4.7,1.438,1.438,0,0,0,.152.3Zm-7.114-27.254c0-3.565.053-7.031-.013-10.5a8.89,8.89,0,0,0-17.742-.475c-.2,3.572-.064,7.161-.073,10.743,0,.073.071.146.091.184h3.324a7.424,7.424,0,0,1-1.942-4.474c-.055-1.1-.027-2.2-.032-3.293a5.452,5.452,0,0,1,1.587-3.9,13.508,13.508,0,0,0,1.775-2.324c.335-.563.622-1.035,1.334-1.04a1.365,1.365,0,0,1,1.352,1.025,4.984,4.984,0,0,0,2.832,3.005c1.538.645,3.131,1.169,4.724,1.667.985.308,1.354.661,1.367,1.7q.016,1.257,0,2.514a7.576,7.576,0,0,1-1.617,4.66c-.113.146-.205.309-.338.512Zm-11.686-10.834a4.158,4.158,0,0,0-1.933,4.178c.076.567,0,1.153.024,1.729a4.69,4.69,0,0,0,9.17,1.155,16.825,16.825,0,0,0,.239-2.4c.066-.545-.191-.741-.678-.883-2.57-.75-5.048-1.683-6.821-3.782m4.935,13.039h-4.338c.014,1.048-.351,2.271.866,2.989a2.5,2.5,0,0,0,2.73-.044c1.136-.753.681-1.945.742-2.945" transform="translate(-188.582 -79.534)" fill="#144567"/>
        <path id="Trazado_603586" data-name="Trazado 603586" d="M0,130.308a4.466,4.466,0,0,0,.183-.464,6.172,6.172,0,0,1,4.435-4.563c1.774-.526,3.551-1.042,5.339-1.518.517-.138.749-.365.663-.892a.646.646,0,0,1,0-.173,3.98,3.98,0,0,0-1.093-3.433,6.672,6.672,0,0,1-1.571-5.336,2.457,2.457,0,0,0-.822-2.123A7.914,7.914,0,0,1,4.615,105.4c.349-4.45,3.369-7.194,8.131-7.533a17.789,17.789,0,0,1,7.929,1.1c1.2.476,2.228.568,3.217-.507.626-.68,1.51-.462,2.149.391a9.56,9.56,0,0,1,1.523,8.786,9.38,9.38,0,0,1-2.748,4.338,1.79,1.79,0,0,0-.633,1.594,8.119,8.119,0,0,1-2.372,6.716,2.068,2.068,0,0,0-.266,1.283c-.031,2-.017,2,1.871,2.564,1.386.41,2.78.792,4.158,1.226a6.155,6.155,0,0,1,4.52,5.912c.056,2.137.011,4.278-.016,6.417-.013,1.011-.595,1.646-1.414,1.629s-1.35-.644-1.353-1.679c-.006-1.937.018-3.873.018-5.81a3.566,3.566,0,0,0-2.934-3.929c-1.744-.515-3.493-1.013-5.228-1.515-3.222,4.093-7.145,4.089-10.061-.1-2.128.648-4.342,1.2-6.459,2.009a3.162,3.162,0,0,0-1.854,3.263q0,7.544-.009,15.089c0,.231-.011.463,0,.694.045.805-.092,1.533-.964,1.83-.829.282-1.359-.208-1.818-.808V130.308M9.3,110.1c.36-.59.685-1.066.954-1.573.858-1.617,1.2-1.7,2.848-.925,2.417,1.142,4.815,1.588,7.174-.241a1.77,1.77,0,0,1,2.594.48,13.142,13.142,0,0,1,.741,1.233,6.623,6.623,0,0,0,.777-7.5,4.3,4.3,0,0,1-3.756.289c-.437-.15-.886-.266-1.317-.43a13.957,13.957,0,0,0-6.572-.76c-2.212.241-4.246.906-5.053,3.287A5.692,5.692,0,0,0,9.3,110.1m3.168.327c-1.775,2.141-1.775,2.141-1.748,4.281a6.329,6.329,0,0,0,4.92,5.553,2.916,2.916,0,0,0,.777,0c1.978-.253,4.629-2.587,4.879-4.558a27.627,27.627,0,0,0-.041-4.4,5.368,5.368,0,0,0-.284-1.1c-2.865,1.784-5.69,1.211-8.5.215m.992,12.045c-.217,1.624-.1,3.012,1.4,3.811a2.6,2.6,0,0,0,2.88-.115c1.283-.93,1.007-2.3.958-3.716a6.03,6.03,0,0,1-5.24.021" transform="translate(0 -75.138)" fill="#144567"/>
        <path id="Trazado_603587" data-name="Trazado 603587" d="M139.918,0c.617.143,1.24.264,1.85.431a12.245,12.245,0,0,1,9.079,11.758c.037,4.943.018,9.887,0,14.831a1.276,1.276,0,0,0,.744,1.357,5.647,5.647,0,0,1,2.759,3.424,1.377,1.377,0,0,1-.8,1.845,1.356,1.356,0,0,1-1.8-.915,3.741,3.741,0,0,0-2.79-2.467c-1.65-.431-3.293-.9-4.927-1.381-.47-.14-.723-.073-.953.388-1.67,3.346-7.587,3.31-9.171-.079a.892.892,0,0,0-.783-.334c-1.821.462-3.636.955-5.435,1.5a3.363,3.363,0,0,0-2.492,3.108c-.031.287-.02.578-.044.866a1.38,1.38,0,1,1-2.76-.011,6.254,6.254,0,0,1,3.163-6.038,1.2,1.2,0,0,0,.7-1.215c-.022-4.654-.013-9.309-.013-13.963,0-7,3.8-11.622,10.66-12.984A.936.936,0,0,0,137.136,0Zm8.123,27.121c0-5.281.175-10.432-.05-15.566a9.306,9.306,0,0,0-9.367-8.778,9.5,9.5,0,0,0-9.59,9.758c-.037,4.6-.009,9.193-.006,13.79,0,.22.035.44.06.742,1.342-.366,2.619-.711,3.893-1.069a.6.6,0,0,0,.331-.239,4.08,4.08,0,0,0-.385-2.7,7.828,7.828,0,0,1-2.215-5.487c-.009-.751,0-1.5,0-2.255,0-1.551.247-1.755,1.748-2.172,3.182-.882,6.45-1.636,7.87-5.242a1.334,1.334,0,0,1,2.347.016,24.172,24.172,0,0,0,2.133,2.908,5.707,5.707,0,0,1,1.555,3.752c.024,1.069.015,2.139,0,3.209a7.638,7.638,0,0,1-2.161,5.241,4.223,4.223,0,0,0-.429,2.766.608.608,0,0,0,.341.219c1.274.364,2.551.717,3.925,1.1m-6.568-15.63c-1.571,2-3.844,2.933-6.176,3.756-1.929.68-1.937.66-1.793,2.718a5.078,5.078,0,0,0,4.744,4.7,4.944,4.944,0,0,0,5.156-3.771c.211-.912.076-1.9.2-2.838a4.594,4.594,0,0,0-2.133-4.565m-5.231,13.818c-.332,1.516-.051,2.767.784,3.3a3.094,3.094,0,0,0,3.134-.1c1.1-.924.763-2.155.752-3.2Z" transform="translate(-94.027)" fill="#144567"/>
        <path id="Trazado_603588" data-name="Trazado 603588" d="M108.77,189.421c0-2.168,0-4.336,0-6.5a7.259,7.259,0,0,1,5.4-7.21c2.218-.654,4.44-1.3,6.67-1.909.584-.16.941-.385.8-1.046a.3.3,0,0,1,0-.086,5.7,5.7,0,0,0-1.52-4.932,7.6,7.6,0,0,1-1.777-6.155,3.234,3.234,0,0,0-1.082-2.787,9.728,9.728,0,0,1-1.185-12.733c1.809-2.377,4.387-3.29,7.225-3.659a20.684,20.684,0,0,1,10.314,1.3,3.175,3.175,0,0,0,3.929-.718c.667-.725,1.546-.535,2.22.347a11.284,11.284,0,0,1,1.946,10.165,12.476,12.476,0,0,1-3.571,5.741,2.592,2.592,0,0,0-.57,1.334,7.8,7.8,0,0,0-.02,1.644,8.741,8.741,0,0,1-2.68,6.636,1.766,1.766,0,0,0-.577,1.445,25.615,25.615,0,0,1,0,2.6c-.025.5.163.695.634.826,2.284.636,4.56,1.3,6.833,1.973a7.2,7.2,0,0,1,5.436,7.173q.082,6.548.143,13.1a7.547,7.547,0,0,1-.007.78,1.382,1.382,0,0,1-2.762,0c-.02-.23-.009-.462-.011-.693q-.071-6.592-.143-13.183a4.428,4.428,0,0,0-3.365-4.5c-2.161-.644-4.336-1.244-6.5-1.879-.4-.117-.692-.18-.9.305-1.871,4.281-8.545,4.469-11.046.2-.357-.61-.681-.66-1.3-.469-2.072.639-4.166,1.2-6.248,1.809a4.477,4.477,0,0,0-3.5,4.659c.032,4.25.088,8.5.133,12.749,0,.26.013.521,0,.78a1.433,1.433,0,0,1-1.392,1.564,1.382,1.382,0,0,1-1.38-1.55c-.015-2.371-.005-4.741-.005-7.111h-.144m28.253-33.18c2.53-2.141,3.153-7.487,1.142-10.2a5.145,5.145,0,0,1-5.036.4c-.65-.239-1.316-.436-1.977-.643a16.925,16.925,0,0,0-8.652-.445c-2.44.508-4.341,1.73-5.138,4.24a7.267,7.267,0,0,0,2.4,7.741c.491-.791,1.017-1.544,1.447-2.348.837-1.566,1.216-1.66,2.858-.887,3.077,1.449,6.135,2.057,9.134-.283a1.862,1.862,0,0,1,2.8.545,17.361,17.361,0,0,1,1.024,1.876m-2.865.534a28.61,28.61,0,0,1-3.686,1.235,11.637,11.637,0,0,1-6.451-.89.7.7,0,0,0-1.038.339c-.463.728-1.033,1.388-1.545,2.086a1.182,1.182,0,0,0-.3.579,16.671,16.671,0,0,0,.092,3.457c.644,3.066,2.823,4.8,5.61,5.86a2.791,2.791,0,0,0,1.614.141c2.943-.8,5.286-2.5,6.068-5.5a12.316,12.316,0,0,0-.36-7.309m-9.725,14.66c0,1.06-.058,1.949.013,2.827a3.7,3.7,0,0,0,3.156,3.009c1.917.211,3.3-.5,3.718-2.185a22.762,22.762,0,0,0,.288-3.746,6.93,6.93,0,0,1-7.175.1" transform="translate(-83.559 -109.262)" fill="#144567"/>
      </g>
    </g>
  </g>
</svg>
