<svg xmlns="http://www.w3.org/2000/svg" xmlns:xlink="http://www.w3.org/1999/xlink" width="260" height="175.144" viewBox="0 0 260 175.144">
  <defs>
    <clipPath id="clip-path">
      <rect id="Rectángulo_47761" data-name="Rectángulo 47761" width="260" height="175.144" fill="none"/>
    </clipPath>
  </defs>
  <g id="Grupo_161707" data-name="Grupo 161707" transform="translate(0 0.004)">
    <path id="Trazado_604099" data-name="Trazado 604099" d="M1595.528,981.723H1578.4l-2.237-34.15h21.6Z" transform="translate(-1343.56 -807.738)" fill="#ff7768"/>
    <path id="Trazado_604100" data-name="Trazado 604100" d="M1596.976,1041.074h-19.933l.068-5.749-.951-7.539h21.7l-.888,7.179Z" transform="translate(-1343.559 -876.114)" fill="#016589"/>
    <g id="Grupo_161706" data-name="Grupo 161706" transform="translate(0 -0.004)">
      <g id="Grupo_161705" data-name="Grupo 161705" transform="translate(0 0)" clip-path="url(#clip-path)">
        <path id="Trazado_604101" data-name="Trazado 604101" d="M1590.461,946.075l-24.662-.114.065-1.3c.049-.985.524-1.742,1.094-1.742h22.352c.57,0,1.045.756,1.094,1.742Z" transform="translate(-1334.726 -803.764)" fill="#ffbf91"/>
        <path id="Trazado_604102" data-name="Trazado 604102" d="M1596.56,931.63h-21.93l.079-1.143a1.026,1.026,0,0,1,1.109-.81h19.553a1.027,1.027,0,0,1,1.109.81Z" transform="translate(-1342.254 -792.479)" fill="#f5daa2"/>
        <path id="Trazado_604103" data-name="Trazado 604103" d="M1584.7,1032.616h-1.028l1.074,6.539-.273,5.345h.273l.227-5.482Z" transform="translate(-1349.961 -880.228)" fill="#96d9c9"/>
        <path id="Trazado_604104" data-name="Trazado 604104" d="M1602.682,1032.431l.785,11.884h.227l-.137-11.916Z" transform="translate(-1366.167 -880.043)" fill="#96d9c9"/>
        <path id="Trazado_604105" data-name="Trazado 604105" d="M1622.323,1032.431l.785,11.884h.227l-.137-11.916Z" transform="translate(-1382.909 -880.043)" fill="#65b3c6"/>
        <path id="Trazado_604106" data-name="Trazado 604106" d="M1701.026,1032.616h1.028l-1.074,6.539.273,5.345h-.273l-.227-5.482Z" transform="translate(-1449.766 -880.228)" fill="#65b3c6"/>
        <path id="Trazado_604107" data-name="Trazado 604107" d="M1684.712,1032.431l-.785,11.884h-.227l.137-11.916Z" transform="translate(-1435.228 -880.043)" fill="#65b3c6"/>
        <path id="Trazado_604108" data-name="Trazado 604108" d="M1665.461,1032.431l-.785,11.884h-.227l.137-11.916Z" transform="translate(-1418.818 -880.043)" fill="#65b3c6"/>
        <path id="Trazado_604109" data-name="Trazado 604109" d="M1644.675,1032.431l-.393,11.884h-.113l.068-11.916Z" transform="translate(-1401.531 -880.043)" fill="#65b3c6"/>
        <path id="Trazado_604110" data-name="Trazado 604110" d="M1677.039,918.408h-3.667l.239-2.781c.02-.237.32-.423.682-.423h1.825c.363,0,.662.185.682.423Z" transform="translate(-1426.424 -780.143)" fill="#f5daa2"/>
        <path id="Trazado_604111" data-name="Trazado 604111" d="M917.717,457.117l2.493-1.918,2.048,1.82.184-.207-2.008-1.785,2-1.54-.169-.219-2.043,1.572-1.761-1.566-.184.207L920,455.011l-2.451,1.886Z" transform="translate(-782.141 -386.377)" fill="#65b3c6"/>
        <path id="Trazado_604112" data-name="Trazado 604112" d="M917.62,481.133l-2.6,1.8-2.052-1.647-.173.215,1.988,1.6-2.689,1.861.157.227,2.757-1.908,2.5,2.009.173-.216-2.44-1.957,2.533-1.753Z" transform="translate(-777.491 -410.129)" fill="#65b3c6"/>
        <path id="Trazado_604113" data-name="Trazado 604113" d="M1289.342,363.154a23.725,23.725,0,1,1-23.725-23.725,23.725,23.725,0,0,1,23.725,23.725" transform="translate(-1058.62 -289.337)" fill="#65b3c6"/>
        <path id="Trazado_604114" data-name="Trazado 604114" d="M1344.3,363.157a40.5,40.5,0,0,1-.645,7.247c-1.1,6.213-4.79,15.436-10.992,16.413-7.823,1.12-13.161-11.775-13.169-23.66.007-9.819,3.928-22.491,11.377-23.66,7.319-1.046,13.423,10.934,13.429,23.66m-1.238,0c-.007-21.016-10.4-28.852-17.361-20.346-4.152,5.035-5.488,13.8-5.489,20.346,0,11.193,3.976,23.628,11.555,23.725a6.761,6.761,0,0,0,.9-.068c6.237-1,9.062-10.134,9.938-16.577a52.943,52.943,0,0,0,.462-7.08" transform="translate(-1124.766 -289.341)" fill="#fff8f3"/>
        <path id="Trazado_604115" data-name="Trazado 604115" d="M1321.953,382.161q-.279-.273-.567-.537a54.95,54.95,0,0,1-32.544.472q-.162.158-.322.318l.516.191a44.155,44.155,0,0,0,8.67,2.183,49.544,49.544,0,0,0,19.5-1.105c1.238-.333.722-.182,2.505-.731l1.48-.511c-.007,0,.271-.092.758-.279" transform="translate(-1098.367 -325.305)" fill="#fff8f3"/>
        <path id="Trazado_604116" data-name="Trazado 604116" d="M1301.675,599.424a60.788,60.788,0,0,0-11.923,2.074q.227.224.461.443a71.8,71.8,0,0,1,24.931-1.562,63.636,63.636,0,0,1,7.733,1.314q.3-.288.588-.587a71.387,71.387,0,0,0-21.789-1.682" transform="translate(-1099.417 -510.792)" fill="#fff8f3"/>
        <path id="Trazado_604117" data-name="Trazado 604117" d="M1241.9,495.287q-.011.361-.011.724h47.45q0-.363-.011-.724Z" transform="translate(-1058.621 -422.195)" fill="#fff8f3"/>
        <path id="Trazado_604118" data-name="Trazado 604118" d="M988.627,288.215a3.441,3.441,0,1,1-3.441-3.441,3.441,3.441,0,0,1,3.441,3.441" transform="translate(-836.864 -242.748)" fill="#65b3c6"/>
        <path id="Trazado_604119" data-name="Trazado 604119" d="M871.369,231.627c10.974,7.618,24.732,6.865,31.047-1.595l-40.408-28.05c-5.718,8.874-1.613,22.027,9.361,29.645" transform="translate(-732.603 -172.174)" fill="#016589"/>
        <path id="Trazado_604120" data-name="Trazado 604120" d="M933.98,392.726a2.222,2.222,0,1,1-2.222-2.222,2.222,2.222,0,0,1,2.222,2.222" transform="translate(-792.361 -332.875)" fill="#65b3c6"/>
        <path id="Trazado_604121" data-name="Trazado 604121" d="M898.227,424.178l-.866-.179,5.1-24.673h3.051v24.763h-.884V400.21H903.18Z" transform="translate(-764.933 -340.395)" fill="#65b3c6"/>
        <path id="Trazado_604122" data-name="Trazado 604122" d="M85.418,1084.04H83.687v-.19a8.165,8.165,0,0,0,1.731.19" transform="translate(-71.337 -923.9)" fill="#9bc1f9"/>
        <path id="Trazado_604123" data-name="Trazado 604123" d="M103.3,499.557c0-1.586-.241-92.461-.241-92.461h64.65c5.428,0,9.828,3.879,9.828,8.664v76.2c0,8.4-7.061,15.2-15.77,15.2H95.416a7.747,7.747,0,0,0,7.885-7.6" transform="translate(-81.335 -347.018)" fill="#f5daa2"/>
        <rect id="Rectángulo_47705" data-name="Rectángulo 47705" width="61.42" height="2.244" transform="translate(28.902 71.574)" fill="#fff8f3"/>
        <rect id="Rectángulo_47706" data-name="Rectángulo 47706" width="61.42" height="2.244" transform="translate(28.902 75.157)" fill="#fff8f3"/>
        <rect id="Rectángulo_47707" data-name="Rectángulo 47707" width="61.42" height="2.244" transform="translate(28.902 78.74)" fill="#fff8f3"/>
        <rect id="Rectángulo_47708" data-name="Rectángulo 47708" width="61.42" height="2.244" transform="translate(28.902 82.322)" fill="#fff8f3"/>
        <rect id="Rectángulo_47709" data-name="Rectángulo 47709" width="61.42" height="2.244" transform="translate(28.902 93.294)" fill="#fff8f3"/>
        <rect id="Rectángulo_47710" data-name="Rectángulo 47710" width="61.42" height="2.244" transform="translate(28.902 96.877)" fill="#fff8f3"/>
        <rect id="Rectángulo_47711" data-name="Rectángulo 47711" width="61.42" height="2.244" transform="translate(28.902 100.731)" fill="#fff8f3"/>
        <rect id="Rectángulo_47712" data-name="Rectángulo 47712" width="61.42" height="2.244" transform="translate(28.902 104.314)" fill="#fff8f3"/>
        <rect id="Rectángulo_47713" data-name="Rectángulo 47713" width="61.42" height="2.244" transform="translate(28.902 108.169)" fill="#fff8f3"/>
        <rect id="Rectángulo_47714" data-name="Rectángulo 47714" width="61.42" height="2.244" transform="translate(28.902 111.752)" fill="#fff8f3"/>
        <rect id="Rectángulo_47715" data-name="Rectángulo 47715" width="61.42" height="2.244" transform="translate(28.902 115.606)" fill="#fff8f3"/>
        <rect id="Rectángulo_47716" data-name="Rectángulo 47716" width="61.42" height="2.244" transform="translate(28.902 119.189)" fill="#fff8f3"/>
        <path id="Trazado_604124" data-name="Trazado 604124" d="M1370.219,771.081h-35.707a2.708,2.708,0,0,0-2.708,2.708v55.066a2.708,2.708,0,0,0,2.708,2.708h35.707a2.708,2.708,0,0,0,2.708-2.708V773.789a2.708,2.708,0,0,0-2.708-2.708" transform="translate(-1135.263 -657.288)" fill="#000a53"/>
        <path id="Trazado_604125" data-name="Trazado 604125" d="M1352.8,788.425v49.061a2.751,2.751,0,0,0,2.751,2.751h29.931a2.751,2.751,0,0,0,2.751-2.751V788.425a2.751,2.751,0,0,0-2.751-2.751h-29.931a2.751,2.751,0,0,0-2.751,2.751" transform="translate(-1153.162 -669.728)" fill="#65b3c6"/>
        <rect id="Rectángulo_47717" data-name="Rectángulo 47717" width="4.797" height="6.23" transform="translate(206.497 138.129)" fill="#016589"/>
        <rect id="Rectángulo_47718" data-name="Rectángulo 47718" width="3.797" height="5.097" transform="translate(206.997 138.696)" fill="#fff8f3"/>
        <rect id="Rectángulo_47719" data-name="Rectángulo 47719" width="4.797" height="6.23" transform="translate(206.497 147.442)" fill="#016589"/>
        <rect id="Rectángulo_47720" data-name="Rectángulo 47720" width="3.797" height="5.097" transform="translate(206.997 148.008)" fill="#fff8f3"/>
        <rect id="Rectángulo_47721" data-name="Rectángulo 47721" width="4.797" height="6.23" transform="translate(206.497 156.955)" fill="#016589"/>
        <rect id="Rectángulo_47722" data-name="Rectángulo 47722" width="3.797" height="5.097" transform="translate(206.997 157.521)" fill="#fff8f3"/>
        <path id="Trazado_604126" data-name="Trazado 604126" d="M1388.432,919.582a.3.3,0,0,1,.431.138l3.475,7.048,1.018-2.855a.3.3,0,0,1,.412-.2.376.376,0,0,1,.175.467l-1.513,4.242-4.119-8.355a.385.385,0,0,1,.122-.488" transform="translate(-1183.396 -783.836)" fill="#ff7768"/>
        <path id="Trazado_604127" data-name="Trazado 604127" d="M1388.432,978.68a.3.3,0,0,1,.431.138l3.475,7.048,1.018-2.855a.3.3,0,0,1,.412-.2.377.377,0,0,1,.175.467l-1.513,4.242-4.119-8.354a.385.385,0,0,1,.122-.488" transform="translate(-1183.396 -834.212)" fill="#ff7768"/>
        <rect id="Rectángulo_47723" data-name="Rectángulo 47723" width="32.377" height="1.586" transform="translate(201.317 120.656)" fill="#012968"/>
        <rect id="Rectángulo_47724" data-name="Rectángulo 47724" width="32.377" height="1.586" transform="translate(201.317 123.601)" fill="#012968"/>
        <rect id="Rectángulo_47725" data-name="Rectángulo 47725" width="32.377" height="1.586" transform="translate(201.017 133.002)" fill="#012968"/>
        <path id="Trazado_604128" data-name="Trazado 604128" d="M292.691,789.037h29.146a3.332,3.332,0,0,0,3.333-3.333v-61.11a3.333,3.333,0,0,0-3.333-3.333H292.691a3.333,3.333,0,0,0-3.333,3.333V785.7a3.332,3.332,0,0,0,3.333,3.333" transform="translate(-246.656 -614.821)" fill="#000a53"/>
        <path id="Trazado_604129" data-name="Trazado 604129" d="M336.5,795.135V743.8a3.186,3.186,0,0,0-3.186-3.186H307.868a3.186,3.186,0,0,0-3.186,3.186v51.339a3.186,3.186,0,0,0,3.186,3.186h25.445a3.186,3.186,0,0,0,3.186-3.186" transform="translate(-259.719 -631.314)" fill="#65b3c6"/>
        <path id="Trazado_604130" data-name="Trazado 604130" d="M377.877,1143.9c0,1.285-3.244,2.327-7.245,2.327s-7.245-1.042-7.245-2.327,3.244-2.327,7.245-2.327,7.245,1.042,7.245,2.327" transform="translate(-309.759 -973.107)" fill="#13375b"/>
        <path id="Trazado_604131" data-name="Trazado 604131" d="M364.535,806.69H348.721a1.783,1.783,0,0,1-1.783-1.783v-10.9a1.783,1.783,0,0,1,1.783-1.783h15.814a1.783,1.783,0,0,1,1.783,1.783v10.9a1.783,1.783,0,0,1-1.783,1.783" transform="translate(-295.739 -675.314)" fill="#ff5b51"/>
        <rect id="Rectángulo_47726" data-name="Rectángulo 47726" width="27.144" height="0.789" transform="translate(47.552 138.743)" fill="#000a53"/>
        <path id="Trazado_604132" data-name="Trazado 604132" d="M370.552,927.914h-.126a1.015,1.015,0,0,1-1.015-1.015v-4.791a1.015,1.015,0,0,1,1.015-1.015h.126a1.015,1.015,0,0,1,1.015,1.015V926.9a1.015,1.015,0,0,1-1.015,1.015" transform="translate(-314.895 -785.162)" fill="#016589"/>
        <path id="Trazado_604133" data-name="Trazado 604133" d="M402.124,818l-4.589-2.65a1.191,1.191,0,0,0-1.787,1.032v5.3a1.191,1.191,0,0,0,1.787,1.032l4.589-2.65a1.191,1.191,0,0,0,0-2.063" transform="translate(-337.346 -694.889)" fill="#fff8f3"/>
        <path id="Trazado_604134" data-name="Trazado 604134" d="M619.867,607.358H502.021a6.724,6.724,0,0,1-6.724-6.724V513.877a6.724,6.724,0,0,1,6.724-6.724H619.867a6.724,6.724,0,0,1,6.724,6.724v86.757a6.724,6.724,0,0,1-6.724,6.724" transform="translate(-422.204 -432.309)" fill="#016589"/>
        <path id="Trazado_604135" data-name="Trazado 604135" d="M637.543,617.93H518.331a3.544,3.544,0,0,1-3.544-3.544V526.641a3.544,3.544,0,0,1,3.544-3.544H637.543a3.544,3.544,0,0,1,3.544,3.544v87.746a3.544,3.544,0,0,1-3.544,3.544" transform="translate(-438.817 -445.9)" fill="#000a53"/>
        <path id="Trazado_604136" data-name="Trazado 604136" d="M495.3,1145.261v3.4c0,1.456,3.128,2.636,6.988,2.636h134.18c3.859,0,6.987-1.18,6.987-2.636v-3.4Z" transform="translate(-422.204 -976.249)" fill="#016589"/>
        <rect id="Rectángulo_47727" data-name="Rectángulo 47727" width="109.212" height="81.373" transform="translate(84.676 80.476)" fill="#65b3c6"/>
        <rect id="Rectángulo_47728" data-name="Rectángulo 47728" width="98.988" height="6.278" transform="translate(90.458 83.414)" fill="#fff8f3"/>
        <rect id="Rectángulo_47729" data-name="Rectángulo 47729" width="42.761" height="1.339" transform="translate(94.131 95.538)" fill="#016589"/>
        <rect id="Rectángulo_47730" data-name="Rectángulo 47730" width="39.798" height="1.339" transform="translate(146.178 95.538)" fill="#016589"/>
        <rect id="Rectángulo_47731" data-name="Rectángulo 47731" width="42.761" height="1.339" transform="translate(94.131 98.924)" fill="#016589"/>
        <rect id="Rectángulo_47732" data-name="Rectángulo 47732" width="39.798" height="1.339" transform="translate(146.178 98.924)" fill="#016589"/>
        <rect id="Rectángulo_47733" data-name="Rectángulo 47733" width="42.761" height="1.339" transform="translate(94.131 102.309)" fill="#016589"/>
        <rect id="Rectángulo_47734" data-name="Rectángulo 47734" width="39.798" height="1.339" transform="translate(146.178 102.309)" fill="#016589"/>
        <rect id="Rectángulo_47735" data-name="Rectángulo 47735" width="42.761" height="1.339" transform="translate(94.131 105.695)" fill="#016589"/>
        <rect id="Rectángulo_47736" data-name="Rectángulo 47736" width="39.798" height="1.339" transform="translate(146.178 105.695)" fill="#016589"/>
        <rect id="Rectángulo_47737" data-name="Rectángulo 47737" width="39.798" height="1.339" transform="translate(146.178 109.081)" fill="#016589"/>
        <rect id="Rectángulo_47738" data-name="Rectángulo 47738" width="42.761" height="1.339" transform="translate(94.131 109.081)" fill="#016589"/>
        <rect id="Rectángulo_47739" data-name="Rectángulo 47739" width="42.761" height="1.339" transform="translate(94.131 112.467)" fill="#016589"/>
        <rect id="Rectángulo_47740" data-name="Rectángulo 47740" width="39.798" height="1.339" transform="translate(146.178 112.467)" fill="#016589"/>
        <rect id="Rectángulo_47741" data-name="Rectángulo 47741" width="42.761" height="1.339" transform="translate(94.131 115.853)" fill="#016589"/>
        <rect id="Rectángulo_47742" data-name="Rectángulo 47742" width="39.798" height="1.339" transform="translate(146.178 115.852)" fill="#016589"/>
        <rect id="Rectángulo_47743" data-name="Rectángulo 47743" width="42.761" height="1.339" transform="translate(94.131 119.238)" fill="#016589"/>
        <rect id="Rectángulo_47744" data-name="Rectángulo 47744" width="39.798" height="1.339" transform="translate(146.178 119.238)" fill="#016589"/>
        <rect id="Rectángulo_47745" data-name="Rectángulo 47745" width="42.761" height="1.339" transform="translate(94.131 122.624)" fill="#016589"/>
        <rect id="Rectángulo_47746" data-name="Rectángulo 47746" width="39.798" height="1.339" transform="translate(146.178 122.624)" fill="#016589"/>
        <rect id="Rectángulo_47747" data-name="Rectángulo 47747" width="42.761" height="1.339" transform="translate(94.131 126.01)" fill="#016589"/>
        <rect id="Rectángulo_47748" data-name="Rectángulo 47748" width="39.798" height="1.339" transform="translate(146.178 126.01)" fill="#016589"/>
        <rect id="Rectángulo_47749" data-name="Rectángulo 47749" width="39.798" height="1.339" transform="translate(146.178 129.396)" fill="#016589"/>
        <rect id="Rectángulo_47750" data-name="Rectángulo 47750" width="42.761" height="1.339" transform="translate(94.131 129.396)" fill="#016589"/>
        <rect id="Rectángulo_47751" data-name="Rectángulo 47751" width="42.761" height="1.339" transform="translate(94.131 132.781)" fill="#016589"/>
        <rect id="Rectángulo_47752" data-name="Rectángulo 47752" width="39.798" height="1.339" transform="translate(146.178 132.781)" fill="#016589"/>
        <rect id="Rectángulo_47753" data-name="Rectángulo 47753" width="39.798" height="1.339" transform="translate(146.178 136.167)" fill="#016589"/>
        <rect id="Rectángulo_47754" data-name="Rectángulo 47754" width="42.761" height="1.339" transform="translate(94.131 136.167)" fill="#016589"/>
        <path id="Trazado_604137" data-name="Trazado 604137" d="M1517.639,294.4a.184.184,0,0,1-.041-.327l1.118-.738.026-1.339a.184.184,0,0,1,.3-.14l1.047.835,1.281-.389a.184.184,0,0,1,.226.241l-.47,1.254.766,1.1a.184.184,0,0,1-.159.289l-1.338-.06-.808,1.068a.184.184,0,0,1-.324-.062l-.357-1.291Z" transform="translate(-1293.568 -248.748)" fill="#ff7768"/>
        <path id="Trazado_604138" data-name="Trazado 604138" d="M1135.883,18.026a.184.184,0,0,1-.041-.327l1.118-.738.026-1.339a.184.184,0,0,1,.3-.14l1.047.835,1.281-.389a.184.184,0,0,1,.226.241l-.47,1.254.766,1.1a.184.184,0,0,1-.159.289l-1.338-.06-.808,1.068a.184.184,0,0,1-.324-.062l-.357-1.291Z" transform="translate(-968.15 -13.162)" fill="#ff7768"/>
        <path id="Trazado_604139" data-name="Trazado 604139" d="M196.819,335.534l1.55.6,1.223-1.174,1.689.8.917-1.652,1.95.817,1.032-1.417,2.005.48-.182.759-1.5-.359-1.089,1.5-1.875-.786-.933,1.68-1.864-.88-1.194,1.146-1.436-.558-.627.917-.644-.441Z" transform="translate(-166.941 -284.289)" fill="#65b3c6"/>
        <path id="Trazado_604140" data-name="Trazado 604140" d="M498.554,120.176l-.018,1.662,1.529.732-.152,1.862,1.869.277-.079,2.113,1.69.467.257,2.046-.774.1-.192-1.529-1.783-.493.075-2.032-1.9-.282.167-2.055-1.493-.715.016-1.541-1.079-.264.185-.758Z" transform="translate(-423.389 -102.09)" fill="#65b3c6"/>
        <path id="Trazado_604141" data-name="Trazado 604141" d="M609.085,107.813a2.489,2.489,0,1,1,2.655,2.31,2.489,2.489,0,0,1-2.655-2.31" transform="translate(-519.194 -89.633)" fill="#ffbf91"/>
        <path id="Trazado_604142" data-name="Trazado 604142" d="M628.564,156.048a16.64,16.64,0,0,0-.485-2.191.568.568,0,0,0-1.1.227,17.787,17.787,0,0,0,.469,2.356.594.594,0,0,0,.753.361.607.607,0,0,0,.361-.753" transform="translate(-534.453 -130.841)" fill="#ffbf91"/>
        <path id="Trazado_604143" data-name="Trazado 604143" d="M647.993,139.524a24.689,24.689,0,0,1-2.3-1.664.569.569,0,0,0-.747.858,10.838,10.838,0,0,0,2.515,1.891.611.611,0,0,0,.811-.274.617.617,0,0,0-.274-.811" transform="translate(-549.616 -117.4)" fill="#ffbf91"/>
        <path id="Trazado_604144" data-name="Trazado 604144" d="M655.028,117.246a.428.428,0,0,0-.109.574c.279.506.987.481,1.49.464a5.384,5.384,0,0,0,1.546-.294.6.6,0,0,0-.4-1.137c-1.44.491-1.985-.042-2.527.393" transform="translate(-558.214 -99.577)" fill="#ffbf91"/>
        <path id="Trazado_604145" data-name="Trazado 604145" d="M643.539,85.76c-.724,1.06-1.316,1.418-1.224,2a.5.5,0,0,0,.653.429c.389-.088.6-.5.834-.79s.443-.556.643-.852a.62.62,0,0,0-.059-.847.6.6,0,0,0-.847.059" transform="translate(-547.517 -72.93)" fill="#ffbf91"/>
        <path id="Trazado_604146" data-name="Trazado 604146" d="M623.214,78.181a2.647,2.647,0,0,0-.583-1.175.522.522,0,0,0-.849.288,2.526,2.526,0,0,0,.294,1.286.6.6,0,0,0,1.137-.4" transform="translate(-530.015 -65.535)" fill="#ffbf91"/>
        <path id="Trazado_604147" data-name="Trazado 604147" d="M598.576,90.569c-1.044-.793-1.257-1.017-1.667-.974a.5.5,0,0,0-.458.526c.1.5.389.638,1.349,1.338a.607.607,0,0,0,.833-.058.6.6,0,0,0-.058-.833" transform="translate(-508.424 -76.369)" fill="#ffbf91"/>
        <path id="Trazado_604148" data-name="Trazado 604148" d="M581.1,117.323a.552.552,0,0,0,.2.988,9.919,9.919,0,0,0,2.665-.391.621.621,0,0,0,.559-.643.606.606,0,0,0-.643-.559,10.48,10.48,0,0,0-2.781.606" transform="translate(-495.145 -99.486)" fill="#ffbf91"/>
        <path id="Trazado_604149" data-name="Trazado 604149" d="M594,142.656c-1.136,1.1-1.3.905-1.751,1.578a.51.51,0,0,0,.49.732,2.15,2.15,0,0,0,1.179-.635c.347-.275.679-.57,1-.877a.612.612,0,0,0-.06-.857.62.62,0,0,0-.857.059" transform="translate(-504.793 -121.428)" fill="#ffbf91"/>
        <path id="Trazado_604150" data-name="Trazado 604150" d="M793.293,322.539l-2.048.234.092,1.919-2.008.32-.138,1.845-1.463.485.245.741,1.957-.649.131-1.748,2.088-.333-.09-1.888,1.856-.212Z" transform="translate(-671.479 -274.94)" fill="#ff7768"/>
        <path id="Trazado_604151" data-name="Trazado 604151" d="M722.365,145.932l-2.057.051-.158,1.515-2.028.121-.376,1.442-1.511.286.147.6,2.021-.383.356-1.367,2.11-.126.155-1.491,1.865-.046Z" transform="translate(-610.536 -124.395)" fill="#65b3c6"/>
        <path id="Trazado_604152" data-name="Trazado 604152" d="M1607.664,376.9l-2.057.051-.158,1.515-2.028.121-.376,1.442-1.511.286.147.6,2.021-.383.356-1.367,2.11-.126.155-1.491,1.865-.046Z" transform="translate(-1365.188 -321.281)" fill="#016589"/>
        <path id="Trazado_604153" data-name="Trazado 604153" d="M1233.87,58.442l-2.057.051-.158,1.515-2.028.121-.376,1.442-1.511.286.147.6,2.021-.383.356-1.367,2.11-.126.155-1.491,1.864-.046Z" transform="translate(-1046.556 -49.816)" fill="#65b3c6"/>
        <path id="Trazado_604154" data-name="Trazado 604154" d="M1375.182,252.522l-1.342,5.012,4.259-1.613Z" transform="translate(-1171.097 -215.255)" fill="#016589"/>
        <path id="Trazado_604155" data-name="Trazado 604155" d="M1441.7,67.849a8.229,8.229,0,1,1,11.234-3.041,8.239,8.239,0,0,1-11.234,3.041" transform="translate(-1225.424 -44.738)" fill="#65b3c6"/>
        <path id="Trazado_604156" data-name="Trazado 604156" d="M1443.048,68.9a8.015,8.015,0,1,1,10.941-2.962,8.024,8.024,0,0,1-10.941,2.962" transform="translate(-1226.66 -45.975)" fill="#65b3c6"/>
        <path id="Trazado_604157" data-name="Trazado 604157" d="M1461.063,73.9a6.545,6.545,0,1,1-2.419-8.934,6.545,6.545,0,0,1,2.419,8.934" transform="translate(-1235.028 -54.64)" fill="#65b3c6"/>
        <path id="Trazado_604158" data-name="Trazado 604158" d="M1454.4,77.809a6.2,6.2,0,1,1,8.469-2.293,6.211,6.211,0,0,1-8.469,2.293" transform="translate(-1237.108 -56.451)" fill="#fff8f3"/>
        <path id="Trazado_604159" data-name="Trazado 604159" d="M1454.447,84.757l-.964-.553a.331.331,0,1,0-.329.574l.964.553a.331.331,0,1,0,.329-.574" transform="translate(-1238.563 -71.74)" fill="#65b3c6"/>
        <path id="Trazado_604160" data-name="Trazado 604160" d="M1470.263,137.615a.331.331,0,0,0-.452.122l-.553.964a.331.331,0,0,0,.574.329l.553-.963a.331.331,0,0,0-.122-.452" transform="translate(-1252.396 -117.269)" fill="#65b3c6"/>
        <path id="Trazado_604161" data-name="Trazado 604161" d="M1524.087,124.724l-.964-.553a.331.331,0,1,0-.329.574l.963.553a.331.331,0,0,0,.329-.574" transform="translate(-1297.926 -105.808)" fill="#65b3c6"/>
        <path id="Trazado_604162" data-name="Trazado 604162" d="M1510.229,67.977a.332.332,0,0,0-.452.122l-.553.963a.331.331,0,0,0,.574.33l.553-.963a.332.332,0,0,0-.122-.452" transform="translate(-1286.464 -57.907)" fill="#65b3c6"/>
        <path id="Trazado_604163" data-name="Trazado 604163" d="M1540.259,64.825l1.088-.717a.194.194,0,0,1,.268.055l.822,1.247a.194.194,0,0,1-.055.268l-1.088.717a.194.194,0,0,1-.268-.055l-.822-1.247a.194.194,0,0,1,.055-.268" transform="translate(-1312.881 -54.62)" fill="#65b3c6"/>
        <path id="Trazado_604164" data-name="Trazado 604164" d="M1492.671,38.875l.07-1.3a.194.194,0,0,0-.183-.2l-1.492-.08a.193.193,0,0,0-.2.183l-.07,1.3a.194.194,0,0,0,.183.2l1.492.081a.194.194,0,0,0,.2-.183" transform="translate(-1270.789 -31.786)" fill="#65b3c6"/>
        <path id="Rectángulo_47755" data-name="Rectángulo 47755" d="M.657,0h0a.657.657,0,0,1,.657.657v.976a.657.657,0,0,1-.657.657h0A.658.658,0,0,1,0,1.632V.657A.657.657,0,0,1,.657,0Z" transform="translate(224.38 6.97) rotate(-60.15)" fill="#65b3c6"/>
        <path id="Trazado_604165" data-name="Trazado 604165" d="M1515.947,29.006a2.059,2.059,0,1,1,1.127.648l-.253.441a2.548,2.548,0,1,0-1.127-.647Z" transform="translate(-1291.37 -21.385)" fill="#65b3c6"/>
        <path id="Trazado_604166" data-name="Trazado 604166" d="M1519.638,51.13q.29.167.562.353l.673-1.174-.917-.526-.665,1.159q.174.09.346.188" transform="translate(-1295.083 -42.436)" fill="#65b3c6"/>
        <path id="Trazado_604167" data-name="Trazado 604167" d="M1490.413,105.018a.6.6,0,1,1-.223-.824.6.6,0,0,1,.223.824" transform="translate(-1269.505 -88.749)" fill="#65b3c6"/>
        <path id="Trazado_604168" data-name="Trazado 604168" d="M1496.3,91.348l-4.2,2.671a.227.227,0,0,1-.244-.383c.017-.01-.18.092,4.445-2.287" transform="translate(-1271.602 -77.867)" fill="#65b3c6"/>
        <path id="Trazado_604169" data-name="Trazado 604169" d="M1492.738,111.978l-.928-4.891a.227.227,0,1,1,.446-.085c0,.019-.019-.2.482,4.976" transform="translate(-1271.653 -91.053)" fill="#65b3c6"/>
        <path id="Trazado_604170" data-name="Trazado 604170" d="M1492.166,106.9a.247.247,0,1,1-.091-.337.247.247,0,0,1,.091.337" transform="translate(-1271.567 -90.811)" fill="#65b3c6"/>
        <path id="Trazado_604171" data-name="Trazado 604171" d="M1607.688,448.691a.22.22,0,0,0-.174-.154,3.155,3.155,0,0,1-1.26-.777l.452-1.9a3.157,3.157,0,0,1,1.474-.126.22.22,0,0,0,.225-.059l1.054-1.116a.221.221,0,0,0,.046-.228,3.151,3.151,0,0,1,.043-1.479l1.871-.559a3.155,3.155,0,0,1,.847,1.214.221.221,0,0,0,.164.165l1.493.355a.22.22,0,0,0,.22-.074,3.155,3.155,0,0,1,1.3-.7l1.419,1.341a3.156,3.156,0,0,1-.628,1.34.221.221,0,0,0-.061.224l.439,1.471a.221.221,0,0,0,.174.154,3.156,3.156,0,0,1,1.26.777l-.452,1.9a3.156,3.156,0,0,1-1.474.126.221.221,0,0,0-.225.059l-1.054,1.116a.22.22,0,0,0-.046.228,3.157,3.157,0,0,1-.043,1.479l-1.871.559a3.157,3.157,0,0,1-.847-1.214.22.22,0,0,0-.164-.165l-1.493-.355a.221.221,0,0,0-.22.074,3.154,3.154,0,0,1-1.3.7l-1.419-1.341a3.156,3.156,0,0,1,.628-1.34.221.221,0,0,0,.061-.224Zm4.018,1.339a1.923,1.923,0,1,0-1.426-2.315,1.923,1.923,0,0,0,1.426,2.315m-.285,1.2a3.156,3.156,0,1,0-2.34-3.8,3.156,3.156,0,0,0,2.34,3.8" transform="translate(-1369.211 -377.022)" fill="#ff7768"/>
        <path id="Trazado_604172" data-name="Trazado 604172" d="M1655.1,517.048a.174.174,0,0,1,.175-.058l1.182.281a.175.175,0,0,1,.13.131,2.5,2.5,0,0,0,.671.961l1.481-.442a2.5,2.5,0,0,0,.034-1.171.175.175,0,0,1,.037-.18l.835-.883a.174.174,0,0,1,.178-.047,2.5,2.5,0,0,0,1.167-.1l.358-1.5a2.5,2.5,0,0,0-1-.615.174.174,0,0,1-.138-.122l-.348-1.164a.175.175,0,0,1,.048-.178,2.5,2.5,0,0,0,.5-1.061l-1.124-1.062a2.5,2.5,0,0,0-1.031.556.174.174,0,0,1-.175.058l-1.182-.281a.174.174,0,0,1-.13-.131,2.5,2.5,0,0,0-.671-.961l-1.481.442a2.5,2.5,0,0,0-.034,1.171.175.175,0,0,1-.037.18l-.835.883a.175.175,0,0,1-.178.047,2.5,2.5,0,0,0-1.167.1l-.358,1.5a2.5,2.5,0,0,0,1,.615.174.174,0,0,1,.138.122l.348,1.165a.174.174,0,0,1-.048.177,2.5,2.5,0,0,0-.5,1.061l1.124,1.062a2.5,2.5,0,0,0,1.031-.556m1.139-1.487a1.894,1.894,0,1,1,2.281-1.4,1.894,1.894,0,0,1-2.281,1.4" transform="translate(-1408.216 -433.948)" fill="#ff7768"/>
        <path id="Trazado_604173" data-name="Trazado 604173" d="M837.013,15.583a.22.22,0,0,0-.207.106,3.156,3.156,0,0,1-1.182.891l-1.6-1.112a3.156,3.156,0,0,1,.419-1.419.22.22,0,0,0,.027-.231l-.655-1.388a.22.22,0,0,0-.2-.126,3.154,3.154,0,0,1-1.362-.578l.161-1.946a3.156,3.156,0,0,1,1.438-.347.22.22,0,0,0,.213-.092l.874-1.261a.22.22,0,0,0,.011-.232,3.156,3.156,0,0,1-.18-1.469l1.765-.834a3.159,3.159,0,0,1,1.02,1.072.221.221,0,0,0,.187.139l1.529.126a.221.221,0,0,0,.207-.106,3.158,3.158,0,0,1,1.182-.89L842.265,7a3.156,3.156,0,0,1-.419,1.419.221.221,0,0,0-.027.231l.655,1.388a.22.22,0,0,0,.2.126,3.156,3.156,0,0,1,1.362.578l-.161,1.946a3.155,3.155,0,0,1-1.439.347.22.22,0,0,0-.213.092l-.874,1.261a.22.22,0,0,0-.012.232,3.155,3.155,0,0,1,.18,1.469l-1.765.834a3.155,3.155,0,0,1-1.02-1.072.22.22,0,0,0-.187-.138Zm2.71-3.255a1.923,1.923,0,1,0-2.676.485,1.923,1.923,0,0,0,2.676-.485m1.013.7a3.156,3.156,0,1,0-4.392.8,3.156,3.156,0,0,0,4.392-.8" transform="translate(-709.433 -4.725)" fill="#ff7768"/>
        <path id="Trazado_604174" data-name="Trazado 604174" d="M915.873,7.18A.174.174,0,0,1,915.882,7l.692-1a.174.174,0,0,1,.169-.073,2.5,2.5,0,0,0,1.139-.275l.127-1.541a2.5,2.5,0,0,0-1.079-.458.174.174,0,0,1-.154-.1l-.519-1.1a.175.175,0,0,1,.021-.183,2.5,2.5,0,0,0,.332-1.124l-1.271-.88a2.5,2.5,0,0,0-.936.705.174.174,0,0,1-.164.084l-1.211-.1a.175.175,0,0,1-.148-.11A2.5,2.5,0,0,0,912.074,0l-1.4.66a2.5,2.5,0,0,0,.143,1.163.175.175,0,0,1-.009.184l-.692,1a.174.174,0,0,1-.169.073,2.5,2.5,0,0,0-1.139.275l-.127,1.541a2.5,2.5,0,0,0,1.079.458.174.174,0,0,1,.154.1l.519,1.1a.175.175,0,0,1-.021.183,2.5,2.5,0,0,0-.332,1.124l1.271.881a2.5,2.5,0,0,0,.936-.705.174.174,0,0,1,.164-.084l1.211.1a.174.174,0,0,1,.148.11,2.5,2.5,0,0,0,.807.849l1.4-.66a2.5,2.5,0,0,0-.143-1.163m-.97-1.6a1.894,1.894,0,1,1-.478-2.636,1.894,1.894,0,0,1,.478,2.636" transform="translate(-774.583 0.004)" fill="#ff7768"/>
        <path id="Trazado_604175" data-name="Trazado 604175" d="M1257.862,194.135l-6.352,3.976a1.378,1.378,0,0,1-1.9-.437l-3.975-6.352a1.378,1.378,0,0,1,.437-1.9l6.352-3.975a1.377,1.377,0,0,1,1.9.437l3.976,6.352a1.378,1.378,0,0,1-.437,1.9" transform="translate(-1061.633 -157.901)" fill="#ff7768"/>
        <path id="Trazado_604176" data-name="Trazado 604176" d="M1272.142,205.445a3.512,3.512,0,1,1-4.84-1.114,3.512,3.512,0,0,1,4.84,1.114" transform="translate(-1078.875 -173.72)" fill="#fff8f3"/>
        <path id="Trazado_604177" data-name="Trazado 604177" d="M1281.969,217.546l1.384,1.621a.283.283,0,0,1-.43.367.289.289,0,0,1-.04-.062Z" transform="translate(-1092.783 -185.441)" fill="#ff7768"/>
        <path id="Trazado_604178" data-name="Trazado 604178" d="M1288.25,221.955l2.215-1.139-1.952,1.547a.244.244,0,0,1-.3-.383.252.252,0,0,1,.04-.026" transform="translate(-1098.024 -188.229)" fill="#ff7768"/>
        <path id="Trazado_604179" data-name="Trazado 604179" d="M235.839,204.206a4.253,4.253,0,1,1-4.968-3.392,4.252,4.252,0,0,1,4.968,3.392" transform="translate(-193.847 -171.115)" fill="#ff7768"/>
        <path id="Trazado_604180" data-name="Trazado 604180" d="M241.937,232.041a2.274,2.274,0,1,0,4.469-.843Z" transform="translate(-206.233 -197.078)" fill="#fff8f3"/>
        <path id="Trazado_604181" data-name="Trazado 604181" d="M458.688,238.325s2.212.434,2.153,1.1c-.031.35-.222,1.253-.222,1.253l1.065,3.229-2.452.485a9.587,9.587,0,0,0-.862-2.932c-.091-.107-.275-.089-.426-.218a6.771,6.771,0,0,1-1.332-1.665c-.28-.991,2.075-1.252,2.075-1.252" transform="translate(-389.209 -203.154)" fill="#f7a491"/>
        <path id="Trazado_604182" data-name="Trazado 604182" d="M458.764,240.757l-.332.193a2.277,2.277,0,0,1,1.009.276,6.755,6.755,0,0,1,.659.359,2.716,2.716,0,0,1,.585-.332,8.81,8.81,0,0,1,1.326-.37c.645-.143-1.382-.943-1.382-.943Z" transform="translate(-390.779 -204.532)" fill="#f48c7f"/>
        <path id="Trazado_604183" data-name="Trazado 604183" d="M353.459,217.466a.358.358,0,0,1-.266-.118L316.111,176.57l-71.637-32.388a.359.359,0,1,1,.3-.655l71.773,32.449.05.055,37.132,40.834a.359.359,0,0,1-.266.6" transform="translate(-208.215 -122.318)" fill="#000a53"/>
        <path id="Trazado_604184" data-name="Trazado 604184" d="M316.227,173.74a9.849,9.849,0,0,0,.22,2.464c.135.325.791,1.687.791,1.687l.23,3.381,2.534-.3s-.814-2.448-.512-3.173a7.649,7.649,0,0,0,.39-2.077c-.032-1.029-3.652-1.987-3.652-1.987" transform="translate(-269.558 -148.1)" fill="#f7a491"/>
        <path id="Trazado_604185" data-name="Trazado 604185" d="M390.741,261.427a1.416,1.416,0,0,0-2.376.3,1.053,1.053,0,0,0-1.389.358s-1.475-.444-1.833,1.761c0,0-.759-.143-.859.759a2.231,2.231,0,0,0,.358,1.5s-.426.32-.233,1.149a1.026,1.026,0,0,0,.748.812s.158,1.188.673,1.546a1.68,1.68,0,0,0,1.217.186.8.8,0,0,0,.787.587c.6-.057,1.346-.63,2.019-.372a7.188,7.188,0,0,0,2.419-.014,2.439,2.439,0,0,0,1.374-2.878,1.466,1.466,0,0,0,.129-2.047,2.551,2.551,0,0,0-.644-2.777,3.4,3.4,0,0,0-2.391-.873" transform="translate(-327.561 -222.388)" fill="#05173e"/>
        <path id="Trazado_604186" data-name="Trazado 604186" d="M302.355,594.234a19.76,19.76,0,0,1-2.647-.444c-.376-.185-2.283,1.636-1.9,2.549.213.515.887.449.887.449l.544-.532,2.881.6Z" transform="translate(-253.813 -506.149)" fill="#f7a491"/>
        <path id="Trazado_604187" data-name="Trazado 604187" d="M407.541,661.715a19.769,19.769,0,0,1-1.522,2.21c-.327.263.517,2.76,1.5,2.8.556.025.782-.613.782-.613l-.251-.718,1.763-2.357Z" transform="translate(-346.04 -564.062)" fill="#f7a491"/>
        <path id="Trazado_604188" data-name="Trazado 604188" d="M393.633,676.175a15.134,15.134,0,0,0,1.062,1.225,12.634,12.634,0,0,0,1.1.89s.7,1.274.894,1.718a7.406,7.406,0,0,1,.837,2.646c-.022.178-.422.366-.755.264-1.386-.426-4.93-3.668-5.377-4.538-.516-1,2.236-2.2,2.236-2.2" transform="translate(-333.582 -576.388)" fill="#07345a"/>
        <path id="Trazado_604189" data-name="Trazado 604189" d="M418.167,469.338c-.129-.36-.252-.693-.371-1.007-1.474.322-3.139.676-4.852,1.041l-.209,6.278c0-.485,1.288,10.013,1.288,10.013s-3.5,6.949-5.775,11.244a9.229,9.229,0,0,0,3,2.471c3.534-4.236,8.049-11.7,8.241-12.991.111-.742.21-12.726-1.327-17.049" transform="translate(-348 -399.217)" fill="#ff5b51"/>
        <path id="Trazado_604190" data-name="Trazado 604190" d="M328.17,477.165c.4,4.352,1.063,10.94,1.184,13.157-2.814.406-9.461,2.405-10.7,2.4a5.031,5.031,0,0,0-.4,3.375c.064.207,13.113.622,16.482-1.527.879-.561,1.149-6.572,1.163-12.911l.209-6.278c-2.854.608-5.478,1.2-7.934,1.782" transform="translate(-271.161 -405.228)" fill="#ff7768"/>
        <path id="Trazado_604191" data-name="Trazado 604191" d="M393.484,336.353l-3.2.483s-2.414.038-3.058.044c-.056,0-2.568,12.254-3.179,16.866s-.138,5.428-.138,5.428a29.55,29.55,0,0,0,7.41.679,24.159,24.159,0,0,0,6.963-2.059s-2.889-8.617-3.444-11.384-1.352-10.056-1.352-10.056" transform="translate(-327.103 -286.715)" fill="#fff8f3"/>
        <path id="Trazado_604192" data-name="Trazado 604192" d="M437.184,267.238s3.182,9.407,2.837,10.106c-.5,1.016-6.733,4.166-6.733,4.166s2.563,10.2,3.7,14.095c.114.392.619,2.925.619,3.172,0,.547-2.384,1.243-2.667,1.2-.253-.037-2.758-10.664-4.085-15.913A14.68,14.68,0,0,0,429,279.007l-.923-1.312s1.857-.669,2.688-.94c1.236-.4,5.408-1.972,5.408-1.972s-1.466-6.635-1.585-7.269c-.032-.169,2.254-.921,2.6-.276" transform="translate(-364.902 -227.582)" fill="#012968"/>
        <path id="Trazado_604193" data-name="Trazado 604193" d="M333.3,237.654s-4.553-6.741-5.82-9.133c-1.038-1.959-3.38-7.842-3.467-8.162s-2.718-.605-3.526-.238c-.218.1,2.153,7.927,3.13,10.48.9,2.359,4.11,9.228,4.11,9.228s1.849,4.22,1.561,7.481c-.479,5.416-1.429,13.22-1.2,13.454,1.436.9,5.955.872,6.3.31,3.852-6.2-1.094-23.42-1.094-23.42" transform="translate(-273.175 -187.489)" fill="#012968"/>
        <path id="Trazado_604194" data-name="Trazado 604194" d="M410.226,312.322l.238,1.769s.534,2.548-.153,3.04-2.922-3.112-2.922-3.112l.236-4.482Z" transform="translate(-347.269 -263.856)" fill="#f7a491"/>
        <path id="Trazado_604195" data-name="Trazado 604195" d="M408.471,310.989a5.084,5.084,0,0,0,2.879,2.833l-.2-1.5-2.6-2.786Z" transform="translate(-348.191 -263.856)" fill="#f47458"/>
        <path id="Trazado_604196" data-name="Trazado 604196" d="M384.209,281.754c0,.683.388,1.236.867,1.236s.867-.553.867-1.236-.388-1.236-.867-1.236-.867.553-.867,1.236" transform="translate(-327.509 -239.12)" fill="#05173e"/>
        <path id="Trazado_604197" data-name="Trazado 604197" d="M401.835,266.789c0,.392.472.71,1.055.71s1.055-.318,1.055-.71-.472-.71-1.055-.71-1.055.318-1.055.71" transform="translate(-342.534 -226.812)" fill="#05173e"/>
        <path id="Trazado_604198" data-name="Trazado 604198" d="M406.392,276.89a2.364,2.364,0,0,1,3.094,1.884,17.863,17.863,0,0,1,.192,2.269c.037,2.066-1.032,4.077-1.97,4.077a4.426,4.426,0,0,1-3.625-4.27,3.91,3.91,0,0,1,2.309-3.959" transform="translate(-344.448 -235.919)" fill="#f7a491"/>
        <path id="Trazado_604199" data-name="Trazado 604199" d="M400.988,301.262a.689.689,0,1,1-.675-.825.761.761,0,0,1,.675.825" transform="translate(-340.661 -256.099)" fill="#f7a491"/>
        <path id="Trazado_604200" data-name="Trazado 604200" d="M429.878,267.017c.969.768,1.309,1.934.758,2.605s-1.782.593-2.751-.175-1.309-1.934-.758-2.605,1.782-.593,2.751.175" transform="translate(-363.87 -227.074)" fill="#05173e"/>
        <path id="Trazado_604201" data-name="Trazado 604201" d="M419.726,271.438c0,.334-.4.6-.9.6s-.9-.271-.9-.6.4-.6.9-.6.9.271.9.6" transform="translate(-356.251 -230.865)" fill="#05173e"/>
        <path id="Trazado_604202" data-name="Trazado 604202" d="M439.388,287.839a.768.768,0,1,1-.768-.777.772.772,0,0,1,.768.777" transform="translate(-373.236 -244.698)" fill="#05173e"/>
        <path id="Trazado_604203" data-name="Trazado 604203" d="M283.065,586.441a15.106,15.106,0,0,0-.66,1.48,12.625,12.625,0,0,0-.34,1.376s-.857,1.175-1.179,1.536a7.852,7.852,0,0,1-2.123,1.93c-.17.055-.655-.09-.65-.466a23.46,23.46,0,0,1,2.009-6.951c.691-.892,2.943,1.093,2.943,1.093" transform="translate(-237.07 -498.768)" fill="#07345a"/>
        <path id="Trazado_604204" data-name="Trazado 604204" d="M769.856,407.09c-8.576-4.379-17.445-8.907-24.775-15.469a39.27,39.27,0,0,1-8.857-11.439,35.637,35.637,0,0,1-3.87-13.88l.5-.033a36.87,36.87,0,0,0,12.563,24.981c7.282,6.518,16.121,11.031,24.669,15.4Z" transform="translate(-624.277 -312.217)" fill="#012968"/>
        <path id="Trazado_604205" data-name="Trazado 604205" d="M512.261,268.513a22.293,22.293,0,0,1-5.514-.755,38.678,38.678,0,0,1-13.853-7.049,67.276,67.276,0,0,1-11.143-11.174l.387-.313c8,9.909,16.09,15.814,24.734,18.054,3.363.871,8.171,1.409,11.978-.975l.264.421a12.764,12.764,0,0,1-6.853,1.79" transform="translate(-410.657 -212.443)" fill="#000a53"/>
        <path id="Trazado_604206" data-name="Trazado 604206" d="M1005.063,158.745l.772,13.876,1.824-13.876Z" transform="translate(-856.741 -135.317)" fill="#f5daa2"/>
        <path id="Trazado_604207" data-name="Trazado 604207" d="M1028.381,189.761l13.02-12.806-2.239-1.741Z" transform="translate(-876.618 -149.356)" fill="#f5daa2"/>
        <path id="Trazado_604208" data-name="Trazado 604208" d="M1067.17,262.5l12.89-4.25.069,2.655Z" transform="translate(-909.682 -220.14)" fill="#f5daa2"/>
        <path id="Trazado_604209" data-name="Trazado 604209" d="M777.194,744.051l.516-2.163s1.942,2.24,2.856,3.154c1.022,1.022,2.76,2.722,3.455,2.589.225-.043,3.588-3.391,4.049-3.867a13.061,13.061,0,0,0,1.232-1.847,2.006,2.006,0,0,1,1.853-.451c.39.127-.791,1.668-.791,1.668a27.812,27.812,0,0,0-3.026,4.38c-1.112,2.14-4.817,4.4-5.172,4.027s-4.97-7.489-4.97-7.489" transform="translate(-662.5 -631.993)" fill="#f48c7f"/>
        <path id="Trazado_604210" data-name="Trazado 604210" d="M686.261,674.261a5.642,5.642,0,0,0-.2-4.229,3.9,3.9,0,0,0-3.068-2.059c-3.677-.43-2.891,2.953-8.031,3.685-1.6.228-3.888.037-5.221.819-2.408,1.413-3.122,4.838-1.526,8.531,3.91,9.044,14.12.618,15.306-1.162a30.667,30.667,0,0,0,2.74-5.585" transform="translate(-568.875 -569.364)" fill="#05173e"/>
        <path id="Trazado_604211" data-name="Trazado 604211" d="M683.2,1097.9s-.262,2.62-.935,3.1-1.571,2.261-1.122,3.223a1.126,1.126,0,0,0,.74.571,1.971,1.971,0,0,0,2.354-1.087,5.444,5.444,0,0,0,.462-2,7.143,7.143,0,0,1,.774-3.211Z" transform="translate(-580.522 -935.874)" fill="#f7a491"/>
        <path id="Trazado_604212" data-name="Trazado 604212" d="M763.612,1105.162a21.749,21.749,0,0,1,.04,3.5c-.092.46-.606,1.407-.37,1.84a1.174,1.174,0,0,0,.5.541l6.106.1c.333.005.113-.205-.155-.4a12.368,12.368,0,0,0-2.2-1.194c-.092-.043-.424-.252-.545-.324a4.194,4.194,0,0,1-.873-.759c-.438-.48-.477-2.808-.477-2.808Z" transform="translate(-650.589 -942.067)" fill="#f7a491"/>
        <path id="Trazado_604213" data-name="Trazado 604213" d="M764.525,863.226a25.411,25.411,0,0,1,.264,7.106c-.5,2.814-2.928,28.9-2.928,28.9l-2.693.149s-.565-10.9-.464-12.41a23.158,23.158,0,0,1,.9-4.051l-.268-8.8,3.4-11.556Z" transform="translate(-646.728 -735.271)" fill="#ff5b51"/>
        <path id="Trazado_604214" data-name="Trazado 604214" d="M701.042,855.31a19.476,19.476,0,0,0-2.625,5.736c-.5,2.6.371,10.58-.6,13.984-.526,1.843-2.518,4.688-2.821,7.069s-1.491,8.618-1.491,8.618l2.692.525,6.255-15.576,4.907-14.078,1.257-7.251Z" transform="translate(-591.16 -728.257)" fill="#ff7768"/>
        <path id="Trazado_604215" data-name="Trazado 604215" d="M738.96,739.931a6.691,6.691,0,0,0-2.717,1.649c-1.111,1.19,1.544,10.509,1.746,12.025s-1.655,5.05-1.655,5.05,6.938,1.264,8.823.037c0,0,.2-10.9,0-11.977a31.688,31.688,0,0,0-2.289-5.917c-.4-.433-3.909-.866-3.909-.866" transform="translate(-627.362 -630.735)" fill="#fff8f3"/>
        <path id="Trazado_604216" data-name="Trazado 604216" d="M869.8,743.659a9.9,9.9,0,0,1-.028,1.867c-.121.308-.29.111-.317.036a5.993,5.993,0,0,1-.078-1.294Z" transform="translate(-741.076 -633.913)" fill="#f48c7f"/>
        <path id="Trazado_604217" data-name="Trazado 604217" d="M866.668,749.236a3.529,3.529,0,0,0,.147,1.093c.086.085.215.06.282-.125a9.348,9.348,0,0,0-.006-1.377Z" transform="translate(-738.77 -638.318)" fill="#f48c7f"/>
        <path id="Trazado_604218" data-name="Trazado 604218" d="M866.825,737.728l-1.5-1a.651.651,0,0,1-.179-.9l.106-.158a.651.651,0,0,1,.9-.179l1.5,1a.651.651,0,0,1,.179.9l-.106.158a.651.651,0,0,1-.9.179" transform="translate(-737.382 -626.853)" fill="#05173e"/>
        <path id="Trazado_604219" data-name="Trazado 604219" d="M849.159,734.429a.317.317,0,0,1-.087-.44l5-7.472a.317.317,0,0,1,.527.352l-5,7.472a.317.317,0,0,1-.44.087" transform="translate(-723.725 -619.181)" fill="#05173e"/>
        <path id="Trazado_604220" data-name="Trazado 604220" d="M874.873,715.491l-2.277-1.523,1.552-2.32a1.2,1.2,0,0,1,1.658-.329l.29.194a1.2,1.2,0,0,1,.329,1.658Z" transform="translate(-743.823 -606.173)" fill="#ffbf91"/>
        <rect id="Rectángulo_47756" data-name="Rectángulo 47756" width="0.558" height="3.2" transform="translate(128.429 107.807) rotate(-56.213)" fill="#05173e"/>
        <path id="Trazado_604221" data-name="Trazado 604221" d="M858.758,744.277s.16-.419.442-.47.712.3.74.31.629-.116,1.012-.2a.219.219,0,0,1,.136.413c-.441.2-2.076.919-2.274.571-.229-.4-.055-.629-.055-.629" transform="translate(-731.973 -634.035)" fill="#f7a491"/>
        <path id="Trazado_604222" data-name="Trazado 604222" d="M734.632,748.441c1.412-2.926,9.516,5.743,10.353,6.078s6.22-3,6.22-3a3.967,3.967,0,0,1,.433-1.652c.384-.566,1.9-1.211,2-.978s-.476.733-.6.891c-.065.086-.052.055.094.076.425.059.925-.458.925-.458a2.5,2.5,0,0,1-.585,1.926c-.767.877-1.088,1.233-1.088,1.233s-6,5.486-7.511,5.385c-1.411-.094-12.18-5.493-10.243-9.5" transform="translate(-626.021 -637.476)" fill="#f7a491"/>
        <path id="Trazado_604223" data-name="Trazado 604223" d="M756.6,714.577s-.015.081-.041.22a20.678,20.678,0,0,1-.933,3.471c-.394.731,1.347,3.065,3.023,2.78.5-.085-.422-2.144-.377-2.362.085-.418.2-.987.317-1.571l.2-.977.325-1.622Z" transform="translate(-644.067 -609.07)" fill="#f7a491"/>
        <path id="Trazado_604224" data-name="Trazado 604224" d="M761.833,714.8c.026-.138.041-.22.041-.22l2.511-.062-.325,1.622-.2.972a2.368,2.368,0,0,1-1.2-.591,3.113,3.113,0,0,1-.908-1.328c.031-.156.057-.291.076-.393" transform="translate(-649.341 -609.07)" fill="#f47458"/>
        <path id="Trazado_604225" data-name="Trazado 604225" d="M757.8,675.081a2.975,2.975,0,0,0-1.766,1.083c-.742.944-1.541,3.861.3,5.447s3.663-.209,3.933-2.113.215-4.486-2.469-4.418" transform="translate(-643.762 -575.455)" fill="#f7a491"/>
        <path id="Trazado_604226" data-name="Trazado 604226" d="M787.675,694.608c-.22.42-.589.653-.825.52s-.248-.582-.028-1,.589-.653.824-.52.248.582.028,1" transform="translate(-670.573 -591.214)" fill="#f7a491"/>
        <path id="Trazado_604227" data-name="Trazado 604227" d="M751.84,674.62s-1.581,2.775-2.712,2.9-1.279,1.6-1.279,1.6.4-3.4,1.524-4.052a4.223,4.223,0,0,1,2.467-.453" transform="translate(-637.485 -575.038)" fill="#05173e"/>
        <path id="Trazado_604228" data-name="Trazado 604228" d="M752.192,694.418c.092.493-.093.945-.413,1.009s-.654-.282-.746-.775.093-.945.413-1.009.654.282.746.775" transform="translate(-640.179 -591.272)" fill="#f7a491"/>
        <path id="Trazado_604229" data-name="Trazado 604229" d="M684.422,1127.074a3.029,3.029,0,0,1-2.951-1.212,2.749,2.749,0,0,0-.327,2.2,1.788,1.788,0,0,0,2.884-.1,4.776,4.776,0,0,0,.394-.879" transform="translate(-580.521 -959.713)" fill="#65b3c6"/>
        <path id="Trazado_604230" data-name="Trazado 604230" d="M766.919,1131.917a5.615,5.615,0,0,1-3.476-.134,2.72,2.72,0,0,0-.279,1.429c.148.425.359.556.546.561,1.475.038,5.4.055,6.528.069a.18.18,0,0,0,.143-.3,29.764,29.764,0,0,0-3.46-1.628" transform="translate(-650.51 -964.76)" fill="#65b3c6"/>
        <path id="Trazado_604231" data-name="Trazado 604231" d="M1024.259,783.213a2.754,2.754,0,0,1,1.35-.172,20.729,20.729,0,0,0,1.592-1.933s4.215-5.505,4.431-5.811l1.33-7.123,3.993-.031s-1.668,7.693-1.831,8.074-6.843,7.1-7.409,7.717c0,0-.366.994-.618,1.609a5.031,5.031,0,0,1-.892,1.224,5.35,5.35,0,0,1-1.026,1.033c-.554.429-.261-.239-.261-.239s.858-.985.757-1.044c-.077-.045-.51.522-1.117,1-.156.124-.311.245-.454.356-.376.29-.694.136-.358-.232a4.3,4.3,0,0,1,.491-.47,3.492,3.492,0,0,0,.43-.469,4.559,4.559,0,0,0,.44-.486c-.025-.007-.018-.1-.188.025a10.873,10.873,0,0,1-.878.772c-.182.113-.547.372-.547.372a4.154,4.154,0,0,1-.672.255c-.184-.171.182-.49.454-.61a2.912,2.912,0,0,1,.516-.427s.651-.711.537-.81a10.178,10.178,0,0,0-1.027.648c-.482.283-1.026.489-1.109.4-.141-.149.354-.521.354-.521s.363-.241.476-.331c.133-.105.5-.451.5-.451s1.219-1.266,1.1-1.352a1,1,0,0,0-.6-.151c-.107.051-.241.247-.348.3a.34.34,0,0,1-.39-.1c-.089-.127.308-.57.308-.57a1.768,1.768,0,0,1,.664-.453" transform="translate(-871.319 -654.784)" fill="#f48c7f"/>
        <path id="Trazado_604232" data-name="Trazado 604232" d="M1060.258,1114.016s-.037,2.458-.036,2.463c.052.312.437,1.083.437,1.367,0,1.066-4.843-.9-3.757-1.377.1-.043.613-.366.645-.729.05-.559.176-1.689.176-1.689Z" transform="translate(-900.794 -949.615)" fill="#f7a491"/>
        <path id="Trazado_604233" data-name="Trazado 604233" d="M1034.639,1130.314s1.137.326,1.719.407,1.35-.6,1.762-.419c.453.2.407,2.213.407,2.213s-5.814.083-7.783-.029c-.711-.04,1.57-1.413,3.895-2.172" transform="translate(-878.52 -963.47)" fill="#ff5b51"/>
        <path id="Trazado_604234" data-name="Trazado 604234" d="M1133.277,1114.016s.142,2.458.143,2.463c.052.312.258,1.083.258,1.367,0,1.066-4.843-.9-3.757-1.377.1-.043.765-.607.8-.97.05-.559.023-1.448.023-1.448Z" transform="translate(-963.037 -949.615)" fill="#f7a491"/>
        <path id="Trazado_604235" data-name="Trazado 604235" d="M1106.22,1130.314s1.137.326,1.719.407,1.35-.6,1.762-.419c.453.2.441,2.184.441,2.184s-6.493.069-8.076,0c-.712-.031,1.83-1.413,4.154-2.172" transform="translate(-939.325 -963.47)" fill="#ff5b51"/>
        <path id="Trazado_604236" data-name="Trazado 604236" d="M1064.877,873.607l-2.047.865-4.307,20.137.175,15.1,3.452.079s1.606-13.205,1.606-14.229,7.438-17.909,7.438-17.909Z" transform="translate(-902.312 -744.684)" fill="#ffbf91"/>
        <path id="Trazado_604237" data-name="Trazado 604237" d="M1112.287,877.218s1.508,15.515,1.508,18.13,1.223,17.253,1.223,17.253l3.461-.02s.25-4.461.621-11.025c.058-1.028-.075-3.1,0-4.166.538-7.654,1.6-14.86,1.095-17.716a5.549,5.549,0,0,0-.535-1.965c-2.266-2.3-7.372-.49-7.372-.49" transform="translate(-948.141 -747.188)" fill="#ffe1c8"/>
        <path id="Trazado_604238" data-name="Trazado 604238" d="M1083.683,735.311l4.188-.275s.207-3.665.207-5.413c0-2.121.66-5.248.4-5.189a5.111,5.111,0,0,0-2.556,1.61c-2.01,2.74-2.24,9.267-2.24,9.267" transform="translate(-923.759 -617.525)" fill="#ff5b51"/>
        <path id="Trazado_604239" data-name="Trazado 604239" d="M1093.1,723.24a11.223,11.223,0,0,1,3.016.777,8.314,8.314,0,0,1,1.493,1.648s-2.932,13.569-2.937,15.852c0,1.767.635,6.1.635,6.1s-8.86.548-12.215-.749a65.228,65.228,0,0,0,1.06-6.513c0-1.354,1.267-13.672,1.556-14.532a3.289,3.289,0,0,1,2.359-2.529,24.384,24.384,0,0,1,5.033-.058" transform="translate(-923.258 -616.411)" fill="#ff7768"/>
        <path id="Trazado_604240" data-name="Trazado 604240" d="M1126.422,697.838l.591,3.789s-2.159,4.512-3.447,4.12c-1.081-.328-.416-4.32-.416-4.32a10.655,10.655,0,0,0,.413-3.217c-.177-1.073,2.859-.373,2.859-.373" transform="translate(-957.228 -594.663)" fill="#f7a491"/>
        <path id="Trazado_604241" data-name="Trazado 604241" d="M1126.679,698.21c-.177-1.073,2.86-.373,2.86-.373l.049.314a1.735,1.735,0,0,1-.329.528,4.049,4.049,0,0,1-2.655,1.168,5.692,5.692,0,0,0,.076-1.638" transform="translate(-960.345 -594.662)" fill="#f47458"/>
        <path id="Trazado_604242" data-name="Trazado 604242" d="M1119.92,655.973c.086-.03.688,4.315-.455,5.511s-3.369,1.587-4.167.645c-.883-1.042-.839-5.713.937-6.943s3.684.786,3.684.786" transform="translate(-950.228 -558.159)" fill="#f7a491"/>
        <path id="Trazado_604243" data-name="Trazado 604243" d="M1120.576,641.577a4.961,4.961,0,0,1,2.589,1.436,3.223,3.223,0,0,1,2.346,1.816,3.463,3.463,0,0,1-.971,4.594,2.719,2.719,0,0,0-1.236,2.025l-.2-.558a3.067,3.067,0,0,1-.157-1.325,2.529,2.529,0,0,1,.2-.8c.3-.629-.647-1.047-.913-1.57-.2-.4-.215-1.325-.537-1.991l-.385-.508a2.5,2.5,0,0,0-1.758-.483c-.869.19-.745-2.988,1.017-2.638" transform="translate(-953.892 -546.873)" fill="#05173e"/>
        <path id="Trazado_604244" data-name="Trazado 604244" d="M1141.153,679.566c-.009.53.239.964.553.969s.577-.42.587-.951-.239-.964-.554-.97-.577.42-.586.951" transform="translate(-972.747 -578.469)" fill="#f7a491"/>
        <path id="Trazado_604245" data-name="Trazado 604245" d="M1088.35,735.73c-.8-.023-1.514,5.166-1,5.678s.607,6.9.607,6.9l-7.579-.185v0c-.148-.1-1.736-1.141-1.963-1.369a1.86,1.86,0,0,0-1.7.21c-.306.329.68.06.953.239s-.2.628-.2.628-1.921.273-2.3-.116-1.375-1.047-1.511-.659c-.07.2.446.809.736,1.064-.363-.266-.8-.548-.946-.5-.272.09-.159.429-.011.529s1.672,1.24,1.911,1.32,3.779.164,4.392.3c0,0,10,2.229,10.564,2.089.5-.122,1-3.254,1-5.654s-.431-10.407-2.942-10.478" transform="translate(-914.886 -627.154)" fill="#f7a491"/>
        <path id="Trazado_604246" data-name="Trazado 604246" d="M1161.865,727.709a6.127,6.127,0,0,1,2.843,1.9c1.314,1.445,2.141,9.538,2.141,9.538l-4.535.718-.362-3.915-1.212-1.791Z" transform="translate(-989.443 -620.317)" fill="#ff7768"/>
        <path id="Trazado_604247" data-name="Trazado 604247" d="M1638.426,1124.728s.834.825.853,1.127.074,3.544-.266,3.847-1.34.517-1.019.858c.243.257,2.112.2,3.35.133.362-.02.815-2.944.958-3.374.208-.624.957-1.982.768-2.417a5.769,5.769,0,0,0-1.4-1.1,5.73,5.73,0,0,1-1.278-1.38Z" transform="translate(-1396.213 -956.779)" fill="#f7a491"/>
        <path id="Trazado_604248" data-name="Trazado 604248" d="M1547.593,1151.519s.746,2.136.747,2.142c.055.339.274,1.175.274,1.482,0,1.156-5.143-.981-3.99-1.493a1.238,1.238,0,0,0,.466-.81,2.731,2.731,0,0,0-.433-1.366Z" transform="translate(-1316.532 -981.544)" fill="#f7a491"/>
        <path id="Trazado_604249" data-name="Trazado 604249" d="M1502.662,876.947l-1.862,4.822s-1.215,11.507-.507,18.4c.3,2.881,6.7,18.3,6.7,18.3l3.181-.455-4.261-18.262,1.568-6.984,2.219-13.8Z" transform="translate(-1278.699 -747.531)" fill="#f7ede7"/>
        <path id="Trazado_604250" data-name="Trazado 604250" d="M1529.115,878.65l1.6,5.369,2.429,16.205,8.216,15.159s-1.235,1.9-2.562,2.2l-11.661-15.321-6.32-19.181.222-4.261Z" transform="translate(-1296.381 -748.983)" fill="#fff8f3"/>
        <path id="Trazado_604251" data-name="Trazado 604251" d="M1639.718,1131.63s-1.756,5.377-2.508,5.642c-.2.07-1.323.355-1.5.784a.2.2,0,0,0-.011.038.447.447,0,0,0,.449.523h3.568s.507-2.416.707-3.478a15.916,15.916,0,0,0,.943-2.829c-.118-.236-1.642-.681-1.642-.681" transform="translate(-1394.299 -964.629)" fill="#016589"/>
        <path id="Trazado_604252" data-name="Trazado 604252" d="M1525.888,1168.033l-.574-1.886a5.162,5.162,0,0,1-1.87.442,18.524,18.524,0,0,1-1.826-.442c-2.468.823-4.49,1.223-4.123,1.886Z" transform="translate(-1293.514 -994.052)" fill="#016589"/>
        <path id="Trazado_604253" data-name="Trazado 604253" d="M1554.984,665.772c.1-.034.764,4.791-.5,6.119s-3.74,1.762-4.626.716c-.98-1.157-.931-6.342,1.041-7.708s4.09.872,4.09.872" transform="translate(-1320.601 -566.4)" fill="#f7a491"/>
        <path id="Trazado_604254" data-name="Trazado 604254" d="M1555.713,649.789a5.509,5.509,0,0,1,2.874,1.594c.692.08,1.633.452,2.6,2.016a3.845,3.845,0,0,1-1.078,5.1,3.018,3.018,0,0,0-1.372,2.248l-.219-.619a3.4,3.4,0,0,1-.174-1.471,2.813,2.813,0,0,1,.225-.885c.334-.7-.718-1.162-1.014-1.743-.227-.447-.238-1.471-.6-2.21l-.428-.565a2.769,2.769,0,0,0-1.952-.536c-.965.211-.827-3.317,1.129-2.929" transform="translate(-1324.669 -553.87)" fill="#ff5b51"/>
        <path id="Trazado_604255" data-name="Trazado 604255" d="M1578.557,691.966c-.01.589.265,1.071.615,1.076s.641-.467.651-1.055-.265-1.07-.614-1.076-.641.467-.651,1.055" transform="translate(-1345.602 -588.949)" fill="#f7a491"/>
        <path id="Trazado_604256" data-name="Trazado 604256" d="M1581.978,725.3s2.586,18.571,1.4,19.954l-1.707.974s-.457-17.976-.8-20.3Z" transform="translate(-1347.573 -618.266)" fill="#012968"/>
        <path id="Trazado_604257" data-name="Trazado 604257" d="M1485.153,769.665c.634.535-.326,2.681-.959,3.848a10.776,10.776,0,0,0,4.308-1.315c-.2-1.332-.388-2.9-1.307-3.86a10.977,10.977,0,0,1-2.041,1.327" transform="translate(-1265.164 -654.95)" fill="#f48c7f"/>
        <path id="Trazado_604258" data-name="Trazado 604258" d="M1505.859,735.074a2.681,2.681,0,0,0-1.432-.262c-.81.048-2.873,2.469-5.132,4.4.919.96,1.879,4.161,2.079,5.493a12.538,12.538,0,0,0,3.641-3.418c.9-1.345.844-6.21.844-6.21" transform="translate(-1278.037 -626.367)" fill="#ff5b51"/>
        <path id="Trazado_604259" data-name="Trazado 604259" d="M1505.859,735.109s1.214-.6,6.218.014c.253.031.726,5.821.726,5.821s-.576,15.617-.059,18.042c0,0-9.164,2.254-13.449.236,0,0,2.081-11.9,2.591-14.426a39.961,39.961,0,0,1,1.86-6.646,7.379,7.379,0,0,1,2.113-3.041" transform="translate(-1278.037 -626.401)" fill="#ff7768"/>
        <path id="Trazado_604260" data-name="Trazado 604260" d="M1556.9,736.21a1.935,1.935,0,0,1,2.619-.432c2.377,1.354.018,10.749-.844,13.634-.38,1.271-1.835.1-3.028-1.26a22.193,22.193,0,0,1-2.88-5.229c-.177-1.117,1.167-3.09,1.167-3.09s2.185,4.509,2.649,4.045-.688-5.66.318-7.669" transform="translate(-1323.606 -626.916)" fill="#f7a491"/>
        <path id="Trazado_604261" data-name="Trazado 604261" d="M1577.988,735.779a1.935,1.935,0,0,0-2.619.432c-.94,1.878-.619,6.148-.952,7.074a18.567,18.567,0,0,1,4.438,1.133c.789-3.324.7-7.749-.866-8.639" transform="translate(-1342.073 -626.916)" fill="#ff7768"/>
        <path id="Trazado_604262" data-name="Trazado 604262" d="M1479.584,717.4a17.37,17.37,0,0,0-1.022,2.018,13.324,13.324,0,0,1-1.216,2.742c-.651,1.257-2.925,5.825-3.81,6.3s-4.529.558-2.21-2.837c.473-.693,4.955-5.242,5.1-5.86a4.639,4.639,0,0,0-.042-1.736c-.076-.7.313-1.64.583-1.69s-.3.825-.227.929.581-1.342,1-1.492-.487,1.151-.547,1.407-.14.428-.026.454.3-.66.536-1.04.62-.933.921-.733-.59.74-.655,1.021-.289.811-.159.893.729-1.8,1.095-1.8.036.487-.183.914-.462,1.127-.282,1.169.372-.1.7-.445.512-.511.442-.214" transform="translate(-1253.548 -610.128)" fill="#f48c7f"/>
        <path id="Trazado_604263" data-name="Trazado 604263" d="M1590.257,711.859h0a1.2,1.2,0,0,0,1.437-.894l.574-2.461a1.2,1.2,0,1,0-2.331-.543l-.573,2.461a1.2,1.2,0,0,0,.894,1.437" transform="translate(-1354.787 -602.695)" fill="#012968"/>
        <path id="Trazado_604264" data-name="Trazado 604264" d="M1564.51,698.356l3.919.914a1.232,1.232,0,0,0,1.475-.917l.559-2.4a1.232,1.232,0,0,0-.917-1.475l-3.919-.914a1.232,1.232,0,0,0-1.475.917l-.559,2.4a1.232,1.232,0,0,0,.917,1.475" transform="translate(-1332.819 -591.184)" fill="#012968"/>
        <path id="Trazado_604265" data-name="Trazado 604265" d="M1511.759,684.864a12.79,12.79,0,0,0-2.575-.539,8.77,8.77,0,0,0-1.663,0,19.79,19.79,0,0,0-2.484.39,3.606,3.606,0,0,0-.693.2,3.089,3.089,0,0,0-1.511,1.862c-.308.971-.84,3.914-.338,4.415a12.18,12.18,0,0,0,3.173,1.587,25.587,25.587,0,0,0,3.426.232,1.247,1.247,0,0,1,1.542-.692c1.121.331,1.169.939,1.169.939a18.616,18.616,0,0,0,2.437.1c.828-.067,1.53-.4,1.69-.9a39.947,39.947,0,0,0,1.076-4.326,1.181,1.181,0,0,0-.039-.827c-.189-.334-.62-.469-.967-.629-.47-.217-.935-.444-1.4-.661a23.1,23.1,0,0,0-2.839-1.136" transform="translate(-1280.588 -583.3)" fill="#016589"/>
        <path id="Trazado_604266" data-name="Trazado 604266" d="M1580.647,708.567l-.369-.109a.171.171,0,0,1-.128-.208l.518-1.631a.18.18,0,0,1,.226-.1l.369.109a.17.17,0,0,1,.127.207l-.518,1.631a.18.18,0,0,1-.226.1" transform="translate(-1346.955 -602.245)" fill="#012968"/>
        <path id="Trazado_604267" data-name="Trazado 604267" d="M1585.928,718.691l.473.14-.511,1.607-.5-.062Z" transform="translate(-1351.429 -612.63)" fill="#012968"/>
        <path id="Trazado_604268" data-name="Trazado 604268" d="M1503.255,701.824l1.386.173s1.49.461,1.45,1.73c-.045,1.438-.662,2.287-1.345,2.34a10.46,10.46,0,0,1-1.672-.068Z" transform="translate(-1281.257 -598.252)" fill="#012968"/>
        <path id="Trazado_604269" data-name="Trazado 604269" d="M1512.94,687.462c1.161-.529,5.073.069,6.217.26-.292-.118-.587-.23-.886-.333-1.786-.261-4.473-.537-5.437-.1a4.458,4.458,0,0,0-2.544,2.726c-.241.759-.695,2.948-.926,4.093l.2.106c.226-1.124.69-3.372.934-4.138a4.26,4.26,0,0,1,2.443-2.616" transform="translate(-1286.621 -585.667)" fill="#012968"/>
        <path id="Trazado_604270" data-name="Trazado 604270" d="M1522.823,693.422c1.295-.59,6.429.269,6.956.359q-.314-.149-.629-.3c-1.825-.287-5.347-.728-6.432-.234a4.459,4.459,0,0,0-2.544,2.726c-.229.722-.651,2.739-.89,3.92l.2.084c.237-1.171.664-3.22.894-3.943a4.259,4.259,0,0,1,2.443-2.616" transform="translate(-1295.075 -590.753)" fill="#012968"/>
        <path id="Trazado_604271" data-name="Trazado 604271" d="M1531.268,704.3c.564-1.689,1.1-4.391,2.832-4.553a8.913,8.913,0,0,1,1.391.06l-.859,2.836a.873.873,0,0,0,.933,1.042l.982-.02a.823.823,0,0,0,.8-.565l.824-2.961c.67.095,1.33.194,1.905.283l-1.323,4.163.206.061,1.331-4.191c.523.082.962.153,1.254.2a.87.87,0,0,0-.029-.2,60.3,60.3,0,0,0-7.452-.9c-1.467.138-2.112,1.87-2.516,3.142l-.54,1.7.089.036a1.377,1.377,0,0,1,.671.582.575.575,0,0,1-.057.528,1.758,1.758,0,0,1-.3.39l.273.016a2.028,2.028,0,0,0,.222-.311c.316-.54-.02-1.034-.637-1.339m6.69-4.192-.817,2.936a.626.626,0,0,1-.611.43l-.982.02a.664.664,0,0,1-.71-.792l.87-2.873c.673.069,1.462.17,2.249.28" transform="translate(-1305.072 -596.312)" fill="#012968"/>
        <path id="Trazado_604272" data-name="Trazado 604272" d="M1551.651,733.972c-1.38-.049-6.707-.2-7.307.438a2.058,2.058,0,0,0-.486.9c.42.012.714.016.714.016a1.247,1.247,0,0,1,1.542-.692c1.121.331,1.169.939,1.169.939a18.651,18.651,0,0,0,2.437.1c.828-.067,1.53-.4,1.69-.9q.126-.4.24-.794" transform="translate(-1316.023 -625.613)" fill="#012968"/>
        <path id="Trazado_604273" data-name="Trazado 604273" d="M1518.2,710.266a42.683,42.683,0,0,1-1.119,4.339c-.227.594-1.127.844-1.841.863-.37.005-.848-.042-2.1-.164-.088-.412-.6-.956-1.661-1.03a1.368,1.368,0,0,0-1.233.771,19.9,19.9,0,0,1-3.323-.25,15.6,15.6,0,0,1-2.524-.98,3.833,3.833,0,0,1-.715-.48,10.025,10.025,0,0,0,2.273,1.268,4.775,4.775,0,0,0,1.146.4,29.946,29.946,0,0,0,3.209.19,1.158,1.158,0,0,1,.1-.192,1.234,1.234,0,0,1,.609-.5,1.765,1.765,0,0,1,1.9.814.426.426,0,0,1,.026.124c.177.011,1.135.121,2.143.113a3.378,3.378,0,0,0,1.529-.241,1.207,1.207,0,0,0,.594-.7,42.808,42.808,0,0,0,.98-4.343" transform="translate(-1281.781 -605.448)" fill="#012968"/>
        <path id="Trazado_604274" data-name="Trazado 604274" d="M1542.957,682.052a.525.525,0,0,1-.394-.64l.751-2.363a1.044,1.044,0,0,1,1.174-.657c.74.1,2.1.3,2.908.435a1.786,1.786,0,0,1,1.322.97l.357.775c.121.263.208.765-.3.646-.3-.069-.621-.042-.741-.3l-.357-.775a.589.589,0,0,0-.436-.32c-.778-.134-2.1-.322-2.84-.425l-.743,2.34a.552.552,0,0,1-.7.318" transform="translate(-1314.902 -578.268)" fill="#012968"/>
        <path id="Trazado_604275" data-name="Trazado 604275" d="M1496.282,676.855s.97.327,1.2.706.031.267.32.736,5.627,2.214,6.343,2.125.744-.862,1.181-.9,2.2.508,1.991,1.783-.8,1.3-2.037,1.477c-1.143.161-8.75-2.907-9.22-3.407s.03-1.159.073-1.295-.544-.649-.544-.649Z" transform="translate(-1274.879 -576.968)" fill="#000a53"/>
        <path id="Trazado_604276" data-name="Trazado 604276" d="M1461.634,664.594a4.278,4.278,0,0,1-1.949-.191,17.558,17.558,0,0,1-3.2-1.117,1.245,1.245,0,0,1-.537-1.638,1.174,1.174,0,0,1,.581-.5,1.749,1.749,0,0,1,.928-.071,15.092,15.092,0,0,1,2.427.538,13.82,13.82,0,0,1,1.829.68,1.465,1.465,0,0,1,.96,1.145,1.213,1.213,0,0,1-.973,1.138l-.062.017" transform="translate(-1240.976 -563.493)" fill="#65b3c6"/>
        <path id="Trazado_604277" data-name="Trazado 604277" d="M1466.485,663.276c.817.481.239,1.856-.42,2.039a1.652,1.652,0,0,0,.649-.954.993.993,0,0,0-.229-1.085" transform="translate(-1249.711 -565.393)" fill="#016589"/>
        <path id="Trazado_604278" data-name="Trazado 604278" d="M1461.927,689.07l6.232,1.453a2.183,2.183,0,0,1,1.6,2.5,2.9,2.9,0,0,1-1.791,2.272l-4.221-.165Z" transform="translate(-1246.183 -587.38)" fill="#000a53"/>
        <path id="Trazado_604279" data-name="Trazado 604279" d="M1450.308,678.017l1.915.128,5.727,2.759-1.094,4.659-.552.334-1.8.216Z" transform="translate(-1236.279 -577.958)" fill="#65b3c6"/>
        <path id="Trazado_604280" data-name="Trazado 604280" d="M1453.75,678.924l5.182,2a.7.7,0,0,1,.437.823l-1.063,4.341a.723.723,0,0,1-.965.493l-5.61-2.173,1.05-4.968a.723.723,0,0,1,.969-.515" transform="translate(-1237.492 -578.689)" fill="#65b3c6"/>
        <path id="Trazado_604281" data-name="Trazado 604281" d="M1441.164,678.027l5.173,2.038a.73.73,0,0,1,.428.86l-1.12,4.578a.737.737,0,0,1-.974.53l-5.031-1.99a.737.737,0,0,1-.437-.846l.983-4.616a.738.738,0,0,1,.979-.553" transform="translate(-1226.798 -577.925)" fill="#05173e"/>
        <path id="Trazado_604282" data-name="Trazado 604282" d="M1444.049,681.192l4.575,1.8a.645.645,0,0,1,.378.76l-.99,4.049a.651.651,0,0,1-.862.469l-4.285-1.695a.865.865,0,0,1-.513-.993l.831-3.9a.653.653,0,0,1,.866-.489" transform="translate(-1229.48 -580.628)" fill="#012968"/>
        <path id="Trazado_604283" data-name="Trazado 604283" d="M1456.731,684.516l-4.016-1.582c-.007.022-.013.045-.018.068l-.834,3.92a.845.845,0,0,0,.5.97l3.742,1.48c0-.015.01-.031.014-.047l.99-4.049a.645.645,0,0,0-.378-.76" transform="translate(-1237.587 -582.15)" fill="#000a53"/>
        <path id="Trazado_604284" data-name="Trazado 604284" d="M1470.142,688.979l-2.055-.81a2.977,2.977,0,0,0-.426.962,2.793,2.793,0,0,0,2.014,3.425c.049.012.1.022.148.031l.7-2.848a.645.645,0,0,0-.378-.76" transform="translate(-1250.998 -586.612)" fill="#012968"/>
        <path id="Trazado_604285" data-name="Trazado 604285" d="M1543.164,711.1c-.088.376.119,1.966.031,2.862-.409,4.146,2.748,10.188,3.488,11.219s1.9-1.849,1.766-2.9-3.2-5.95-3.02-6.733a5.865,5.865,0,0,1,1.02-1.947c.476-.747.563-2.036.284-2.244s-.119,1.105-.263,1.182.092-1.849-.3-2.255-.092,1.579-.167,1.9-.081.564-.224.531.026-.918-.026-1.48-.182-1.406-.635-1.347.255,1.171.172,1.525-.126,1.082-.32,1.1.183-2.455-.237-2.651-.313.532-.3,1.139-.107,1.537-.333,1.484-.364-.327-.545-.9-.295-.866-.382-.491" transform="translate(-1315.413 -605.077)" fill="#f7a491"/>
        <path id="Trazado_604286" data-name="Trazado 604286" d="M1519.486,747.057s6.885,16.744,10.544,16.744l-1.534,1.794s-3.26-.339-6.862-8.826-3.346-9.535-3.346-9.535Z" transform="translate(-1294.223 -636.81)" fill="#016589"/>
        <rect id="Rectángulo_47757" data-name="Rectángulo 47757" width="6.353" height="12.512" transform="translate(45.246 144.643)" fill="#ff7768"/>
        <path id="Trazado_604287" data-name="Trazado 604287" d="M18.035,1023.469h0a12.564,12.564,0,0,1,25.129,0h0a12.564,12.564,0,1,1-25.129,0" transform="translate(-15.373 -861.72)" fill="#ff5b51"/>
        <path id="Trazado_604288" data-name="Trazado 604288" d="M52.816,787.812c.03-.976-.508-10.994,1.917-18.58a19.737,19.737,0,0,1,4.956-8.124,20.184,20.184,0,0,1,7.613-4.971,25.479,25.479,0,0,1,16.464.837,17.613,17.613,0,0,1,6.719,5.085c2.234,2.712,3.715,7.084,4.362,10.567,1.127,6.054.809,12.677.652,19.2H92.551c-.53-8.1.337-18.284-3.4-25.748l-.14-.274a15.129,15.129,0,0,0-8.6-7.382c-8.126-2.746-16.476,1.238-19.274,8.621-2.552,6.545-2.307,14.218-2.312,20.771Z" transform="translate(-44.995 -643.697)" fill="#ff7768"/>
        <rect id="Rectángulo_47758" data-name="Rectángulo 47758" width="8.968" height="12.932" transform="translate(6.711 139.153)" fill="#ff7768"/>
        <path id="Trazado_604289" data-name="Trazado 604289" d="M54.446,992.121a10.3,10.3,0,0,0-2-.194H47.814a10.285,10.285,0,0,0-2.336.267v5.433h8.968Z" transform="translate(-38.767 -845.543)" fill="#ff5b51"/>
        <path id="Trazado_604290" data-name="Trazado 604290" d="M0,1024.465v-1.991a11.569,11.569,0,0,1,11.569-11.569h0a11.569,11.569,0,0,1,11.569,11.569v1.991a11.569,11.569,0,0,1-11.569,11.569h0A11.569,11.569,0,0,1,0,1024.465" transform="translate(0 -861.72)" fill="#ff7768"/>
        <path id="Trazado_604291" data-name="Trazado 604291" d="M24.508,1051.946h0a6.383,6.383,0,1,1,6.383,6.383,6.383,6.383,0,0,1-6.383-6.383" transform="translate(-20.891 -891.264)" fill="#ff5b51"/>
        <path id="Trazado_604292" data-name="Trazado 604292" d="M8.493,1051.946h0a6.383,6.383,0,1,1,6.383,6.383,6.383,6.383,0,0,1-6.383-6.383" transform="translate(-7.24 -891.264)" fill="#ff7768"/>
        <path id="Trazado_604293" data-name="Trazado 604293" d="M309.346,1001.361l-.2,0h-7.436v7.263h7.64Z" transform="translate(-257.182 -853.582)" fill="#ff5b51"/>
        <path id="Trazado_604294" data-name="Trazado 604294" d="M237.686,1026.261v-2.689a10.969,10.969,0,0,1,10.969-10.969h3.079a10.969,10.969,0,0,1,10.969,10.969v2.689a10.969,10.969,0,0,1-10.969,10.969h-3.079a10.969,10.969,0,0,1-10.969-10.969" transform="translate(-202.61 -863.167)" fill="#ff7768"/>
        <path id="Trazado_604295" data-name="Trazado 604295" d="M258.946,1043.682V1041.4a8.348,8.348,0,0,1,8.348-8.348h2.047a8.348,8.348,0,0,1,8.348,8.348v2.287a8.348,8.348,0,0,1-8.348,8.348h-2.047a8.348,8.348,0,0,1-8.348-8.348" transform="translate(-220.732 -880.595)" fill="#ff5b51"/>
        <path id="Trazado_604296" data-name="Trazado 604296" d="M304.439,1079.8a.5.5,0,1,0,.5.5.5.5,0,0,0-.5-.5" transform="translate(-259.084 -920.451)" fill="#f47458"/>
        <path id="Trazado_604297" data-name="Trazado 604297" d="M319.557,1079.8a.5.5,0,1,0,.5.5.5.5,0,0,0-.5-.5" transform="translate(-271.971 -920.451)" fill="#f47458"/>
        <path id="Trazado_604298" data-name="Trazado 604298" d="M334.674,1079.8a.5.5,0,1,0,.5.5.5.5,0,0,0-.5-.5" transform="translate(-284.857 -920.451)" fill="#f47458"/>
        <path id="Trazado_604299" data-name="Trazado 604299" d="M304.439,1092.115a.5.5,0,1,0,.5.5.5.5,0,0,0-.5-.5" transform="translate(-259.084 -930.946)" fill="#f47458"/>
        <path id="Trazado_604300" data-name="Trazado 604300" d="M319.557,1092.115a.5.5,0,1,0,.5.5.5.5,0,0,0-.5-.5" transform="translate(-271.971 -930.946)" fill="#f47458"/>
        <path id="Trazado_604301" data-name="Trazado 604301" d="M334.674,1092.115a.5.5,0,1,0,.5.5.5.5,0,0,0-.5-.5" transform="translate(-284.857 -930.946)" fill="#f47458"/>
        <path id="Trazado_604302" data-name="Trazado 604302" d="M304.439,1104.427a.5.5,0,1,0,.5.5.5.5,0,0,0-.5-.5" transform="translate(-259.084 -941.441)" fill="#f47458"/>
        <path id="Trazado_604303" data-name="Trazado 604303" d="M319.557,1104.427a.5.5,0,1,0,.5.5.5.5,0,0,0-.5-.5" transform="translate(-271.971 -941.441)" fill="#f47458"/>
        <path id="Trazado_604304" data-name="Trazado 604304" d="M334.674,1104.427a.5.5,0,1,0,.5.5.5.5,0,0,0-.5-.5" transform="translate(-284.857 -941.441)" fill="#f47458"/>
        <path id="Trazado_604305" data-name="Trazado 604305" d="M985.373,638.007h0a2.144,2.144,0,0,1-2.144-2.144v-8.4a1.9,1.9,0,0,1,1.9-1.9h.5a1.9,1.9,0,0,1,1.9,1.9v8.4a2.144,2.144,0,0,1-2.144,2.144" transform="translate(-838.129 -533.248)" fill="#ffbf91"/>
        <path id="Trazado_604306" data-name="Trazado 604306" d="M983.229,690.344V691.4a2.172,2.172,0,0,0,4.289,0v-1.053Z" transform="translate(-838.129 -588.466)" fill="#012968"/>
        <rect id="Rectángulo_47759" data-name="Rectángulo 47759" width="4.289" height="1.015" transform="translate(145.1 100.454)" fill="#13375b"/>
        <path id="Trazado_604307" data-name="Trazado 604307" d="M460.882,251.213a1.529,1.529,0,0,1-.135-.524c.034-.11.324-.53.51-.449.119.052.022.587.022.587l.391.408-.56.316Z" transform="translate(-392.748 -213.302)" fill="#f7a491"/>
        <path id="Trazado_604308" data-name="Trazado 604308" d="M467.913,248.127s.574,1.554.968,1.634l.394.08.313-.08a2,2,0,0,0,.516.08h.258s1-.485.831-.986-1.588-1.074-2.153-.977l-.566.1Z" transform="translate(-398.861 -211.287)" fill="#f7a491"/>
        <path id="Trazado_604309" data-name="Trazado 604309" d="M732.361,368.238a1.343,1.343,0,1,1-1.343-1.343,1.343,1.343,0,0,1,1.343,1.343" transform="translate(-621.992 -312.75)" fill="#000a53"/>
        <rect id="Rectángulo_47760" data-name="Rectángulo 47760" width="0.829" height="6.417" transform="matrix(0.745, -0.667, 0.667, 0.745, 104.855, 51.029)" fill="#000a53"/>
        <path id="Trazado_604310" data-name="Trazado 604310" d="M17.605,1178.983c-.5,0-.909.259-.909.578s.407.578.909.578h255.68c.521,0,.944-.255.946-.569,0,0,0-.008,0-.011,0-.317-.422-.574-.946-.574Z" transform="translate(-14.232 -1004.994)" fill="#f5daa2"/>
      </g>
    </g>
  </g>
</svg>
