<svg xmlns="http://www.w3.org/2000/svg" xmlns:xlink="http://www.w3.org/1999/xlink" width="1030" height="412.46" viewBox="0 0 1030 412.46">
  <defs>
    <clipPath id="clip-path">
      <rect id="Rectángulo_47796" data-name="Rectángulo 47796" width="610" height="293.346" fill="none"/>
    </clipPath>
    <clipPath id="clip-path-2">
      <rect id="Rectángulo_47804" data-name="Rectángulo 47804" width="53.675" height="53.669" fill="none"/>
    </clipPath>
    <clipPath id="clip-path-3">
      <rect id="Rectángulo_47833" data-name="Rectángulo 47833" width="63" height="62.987" fill="none"/>
    </clipPath>
    <clipPath id="clip-path-4">
      <rect id="Rectángulo_47836" data-name="Rectángulo 47836" width="62.465" height="49.997" fill="none"/>
    </clipPath>
    <clipPath id="clip-path-5">
      <rect id="Rectángulo_47837" data-name="Rectángulo 47837" width="60.994" height="60.997" fill="none"/>
    </clipPath>
    <clipPath id="clip-path-6">
      <rect id="Rectángulo_47843" data-name="Rectángulo 47843" width="57.471" height="57.504" fill="none"/>
    </clipPath>
  </defs>
  <g id="Grupo_161768" data-name="Grupo 161768" transform="translate(-285 -7003.999)">
    <text id="Satisfacción_y_fidelización_del_cliente." data-name="Satisfacción y fidelización del cliente." transform="translate(301 7115.459)" fill="#12263f" font-size="16" font-family="Roboto-Regular, Roboto"><tspan x="0" y="15">Satisfacción y </tspan><tspan x="0" y="39">fidelización del cliente.</tspan></text>
    <text id="Reducción_de_tiempo._Reducción_de_costos." data-name="Reducción de tiempo. 
Reducción de costos." transform="translate(1125 7114.459)" fill="#12263f" font-size="16" font-family="Roboto-Regular, Roboto"><tspan x="0" y="15">Reducción de tiempo. </tspan><tspan x="0" y="39">Reducción de costos.</tspan></text>
    <text id="Automatización_de_los_procesos_de_servicio_al_cliente." data-name="Automatización de los procesos de servicio al cliente." transform="translate(317 7282.459)" fill="#12263f" font-size="16" font-family="Roboto-Regular, Roboto"><tspan x="0" y="15">Automatización de los procesos </tspan><tspan x="0" y="39">de servicio al cliente.</tspan></text>
    <text id="Respuesta_eficiente_y_eficaz_al_cliente._Seguridad_de_la_información._" data-name="Respuesta eficiente y eficaz al cliente.
Seguridad de la información. " transform="translate(1028 7282.459)" fill="#12263f" font-size="16" font-family="Roboto-Regular, Roboto"><tspan x="0" y="15">Respuesta eficiente y eficaz al cliente.</tspan><tspan x="0" y="39">Seguridad de la información. </tspan></text>
    <text id="Almacenamiento_de_datos._" data-name="Almacenamiento de datos. " transform="translate(700 7369.459)" fill="#12263f" font-size="16" font-family="Roboto-Regular, Roboto"><tspan x="0" y="15">Almacenamiento de datos. </tspan></text>
    <g id="Grupo_161757" data-name="Grupo 161757" transform="translate(37.729 -42)">
      <g id="Grupo_161756" data-name="Grupo 161756" transform="translate(457.271 7046)">
        <g id="Grupo_161755" data-name="Grupo 161755" clip-path="url(#clip-path)">
          <path id="Trazado_604386" data-name="Trazado 604386" d="M479.66,74.476,592.3,148.21A303.132,303.132,0,0,0,637.449.5H502.724A169.212,169.212,0,0,1,479.66,74.476Z" transform="translate(-27.939 -0.029)" fill="#def8f3"/>
          <path id="Trazado_604387" data-name="Trazado 604387" d="M243.308,150.855a170.8,170.8,0,0,1-73.575-58.482l-113.182,72.9A305.719,305.719,0,0,0,197.9,277.632Z" transform="translate(-3.294 -5.381)" fill="#e2e8ec"/>
          <path id="Trazado_604388" data-name="Trazado 604388" d="M135.244.5H.52A303.136,303.136,0,0,0,44.484,146.306L157.672,73.4A169.2,169.2,0,0,1,135.244.5Z" transform="translate(-0.03 -0.029)" fill="#def8f3"/>
          <path id="Trazado_604389" data-name="Trazado 604389" d="M465.668,93.451a170.775,170.775,0,0,1-73.546,57.76L436.968,278.2A305.675,305.675,0,0,0,578.305,167.183Z" transform="translate(-22.84 -5.443)" fill="#e2e8ec"/>
          <path id="Trazado_604390" data-name="Trazado 604390" d="M366.971,160.506a170.222,170.222,0,0,1-48.991,7.161,170.183,170.183,0,0,1-49.718-7.386L222.849,287.065a304.484,304.484,0,0,0,95.131,15.146,304.494,304.494,0,0,0,93.831-14.736Z" transform="translate(-12.981 -9.336)" fill="#def8f3"/>
          <circle id="Elipse_5667" data-name="Elipse 5667" cx="18.054" cy="18.054" r="18.054" transform="matrix(0.987, -0.16, 0.16, 0.987, 120.51, 19.728)" fill="#144567"/>
          <circle id="Elipse_5668" data-name="Elipse 5668" cx="18.054" cy="18.054" r="18.054" transform="matrix(0.987, -0.16, 0.16, 0.987, 177.684, 106.383)" fill="#144567"/>
          <circle id="Elipse_5669" data-name="Elipse 5669" cx="18.054" cy="18.054" r="18.054" transform="translate(451.721 16.602)" fill="#144567"/>
          <circle id="Elipse_5670" data-name="Elipse 5670" cx="18.054" cy="18.054" r="18.054" transform="translate(393.307 103.258)" fill="#144567"/>
          <circle id="Elipse_5671" data-name="Elipse 5671" cx="18.054" cy="18.054" r="18.054" transform="translate(286.295 139.366)" fill="#144567"/>
        </g>
      </g>
    </g>
    <text id="_01" data-name="01" transform="translate(628 7044.459)" fill="#fff" font-size="16" font-family="Roboto-Bold, Roboto" font-weight="700"><tspan x="0" y="0">01</tspan></text>
    <text id="_02" data-name="02" transform="translate(685 7132.459)" fill="#fff" font-size="16" font-family="Roboto-Bold, Roboto" font-weight="700"><tspan x="0" y="0">02</tspan></text>
    <text id="_03" data-name="03" transform="translate(791 7168.459)" fill="#fff" font-size="16" font-family="Roboto-Bold, Roboto" font-weight="700"><tspan x="0" y="0">03</tspan></text>
    <text id="_04" data-name="04" transform="translate(897 7131.459)" fill="#fff" font-size="16" font-family="Roboto-Bold, Roboto" font-weight="700"><tspan x="0" y="0">04</tspan></text>
    <text id="_05" data-name="05" transform="translate(955 7044.459)" fill="#fff" font-size="16" font-family="Roboto-Bold, Roboto" font-weight="700"><tspan x="0" y="0">05</tspan></text>
    <g id="Rectángulo_47797" data-name="Rectángulo 47797" transform="translate(286 7266.459)" fill="none" stroke="#144567" stroke-width="1" stroke-dasharray="4">
      <rect width="314" height="75" rx="12" stroke="none"/>
      <rect x="0.5" y="0.5" width="313" height="74" rx="11.5" fill="none"/>
    </g>
    <g id="Rectángulo_47798" data-name="Rectángulo 47798" transform="translate(1000 7266.459)" fill="none" stroke="#144567" stroke-width="1" stroke-dasharray="4">
      <rect width="314" height="75" rx="12" stroke="none"/>
      <rect x="0.5" y="0.5" width="313" height="74" rx="11.5" fill="none"/>
    </g>
    <g id="Rectángulo_47799" data-name="Rectángulo 47799" transform="translate(656 7341.459)" fill="none" stroke="#144567" stroke-width="1" stroke-dasharray="4">
      <rect width="289" height="75" rx="12" stroke="none"/>
      <rect x="0.5" y="0.5" width="288" height="74" rx="11.5" fill="none"/>
    </g>
    <g id="Rectángulo_47800" data-name="Rectángulo 47800" transform="translate(285 7099.459)" fill="none" stroke="#144567" stroke-width="1" stroke-dasharray="4">
      <rect width="210" height="75" rx="12" stroke="none"/>
      <rect x="0.5" y="0.5" width="209" height="74" rx="11.5" fill="none"/>
    </g>
    <g id="Rectángulo_47801" data-name="Rectángulo 47801" transform="translate(1105 7098.459)" fill="none" stroke="#144567" stroke-width="1" stroke-dasharray="4">
      <rect width="210" height="75" rx="12" stroke="none"/>
      <rect x="0.5" y="0.5" width="209" height="74" rx="11.5" fill="none"/>
    </g>
    <path id="Sustracción_8" data-name="Sustracción 8" d="M-731.749,11955a133.531,133.531,0,0,1-44.118-7.443,133.569,133.569,0,0,1-37.955-20.655,135.007,135.007,0,0,1-29.288-31.356A134.1,134.1,0,0,1-861.227,11856H-602.27a134.1,134.1,0,0,1-18.118,39.546,135.007,135.007,0,0,1-29.288,31.356,133.566,133.566,0,0,1-37.955,20.655A133.531,133.531,0,0,1-731.749,11955Z" transform="translate(1532.227 -4852)" fill="#91e8d6"/>
    <text id="CRM_y_SAV:" data-name="CRM y SAV:" transform="translate(752 7065.459)" fill="#12263f" font-size="18" font-family="Roboto-Bold, Roboto" font-weight="700"><tspan x="0" y="0">CRM y SAV:</tspan></text>
    <text id="Semejanzas_entre_el" data-name="Semejanzas entre el" transform="translate(718 7039.459)" fill="#12263f" font-size="18" font-family="Roboto-Bold, Roboto" font-weight="700"><tspan x="0" y="0">Semejanzas entre el</tspan></text>
    <path id="Trazado_604391" data-name="Trazado 604391" d="M599.077,65.467H715v29.9" transform="translate(495 7004)" fill="none" stroke="#144567" stroke-width="1" stroke-dasharray="4"/>
    <path id="Trazado_604393" data-name="Trazado 604393" d="M613.077,65.467H772.231v40.625" transform="translate(384.769 7160.367)" fill="none" stroke="#144567" stroke-width="1" stroke-dasharray="4"/>
    <path id="Trazado_604395" data-name="Trazado 604395" d="M772.231,65.467V110.25" transform="translate(27.769 7231.879)" fill="none" stroke="#144567" stroke-width="1" stroke-dasharray="4"/>
    <path id="Trazado_604394" data-name="Trazado 604394" d="M772.232,65.467H613.077v40.625" transform="translate(-172.231 7160.367)" fill="none" stroke="#144567" stroke-width="1" stroke-dasharray="4"/>
    <path id="Trazado_604392" data-name="Trazado 604392" d="M715,65.467H599.077v29.9" transform="translate(-209.077 7004)" fill="none" stroke="#144567" stroke-width="1" stroke-dasharray="4"/>
    <g id="Grupo_161759" data-name="Grupo 161759" transform="translate(542.723 7033.061)">
      <g id="Grupo_161758" data-name="Grupo 161758" clip-path="url(#clip-path-2)">
        <path id="Trazado_604396" data-name="Trazado 604396" d="M202.385,13.227a8.433,8.433,0,0,0,4.039-2.077,12.346,12.346,0,0,0,3.917-8.225c.058-.555.062-1.116.1-1.674a1.261,1.261,0,0,1,1.2-1.241,9.54,9.54,0,0,1,4.57.834A5.578,5.578,0,0,1,219.479,6.1a30.077,30.077,0,0,1-.37,3.878,7.515,7.515,0,0,1-.162.752c1.633,0,3.215,0,4.8,0a5.392,5.392,0,0,1,5.468,5.443c.01,4.007.032,8.015-.005,12.023a6.706,6.706,0,0,1-6.76,6.688c-4.49.017-8.981.005-13.471,0a6.414,6.414,0,0,1-5.1-1.946,5.547,5.547,0,0,0-1.486-.8c0,.566.009.916,0,1.267a1.365,1.365,0,0,1-1.461,1.479q-3.913.021-7.825,0a1.334,1.334,0,0,1-1.44-1.484q-.007-10.6,0-21.194a1.313,1.313,0,0,1,1.44-1.47q3.913-.015,7.825,0a1.349,1.349,0,0,1,1.461,1.467c.009.314,0,.629,0,1.026m.023,16.3a6.616,6.616,0,0,1,3.9,1.968,3.562,3.562,0,0,0,1.412.591,6.634,6.634,0,0,0,1.5.107q6.512.011,13.024,0a4.056,4.056,0,0,0,4.288-4.276q.012-5.788,0-11.575a2.7,2.7,0,0,0-2.913-2.936c-2.012-.007-4.025,0-6.037,0-1.532,0-2.045-.715-1.59-2.186a14.608,14.608,0,0,0,.833-4.988A3.5,3.5,0,0,0,213.062,2.8a15.77,15.77,0,0,1-3.08,8.41,11.977,11.977,0,0,1-7.574,4.746Zm-2.734-16.081h-5.289V32.162h5.289Z" transform="translate(-175.553 0)"/>
        <path id="Trazado_604397" data-name="Trazado 604397" d="M18.783,78.8c2.833-2.126,5.549-4.152,8.249-6.2a2.4,2.4,0,0,1,1.545-.505c5.067.014,10.135-.04,15.2.027A4.2,4.2,0,0,0,48.313,68a1.266,1.266,0,0,1,1.412-1.256,1.338,1.338,0,0,1,1.246,1.5,6.656,6.656,0,0,1-2.551,5.076,6.728,6.728,0,0,1-4.358,1.465c-4.955,0-9.911-.008-14.866.015a1.908,1.908,0,0,0-1.056.354c-3.188,2.361-6.355,4.75-9.529,7.131-.119.089-.238.179-.361.264a1.339,1.339,0,0,1-2.148-1.1q0-2.991,0-5.982v-.678h-.7q-4.22,0-8.439,0A6.711,6.711,0,0,1,0,67.854Q0,53.318,0,38.781a6.674,6.674,0,0,1,6.927-6.942q10.451-.011,20.9,0a3.128,3.128,0,0,1,.667.042,1.362,1.362,0,0,1,1.008,1.265A1.306,1.306,0,0,1,28.6,34.42a3.229,3.229,0,0,1-.882.1q-10.4.007-20.79.006a4,4,0,0,0-4.166,3.229,5.256,5.256,0,0,0-.075,1.056q-.006,14.481,0,28.962A4.034,4.034,0,0,0,7.014,72.1q5.03,0,10.06,0c1.25,0,1.708.465,1.71,1.727q0,2.152,0,4.305V78.8" transform="translate(0 -29.161)"/>
        <path id="Trazado_604398" data-name="Trazado 604398" d="M319.673,59.9V46.321a11.977,11.977,0,0,0,7.574-4.746,15.77,15.77,0,0,0,3.08-8.41,3.5,3.5,0,0,1,3.764,3.443,14.608,14.608,0,0,1-.833,4.988c-.456,1.471.058,2.185,1.59,2.186,2.012,0,4.025-.005,6.037,0A2.7,2.7,0,0,1,343.8,46.72q.007,5.788,0,11.575a4.056,4.056,0,0,1-4.288,4.276q-6.512.007-13.024,0a6.63,6.63,0,0,1-1.5-.107,3.562,3.562,0,0,1-1.412-.592,6.616,6.616,0,0,0-3.9-1.968" transform="translate(-292.819 -30.37)" fill="#fff"/>
        <rect id="Rectángulo_47803" data-name="Rectángulo 47803" width="5.289" height="18.711" transform="translate(18.832 13.451)" fill="#91e8d6"/>
      </g>
    </g>
    <g id="Grupo_161761" data-name="Grupo 161761" transform="translate(615.5 7157.459)">
      <g id="Grupo_161760" data-name="Grupo 161760" clip-path="url(#clip-path-3)">
        <path id="Trazado_604399" data-name="Trazado 604399" d="M4.929,0a12.217,12.217,0,0,1,1.24.5A4.2,4.2,0,1,1,2.9.217C3.084.154,3.267.073,3.453,0ZM4.183,6.285a2.066,2.066,0,0,0,2.112-2.08A2.091,2.091,0,0,0,4.2,2.1,2.122,2.122,0,0,0,2.106,4.159,2.093,2.093,0,0,0,4.183,6.285" transform="translate(-0.001)"/>
        <path id="Trazado_604400" data-name="Trazado 604400" d="M422.758,4.92c-.05.129-.108.256-.147.388A4.2,4.2,0,1,1,417.448.146c.133-.039.26-.1.389-.146h1.476A14,14,0,0,1,421,.805a4.379,4.379,0,0,1,1.759,2.762Zm-4.2,1.365a2.092,2.092,0,0,0,2.1-2.1A2.121,2.121,0,0,0,418.532,2.1a2.091,2.091,0,0,0-2.06,2.081,2.064,2.064,0,0,0,2.083,2.107" transform="translate(-359.758)"/>
        <path id="Trazado_604401" data-name="Trazado 604401" d="M422.763,418.946q-.1.317-.2.634a4.2,4.2,0,1,1,0-2.55c.062.19.139.375.209.563Zm-6.287-.643a2.092,2.092,0,0,0,2.091,2.112,2.122,2.122,0,0,0,2.1-2.12,2.091,2.091,0,0,0-2.074-2.068,2.062,2.062,0,0,0-2.115,2.075" transform="translate(-359.763 -359.535)"/>
        <path id="Trazado_604402" data-name="Trazado 604402" d="M84.819,108.949c-.4-.992-.737-1.891-1.125-2.77a.716.716,0,0,0-.507-.362c-.757-.04-1.517-.009-2.275-.02-.894-.012-1.291-.391-1.294-1.271q-.015-4,0-7.995c0-.848.4-1.229,1.257-1.244.758-.013,1.518.014,2.275-.016a.667.667,0,0,0,.5-.277c.4-.915.758-1.849,1.164-2.864-.585-.572-1.219-1.181-1.84-1.8a1.109,1.109,0,0,1,.014-1.848q2.78-2.787,5.568-5.566a1.112,1.112,0,0,1,1.851,0c.626.617,1.241,1.245,1.817,1.825.982-.391,1.9-.735,2.8-1.131a.721.721,0,0,0,.322-.536c.037-.757,0-1.516.019-2.275.016-.852.4-1.245,1.253-1.249q4-.016,8,0c.877,0,1.251.4,1.263,1.3.01.758-.016,1.518.018,2.275a.654.654,0,0,0,.315.479c.9.392,1.815.741,2.808,1.138.57-.574,1.184-1.2,1.808-1.821a1.112,1.112,0,0,1,1.85-.012q2.79,2.777,5.568,5.566c.683.685.674,1.194-.018,1.9-.576.584-1.157,1.162-1.735,1.744a.243.243,0,0,0-.044.082c.378.946.734,1.88,1.135,2.795a.664.664,0,0,0,.5.283c.737.032,1.476.007,2.214.015.934.01,1.324.382,1.327,1.3q.013,3.967,0,7.934c0,.883-.4,1.264-1.288,1.278-.738.011-1.477.019-2.214,0a.544.544,0,0,0-.62.428c-.279.768-.591,1.526-.934,2.268a.494.494,0,0,0,.1.684c.567.533,1.115,1.089,1.656,1.649a1.076,1.076,0,0,1-.013,1.718q-2.84,2.858-5.7,5.7a1.073,1.073,0,0,1-1.716,0c-.53-.514-1.062-1.027-1.564-1.567a.592.592,0,0,0-.832-.155,18.607,18.607,0,0,1-2.153.889.607.607,0,0,0-.479.709c.03.737.022,1.476,0,2.214a1.09,1.09,0,0,1-1.224,1.216q-4.029.018-8.058,0c-.837,0-1.216-.413-1.229-1.273-.012-.758-.019-1.517,0-2.275a.518.518,0,0,0-.413-.57c-.783-.3-1.547-.648-2.334-.933a.715.715,0,0,0-.606.107c-.577.522-1.108,1.095-1.667,1.637a1.074,1.074,0,0,1-1.716.007q-2.859-2.839-5.7-5.7a1.084,1.084,0,0,1,.021-1.759c.62-.625,1.255-1.235,1.865-1.834m4.767,7.145,1.679-1.741a1.143,1.143,0,0,1,1.447-.227q1.929.859,3.9,1.618a1.125,1.125,0,0,1,.847,1.132c0,.677.017,1.354,0,2.029-.012.38.081.551.507.546,1.784-.02,3.568-.015,5.352,0,.34,0,.479-.1.469-.457-.019-.655-.011-1.312,0-1.968.009-.815.24-1.048,1-1.333,1.222-.46,2.433-.955,3.623-1.493.765-.346,1.074-.348,1.69.268.546.546,1.077,1.107,1.559,1.6l4.533-4.485c-.567-.549-1.154-1.12-1.743-1.687a1.14,1.14,0,0,1-.231-1.445q.86-1.929,1.619-3.9a1.123,1.123,0,0,1,1.129-.849c.677,0,1.355-.025,2.03.007.444.021.554-.15.549-.568q-.028-2.613,0-5.227c0-.392-.1-.555-.518-.536-.634.029-1.271.013-1.907.006-.815-.009-1.052-.242-1.336-.994-.461-1.222-.956-2.433-1.494-3.622-.349-.771-.35-1.072.269-1.687.548-.545,1.108-1.078,1.623-1.579l-4.525-4.494c-.529.546-1.1,1.134-1.668,1.721a1.15,1.15,0,0,1-1.448.23q-1.93-.858-3.9-1.618a1.124,1.124,0,0,1-.849-1.13c0-.676-.025-1.354.007-2.029.021-.445-.154-.552-.569-.548q-2.614.028-5.229,0c-.393,0-.553.106-.534.519.028.634.013,1.271.006,1.906-.009.813-.244,1.051-1,1.334-1.222.46-2.433.955-3.623,1.493-.764.345-1.076.346-1.69-.267-.546-.546-1.082-1.1-1.566-1.6l-4.528,4.472L86.8,91.186a1.147,1.147,0,0,1,.229,1.447q-.859,1.929-1.619,3.9a1.126,1.126,0,0,1-1.131.848c-.677,0-1.354.017-2.03,0-.38-.012-.551.081-.546.507.02,1.783.015,3.567,0,5.35,0,.34.1.479.457.469.656-.019,1.312-.011,1.968,0,.813.009,1.051.245,1.334,1q.69,1.833,1.494,3.622c.337.747.345,1.071-.228,1.644s-1.136,1.107-1.643,1.6l4.494,4.532" transform="translate(-69.118 -69.053)"/>
        <path id="Trazado_604403" data-name="Trazado 604403" d="M4.274,414.225a4.19,4.19,0,1,1-.043,8.381,4.19,4.19,0,0,1,.043-8.381m-.03,2.1a2.09,2.09,0,0,0-2.077,2.125A2.124,2.124,0,0,0,4.26,420.51a2.092,2.092,0,0,0,2.1-2.109,2.064,2.064,0,0,0-2.112-2.079" transform="translate(-0.061 -359.63)"/>
        <rect id="Rectángulo_47805" data-name="Rectángulo 47805" width="2.024" height="2.04" transform="translate(46.236 58.812)"/>
        <rect id="Rectángulo_47806" data-name="Rectángulo 47806" width="2.013" height="2.04" transform="translate(14.742 2.129)"/>
        <rect id="Rectángulo_47807" data-name="Rectángulo 47807" width="2.036" height="2.036" transform="translate(2.127 46.211)"/>
        <rect id="Rectángulo_47808" data-name="Rectángulo 47808" width="2.041" height="2.018" transform="translate(58.833 14.729)"/>
        <rect id="Rectángulo_47809" data-name="Rectángulo 47809" width="2.041" height="2.007" transform="translate(2.147 29.433)"/>
        <rect id="Rectángulo_47810" data-name="Rectángulo 47810" width="2.007" height="2.017" transform="translate(50.464 58.831)"/>
        <rect id="Rectángulo_47811" data-name="Rectángulo 47811" width="2.01" height="2.023" transform="translate(58.857 18.946)"/>
        <rect id="Rectángulo_47812" data-name="Rectángulo 47812" width="2.002" height="2.017" transform="translate(58.86 10.533)"/>
        <rect id="Rectángulo_47813" data-name="Rectángulo 47813" width="2.007" height="2.037" transform="translate(6.338 29.429)"/>
        <rect id="Rectángulo_47814" data-name="Rectángulo 47814" width="2.023" height="2.033" transform="translate(54.654 31.525)"/>
        <rect id="Rectángulo_47815" data-name="Rectángulo 47815" width="2.019" height="2.029" transform="translate(58.852 31.527)"/>
        <rect id="Rectángulo_47816" data-name="Rectángulo 47816" width="2.013" height="2.023" transform="translate(2.15 33.626)"/>
        <rect id="Rectángulo_47817" data-name="Rectángulo 47817" width="2.036" height="2.012" transform="translate(2.135 37.826)"/>
        <rect id="Rectángulo_47818" data-name="Rectángulo 47818" width="2.021" height="2.034" transform="translate(2.135 42.004)"/>
        <rect id="Rectángulo_47819" data-name="Rectángulo 47819" width="2.037" height="2.005" transform="translate(31.528 2.135)"/>
        <rect id="Rectángulo_47820" data-name="Rectángulo 47820" width="2.012" height="2.023" transform="translate(27.359 2.137)"/>
        <rect id="Rectángulo_47821" data-name="Rectángulo 47821" width="2.005" height="2.037" transform="translate(2.144 50.427)"/>
        <rect id="Rectángulo_47822" data-name="Rectángulo 47822" width="2.019" height="2.015" transform="translate(23.149 2.145)"/>
        <rect id="Rectángulo_47823" data-name="Rectángulo 47823" width="2.015" height="2.021" transform="translate(29.458 54.635)"/>
        <rect id="Rectángulo_47824" data-name="Rectángulo 47824" width="2.026" height="2.015" transform="translate(58.837 27.344)"/>
        <rect id="Rectángulo_47825" data-name="Rectángulo 47825" width="2.03" height="2.016" transform="translate(18.954 2.13)"/>
        <rect id="Rectángulo_47826" data-name="Rectángulo 47826" width="2.01" height="2.036" transform="translate(10.536 2.129)"/>
        <rect id="Rectángulo_47827" data-name="Rectángulo 47827" width="2.037" height="2.026" transform="translate(29.432 58.827)"/>
        <rect id="Rectángulo_47828" data-name="Rectángulo 47828" width="2.017" height="2.021" transform="translate(33.631 58.819)"/>
        <rect id="Rectángulo_47829" data-name="Rectángulo 47829" width="2.032" height="2.02" transform="translate(37.822 58.831)"/>
        <rect id="Rectángulo_47830" data-name="Rectángulo 47830" width="2.017" height="2.023" transform="translate(42.039 58.829)"/>
        <rect id="Rectángulo_47831" data-name="Rectángulo 47831" width="2.016" height="2.02" transform="translate(31.552 6.333)"/>
        <rect id="Rectángulo_47832" data-name="Rectángulo 47832" width="2.005" height="2.037" transform="translate(58.848 23.118)"/>
        <path id="Trazado_604404" data-name="Trazado 604404" d="M18.051,20.1a2.093,2.093,0,0,1-2.077-2.126,2.122,2.122,0,0,1,2.093-2.061,2.091,2.091,0,0,1,2.1,2.108,2.066,2.066,0,0,1-2.112,2.08" transform="translate(-13.869 -13.818)" fill="#fff"/>
        <path id="Trazado_604405" data-name="Trazado 604405" d="M432.376,20.1a2.064,2.064,0,0,1-2.083-2.107,2.091,2.091,0,0,1,2.06-2.081A2.121,2.121,0,0,1,434.481,18a2.092,2.092,0,0,1-2.1,2.1" transform="translate(-373.579 -13.815)" fill="#fff"/>
        <path id="Trazado_604406" data-name="Trazado 604406" d="M430.293,432.211a2.062,2.062,0,0,1,2.115-2.075,2.091,2.091,0,0,1,2.074,2.068,2.122,2.122,0,0,1-2.1,2.12,2.092,2.092,0,0,1-2.091-2.112" transform="translate(-373.58 -373.443)" fill="#fff"/>
        <path id="Trazado_604407" data-name="Trazado 604407" d="M103.4,129.9,98.9,125.37c.507-.493,1.083-1.038,1.643-1.6s.565-.9.228-1.644q-.805-1.785-1.494-3.622c-.283-.751-.522-.987-1.334-1-.656-.007-1.313-.016-1.968,0-.353.01-.459-.129-.457-.469.011-1.783.017-3.567,0-5.35,0-.426.166-.52.547-.507.676.022,1.353,0,2.03,0a1.126,1.126,0,0,0,1.131-.848q.765-1.969,1.619-3.9a1.147,1.147,0,0,0-.229-1.447L98.867,103.3l4.528-4.472c.484.494,1.019,1.051,1.565,1.6.614.614.926.613,1.69.267,1.19-.538,2.4-1.033,3.623-1.493.752-.283.988-.521,1-1.334.007-.635.023-1.272-.006-1.906-.019-.413.141-.523.534-.519q2.614.025,5.229,0c.416,0,.591.1.569.548-.032.675-.006,1.353-.007,2.029a1.124,1.124,0,0,0,.849,1.13q1.969.764,3.9,1.618a1.15,1.15,0,0,0,1.448-.23l1.668-1.721,4.525,4.494c-.515.5-1.074,1.035-1.623,1.579-.619.615-.617.916-.269,1.687.538,1.189,1.033,2.4,1.494,3.622.283.752.521.985,1.336.994.636.007,1.272.023,1.907-.006.415-.019.521.144.518.536q-.025,2.613,0,5.227c0,.417-.106.589-.549.568-.675-.032-1.353-.006-2.029-.007a1.123,1.123,0,0,0-1.129.849q-.764,1.969-1.619,3.9a1.14,1.14,0,0,0,.231,1.445c.589.567,1.176,1.138,1.743,1.687l-4.533,4.485c-.482-.5-1.013-1.058-1.559-1.6-.616-.616-.925-.613-1.69-.268-1.19.537-2.4,1.033-3.622,1.493-.757.285-.988.518-1,1.333-.007.656-.016,1.312,0,1.968.01.353-.129.459-.469.457-1.784-.011-3.568-.017-5.352,0-.426,0-.52-.166-.507-.546.022-.676,0-1.353,0-2.029a1.125,1.125,0,0,0-.847-1.132q-1.969-.764-3.9-1.618a1.143,1.143,0,0,0-1.447.227L103.4,129.9m11.053-28.137a12.585,12.585,0,1,0,12.568,12.6,12.574,12.574,0,0,0-12.568-12.6" transform="translate(-82.926 -82.861)" fill="#91e8d6"/>
        <path id="Trazado_604408" data-name="Trazado 604408" d="M18.051,430.136a2.064,2.064,0,0,1,2.112,2.079,2.092,2.092,0,0,1-2.1,2.109,2.124,2.124,0,0,1-2.093-2.062,2.09,2.09,0,0,1,2.077-2.125" transform="translate(-13.869 -373.443)" fill="#fff"/>
        <path id="Trazado_604409" data-name="Trazado 604409" d="M156.131,143.429a12.585,12.585,0,1,1-12.6,12.566,12.572,12.572,0,0,1,12.6-12.566M166.6,156.035A10.486,10.486,0,1,0,156.107,166.5,10.464,10.464,0,0,0,166.6,156.035" transform="translate(-124.61 -124.525)"/>
        <path id="Trazado_604410" data-name="Trazado 604410" d="M180.434,169.867a10.486,10.486,0,1,1-10.449-10.506,10.468,10.468,0,0,1,10.449,10.506m-14.678-.064c0,2.029,0,4.057,0,6.086,0,1.168.791,1.623,1.792,1.025q5.035-3.009,10.06-6.034c.993-.6,1-1.46.021-2.052q-5.05-3.044-10.112-6.068c-.964-.576-1.758-.11-1.762,1.019-.006,2.008,0,4.016,0,6.024" transform="translate(-138.445 -138.357)" fill="#fff"/>
        <path id="Trazado_604411" data-name="Trazado 604411" d="M207.207,190.56c0-2.008,0-4.016,0-6.024,0-1.129.8-1.595,1.762-1.019q5.062,3.023,10.112,6.068c.982.592.972,1.454-.021,2.052q-5.025,3.026-10.06,6.034c-1,.6-1.789.143-1.792-1.025,0-2.028,0-4.057,0-6.086m9.5.043-7.353-4.411v8.827l7.353-4.416" transform="translate(-179.896 -159.114)"/>
        <path id="Trazado_604412" data-name="Trazado 604412" d="M230.874,209.849l-7.353,4.416v-8.827l7.353,4.411" transform="translate(-194.061 -178.361)" fill="#91e8d6"/>
      </g>
    </g>
    <g id="Grupo_161763" data-name="Grupo 161763" transform="translate(769.768 7209.954)">
      <g id="Grupo_161762" data-name="Grupo 161762" clip-path="url(#clip-path-4)">
        <path id="Trazado_604413" data-name="Trazado 604413" d="M62.465,45.373a13.356,13.356,0,0,1-1.046,2.491A5.149,5.149,0,0,1,56.814,50q-16.377-.006-32.755,0-9.21,0-18.421,0a5.626,5.626,0,0,1-3.6-1.085A5.326,5.326,0,0,1,0,44.427Q.007,31.008,0,17.589C0,17.06,0,16.532,0,16a5.192,5.192,0,0,1,5.556-5.572c2.6-.013,5.2,0,7.807,0q17.536,0,35.072,0a5.727,5.727,0,0,1,3.616,1.038,5.414,5.414,0,0,1,2.092,4.64q-.006,14.12-.006,28.241a3.586,3.586,0,0,0,.572,2.259A3.016,3.016,0,0,0,57.94,47.81a2.858,2.858,0,0,0,2.335-2.291,5.245,5.245,0,0,0,.107-1.209q.008-16.713,0-33.425c0-2.4-1.191-3.578-3.608-3.578h-24.5c0-.49,0-.946,0-1.4,0-.834.011-1.667,0-2.5-.017-.979-.351-1.311-1.339-1.313-3.009-.007-6.018,0-9.027,0H8.854c-1.3,0-1.555.261-1.556,1.578,0,1.194,0,2.387,0,3.61H5.292a43.834,43.834,0,0,1,.04-4.86C5.5.9,6.843.021,8.54.008c1.789-.014,3.578,0,5.368,0q8.509,0,17.018,0a3.136,3.136,0,0,1,3.437,3.4c.007.407,0,.813,0,1.22,0,.178.02.356.035.6h.745q10.888,0,21.775,0a5.061,5.061,0,0,1,4.491,2.106,13.421,13.421,0,0,1,1.054,2.42Zm-9.332,2.538c-1.323-1.759-1.065-3.684-1.066-5.559q-.01-13.141,0-26.282c0-2.344-1.19-3.554-3.507-3.555q-21.495,0-42.99,0a4.859,4.859,0,0,0-1.148.1,3.08,3.08,0,0,0-2.336,3.286q0,14.3,0,28.6a4.638,4.638,0,0,0,.107,1.027,2.935,2.935,0,0,0,2.526,2.31,7.5,7.5,0,0,0,1.032.068q23.294,0,46.587,0Z" transform="translate(0 0)"/>
        <rect id="Rectángulo_47834" data-name="Rectángulo 47834" width="1.993" height="32.171" transform="translate(56.272 12.548)"/>
        <path id="Trazado_604414" data-name="Trazado 604414" d="M66.96,131.124h-.8q-23.294,0-46.587,0a7.5,7.5,0,0,1-1.032-.068,2.935,2.935,0,0,1-2.526-2.31,4.646,4.646,0,0,1-.107-1.027q-.008-14.3,0-28.6a3.08,3.08,0,0,1,2.336-3.286,4.859,4.859,0,0,1,1.148-.1q21.495-.007,42.99,0c2.316,0,3.506,1.211,3.507,3.555q0,13.141,0,26.282c0,1.875-.256,3.8,1.066,5.559M56.517,113.391a15.613,15.613,0,1,0-15.624,15.644,15.617,15.617,0,0,0,15.624-15.644" transform="translate(-13.828 -83.213)" fill="#fff"/>
        <path id="Trazado_604415" data-name="Trazado 604415" d="M118.922,127.286a15.613,15.613,0,1,1-15.615-15.575,15.655,15.655,0,0,1,15.615,15.575m-15.588,13.56a13.527,13.527,0,1,0-13.559-13.441,13.546,13.546,0,0,0,13.559,13.441" transform="translate(-76.233 -97.108)"/>
        <path id="Trazado_604416" data-name="Trazado 604416" d="M117.156,154.679a13.527,13.527,0,1,1,13.508-13.566,13.526,13.526,0,0,1-13.508,13.566m-5.293-17.692c-.307,0-.607-.011-.906,0a2.039,2.039,0,0,0-2.145,2.153q-.032,4.6,0,9.206a2.008,2.008,0,0,0,2.14,2.151q6.158.036,12.316,0a2.042,2.042,0,0,0,2.174-2.245q.012-4.512,0-9.023a2.073,2.073,0,0,0-2.181-2.246c-.294-.012-.588-.028-.928-.044,0-.553.014-1.039,0-1.523a9.7,9.7,0,0,0-.117-1.577,5.135,5.135,0,0,0-5.351-4.121,5.045,5.045,0,0,0-4.866,4.584c-.092.863-.088,1.737-.132,2.684" transform="translate(-90.054 -110.941)" fill="#91e8d6"/>
        <path id="Trazado_604417" data-name="Trazado 604417" d="M146.433,150.877c.044-.946.04-1.82.132-2.684a5.045,5.045,0,0,1,4.866-4.584,5.135,5.135,0,0,1,5.351,4.122,9.7,9.7,0,0,1,.117,1.577c.018.484,0,.97,0,1.523.341.016.634.032.928.044a2.073,2.073,0,0,1,2.181,2.246q.012,4.512,0,9.024a2.042,2.042,0,0,1-2.174,2.245q-6.158.033-12.316,0a2.008,2.008,0,0,1-2.14-2.151q-.032-4.6,0-9.206a2.039,2.039,0,0,1,2.145-2.153c.3-.013.6,0,.906,0m-.946,11.39h12.4v-9.259h-12.4Zm9.288-11.429c0-.835.045-1.625-.01-2.408a3.092,3.092,0,0,0-6.063-.453,22.5,22.5,0,0,0-.187,2.861Z" transform="translate(-124.624 -124.83)"/>
        <path id="Trazado_604418" data-name="Trazado 604418" d="M159.593,215.554h12.4v9.259h-12.4Zm5.189,6.159h2v-4.079h-2Z" transform="translate(-138.73 -187.376)" fill="#fff"/>
        <path id="Trazado_604419" data-name="Trazado 604419" d="M189.019,164.646H182.76a22.5,22.5,0,0,1,.187-2.861,3.092,3.092,0,0,1,6.063.453c.055.783.01,1.573.01,2.408" transform="translate(-158.869 -138.639)" fill="#91e8d6"/>
        <rect id="Rectángulo_47835" data-name="Rectángulo 47835" width="1.999" height="4.079" transform="translate(26.051 30.258)"/>
      </g>
    </g>
    <g id="Grupo_161765" data-name="Grupo 161765" transform="translate(915 7162.959)">
      <g id="Grupo_161764" data-name="Grupo 161764" clip-path="url(#clip-path-5)">
        <path id="Trazado_604420" data-name="Trazado 604420" d="M309.894,116.8a1.49,1.49,0,0,1-1.411.67c-2.8-.017-5.6-.005-8.4-.009-1.035,0-1.37-.331-1.386-1.335a19.293,19.293,0,0,0-2.377-8.994,2.157,2.157,0,0,1-.315-.937c-.006-.58.491-.933,1.225-.938,1.33-.009,2.66,0,3.989,0h.664a4.249,4.249,0,0,1,1.934-2.5,4.065,4.065,0,0,1,5.838,2.136c.073.2.156.4.234.594v1.549c-.043.107-.1.212-.128.322a4.062,4.062,0,0,1-7.732.335c-.051-.128-.107-.254-.162-.384h-3.183a22.386,22.386,0,0,1,2.038,8.118h.729c2.322,0,4.645.014,6.967-.009a1.544,1.544,0,0,1,1.471.672Zm-6.088-10.54a2.036,2.036,0,0,0,2.019,2.056,2.06,2.06,0,0,0,2.037-2.05,2.019,2.019,0,0,0-2-2.008,1.994,1.994,0,0,0-2.055,2" transform="translate(-248.9 -85.945)"/>
        <path id="Trazado_604421" data-name="Trazado 604421" d="M250.211,0a10.806,10.806,0,0,1,1.425.57A4.012,4.012,0,0,1,253.544,5a4.079,4.079,0,0,1-3.457,3.1,4,4,0,0,1-4.217-2.444.759.759,0,0,0-.853-.575c-1.985.028-3.97.012-5.956.012H238.4V7.207c0,1.132.031,2.265-.014,3.394a.873.873,0,0,0,.6.933,20.443,20.443,0,0,1,5.335,3.849c.58.575.646,1.152.192,1.613s-1.047.394-1.613-.167a19.05,19.05,0,0,0-5.7-3.93,1.254,1.254,0,0,1-.832-1.291c.017-2.144,0-4.288.01-6.433a1.976,1.976,0,0,1,2.133-2.112c2.2-.014,4.407,0,6.611-.005.272,0,.518.044.653-.335a3.928,3.928,0,0,1,2.983-2.63A.537.537,0,0,0,248.9,0Zm-.656,6.089a2.038,2.038,0,0,0,2.06-2.017,2.06,2.06,0,0,0-2.046-2.041,2.017,2.017,0,0,0-2.011,2,2,2,0,0,0,2,2.06" transform="translate(-198.747)"/>
        <path id="Trazado_604422" data-name="Trazado 604422" d="M42.976,0A8.793,8.793,0,0,1,44.8.925a5.333,5.333,0,0,1,1.227,1.64.746.746,0,0,0,.786.5c2.124-.018,4.249-.012,6.373-.007a2.038,2.038,0,0,1,2.314,2.3c0,1.644,0,3.288,0,4.962.93-.241,1.8-.483,2.687-.691a1.01,1.01,0,0,1,1.348.708c.133.608-.19,1.046-.876,1.255-1.193.363-2.388.72-3.566,1.128-.981.339-1.613-.053-1.62-1.1-.013-1.886,0-3.772,0-5.659V5.138c-.2-.017-.37-.042-.54-.043-2.065,0-4.13.008-6.195-.011a.612.612,0,0,0-.686.462,4.04,4.04,0,0,1-4.5,2.521,4.065,4.065,0,0,1-.22-7.951c.113-.029.222-.077.333-.116ZM44.32,4.084A2.019,2.019,0,0,0,42.3,2.032a2.057,2.057,0,0,0-2.041,2.045,2.036,2.036,0,0,0,2,2.012,2,2,0,0,0,2.054-2" transform="translate(-32.135 -0.001)"/>
        <path id="Trazado_604423" data-name="Trazado 604423" d="M309.9,218.687c-.059.164-.124.326-.176.492a4.032,4.032,0,0,1-3.643,2.863,3.98,3.98,0,0,1-3.991-2.524.635.635,0,0,0-.722-.492c-1.349.025-2.7.014-4.048.008-1.18-.005-1.625-.73-1.057-1.755a20.4,20.4,0,0,0,2.072-5.547,1.008,1.008,0,0,1,1.977-.006,1.061,1.061,0,0,1-.031.524c-.429,1.378-.869,2.753-1.31,4.127-.059.185-.14.363-.229.592h3.141c.052-.124.113-.267.17-.412a4.055,4.055,0,0,1,7.7.372c.044.151.1.3.144.448Zm-4.092,1.344a2.02,2.02,0,0,0,2.06-2.009,2.059,2.059,0,0,0-2.038-2.049,2.034,2.034,0,0,0-2.018,2,2,2,0,0,0,2,2.062" transform="translate(-248.908 -177.349)"/>
        <path id="Trazado_604424" data-name="Trazado 604424" d="M186.551,0a1.541,1.541,0,0,1,.671,1.468c-.023,2.339-.009,4.677-.009,7.016v.657c1.055.137,2.054.251,3.047.4a1.008,1.008,0,0,1,.962,1.282.91.91,0,0,1-1.009.739q-2.07-.169-4.135-.4c-.58-.064-.887-.468-.9-1.138-.017-.951-.006-1.9-.006-2.854,0-1.923.014-3.845-.008-5.768A1.484,1.484,0,0,1,185.836,0Z" transform="translate(-155.697)"/>
        <path id="Trazado_604425" data-name="Trazado 604425" d="M117.621,100.366a17.276,17.276,0,1,1-17.237-17.3,17.276,17.276,0,0,1,17.237,17.3M100.376,85.1a15.248,15.248,0,1,0,15.218,15.247A15.274,15.274,0,0,0,100.376,85.1" transform="translate(-69.848 -69.847)"/>
        <path id="Trazado_604426" data-name="Trazado 604426" d="M46.241,281.322h7.233v-.574c0-1.668-.018-3.336.012-5a.77.77,0,0,0-.521-.8,20.986,20.986,0,0,1-6.4-4.967,1.071,1.071,0,0,1-.091-1.581c.475-.448,1.065-.381,1.6.231a19.5,19.5,0,0,0,6.643,4.924,1.228,1.228,0,0,1,.793,1.257c-.014,2.144,0,4.288-.009,6.432a1.98,1.98,0,0,1-2.119,2.128q-3.305.025-6.611,0a.647.647,0,0,0-.725.5,4.011,4.011,0,0,1-4.448,2.5,4.063,4.063,0,1,1,4.456-5.518c.06.146.115.295.186.477M44.32,282.37a2,2,0,0,0-2.03-2.028,2.037,2.037,0,0,0-2.028,2.047,2.06,2.06,0,0,0,2.017,2.01,2.019,2.019,0,0,0,2.04-2.029" transform="translate(-32.135 -225.436)"/>
        <path id="Trazado_604427" data-name="Trazado 604427" d="M238.393,287.071c2.365,0,4.645-.008,6.925.008.412,0,.4-.3.5-.535a4.069,4.069,0,1,1,.039,3.139.8.8,0,0,0-.907-.586c-2.1.023-4.207.014-6.311.008a2.027,2.027,0,0,1-2.28-2.268c0-2.064.012-4.128-.009-6.192a1.326,1.326,0,0,1,.864-1.394,19.6,19.6,0,0,0,5.661-3.886,1.45,1.45,0,0,1,.966-.438,1.105,1.105,0,0,1,.821.609,1.3,1.3,0,0,1-.263,1.111c-1.222,1.066-2.495,2.078-3.793,3.051-.566.424-1.244.7-1.853,1.066a.717.717,0,0,0-.348.46c-.024,1.921-.015,3.843-.015,5.849m9.154,1.04a2.018,2.018,0,0,0,2.048,2.021,2.061,2.061,0,0,0,2.01-2.018,2.037,2.037,0,0,0-2.036-2.039,1.994,1.994,0,0,0-2.022,2.036" transform="translate(-198.738 -231.17)"/>
        <path id="Trazado_604428" data-name="Trazado 604428" d="M8.043,91.209c-1.052,2.4-2.727,3.4-4.856,2.957a4.063,4.063,0,0,1-.038-7.922c2.06-.492,3.754.515,4.9,2.934,1.331,0,2.68.017,4.027-.02.19-.005.428-.239.551-.427a21.435,21.435,0,0,1,4.762-5.2c.109-.085.217-.174.334-.249a1.006,1.006,0,0,1,1.229,1.591c-.307.28-.648.523-.966.792a18.392,18.392,0,0,0-4.017,4.747,1.468,1.468,0,0,1-1.452.8c-1.486-.037-2.974-.011-4.471-.011M4.065,88.182a2.016,2.016,0,0,0-2.026,2.042,2.06,2.06,0,0,0,2.01,2.017,2.039,2.039,0,0,0,2.046-2.03,2,2,0,0,0-2.03-2.028" transform="translate(-0.007 -69.87)"/>
        <path id="Trazado_604429" data-name="Trazado 604429" d="M8.041,218.989c-1.165,2.426-2.846,3.426-4.9,2.938A4.068,4.068,0,0,1,3.156,214c2.147-.452,3.738.5,4.877,2.934h3.129c-.206-.515-.427-.977-.579-1.462-.344-1.095-.677-2.194-.971-3.3a1.006,1.006,0,1,1,1.956-.45,21.2,21.2,0,0,0,2.138,5.651,1.022,1.022,0,0,1-.981,1.614c-1.567.017-3.133,0-4.683,0m-3.981,1a2,2,0,0,0,2.027-2.031,2.038,2.038,0,0,0-2.048-2.027,2.059,2.059,0,0,0-2.008,2.018,2.017,2.017,0,0,0,2.029,2.04" transform="translate(0 -177.304)"/>
        <path id="Trazado_604430" data-name="Trazado 604430" d="M163.618,312.985c-1.1-.144-2.124-.259-3.141-.418a1.016,1.016,0,1,1,.3-2c.1.009.2.029.3.037,1.3.11,2.6.3,3.907.306a29.6,29.6,0,0,0,3.193-.3c.118-.012.235-.038.354-.045a1.01,1.01,0,1,1,.266,2c-1.014.161-2.037.274-3.131.418v.634q0,3.513,0,7.026a2.816,2.816,0,0,1-.069.766.921.921,0,0,1-.983.7.912.912,0,0,1-.917-.712,3.06,3.06,0,0,1-.066-.767q-.007-3.483,0-6.966v-.684" transform="translate(-134.141 -261.131)"/>
        <path id="Trazado_604431" data-name="Trazado 604431" d="M9.055,151.619c.334-1.709.647-3.318.965-4.926a4.452,4.452,0,0,1,.145-.514c.233-.716.745-1.051,1.322-.87.6.189.827.72.634,1.449a21.52,21.52,0,0,0-.552,2.248c-.167,1.095-.274,2.2-.344,3.307-.063.993-.353,1.342-1.326,1.344-2.857.006-5.714,0-8.571,0-.079,0-.159,0-.238,0a1.029,1.029,0,0,1-1.062-1.045,1,1,0,0,1,1.063-.978c1.567-.022,3.135-.01,4.7-.011H9.055" transform="translate(-0.022 -122.142)"/>
        <path id="Trazado_604432" data-name="Trazado 604432" d="M345,117.062a1.994,1.994,0,0,1,2.055-2,2.019,2.019,0,0,1,2,2.008,2.06,2.06,0,0,1-2.037,2.05A2.036,2.036,0,0,1,345,117.062" transform="translate(-290.091 -96.748)" fill="#91e8d6"/>
        <path id="Trazado_604433" data-name="Trazado 604433" d="M308.685,16.819a2.029,2.029,0,0,1,.013-4.058,2.06,2.06,0,0,1,2.046,2.041,2.038,2.038,0,0,1-2.06,2.017" transform="translate(-257.877 -10.73)" fill="#91e8d6"/>
        <path id="Trazado_604434" data-name="Trazado 604434" d="M55.121,14.814a2,2,0,0,1-2.054,2,2.036,2.036,0,0,1-2-2.012A2.057,2.057,0,0,1,53.1,12.762a2.019,2.019,0,0,1,2.017,2.052" transform="translate(-42.936 -10.731)" fill="#91e8d6"/>
        <path id="Trazado_604435" data-name="Trazado 604435" d="M347,246.745a2,2,0,0,1-2-2.062,2.034,2.034,0,0,1,2.018-2,2.059,2.059,0,0,1,2.038,2.049,2.02,2.02,0,0,1-2.06,2.009" transform="translate(-290.094 -204.063)" fill="#91e8d6"/>
        <path id="Trazado_604436" data-name="Trazado 604436" d="M111.092,95.815a15.248,15.248,0,1,1-15.279,15.192,15.255,15.255,0,0,1,15.279-15.192m-5.06,10.1c-.285.059-.457.1-.63.13a2.949,2.949,0,0,0-2.447,2.826q-.041,4.732,0,9.464a2.891,2.891,0,0,0,2.8,2.858q5.3.061,10.595,0a2.887,2.887,0,0,0,2.817-2.839q.051-4.761,0-9.524a2.952,2.952,0,0,0-2.365-2.775l-.707-.147a24.517,24.517,0,0,0-.014-2.581,5.053,5.053,0,0,0-10.032-.02,24.274,24.274,0,0,0-.015,2.606" transform="translate(-80.564 -80.566)" fill="#fff"/>
        <path id="Trazado_604437" data-name="Trazado 604437" d="M55.119,347.025a2.019,2.019,0,0,1-2.04,2.029,2.06,2.06,0,0,1-2.017-2.01A2.037,2.037,0,0,1,53.09,345a2,2,0,0,1,2.03,2.028" transform="translate(-42.935 -290.091)" fill="#91e8d6"/>
        <path id="Trazado_604438" data-name="Trazado 604438" d="M306.687,347.031a1.994,1.994,0,0,1,2.022-2.036,2.037,2.037,0,0,1,2.036,2.039,2.061,2.061,0,0,1-2.01,2.018,2.018,2.018,0,0,1-2.048-2.021" transform="translate(-257.878 -290.089)" fill="#91e8d6"/>
        <path id="Trazado_604439" data-name="Trazado 604439" d="M14.79,115.062a2,2,0,0,1,2.03,2.028,2.039,2.039,0,0,1-2.046,2.03,2.06,2.06,0,0,1-2.01-2.017,2.016,2.016,0,0,1,2.026-2.042" transform="translate(-10.733 -96.75)" fill="#91e8d6"/>
        <path id="Trazado_604440" data-name="Trazado 604440" d="M14.792,246.745a2.017,2.017,0,0,1-2.029-2.04,2.059,2.059,0,0,1,2.008-2.018,2.038,2.038,0,0,1,2.048,2.027,2,2,0,0,1-2.027,2.031" transform="translate(-10.732 -204.063)" fill="#91e8d6"/>
        <path id="Trazado_604441" data-name="Trazado 604441" d="M143.651,122.1a24.271,24.271,0,0,1,.015-2.606,5.053,5.053,0,0,1,10.032.02,24.52,24.52,0,0,1,.014,2.581l.707.147a2.952,2.952,0,0,1,2.365,2.775q.045,4.761,0,9.524a2.887,2.887,0,0,1-2.817,2.839q-5.3.057-10.595,0a2.891,2.891,0,0,1-2.8-2.858q-.046-4.732,0-9.464a2.949,2.949,0,0,1,2.447-2.826c.173-.033.345-.071.63-.13m5.013,13.271c1.608,0,3.216,0,4.825,0,.957,0,1.281-.328,1.282-1.29q0-4.288,0-8.577c0-.96-.332-1.308-1.279-1.309q-4.825-.01-9.649,0c-.914,0-1.25.355-1.251,1.276q-.005,4.319,0,8.637c0,.925.332,1.26,1.248,1.263,1.608.005,3.217,0,4.825,0m3.01-13.251a22.17,22.17,0,0,0-.017-2.511,3.023,3.023,0,0,0-5.909-.238,21.108,21.108,0,0,0-.164,2.748Z" transform="translate(-118.184 -96.751)"/>
        <path id="Trazado_604442" data-name="Trazado 604442" d="M159.421,183.579c-1.608,0-3.216,0-4.825,0-.916,0-1.247-.338-1.248-1.263q-.005-4.318,0-8.637c0-.921.337-1.274,1.251-1.276q4.825-.011,9.649,0c.947,0,1.278.349,1.279,1.309q0,4.289,0,8.577c0,.962-.325,1.288-1.282,1.29-1.608,0-3.216,0-4.825,0m3.068-6.067a3.052,3.052,0,0,0-5.9-1.109,3.023,3.023,0,0,0,1.331,3.7c.28.162.51.291.565.673a.871.871,0,0,0,.928.757,1,1,0,0,0,1.014-.754,1.348,1.348,0,0,1,.5-.632,3.1,3.1,0,0,0,1.567-2.638" transform="translate(-128.941 -144.96)" fill="#91e8d6"/>
        <path id="Trazado_604443" data-name="Trazado 604443" d="M178.252,132.868h-6.091a21.111,21.111,0,0,1,.164-2.748,3.023,3.023,0,0,1,5.909.238,22.173,22.173,0,0,1,.017,2.511" transform="translate(-144.762 -107.5)" fill="#fff"/>
        <path id="Trazado_604444" data-name="Trazado 604444" d="M178.565,188.307A3.1,3.1,0,0,1,177,190.946a1.349,1.349,0,0,0-.5.632,1,1,0,0,1-1.014.754.871.871,0,0,1-.928-.757c-.056-.382-.285-.511-.565-.673a3.037,3.037,0,0,1,2.051-5.622,3.059,3.059,0,0,1,2.523,3.028m-3.066-1.023a.989.989,0,0,0-.989,1.029,1,1,0,0,0,2.007-.028.989.989,0,0,0-1.018-1" transform="translate(-145.017 -155.754)"/>
        <path id="Trazado_604445" data-name="Trazado 604445" d="M186.3,198.119a.989.989,0,0,1,1.018,1,1,1,0,0,1-2.007.028.989.989,0,0,1,.989-1.029" transform="translate(-155.822 -166.588)" fill="#fff"/>
      </g>
    </g>
    <g id="Grupo_161767" data-name="Grupo 161767" transform="translate(1000 7029.227)">
      <g id="Grupo_161766" data-name="Grupo 161766" clip-path="url(#clip-path-6)">
        <path id="Trazado_604446" data-name="Trazado 604446" d="M21.979,52.637c-.082.291-.157.618-.265.934a5.72,5.72,0,0,1-5.346,3.9c-1.975.025-3.952.053-5.926-.007A5.463,5.463,0,0,1,5.28,54.019a5.519,5.519,0,0,1,.953-6.086c.089-.107.187-.206.338-.372a5.817,5.817,0,0,1-3.543-4.075,5.736,5.736,0,0,1,1.393-5.279A5.727,5.727,0,0,1,.111,33.622a5.692,5.692,0,0,1,2.408-5.834A5.892,5.892,0,0,1,.1,21.86l1.781.342a13.869,13.869,0,0,0,.147,1.631A3.739,3.739,0,0,0,5.6,26.816c2.015.035,4.031.041,6.046,0a3.822,3.822,0,0,0-.01-7.638c-2.015-.039-4.031-.027-6.046,0a3.816,3.816,0,0,0-2.927,1.509l-1.5-1.125c1.818-2.5,4.439-2.412,7.131-2.284A2.213,2.213,0,0,1,9.04,14.5c.677-.619,1.3-1.3,1.955-1.939a1.923,1.923,0,0,1,2.912.005c.909.895,1.8,1.8,2.739,2.744a21.526,21.526,0,0,1,7.834-3.374,6.771,6.771,0,0,1-2.4-6.018A6.476,6.476,0,0,1,24.4,1.6a6.676,6.676,0,0,1,8.9.223,6.492,6.492,0,0,1,2.118,5.087,6.663,6.663,0,0,1-2.283,4.876c1.716.67,3.448,1.3,5.137,2.026a14.884,14.884,0,0,1,2.139,1.3.464.464,0,0,0,.663-.056,1.174,1.174,0,0,0,.416-1.574c-.44-1.043-.753-2.141-1.092-3.225A7.867,7.867,0,0,1,47.229.029c1.072-.1,1.269.011,1.74.952q4.09,8.182,8.167,16.37a3.193,3.193,0,0,1,.319,1.364q.028,13.02.013,26.041A12.427,12.427,0,0,1,47.07,57.3a11.169,11.169,0,0,1-2.023.174q-11.284.018-22.569.008h-.4V55.567h.682q11.075,0,22.15,0A10.5,10.5,0,0,0,55.374,46.9a11.2,11.2,0,0,0,.172-2.082q.017-12.931,0-25.861a2.247,2.247,0,0,0-.224-.964c-2.572-5.175-5.167-10.338-7.729-15.518a.692.692,0,0,0-.919-.438,5.943,5.943,0,0,0-4.591,7.034c.292,1.249.764,2.457,1.173,3.742.165-.142.269-.228.37-.318a1.921,1.921,0,0,1,2.828.046q1.157,1.129,2.286,2.286a1.921,1.921,0,0,1-.026,2.953c-.883.893-1.78,1.771-2.635,2.621,5.192,8.705,5.371,17.326-1,25.324-5.949,7.469-13.954,9.356-23.1,6.911M17.345,33.525l-1.493,2.992c.59.311,1.247.676,1.923,1a.68.68,0,0,0,.528-.037c.548-.284,1.075-.606,1.655-.94l.95,1.651-1.62.952a5.87,5.87,0,0,1-.948,7.208,5.954,5.954,0,0,1,3.5,3.905c.05.17.333.317.538.389a18.933,18.933,0,0,0,9.843.759A19.137,19.137,0,0,0,47.674,29.851c-1.947-12.7-16.23-21.036-28.784-13.7a16.951,16.951,0,0,0-3.438,2.642,5.874,5.874,0,0,1-.726,9.021,5.993,5.993,0,0,1,2.437,3.823h1.961v1.889ZM13.374,55.566c.977,0,1.953.013,2.93,0a3.828,3.828,0,0,0-.029-7.656q-2.87-.026-5.74,0a3.828,3.828,0,0,0-.031,7.656c.956.016,1.913,0,2.87,0m-1.915-9.579c.977,0,1.953.013,2.93,0a3.828,3.828,0,0,0-.031-7.656q-2.87-.026-5.74,0a3.828,3.828,0,0,0-.029,7.656c.956.016,1.913,0,2.87,0M8.585,36.407c.976,0,1.953.013,2.929,0a3.828,3.828,0,0,0-.027-7.656q-2.87-.026-5.739,0A3.828,3.828,0,0,0,5.715,36.4c.956.016,1.913,0,2.87,0m17.25-26.8c-.784-.132-.963-.674-.942-1.4.031-1.077,0-2.155.01-3.233.006-.787.349-1.137,1.13-1.141q2.694-.011,5.388,0c.785,0,1.134.35,1.141,1.13.009,1.1,0,2.2,0,3.293,0,.869-.12,1.044-.909,1.376v.819a4.72,4.72,0,0,0,1.594-5.342,4.788,4.788,0,0,0-9.181.509,4.562,4.562,0,0,0,1.767,4.8Zm19.152,4.3-2.521,2.528,2.352,2.34,2.521-2.512-2.351-2.357M10.051,16.306a1.9,1.9,0,0,0,1.813.982,7.088,7.088,0,0,1,1.57.3.74.74,0,0,0,.524-.054c.4-.322.755-.693,1.037-.961l-2.6-2.614-2.343,2.344m16.8-8.672h3.758V5.78H26.848Zm2.814,1.987H27.813v1.865h1.848Z" transform="translate(0 0)"/>
        <path id="Trazado_604447" data-name="Trazado 604447" d="M94.677,103.933h1.779v-1.889H94.495a5.993,5.993,0,0,0-2.437-3.823,5.874,5.874,0,0,0,.726-9.021,16.951,16.951,0,0,1,3.438-2.642c12.554-7.334,26.837,1,28.784,13.7a19.137,19.137,0,0,1-15.449,21.553,18.933,18.933,0,0,1-9.843-.759c-.205-.072-.488-.219-.538-.389a5.954,5.954,0,0,0-3.5-3.905,5.87,5.87,0,0,0,.948-7.208l1.62-.952-.95-1.651c-.58.334-1.108.656-1.655.94a.68.68,0,0,1-.528.037c-.676-.324-1.333-.688-1.923-1l1.493-2.992m1.45-12.662a15.345,15.345,0,1,1,3.617,25.717l-.753,1.659a17.205,17.205,0,1,0-4.048-28.771l1.184,1.395m20.95,4.186c-2.935,1.71-5.81,3.38-8.678,5.064a.7.7,0,0,1-.851.03,2.785,2.785,0,0,0-3.511.408,2.863,2.863,0,0,0,2.784,4.79,2.816,2.816,0,0,0,2.1-2.848.72.72,0,0,1,.435-.739q4.063-2.346,8.112-4.717c.186-.108.364-.229.561-.354l-.953-1.633m-5.394-.293,1.913-3.316-1.656-.954-1.911,3.313,1.654.957m2.2,13.435,3.314,1.917.955-1.655-3.311-1.914-.958,1.652m-15.353,5.518,1.655.956,1.917-3.316-1.662-.944-1.91,3.3m-3.6-18.668-.957,1.656,3.314,1.917.953-1.657-3.311-1.916m12.049-5.827h-1.843v3.756h1.843Zm-6.535,5.542,1.659-.955-1.923-3.314-1.649.96,1.913,3.309m15.246,8.747h3.745v-1.863h-3.745Zm-3.748,11.165,1.652-.963-1.912-3.306-1.657.955,1.917,3.314m-6.794,1.291h1.839V112.59H105.15Z" transform="translate(-77.332 -70.409)" fill="#fff"/>
        <path id="Trazado_604448" data-name="Trazado 604448" d="M267.99,86.993l2.351,2.357-2.521,2.512-2.352-2.34,2.521-2.528" transform="translate(-223.003 -73.077)" fill="#91e8d6"/>
        <path id="Trazado_604449" data-name="Trazado 604449" d="M62.832,89.63l2.343-2.344,2.6,2.614c-.283.267-.64.639-1.037.961a.74.74,0,0,1-.524.054,7.088,7.088,0,0,0-1.57-.3,1.9,1.9,0,0,1-1.813-.982" transform="translate(-52.781 -73.323)" fill="#91e8d6"/>
        <rect id="Rectángulo_47838" data-name="Rectángulo 47838" width="3.758" height="1.854" transform="translate(26.847 5.78)" fill="#91e8d6"/>
        <rect id="Rectángulo_47839" data-name="Rectángulo 47839" width="1.848" height="1.865" transform="translate(27.813 9.622)" fill="#91e8d6"/>
        <path id="Trazado_604450" data-name="Trazado 604450" d="M111.278,101.407l-1.184-1.395a17.206,17.206,0,1,1,4.048,28.771l.753-1.659a15.344,15.344,0,1,0-3.617-25.717" transform="translate(-92.483 -80.544)"/>
        <path id="Trazado_604451" data-name="Trazado 604451" d="M175.548,156.591l.953,1.633c-.2.125-.376.246-.561.354q-4.053,2.363-8.112,4.716a.72.72,0,0,0-.435.739,2.816,2.816,0,0,1-2.1,2.848,2.863,2.863,0,0,1-2.784-4.79,2.785,2.785,0,0,1,3.511-.408.7.7,0,0,0,.851-.03c2.868-1.684,5.744-3.354,8.678-5.064m-11.021,6.574a.954.954,0,1,0,.962.931.961.961,0,0,0-.962-.931" transform="translate(-135.803 -131.542)"/>
        <path id="Trazado_604452" data-name="Trazado 604452" d="M206.053,132.333l-1.654-.957,1.911-3.313,1.655.954-1.913,3.316" transform="translate(-171.702 -107.577)"/>
        <path id="Trazado_604453" data-name="Trazado 604453" d="M228.5,230.07l.958-1.652,3.311,1.914-.955,1.655L228.5,230.07" transform="translate(-191.949 -191.879)"/>
        <path id="Trazado_604454" data-name="Trazado 604454" d="M132.523,255.885l1.91-3.3,1.662.944-1.916,3.316-1.655-.956" transform="translate(-111.324 -212.176)"/>
        <path id="Trazado_604455" data-name="Trazado 604455" d="M105,156.538l3.311,1.916-.953,1.657-3.314-1.917.957-1.656" transform="translate(-87.397 -131.497)"/>
        <rect id="Rectángulo_47840" data-name="Rectángulo 47840" width="1.843" height="3.756" transform="translate(27.805 19.213)"/>
        <path id="Trazado_604456" data-name="Trazado 604456" d="M134.45,132.336l-1.913-3.309,1.649-.96,1.923,3.314-1.659.955" transform="translate(-111.336 -107.581)"/>
        <rect id="Rectángulo_47841" data-name="Rectángulo 47841" width="3.745" height="1.863" transform="translate(38.36 31.64)"/>
        <path id="Trazado_604457" data-name="Trazado 604457" d="M206.3,256.82l-1.917-3.314,1.657-.955,1.912,3.306-1.652.963" transform="translate(-171.691 -212.153)"/>
        <rect id="Rectángulo_47842" data-name="Rectángulo 47842" width="1.839" height="3.777" transform="translate(27.818 42.181)"/>
        <path id="Trazado_604458" data-name="Trazado 604458" d="M174.6,197.685a.954.954,0,1,1-.946.947.961.961,0,0,1,.946-.947" transform="translate(-145.874 -166.062)" fill="#fff"/>
      </g>
    </g>
  </g>
</svg>
