<svg xmlns="http://www.w3.org/2000/svg" xmlns:xlink="http://www.w3.org/1999/xlink" width="1030" height="320" viewBox="0 0 1030 320">
  <defs>
    <clipPath id="clip-path">
      <rect id="Rectángulo_46628" data-name="Rectángulo 46628" width="11.077" height="14.504" fill="#144567"/>
    </clipPath>
    <clipPath id="clip-path-2">
      <rect id="Rectángulo_47769" data-name="Rectángulo 47769" width="75" height="73.774" fill="none"/>
    </clipPath>
    <clipPath id="clip-path-3">
      <rect id="Rectángulo_47770" data-name="Rectángulo 47770" width="149.041" height="149.082" fill="none"/>
    </clipPath>
    <clipPath id="clip-path-4">
      <rect id="Rectángulo_47771" data-name="Rectángulo 47771" width="125.039" height="149.081" fill="none"/>
    </clipPath>
  </defs>
  <g id="Grupo_161720" data-name="Grupo 161720" transform="translate(-285 -2480)">
    <rect id="Rectángulo_47772" data-name="Rectángulo 47772" width="1030" height="320" transform="translate(285 2480)" fill="#fff"/>
    <g id="Grupo_161719" data-name="Grupo 161719" transform="translate(0 28)">
      <rect id="Rectángulo_47762" data-name="Rectángulo 47762" width="295" height="75" rx="37.5" transform="translate(647 2472)" fill="#def8f3"/>
      <rect id="Rectángulo_47763" data-name="Rectángulo 47763" width="295" height="75" transform="translate(285 2678)" fill="#f6efe9"/>
      <rect id="Rectángulo_47764" data-name="Rectángulo 47764" width="295" height="75" transform="translate(1020 2678)" fill="#f6efe9"/>
      <path id="Trazado_606867" data-name="Trazado 606867" d="M8.234,10.414H3V14.7H9.081V16H1.4V3.914H9v1.3H3V9.11H8.234Zm7.819,3.2a1.131,1.131,0,0,0-.469-.967,4.514,4.514,0,0,0-1.635-.594,7.731,7.731,0,0,1-1.851-.6,2.633,2.633,0,0,1-1.013-.83,1.986,1.986,0,0,1-.328-1.146,2.33,2.33,0,0,1,.934-1.868,3.647,3.647,0,0,1,2.386-.764,3.753,3.753,0,0,1,2.478.789,2.5,2.5,0,0,1,.95,2.017H15.962a1.386,1.386,0,0,0-.535-1.087,2.006,2.006,0,0,0-1.349-.457,2.1,2.1,0,0,0-1.312.365,1.15,1.15,0,0,0-.473.955.932.932,0,0,0,.44.838,5.413,5.413,0,0,0,1.59.54,8.283,8.283,0,0,1,1.864.614,2.718,2.718,0,0,1,1.058.859,2.112,2.112,0,0,1,.344,1.224,2.3,2.3,0,0,1-.963,1.93,4.039,4.039,0,0,1-2.5.726,4.523,4.523,0,0,1-1.909-.382,3.105,3.105,0,0,1-1.3-1.067,2.571,2.571,0,0,1-.469-1.482h1.536A1.59,1.59,0,0,0,12.6,14.46a2.4,2.4,0,0,0,1.523.452,2.476,2.476,0,0,0,1.4-.353A1.084,1.084,0,0,0,16.054,13.618ZM25.467,16H23.931V3.25h1.536Zm2.05-4.574a5.3,5.3,0,0,1,.519-2.374A3.87,3.87,0,0,1,29.48,7.425a3.932,3.932,0,0,1,2.113-.573,3.788,3.788,0,0,1,2.968,1.27A4.886,4.886,0,0,1,35.693,11.5v.108a5.351,5.351,0,0,1-.5,2.353,3.813,3.813,0,0,1-1.436,1.623,3.977,3.977,0,0,1-2.146.581A3.778,3.778,0,0,1,28.65,14.9a4.861,4.861,0,0,1-1.133-3.362Zm1.544.183a3.842,3.842,0,0,0,.693,2.4A2.349,2.349,0,0,0,33.469,14a4.2,4.2,0,0,0,.689-2.569,3.836,3.836,0,0,0-.7-2.395,2.23,2.23,0,0,0-1.864-.917,2.205,2.205,0,0,0-1.834.9A4.17,4.17,0,0,0,29.061,11.609Zm12.393-.174a5.272,5.272,0,0,1,.971-3.349,3.428,3.428,0,0,1,5.122-.162l.066-.9h1.411V19.453H47.489V15.17a3.223,3.223,0,0,1-2.474,1A3.1,3.1,0,0,1,42.421,14.9a5.389,5.389,0,0,1-.967-3.358Zm1.536.174a4,4,0,0,0,.652,2.424,2.073,2.073,0,0,0,1.756.88A2.3,2.3,0,0,0,47.489,13.7V9.3a2.307,2.307,0,0,0-2.075-1.187A2.088,2.088,0,0,0,43.646,9,4.35,4.35,0,0,0,42.99,11.609Zm14.045,3.5A3.262,3.262,0,0,1,54.4,16.166a2.792,2.792,0,0,1-2.187-.834,3.611,3.611,0,0,1-.76-2.469V7.019h1.536v5.8q0,2.042,1.66,2.042a2.3,2.3,0,0,0,2.341-1.312V7.019h1.536V16H57.068Zm7.554,1.054a3.924,3.924,0,0,1-2.972-1.2,4.452,4.452,0,0,1-1.146-3.208v-.282a5.39,5.39,0,0,1,.51-2.386,3.982,3.982,0,0,1,1.428-1.644A3.59,3.59,0,0,1,64.4,6.853,3.364,3.364,0,0,1,67.12,8.006a5,5,0,0,1,.971,3.3v.639H62.007a3.193,3.193,0,0,0,.776,2.146,2.44,2.44,0,0,0,1.888.818,2.675,2.675,0,0,0,1.378-.332,3.462,3.462,0,0,0,.988-.88l.938.73A3.772,3.772,0,0,1,64.588,16.166ZM64.4,8.114a2.048,2.048,0,0,0-1.561.677,3.288,3.288,0,0,0-.78,1.9h4.5v-.116a2.925,2.925,0,0,0-.631-1.814A1.928,1.928,0,0,0,64.4,8.114Zm14.908,5.5a1.131,1.131,0,0,0-.469-.967,4.514,4.514,0,0,0-1.635-.594,7.731,7.731,0,0,1-1.851-.6,2.633,2.633,0,0,1-1.013-.83,1.986,1.986,0,0,1-.328-1.146,2.33,2.33,0,0,1,.934-1.868,3.647,3.647,0,0,1,2.386-.764,3.753,3.753,0,0,1,2.478.789,2.5,2.5,0,0,1,.95,2.017H79.214a1.386,1.386,0,0,0-.535-1.087,2.006,2.006,0,0,0-1.349-.457,2.1,2.1,0,0,0-1.312.365,1.15,1.15,0,0,0-.473.955.932.932,0,0,0,.44.838,5.413,5.413,0,0,0,1.59.54,8.283,8.283,0,0,1,1.864.614,2.718,2.718,0,0,1,1.058.859,2.112,2.112,0,0,1,.344,1.224,2.3,2.3,0,0,1-.963,1.93,4.039,4.039,0,0,1-2.5.726,4.523,4.523,0,0,1-1.909-.382,3.105,3.105,0,0,1-1.3-1.067,2.571,2.571,0,0,1-.469-1.482h1.536a1.59,1.59,0,0,0,.618,1.224,2.4,2.4,0,0,0,1.523.452,2.476,2.476,0,0,0,1.4-.353A1.084,1.084,0,0,0,79.306,13.618Zm7.263,2.548a3.924,3.924,0,0,1-2.972-1.2,4.452,4.452,0,0,1-1.146-3.208v-.282a5.39,5.39,0,0,1,.51-2.386A3.982,3.982,0,0,1,84.39,7.446a3.59,3.59,0,0,1,1.988-.594A3.364,3.364,0,0,1,89.1,8.006a5,5,0,0,1,.971,3.3v.639H83.987a3.193,3.193,0,0,0,.776,2.146,2.44,2.44,0,0,0,1.888.818,2.675,2.675,0,0,0,1.378-.332,3.462,3.462,0,0,0,.988-.88l.938.73A3.772,3.772,0,0,1,86.569,16.166Zm-.191-8.052a2.048,2.048,0,0,0-1.561.677,3.288,3.288,0,0,0-.78,1.9h4.5v-.116a2.925,2.925,0,0,0-.631-1.814A1.928,1.928,0,0,0,86.378,8.114Zm9.305,3.32a5.272,5.272,0,0,1,.971-3.349,3.428,3.428,0,0,1,5.122-.162l.066-.9h1.411V19.453h-1.536V15.17a3.223,3.223,0,0,1-2.474,1A3.1,3.1,0,0,1,96.65,14.9a5.389,5.389,0,0,1-.967-3.358Zm1.536.174a4,4,0,0,0,.652,2.424,2.073,2.073,0,0,0,1.756.88,2.3,2.3,0,0,0,2.092-1.212V9.3a2.307,2.307,0,0,0-2.075-1.187A2.088,2.088,0,0,0,97.875,9,4.35,4.35,0,0,0,97.219,11.609Zm14.045,3.5a3.262,3.262,0,0,1-2.631,1.054,2.792,2.792,0,0,1-2.187-.834,3.611,3.611,0,0,1-.76-2.469V7.019h1.536v5.8q0,2.042,1.66,2.042a2.3,2.3,0,0,0,2.341-1.312V7.019h1.536V16H111.3Zm5.5.888h-1.536V7.019h1.536ZM115.1,4.636a.917.917,0,0,1,.228-.631A.857.857,0,0,1,116,3.748a.87.87,0,0,1,.681.257.907.907,0,0,1,.232.631.877.877,0,0,1-.232.623.886.886,0,0,1-.681.249.872.872,0,0,1-.677-.249A.886.886,0,0,1,115.1,4.636Zm7.844,11.53a3.924,3.924,0,0,1-2.972-1.2,4.452,4.452,0,0,1-1.146-3.208v-.282a5.39,5.39,0,0,1,.51-2.386,3.982,3.982,0,0,1,1.428-1.644,3.59,3.59,0,0,1,1.988-.594,3.364,3.364,0,0,1,2.723,1.154,5,5,0,0,1,.971,3.3v.639h-6.084a3.193,3.193,0,0,0,.776,2.146,2.44,2.44,0,0,0,1.888.818,2.675,2.675,0,0,0,1.378-.332,3.462,3.462,0,0,0,.988-.88l.938.73A3.772,3.772,0,0,1,122.943,16.166Zm-.191-8.052a2.048,2.048,0,0,0-1.561.677,3.288,3.288,0,0,0-.78,1.9h4.5v-.116a2.925,2.925,0,0,0-.631-1.814A1.928,1.928,0,0,0,122.752,8.114Zm9.812.282a4.6,4.6,0,0,0-.755-.058,2.024,2.024,0,0,0-2.05,1.287V16h-1.536V7.019h1.494l.025,1.038a2.391,2.391,0,0,1,2.142-1.2,1.569,1.569,0,0,1,.681.116Zm4.98,7.77a3.924,3.924,0,0,1-2.972-1.2,4.452,4.452,0,0,1-1.146-3.208v-.282a5.39,5.39,0,0,1,.51-2.386,3.982,3.982,0,0,1,1.428-1.644,3.59,3.59,0,0,1,1.988-.594,3.364,3.364,0,0,1,2.723,1.154,5,5,0,0,1,.971,3.3v.639h-6.084a3.193,3.193,0,0,0,.776,2.146,2.44,2.44,0,0,0,1.888.818A2.675,2.675,0,0,0,139,14.581a3.462,3.462,0,0,0,.988-.88l.938.73A3.772,3.772,0,0,1,137.544,16.166Zm-.191-8.052a2.048,2.048,0,0,0-1.561.677,3.288,3.288,0,0,0-.78,1.9h4.5v-.116a2.925,2.925,0,0,0-.631-1.814A1.928,1.928,0,0,0,137.353,8.114Zm13.281,6.8a2.212,2.212,0,0,0,1.436-.5,1.752,1.752,0,0,0,.681-1.245H154.2a2.785,2.785,0,0,1-.531,1.469,3.5,3.5,0,0,1-1.307,1.112,3.772,3.772,0,0,1-1.731.415,3.7,3.7,0,0,1-2.918-1.224,4.877,4.877,0,0,1-1.083-3.349v-.257A5.407,5.407,0,0,1,147.115,9,3.667,3.667,0,0,1,148.5,7.417a3.926,3.926,0,0,1,2.129-.564,3.6,3.6,0,0,1,2.511.9,3.234,3.234,0,0,1,1.067,2.349h-1.453a2.116,2.116,0,0,0-.66-1.432,2.053,2.053,0,0,0-1.465-.56,2.149,2.149,0,0,0-1.814.843,3.957,3.957,0,0,0-.643,2.436v.291a3.878,3.878,0,0,0,.639,2.391A2.16,2.16,0,0,0,150.634,14.913Zm4.889-3.486a5.3,5.3,0,0,1,.519-2.374,3.87,3.87,0,0,1,1.444-1.627,3.932,3.932,0,0,1,2.113-.573,3.788,3.788,0,0,1,2.968,1.27A4.886,4.886,0,0,1,163.7,11.5v.108a5.351,5.351,0,0,1-.5,2.353,3.813,3.813,0,0,1-1.436,1.623,3.977,3.977,0,0,1-2.146.581,3.778,3.778,0,0,1-2.959-1.27,4.861,4.861,0,0,1-1.133-3.362Zm1.544.183a3.842,3.842,0,0,0,.693,2.4A2.349,2.349,0,0,0,161.475,14a4.2,4.2,0,0,0,.689-2.569,3.836,3.836,0,0,0-.7-2.395,2.23,2.23,0,0,0-1.864-.917,2.205,2.205,0,0,0-1.834.9A4.17,4.17,0,0,0,157.067,11.609Zm10-4.59.042,1a3.317,3.317,0,0,1,2.665-1.162A2.568,2.568,0,0,1,172.341,8.3a3.4,3.4,0,0,1,1.166-1.046,3.445,3.445,0,0,1,1.7-.4q2.955,0,3,3.129V16h-1.536V10.073a2.062,2.062,0,0,0-.44-1.44,1.937,1.937,0,0,0-1.478-.477,2.036,2.036,0,0,0-1.419.51,2.071,2.071,0,0,0-.656,1.374V16h-1.544V10.115a1.713,1.713,0,0,0-1.917-1.959,2.055,2.055,0,0,0-2.067,1.287V16h-1.536V7.019Zm19,8.093a3.262,3.262,0,0,1-2.631,1.054,2.792,2.792,0,0,1-2.187-.834,3.611,3.611,0,0,1-.76-2.469V7.019h1.536v5.8q0,2.042,1.66,2.042a2.3,2.3,0,0,0,2.341-1.312V7.019h1.536V16H186.1Zm5.279-8.093.05,1.129a3.273,3.273,0,0,1,2.689-1.295q2.847,0,2.872,3.212V16h-1.536V10.057a2.068,2.068,0,0,0-.444-1.436,1.78,1.78,0,0,0-1.357-.465,2.216,2.216,0,0,0-1.312.4,2.706,2.706,0,0,0-.88,1.046V16H189.9V7.019Zm9.6,8.981H199.41V7.019h1.536Zm-1.66-11.364a.917.917,0,0,1,.228-.631.857.857,0,0,1,.677-.257.87.87,0,0,1,.681.257.907.907,0,0,1,.232.631.877.877,0,0,1-.232.623.886.886,0,0,1-.681.249.872.872,0,0,1-.677-.249A.886.886,0,0,1,199.285,4.636ZM207,14.913a2.212,2.212,0,0,0,1.436-.5,1.752,1.752,0,0,0,.681-1.245h1.453a2.785,2.785,0,0,1-.531,1.469,3.5,3.5,0,0,1-1.307,1.112,3.772,3.772,0,0,1-1.731.415,3.7,3.7,0,0,1-2.918-1.224A4.877,4.877,0,0,1,203,11.592v-.257A5.407,5.407,0,0,1,203.485,9a3.667,3.667,0,0,1,1.382-1.585A3.926,3.926,0,0,1,207,6.853a3.6,3.6,0,0,1,2.511.9,3.234,3.234,0,0,1,1.067,2.349h-1.453a2.116,2.116,0,0,0-.66-1.432A2.053,2.053,0,0,0,207,8.114a2.149,2.149,0,0,0-1.814.843,3.957,3.957,0,0,0-.643,2.436v.291a3.878,3.878,0,0,0,.639,2.391A2.16,2.16,0,0,0,207,14.913ZM217.846,16a3.226,3.226,0,0,1-.216-.946,3.426,3.426,0,0,1-2.557,1.112,3.17,3.17,0,0,1-2.179-.751,2.43,2.43,0,0,1-.851-1.905,2.539,2.539,0,0,1,1.067-2.179,5.029,5.029,0,0,1,3-.776H217.6V9.849a1.725,1.725,0,0,0-.481-1.282,1.935,1.935,0,0,0-1.419-.477,2.239,2.239,0,0,0-1.378.415,1.223,1.223,0,0,0-.556,1h-1.544a2.119,2.119,0,0,1,.477-1.3A3.258,3.258,0,0,1,214,7.218a4.356,4.356,0,0,1,1.8-.365,3.551,3.551,0,0,1,2.432.776,2.8,2.8,0,0,1,.913,2.137V13.9a5.054,5.054,0,0,0,.315,1.967V16ZM215.3,14.83a2.7,2.7,0,0,0,1.37-.374,2.259,2.259,0,0,0,.938-.971V11.642h-1.2q-2.822,0-2.822,1.652a1.4,1.4,0,0,0,.481,1.129A1.85,1.85,0,0,0,215.3,14.83ZM225.889,8.4a4.6,4.6,0,0,0-.755-.058,2.024,2.024,0,0,0-2.05,1.287V16h-1.536V7.019h1.494l.025,1.038a2.391,2.391,0,0,1,2.142-1.2,1.569,1.569,0,0,1,.681.116Z" transform="translate(680 2499)" fill="#12263f"/>
      <path id="Trazado_606869" data-name="Trazado 606869" d="M8.234,10.414H3V14.7H9.081V16H1.4V3.914H9v1.3H3V9.11H8.234Zm7.819,3.2a1.131,1.131,0,0,0-.469-.967,4.514,4.514,0,0,0-1.635-.594,7.731,7.731,0,0,1-1.851-.6,2.633,2.633,0,0,1-1.013-.83,1.986,1.986,0,0,1-.328-1.146,2.33,2.33,0,0,1,.934-1.868,3.647,3.647,0,0,1,2.386-.764,3.753,3.753,0,0,1,2.478.789,2.5,2.5,0,0,1,.95,2.017H15.962a1.386,1.386,0,0,0-.535-1.087,2.006,2.006,0,0,0-1.349-.457,2.1,2.1,0,0,0-1.312.365,1.15,1.15,0,0,0-.473.955.932.932,0,0,0,.44.838,5.413,5.413,0,0,0,1.59.54,8.283,8.283,0,0,1,1.864.614,2.718,2.718,0,0,1,1.058.859,2.112,2.112,0,0,1,.344,1.224,2.3,2.3,0,0,1-.963,1.93,4.039,4.039,0,0,1-2.5.726,4.523,4.523,0,0,1-1.909-.382,3.105,3.105,0,0,1-1.3-1.067,2.571,2.571,0,0,1-.469-1.482h1.536A1.59,1.59,0,0,0,12.6,14.46a2.4,2.4,0,0,0,1.523.452,2.476,2.476,0,0,0,1.4-.353A1.084,1.084,0,0,0,16.054,13.618ZM25.467,16H23.931V3.25h1.536Zm8,0a3.226,3.226,0,0,1-.216-.946A3.426,3.426,0,0,1,30.7,16.166a3.17,3.17,0,0,1-2.179-.751,2.43,2.43,0,0,1-.851-1.905,2.539,2.539,0,0,1,1.067-2.179,5.029,5.029,0,0,1,3-.776h1.494V9.849a1.725,1.725,0,0,0-.481-1.282,1.935,1.935,0,0,0-1.419-.477,2.239,2.239,0,0,0-1.378.415,1.223,1.223,0,0,0-.556,1H27.849a2.119,2.119,0,0,1,.477-1.3,3.258,3.258,0,0,1,1.295-.992,4.356,4.356,0,0,1,1.8-.365,3.551,3.551,0,0,1,2.432.776,2.8,2.8,0,0,1,.913,2.137V13.9a5.054,5.054,0,0,0,.315,1.967V16ZM30.92,14.83a2.7,2.7,0,0,0,1.37-.374,2.259,2.259,0,0,0,.938-.971V11.642h-1.2q-2.822,0-2.822,1.652a1.4,1.4,0,0,0,.481,1.129A1.85,1.85,0,0,0,30.92,14.83Zm18.046-3.221a5.378,5.378,0,0,1-.938,3.3,3.006,3.006,0,0,1-2.54,1.253,3.294,3.294,0,0,1-2.573-1.038v4.325H41.379V7.019h1.4l.075,1a3.163,3.163,0,0,1,2.606-1.162,3.063,3.063,0,0,1,2.561,1.22,5.437,5.437,0,0,1,.942,3.4Zm-1.536-.174a3.968,3.968,0,0,0-.647-2.4,2.086,2.086,0,0,0-1.776-.88,2.257,2.257,0,0,0-2.092,1.237v4.292a2.262,2.262,0,0,0,2.108,1.229,2.076,2.076,0,0,0,1.756-.876A4.332,4.332,0,0,0,47.431,11.435Zm7.213,4.731a3.924,3.924,0,0,1-2.972-1.2,4.452,4.452,0,0,1-1.146-3.208v-.282a5.39,5.39,0,0,1,.51-2.386,3.982,3.982,0,0,1,1.428-1.644,3.59,3.59,0,0,1,1.988-.594,3.364,3.364,0,0,1,2.723,1.154,5,5,0,0,1,.971,3.3v.639H52.063a3.193,3.193,0,0,0,.776,2.146,2.44,2.44,0,0,0,1.888.818,2.675,2.675,0,0,0,1.378-.332,3.462,3.462,0,0,0,.988-.88l.938.73A3.772,3.772,0,0,1,54.644,16.166Zm-.191-8.052a2.048,2.048,0,0,0-1.561.677,3.288,3.288,0,0,0-.78,1.9h4.5v-.116a2.925,2.925,0,0,0-.631-1.814A1.928,1.928,0,0,0,54.453,8.114Zm9.812.282a4.6,4.6,0,0,0-.755-.058,2.024,2.024,0,0,0-2.05,1.287V16H59.923V7.019h1.494l.025,1.038a2.391,2.391,0,0,1,2.142-1.2,1.569,1.569,0,0,1,.681.116Zm6.641,5.221a1.131,1.131,0,0,0-.469-.967,4.514,4.514,0,0,0-1.635-.594,7.731,7.731,0,0,1-1.851-.6,2.633,2.633,0,0,1-1.013-.83,1.986,1.986,0,0,1-.328-1.146,2.33,2.33,0,0,1,.934-1.868,3.647,3.647,0,0,1,2.386-.764,3.753,3.753,0,0,1,2.478.789,2.5,2.5,0,0,1,.95,2.017H70.814a1.386,1.386,0,0,0-.535-1.087,2.006,2.006,0,0,0-1.349-.457,2.1,2.1,0,0,0-1.312.365,1.15,1.15,0,0,0-.473.955.932.932,0,0,0,.44.838,5.413,5.413,0,0,0,1.59.54,8.283,8.283,0,0,1,1.864.614,2.718,2.718,0,0,1,1.058.859,2.112,2.112,0,0,1,.344,1.224,2.3,2.3,0,0,1-.963,1.93,4.039,4.039,0,0,1-2.5.726,4.523,4.523,0,0,1-1.909-.382,3.105,3.105,0,0,1-1.3-1.067,2.571,2.571,0,0,1-.469-1.482h1.536a1.59,1.59,0,0,0,.618,1.224,2.4,2.4,0,0,0,1.523.452,2.476,2.476,0,0,0,1.4-.353A1.084,1.084,0,0,0,70.905,13.618Zm3.129-2.191a5.3,5.3,0,0,1,.519-2.374A3.87,3.87,0,0,1,76,7.425a3.932,3.932,0,0,1,2.113-.573,3.788,3.788,0,0,1,2.968,1.27A4.886,4.886,0,0,1,82.211,11.5v.108a5.351,5.351,0,0,1-.5,2.353,3.813,3.813,0,0,1-1.436,1.623,3.977,3.977,0,0,1-2.146.581,3.778,3.778,0,0,1-2.959-1.27,4.861,4.861,0,0,1-1.133-3.362Zm1.544.183a3.842,3.842,0,0,0,.693,2.4A2.349,2.349,0,0,0,79.986,14a4.2,4.2,0,0,0,.689-2.569,3.836,3.836,0,0,0-.7-2.395,2.23,2.23,0,0,0-1.864-.917,2.205,2.205,0,0,0-1.834.9A4.17,4.17,0,0,0,75.579,11.609Zm10.011-4.59.05,1.129a3.273,3.273,0,0,1,2.689-1.295q2.847,0,2.872,3.212V16H89.665V10.057a2.068,2.068,0,0,0-.444-1.436,1.78,1.78,0,0,0-1.357-.465,2.216,2.216,0,0,0-1.312.4,2.706,2.706,0,0,0-.88,1.046V16H84.137V7.019ZM99.062,16a3.226,3.226,0,0,1-.216-.946,3.426,3.426,0,0,1-2.557,1.112,3.17,3.17,0,0,1-2.179-.751,2.43,2.43,0,0,1-.851-1.905,2.539,2.539,0,0,1,1.067-2.179,5.029,5.029,0,0,1,3-.776h1.494V9.849a1.725,1.725,0,0,0-.481-1.282,1.935,1.935,0,0,0-1.419-.477,2.239,2.239,0,0,0-1.378.415,1.223,1.223,0,0,0-.556,1H93.442a2.119,2.119,0,0,1,.477-1.3,3.258,3.258,0,0,1,1.295-.992,4.356,4.356,0,0,1,1.8-.365,3.551,3.551,0,0,1,2.432.776,2.8,2.8,0,0,1,.913,2.137V13.9a5.054,5.054,0,0,0,.315,1.967V16Zm-2.548-1.17a2.7,2.7,0,0,0,1.37-.374,2.259,2.259,0,0,0,.938-.971V11.642h-1.2q-2.822,0-2.822,1.652a1.4,1.4,0,0,0,.481,1.129A1.85,1.85,0,0,0,96.513,14.83Zm10.085-3.4a5.272,5.272,0,0,1,.971-3.349,3.428,3.428,0,0,1,5.122-.162l.066-.9h1.411V19.453h-1.536V15.17a3.223,3.223,0,0,1-2.474,1,3.1,3.1,0,0,1-2.594-1.266,5.389,5.389,0,0,1-.967-3.358Zm1.536.174a4,4,0,0,0,.652,2.424,2.073,2.073,0,0,0,1.756.88,2.3,2.3,0,0,0,2.092-1.212V9.3a2.307,2.307,0,0,0-2.075-1.187A2.088,2.088,0,0,0,108.79,9,4.35,4.35,0,0,0,108.134,11.609Zm14.045,3.5a3.262,3.262,0,0,1-2.631,1.054,2.792,2.792,0,0,1-2.187-.834,3.611,3.611,0,0,1-.76-2.469V7.019h1.536v5.8q0,2.042,1.66,2.042a2.3,2.3,0,0,0,2.341-1.312V7.019h1.536V16h-1.461Zm7.554,1.054a3.924,3.924,0,0,1-2.972-1.2,4.452,4.452,0,0,1-1.146-3.208v-.282a5.39,5.39,0,0,1,.51-2.386,3.982,3.982,0,0,1,1.428-1.644,3.59,3.59,0,0,1,1.988-.594,3.364,3.364,0,0,1,2.723,1.154,5,5,0,0,1,.971,3.3v.639h-6.084a3.193,3.193,0,0,0,.776,2.146,2.44,2.44,0,0,0,1.888.818,2.675,2.675,0,0,0,1.378-.332,3.462,3.462,0,0,0,.988-.88l.938.73A3.772,3.772,0,0,1,129.733,16.166Zm-.191-8.052a2.048,2.048,0,0,0-1.561.677,3.288,3.288,0,0,0-.78,1.9h4.5v-.116a2.925,2.925,0,0,0-.631-1.814A1.928,1.928,0,0,0,129.542,8.114Z" transform="translate(364 2694)" fill="#12263f"/>
      <path id="Trazado_606870" data-name="Trazado 606870" d="M3.246,4.844V7.019H4.922V8.206H3.246v5.577a1.247,1.247,0,0,0,.224.81.943.943,0,0,0,.764.27,3.718,3.718,0,0,0,.73-.1V16a4.478,4.478,0,0,1-1.179.165,1.912,1.912,0,0,1-1.552-.623,2.675,2.675,0,0,1-.523-1.768V8.206H.075V7.019H1.71V4.844ZM11.057,8.4a4.6,4.6,0,0,0-.755-.058,2.024,2.024,0,0,0-2.05,1.287V16H6.715V7.019H8.209l.025,1.038a2.391,2.391,0,0,1,2.142-1.2,1.569,1.569,0,0,1,.681.116ZM17.681,16a3.226,3.226,0,0,1-.216-.946,3.426,3.426,0,0,1-2.557,1.112,3.17,3.17,0,0,1-2.179-.751,2.43,2.43,0,0,1-.851-1.905,2.539,2.539,0,0,1,1.067-2.179,5.029,5.029,0,0,1,3-.776H17.44V9.849a1.725,1.725,0,0,0-.481-1.282,1.935,1.935,0,0,0-1.419-.477,2.239,2.239,0,0,0-1.378.415,1.223,1.223,0,0,0-.556,1H12.061a2.119,2.119,0,0,1,.477-1.3,3.258,3.258,0,0,1,1.295-.992,4.356,4.356,0,0,1,1.8-.365,3.551,3.551,0,0,1,2.432.776,2.8,2.8,0,0,1,.913,2.137V13.9a5.054,5.054,0,0,0,.315,1.967V16Zm-2.548-1.17a2.7,2.7,0,0,0,1.37-.374,2.259,2.259,0,0,0,.938-.971V11.642h-1.2q-2.822,0-2.822,1.652a1.4,1.4,0,0,0,.481,1.129A1.85,1.85,0,0,0,15.132,14.83Zm7.7-7.811.05,1.129a3.273,3.273,0,0,1,2.689-1.295q2.847,0,2.872,3.212V16H26.911V10.057a2.068,2.068,0,0,0-.444-1.436,1.78,1.78,0,0,0-1.357-.465,2.216,2.216,0,0,0-1.312.4,2.706,2.706,0,0,0-.88,1.046V16H21.383V7.019Zm13.157,6.6a1.13,1.13,0,0,0-.469-.967,4.514,4.514,0,0,0-1.635-.594,7.731,7.731,0,0,1-1.851-.6,2.633,2.633,0,0,1-1.013-.83A1.986,1.986,0,0,1,30.7,9.484a2.33,2.33,0,0,1,.934-1.868,3.647,3.647,0,0,1,2.386-.764,3.753,3.753,0,0,1,2.478.789,2.5,2.5,0,0,1,.95,2.017H35.9a1.386,1.386,0,0,0-.535-1.087,2.006,2.006,0,0,0-1.349-.457,2.1,2.1,0,0,0-1.312.365,1.15,1.15,0,0,0-.473.955.932.932,0,0,0,.44.838,5.413,5.413,0,0,0,1.59.54,8.283,8.283,0,0,1,1.864.614,2.718,2.718,0,0,1,1.058.859,2.112,2.112,0,0,1,.344,1.224,2.3,2.3,0,0,1-.963,1.93,4.039,4.039,0,0,1-2.5.726,4.523,4.523,0,0,1-1.909-.382,3.105,3.105,0,0,1-1.3-1.067,2.571,2.571,0,0,1-.469-1.482h1.536a1.59,1.59,0,0,0,.618,1.224,2.4,2.4,0,0,0,1.523.452,2.476,2.476,0,0,0,1.4-.353A1.084,1.084,0,0,0,35.992,13.618Zm4.98-6.6.042,1a3.317,3.317,0,0,1,2.665-1.162A2.568,2.568,0,0,1,46.244,8.3,3.4,3.4,0,0,1,47.41,7.251a3.445,3.445,0,0,1,1.7-.4q2.955,0,3,3.129V16H50.577V10.073a2.062,2.062,0,0,0-.44-1.44,1.937,1.937,0,0,0-1.478-.477,2.036,2.036,0,0,0-1.419.51,2.071,2.071,0,0,0-.656,1.374V16H45.04V10.115a1.713,1.713,0,0,0-1.917-1.959,2.055,2.055,0,0,0-2.067,1.287V16H39.52V7.019ZM56.1,16H54.561V7.019H56.1ZM54.437,4.636a.917.917,0,0,1,.228-.631.857.857,0,0,1,.677-.257.87.87,0,0,1,.681.257.907.907,0,0,1,.232.631.877.877,0,0,1-.232.623.886.886,0,0,1-.681.249.872.872,0,0,1-.677-.249A.886.886,0,0,1,54.437,4.636Zm6.2.208V7.019h1.677V8.206H60.637v5.577a1.247,1.247,0,0,0,.224.81.943.943,0,0,0,.764.27,3.718,3.718,0,0,0,.73-.1V16a4.478,4.478,0,0,1-1.179.165,1.912,1.912,0,0,1-1.552-.623,2.675,2.675,0,0,1-.523-1.768V8.206H57.466V7.019H59.1V4.844Zm7.2,11.322a3.924,3.924,0,0,1-2.972-1.2,4.452,4.452,0,0,1-1.146-3.208v-.282a5.39,5.39,0,0,1,.51-2.386,3.982,3.982,0,0,1,1.428-1.644,3.59,3.59,0,0,1,1.988-.594,3.364,3.364,0,0,1,2.723,1.154,5,5,0,0,1,.971,3.3v.639H65.252a3.193,3.193,0,0,0,.776,2.146,2.44,2.44,0,0,0,1.888.818,2.675,2.675,0,0,0,1.378-.332,3.462,3.462,0,0,0,.988-.88l.938.73A3.772,3.772,0,0,1,67.834,16.166Zm-.191-8.052a2.048,2.048,0,0,0-1.561.677,3.288,3.288,0,0,0-.78,1.9h4.5v-.116a2.925,2.925,0,0,0-.631-1.814A1.928,1.928,0,0,0,67.643,8.114Zm13.406,8.052a3.924,3.924,0,0,1-2.972-1.2,4.452,4.452,0,0,1-1.146-3.208v-.282a5.39,5.39,0,0,1,.51-2.386A3.982,3.982,0,0,1,78.87,7.446a3.59,3.59,0,0,1,1.988-.594,3.364,3.364,0,0,1,2.723,1.154,5,5,0,0,1,.971,3.3v.639H78.467a3.193,3.193,0,0,0,.776,2.146,2.44,2.44,0,0,0,1.888.818,2.675,2.675,0,0,0,1.378-.332,3.462,3.462,0,0,0,.988-.88l.938.73A3.772,3.772,0,0,1,81.049,16.166Zm-.191-8.052a2.048,2.048,0,0,0-1.561.677,3.288,3.288,0,0,0-.78,1.9h4.5v-.116a2.925,2.925,0,0,0-.631-1.814A1.928,1.928,0,0,0,80.858,8.114ZM88,16H86.461V3.25H88Zm8.11-8.981.042,1a3.317,3.317,0,0,1,2.665-1.162A2.568,2.568,0,0,1,101.377,8.3a3.4,3.4,0,0,1,1.166-1.046,3.445,3.445,0,0,1,1.7-.4q2.955,0,3,3.129V16H105.71V10.073a2.062,2.062,0,0,0-.44-1.44,1.937,1.937,0,0,0-1.478-.477,2.036,2.036,0,0,0-1.419.51,2.071,2.071,0,0,0-.656,1.374V16h-1.544V10.115a1.713,1.713,0,0,0-1.917-1.959,2.055,2.055,0,0,0-2.067,1.287V16H94.654V7.019Zm17.183,9.147a3.924,3.924,0,0,1-2.972-1.2,4.452,4.452,0,0,1-1.146-3.208v-.282a5.39,5.39,0,0,1,.51-2.386,3.982,3.982,0,0,1,1.428-1.644,3.59,3.59,0,0,1,1.988-.594,3.364,3.364,0,0,1,2.723,1.154,5,5,0,0,1,.971,3.3v.639h-6.084a3.193,3.193,0,0,0,.776,2.146,2.44,2.44,0,0,0,1.888.818,2.675,2.675,0,0,0,1.378-.332,3.462,3.462,0,0,0,.988-.88l.938.73A3.772,3.772,0,0,1,113.289,16.166ZM113.1,8.114a2.048,2.048,0,0,0-1.561.677,3.288,3.288,0,0,0-.78,1.9h4.5v-.116a2.925,2.925,0,0,0-.631-1.814A1.928,1.928,0,0,0,113.1,8.114Zm6.923-1.1.05,1.129a3.273,3.273,0,0,1,2.689-1.295q2.847,0,2.872,3.212V16H124.1V10.057a2.068,2.068,0,0,0-.444-1.436,1.78,1.78,0,0,0-1.357-.465,2.216,2.216,0,0,0-1.312.4A2.706,2.706,0,0,0,120.1,9.6V16h-1.536V7.019Zm13.157,6.6a1.13,1.13,0,0,0-.469-.967,4.514,4.514,0,0,0-1.635-.594,7.731,7.731,0,0,1-1.851-.6,2.633,2.633,0,0,1-1.013-.83,1.986,1.986,0,0,1-.328-1.146,2.33,2.33,0,0,1,.934-1.868,3.647,3.647,0,0,1,2.386-.764,3.753,3.753,0,0,1,2.478.789,2.5,2.5,0,0,1,.95,2.017h-1.544a1.386,1.386,0,0,0-.535-1.087,2.006,2.006,0,0,0-1.349-.457,2.1,2.1,0,0,0-1.312.365,1.15,1.15,0,0,0-.473.955.932.932,0,0,0,.44.838,5.413,5.413,0,0,0,1.59.54,8.283,8.283,0,0,1,1.864.614,2.718,2.718,0,0,1,1.058.859,2.112,2.112,0,0,1,.344,1.224,2.3,2.3,0,0,1-.963,1.93,4.039,4.039,0,0,1-2.5.726,4.523,4.523,0,0,1-1.909-.382,3.105,3.105,0,0,1-1.3-1.067,2.571,2.571,0,0,1-.469-1.482h1.536a1.59,1.59,0,0,0,.618,1.224,2.4,2.4,0,0,0,1.523.452,2.476,2.476,0,0,0,1.4-.353A1.084,1.084,0,0,0,133.178,13.618ZM142.259,16a3.226,3.226,0,0,1-.216-.946,3.426,3.426,0,0,1-2.557,1.112,3.17,3.17,0,0,1-2.179-.751,2.43,2.43,0,0,1-.851-1.905,2.539,2.539,0,0,1,1.067-2.179,5.029,5.029,0,0,1,3-.776h1.494V9.849a1.725,1.725,0,0,0-.481-1.282,1.935,1.935,0,0,0-1.419-.477,2.239,2.239,0,0,0-1.378.415,1.223,1.223,0,0,0-.556,1h-1.544a2.119,2.119,0,0,1,.477-1.3,3.258,3.258,0,0,1,1.295-.992,4.356,4.356,0,0,1,1.8-.365,3.551,3.551,0,0,1,2.432.776,2.8,2.8,0,0,1,.913,2.137V13.9a5.054,5.054,0,0,0,.315,1.967V16Zm-2.548-1.17a2.7,2.7,0,0,0,1.37-.374,2.259,2.259,0,0,0,.938-.971V11.642h-1.2q-2.822,0-2.822,1.652a1.4,1.4,0,0,0,.481,1.129A1.85,1.85,0,0,0,139.71,14.83Zm7.836-7.811V17.038q0,2.59-2.349,2.59a2.865,2.865,0,0,1-.938-.149V18.258a2.969,2.969,0,0,0,.7.066,1.043,1.043,0,0,0,.784-.278,1.376,1.376,0,0,0,.27-.968V7.019Zm-1.693-2.382a.921.921,0,0,1,.228-.627.839.839,0,0,1,.668-.261.87.87,0,0,1,.681.257.907.907,0,0,1,.232.631.877.877,0,0,1-.232.623.886.886,0,0,1-.681.249.859.859,0,0,1-.672-.249A.9.9,0,0,1,145.853,4.636Zm7.894,11.53a3.924,3.924,0,0,1-2.972-1.2,4.452,4.452,0,0,1-1.146-3.208v-.282a5.39,5.39,0,0,1,.51-2.386,3.982,3.982,0,0,1,1.428-1.644,3.59,3.59,0,0,1,1.988-.594,3.364,3.364,0,0,1,2.723,1.154,5,5,0,0,1,.971,3.3v.639h-6.084a3.193,3.193,0,0,0,.776,2.146,2.44,2.44,0,0,0,1.888.818,2.675,2.675,0,0,0,1.378-.332,3.462,3.462,0,0,0,.988-.88l.938.73A3.772,3.772,0,0,1,153.747,16.166Zm-.191-8.052A2.048,2.048,0,0,0,152,8.791a3.288,3.288,0,0,0-.78,1.9h4.5v-.116a2.925,2.925,0,0,0-.631-1.814A1.928,1.928,0,0,0,153.556,8.114Z" transform="translate(352 2718)" fill="#12263f"/>
      <path id="Trazado_606874" data-name="Trazado 606874" d="M10.633,10.347a7.465,7.465,0,0,1-.556,3.017,4.662,4.662,0,0,1-1.561,1.98l2.158,1.693-1.087,1L7.039,16.017a5.185,5.185,0,0,1-1.262.149,4.619,4.619,0,0,1-2.532-.7,4.635,4.635,0,0,1-1.714-2A7.174,7.174,0,0,1,.9,10.455V9.583A7.388,7.388,0,0,1,1.511,6.5,4.619,4.619,0,0,1,3.225,4.458a4.6,4.6,0,0,1,2.536-.71,4.68,4.68,0,0,1,2.569.706,4.551,4.551,0,0,1,1.706,2.03,7.455,7.455,0,0,1,.6,3.092ZM9.04,9.567a5.485,5.485,0,0,0-.851-3.291A2.832,2.832,0,0,0,5.761,5.118a2.809,2.809,0,0,0-2.37,1.15A5.308,5.308,0,0,0,2.5,9.459v.888a5.469,5.469,0,0,0,.867,3.271,2.812,2.812,0,0,0,2.411,1.2,2.817,2.817,0,0,0,2.391-1.125,5.4,5.4,0,0,0,.872-3.225Zm9.355,5.545a3.262,3.262,0,0,1-2.631,1.054,2.792,2.792,0,0,1-2.187-.834,3.611,3.611,0,0,1-.76-2.469V7.019h1.536v5.8q0,2.042,1.66,2.042a2.3,2.3,0,0,0,2.341-1.312V7.019h1.536V16H18.428Zm5.5.888H22.354V7.019H23.89ZM22.229,4.636a.917.917,0,0,1,.228-.631.857.857,0,0,1,.677-.257.87.87,0,0,1,.681.257.907.907,0,0,1,.232.631.877.877,0,0,1-.232.623.886.886,0,0,1-.681.249.872.872,0,0,1-.677-.249A.886.886,0,0,1,22.229,4.636Zm7.844,11.53a3.924,3.924,0,0,1-2.972-1.2,4.452,4.452,0,0,1-1.146-3.208v-.282a5.39,5.39,0,0,1,.51-2.386,3.982,3.982,0,0,1,1.428-1.644,3.59,3.59,0,0,1,1.988-.594,3.364,3.364,0,0,1,2.723,1.154,5,5,0,0,1,.971,3.3v.639H27.492a3.193,3.193,0,0,0,.776,2.146,2.44,2.44,0,0,0,1.888.818,2.675,2.675,0,0,0,1.378-.332,3.462,3.462,0,0,0,.988-.88l.938.73A3.772,3.772,0,0,1,30.074,16.166Zm-.191-8.052a2.048,2.048,0,0,0-1.561.677,3.288,3.288,0,0,0-.78,1.9h4.5v-.116a2.925,2.925,0,0,0-.631-1.814A1.928,1.928,0,0,0,29.883,8.114Zm6.923-1.1.05,1.129a3.273,3.273,0,0,1,2.689-1.295q2.847,0,2.872,3.212V16H40.881V10.057a2.068,2.068,0,0,0-.444-1.436,1.78,1.78,0,0,0-1.357-.465,2.216,2.216,0,0,0-1.312.4,2.706,2.706,0,0,0-.88,1.046V16H35.353V7.019ZM53.283,8.4a4.6,4.6,0,0,0-.755-.058,2.024,2.024,0,0,0-2.05,1.287V16H48.941V7.019h1.494l.025,1.038a2.391,2.391,0,0,1,2.142-1.2,1.569,1.569,0,0,1,.681.116Zm4.98,7.77a3.924,3.924,0,0,1-2.972-1.2,4.452,4.452,0,0,1-1.146-3.208v-.282a5.39,5.39,0,0,1,.51-2.386,3.982,3.982,0,0,1,1.428-1.644,3.59,3.59,0,0,1,1.988-.594,3.364,3.364,0,0,1,2.723,1.154,5,5,0,0,1,.971,3.3v.639H55.682a3.193,3.193,0,0,0,.776,2.146,2.44,2.44,0,0,0,1.888.818,2.675,2.675,0,0,0,1.378-.332,3.462,3.462,0,0,0,.988-.88l.938.73A3.772,3.772,0,0,1,58.263,16.166Zm-.191-8.052a2.048,2.048,0,0,0-1.561.677,3.288,3.288,0,0,0-.78,1.9h4.5v-.116A2.925,2.925,0,0,0,59.6,8.758,1.928,1.928,0,0,0,58.072,8.114Zm9.073,6.8a2.212,2.212,0,0,0,1.436-.5,1.752,1.752,0,0,0,.681-1.245h1.453a2.785,2.785,0,0,1-.531,1.469,3.5,3.5,0,0,1-1.307,1.112,3.772,3.772,0,0,1-1.731.415,3.7,3.7,0,0,1-2.918-1.224,4.877,4.877,0,0,1-1.083-3.349v-.257A5.407,5.407,0,0,1,63.625,9a3.667,3.667,0,0,1,1.382-1.585,3.926,3.926,0,0,1,2.129-.564,3.6,3.6,0,0,1,2.511.9,3.234,3.234,0,0,1,1.067,2.349H69.262a2.116,2.116,0,0,0-.66-1.432,2.053,2.053,0,0,0-1.465-.56,2.149,2.149,0,0,0-1.814.843,3.957,3.957,0,0,0-.643,2.436v.291a3.878,3.878,0,0,0,.639,2.391A2.16,2.16,0,0,0,67.145,14.913ZM74.109,16H72.574V7.019h1.536ZM72.449,4.636a.917.917,0,0,1,.228-.631.857.857,0,0,1,.677-.257.87.87,0,0,1,.681.257.907.907,0,0,1,.232.631.877.877,0,0,1-.232.623.886.886,0,0,1-.681.249.872.872,0,0,1-.677-.249A.886.886,0,0,1,72.449,4.636ZM84.17,11.609a5.34,5.34,0,0,1-.946,3.308,3.024,3.024,0,0,1-2.54,1.249,3.131,3.131,0,0,1-2.631-1.2L77.978,16H76.566V3.25H78.1V8.006a3.113,3.113,0,0,1,2.565-1.154,3.042,3.042,0,0,1,2.569,1.237,5.5,5.5,0,0,1,.934,3.387Zm-1.536-.174a4.15,4.15,0,0,0-.606-2.424,2.006,2.006,0,0,0-1.743-.855A2.255,2.255,0,0,0,78.1,9.567v3.885a2.318,2.318,0,0,0,2.2,1.411,2,2,0,0,0,1.718-.855A4.413,4.413,0,0,0,82.634,11.435Zm7.2,4.731a3.924,3.924,0,0,1-2.972-1.2,4.452,4.452,0,0,1-1.146-3.208v-.282a5.39,5.39,0,0,1,.51-2.386,3.982,3.982,0,0,1,1.428-1.644,3.59,3.59,0,0,1,1.988-.594,3.364,3.364,0,0,1,2.723,1.154,5,5,0,0,1,.971,3.3v.639H87.25a3.193,3.193,0,0,0,.776,2.146,2.44,2.44,0,0,0,1.888.818,2.675,2.675,0,0,0,1.378-.332,3.462,3.462,0,0,0,.988-.88l.938.73A3.772,3.772,0,0,1,89.831,16.166ZM89.64,8.114a2.048,2.048,0,0,0-1.561.677,3.288,3.288,0,0,0-.78,1.9h4.5v-.116a2.925,2.925,0,0,0-.631-1.814A1.928,1.928,0,0,0,89.64,8.114Zm13.406,8.052a3.924,3.924,0,0,1-2.972-1.2,4.452,4.452,0,0,1-1.146-3.208v-.282a5.39,5.39,0,0,1,.51-2.386,3.982,3.982,0,0,1,1.428-1.644,3.59,3.59,0,0,1,1.988-.594,3.364,3.364,0,0,1,2.723,1.154,5,5,0,0,1,.971,3.3v.639h-6.084a3.193,3.193,0,0,0,.776,2.146,2.44,2.44,0,0,0,1.888.818,2.675,2.675,0,0,0,1.378-.332,3.462,3.462,0,0,0,.988-.88l.938.73A3.772,3.772,0,0,1,103.046,16.166Zm-.191-8.052a2.048,2.048,0,0,0-1.561.677,3.288,3.288,0,0,0-.78,1.9h4.5v-.116a2.925,2.925,0,0,0-.631-1.814A1.928,1.928,0,0,0,102.855,8.114ZM109.994,16h-1.536V3.25h1.536Zm8.11-8.981.042,1a3.317,3.317,0,0,1,2.665-1.162A2.568,2.568,0,0,1,123.375,8.3a3.4,3.4,0,0,1,1.166-1.046,3.445,3.445,0,0,1,1.7-.4q2.955,0,3,3.129V16h-1.536V10.073a2.062,2.062,0,0,0-.44-1.44,1.937,1.937,0,0,0-1.478-.477,2.036,2.036,0,0,0-1.419.51,2.071,2.071,0,0,0-.656,1.374V16h-1.544V10.115a1.713,1.713,0,0,0-1.917-1.959,2.055,2.055,0,0,0-2.067,1.287V16h-1.536V7.019Zm17.183,9.147a3.924,3.924,0,0,1-2.972-1.2,4.452,4.452,0,0,1-1.146-3.208v-.282a5.39,5.39,0,0,1,.51-2.386,3.982,3.982,0,0,1,1.428-1.644,3.59,3.59,0,0,1,1.988-.594,3.364,3.364,0,0,1,2.723,1.154,5,5,0,0,1,.971,3.3v.639H132.7a3.193,3.193,0,0,0,.776,2.146,2.44,2.44,0,0,0,1.888.818,2.675,2.675,0,0,0,1.378-.332,3.462,3.462,0,0,0,.988-.88l.938.73A3.772,3.772,0,0,1,135.286,16.166ZM135.1,8.114a2.048,2.048,0,0,0-1.561.677,3.288,3.288,0,0,0-.78,1.9h4.5v-.116a2.925,2.925,0,0,0-.631-1.814A1.928,1.928,0,0,0,135.1,8.114Zm6.923-1.1.05,1.129a3.273,3.273,0,0,1,2.689-1.295q2.847,0,2.872,3.212V16h-1.536V10.057a2.068,2.068,0,0,0-.444-1.436,1.78,1.78,0,0,0-1.357-.465,2.216,2.216,0,0,0-1.312.4A2.706,2.706,0,0,0,142.1,9.6V16h-1.536V7.019Zm13.157,6.6a1.13,1.13,0,0,0-.469-.967,4.514,4.514,0,0,0-1.635-.594,7.731,7.731,0,0,1-1.851-.6,2.633,2.633,0,0,1-1.013-.83,1.986,1.986,0,0,1-.328-1.146,2.33,2.33,0,0,1,.934-1.868,3.647,3.647,0,0,1,2.386-.764,3.753,3.753,0,0,1,2.478.789,2.5,2.5,0,0,1,.95,2.017h-1.544a1.386,1.386,0,0,0-.535-1.087,2.006,2.006,0,0,0-1.349-.457,2.1,2.1,0,0,0-1.312.365,1.15,1.15,0,0,0-.473.955.932.932,0,0,0,.44.838,5.413,5.413,0,0,0,1.59.54,8.283,8.283,0,0,1,1.864.614,2.718,2.718,0,0,1,1.058.859,2.112,2.112,0,0,1,.344,1.224,2.3,2.3,0,0,1-.963,1.93,4.039,4.039,0,0,1-2.5.726,4.523,4.523,0,0,1-1.909-.382,3.105,3.105,0,0,1-1.3-1.067,2.571,2.571,0,0,1-.469-1.482h1.536a1.59,1.59,0,0,0,.618,1.224,2.4,2.4,0,0,0,1.523.452,2.476,2.476,0,0,0,1.4-.353A1.084,1.084,0,0,0,155.175,13.618ZM164.256,16a3.226,3.226,0,0,1-.216-.946,3.426,3.426,0,0,1-2.557,1.112,3.17,3.17,0,0,1-2.179-.751,2.43,2.43,0,0,1-.851-1.905,2.539,2.539,0,0,1,1.067-2.179,5.029,5.029,0,0,1,3-.776h1.494V9.849a1.725,1.725,0,0,0-.481-1.282,1.935,1.935,0,0,0-1.419-.477,2.239,2.239,0,0,0-1.378.415,1.223,1.223,0,0,0-.556,1h-1.544a2.119,2.119,0,0,1,.477-1.3,3.258,3.258,0,0,1,1.295-.992,4.356,4.356,0,0,1,1.8-.365,3.551,3.551,0,0,1,2.432.776,2.8,2.8,0,0,1,.913,2.137V13.9a5.054,5.054,0,0,0,.315,1.967V16Zm-2.548-1.17a2.7,2.7,0,0,0,1.37-.374,2.259,2.259,0,0,0,.938-.971V11.642h-1.2q-2.822,0-2.822,1.652a1.4,1.4,0,0,0,.481,1.129A1.85,1.85,0,0,0,161.708,14.83Zm7.836-7.811V17.038q0,2.59-2.349,2.59a2.865,2.865,0,0,1-.938-.149V18.258a2.969,2.969,0,0,0,.7.066,1.043,1.043,0,0,0,.784-.278,1.376,1.376,0,0,0,.27-.968V7.019ZM167.85,4.636a.921.921,0,0,1,.228-.627.839.839,0,0,1,.668-.261.87.87,0,0,1,.681.257.907.907,0,0,1,.232.631.877.877,0,0,1-.232.623.886.886,0,0,1-.681.249.859.859,0,0,1-.672-.249A.9.9,0,0,1,167.85,4.636Zm7.894,11.53a3.924,3.924,0,0,1-2.972-1.2,4.452,4.452,0,0,1-1.146-3.208v-.282a5.39,5.39,0,0,1,.51-2.386,3.982,3.982,0,0,1,1.428-1.644,3.59,3.59,0,0,1,1.988-.594,3.364,3.364,0,0,1,2.723,1.154,5,5,0,0,1,.971,3.3v.639h-6.084a3.193,3.193,0,0,0,.776,2.146,2.44,2.44,0,0,0,1.888.818,2.675,2.675,0,0,0,1.378-.332,3.462,3.462,0,0,0,.988-.88l.938.73A3.772,3.772,0,0,1,175.744,16.166Zm-.191-8.052a2.048,2.048,0,0,0-1.561.677,3.288,3.288,0,0,0-.78,1.9h4.5v-.116a2.925,2.925,0,0,0-.631-1.814A1.928,1.928,0,0,0,175.553,8.114Z" transform="translate(1077 2705)" fill="#12263f"/>
      <path id="Rectángulo_47765" data-name="Rectángulo 47765" d="M20,0h85a20,20,0,0,1,20,20V40a0,0,0,0,1,0,0H0a0,0,0,0,1,0,0V20A20,20,0,0,1,20,0Z" transform="translate(370 2638)" fill="#91e8d6"/>
      <path id="Rectángulo_47766" data-name="Rectángulo 47766" d="M20,0h85a20,20,0,0,1,20,20V40a0,0,0,0,1,0,0H0a0,0,0,0,1,0,0V20A20,20,0,0,1,20,0Z" transform="translate(1105 2638)" fill="#91e8d6"/>
      <path id="Trazado_606868" data-name="Trazado 606868" d="M8.842,11.454H3.779v3.428H9.721V17H1.143V4.2H9.7V6.339H3.779v3.05H8.842ZM13.482,7.49l.079,1.063a3.342,3.342,0,0,1,2.733-1.239,2.536,2.536,0,0,1,2.522,1.45,3.265,3.265,0,0,1,2.856-1.45,2.836,2.836,0,0,1,2.3.9,4.141,4.141,0,0,1,.756,2.711V17H22.184V10.936a1.811,1.811,0,0,0-.316-1.182,1.4,1.4,0,0,0-1.116-.374,1.585,1.585,0,0,0-1.582,1.09L19.178,17h-2.54V10.944a1.789,1.789,0,0,0-.325-1.2,1.416,1.416,0,0,0-1.107-.369,1.646,1.646,0,0,0-1.564.9V17H11.1V7.49ZM29.364,17H26.815V7.49h2.549Zm-2.7-11.971a1.251,1.251,0,0,1,.382-.94,1.648,1.648,0,0,1,2.079,0,1.244,1.244,0,0,1,.387.94,1.247,1.247,0,0,1-.391.949,1.629,1.629,0,0,1-2.065,0A1.247,1.247,0,0,1,26.666,5.029Zm9.94,9.343a.818.818,0,0,0-.461-.734,5.241,5.241,0,0,0-1.481-.479q-3.393-.712-3.393-2.883a2.613,2.613,0,0,1,1.05-2.114,4.237,4.237,0,0,1,2.747-.848,4.56,4.56,0,0,1,2.9.853,2.687,2.687,0,0,1,1.085,2.215H36.51a1.229,1.229,0,0,0-.352-.9,1.488,1.488,0,0,0-1.1-.356,1.52,1.52,0,0,0-.993.29.916.916,0,0,0-.352.738.783.783,0,0,0,.4.681,4.114,4.114,0,0,0,1.349.448,11.019,11.019,0,0,1,1.6.426,2.628,2.628,0,0,1,2.013,2.558,2.481,2.481,0,0,1-1.116,2.1,4.815,4.815,0,0,1-2.883.8,5.029,5.029,0,0,1-2.123-.426A3.561,3.561,0,0,1,31.5,15.581a2.716,2.716,0,0,1-.527-1.6h2.408a1.326,1.326,0,0,0,.5,1.037,1.987,1.987,0,0,0,1.248.36,1.839,1.839,0,0,0,1.1-.277A.861.861,0,0,0,36.606,14.372Zm3.709-2.215a5.64,5.64,0,0,1,.545-2.522,3.989,3.989,0,0,1,1.569-1.714,4.577,4.577,0,0,1,2.377-.606,4.33,4.33,0,0,1,3.142,1.178,4.727,4.727,0,0,1,1.358,3.2l.018.65A4.97,4.97,0,0,1,48.1,15.853a4.735,4.735,0,0,1-6.561,0,5.058,5.058,0,0,1-1.226-3.586Zm2.54.18a3.555,3.555,0,0,0,.51,2.073,1.831,1.831,0,0,0,2.9.009,3.89,3.89,0,0,0,.519-2.267,3.519,3.519,0,0,0-.519-2.06,1.686,1.686,0,0,0-1.459-.731,1.658,1.658,0,0,0-1.441.726A3.955,3.955,0,0,0,42.855,12.338ZM56.232,9.872a6.9,6.9,0,0,0-.914-.07,1.86,1.86,0,0,0-1.89.976V17h-2.54V7.49h2.4l.07,1.134a2.354,2.354,0,0,1,2.118-1.31,2.662,2.662,0,0,1,.791.114Z" transform="translate(402 2647)" fill="#12263f"/>
      <path id="Trazado_606873" data-name="Trazado 606873" d="M5.88,12.315h-2.1V17H1.143V4.2H5.9A5.375,5.375,0,0,1,9.4,5.214a3.488,3.488,0,0,1,1.23,2.856,3.937,3.937,0,0,1-.567,2.184,3.866,3.866,0,0,1-1.718,1.393l2.769,5.229V17H8.279Zm-2.1-2.136H5.906a2.178,2.178,0,0,0,1.538-.505,1.806,1.806,0,0,0,.545-1.393,1.933,1.933,0,0,0-.514-1.424A2.137,2.137,0,0,0,5.9,6.339H3.779Zm13.061,7a4.668,4.668,0,0,1-3.406-1.283,4.561,4.561,0,0,1-1.314-3.419v-.246a5.745,5.745,0,0,1,.554-2.562,4.064,4.064,0,0,1,1.569-1.74,4.4,4.4,0,0,1,2.316-.611,3.947,3.947,0,0,1,3.072,1.23,5,5,0,0,1,1.121,3.489v1.037H14.7a2.36,2.36,0,0,0,.743,1.494,2.245,2.245,0,0,0,1.569.563A2.742,2.742,0,0,0,19.3,14.064l1.248,1.4A3.813,3.813,0,0,1,19,16.723,5.075,5.075,0,0,1,16.84,17.176Zm-.29-7.813a1.587,1.587,0,0,0-1.226.512,2.651,2.651,0,0,0-.6,1.466h3.533v-.2A1.891,1.891,0,0,0,17.8,9.826,1.638,1.638,0,0,0,16.55,9.362Zm9.6,5.766a1.666,1.666,0,0,0,1.143-.387,1.355,1.355,0,0,0,.457-1.028h2.382a3.258,3.258,0,0,1-.527,1.771,3.48,3.48,0,0,1-1.419,1.248,4.442,4.442,0,0,1-1.991.444,4.129,4.129,0,0,1-3.217-1.3A5.13,5.13,0,0,1,21.8,12.3v-.167a5.071,5.071,0,0,1,1.169-3.507,4.08,4.08,0,0,1,3.208-1.31A4,4,0,0,1,29.035,8.33a3.594,3.594,0,0,1,1.094,2.7H27.747a1.745,1.745,0,0,0-.457-1.206,1.7,1.7,0,0,0-2.5.183,3.749,3.749,0,0,0-.453,2.1v.264a3.8,3.8,0,0,0,.448,2.113A1.549,1.549,0,0,0,26.147,15.128Zm9.809,2.048a4.668,4.668,0,0,1-3.406-1.283,4.561,4.561,0,0,1-1.314-3.419v-.246a5.745,5.745,0,0,1,.554-2.562,4.064,4.064,0,0,1,1.569-1.74,4.4,4.4,0,0,1,2.316-.611,3.947,3.947,0,0,1,3.072,1.23,5,5,0,0,1,1.121,3.489v1.037H33.812a2.36,2.36,0,0,0,.743,1.494,2.245,2.245,0,0,0,1.569.563,2.742,2.742,0,0,0,2.294-1.063l1.248,1.4a3.813,3.813,0,0,1-1.547,1.261A5.075,5.075,0,0,1,35.956,17.176Zm-.29-7.813a1.587,1.587,0,0,0-1.226.512,2.651,2.651,0,0,0-.6,1.466h3.533v-.2a1.891,1.891,0,0,0-.457-1.311A1.638,1.638,0,0,0,35.666,9.362Zm14.2,2.971a5.7,5.7,0,0,1-1,3.52,3.2,3.2,0,0,1-2.694,1.323,2.963,2.963,0,0,1-2.329-1v4.482h-2.54V7.49h2.355l.088.932A2.985,2.985,0,0,1,46.16,7.314a3.22,3.22,0,0,1,2.733,1.3,5.858,5.858,0,0,1,.976,3.586Zm-2.54-.185a3.743,3.743,0,0,0-.47-2.048,1.532,1.532,0,0,0-1.367-.721,1.663,1.663,0,0,0-1.644.914v3.894a1.692,1.692,0,0,0,1.661.94Q47.329,15.128,47.329,12.148Zm7.154-7V7.49h1.626V9.354H54.483V14.1a1.133,1.133,0,0,0,.2.756,1.015,1.015,0,0,0,.773.229,4.051,4.051,0,0,0,.747-.062v1.925a5.229,5.229,0,0,1-1.538.229,2.425,2.425,0,0,1-2.725-2.7V9.354H50.555V7.49h1.389V5.152Zm2.382,7a5.64,5.64,0,0,1,.545-2.522,3.989,3.989,0,0,1,1.569-1.714,4.577,4.577,0,0,1,2.377-.606A4.33,4.33,0,0,1,64.5,8.492a4.727,4.727,0,0,1,1.358,3.2l.018.65a4.97,4.97,0,0,1-1.222,3.511,4.735,4.735,0,0,1-6.561,0,5.058,5.058,0,0,1-1.226-3.586Zm2.54.18a3.555,3.555,0,0,0,.51,2.073,1.831,1.831,0,0,0,2.9.009,3.89,3.89,0,0,0,.519-2.267,3.519,3.519,0,0,0-.519-2.06,1.686,1.686,0,0,0-1.459-.731,1.658,1.658,0,0,0-1.441.726A3.955,3.955,0,0,0,59.405,12.338ZM72.782,9.872a6.9,6.9,0,0,0-.914-.07,1.86,1.86,0,0,0-1.89.976V17h-2.54V7.49h2.4l.07,1.134a2.354,2.354,0,0,1,2.118-1.31,2.662,2.662,0,0,1,.791.114Z" transform="translate(1131 2647)" fill="#12263f"/>
      <g id="Grupo_161708" data-name="Grupo 161708" transform="translate(1742 4271.746) rotate(180)">
        <g id="Grupo_160582" data-name="Grupo 160582" transform="translate(932 1622.07)">
          <g id="Grupo_160578" data-name="Grupo 160578" transform="translate(14.504 82.98) rotate(90)">
            <g id="Grupo_160577" data-name="Grupo 160577" transform="translate(0 0)" clip-path="url(#clip-path)">
              <path id="Trazado_600822" data-name="Trazado 600822" d="M1.084,14.5a1.084,1.084,0,0,1-.766-1.85l5.4-5.4-5.4-5.4A1.084,1.084,0,0,1,1.85.317L8.018,6.486a1.084,1.084,0,0,1,0,1.532L1.85,14.187a1.082,1.082,0,0,1-.766.317" transform="translate(2.742 0)" fill="#144567"/>
            </g>
          </g>
          <rect id="Rectángulo_46641" data-name="Rectángulo 46641" width="87.538" height="2.072" rx="1.036" transform="translate(8.288) rotate(90)" fill="#144567"/>
        </g>
        <path id="Trazado_600829" data-name="Trazado 600829" d="M.768,10.276A.768.768,0,0,1,.225,8.965L4.052,5.138.225,1.31A.768.768,0,1,1,1.311.225l4.37,4.37a.768.768,0,0,1,0,1.086l-4.37,4.37a.767.767,0,0,1-.543.225" transform="translate(944.432 1705.05) rotate(90)" fill="#144567"/>
      </g>
      <rect id="Rectángulo_47768" data-name="Rectángulo 47768" width="190" height="24" transform="translate(705 2591)" fill="#fff"/>
      <path id="Trazado_606871" data-name="Trazado 606871" d="M10.293,12.165a4.447,4.447,0,0,1-1.415,2.959,4.638,4.638,0,0,1-3.167,1.042A4.259,4.259,0,0,1,2.279,14.63,6.178,6.178,0,0,1,.988,10.521V9.359A6.886,6.886,0,0,1,1.59,6.4,4.5,4.5,0,0,1,3.3,4.433a4.75,4.75,0,0,1,2.557-.685A4.367,4.367,0,0,1,8.94,4.823,4.5,4.5,0,0,1,10.293,7.8h-1.6a3.472,3.472,0,0,0-.9-2.1,2.725,2.725,0,0,0-1.938-.649,2.851,2.851,0,0,0-2.395,1.13A5.187,5.187,0,0,0,2.59,9.4v1.171A5.332,5.332,0,0,0,3.412,13.7a2.655,2.655,0,0,0,2.3,1.163,3.067,3.067,0,0,0,2.038-.6,3.34,3.34,0,0,0,.942-2.1ZM17.772,16a3.226,3.226,0,0,1-.216-.946A3.426,3.426,0,0,1,15,16.166a3.17,3.17,0,0,1-2.179-.751,2.43,2.43,0,0,1-.851-1.905,2.539,2.539,0,0,1,1.067-2.179,5.029,5.029,0,0,1,3-.776h1.494V9.849a1.725,1.725,0,0,0-.481-1.282,1.935,1.935,0,0,0-1.419-.477,2.239,2.239,0,0,0-1.378.415,1.223,1.223,0,0,0-.556,1H12.152a2.119,2.119,0,0,1,.477-1.3,3.258,3.258,0,0,1,1.295-.992,4.356,4.356,0,0,1,1.8-.365,3.551,3.551,0,0,1,2.432.776,2.8,2.8,0,0,1,.913,2.137V13.9a5.054,5.054,0,0,0,.315,1.967V16Zm-2.548-1.17a2.7,2.7,0,0,0,1.37-.374,2.259,2.259,0,0,0,.938-.971V11.642h-1.2q-2.822,0-2.822,1.652a1.4,1.4,0,0,0,.481,1.129A1.85,1.85,0,0,0,15.224,14.83Zm7.7-7.811.05,1.129a3.273,3.273,0,0,1,2.689-1.295q2.847,0,2.872,3.212V16H27V10.057a2.068,2.068,0,0,0-.444-1.436A1.78,1.78,0,0,0,25.2,8.156a2.216,2.216,0,0,0-1.312.4A2.706,2.706,0,0,0,23.01,9.6V16H21.474V7.019ZM36.4,16a3.226,3.226,0,0,1-.216-.946,3.426,3.426,0,0,1-2.557,1.112,3.17,3.17,0,0,1-2.179-.751A2.43,2.43,0,0,1,30.6,13.51a2.539,2.539,0,0,1,1.067-2.179,5.029,5.029,0,0,1,3-.776h1.494V9.849a1.725,1.725,0,0,0-.481-1.282,1.935,1.935,0,0,0-1.419-.477,2.239,2.239,0,0,0-1.378.415,1.223,1.223,0,0,0-.556,1H30.779a2.119,2.119,0,0,1,.477-1.3,3.258,3.258,0,0,1,1.295-.992,4.356,4.356,0,0,1,1.8-.365,3.551,3.551,0,0,1,2.432.776,2.8,2.8,0,0,1,.913,2.137V13.9a5.054,5.054,0,0,0,.315,1.967V16Zm-2.548-1.17a2.7,2.7,0,0,0,1.37-.374,2.259,2.259,0,0,0,.938-.971V11.642h-1.2q-2.822,0-2.822,1.652a1.4,1.4,0,0,0,.481,1.129A1.85,1.85,0,0,0,33.851,14.83ZM41.77,16H40.234V3.25H41.77Zm6.292-4.565a5.261,5.261,0,0,1,.979-3.324A3.333,3.333,0,0,1,54.1,7.932V3.25H55.64V16H54.229l-.075-.963a3.127,3.127,0,0,1-2.565,1.129,3.068,3.068,0,0,1-2.544-1.278,5.321,5.321,0,0,1-.984-3.337Zm1.536.174A3.984,3.984,0,0,0,50.228,14a2.039,2.039,0,0,0,1.743.863A2.24,2.24,0,0,0,54.1,13.551V9.426a2.257,2.257,0,0,0-2.117-1.27,2.049,2.049,0,0,0-1.76.872A4.386,4.386,0,0,0,49.6,11.609ZM61.75,16.166a3.924,3.924,0,0,1-2.972-1.2,4.452,4.452,0,0,1-1.146-3.208v-.282a5.39,5.39,0,0,1,.51-2.386,3.982,3.982,0,0,1,1.428-1.644,3.59,3.59,0,0,1,1.988-.594,3.364,3.364,0,0,1,2.723,1.154,5,5,0,0,1,.971,3.3v.639H59.168a3.193,3.193,0,0,0,.776,2.146,2.44,2.44,0,0,0,1.888.818,2.675,2.675,0,0,0,1.378-.332,3.462,3.462,0,0,0,.988-.88l.938.73A3.772,3.772,0,0,1,61.75,16.166Zm-.191-8.052A2.048,2.048,0,0,0,60,8.791a3.288,3.288,0,0,0-.78,1.9h4.5v-.116a2.925,2.925,0,0,0-.631-1.814A1.928,1.928,0,0,0,61.559,8.114Zm13.281,6.8a2.212,2.212,0,0,0,1.436-.5,1.752,1.752,0,0,0,.681-1.245h1.453a2.785,2.785,0,0,1-.531,1.469,3.5,3.5,0,0,1-1.307,1.112,3.772,3.772,0,0,1-1.731.415,3.7,3.7,0,0,1-2.918-1.224,4.877,4.877,0,0,1-1.083-3.349v-.257A5.407,5.407,0,0,1,71.32,9,3.667,3.667,0,0,1,72.7,7.417a3.926,3.926,0,0,1,2.129-.564,3.6,3.6,0,0,1,2.511.9,3.234,3.234,0,0,1,1.067,2.349H76.957a2.116,2.116,0,0,0-.66-1.432,2.053,2.053,0,0,0-1.465-.56,2.149,2.149,0,0,0-1.814.843,3.957,3.957,0,0,0-.643,2.436v.291a3.878,3.878,0,0,0,.639,2.391A2.16,2.16,0,0,0,74.84,14.913Zm4.889-3.486a5.3,5.3,0,0,1,.519-2.374,3.87,3.87,0,0,1,1.444-1.627A3.932,3.932,0,0,1,83.8,6.853a3.788,3.788,0,0,1,2.968,1.27A4.886,4.886,0,0,1,87.905,11.5v.108a5.351,5.351,0,0,1-.5,2.353,3.813,3.813,0,0,1-1.436,1.623,3.977,3.977,0,0,1-2.146.581,3.778,3.778,0,0,1-2.959-1.27,4.861,4.861,0,0,1-1.133-3.362Zm1.544.183a3.842,3.842,0,0,0,.693,2.4A2.349,2.349,0,0,0,85.681,14a4.2,4.2,0,0,0,.689-2.569,3.836,3.836,0,0,0-.7-2.395A2.23,2.23,0,0,0,83.8,8.114a2.205,2.205,0,0,0-1.834.9A4.17,4.17,0,0,0,81.273,11.609Zm10-4.59.042,1a3.317,3.317,0,0,1,2.665-1.162A2.568,2.568,0,0,1,96.546,8.3a3.4,3.4,0,0,1,1.166-1.046,3.445,3.445,0,0,1,1.7-.4q2.955,0,3,3.129V16h-1.536V10.073a2.062,2.062,0,0,0-.44-1.44,1.937,1.937,0,0,0-1.478-.477,2.036,2.036,0,0,0-1.419.51,2.071,2.071,0,0,0-.656,1.374V16H95.343V10.115a1.713,1.713,0,0,0-1.917-1.959,2.055,2.055,0,0,0-2.067,1.287V16H89.823V7.019Zm19,8.093a3.262,3.262,0,0,1-2.631,1.054,2.792,2.792,0,0,1-2.187-.834,3.611,3.611,0,0,1-.76-2.469V7.019h1.536v5.8q0,2.042,1.66,2.042a2.3,2.3,0,0,0,2.341-1.312V7.019h1.536V16h-1.461Zm5.279-8.093.05,1.129a3.273,3.273,0,0,1,2.689-1.295q2.847,0,2.872,3.212V16h-1.536V10.057a2.068,2.068,0,0,0-.444-1.436,1.78,1.78,0,0,0-1.357-.465,2.216,2.216,0,0,0-1.312.4,2.706,2.706,0,0,0-.88,1.046V16H114.1V7.019Zm9.6,8.981h-1.536V7.019h1.536Zm-1.66-11.364a.917.917,0,0,1,.228-.631.857.857,0,0,1,.677-.257.87.87,0,0,1,.681.257.907.907,0,0,1,.232.631.877.877,0,0,1-.232.623.886.886,0,0,1-.681.249.872.872,0,0,1-.677-.249A.886.886,0,0,1,123.491,4.636Zm7.72,10.276a2.212,2.212,0,0,0,1.436-.5,1.752,1.752,0,0,0,.681-1.245h1.453a2.785,2.785,0,0,1-.531,1.469,3.5,3.5,0,0,1-1.307,1.112,3.772,3.772,0,0,1-1.731.415,3.7,3.7,0,0,1-2.918-1.224,4.877,4.877,0,0,1-1.083-3.349v-.257A5.407,5.407,0,0,1,127.691,9a3.667,3.667,0,0,1,1.382-1.585,3.926,3.926,0,0,1,2.129-.564,3.6,3.6,0,0,1,2.511.9,3.234,3.234,0,0,1,1.067,2.349h-1.453a2.116,2.116,0,0,0-.66-1.432,2.053,2.053,0,0,0-1.465-.56,2.149,2.149,0,0,0-1.814.843,3.957,3.957,0,0,0-.643,2.436v.291a3.878,3.878,0,0,0,.639,2.391A2.16,2.16,0,0,0,131.21,14.913ZM142.051,16a3.226,3.226,0,0,1-.216-.946,3.426,3.426,0,0,1-2.557,1.112,3.17,3.17,0,0,1-2.179-.751,2.43,2.43,0,0,1-.851-1.905,2.539,2.539,0,0,1,1.067-2.179,5.029,5.029,0,0,1,3-.776h1.494V9.849a1.725,1.725,0,0,0-.481-1.282,1.935,1.935,0,0,0-1.419-.477,2.239,2.239,0,0,0-1.378.415,1.223,1.223,0,0,0-.556,1h-1.544a2.119,2.119,0,0,1,.477-1.3,3.258,3.258,0,0,1,1.295-.992,4.356,4.356,0,0,1,1.8-.365,3.551,3.551,0,0,1,2.432.776,2.8,2.8,0,0,1,.913,2.137V13.9a5.054,5.054,0,0,0,.315,1.967V16ZM139.5,14.83a2.7,2.7,0,0,0,1.37-.374,2.259,2.259,0,0,0,.938-.971V11.642h-1.2q-2.822,0-2.822,1.652a1.4,1.4,0,0,0,.481,1.129A1.85,1.85,0,0,0,139.5,14.83Zm9.853.083a2.212,2.212,0,0,0,1.436-.5,1.752,1.752,0,0,0,.681-1.245h1.453a2.785,2.785,0,0,1-.531,1.469,3.5,3.5,0,0,1-1.307,1.112,3.772,3.772,0,0,1-1.731.415,3.7,3.7,0,0,1-2.918-1.224,4.877,4.877,0,0,1-1.083-3.349v-.257A5.407,5.407,0,0,1,145.836,9a3.667,3.667,0,0,1,1.382-1.585,3.926,3.926,0,0,1,2.129-.564,3.6,3.6,0,0,1,2.511.9,3.234,3.234,0,0,1,1.067,2.349h-1.453a2.116,2.116,0,0,0-.66-1.432,2.053,2.053,0,0,0-1.465-.56,2.149,2.149,0,0,0-1.814.843,3.957,3.957,0,0,0-.643,2.436v.291a3.878,3.878,0,0,0,.639,2.391A2.16,2.16,0,0,0,149.356,14.913ZM156.32,16h-1.536V7.019h1.536ZM154.66,4.636a.917.917,0,0,1,.228-.631.857.857,0,0,1,.677-.257.87.87,0,0,1,.681.257.907.907,0,0,1,.232.631.877.877,0,0,1-.232.623.886.886,0,0,1-.681.249.872.872,0,0,1-.677-.249A.886.886,0,0,1,154.66,4.636Zm3.71,6.79a5.3,5.3,0,0,1,.519-2.374,3.87,3.87,0,0,1,1.444-1.627,3.932,3.932,0,0,1,2.113-.573,3.788,3.788,0,0,1,2.968,1.27,4.886,4.886,0,0,1,1.133,3.378v.108a5.351,5.351,0,0,1-.5,2.353,3.813,3.813,0,0,1-1.436,1.623,3.977,3.977,0,0,1-2.146.581A3.778,3.778,0,0,1,159.5,14.9a4.861,4.861,0,0,1-1.133-3.362Zm1.544.183a3.842,3.842,0,0,0,.693,2.4A2.349,2.349,0,0,0,164.322,14a4.2,4.2,0,0,0,.689-2.569,3.836,3.836,0,0,0-.7-2.395,2.23,2.23,0,0,0-1.864-.917,2.205,2.205,0,0,0-1.834.9A4.17,4.17,0,0,0,159.915,11.609Zm3.229-8.359H165l-2.225,2.44-1.237,0Zm6.782,3.769.05,1.129a3.273,3.273,0,0,1,2.689-1.295q2.847,0,2.872,3.212V16H174V10.057a2.068,2.068,0,0,0-.444-1.436,1.78,1.78,0,0,0-1.357-.465,2.216,2.216,0,0,0-1.312.4,2.706,2.706,0,0,0-.88,1.046V16h-1.536V7.019Z" transform="translate(709 2593)" fill="#12263f"/>
      <rect id="Rectángulo_47767" data-name="Rectángulo 47767" width="125" height="40" transform="translate(738 2644)" fill="#91e8d6"/>
      <path id="Trazado_606872" data-name="Trazado 606872" d="M4.588,4.2l3.287,9.281L11.145,4.2h3.463V17H11.962V13.5l.264-6.038L8.771,17H6.961L3.516,7.473,3.779,13.5V17H1.143V4.2ZM21.12,17.176a4.668,4.668,0,0,1-3.406-1.283A4.561,4.561,0,0,1,16.4,12.474v-.246a5.745,5.745,0,0,1,.554-2.562,4.064,4.064,0,0,1,1.569-1.74,4.4,4.4,0,0,1,2.316-.611,3.947,3.947,0,0,1,3.072,1.23,5,5,0,0,1,1.121,3.489v1.037H18.976a2.36,2.36,0,0,0,.743,1.494,2.245,2.245,0,0,0,1.569.563,2.742,2.742,0,0,0,2.294-1.063l1.248,1.4a3.813,3.813,0,0,1-1.547,1.261A5.075,5.075,0,0,1,21.12,17.176Zm-.29-7.813a1.587,1.587,0,0,0-1.226.512A2.651,2.651,0,0,0,19,11.34h3.533v-.2a1.891,1.891,0,0,0-.457-1.311A1.638,1.638,0,0,0,20.83,9.362Zm7.98-1.872.079,1.1a3.32,3.32,0,0,1,2.733-1.274,2.759,2.759,0,0,1,2.25.888,4.142,4.142,0,0,1,.756,2.654V17h-2.54V10.918a1.648,1.648,0,0,0-.352-1.173,1.574,1.574,0,0,0-1.169-.365,1.747,1.747,0,0,0-1.608.914V17H26.42V7.49ZM41.7,14.372a.818.818,0,0,0-.461-.734,5.241,5.241,0,0,0-1.481-.479q-3.393-.712-3.393-2.883a2.613,2.613,0,0,1,1.05-2.114,4.237,4.237,0,0,1,2.747-.848,4.56,4.56,0,0,1,2.9.853,2.687,2.687,0,0,1,1.085,2.215h-2.54a1.229,1.229,0,0,0-.352-.9,1.488,1.488,0,0,0-1.1-.356,1.52,1.52,0,0,0-.993.29.916.916,0,0,0-.352.738.783.783,0,0,0,.4.681,4.114,4.114,0,0,0,1.349.448,11.019,11.019,0,0,1,1.6.426,2.628,2.628,0,0,1,2.013,2.558,2.481,2.481,0,0,1-1.116,2.1,4.815,4.815,0,0,1-2.883.8,5.029,5.029,0,0,1-2.123-.426A3.561,3.561,0,0,1,36.6,15.581a2.716,2.716,0,0,1-.527-1.6h2.408a1.326,1.326,0,0,0,.5,1.037,1.987,1.987,0,0,0,1.248.36,1.839,1.839,0,0,0,1.1-.277A.861.861,0,0,0,41.7,14.372ZM51.319,17a2.821,2.821,0,0,1-.255-.853,3.073,3.073,0,0,1-2.4,1.028,3.376,3.376,0,0,1-2.316-.809,2.6,2.6,0,0,1-.918-2.039,2.687,2.687,0,0,1,1.121-2.32,5.529,5.529,0,0,1,3.239-.817h1.169v-.545a1.567,1.567,0,0,0-.338-1.055,1.331,1.331,0,0,0-1.068-.4,1.513,1.513,0,0,0-1.006.308,1.045,1.045,0,0,0-.365.844h-2.54a2.551,2.551,0,0,1,.51-1.529,3.37,3.37,0,0,1,1.441-1.1,5.253,5.253,0,0,1,2.092-.4,4.15,4.15,0,0,1,2.791.883,3.09,3.09,0,0,1,1.033,2.483V14.8a4.546,4.546,0,0,0,.378,2.048V17Zm-2.1-1.767a2.188,2.188,0,0,0,1.037-.25,1.645,1.645,0,0,0,.7-.672V12.676H50.01q-1.907,0-2.03,1.318l-.009.149a1.017,1.017,0,0,0,.334.782A1.3,1.3,0,0,0,49.219,15.233Zm8.93-7.743V17.519a3.4,3.4,0,0,1-.835,2.448,3.174,3.174,0,0,1-2.408.875,5.165,5.165,0,0,1-1.257-.149V18.679a4.768,4.768,0,0,0,.8.079q1.151,0,1.151-1.222V7.49ZM55.4,5.029a1.251,1.251,0,0,1,.382-.94,1.654,1.654,0,0,1,2.083,0,1.251,1.251,0,0,1,.382.94,1.247,1.247,0,0,1-.391.949,1.629,1.629,0,0,1-2.065,0A1.247,1.247,0,0,1,55.4,5.029Zm9.114,12.146a4.668,4.668,0,0,1-3.406-1.283,4.561,4.561,0,0,1-1.314-3.419v-.246a5.745,5.745,0,0,1,.554-2.562,4.064,4.064,0,0,1,1.569-1.74,4.4,4.4,0,0,1,2.316-.611A3.947,3.947,0,0,1,67.3,8.545a5,5,0,0,1,1.121,3.489v1.037H62.367a2.36,2.36,0,0,0,.743,1.494,2.245,2.245,0,0,0,1.569.563,2.742,2.742,0,0,0,2.294-1.063l1.248,1.4a3.813,3.813,0,0,1-1.547,1.261A5.075,5.075,0,0,1,64.512,17.176Zm-.29-7.813A1.587,1.587,0,0,0,63,9.874a2.651,2.651,0,0,0-.6,1.466h3.533v-.2a1.891,1.891,0,0,0-.457-1.311A1.638,1.638,0,0,0,64.222,9.362Z" transform="translate(766 2653)" fill="#12263f"/>
      <g id="Grupo_161710" data-name="Grupo 161710" transform="translate(762.5 2679.225)">
        <g id="Grupo_161709" data-name="Grupo 161709" clip-path="url(#clip-path-2)">
          <path id="Trazado_604311" data-name="Trazado 604311" d="M75,60.626a5.338,5.338,0,0,1-2.287,3.353,5.074,5.074,0,0,1-4.565.384c-3.841-1.344-7.7-2.641-11.542-3.983a1.862,1.862,0,0,0-1.524.072A31.325,31.325,0,0,1,43.433,63.3,1.578,1.578,0,0,0,42.4,63.8c-5.447,6.686-12.451,9.658-21.034,8.828a22.448,22.448,0,0,1-6.614-1.785A1.79,1.79,0,0,0,13.59,70.8c-2.707.894-5.388,1.871-8.1,2.749A4.094,4.094,0,0,1,.006,69.509a5.923,5.923,0,0,1,.354-1.561c.833-2.471,1.669-4.942,2.553-7.395a2.407,2.407,0,0,0-.062-1.871A22.66,22.66,0,0,1,3.908,38.515a21.874,21.874,0,0,1,5.836-6.873,1.205,1.205,0,0,0,.511-1.038A31.664,31.664,0,0,1,71.72,20.988a30.894,30.894,0,0,1-.919,23.6,2.5,2.5,0,0,0-.1,2c1.433,4.094,2.806,8.209,4.2,12.315.014.041.062.071.094.106ZM41.429,4.458c-.613.044-1.735.089-2.848.214A25.474,25.474,0,0,0,26.829,9.011,26.8,26.8,0,0,0,15.007,27.666a26.164,26.164,0,0,0,.412,10.173,26.936,26.936,0,0,0,8.755,14.379A27.076,27.076,0,0,0,54.266,55.9a3.025,3.025,0,0,1,2.531-.162c2.389.846,4.791,1.652,7.188,2.476,1.889.65,3.775,1.311,5.671,1.941a.94.94,0,0,0,.735-.055c.111-.078.043-.444.015-.676a2.471,2.471,0,0,0-.162-.484c-1.418-4.124-2.827-8.252-4.262-12.37A2.954,2.954,0,0,1,66.1,44.1,27.1,27.1,0,0,0,65.7,18.547,27.245,27.245,0,0,0,41.429,4.458m-4.4,58.629c-14.375-3.148-23.179-11.825-26.5-26.205-.644.832-1.3,1.586-1.855,2.411A18.226,18.226,0,0,0,5.506,50.56a18.52,18.52,0,0,0,1.955,7.509,3.108,3.108,0,0,1,.129,2.6c-.692,1.9-1.332,3.818-1.99,5.73-.3.865-.585,1.733-.909,2.694.315-.1.519-.158.719-.227,2.513-.858,5.039-1.68,7.531-2.595a3.589,3.589,0,0,1,3.01.161,18.561,18.561,0,0,0,21.076-3.348" transform="translate(-0.001 0)"/>
          <path id="Trazado_604312" data-name="Trazado 604312" d="M106.8,24.3a27.245,27.245,0,0,1,24.269,14.089,27.1,27.1,0,0,1,.406,25.551,2.955,2.955,0,0,0-.122,2.467c1.435,4.118,2.843,8.246,4.262,12.37a2.47,2.47,0,0,1,.163.484c.028.232.1.6-.016.676a.94.94,0,0,1-.735.056c-1.9-.63-3.781-1.292-5.671-1.941-2.4-.824-4.8-1.63-7.188-2.476a3.025,3.025,0,0,0-2.531.162A27.075,27.075,0,0,1,89.55,72.056,26.931,26.931,0,0,1,80.8,57.677,26.157,26.157,0,0,1,80.383,47.5,26.8,26.8,0,0,1,92.2,28.849a25.473,25.473,0,0,1,11.752-4.34c1.113-.125,2.236-.169,2.848-.214m.512,24.539H94.583c-1.767,0-2.835.846-2.835,2.242s1.063,2.244,2.835,2.244q12.7,0,25.395,0a5.545,5.545,0,0,0,1.09-.088,2.168,2.168,0,0,0,1.731-2.079,2.265,2.265,0,0,0-2.527-2.313q-6.477-.011-12.954,0m-.072-4.706h10.392c1,0,2,.024,3-.012a2.215,2.215,0,0,0,.142-4.422,8.071,8.071,0,0,0-.877-.034q-12.624,0-25.249,0a6.719,6.719,0,0,0-1.021.053,2.08,2.08,0,0,0-1.751,1.467,2.22,2.22,0,0,0,2.264,2.941c4.367.013,8.733,0,13.1,0M102.14,62.473v0c2.684,0,5.368,0,8.052,0a2.219,2.219,0,1,0,.114-4.433c-2.781-.03-5.563-.01-8.344-.01-2.611,0-5.221,0-7.832,0a2.218,2.218,0,1,0-.114,4.431c2.708.03,5.417.008,8.125.008" transform="translate(-65.376 -19.838)" fill="#fff"/>
          <path id="Trazado_604313" data-name="Trazado 604313" d="M57.9,227.2a18.561,18.561,0,0,1-21.076,3.348,3.589,3.589,0,0,0-3.01-.161c-2.492.915-5.018,1.737-7.531,2.595-.2.069-.4.128-.719.227.324-.961.612-1.829.909-2.694.658-1.912,1.3-3.83,1.99-5.73a3.108,3.108,0,0,0-.129-2.6,18.52,18.52,0,0,1-1.955-7.509,18.226,18.226,0,0,1,3.167-11.267c.553-.825,1.211-1.579,1.855-2.411,3.32,14.381,12.124,23.057,26.5,26.205" transform="translate(-20.872 -164.115)" fill="#e2e8ec"/>
          <path id="Trazado_604314" data-name="Trazado 604314" d="M159.288,158.022q6.477,0,12.954,0a2.265,2.265,0,0,1,2.527,2.313,2.168,2.168,0,0,1-1.731,2.079,5.546,5.546,0,0,1-1.09.088q-12.7.007-25.395,0c-1.771,0-2.835-.844-2.835-2.244s1.068-2.241,2.835-2.242h12.734" transform="translate(-117.347 -129.025)"/>
          <path id="Trazado_604315" data-name="Trazado 604315" d="M159.235,112.5c-4.367,0-8.733.009-13.1,0a2.22,2.22,0,0,1-2.264-2.942,2.081,2.081,0,0,1,1.751-1.467,6.7,6.7,0,0,1,1.021-.053q12.624,0,25.249,0a8.119,8.119,0,0,1,.877.034,2.216,2.216,0,0,1-.142,4.422c-1,.036-2,.012-3,.012H159.235" transform="translate(-117.366 -88.209)"/>
          <path id="Trazado_604316" data-name="Trazado 604316" d="M154.089,212.577c-2.708,0-5.417.022-8.125-.008a2.218,2.218,0,1,1,.114-4.431c2.611.005,5.221,0,7.832,0,2.781,0,5.563-.019,8.344.01a2.219,2.219,0,1,1-.114,4.433c-2.684-.007-5.368,0-8.052,0Z" transform="translate(-117.325 -169.941)"/>
        </g>
      </g>
      <g id="Grupo_161712" data-name="Grupo 161712" transform="translate(486.19 2529.919)">
        <g id="Grupo_161711" data-name="Grupo 161711" clip-path="url(#clip-path-3)">
          <path id="Trazado_604317" data-name="Trazado 604317" d="M62.545,29.059c0,2.677-.043,5.378.034,8.075a3.884,3.884,0,0,0,.716,1.772c.9,1.445,1.915,2.817,2.8,4.269a7.48,7.48,0,0,1-2.553,10.683,1.867,1.867,0,0,0-1.032,1.906c.058,2.554.03,5.11.018,7.666-.033,7.616-6.278,12.52-13.668,10.74-.19-.046-.383-.085-.759-.168,0,3.115.181,6.161-.051,9.176-.239,3.108.73,5.229,3.069,7.473C61.7,100.8,66.969,113.41,67.327,128.068a16.049,16.049,0,0,0,.224,3.025c.168-.438.352-.871.5-1.316,2.787-8.351,5.591-16.7,8.321-25.065a5.722,5.722,0,0,0,.1-2.74c-.387-2.011-.982-3.981-1.449-5.979-.9-3.859-.807-7.562,1.948-10.914-.375-.228-.69-.428-1.013-.614a16.814,16.814,0,0,1,8.249-31.486,78,78,0,0,0,38.448-9.642c1.425-.78,2.42-1.491,2.569-3.484a6.962,6.962,0,0,1,7.617-6.125,7.2,7.2,0,0,1,6.624,7.111c.054,5.66.014,11.32.014,17.036,6.209,1.963,9.886,6.016,9.534,12.669-.311,5.876-3.874,9.437-9.53,11.11,0,5.586.016,11.193-.006,16.8a7.193,7.193,0,0,1-14.376.509,2.033,2.033,0,0,0-1.288-2.065c-3.849-1.8-7.683-3.623-11.532-5.419a12.141,12.141,0,0,0-1.543-.487c-.627,5.007-2.683,7.114-7.651,7.781l-2.408,16.695h-5.8c-1.255,11.265-2.495,22.4-3.745,33.614H9.623V147.5q0-21.948,0-43.9C9.63,92.8,14.078,84.39,23.2,78.512a2.04,2.04,0,0,0-.01-3.439Q16.1,69.383,8.993,63.711c-9-7.18-11.481-18.2-6.368-28.557A21.213,21.213,0,0,0,4.84,25.9,26.492,26.492,0,0,1,30.724.052q8.866-.106,17.734,0A21.7,21.7,0,0,1,69.707,20.179c.33,5.033-1.8,7.7-7.162,8.88M25.364,82.883c-.6.408-1.027.666-1.419.967a23,23,0,0,0-9.492,18.879c-.075,13.428-.022,26.857-.018,40.285,0,.429.055.858.084,1.272H28.805c.022-.307.054-.546.054-.786q0-12.627-.008-25.254a8.162,8.162,0,0,0-.19-1.634c-.622-2.991-2.55-4.892-5.341-6.126l1.491-4.433c.444.147.686.2.907.3,5.093,2.332,7.838,6.319,7.919,11.9.118,8.116.032,16.234.033,24.351v1.663H62.532c0-4.841-.031-9.592.024-14.342a2.728,2.728,0,0,0-1.064-2.291q-9.976-8.795-19.9-17.65c-.543-.483-1.071-.982-1.612-1.481l4.879-5.888c-2.61.254-4.888.435-7.155.706-3.081.368-3.076.4-4.349-2.469-2.638-5.938-5.279-11.874-7.992-17.974M40.825,19.274c-.689,0-1.235-.006-1.78,0-1.872.024-2.982.942-2.957,2.442s1.122,2.365,3.032,2.367q11.419.01,22.839,0c2.131,0,3.006-.923,2.959-3.034A16.781,16.781,0,0,0,48.976,4.9q-9.384-.257-18.78-.009A21.566,21.566,0,0,0,9.683,25.416,29.993,29.993,0,0,1,6.62,37.97a17.436,17.436,0,0,0,4.734,21.438c3.864,3.184,7.806,6.275,11.717,9.4a11.344,11.344,0,0,0,.972.609c0-2.348-.048-4.495.021-6.638a2.345,2.345,0,0,0-1.093-2.248A51.44,51.44,0,0,1,17.965,56.7a9.889,9.889,0,0,1-3.238-10.053,10.045,10.045,0,0,1,7.1-7.656c.7-.232,1.431-.365,2.3-.582-.58-6.332.165-12.015,7.42-14.133-.522-7.076,3.011-10.736,9.28-9.632Zm2.4,64.413V72.323L35.29,69.647l1.526-4.515c.766.248,1.333.43,1.9.616,3.894,1.275,7.761,2.644,11.691,3.8a5.535,5.535,0,0,0,7.05-4.606c-4.087.338-7.781-.582-10.714-3.588S42.94,54.7,43.4,50.547h1.591q6.76,0,13.52,0a4.017,4.017,0,0,0,3.659-1.928c.808-1.315.19-2.489-.591-3.606-.63-.9-1.176-1.867-1.843-2.74A9.925,9.925,0,0,1,57.7,35.538c.1-2.179.02-4.366.02-6.641H56.045q-10.74,0-21.481,0c-3.9,0-5.71,1.8-5.714,5.663,0,2.886,0,5.773,0,8.77-1.328,0-2.471-.007-3.613,0a5.662,5.662,0,0,0-5.687,3.813,5.6,5.6,0,0,0,2.2,6.479c2.029,1.549,4.12,3.023,6.088,4.645a2.907,2.907,0,0,1,.969,1.941c.081,5.258.05,10.517.053,15.776,0,.533,0,1.065,0,1.2l14.361,6.5m81.761-36.144a82.251,82.251,0,0,1-33.508,10.01v24c5.869,1.241,11.682,2.093,17.253,3.756s10.883,4.133,16.255,6.229ZM86.839,144.285c1.064-9.587,2.12-19.108,3.2-28.825H86.695c-.1-2.162-.164-4.158-.318-6.146a1.538,1.538,0,0,0-.643-1.146c-1.558-.611-3.168-1.087-4.853-1.642L68.3,144.285Zm43.03-74.5q0,14.056,0,28.113c0,2.029.865,3.149,2.4,3.15s2.4-1.121,2.408-3.146c0-.15,0-.3,0-.451q0-27.662,0-55.324a8.442,8.442,0,0,0-.039-1.5,2.385,2.385,0,0,0-4.731,0,8.443,8.443,0,0,0-.039,1.5q0,13.831,0,27.662M86.477,81.723V57.842c-9.273-.989-14.38,5.847-14.33,12.025.051,6.365,5.414,12.882,14.33,11.857M30.8,83.274c2.236,5.028,4.279,9.689,6.413,14.308a1.822,1.822,0,0,0,1.47.748c3.289-.241,6.572-.564,9.848-.945a5.763,5.763,0,0,0,1.689-.915,48.591,48.591,0,0,0-19.42-13.2M61.99,121.681a48.793,48.793,0,0,0-8.808-21.512l-6.547,7.861L61.99,121.681M96.513,110.63c.592-4.08,1.2-8.121,1.735-12.171a1.661,1.661,0,0,0-.538-1.107,5.279,5.279,0,0,1-1.516-3.939c.033-1.975.008-3.951.008-6.069L93.552,87.2c.52,2.3.368,4.535-1.182,5.952-1.814,1.659-1.751,3.477-1.6,5.513.063.847.044,1.7.084,2.548.147,3.127.3,6.255.458,9.418ZM84.263,96.166v-4.74c.874,0,1.668.054,2.452-.012a2.339,2.339,0,0,0,2.25-2.359A2.288,2.288,0,0,0,86.879,86.7a11.878,11.878,0,0,0-2.094-.069c-3.458,0-5.658,1.953-5.346,5.339a77.479,77.479,0,0,0,1.851,9.212,1.027,1.027,0,0,0,.615.559c1.338.48,2.693.913,4.008,1.351V96.359l-1.651-.193m55.312-32.935V76.347a6.915,6.915,0,0,0,0-13.116M48.75,55.439c.934,3.443,4.4,5.215,8.881,4.579V55.439ZM101.01,89.1V93.72c3.3.357,4.768-.363,4.8-2.244.03-1.864-1.32-2.57-4.8-2.377" transform="translate(0 -0.001)"/>
          <path id="Trazado_604318" data-name="Trazado 604318" d="M46.847,206.423c2.713,6.1,5.353,12.037,7.992,17.974,1.273,2.866,1.268,2.837,4.349,2.469,2.267-.271,4.545-.452,7.155-.707l-4.879,5.888c.542.5,1.069,1,1.612,1.481q9.942,8.835,19.9,17.651a2.727,2.727,0,0,1,1.064,2.291c-.055,4.75-.025,9.5-.025,14.342H55.155v-1.664c0-8.117.086-16.236-.033-24.351-.081-5.581-2.826-9.568-7.919-11.9-.221-.1-.463-.157-.907-.3L44.8,234.026c2.79,1.234,4.718,3.135,5.34,6.126a8.132,8.132,0,0,1,.19,1.634q.019,12.627.008,25.254c0,.239-.032.479-.054.786H36c-.029-.414-.084-.843-.084-1.272,0-13.429-.057-26.857.018-40.285a23.006,23.006,0,0,1,9.491-18.879c.391-.3.817-.558,1.419-.967" transform="translate(-21.484 -123.541)" fill="#bee8f8"/>
          <path id="Trazado_604319" data-name="Trazado 604319" d="M47.949,26.377V21.748c-6.27-1.1-9.8,2.556-9.281,9.632-7.255,2.118-8,7.8-7.42,14.133-.87.217-1.6.35-2.3.582a10.045,10.045,0,0,0-7.1,7.656A9.89,9.89,0,0,0,25.088,63.8,51.343,51.343,0,0,0,30.1,67.636a2.345,2.345,0,0,1,1.093,2.248c-.069,2.143-.021,4.289-.021,6.638a11.164,11.164,0,0,1-.972-.61c-3.912-3.127-7.853-6.217-11.717-9.4a17.434,17.434,0,0,1-4.734-21.438,30,30,0,0,0,3.062-12.555A21.567,21.567,0,0,1,37.32,11.994Q46.7,11.732,56.1,12A16.781,16.781,0,0,1,72.041,28.15c.047,2.111-.828,3.031-2.959,3.034q-11.419.016-22.839,0c-1.909,0-3.007-.875-3.031-2.367S44.3,26.4,46.169,26.378c.546-.007,1.092,0,1.78,0" transform="translate(-7.124 -7.103)" fill="#fcf3b7"/>
          <path id="Trazado_604320" data-name="Trazado 604320" d="M71.893,126.757l-14.361-6.5c0-.139,0-.672,0-1.2,0-5.259.028-10.518-.053-15.776a2.9,2.9,0,0,0-.969-1.941c-1.968-1.622-4.059-3.095-6.088-4.644a5.6,5.6,0,0,1-2.2-6.479A5.664,5.664,0,0,1,53.908,86.4c1.142-.009,2.285,0,3.613,0,0-3,0-5.884,0-8.77,0-3.865,1.816-5.662,5.714-5.663q10.741,0,21.482,0h1.676c0,2.275.078,4.462-.021,6.641a9.927,9.927,0,0,0,2.035,6.739c.667.873,1.213,1.837,1.844,2.74.78,1.116,1.4,2.291.591,3.606a4.017,4.017,0,0,1-3.659,1.928q-6.76-.013-13.52,0H72.072c-.461,4.152.413,7.8,3.342,10.806s6.627,3.926,10.713,3.588a5.534,5.534,0,0,1-7.049,4.606c-3.93-1.155-7.8-2.524-11.691-3.8-.566-.186-1.133-.367-1.9-.616l-1.525,4.516,7.931,2.676ZM67.219,76.823a7.172,7.172,0,0,0,7.669,7.152c3.767-.26,6.932-3.716,6.5-7.151H76.865c-.329,1.309-1.009,2.33-2.5,2.331s-2.17-1.017-2.5-2.333Z" transform="translate(-28.671 -43.07)" fill="#fef1e4"/>
          <path id="Trazado_604321" data-name="Trazado 604321" d="M261.333,118.408V162.4c-5.371-2.1-10.692-4.568-16.255-6.229s-11.385-2.515-17.253-3.756v-24a82.253,82.253,0,0,0,33.508-10.01" transform="translate(-136.35 -70.866)" fill="#fff"/>
          <path id="Trazado_604322" data-name="Trazado 604322" d="M188.645,303.068H170.106l12.581-37.76c1.685.555,3.3,1.031,4.853,1.642a1.536,1.536,0,0,1,.643,1.146c.155,1.989.216,3.984.318,6.146h3.342c-1.078,9.717-2.134,19.239-3.2,28.826" transform="translate(-101.806 -158.783)" fill="#bee8f8"/>
          <path id="Trazado_604323" data-name="Trazado 604323" d="M323.429,127.246q0-13.831,0-27.662a8.441,8.441,0,0,1,.039-1.5,2.385,2.385,0,0,1,4.731,0,8.441,8.441,0,0,1,.039,1.5q0,27.662,0,55.324c0,.15,0,.3,0,.451-.013,2.025-.873,3.147-2.408,3.146s-2.4-1.121-2.4-3.15q-.005-14.056,0-28.113" transform="translate(-193.56 -57.459)" fill="#9aafc1"/>
          <path id="Trazado_604324" data-name="Trazado 604324" d="M194.015,167.8c-8.916,1.025-14.279-5.492-14.33-11.857-.049-6.178,5.057-13.013,14.33-12.025Z" transform="translate(-107.539 -86.074)" fill="#9aafc1"/>
          <path id="Trazado_604325" data-name="Trazado 604325" d="M76.721,207.4a48.587,48.587,0,0,1,19.42,13.2,5.762,5.762,0,0,1-1.689.915c-3.276.381-6.56.7-9.848.945a1.823,1.823,0,0,1-1.471-.748c-2.134-4.619-4.177-9.28-6.412-14.308" transform="translate(-45.916 -124.126)" fill="#bee8f8"/>
          <path id="Trazado_604326" data-name="Trazado 604326" d="M131.5,270.988,116.15,257.337l6.546-7.861a48.788,48.788,0,0,1,8.808,21.512" transform="translate(-69.514 -149.308)" fill="#bee8f8"/>
          <path id="Trazado_604327" data-name="Trazado 604327" d="M231.709,240.6h-5.2c-.155-3.164-.311-6.291-.458-9.418-.04-.849-.021-1.7-.084-2.548-.151-2.036-.214-3.854,1.6-5.513,1.551-1.418,1.7-3.651,1.183-5.952l2.649.146c0,2.118.025,4.094-.008,6.069a5.282,5.282,0,0,0,1.516,3.939,1.661,1.661,0,0,1,.538,1.107c-.539,4.05-1.143,8.091-1.735,12.171" transform="translate(-135.196 -129.974)" fill="#fff"/>
          <path id="Trazado_604328" data-name="Trazado 604328" d="M202.628,225.278l1.651.193V232.2c-1.315-.438-2.67-.871-4.008-1.351a1.027,1.027,0,0,1-.615-.559,77.431,77.431,0,0,1-1.851-9.212c-.312-3.386,1.888-5.335,5.345-5.339a11.914,11.914,0,0,1,2.094.069,2.288,2.288,0,0,1,2.086,2.355,2.339,2.339,0,0,1-2.25,2.359c-.784.066-1.578.012-2.452.012Z" transform="translate(-118.366 -129.112)" fill="#fef1e4"/>
          <path id="Trazado_604329" data-name="Trazado 604329" d="M347.621,157.48a6.915,6.915,0,0,1,0,13.116Z" transform="translate(-208.046 -94.25)" fill="#fff"/>
          <path id="Trazado_604330" data-name="Trazado 604330" d="M121.415,138.074H130.3v4.579c-4.485.636-7.948-1.137-8.881-4.579" transform="translate(-72.665 -82.635)" fill="#fff"/>
          <path id="Trazado_604331" data-name="Trazado 604331" d="M251.572,221.861c3.478-.193,4.828.513,4.8,2.377-.031,1.881-1.5,2.6-4.8,2.244v-4.621Z" transform="translate(-150.562 -132.762)" fill="#fef1e4"/>
          <path id="Trazado_604332" data-name="Trazado 604332" d="M96,84.063h4.651c.33,1.316,1.011,2.334,2.5,2.333s2.167-1.022,2.5-2.331h4.523c.431,3.434-2.734,6.891-6.5,7.151A7.172,7.172,0,0,1,96,84.063" transform="translate(-57.458 -50.311)"/>
        </g>
      </g>
      <g id="Grupo_161714" data-name="Grupo 161714" transform="translate(979.961 2529.919)">
        <g id="Grupo_161713" data-name="Grupo 161713" clip-path="url(#clip-path-4)">
          <path id="Trazado_604333" data-name="Trazado 604333" d="M29,149.081c-2.19-.842-4.553-1.4-6.537-2.584a15.906,15.906,0,0,1-8.011-13.823c-.091-2.512-.015-5.029-.015-7.453a48.072,48.072,0,0,1-5.056-1.646,15.906,15.906,0,0,1-5.2-25.252c1.47-1.61,3.1-3.075,4.563-4.689a3.144,3.144,0,0,0,.8-1.87,27.025,27.025,0,0,1,8.931-20.134,2.779,2.779,0,0,0,.69-1.61c.248-2.015.435-4.039.549-6.065a1.881,1.881,0,0,0-.541-1.376c-6.076-5.013-6.4-13.208-.752-18.589a3.2,3.2,0,0,0,.789-2.008c.546-11.723,4.849-21.843,13.438-29.828C44.766.892,59.113-2.724,74.929,2.063c15.8,4.782,25.659,15.743,29.674,31.779a77.244,77.244,0,0,1,1.115,8.482,2.429,2.429,0,0,0,.5,1.418,12.537,12.537,0,0,1,4.344,9.263c1.115,0,2.17-.021,3.225,0,6.336.145,11.1,4.7,11.146,11.034.1,13.139.188,26.281-.023,39.416a17.08,17.08,0,0,1-21.887,16.111c-3.41-.928-6.8-1.94-10.195-2.908-.46-.131-.929-.229-1.552-.382v32.8ZM81.712,94.054l-6,23.931-13.47-13.638L49.1,117.5,43.149,93.761c-1.791.323-3.491.637-5.193.936-9.908,1.741-17.873,10.2-18.543,20.232a167.625,167.625,0,0,0-.125,17.874,11.641,11.641,0,0,0,11.8,11.424c5.379.126,10.764.029,16.146.023a5.2,5.2,0,0,0,.808-.146c0-3.681.007-7.306,0-10.932-.006-2.575-.728-3.3-3.266-3.3q-9.528-.005-19.056,0H24.144v-4.861h9.5V103.53h4.869v21.5c1.919,0,3.661.052,5.4-.011,3.113-.113,5.9.509,7.709,3.239,1.49-.319,3.214-.2,4.1-1.01.948-.861,1.061-2.611,1.621-3.938a4.634,4.634,0,0,1,4.53-3.037,8.442,8.442,0,0,1,8.145,6.258,27.322,27.322,0,0,1,.448,3.29c4.774,1.343,6.428,3.549,6.432,8.6q0,2.868,0,5.738h9.621V103.528h4.8v7.7c4.163,1.192,8.253,2.377,12.35,3.532,8.932,2.519,16.434-3.117,16.45-12.361q.02-11.926,0-23.852c0-.471-.042-.942-.061-1.36-.19-.09-.274-.164-.359-.164-3.588-.017-7.175-.036-10.763-.034-2.424,0-3.183.777-3.187,3.246-.007,4.7-.035,9.406.026,14.107a6.592,6.592,0,0,0,.632,2.615c1.217,2.611,2.542,5.171,3.861,7.823l-4.3,2.1c-1.309-2.613-2.52-5.09-3.8-7.532a2.21,2.21,0,0,0-1.149-1.128c-6.373-1.42-12.761-2.768-19.3-4.167m-19.25,2.3c.838-1.387,1.432-2.563,2.2-3.609,1.994-2.706,3.153-5.62,2.614-9.043-.137-.867.269-1.276,1.083-1.566,2.552-.907,5.112-1.807,7.6-2.875C82.133,76.6,85.79,71.919,86.331,65.2a46.4,46.4,0,0,0-.6-8.517c-.384-3.6-.889-7.191-1.333-10.718a1.747,1.747,0,0,0-.384-.167,13.186,13.186,0,0,1-10.829-6.605c-.212-.351-.816-.516-1.272-.66A33.075,33.075,0,0,1,66.7,36.888a30.685,30.685,0,0,1-4.408-3.337A13.268,13.268,0,0,1,52.5,38.584c-.34.02-.726.548-.959.921a12.86,12.86,0,0,1-7.981,5.873c-.969.248-1.974.354-2.957.524-.071.3-.149.535-.179.773-.6,4.755-1.228,9.507-1.777,14.268-1.023,8.873,3.122,15.627,11.473,18.782,1.946.735,3.869,1.548,5.857,2.145a2.073,2.073,0,0,1,1.71,2.487c-.085,1.433-.305,3.073.258,4.285a87.21,87.21,0,0,0,4.513,7.706M33.808,40.931c2.391,0,4.662.077,6.926-.017a7.515,7.515,0,0,0,7.277-5.265,2.4,2.4,0,0,1,2.908-1.9,8.615,8.615,0,0,0,8.485-4.5c.914-1.517,1.964-2.952,3.068-4.6.944,1.405,1.863,2.586,2.581,3.879,2.129,3.839,5.316,5.651,9.7,5.232a1.587,1.587,0,0,1,1.952,1.362c.756,2.644,2.447,4.761,5.1,5.294,3.023.607,6.189.506,9.338.715A28.811,28.811,0,0,0,62.388,14.555c-14.906.067-27.693,11.778-28.58,26.377m-19.379,79.05c0-.944,0-1.81,0-2.676A27.515,27.515,0,0,1,37.171,89.984c4.708-.893,9.423-1.742,14.124-2.666a5.814,5.814,0,0,0,1.56-.871A6.848,6.848,0,0,0,51.514,85.4c-1.191-.53-2.433-.95-3.658-1.4a21.431,21.431,0,0,1-9.81-7.223,22.077,22.077,0,0,1-4.4-11.735H24.2c-.057,2.372-.157,4.681-.145,6.989a2.829,2.829,0,0,1-1.027,2.191,46.249,46.249,0,0,0-5.69,6.515c-2.511,3.79-3.145,8.178-2.9,12.675a2.83,2.83,0,0,1-.99,2.409c-1.794,1.7-3.514,3.477-5.26,5.227A11.147,11.147,0,0,0,4.844,110c.31,4.993,4.685,9.677,9.585,9.984m86.5-78.874C99.482,26.926,92.972,16.06,80.439,9.5,66.78,2.35,53.148,3.268,40.427,11.982,30.33,18.9,25.1,28.833,24.058,41.111l4.776-.244a33.844,33.844,0,0,1,31.8-31.084,32.453,32.453,0,0,1,21.342,6.23c8.443,6.118,13.028,14.5,14.086,24.864l4.863.231M71.876,86.655l.323.439,28.7,6.152c0-4.069.065-7.941-.021-11.81-.064-2.852.241-5.518,2.6-7.544-2.3-2.69-2.691-5.831-2.619-8.908H91.328c-.07.5-.115.836-.165,1.17Q89.192,79.311,76.788,84.121c-1.262.491-2.559.9-3.792,1.452-.445.2-.751.712-1.12,1.082M64.23,134.662c.454-1.925.9-3.558,1.214-5.216a3.6,3.6,0,0,0-1.979-3.985c-1.042-.531-1.816-.553-2.111.842a19.315,19.315,0,0,1-.7,2.211c-.406,1.188-.5,2.8-1.335,3.432s-2.4.231-3.649.3c-.382.022-.879-.028-1.118.185-.614.547-1.552,1.2-1.584,1.85-.161,3.272-.074,6.556-.074,9.929,5.782,0,11.436.044,17.09-.031,1.349-.018,2.034-1.036,2.076-2.364.045-1.4.024-2.809.011-4.213-.018-2.064-.835-2.9-2.909-2.937-1.587-.028-3.176-.005-4.933-.005M120.058,72.22c0-3.163.174-6.163-.048-9.132-.228-3.047-3.009-5.231-6.272-5.322-4.414-.123-7.238,1.671-7.885,5.008a.755.755,0,0,0-.019.144c0,1.69-.126,3.392.034,5.067.2,2.037,1.991,4.195,3.422,4.217,3.524.056,7.049.018,10.767.018M51.691,108.065l7.634-7.594c-1.594-2.655-3.243-5.43-4.937-8.177a1.14,1.14,0,0,0-.9-.476c-1.84.3-3.666.681-5.6,1.057l3.807,15.191m21.482.3,3.821-15.312c-1.924-.422-3.661-.844-5.417-1.151a1.372,1.372,0,0,0-1.117.533q-2.311,3.689-4.476,7.468a1.421,1.421,0,0,0,.124,1.32c2.24,2.339,4.545,4.614,7.065,7.142M28.9,45.862V60.08H33.92c.6-4.774,1.187-9.454,1.785-14.218ZM96.022,60.088V45.877h-6.8l1.8,14.211ZM23.97,46.453c-2.718.538-4.929,3.734-4.762,6.8s2.4,5.974,4.762,6.2Zm77,13.013.288.284a34.79,34.79,0,0,0,4.095-4.8c1.655-2.81-1.03-7.807-4.383-8.5Z" transform="translate(0 0)"/>
          <path id="Trazado_604334" data-name="Trazado 604334" d="M111.781,215.178c6.544,1.4,12.932,2.747,19.3,4.167a2.211,2.211,0,0,1,1.149,1.128c1.279,2.442,2.491,4.919,3.8,7.532l4.3-2.1c-1.319-2.652-2.644-5.212-3.861-7.823a6.6,6.6,0,0,1-.632-2.615c-.061-4.7-.034-9.4-.026-14.107,0-2.47.762-3.245,3.187-3.246,3.588,0,7.175.017,10.763.034.085,0,.169.075.359.164.02.419.061.889.061,1.36q.006,11.926,0,23.852c-.016,9.244-7.518,14.88-16.45,12.361-4.1-1.156-8.187-2.341-12.35-3.532v-7.7h-4.8V265.29h-9.621q0-2.871,0-5.738c0-5.056-1.657-7.263-6.431-8.6a27.465,27.465,0,0,0-.448-3.29,8.443,8.443,0,0,0-8.145-6.258,4.635,4.635,0,0,0-4.529,3.037c-.56,1.327-.673,3.077-1.622,3.938-.888.806-2.612.691-4.1,1.01-1.813-2.73-4.6-3.352-7.709-3.239-1.738.063-3.48.012-5.4.012v-21.5H63.709v21.478h-9.5v4.861h1.572q9.528,0,19.056,0c2.538,0,3.26.727,3.266,3.3.009,3.625,0,7.251,0,10.931a5.258,5.258,0,0,1-.808.147c-5.382.006-10.767.1-16.146-.023a11.641,11.641,0,0,1-11.8-11.424,167.728,167.728,0,0,1,.125-17.874c.67-10.033,8.635-18.49,18.543-20.232,1.7-.3,3.4-.613,5.193-.936l5.949,23.742,13.145-13.156,13.47,13.638,6-23.931" transform="translate(-30.069 -121.124)" fill="#becff6"/>
          <path id="Trazado_604335" data-name="Trazado 604335" d="M123.034,149.137a87.3,87.3,0,0,1-4.513-7.706c-.563-1.213-.344-2.853-.258-4.285a2.073,2.073,0,0,0-1.709-2.487c-1.988-.6-3.912-1.41-5.857-2.145-8.352-3.155-12.5-9.909-11.473-18.782.549-4.761,1.179-9.513,1.777-14.268.03-.238.107-.47.179-.773.982-.17,1.988-.277,2.957-.524a12.86,12.86,0,0,0,7.981-5.873c.234-.374.619-.9.959-.921a13.269,13.269,0,0,0,9.789-5.033,30.682,30.682,0,0,0,4.408,3.337,33.087,33.087,0,0,0,5.208,1.646c.456.144,1.06.309,1.273.66a13.185,13.185,0,0,0,10.828,6.605,1.747,1.747,0,0,1,.384.167c.444,3.527.948,7.116,1.333,10.718a46.4,46.4,0,0,1,.6,8.517c-.54,6.717-4.2,11.4-10.371,14.055-2.486,1.069-5.047,1.969-7.6,2.875-.814.29-1.219.7-1.083,1.566.539,3.422-.62,6.337-2.614,9.043-.771,1.046-1.365,2.222-2.2,3.609m-11.909-33.653c-.5,5.544,1.193,9.963,6.019,12.7a11.317,11.317,0,0,0,12.753-.6c4.179-2.9,5.554-7.094,5.039-12.106Zm-.15-5.021c.281-1.831-.615-4.458,2.287-4.584,3.272-.142,2.322,2.737,2.608,4.549h4.72c.331-3.52-.324-6.528-3.489-8.421a6.764,6.764,0,0,0-7.678.2c-2.931,1.959-3.506,4.9-3.134,8.253Zm28.822.011c.368-3.572-.31-6.616-3.541-8.506a6.79,6.79,0,0,0-7.793.368,7.578,7.578,0,0,0-2.839,8.1h4.54c.374-3.8.785-4.67,2.391-4.6,3.184.133,2.236,2.764,2.582,4.643Z" transform="translate(-60.571 -52.787)" fill="#fef1e4"/>
          <path id="Trazado_604336" data-name="Trazado 604336" d="M87,63.831c.888-14.6,13.674-26.309,28.58-26.377a28.811,28.811,0,0,1,28.754,26.578c-3.148-.21-6.314-.108-9.338-.715-2.652-.533-4.343-2.65-5.1-5.294a1.588,1.588,0,0,0-1.952-1.362c-4.385.419-7.572-1.392-9.7-5.231-.718-1.293-1.638-2.475-2.581-3.879-1.1,1.644-2.154,3.079-3.068,4.6a8.614,8.614,0,0,1-8.485,4.5,2.4,2.4,0,0,0-2.908,1.9,7.515,7.515,0,0,1-7.277,5.265c-2.264.094-4.535.017-6.926.017" transform="translate(-53.192 -22.9)" fill="#b5a794"/>
          <path id="Trazado_604337" data-name="Trazado 604337" d="M22.008,222.306c-4.9-.307-9.275-4.99-9.585-9.984a11.147,11.147,0,0,1,3.349-8.957c1.746-1.75,3.466-3.527,5.26-5.227a2.831,2.831,0,0,0,.99-2.408c-.249-4.5.385-8.885,2.9-12.675a46.249,46.249,0,0,1,5.69-6.515,2.829,2.829,0,0,0,1.027-2.191c-.012-2.308.088-4.616.145-6.989h9.442a22.074,22.074,0,0,0,4.4,11.735,21.431,21.431,0,0,0,9.81,7.223c1.225.454,2.466.874,3.658,1.4a6.847,6.847,0,0,1,1.341,1.049,5.814,5.814,0,0,1-1.56.871c-4.7.924-9.417,1.774-14.124,2.666A27.514,27.514,0,0,0,22.008,219.63c0,.866,0,1.732,0,2.676" transform="translate(-7.579 -102.324)" fill="#b5a794"/>
          <path id="Trazado_604338" data-name="Trazado 604338" d="M138.78,48.54l-4.862-.231c-1.059-10.364-5.644-18.746-14.086-24.864a32.458,32.458,0,0,0-21.342-6.23A33.845,33.845,0,0,0,66.685,48.3l-4.776.244c1.045-12.278,6.272-22.212,16.369-29.129C91,10.7,104.631,9.782,118.291,16.932c12.533,6.56,19.043,17.426,20.489,31.608" transform="translate(-37.851 -7.432)" fill="#fff"/>
          <path id="Trazado_604339" data-name="Trazado 604339" d="M184.962,188.9c.369-.37.674-.882,1.12-1.082,1.233-.553,2.531-.961,3.792-1.452q12.385-4.822,14.376-17.966c.05-.334.094-.669.164-1.17h9.532c-.073,3.077.319,6.218,2.619,8.908-2.36,2.026-2.666,4.692-2.6,7.544.087,3.868.022,7.74.022,11.81l-28.7-6.153-.323-.439" transform="translate(-113.086 -102.243)" fill="#b5a794"/>
          <path id="Trazado_604340" data-name="Trazado 604340" d="M147.414,331.526c1.757,0,3.345-.023,4.933.005,2.073.037,2.891.873,2.909,2.937.012,1.4.034,2.81-.011,4.213-.043,1.328-.727,2.346-2.076,2.364-5.653.075-11.308.032-17.09.032,0-3.374-.087-6.658.074-9.929.032-.649.97-1.3,1.584-1.851.239-.213.736-.162,1.118-.185,1.246-.072,2.825.317,3.649-.3s.929-2.245,1.335-3.432a19.288,19.288,0,0,0,.7-2.211c.3-1.4,1.069-1.372,2.111-.841a3.6,3.6,0,0,1,1.979,3.985c-.316,1.658-.76,3.291-1.214,5.216" transform="translate(-83.184 -196.865)" fill="#fef1e4"/>
          <path id="Trazado_604341" data-name="Trazado 604341" d="M286.5,163.1c-3.718,0-7.243.038-10.767-.019-1.432-.023-3.227-2.181-3.422-4.217-.161-1.675-.035-3.377-.035-5.067a.751.751,0,0,1,.019-.144c.647-3.338,3.471-5.131,7.885-5.008,3.263.091,6.043,2.274,6.272,5.322.223,2.97.049,5.969.049,9.133" transform="translate(-166.44 -90.876)" fill="#fef1e4"/>
          <path id="Trazado_604342" data-name="Trazado 604342" d="M127.031,252.518l-3.807-15.191c1.934-.375,3.76-.757,5.6-1.057a1.141,1.141,0,0,1,.9.476c1.694,2.748,3.343,5.523,4.937,8.177l-7.634,7.594" transform="translate(-75.339 -144.453)" fill="#fff"/>
          <path id="Trazado_604343" data-name="Trazado 604343" d="M176.821,252.955c-2.519-2.527-4.825-4.8-7.065-7.142a1.422,1.422,0,0,1-.124-1.319q2.156-3.782,4.476-7.469a1.373,1.373,0,0,1,1.117-.533c1.756.307,3.493.729,5.417,1.151l-3.821,15.312" transform="translate(-103.648 -144.587)" fill="#fff"/>
          <path id="Trazado_604344" data-name="Trazado 604344" d="M74.379,118.018h6.8c-.6,4.765-1.186,9.445-1.785,14.218H74.379Z" transform="translate(-45.475 -72.156)" fill="#fff"/>
          <path id="Trazado_604345" data-name="Trazado 604345" d="M236.4,132.268h-5l-1.8-14.211h6.8Z" transform="translate(-140.38 -72.18)" fill="#fff"/>
          <path id="Trazado_604346" data-name="Trazado 604346" d="M54.178,119.539v13c-2.366-.227-4.594-3.124-4.762-6.2s2.044-6.263,4.762-6.8" transform="translate(-30.207 -73.086)" fill="#fff"/>
          <path id="Trazado_604347" data-name="Trazado 604347" d="M259.826,132.544V119.526c3.353.7,6.038,5.692,4.383,8.5a34.79,34.79,0,0,1-4.095,4.8l-.288-.284" transform="translate(-158.858 -73.078)" fill="#fff"/>
          <path id="Trazado_604348" data-name="Trazado 604348" d="M129.958,161.339H153.77c.515,5.012-.861,9.207-5.039,12.106a11.316,11.316,0,0,1-12.753.6c-4.826-2.74-6.519-7.159-6.019-12.7m5.322,4.73a6.9,6.9,0,0,0,6.61,4.792,6.807,6.807,0,0,0,6.551-4.792Z" transform="translate(-79.405 -98.643)"/>
          <path id="Trazado_604349" data-name="Trazado 604349" d="M122.172,133.389h-4.688c-.371-3.356.2-6.294,3.134-8.253a6.764,6.764,0,0,1,7.678-.2c3.165,1.892,3.82,4.9,3.489,8.421h-4.72c-.286-1.812.664-4.691-2.608-4.549-2.9.126-2.006,2.753-2.287,4.584" transform="translate(-71.768 -75.714)"/>
          <path id="Trazado_604350" data-name="Trazado 604350" d="M181.209,133.4h-4.66c-.345-1.879.6-4.51-2.582-4.643-1.606-.067-2.017.8-2.391,4.6h-4.542a7.582,7.582,0,0,1,2.84-8.1,6.79,6.79,0,0,1,7.793-.368c3.231,1.89,3.909,4.933,3.541,8.506" transform="translate(-101.983 -75.718)"/>
          <path id="Trazado_604351" data-name="Trazado 604351" d="M143.786,173.512h13.161A6.807,6.807,0,0,1,150.4,178.3a6.9,6.9,0,0,1-6.61-4.792" transform="translate(-87.911 -106.085)" fill="#fff"/>
        </g>
      </g>
    </g>
  </g>
</svg>
