<svg xmlns="http://www.w3.org/2000/svg" xmlns:xlink="http://www.w3.org/1999/xlink" width="291.961" height="176.238" viewBox="0 0 291.961 176.238">
  <defs>
    <clipPath id="clip-path">
      <rect id="Rectángulo_48104" data-name="Rectángulo 48104" width="291.961" height="163.554" fill="none"/>
    </clipPath>
    <clipPath id="clip-path-3">
      <rect id="Rectángulo_48066" data-name="Rectángulo 48066" width="148.162" height="17.792" transform="translate(35.459 145.762)" fill="none"/>
    </clipPath>
    <clipPath id="clip-path-4">
      <rect id="Rectángulo_48067" data-name="Rectángulo 48067" width="148.162" height="17.792" transform="translate(143.799 120.76)" fill="none"/>
    </clipPath>
    <clipPath id="clip-path-5">
      <rect id="Rectángulo_48085" data-name="Rectángulo 48085" width="164.29" height="94.853" transform="translate(0 1.116)" fill="none"/>
    </clipPath>
    <clipPath id="clip-path-6">
      <rect id="Rectángulo_48086" data-name="Rectángulo 48086" width="8.696" height="5.205" transform="translate(85.167 86.007)" fill="none"/>
    </clipPath>
    <clipPath id="clip-path-7">
      <rect id="Rectángulo_48087" data-name="Rectángulo 48087" width="23.295" height="48.711" transform="translate(120.103 61.855)" fill="none"/>
    </clipPath>
    <clipPath id="clip-path-8">
      <rect id="Rectángulo_48088" data-name="Rectángulo 48088" width="16.849" height="17.594" transform="translate(166.118 57.356)" fill="none"/>
    </clipPath>
    <clipPath id="clip-path-9">
      <rect id="Rectángulo_48089" data-name="Rectángulo 48089" width="9.346" height="26.744" transform="translate(171.427 54.999)" fill="none"/>
    </clipPath>
    <clipPath id="clip-path-10">
      <rect id="Rectángulo_48090" data-name="Rectángulo 48090" width="16.112" height="32.269" transform="translate(166.11 26.355)" fill="none"/>
    </clipPath>
    <clipPath id="clip-path-11">
      <rect id="Rectángulo_48092" data-name="Rectángulo 48092" width="4.122" height="15.504" transform="translate(215.21 55.872)" fill="none"/>
    </clipPath>
    <clipPath id="clip-path-12">
      <rect id="Rectángulo_48093" data-name="Rectángulo 48093" width="3.213" height="11.747" transform="translate(217.607 59.521)" fill="none"/>
    </clipPath>
    <clipPath id="clip-path-13">
      <rect id="Rectángulo_48094" data-name="Rectángulo 48094" width="5.249" height="7.896" transform="translate(208.788 63.855)" fill="none"/>
    </clipPath>
    <clipPath id="clip-path-14">
      <rect id="Rectángulo_48095" data-name="Rectángulo 48095" width="8.008" height="5.098" transform="translate(217.686 67.421)" fill="none"/>
    </clipPath>
    <clipPath id="clip-path-15">
      <rect id="Rectángulo_48096" data-name="Rectángulo 48096" width="4.004" height="11.396" transform="translate(212.397 60.264)" fill="none"/>
    </clipPath>
    <clipPath id="clip-path-16">
      <rect id="Rectángulo_48097" data-name="Rectángulo 48097" width="4.712" height="10.859" transform="translate(219.382 61.476)" fill="none"/>
    </clipPath>
    <clipPath id="clip-path-17">
      <rect id="Rectángulo_48098" data-name="Rectángulo 48098" width="11.21" height="1.57" transform="translate(210.978 72.308)" fill="none"/>
    </clipPath>
    <clipPath id="clip-path-18">
      <rect id="Rectángulo_48100" data-name="Rectángulo 48100" width="8.957" height="25.631" transform="translate(258.458 76.106)" fill="none"/>
    </clipPath>
    <clipPath id="clip-path-19">
      <rect id="Rectángulo_48101" data-name="Rectángulo 48101" width="8.977" height="30.674" transform="translate(260.725 51.71)" fill="none"/>
    </clipPath>
    <clipPath id="clip-path-20">
      <rect id="Rectángulo_48102" data-name="Rectángulo 48102" width="9.597" height="15.286" transform="translate(252.659 35.835)" fill="none"/>
    </clipPath>
  </defs>
  <g id="Grupo_162038" data-name="Grupo 162038" transform="translate(-308.039 -4682.039)">
    <g id="Grupo_162037" data-name="Grupo 162037" transform="translate(-241 -1976.961)">
      <path id="Trazado_600880" data-name="Trazado 600880" d="M40.022,0,8.458,8.457,0,40.021,23.107,63.127,54.67,54.67l8.458-31.564Z" transform="translate(716 6659)" fill="#fff"/>
      <path id="Trazado_601791" data-name="Trazado 601791" d="M0,.513.914,0V17.369l-.861.472Z" transform="matrix(0.259, 0.966, -0.966, 0.259, 742.575, 6659)" fill="#833343"/>
    </g>
    <g id="Grupo_162036" data-name="Grupo 162036" transform="translate(308.039 4694.723)">
      <g id="Grupo_162035" data-name="Grupo 162035" clip-path="url(#clip-path)">
        <g id="Grupo_162034" data-name="Grupo 162034">
          <g id="Grupo_162033" data-name="Grupo 162033" clip-path="url(#clip-path)">
            <g id="Grupo_161981" data-name="Grupo 161981" opacity="0.5" style="mix-blend-mode: multiply;isolation: isolate">
              <g id="Grupo_161980" data-name="Grupo 161980">
                <g id="Grupo_161979" data-name="Grupo 161979" clip-path="url(#clip-path-3)">
                  <path id="Trazado_604856" data-name="Trazado 604856" d="M183.621,163.554H35.459l11.53-17.792h125.1Z" fill="#c9d6df"/>
                </g>
              </g>
            </g>
            <g id="Grupo_161984" data-name="Grupo 161984" opacity="0.5" style="mix-blend-mode: multiply;isolation: isolate">
              <g id="Grupo_161983" data-name="Grupo 161983">
                <g id="Grupo_161982" data-name="Grupo 161982" clip-path="url(#clip-path-4)">
                  <path id="Trazado_604857" data-name="Trazado 604857" d="M291.961,138.552H143.8l11.53-17.792h125.1Z" fill="#c9d6df"/>
                </g>
              </g>
            </g>
            <path id="Trazado_604858" data-name="Trazado 604858" d="M57.158,112.993H75.285l8.253,41.264H48.9Zm0-1.179a1.179,1.179,0,0,0-1.15.919L47.755,154a1.179,1.179,0,0,0,1.15,1.439H83.538A1.179,1.179,0,0,0,84.687,154l-8.252-41.264a1.18,1.18,0,0,0-1.15-.919Z"/>
            <path id="Trazado_604859" data-name="Trazado 604859" d="M53.548,116.383H78.9a2.211,2.211,0,0,0,0-4.421H53.548a2.211,2.211,0,1,0,0,4.421" fill="#52616b"/>
            <path id="Trazado_604860" data-name="Trazado 604860" d="M53.1,112.993h3.684V65.024a1.842,1.842,0,1,0-3.684,0Z" fill="#52616b"/>
            <path id="Trazado_604861" data-name="Trazado 604861" d="M188.638,78.043H103.614A12.738,12.738,0,0,1,90.876,65.305V12.738A12.738,12.738,0,0,1,103.614,0h85.024a12.738,12.738,0,0,1,12.738,12.738V65.305a12.738,12.738,0,0,1-12.738,12.738" fill="#91e8d6"/>
            <rect id="Rectángulo_48068" data-name="Rectángulo 48068" width="95.471" height="67.429" transform="translate(98.391 5.307)" fill="#e2e8ec"/>
            <rect id="Rectángulo_48069" data-name="Rectángulo 48069" width="4.977" height="4.566" transform="translate(107.744 35.536)" fill="#cc6500"/>
            <rect id="Rectángulo_48070" data-name="Rectángulo 48070" width="4.977" height="9.723" transform="translate(116.95 30.379)" fill="#8f2c3d"/>
            <rect id="Rectángulo_48071" data-name="Rectángulo 48071" width="4.977" height="12.924" transform="translate(126.157 27.178)" fill="#ae4628"/>
            <rect id="Rectángulo_48072" data-name="Rectángulo 48072" width="4.977" height="5.827" transform="translate(135.364 34.275)" fill="#2d7063"/>
            <rect id="Rectángulo_48073" data-name="Rectángulo 48073" width="4.977" height="9.229" transform="translate(144.695 30.873)" fill="#eead26"/>
            <rect id="Rectángulo_48074" data-name="Rectángulo 48074" width="4.977" height="19.682" transform="translate(153.777 20.42)" fill="#486586"/>
            <rect id="Rectángulo_48075" data-name="Rectángulo 48075" width="3.007" height="2.971" transform="translate(136.047 62.117)" fill="#cc6500"/>
            <rect id="Rectángulo_48076" data-name="Rectángulo 48076" width="0.957" height="15.532" transform="translate(137.004 44.829)" fill="#52616b"/>
            <rect id="Rectángulo_48077" data-name="Rectángulo 48077" width="3.007" height="2.971" transform="translate(140.967 62.117)" fill="#486586"/>
            <rect id="Rectángulo_48078" data-name="Rectángulo 48078" width="0.957" height="15.532" transform="translate(141.924 44.829)" fill="#52616b"/>
            <rect id="Rectángulo_48079" data-name="Rectángulo 48079" width="3.007" height="2.971" transform="translate(145.887 62.117)" fill="#eead26"/>
            <rect id="Rectángulo_48080" data-name="Rectángulo 48080" width="0.957" height="15.532" transform="translate(146.844 44.829)" fill="#52616b"/>
            <rect id="Rectángulo_48081" data-name="Rectángulo 48081" width="3.007" height="2.971" transform="translate(150.807 62.117)" fill="#2d7063"/>
            <rect id="Rectángulo_48082" data-name="Rectángulo 48082" width="3.007" height="2.971" transform="translate(155.747 62.117)" fill="#8f2c3d"/>
            <rect id="Rectángulo_48083" data-name="Rectángulo 48083" width="0.957" height="15.532" transform="translate(151.764 44.829)" fill="#52616b"/>
            <rect id="Rectángulo_48084" data-name="Rectángulo 48084" width="0.957" height="15.532" transform="translate(156.629 44.829)" fill="#52616b"/>
            <path id="Trazado_604862" data-name="Trazado 604862" d="M107.18,28.809l-.023-.54a99.176,99.176,0,0,0,51.254-16.762l.3.445A99.722,99.722,0,0,1,107.18,28.809" fill="#8f2c3d"/>
            <g id="Grupo_161987" data-name="Grupo 161987" opacity="0.3">
              <g id="Grupo_161986" data-name="Grupo 161986">
                <g id="Grupo_161985" data-name="Grupo 161985" clip-path="url(#clip-path-5)">
                  <path id="Trazado_604863" data-name="Trazado 604863" d="M164.29,54.8,92.983,95.969,0,42.285,71.308,1.116Z"/>
                </g>
              </g>
            </g>
            <path id="Trazado_604864" data-name="Trazado 604864" d="M164.29,54.258,92.983,95.423,0,41.744,71.308.576Z" fill="#fff"/>
            <path id="Trazado_604865" data-name="Trazado 604865" d="M68.578,8.135,50.663,18.479l10.32,5.957L78.9,14.093Z" fill="#b5afa7"/>
            <path id="Trazado_604866" data-name="Trazado 604866" d="M87.247,18.913,31.764,50.944,29.256,49.5,84.737,17.465Z" fill="#b5afa7"/>
            <path id="Trazado_604867" data-name="Trazado 604867" d="M92.824,22.133,37.34,54.164l-2.51-1.446L90.313,20.684Z" fill="#b5afa7"/>
            <path id="Trazado_604868" data-name="Trazado 604868" d="M98.4,25.352,42.916,57.385l-2.508-1.45L95.89,23.9Z" fill="#b5afa7"/>
            <path id="Trazado_604869" data-name="Trazado 604869" d="M103.977,28.572,48.492,60.606l-2.507-1.452,55.483-32.029Z" fill="#b5afa7"/>
            <path id="Trazado_604870" data-name="Trazado 604870" d="M128.925,42.977,107.084,55.584l-.811-.468,21.843-12.61Z" fill="#b5afa7"/>
            <path id="Trazado_604871" data-name="Trazado 604871" d="M98.4,62.124l-7.781,1.2-5.7,3.291L82.83,71.113l2.087,4.493,5.7,3.288L98.4,80.1l7.782-1.206,5.7-3.288,2.088-4.493-2.086-4.494-5.7-3.291Zm11.542,5.138,1.785,3.851-1.785,3.846-4.878,2.816L98.4,78.8l-6.664-1.029-4.876-2.816-1.785-3.846,1.785-3.847,4.878-2.819L98.4,63.418l6.662,1.029Z" fill="#6cb5c4"/>
            <path id="Trazado_604872" data-name="Trazado 604872" d="M95.067,67.78l-2.44,1.411-.892,1.922.892,1.921,2.44,1.407,3.329.518,3.331-.518,2.439-1.407.893-1.921-.893-1.925-2.437-1.408L98.4,67.266Z" fill="#6cb5c4"/>
            <path id="Trazado_604873" data-name="Trazado 604873" d="M93.152,65.869l-3.838,2.214-1.407,3.031,1.407,3.026,3.84,2.219,5.242.81,5.245-.81,3.84-2.219,1.406-3.03-1.4-3.027-3.84-2.214L98.4,65.056ZM106.836,68.3l1.305,2.814-1.307,2.808-3.566,2.059-4.872.756-4.869-.756-3.566-2.059-1.3-2.808,1.3-2.814,3.567-2.061,4.87-.753,4.873.753Z" fill="#6cb5c4"/>
            <path id="Trazado_604874" data-name="Trazado 604874" d="M86.658,45.008,54.07,63.824l-2.506-1.448L84.15,43.56Z" fill="#b5afa7"/>
            <path id="Trazado_604875" data-name="Trazado 604875" d="M106.2,144.076a42.359,42.359,0,0,0,5.157,2.386c2.41.866,6.417-.2,6.656.874s-.433,2.643-5.481,2.849-8.02.625-9.785.793-2.6-1.4-2.345-3.064a4.209,4.209,0,0,0-.084-2.32Z" fill="#1e2022"/>
            <path id="Trazado_604876" data-name="Trazado 604876" d="M92.33,50.556c-.027.1-.1.164-.167.147s-.094-.113-.067-.212.1-.165.167-.147.094.113.067.212" fill="#fff"/>
            <path id="Trazado_604877" data-name="Trazado 604877" d="M80.294,50.038a6.393,6.393,0,1,1-8.329-4.043,6.55,6.55,0,0,1,8.329,4.043" fill="#1e2022"/>
            <path id="Trazado_604878" data-name="Trazado 604878" d="M103.128,149.864a41.041,41.041,0,0,0,4.764,2.779c2.25,1.059,6.221.4,6.353,1.456s-.662,2.514-5.558,2.25-7.809-.133-9.529-.133-2.382-1.588-1.985-3.176a4.085,4.085,0,0,0,.132-2.25Z" fill="#1e2022"/>
            <path id="Trazado_604879" data-name="Trazado 604879" d="M84.639,92.191a56.041,56.041,0,0,0,7.716,8.152,1.066,1.066,0,0,1,.3,1.62l-1.494,2.773c-.152.281-.352.6-.669.63a1,1,0,0,1-.525-.144L78.5,99.641C75.336,98.1,73.969,93,72.508,89.993q-1.868-3.852-3.737-7.7s-1.748-6.488-.716-9.7S72.6,66.5,74.333,67.5s3.527,2.6,3.662,3.923c.441,4.339,1.947,8.766,2.956,13a21.723,21.723,0,0,0,3.688,7.764" fill="#374854"/>
            <path id="Trazado_604880" data-name="Trazado 604880" d="M109.626,146.808c1.5-1.765-1.547-5.8-2.328-7.493-1.3-2.813-2.545-5.656-3.628-8.561-2-5.357-3.45-10.926-5.876-16.118-1.087-2.321-2-4.352-4.162-5.85a22.794,22.794,0,0,0-6.2-2.749c-2.993-.948-6.026-1.761-9.04-2.618-4.113-1.169-9.124-3.479-13.352-3.524a4.877,4.877,0,0,0-4.566,2.619,6.676,6.676,0,0,0-.49,2.441c-.2,4.445.956,7.4,4.986,8.848a79.535,79.535,0,0,0,10.08,2.2c4.949.936,9.383,3.085,14.341,3.964q.228.379.457.76c2.957,4.914-1.221,9.828,1.736,14.742q2.711,4.508,5.423,9.014c.746,1.24,3.009,6.452,4.207,6.732a2.788,2.788,0,0,0,1.556-.212,26.832,26.832,0,0,0,6.514-3.885,1.9,1.9,0,0,0,.337-.309" fill="#022d3a"/>
            <path id="Trazado_604881" data-name="Trazado 604881" d="M104.251,151.537c.022-.013.044-.026.065-.04a2.649,2.649,0,0,0,.758-.592c.561-.718.256-1.755-.07-2.606q-4.657-12.138-8.735-24.486c-1.181-3.575-1.858-8.218-3.725-11.453-1.585-2.746-5.229-4.26-8.016-5.381-2.933-1.179-5.912-2.219-8.872-3.3-4.038-1.481-8.9-4.214-13.124-4.521a4.807,4.807,0,0,0-4.711,2.47,7.285,7.285,0,0,0-.631,2.535c-.463,4.655.522,7.831,4.461,9.6,2.6,1.169,7.211,2.212,9.934,2.928a62.081,62.081,0,0,1,7.568,2.761c1.86.758,1.966.647,2.622,2.631.6,1.805,1.181,3.615,1.74,5.433,1.112,3.613,1.823,7.531,3.239,11.01,1.39,3.414,3.434,6.565,5.078,9.86.672,1.348,2.627,6.961,3.808,7.328a2.651,2.651,0,0,0,1.565-.126c2.629-.658,4.772-2.663,7.046-4.045" fill="#183f4b"/>
            <path id="Trazado_604882" data-name="Trazado 604882" d="M72.672,57.876a.7.7,0,0,0-.043.068,45.662,45.662,0,0,1-2.934,5.042L67.652,65.6l6.8,6.656c.861-1.814,1.638-3.7,2.595-5.464.665-1.225,1.622-2.256,2.342-3.446.433-.714.7-1.048.077-1.7a7.6,7.6,0,0,0-1.406-1.094,35.838,35.838,0,0,0-5.036-2.728.334.334,0,0,0-.233-.041.241.241,0,0,0-.119.1" fill="#70362c"/>
            <path id="Trazado_604883" data-name="Trazado 604883" d="M70.348,61.413s-3.825,6.778-4,7.262c-1.078,2.889-4.053.22-4.837,3.2a80.1,80.1,0,0,0-2.3,14.707c-.221,3.137-.435,6.276-.664,9.413-.168,2.311-1.263,4.365-1.263,6.688a3.38,3.38,0,0,0,.044,1.249c1.233,4.275,7.857,3.05,10.949,2.724,2.708-.285,6.85-.125,9.227-1.627,1.946-1.229.76-5.5.72-7.639-.12-6.38.182-12.9.531-19.179a23.237,23.237,0,0,0-.737-6.189,24.425,24.425,0,0,0-3.071-4.215c-.538-.717-4.592-6.4-4.592-6.4" fill="#7ee6da"/>
            <path id="Trazado_604884" data-name="Trazado 604884" d="M78.306,73.35a12.987,12.987,0,0,1,.884,5.305c-.147,2.948-.442,10.906-.442,10.906l-.884-.442a69.352,69.352,0,0,1-.59-8.695,20.212,20.212,0,0,1,1.032-7.074" fill="#274c57"/>
            <path id="Trazado_604885" data-name="Trazado 604885" d="M76.1,68.782l-1.032,1.326s-.884,1.621,1.032,3.39a11.468,11.468,0,0,0,2.653,2.063A6.057,6.057,0,0,0,76.1,68.782" fill="#274c57"/>
            <path id="Trazado_604886" data-name="Trazado 604886" d="M71.5,55.332c-.165,1.309.253,2.44.934,2.526s1.368-.905,1.533-2.214-.252-2.441-.934-2.527-1.368.906-1.533,2.215" fill="#d19764"/>
            <path id="Trazado_604887" data-name="Trazado 604887" d="M97.643,88.283v18.634a1.349,1.349,0,0,1-1.349,1.349H83.79a1.349,1.349,0,0,1-1.349-1.349V88.283a1.348,1.348,0,0,1,1.349-1.348h12.5a1.348,1.348,0,0,1,1.349,1.348" fill="#c9d6df"/>
            <path id="Trazado_604888" data-name="Trazado 604888" d="M93.628,89.189a1.778,1.778,0,1,1-1.778,1.778,1.778,1.778,0,0,1,1.778-1.778" fill="#52616b"/>
            <path id="Trazado_604889" data-name="Trazado 604889" d="M70.541,59.245c1.981,4.128,5.654,5.693,9.146,4.87,3.227-.761,2.97-7.9.989-12.028s-5.427-3.722-8.421-2.286-3.695,5.316-1.714,9.444" fill="#784138"/>
            <path id="Trazado_604890" data-name="Trazado 604890" d="M73.987,91.4a1.331,1.331,0,0,0-.275-.127,2.139,2.139,0,0,0-1.222.066,10.917,10.917,0,0,0-4.152,2.194c-1.93,1.639-1.126,3.164.692,4.343a56.983,56.983,0,0,1,6.934,5.073c1.091.964,2.345,1.916,3.348,2.952.825.853,1.314,1.988,2.533,2.393a14.954,14.954,0,0,0,2.736.748c.318.013,2.419-1.557,2.387-1.909a2.225,2.225,0,0,1,.064-.7s.318.523.732.38a1.428,1.428,0,0,0,.605-1.663c-1.5-1.56-2.226-3.208-4.565-3.467-1.447-.161-1.642.028-2.787-1.13-1.228-1.242-2.338-2.63-3.5-3.935a15.675,15.675,0,0,1-2.159-2.7c-.416-.759-.572-2.026-1.373-2.515" fill="#784138"/>
            <path id="Trazado_604891" data-name="Trazado 604891" d="M69.021,61.855l6.632,8.7.294,4.126,1.622,11.2,2.063,19.305s-14.885,3.242-16.8,3.537-5.9.442-5.9.442,0-8.695.295-11.5c.6-6.629,1.126-13.3,2.144-19.872.141-.916.484-2.989.753-3.875a22.335,22.335,0,0,1,2.045-4.2c1.932-3.39,4.209-5.008,6.848-7.867" fill="#52616b"/>
            <path id="Trazado_604892" data-name="Trazado 604892" d="M79.513,49.019s-3.674-.09-5.1,2.4A7.032,7.032,0,0,0,73.6,57.35a3.249,3.249,0,0,1,.123.621c-.57-.447-2.161-2.056-2.842-1.112-.814,1.128.465,2.276.726,3.29a3.2,3.2,0,0,1-.528,2.185c-1.191.391-4.716-5.043-5.237-6.008-2.127-3.943,1.017-9.216,5.546-10.672,3.1-.995,6.257.29,8.122,3.365" fill="#1e2022"/>
            <path id="Trazado_604893" data-name="Trazado 604893" d="M75.214,92.317a55.91,55.91,0,0,0,6.85,8.891,1.067,1.067,0,0,1,.138,1.643l-1.766,2.607c-.18.264-.411.558-.731.559a.993.993,0,0,1-.507-.2L68.354,99.107c-2.994-1.853-3.838-7.063-4.986-10.206q-1.469-4.02-2.938-8.04s-1.082-6.632.271-9.727,5.138-5.6,6.76-4.421,3.245,2.947,3.245,4.274c0,4.361,1.051,8.918,1.625,13.233a21.709,21.709,0,0,0,2.883,8.1" fill="#616f78"/>
            <path id="Trazado_604894" data-name="Trazado 604894" d="M68.956,101.6l-8.714,1.743.232,1.394,8.947-1.627Z" fill="#183f4b"/>
            <g id="Grupo_161990" data-name="Grupo 161990" opacity="0.5" style="mix-blend-mode: multiply;isolation: isolate">
              <g id="Grupo_161989" data-name="Grupo 161989">
                <g id="Grupo_161988" data-name="Grupo 161988" clip-path="url(#clip-path-6)">
                  <path id="Trazado_604895" data-name="Trazado 604895" d="M89.988,86.338s-1.17-.576-1.632-.208c-.074-.011-.325.311-.372.361-.175.186-.358.374-.514.576a1.749,1.749,0,0,1-.341.411c-.222.164-.46.311-.689.466a1.037,1.037,0,0,0-.309.276c-.074.118-1.044,1.023-.959,1.133.3.387,1.86-.5,2.194-.747.4-.29,1.6-1.263,1.6-1.263s.6.348.48.845-1.074,2.658-.933,2.94c.16.32.667-.388.833-.229.035.034.06.08.1.1a.175.175,0,0,0,.1,0,1.226,1.226,0,0,0,.493-.246l1.256-.886a6.545,6.545,0,0,0,1.1-.8q.309-.34.584-.708c.134-.179.261-.363.388-.546.158-.229.317-.457.475-.685.02-.03.041-.07.019-.1a.087.087,0,0,0-.054-.027,10.651,10.651,0,0,0-1.293-.223,8.367,8.367,0,0,1-1.329-.175l-1.19-.274" fill="#d29a68"/>
                </g>
              </g>
            </g>
            <path id="Trazado_604896" data-name="Trazado 604896" d="M88.993,85.29s-1.222-.541-1.645-.036-2.426,3.994-2.276,4.2,1.172-.679,1.54-1.082,1.46-1.737,1.46-1.737a1.077,1.077,0,0,1,.562.958,20.324,20.324,0,0,0-.342,3.5c.171.326.629.1.744-.465s.993-3.314.993-3.314-.892,3.5-.689,3.663.546.166.787-.644c.151-.507,1.466-2.958,1.466-2.958a10.142,10.142,0,0,0-.436,2.431c.148.312.623-.062.79-.675a7.9,7.9,0,0,1,.969-1.715s.41-.391.109-.757a1.246,1.246,0,0,0-.71-.427s-.247-.468-.659-.477a3.582,3.582,0,0,1-.972-.227Z" fill="#784138"/>
            <path id="Trazado_604897" data-name="Trazado 604897" d="M144.573,154.09s6.116,1.288,6.33,2.36-.643,1.824-2.467,2.039-6.974.215-6.974.215Z" fill="#1d1818"/>
            <path id="Trazado_604898" data-name="Trazado 604898" d="M128.8,154.2s6.116,1.288,6.33,2.36-.644,1.824-2.467,2.039-6.974.215-6.974.215Z" fill="#1d1818"/>
            <path id="Trazado_604899" data-name="Trazado 604899" d="M126.776,54.3s-.032,8.314-.032,8.318c0,.356-2.867,1.476-3.161,1.715-1.461,1.188-1.271,2.736.085,4.268a9.854,9.854,0,0,0,3.09,2.127,15.71,15.71,0,0,0,2.549,1.068,9.023,9.023,0,0,0,6.845-.755c1.332-.731,3.92-2.706,4.13-4.464.227-1.9-2.468-2.07-3.892-3.1-1.472-1.069-1.9-1.309-1.9-1.309l.112-7.4Z" fill="#d8a87d"/>
            <path id="Trazado_604900" data-name="Trazado 604900" d="M119.872,91.735q.222-1.045.427-2.1c.284-1.446.185-4.527,1.234-5.664.975-1.056,2.929-.47,4.153-.931,1.823-.687,2.076-2.229,1.141-4.114A10.513,10.513,0,0,0,124.3,75.94c-1.4-1.265-1.914-2.705-4-2.878a6.33,6.33,0,0,0-3.324.456c-2.819,1.386-2.555,4.4-2.933,7.008a77.506,77.506,0,0,0-1.017,10.727,26.76,26.76,0,0,0,2.9,13.075.481.481,0,0,0,.247.258c.238.071.41-.223.483-.461q1.886-6.119,3.215-12.39" fill="#d8a87d"/>
            <path id="Trazado_604901" data-name="Trazado 604901" d="M121.792,106.813c-.2.55,3.136,10.9,2.932,15.3S121.7,158.98,121.7,158.98s2.057.031,5.175.168c2.965.13,4.143-.8,4.143-.8s4.66-39.761,4.762-41.6,3.218-.751,3.218-.751l-3.32,42.662s2.213.133,4.659.316a30.049,30.049,0,0,0,5.658-.316s3.078-36.075,2.874-43.413-6.912-9.772-6.912-9.772Z" fill="#1e2022"/>
            <g id="Grupo_161993" data-name="Grupo 161993" opacity="0.6" style="mix-blend-mode: multiply;isolation: isolate">
              <g id="Grupo_161992" data-name="Grupo 161992">
                <g id="Grupo_161991" data-name="Grupo 161991" clip-path="url(#clip-path-7)">
                  <path id="Trazado_604902" data-name="Trazado 604902" d="M120.1,108.693s6.072,1.239,10.9,1.735,12.391-.5,12.391-.5l-2.231-43.863-5.328-4.214a5.051,5.051,0,0,1-4.832,2.975,6.784,6.784,0,0,1-5.452-2.479L120.1,67.308Z" fill="#90bcaa"/>
                </g>
              </g>
            </g>
            <path id="Trazado_604903" data-name="Trazado 604903" d="M147.423,82.252c-.218-5.836-1.521-12.283-5.088-17.021-1.739-2.309-4.945-2.849-6.784-5.1-.568-.695-.6-1.151-1.437-.839a8.42,8.42,0,0,1-1.85.612,13.564,13.564,0,0,1-2.509.029c-.906-.046-2.511-.111-2.873-1.133.261.746-2.026,2.307-2.548,2.612-1.5.881-3.384,1.232-4.734,2.343a7.174,7.174,0,0,0-1.417,1.725,23.851,23.851,0,0,0-3.176,7.606c-2.257,9.71-3.863,20.242-.26,29.865.436,1.164,1.168,2.485,2.409,2.563a1.839,1.839,0,0,0,1.814-1.449c1.265,1.735-.229,5.236.225,7.347.531,2.466,4.321,2.8,6.735,3.061a37.207,37.207,0,0,0,4.2.135c3.433-.018,6.794.149,10.154-.575-.1-3.021-1.074-6.654-.454-9.576a1.668,1.668,0,0,0,2.124,1.023,3.8,3.8,0,0,0,1.911-1.9,22.483,22.483,0,0,0,2.212-6.5,63.187,63.187,0,0,0,1.348-14.831" fill="#2d7063"/>
            <path id="Trazado_604904" data-name="Trazado 604904" d="M137.254,42.3c-.116-.2-.242-.407-.377-.614a6.258,6.258,0,0,0-.964-1.219,5.56,5.56,0,0,0-1.47-.909c-3.664-1.685-8.649.005-9.974,4-.737,2.22-.381,4.414-.04,6.639a10.68,10.68,0,0,0,2.588,5.828c3.236,3.378,5.5,2.567,7.787-.437a16.866,16.866,0,0,0,2.861-7.256c.363-2.07.676-4.129-.411-6.033" fill="#311700"/>
            <path id="Trazado_604905" data-name="Trazado 604905" d="M121.215,117.971H138.3l7.779,40.642H113.437Zm0-1.161a1.124,1.124,0,0,0-1.084.906l-7.778,40.642a1.2,1.2,0,0,0,.216.98,1.094,1.094,0,0,0,.868.437h32.641a1.1,1.1,0,0,0,.868-.437,1.2,1.2,0,0,0,.216-.98l-7.779-40.642a1.122,1.122,0,0,0-1.084-.906Z"/>
            <path id="Trazado_604906" data-name="Trazado 604906" d="M141.579,115.892H117.937V85.759A10.555,10.555,0,0,1,128.492,75.2h2.531a10.556,10.556,0,0,1,10.556,10.555Z" fill="#52616b"/>
            <path id="Trazado_604907" data-name="Trazado 604907" d="M143.351,118.811H116.165a2.018,2.018,0,0,1,0-4.037h27.186a2.018,2.018,0,0,1,0,4.037" fill="#374854"/>
            <path id="Trazado_604908" data-name="Trazado 604908" d="M164.193,28.307l1.373,2.315.4,3.358.229,3.646,1.316,2.316-.229,2.72c.018-.213-1.625-1.2-1.814-1.344-.785-.581-1.76-1.208-1.938-2.258a7.473,7.473,0,0,1,.012-1.61c.06-1.214,0-2.887-1.008-3.76-.4-.347-.572-1.447-.172-1.678s2,2.489,2.174,2.72.343-3.415.343-3.415a14.868,14.868,0,0,1-.743-2.142c0-.347.057-.636.057-.868" fill="#d4937c"/>
            <path id="Trazado_604909" data-name="Trazado 604909" d="M181.029,10.013a5.575,5.575,0,0,0-1.812-1.53,5.688,5.688,0,0,0-2.784-.364c-4.965.315-7.13,3.89-8.148,8.387-.889,3.924-1.113,8.144.379,11.88a11.182,11.182,0,0,0,4.571,5.471c2.241,1.337,3.511,1.634,4.6,4.254a18.209,18.209,0,0,1,1.286,5.012c.162,1.477.254,3.191,1.46,4.058,6.536,4.7,5.872-9.493,5.673-12.634-.28-4.431-2.12-8.425-2.263-12.9-.057-1.8.075-3.6-.107-5.387a10.624,10.624,0,0,0-2.426-5.725c-.141-.174-.282-.348-.428-.52" fill="#1e2022"/>
            <path id="Trazado_604910" data-name="Trazado 604910" d="M179.147,61.426c.361,0,3.733,7.676,3.733,7.676l-2.89,9.138-.241,13.4a14.5,14.5,0,0,1,1.565,5.849c.362,3.9-3.48,26.852-3.48,26.852l-1.035,2.572-2.89-.731,1.746-10.174-.241-18.519s-2.287-6.945-2.167-9.016.722-22.906.722-22.906Z" fill="#d4937c"/>
            <path id="Trazado_604911" data-name="Trazado 604911" d="M178.666,19.513l-5.9,3.9a16.579,16.579,0,0,1,.12,4.508c-.361,1.218-5.538,29.607-5.659,33.628s-1.806,11.94-1.806,18.641-.723,9.869-.361,11.21,14.329,23.393,15.292,24.611S187.817,126,187.817,126l1.987-3.107s-7.526-13.463-10.295-20.164a35.689,35.689,0,0,0-7.586-11.21s12.186-23.807,10.957-26.683c-1.926-4.508-3.491-14.864-3.491-14.864l4.575-13.524s-.722-5.727-3.131-7.189-1.565-1.462-1.565-1.462l1.325-6.457Z" fill="#e3b8a9"/>
            <path id="Trazado_604912" data-name="Trazado 604912" d="M178.241,23.081s-1.982,1.9-3.581,3.325c-1.226,1.092-2.436,1.575-2.436,2.611s-.192,2.74-1.1,3.593-2.818,2.681-4.022,4.082-1.084,2.254-.843,4.083c.567,4.3,1.694,9.4,1.277,15.1-.084,1.144-1.234,4.2.017,4.7,1.036.411,2.765-2.633,3.943-2.681,1.506-.06,5.058-.791,6.262-.487s1.866.853,2.649.122.6-8.894,1.384-10.356a32.8,32.8,0,0,0,1.807-4.935,15.6,15.6,0,0,0,.722-4.934c0-1.036-.18-5.422-1.625-6.7s-2.288-2.071-3.432-1.888-1.027-5.631-1.027-5.631" fill="#e4ffff"/>
            <g id="Grupo_161996" data-name="Grupo 161996" opacity="0.5" style="mix-blend-mode: multiply;isolation: isolate">
              <g id="Grupo_161995" data-name="Grupo 161995">
                <g id="Grupo_161994" data-name="Grupo 161994" clip-path="url(#clip-path-8)">
                  <path id="Trazado_604913" data-name="Trazado 604913" d="M175.806,74.95l4-.059c2.038-4.75,3.549-8.949,3.077-10.054a46.036,46.036,0,0,1-2.127-7.481,33.913,33.913,0,0,1-5.369.841,54.893,54.893,0,0,0-7.1.731,1.309,1.309,0,0,0-.722,1.645,3.346,3.346,0,0,1-.241,2.741,2.452,2.452,0,0,0-.282.685c-.046.418-.1.853-.153,1.308a9.792,9.792,0,0,1-.109,1.626c-.406,2.04-.442,4.23-.655,6.3.885.411,1.792.92,2.7,1.29.6.243,6.984.426,6.984.426" fill="#d18b72"/>
                </g>
              </g>
            </g>
            <path id="Trazado_604914" data-name="Trazado 604914" d="M167.247,58.162c-.491,3.076-1.091,6.106-1.438,9.187-.275,2.443-.429,4.9-.612,7.354-.225,3.03-.436,6.06-.651,9.091-.027.393.514,5.99.772,6.11.885.412.623.138,1.535.507.6.244,6.983.427,6.983.427l6.205-.1s3.171-19.478,3.472-20.7.89-5.914-.555-8.473c-.888-1.571-1.744-5.784-3.92-5.7-3.846.15-6.914.56-11.5.373q-.134.963-.288,1.919" fill="#5479a2"/>
            <path id="Trazado_604915" data-name="Trazado 604915" d="M182.958,61.57c-.887-1.571-1.744-5.785-3.92-5.7-3.846.151-6.914.561-11.5.374-.083.6-.174,1.2-.269,1.793,2.149-.336,4.1-.729,6.324-1.066,2.153-.327,3.474,3.765,4.53,5.228,1.721,2.382,1.659,7.114,1.5,8.358-.145,1.1-.93,16.614-1.111,20.206l1.537-.025s3.172-19.477,3.473-20.695.889-5.914-.556-8.473" fill="#225287"/>
            <path id="Trazado_604916" data-name="Trazado 604916" d="M176.005,75.594l-5.216,15.574-9.149-5.191,5.216-14.709Z" fill="#e2e9ee"/>
            <path id="Trazado_604917" data-name="Trazado 604917" d="M163.813,83.821l5.9,3.2.1-.185-5.9-3.2Zm.589-1.651,5.922,3.157.1-.186L164.5,81.982Zm.589-1.651,5.943,3.114.1-.187-5.943-3.116Zm.588-1.651,5.964,3.072.1-.189-5.964-3.073Zm.588-1.652,5.986,3.029.094-.188-5.986-3.03Zm.588-1.651,6.009,2.986.092-.189-6.009-2.986Zm.589-1.651,6.03,2.943.091-.189-6.03-2.943Z" fill="#52616b"/>
            <g id="Grupo_161999" data-name="Grupo 161999" opacity="0.5" style="mix-blend-mode: multiply;isolation: isolate">
              <g id="Grupo_161998" data-name="Grupo 161998">
                <g id="Grupo_161997" data-name="Grupo 161997" clip-path="url(#clip-path-9)">
                  <path id="Trazado_604918" data-name="Trazado 604918" d="M175.535,61.4s-.722,8.59-.843,9.5a16.46,16.46,0,0,1-1.565,3.6c-.3.548-1.867,4.508-1.686,4.691s1.144-.183,1.445-.853,1.686-2.62,1.746-2.133a32.632,32.632,0,0,1-.783,3.6c-.12.67-.542.792-.9,1.035s-.6.061-.542.305.241.609.542.609,1.867-.243,2.288-.3.722-.244,1.505-1.523a5.821,5.821,0,0,0,1.024-3.046,27.814,27.814,0,0,0-.482-2.986c0-.121,1.5-7.858,2.167-10.478s1.325-5.483,1.325-5.483L176.438,55Z" fill="#d18b72"/>
                </g>
              </g>
            </g>
            <path id="Trazado_604919" data-name="Trazado 604919" d="M176.257,60.756s-.722,8.59-.843,9.5a16.451,16.451,0,0,1-1.565,3.594c-.3.548-1.867,4.508-1.686,4.691s1.144-.183,1.445-.853,1.686-2.62,1.746-2.132a32.667,32.667,0,0,1-.783,3.594c-.12.67-.542.792-.9,1.035s-.6.061-.542.305.241.609.542.609,1.867-.243,2.288-.3.722-.244,1.505-1.523a5.821,5.821,0,0,0,1.024-3.046A27.743,27.743,0,0,0,178,73.245c0-.122,1.5-7.859,2.167-10.479s1.325-5.482,1.325-5.482l-4.335-2.925Z" fill="#e3b8a9"/>
            <path id="Trazado_604920" data-name="Trazado 604920" d="M168.639,36.316a5.176,5.176,0,0,1,2.573.42,19.011,19.011,0,0,1,2.553,1.247l-1,3.2L167,39.484s.947-2.742,1.636-3.168" fill="#f3ffff"/>
            <path id="Trazado_604921" data-name="Trazado 604921" d="M172.916,24.692a9.5,9.5,0,0,0,7.126-.668l.55-2.683-1.926-1.828-5.9,3.9s.08.55.15,1.28" fill="#d18b72"/>
            <path id="Trazado_604922" data-name="Trazado 604922" d="M177.823,29.26s-2.769,3.168-2.529,6.275.783,11.087,1.024,13.158.662,2.742.6,3.717a2.894,2.894,0,0,1-.422,1.462l-.12,1.218s-.963.183-1.023.914a10.659,10.659,0,0,1-.422,1.949,4.194,4.194,0,0,1-.241.67s2.469-.3,3.492.305a24.993,24.993,0,0,0,2.228,1.462c.542.183.963.305.963.305l1.264-2.254.723-1.584-.6-1.036s-.3-4.752-.482-6.4a7.309,7.309,0,0,1,.3-3.106c.181-.853-.241-2.194.181-3.838s1.505-5.849,1.264-7.25a8.671,8.671,0,0,0-2.348-4.934c-1.565-1.462-1.686-2.194-3.853-1.036" fill="#f3ffff"/>
            <g id="Grupo_162002" data-name="Grupo 162002" opacity="0.5" style="mix-blend-mode: screen;isolation: isolate">
              <g id="Grupo_162001" data-name="Grupo 162001">
                <g id="Grupo_162000" data-name="Grupo 162000" clip-path="url(#clip-path-10)">
                  <path id="Trazado_604923" data-name="Trazado 604923" d="M181.315,49.759c-.424,1.34-.518,4.953-.741,7.475.412-1.132.494-4.835.741-7.475m-7.389-20.753c.04-.043.077-.088.112-.134a6.217,6.217,0,0,0,.805-2.453c.082-.346-1.252.826-1.314.886-.525.5-1.305.862-1.305,1.712a8.472,8.472,0,0,1-.155,1.6c.134-.675,1.443-1.147,1.857-1.608M166.15,39.819a5.061,5.061,0,0,1,.6-.842c.116-.136.244-.277.372-.419l5.348,2.1,1.264-3.107a18.864,18.864,0,0,0-2.438-1.462,6.26,6.26,0,0,0-1.269-.48c.285-.272.543-.518.746-.709A5.187,5.187,0,0,0,171.86,31.4a3.044,3.044,0,0,1-.731,1.21c-.9.853-2.819,2.681-4.023,4.082a3.526,3.526,0,0,0-.956,3.126m8.783,18.134a4.236,4.236,0,0,1-.241.671s.439-.053,1.021-.07a5.483,5.483,0,0,0,.16-.813c.074-.731,1.266-.915,1.266-.915l.149-1.217a2.553,2.553,0,0,0,.522-1.463c.074-.974-.447-1.644-.745-3.716S176.1,40.379,175.8,37.271,178.927,31,178.927,31c1.808-.78,2.466-.7,3.295-.119a6.086,6.086,0,0,0-.546-.582c-1.565-1.462-1.686-2.193-3.853-1.036,0,0-2.77,3.169-2.529,6.276s.783,11.087,1.024,13.158.662,2.742.6,3.716a2.9,2.9,0,0,1-.422,1.462l-.12,1.218s-.963.184-1.024.915a10.638,10.638,0,0,1-.421,1.948" fill="#ed8197"/>
                </g>
              </g>
            </g>
            <path id="Trazado_604924" data-name="Trazado 604924" d="M180.13,18.99c-1.78,3.838-6.558,5.751-8.266,5.034-2.011-.843-2.247-5.345-.563-9.227,2.133-4.918,5.2-6.01,7.637-4.852s2.972,5.207,1.192,9.045" fill="#e3b8a9"/>
            <path id="Trazado_604925" data-name="Trazado 604925" d="M174.533,11.7a31.352,31.352,0,0,1,4.933,2.915c3.225,2.806-1.479,7.875-2.107,10.753a5.13,5.13,0,0,0-.119,2.54,3.757,3.757,0,0,0,1.679,1.974c2.618,1.68,4.15,3.158,4.289,6.662.1,2.44-.439,4.877-.285,7.314a18.253,18.253,0,0,0,.986-11.929,23.68,23.68,0,0,1-.721-2.945c-.282-2.221.466-4.494.65-6.692.216-2.56.479-5.021-.268-7.536-.737-2.482-2.785-5.42-5.515-5.958a2.556,2.556,0,0,0-2.786,1.365c-.06.084-.87,1.472-.736,1.537" fill="#1e2022"/>
            <path id="Trazado_604926" data-name="Trazado 604926" d="M172.727,12.028a31.787,31.787,0,0,1,4.933,2.785c3.225,2.679-1.479,7.521-2.107,10.27a4.689,4.689,0,0,0-.119,2.426,3.632,3.632,0,0,0,1.679,1.885c2.618,1.606,4.15,3.017,4.289,6.364.1,2.331-.439,4.658-.285,6.986a16.714,16.714,0,0,0,.986-11.395,21.72,21.72,0,0,1-.721-2.812c-.415-3.119,1.387-6.005,1.24-9.1-.1-2.154.354-6.145-1-7.968-1.03-1.389-4.964-2.973-6.327-2.382a4.724,4.724,0,0,0-2.571,2.943" fill="#1e2022"/>
            <path id="Trazado_604927" data-name="Trazado 604927" d="M177.654,124.444l-1.156,1.217s-1.387.047-1.85-.8a6.313,6.313,0,0,1-.555-2.152l-1.295,1.871-2.312,1.4-1.665-.234s-.925.375-.647,1.217a3.213,3.213,0,0,0,2.358,1.825,33.206,33.206,0,0,1,3.515.561l3.237,1.03,2.081-.608.324-2.668-1.249-2.9Z" fill="#5479a2"/>
            <path id="Trazado_604928" data-name="Trazado 604928" d="M177.375,129.838l-3.237-1.029a33.1,33.1,0,0,0-3.515-.562,3.213,3.213,0,0,1-2.358-1.825.99.99,0,0,1-.029-.162.84.84,0,0,0-.062.71,3.214,3.214,0,0,0,2.359,1.825,33.151,33.151,0,0,1,3.515.562l3.237,1.029,2.081-.608.065-.541Z" fill="#225287"/>
            <path id="Trazado_604929" data-name="Trazado 604929" d="M189.6,121.689l-.426.509.116,1.721s-.735.821-1.276.86a1.664,1.664,0,0,1-1.005-.313l-.619-.156-.54.7s.192,1.291.231,1.917.155,3.051.155,3.051a18.283,18.283,0,0,0-1.585,1.721,1.193,1.193,0,0,0,.193,1.213,1.426,1.426,0,0,0,1.43.156,19.8,19.8,0,0,0,4.137-4.185c1.392-1.917,3.247-4.342,3.247-4.342a12.44,12.44,0,0,0-2.319-1.761,8.715,8.715,0,0,1-1.739-1.095" fill="#5479a2"/>
            <path id="Trazado_604930" data-name="Trazado 604930" d="M193.214,124.143c-.308.4-1.936,2.54-3.191,4.269a19.86,19.86,0,0,1-4.137,4.186,1.678,1.678,0,0,1-1.231-.009,1.091,1.091,0,0,0,.192.327,1.429,1.429,0,0,0,1.43.157,19.837,19.837,0,0,0,4.136-4.186c1.392-1.917,3.248-4.342,3.248-4.342s-.181-.169-.447-.4" fill="#225287"/>
            <path id="Trazado_604931" data-name="Trazado 604931" d="M234.058,88.092l6.927,34.633H211.917l6.927-34.633Zm0-.99H218.844a.989.989,0,0,0-.965.772l-6.927,34.633a.99.99,0,0,0,.965,1.208h29.068a.99.99,0,0,0,.965-1.208l-6.927-34.633a.989.989,0,0,0-.965-.772"/>
            <rect id="Rectángulo_48091" data-name="Rectángulo 48091" width="70.813" height="4.521" transform="translate(191.044 84.215)" fill="#c9d6df"/>
            <path id="Trazado_604932" data-name="Trazado 604932" d="M218.286,123.948a1.389,1.389,0,0,0-.934-.1,1.442,1.442,0,0,0-.615.687,9.9,9.9,0,0,1-6.513,4.676c-.05.01-.107.026-.126.074s.024.111.068.15c1.176,1.059,3.458.772,4.861.569a3.59,3.59,0,0,0,1.644-.641,12.467,12.467,0,0,0,1.566-1.319,9.969,9.969,0,0,1,1.724-1.517,2.994,2.994,0,0,1,2.191-.485,5.336,5.336,0,0,1,.565,3.02c0,.13-.044.385.033.49a.381.381,0,0,0,.463-.011,20.849,20.849,0,0,1,.644-4.581.348.348,0,0,0-.042-.188c-1.753-.221-3.5-.507-5.254-.762a1.855,1.855,0,0,1-.275-.065" fill="#430f00"/>
            <path id="Trazado_604933" data-name="Trazado 604933" d="M217.6,125.262c-1.715-1.964,2.3-7.014,3.327-8.878,1.9-3.446,3.423-7.486,5.321-10.931,2.526-4.588,3.382-7.951,5.917-12.533,1.546-2.8,6.76-4.873,9.6-5.946,2.569-.972,5.176-1.823,7.767-2.713,3.535-1.215,7.812-3.5,11.483-3.695a4.178,4.178,0,0,1,4.049,2.23,6.329,6.329,0,0,1,.5,2.213c.319,4.053-.346,8.054-3.8,9.519-2.285.97-4.562.307-7.437.355a80.965,80.965,0,0,0-14.9,2.228c-3.2,6.1-4.5,10.394-8.342,16.16-3.173,4.765-5.826,10.128-9.273,14.669a15.48,15.48,0,0,1-3.9-2.407,1.753,1.753,0,0,1-.3-.271" fill="#00523e"/>
            <path id="Trazado_604934" data-name="Trazado 604934" d="M220.558,126.39a1.4,1.4,0,0,0-.934-.1,1.448,1.448,0,0,0-.615.688,9.9,9.9,0,0,1-6.513,4.676c-.049.011-.107.026-.126.074s.024.111.068.15c1.176,1.058,3.458.773,4.861.569a3.6,3.6,0,0,0,1.644-.64,12.553,12.553,0,0,0,1.566-1.319,10.016,10.016,0,0,1,1.724-1.518,2.994,2.994,0,0,1,2.191-.485,5.329,5.329,0,0,1,.564,3.02c0,.131-.043.385.034.49a.38.38,0,0,0,.462-.011,20.892,20.892,0,0,1,.645-4.58.346.346,0,0,0-.042-.188c-1.753-.221-3.5-.507-5.254-.762a1.743,1.743,0,0,1-.275-.066" fill="#430f00"/>
            <path id="Trazado_604935" data-name="Trazado 604935" d="M219.624,126.293c-.682-.683,3.771-6.425,4.76-8.31,1.827-3.484,3.268-7.554,5.1-11.038,2.433-4.638,3.22-8.018,5.66-12.651,1.489-2.828,6.659-5.011,9.472-6.142,2.548-1.024,5.137-1.928,7.709-2.871,3.51-1.287,7.739-3.662,11.406-3.929a4.177,4.177,0,0,1,4.093,2.147,6.332,6.332,0,0,1,.549,2.2c.4,4.046-.181,8.059-3.6,9.6-2.264,1.016-4.555.4-7.428.506a81.05,81.05,0,0,0-14.857,2.533c-3.077,6.168-4.289,10.485-8.009,16.328-3.075,4.829-5.618,10.245-8.971,14.855a15.439,15.439,0,0,1-3.953-2.327c-.117-.079-1.83-.806-1.922-.9" fill="#2d7063"/>
            <path id="Trazado_604936" data-name="Trazado 604936" d="M212.2,60.87a9.147,9.147,0,0,1,3.294-6.75,1.51,1.51,0,0,1,.78-.424.355.355,0,0,1,.354.185,16.71,16.71,0,0,1,2.537,11.75A24.094,24.094,0,0,1,218.475,69c-.144.516-.481,2.959-1.256,3.4-1.395.79-3.245-3.864-3.506-4.446a15.61,15.61,0,0,1-1.515-7.08" fill="#2d7063"/>
            <g id="Grupo_162005" data-name="Grupo 162005" style="mix-blend-mode: multiply;isolation: isolate">
              <g id="Grupo_162004" data-name="Grupo 162004">
                <g id="Grupo_162003" data-name="Grupo 162003" clip-path="url(#clip-path-11)">
                  <path id="Trazado_604937" data-name="Trazado 604937" d="M219.163,65.631a17.252,17.252,0,0,0-1.4-9.759,8.964,8.964,0,0,0-2.547,6.015,15.626,15.626,0,0,0,1.515,7.08c.118.263.563,1.36,1.143,2.409a21.191,21.191,0,0,0,.6-2.377,24.064,24.064,0,0,0,.688-3.368" fill="#6fb589"/>
                </g>
              </g>
            </g>
            <path id="Trazado_604938" data-name="Trazado 604938" d="M215.516,62.845a6.969,6.969,0,0,1,3.052-4.838,1.151,1.151,0,0,1,.625-.257.27.27,0,0,1,.253.17,12.724,12.724,0,0,1,.949,9.105,18.16,18.16,0,0,1-.8,2.493c-.151.379-.609,2.2-1.231,2.468-1.122.483-2.138-3.193-2.288-3.656a11.891,11.891,0,0,1-.561-5.485" fill="#2d7063"/>
            <g id="Grupo_162008" data-name="Grupo 162008" style="mix-blend-mode: multiply;isolation: isolate">
              <g id="Grupo_162007" data-name="Grupo 162007">
                <g id="Grupo_162006" data-name="Grupo 162006" clip-path="url(#clip-path-12)">
                  <path id="Trazado_604939" data-name="Trazado 604939" d="M220.4,67.025a13.135,13.135,0,0,0-.251-7.5,6.831,6.831,0,0,0-2.425,4.343,11.9,11.9,0,0,0,.562,5.486c.068.209.314,1.076.666,1.918a16.178,16.178,0,0,0,.649-1.75,18.3,18.3,0,0,0,.8-2.493" fill="#6fb589"/>
                </g>
              </g>
            </g>
            <path id="Trazado_604940" data-name="Trazado 604940" d="M207.685,68.239a5.563,5.563,0,0,1-.529-4.534.923.923,0,0,1,.26-.473.217.217,0,0,1,.242-.021,10.159,10.159,0,0,1,5.152,5.179,14.607,14.607,0,0,1,.753,1.949c.1.311.724,1.672.472,2.15-.455.862-2.928-.912-3.253-1.125a9.492,9.492,0,0,1-3.1-3.125" fill="#2d7063"/>
            <g id="Grupo_162011" data-name="Grupo 162011" style="mix-blend-mode: multiply;isolation: isolate">
              <g id="Grupo_162010" data-name="Grupo 162010">
                <g id="Grupo_162009" data-name="Grupo 162009" clip-path="url(#clip-path-13)">
                  <path id="Trazado_604941" data-name="Trazado 604941" d="M212.81,68.39a10.486,10.486,0,0,0-3.916-4.535,5.449,5.449,0,0,0,.671,3.913,9.491,9.491,0,0,0,3.1,3.125c.147.1.734.511,1.375.858a13.061,13.061,0,0,0-.474-1.412,14.607,14.607,0,0,0-.753-1.949" fill="#6fb589"/>
                </g>
              </g>
            </g>
            <path id="Trazado_604942" data-name="Trazado 604942" d="M221.339,66.247a5.56,5.56,0,0,1,4.545-.427.9.9,0,0,1,.466.27.213.213,0,0,1,.016.242,10.151,10.151,0,0,1-5.293,5.035,14.534,14.534,0,0,1-1.965.709c-.313.089-1.687.687-2.16.424-.851-.474.978-2.907,1.2-3.226a9.494,9.494,0,0,1,3.194-3.027" fill="#2d7063"/>
            <g id="Grupo_162014" data-name="Grupo 162014" style="mix-blend-mode: multiply;isolation: isolate">
              <g id="Grupo_162013" data-name="Grupo 162013">
                <g id="Grupo_162012" data-name="Grupo 162012" clip-path="url(#clip-path-14)">
                  <path id="Trazado_604943" data-name="Trazado 604943" d="M221.073,71.367a10.481,10.481,0,0,0,4.621-3.813,5.444,5.444,0,0,0-3.926.582,9.494,9.494,0,0,0-3.194,3.027c-.1.145-.527.723-.888,1.356a12.813,12.813,0,0,0,1.422-.443,14.534,14.534,0,0,0,1.965-.709" fill="#6fb589"/>
                </g>
              </g>
            </g>
            <path id="Trazado_604944" data-name="Trazado 604944" d="M210.154,65.025a6.965,6.965,0,0,1,1.116-5.61,1.144,1.144,0,0,1,.492-.464.27.27,0,0,1,.3.068,12.725,12.725,0,0,1,4.148,8.16,18.237,18.237,0,0,1,.147,2.615c-.006.407.22,2.271-.265,2.745-.874.852-3.14-2.216-3.445-2.594a11.887,11.887,0,0,1-2.49-4.92" fill="#2d7063"/>
            <g id="Grupo_162017" data-name="Grupo 162017" style="mix-blend-mode: multiply;isolation: isolate">
              <g id="Grupo_162016" data-name="Grupo 162016">
                <g id="Grupo_162015" data-name="Grupo 162015" clip-path="url(#clip-path-15)">
                  <path id="Trazado_604945" data-name="Trazado 604945" d="M216.207,67.18a13.135,13.135,0,0,0-2.922-6.916,6.825,6.825,0,0,0-.708,4.924,11.885,11.885,0,0,0,2.489,4.92c.138.171.679.892,1.31,1.552a16.224,16.224,0,0,0-.022-1.866,18.223,18.223,0,0,0-.147-2.614" fill="#6fb589"/>
                </g>
              </g>
            </g>
            <path id="Trazado_604946" data-name="Trazado 604946" d="M218.678,63.272a6.968,6.968,0,0,1,4.353-3.711,1.154,1.154,0,0,1,.674-.059.273.273,0,0,1,.191.238,12.723,12.723,0,0,1-1.8,8.975,18.247,18.247,0,0,1-1.5,2.142c-.257.317-1.235,1.919-1.909,1.99-1.215.127-1.091-3.685-1.1-4.171a11.9,11.9,0,0,1,1.1-5.4" fill="#2d7063"/>
            <g id="Grupo_162020" data-name="Grupo 162020" style="mix-blend-mode: multiply;isolation: isolate">
              <g id="Grupo_162019" data-name="Grupo 162019">
                <g id="Grupo_162018" data-name="Grupo 162018" clip-path="url(#clip-path-16)">
                  <path id="Trazado_604947" data-name="Trazado 604947" d="M222.093,68.715a13.136,13.136,0,0,0,1.994-7.239,6.827,6.827,0,0,0-3.608,3.425,11.9,11.9,0,0,0-1.1,5.4c0,.22-.02,1.121.065,2.03a15.938,15.938,0,0,0,1.14-1.478,18.163,18.163,0,0,0,1.505-2.142" fill="#6fb589"/>
                </g>
              </g>
            </g>
            <path id="Trazado_604948" data-name="Trazado 604948" d="M220.1,84.033h-7.031l-2.314-12.985h11.659Z" fill="#430f00"/>
            <g id="Grupo_162023" data-name="Grupo 162023" style="mix-blend-mode: multiply;isolation: isolate">
              <g id="Grupo_162022" data-name="Grupo 162022">
                <g id="Grupo_162021" data-name="Grupo 162021" clip-path="url(#clip-path-17)">
                  <path id="Trazado_604949" data-name="Trazado 604949" d="M221.908,73.878l.28-1.57h-11.21l.28,1.57Z" fill="#635672"/>
                </g>
              </g>
            </g>
            <rect id="Rectángulo_48099" data-name="Rectángulo 48099" width="12.822" height="1.57" transform="translate(210.172 71.022)" fill="#430f00"/>
            <path id="Trazado_604950" data-name="Trazado 604950" d="M270.676,96.985l7.778,38.892H245.813l7.779-38.892Zm0-1.111H253.592a1.111,1.111,0,0,0-1.084.866l-7.779,38.892a1.112,1.112,0,0,0,1.084,1.356h32.641a1.112,1.112,0,0,0,1.084-1.356L271.76,96.74a1.112,1.112,0,0,0-1.084-.866"/>
            <path id="Trazado_604951" data-name="Trazado 604951" d="M274.079,100.18h-23.89a2.083,2.083,0,1,1,0-4.167h23.89a2.083,2.083,0,0,1,0,4.167" fill="#52616b"/>
            <path id="Trazado_604952" data-name="Trazado 604952" d="M274.5,96.985h-3.472V51.774a1.736,1.736,0,0,1,3.472,0Z" fill="#52616b"/>
            <path id="Trazado_604953" data-name="Trazado 604953" d="M256.417,41.329s.585,7.488.585,9.478-5.847,10.408-5.85,10.413c.166-.24,7.5,3.119,8.064,3.355,1.567.652,3.752,2.212,5.3,2.552,2.1.461,2.818-2.882,3.414-4.743a16.947,16.947,0,0,0,.644-7.445c-.465-3.38-3.808-4.188-6.776-4.6l-.117-6.319Z" fill="#e3b8a9"/>
            <path id="Trazado_604954" data-name="Trazado 604954" d="M256.886,52.172c-1.054,1.5-2.048,3.059-3.032,4.609-.878,1.383-2.7,3.462-2.852,5.161-.117,1.287.785,3.615,1.136,4.9s-.451,10.8-.685,12.675-1,7.559-1,7.559a10.345,10.345,0,0,0,5.5.819c3.89-.417,7.776-2.085,11.355-3.579a1.123,1.123,0,0,0,.456-.284,1.135,1.135,0,0,0,.064-1l-.855-3.445a4.013,4.013,0,0,0-.326-.954,5.227,5.227,0,0,1-.639-1.1c-.152-.586.179-1.244-.066-1.8-.287-.647-1.159-.864-1.311-1.6a8.609,8.609,0,0,1,.427-2.914c.235-1.159.505-2.316.841-3.45l-.936-5.383s-1.977-.983-2.211-2.5-.292-4.9,1.931-6.423,2.794-1.187,2.794-1.187l-1.461-.767c-.812-.427-2.6.813-3.172,1.191-1.532,1.006-3,2.513-4.943,2.581a1.626,1.626,0,0,1-.573-.064,1.42,1.42,0,0,1-.855-1.291,3.755,3.755,0,0,1,.417-1.754" fill="#7ee6da"/>
            <path id="Trazado_604955" data-name="Trazado 604955" d="M239.536,82.418l-8.285-7.572L226.8,76.825l8.536,8.536Z" fill="#52616b"/>
            <path id="Trazado_604956" data-name="Trazado 604956" d="M237.647,81.242l-6.1-5.579-3.281,1.458,6.289,6.289Z" fill="#c8cdd0"/>
            <path id="Trazado_604957" data-name="Trazado 604957" d="M249.717,80.445a5.475,5.475,0,0,1,.05-2.738c.293-.639,2.223-1.354,2.284-1.955-.045.443.251,2.3.219,2.546-.088.678.347,1.57.439,2.971-.7.229-2.505,1.812-2.752.487-.066-.349-.161-.813-.24-1.311" fill="#7ee6da"/>
            <path id="Trazado_604958" data-name="Trazado 604958" d="M227.24,76.629l8.448,8.448,3.826-2.679.022.02-4.2,2.943L226.8,76.826Z" fill="#384a55"/>
            <path id="Trazado_604959" data-name="Trazado 604959" d="M238.04,83.357c.418.056,1.345-1,1.345-1l-.713-.783a7.992,7.992,0,0,1,2.764-.841,19.545,19.545,0,0,0,4.371-.364,30.285,30.285,0,0,0,4.343-2.885c-.053.477-.1.873-.137,1.135a25.453,25.453,0,0,0,.006,3.7c-.659.213-1.319.424-1.978.639-.874.285-1.746.572-2.617.867q-.508.171-1.014.35a3.27,3.27,0,0,1-1.515.1,12.994,12.994,0,0,0-2.8-.341c-.426.039-.761.256-1.2.267a4.121,4.121,0,0,1-1.141-.155c-.506-.133-.13-.738.288-.682" fill="#d4937c"/>
            <path id="Trazado_604960" data-name="Trazado 604960" d="M236.809,82.757a.321.321,0,1,0,.319-.355.339.339,0,0,0-.319.355" fill="#384a55"/>
            <g id="Grupo_162026" data-name="Grupo 162026" opacity="0.5" style="mix-blend-mode: multiply;isolation: isolate">
              <g id="Grupo_162025" data-name="Grupo 162025">
                <g id="Grupo_162024" data-name="Grupo 162024" clip-path="url(#clip-path-18)">
                  <path id="Trazado_604961" data-name="Trazado 604961" d="M262.395,82.237s-.692,8.232-.808,9.108a15.792,15.792,0,0,1-1.5,3.445c-.288.525-1.789,4.32-1.615,4.5s1.1-.175,1.384-.817,1.616-2.511,1.674-2.044a31.415,31.415,0,0,1-.751,3.445c-.115.642-.519.759-.865.992s-.577.059-.519.292.23.584.519.584,1.789-.233,2.193-.292.692-.233,1.442-1.459a5.579,5.579,0,0,0,.981-2.92,26.567,26.567,0,0,0-.462-2.86c0-.117,1.443-7.532,2.077-10.042s1.27-5.255,1.27-5.255l-4.155-2.8Z" fill="#d18b72"/>
                </g>
              </g>
            </g>
            <path id="Trazado_604962" data-name="Trazado 604962" d="M262.859,82.08s-.692,8.232-.808,9.108a15.79,15.79,0,0,1-1.5,3.445c-.289.525-1.789,4.32-1.616,4.495s1.1-.175,1.385-.817,1.616-2.511,1.673-2.044a31.171,31.171,0,0,1-.75,3.445c-.115.642-.519.759-.865.992s-.577.059-.519.292.23.584.519.584,1.789-.233,2.192-.292.693-.233,1.443-1.459a5.579,5.579,0,0,0,.981-2.919,26.6,26.6,0,0,0-.462-2.861c0-.117,1.443-7.532,2.077-10.042s1.27-5.255,1.27-5.255l-4.155-2.8Z" fill="#e3b8a9"/>
            <g id="Grupo_162029" data-name="Grupo 162029" opacity="0.5" style="mix-blend-mode: multiply;isolation: isolate">
              <g id="Grupo_162028" data-name="Grupo 162028">
                <g id="Grupo_162027" data-name="Grupo 162027" clip-path="url(#clip-path-19)">
                  <path id="Trazado_604963" data-name="Trazado 604963" d="M263.725,52.258s-2.654,3.036-2.423,6.014.75,10.626.981,12.611.634,2.627.577,3.561a2.779,2.779,0,0,1-.4,1.4l-.116,1.168s-.923.175-.981.876a10.121,10.121,0,0,1-.4,1.868,4.1,4.1,0,0,1-.23.642s2.365-.292,3.346.292a23.8,23.8,0,0,0,2.135,1.4c.519.176.923.292.923.292l1.212-2.16.692-1.518-.577-.992s-.288-4.554-.461-6.131a6.992,6.992,0,0,1,.288-2.977c.173-.818-.231-2.1.173-3.679s1.443-5.6,1.212-6.947a8.309,8.309,0,0,0-2.25-4.729c-1.5-1.4-1.616-2.1-3.693-.993" fill="#d18b72"/>
                </g>
              </g>
            </g>
            <path id="Trazado_604964" data-name="Trazado 604964" d="M264.359,51.9s-2.654,3.036-2.423,6.014.75,10.625.981,12.611.634,2.627.577,3.561a2.779,2.779,0,0,1-.4,1.4l-.116,1.168s-.923.175-.981.876a10.123,10.123,0,0,1-.4,1.868,4.1,4.1,0,0,1-.23.642s2.365-.292,3.346.292a23.8,23.8,0,0,0,2.135,1.4c.519.175.923.292.923.292l1.212-2.16.692-1.518-.577-.993s-.288-4.553-.461-6.13a6.992,6.992,0,0,1,.288-2.977c.173-.818-.231-2.1.173-3.679s1.443-5.605,1.212-6.947a8.314,8.314,0,0,0-2.25-4.73c-1.5-1.4-1.616-2.1-3.693-.992" fill="#a8eee6"/>
            <g id="Grupo_162032" data-name="Grupo 162032" style="mix-blend-mode: multiply;isolation: isolate">
              <g id="Grupo_162031" data-name="Grupo 162031">
                <g id="Grupo_162030" data-name="Grupo 162030" clip-path="url(#clip-path-20)">
                  <path id="Trazado_604965" data-name="Trazado 604965" d="M252.661,43.222c.114,9.081,1.708,8.308,4.267,7.342a8.119,8.119,0,0,0,5.328-7.342c0-3.78-3.451-7.388-6.1-7.388s-3.552,2.845-3.5,7.388" fill="#c56c4d"/>
                </g>
              </g>
            </g>
            <path id="Trazado_604966" data-name="Trazado 604966" d="M253.44,41.343c.391,3.76,2.11,7.318,4.725,6.9,3-.485,3.7-2.976,3.743-6.756s-.967-5.931-3.617-5.959-5.321,1.3-4.851,5.82" fill="#e3b8a9"/>
            <path id="Trazado_604967" data-name="Trazado 604967" d="M254.393,37.592a2.716,2.716,0,0,1,.714-.555,2.851,2.851,0,0,1,3.512.765,4.837,4.837,0,0,1,.724,1.665c.932,3.391.929,6.934,1.352,10.4a19.866,19.866,0,0,0,3.6,9.29,20.357,20.357,0,0,0,2.115,2.562c.573.6,1.421.914,1.965,1.533.185.21,1.018,1.691.428,1.905a3.237,3.237,0,0,0,1.834-2.028,7.866,7.866,0,0,0,.314-2.794,29.161,29.161,0,0,0-2.529-11.167c-.464-1.036-.99-2.047-1.36-3.121-.867-2.517-.483-5.107-1.041-7.639a7.993,7.993,0,0,0-3.933-5.57c-2.312-1.137-5.768-.89-7.562,1.082a8.164,8.164,0,0,0-1.865,4.819A39.429,39.429,0,0,0,252.775,44a26.8,26.8,0,0,1-.258,6.619c-.336,1.577-.268,3.2-.66,4.76a24.921,24.921,0,0,0-.765,6.926c.861-3.253,4.331-5.875,5.511-9.026a7.214,7.214,0,0,0-.349-5.08c-.631-1.617-1.552-3.11-2.176-4.73-.63-1.637-1.026-4.412.315-5.875" fill="#430f00"/>
          </g>
        </g>
      </g>
    </g>
  </g>
</svg>
