<svg xmlns="http://www.w3.org/2000/svg" xmlns:xlink="http://www.w3.org/1999/xlink" width="1030" height="414" viewBox="0 0 1030 414">
  <defs>
    <clipPath id="clip-path">
      <rect id="Rectángulo_46628" data-name="Rectángulo 46628" width="26.669" height="34.92" fill="#144567"/>
    </clipPath>
    <clipPath id="clip-path-3">
      <rect id="Rectángulo_48121" data-name="Rectángulo 48121" width="130.943" height="212.77" fill="none"/>
    </clipPath>
    <clipPath id="clip-path-5">
      <rect id="Rectángulo_48111" data-name="Rectángulo 48111" width="15.972" height="18.641" fill="none"/>
    </clipPath>
    <clipPath id="clip-path-6">
      <rect id="Rectángulo_48112" data-name="Rectángulo 48112" width="30.962" height="58.889" fill="none"/>
    </clipPath>
    <clipPath id="clip-path-7">
      <rect id="Rectángulo_48113" data-name="Rectángulo 48113" width="21.934" height="30.367" fill="none"/>
    </clipPath>
    <clipPath id="clip-path-8">
      <rect id="Rectángulo_48114" data-name="Rectángulo 48114" width="12.119" height="81.865" fill="none"/>
    </clipPath>
    <clipPath id="clip-path-9">
      <rect id="Rectángulo_48115" data-name="Rectángulo 48115" width="33.947" height="70.985" fill="none"/>
    </clipPath>
    <clipPath id="clip-path-10">
      <rect id="Rectángulo_48116" data-name="Rectángulo 48116" width="13.256" height="10.381" fill="none"/>
    </clipPath>
    <clipPath id="clip-path-11">
      <rect id="Rectángulo_48117" data-name="Rectángulo 48117" width="43.075" height="15.196" fill="none"/>
    </clipPath>
    <clipPath id="clip-path-12">
      <rect id="Rectángulo_48118" data-name="Rectángulo 48118" width="10.161" height="13.939" fill="none"/>
    </clipPath>
    <clipPath id="clip-path-13">
      <rect id="Rectángulo_48119" data-name="Rectángulo 48119" width="9.306" height="14.835" fill="none"/>
    </clipPath>
    <clipPath id="clip-path-14">
      <rect id="Rectángulo_48123" data-name="Rectángulo 48123" width="53.472" height="53.484" fill="#fff"/>
    </clipPath>
    <clipPath id="clip-path-15">
      <rect id="Rectángulo_48125" data-name="Rectángulo 48125" width="54.328" height="54.314" fill="#fff"/>
    </clipPath>
  </defs>
  <g id="Grupo_162078" data-name="Grupo 162078" transform="translate(-285 -3675)">
    <g id="Rectángulo_48128" data-name="Rectángulo 48128" transform="translate(651 3778)" fill="#e2e8ec" stroke="#144567" stroke-width="2">
      <rect width="298" height="246" stroke="none"/>
      <rect x="1" y="1" width="296" height="244" fill="none"/>
    </g>
    <rect id="Rectángulo_48105" data-name="Rectángulo 48105" width="400" height="211" transform="translate(306 3848)" fill="#fff"/>
    <rect id="Rectángulo_48106" data-name="Rectángulo 48106" width="400" height="211" transform="translate(894 3743)" fill="#fff"/>
    <text id="Las_pruebas_sustantivas_Son_realizadas_por_el_auditor_con_el_objeto_de_validar_las_evidencias_soportadas_en_la_auditoría._" data-name="Las pruebas sustantivas 

Son realizadas por el auditor, con el objeto de validar las evidencias soportadas en la auditoría. " transform="translate(359 3896)" fill="#144567" font-size="17" font-family="Roboto-Bold, Roboto" font-weight="700"><tspan x="0" y="16">Las pruebas sustantivas</tspan><tspan y="16" font-family="Roboto-Regular, Roboto" font-weight="400"> </tspan><tspan fill="#12263f" font-family="Roboto-Regular, Roboto" font-weight="400"><tspan x="0" y="40"></tspan><tspan x="0" y="64">Son realizadas por el auditor, con el </tspan><tspan x="0" y="88">objeto de validar las evidencias </tspan><tspan x="0" y="112">soportadas en la auditoría. </tspan></tspan></text>
    <text id="Las_pruebas_de_control_Son_realizadas_por_los_auditores_con_la_finalidad_de_obtener_evidencias_sobre_los_criterios_auditados_del_sistema_de_gestión_de_la_calidad._" data-name="Las pruebas de control 

Son realizadas por los auditores con la finalidad de obtener evidencias sobre los criterios auditados del sistema de gestión de la calidad. " transform="translate(947 3779)" fill="#144567" font-size="17" font-family="Roboto-Bold, Roboto" font-weight="700"><tspan x="0" y="16">Las pruebas de control</tspan><tspan y="16" font-family="Roboto-Regular, Roboto" font-weight="400"> </tspan><tspan fill="#12263f" font-family="Roboto-Regular, Roboto" font-weight="400"><tspan x="0" y="40"></tspan><tspan x="0" y="64">Son realizadas por los auditores con la </tspan><tspan x="0" y="88">finalidad de obtener evidencias sobre </tspan><tspan x="0" y="112">los criterios auditados del sistema de </tspan><tspan x="0" y="136">gestión de la calidad. </tspan></tspan></text>
    <rect id="Rectángulo_48107" data-name="Rectángulo 48107" width="210" height="7" transform="translate(1105 3941)" fill="#91e8d6"/>
    <rect id="Rectángulo_48110" data-name="Rectángulo 48110" width="210" height="7" transform="translate(285 4042)" fill="#91e8d6"/>
    <path id="Trazado_604968" data-name="Trazado 604968" d="M9431-7832.219l-21-12.586,19.308-9.576,1.692,3.557Z" transform="translate(-9125 11712)" fill="#727997"/>
    <path id="Trazado_604969" data-name="Trazado 604969" d="M9410-7832.219l21-12.586-19.308-9.576-1.692,3.557Z" transform="translate(-8116 11607)" fill="#727997"/>
    <path id="Rectángulo_48108" data-name="Rectángulo 48108" d="M0,0H98a37,37,0,0,1,37,37v0A37,37,0,0,1,98,74H0a0,0,0,0,1,0,0V0A0,0,0,0,1,0,0Z" transform="translate(285 3794)" fill="#144567"/>
    <path id="Rectángulo_48109" data-name="Rectángulo 48109" d="M37,0h98a0,0,0,0,1,0,0V74a0,0,0,0,1,0,0H37A37,37,0,0,1,0,37v0A37,37,0,0,1,37,0Z" transform="translate(1180 3689)" fill="#144567"/>
    <g id="Grupo_162039" data-name="Grupo 162039" transform="translate(617.92 3833.84) rotate(180)">
      <g id="Grupo_161926" data-name="Grupo 161926" transform="translate(34.92 26.67) rotate(180)">
        <g id="Grupo_160582" data-name="Grupo 160582" transform="translate(0 0)">
          <g id="Grupo_160578" data-name="Grupo 160578" transform="translate(34.92 0) rotate(90)">
            <g id="Grupo_160577" data-name="Grupo 160577" transform="translate(0 0)" clip-path="url(#clip-path)">
              <path id="Trazado_600822" data-name="Trazado 600822" d="M2.609,34.92A2.609,2.609,0,0,1,.764,30.466L13.77,17.46.764,4.453A2.609,2.609,0,0,1,4.454.764L19.3,15.615a2.609,2.609,0,0,1,0,3.69L4.454,34.156a2.6,2.6,0,0,1-1.845.764" transform="translate(6.601 0)" fill="#144567"/>
            </g>
          </g>
        </g>
        <path id="Trazado_600829" data-name="Trazado 600829" d="M1.848,24.74A1.848,1.848,0,0,1,.541,21.585L9.756,12.37.541,3.155A1.848,1.848,0,0,1,3.155.541L13.677,11.063a1.849,1.849,0,0,1,0,2.614L3.155,24.2a1.845,1.845,0,0,1-1.307.541" transform="translate(29.931 0) rotate(90)" fill="#144567"/>
      </g>
    </g>
    <g id="Grupo_162040" data-name="Grupo 162040" transform="translate(985.08 3966.16)">
      <g id="Grupo_161926-2" data-name="Grupo 161926" transform="translate(34.92 26.67) rotate(180)">
        <g id="Grupo_160582-2" data-name="Grupo 160582" transform="translate(0 0)">
          <g id="Grupo_160578-2" data-name="Grupo 160578" transform="translate(34.92 0) rotate(90)">
            <g id="Grupo_160577-2" data-name="Grupo 160577" transform="translate(0 0)" clip-path="url(#clip-path)">
              <path id="Trazado_600822-2" data-name="Trazado 600822" d="M2.609,34.92A2.609,2.609,0,0,1,.764,30.466L13.77,17.46.764,4.453A2.609,2.609,0,0,1,4.454.764L19.3,15.615a2.609,2.609,0,0,1,0,3.69L4.454,34.156a2.6,2.6,0,0,1-1.845.764" transform="translate(6.601 0)" fill="#144567"/>
            </g>
          </g>
        </g>
        <path id="Trazado_600829-2" data-name="Trazado 600829" d="M1.848,24.74A1.848,1.848,0,0,1,.541,21.585L9.756,12.37.541,3.155A1.848,1.848,0,0,1,3.155.541L13.677,11.063a1.849,1.849,0,0,1,0,2.614L3.155,24.2a1.845,1.845,0,0,1-1.307.541" transform="translate(29.931 0) rotate(90)" fill="#144567"/>
      </g>
    </g>
    <path id="Trazado_604970" data-name="Trazado 604970" d="M5624-7627.4v74.728" transform="translate(6224.459 -3809.67) rotate(180)" fill="none" stroke="#144567" stroke-width="4"/>
    <path id="Trazado_604971" data-name="Trazado 604971" d="M5624-7627.4v74.728" transform="translate(-4621.459 11609.67)" fill="none" stroke="#144567" stroke-width="4"/>
    <g id="Grupo_162071" data-name="Grupo 162071" transform="translate(730.028 3795)">
      <g id="Grupo_162070" data-name="Grupo 162070" clip-path="url(#clip-path-3)">
        <g id="Grupo_162069" data-name="Grupo 162069">
          <g id="Grupo_162068" data-name="Grupo 162068" clip-path="url(#clip-path-3)">
            <path id="Trazado_604972" data-name="Trazado 604972" d="M25.546,108.195a2.432,2.432,0,0,0-1.625-.17,2.507,2.507,0,0,0-1.071,1.2,17.237,17.237,0,0,1-11.335,8.138c-.086.016-.186.044-.219.128s.042.192.119.261c2.047,1.842,6.017,1.343,8.46.991a6.259,6.259,0,0,0,2.862-1.117,21.731,21.731,0,0,0,2.723-2.3,17.436,17.436,0,0,1,3-2.641,5.216,5.216,0,0,1,3.814-.843c1.018,1.5.969,3.445.981,5.256,0,.227-.077.669.058.852a.661.661,0,0,0,.8-.02,36.377,36.377,0,0,1,1.122-7.972.607.607,0,0,0-.073-.325c-3.05-.386-6.1-.885-9.144-1.327a3.358,3.358,0,0,1-.479-.113" transform="translate(9.341 89.331)" fill="#430f00"/>
            <path id="Trazado_604973" data-name="Trazado 604973" d="M13.958,55.064s.133,5.874.991,13.97.026,31.644,1.177,36.558,2.047,3.339,2.584,5.362-1.325,5.6-.93,7.164,1.018,5.755,2.553,10.948A26.26,26.26,0,0,1,21.661,139.6c-.048,1.4-.42,3.05-.031,4.4a9.881,9.881,0,0,1,.309,1.06c.252,1.543-.345,3.619-.6,5.145a18.162,18.162,0,0,0-.406,2.217c3.255.881,6.947,1.022,10.326,1.418.775.091,1.712.111,2.157-.532a2.17,2.17,0,0,0,.276-1.146,306.589,306.589,0,0,0-1.117-41.8c-.228-2.617-1.051-5.545-.782-7.223s2.74-18.492,3.107-20.8,5.037-24.794,5.037-24.794Z" transform="translate(11.552 45.573)" fill="#225287"/>
            <path id="Trazado_604974" data-name="Trazado 604974" d="M35.636,107.776a2.769,2.769,0,0,0-1.855-.194,2.851,2.851,0,0,0-1.219,1.365,19.659,19.659,0,0,1-12.931,9.283c-.1.02-.214.053-.25.146-.044.11.048.221.133.3,2.336,2.1,6.865,1.533,9.652,1.129a7.114,7.114,0,0,0,3.264-1.272,24.861,24.861,0,0,0,3.109-2.621,19.981,19.981,0,0,1,3.423-3.012,5.946,5.946,0,0,1,4.35-.961c1.162,1.709,1.108,3.929,1.12,6,0,.258-.088.764.068.972a.755.755,0,0,0,.917-.022,41.426,41.426,0,0,1,1.279-9.1.681.681,0,0,0-.084-.373c-3.48-.439-6.956-1.007-10.43-1.511a3.757,3.757,0,0,1-.546-.13" transform="translate(16.031 88.954)" fill="#430f00"/>
            <path id="Trazado_604975" data-name="Trazado 604975" d="M17.019,59.16S18.163,67.41,20,75.433Q22.5,86.314,25.218,97.14c.83,3.286,1.661,6.576,2.623,9.825,1.215,4.112-.219,8.429,1.541,12.5a13.064,13.064,0,0,1,.928,2.3c.272,1.219-.029,2.528.338,3.723a18.828,18.828,0,0,0,1.067,2.162c1.084,2.383.334,5.145.249,7.76a15.024,15.024,0,0,0,2.4,8.619,5.835,5.835,0,0,1,1.274,2.754c.106,2.533-1.234,5.194-1.19,7.855.033,2.023,6.576,2.058,8.276,2.431,1.188.261,4.649,1.828,5.816,1.362,1.451-.581.334-3.58.492-4.946.632-5.51,1.385-11.169-.037-16.56-.3-1.14-1.082-2.9-.689-4.1.488-1.486-2.094-18.134-2.639-20.735s-1.725-5.439-1.659-7.157.19-34.04.387-36.394c.338-4.048-.61-6.353-2.285-10.906a25.809,25.809,0,0,1-1.583-5.967Z" transform="translate(14.086 42.769)" fill="#5479a2"/>
            <path id="Trazado_604976" data-name="Trazado 604976" d="M22.825,22.514s-7.881,6.062-8.791,8.184-.757,10.759-.757,10.759L23.583,24.484Z" transform="translate(10.981 18.633)" fill="#e3b8a9"/>
            <path id="Trazado_604977" data-name="Trazado 604977" d="M28.762,32.627q-3.753,5.39-7.618,10.7c-1.793,2.465-3.6,4.925-5.487,7.32-.642.811-1.285,1.632-1.99,2.391a11.858,11.858,0,0,1-3.562,2.188l-1.8.921A25.968,25.968,0,0,0,4.023,58.7,8.709,8.709,0,0,0,1.046,62.62c1.343-1.086,3.122-3.12,4.931-3.357a42.251,42.251,0,0,0-3.9,3.281C1.574,63.008.4,63.682.1,64.294c-.36.729.351,1.893.6,2.6l5.346-2.065c1.215-.47,2.433-.939,3.617-1.486a30.474,30.474,0,0,0,4.266-2.405c1.188-.8,2.142-1.826,3.282-2.656,2.363-1.718,4.763-3.387,7.153-5.064Z" transform="translate(-0.001 27.003)" fill="#d4937c"/>
            <path id="Trazado_604978" data-name="Trazado 604978" d="M18.521,25.231s7.682-1.049,10.125.172,2.988-.543,2.988-.543-1.2-4.735-3.105-5.413-8.049.506-9,1.729-1.009,4.056-1.009,4.056" transform="translate(15.329 15.931)" fill="#225287"/>
            <path id="Trazado_604979" data-name="Trazado 604979" d="M23.675,12.042s1.967,10.273.035,17.207c-.97,3.478-10.458,18.187-10.458,18.187L40.668,59.2s-.85,7.859.85,12.32,7.009,20.179,7.009,22.94,3.187,14.658,4.037,15.719.424-7.223.424-7.223l3.186,4.461.839,3.769a.556.556,0,0,0,1.073.053,39.544,39.544,0,0,0,1.488-5.521c.212-1.912-4.885-7.435-5.311-9.984s-2.548-19.755-3.4-24.214-2.338-29.313-2.338-29.313-1.062-7.159-6.062-10.343A28.454,28.454,0,0,0,33.446,28.4l.38-13.583Z" transform="translate(10.968 9.966)" fill="#e3b8a9"/>
            <g id="Grupo_162043" data-name="Grupo 162043" transform="translate(34.925 23.355)" style="mix-blend-mode: multiply;isolation: isolate">
              <g id="Grupo_162042" data-name="Grupo 162042">
                <g id="Grupo_162041" data-name="Grupo 162041" clip-path="url(#clip-path-5)">
                  <path id="Trazado_604980" data-name="Trazado 604980" d="M28.978,14.2,23.826,12.8a18.751,18.751,0,0,0-4.717.376c.409,2.858,1.033,8.723.163,13.632a18.962,18.962,0,0,0,3.637,2.31c5.454,2.645,9.577,3.16,12.172.769a29.989,29.989,0,0,0-6.483-2.1Z" transform="translate(-19.109 -12.778)" fill="#e3b8a9"/>
                </g>
              </g>
            </g>
            <path id="Trazado_604981" data-name="Trazado 604981" d="M15.552,18.642c.854,7.459,5.678,14.226,9.526,13.592,2.959-.486,7.292-5.986,7.292-13.493S30.325,6.984,25.063,6.984,14.525,9.678,15.552,18.642" transform="translate(12.765 5.78)" fill="#e3b8a9"/>
            <path id="Trazado_604982" data-name="Trazado 604982" d="M27.911,22.514s-8.7,5.889-8.976,7.519S18.12,37.5,18.12,37.5l-.813,10.726L7.123,61.666A13.9,13.9,0,0,1,7.6,66.485c-.27,2.308-.475,4.006-.475,4.006l11.812-8.418s5.432-17.785,5.432-17.379,3.544-22.18,3.544-22.18" transform="translate(5.895 18.633)" fill="#225287"/>
            <path id="Trazado_604983" data-name="Trazado 604983" d="M23.345,24.919C23.331,24.94,12.083,40.67,11.871,43s1.7,5.706,2.339,8.043-.636,17.417-1.062,20.817S14,87.37,14,87.37a18.78,18.78,0,0,0,9.984,1.486c7.06-.757,14.115-3.783,20.614-6.5a2.042,2.042,0,0,0,.826-.517,2.065,2.065,0,0,0,.119-1.808q-.779-3.128-1.553-6.254a7.162,7.162,0,0,0-.592-1.733,9.5,9.5,0,0,1-1.161-2c-.274-1.066.325-2.259-.121-3.262-.519-1.177-2.1-1.572-2.38-2.911-.314-1.526.472-3.778.777-5.291.426-2.1.916-4.205,1.526-6.263l-1.7-9.771s-3.112-1.672-3.536-4.434S35.8,29.1,39.832,26.343s3.449-2.661,3.449-2.661L37.6,21.409c-1.115-.192-2.347.579-3.215,1.164-2.076,1.394-3.544,3.328-5.373,4.957a8.05,8.05,0,0,1-2.789,1.853,4.016,4.016,0,0,1-1.517.17,2.707,2.707,0,0,1-1.928-.923c-.839-1.066-.113-2.754.57-3.71" transform="translate(9.812 17.694)" fill="#fff"/>
            <g id="Grupo_162046" data-name="Grupo 162046" transform="translate(24.538 41.826)" opacity="0.5">
              <g id="Grupo_162045" data-name="Grupo 162045">
                <g id="Grupo_162044" data-name="Grupo 162044" clip-path="url(#clip-path-6)">
                  <path id="Trazado_604984" data-name="Trazado 604984" d="M44.24,78.787q-.776-3.125-1.553-6.252A7.237,7.237,0,0,0,42.1,70.8a9.468,9.468,0,0,1-1.161-2c-.276-1.064.325-2.257-.121-3.262-.521-1.175-2.1-1.57-2.38-2.91-.314-1.528.47-3.778.777-5.293.426-2.1.914-4.2,1.524-6.263L38.512,34.737s-3.063,4.779-3.489,2.018-.528-8.9,3.507-11.66c.815-.557,2.18-1.89,2.767-2.206-.389-.073-2.372.9-5.611,3.257-2.57,1.875-3.465,5.194-3.664,8.219-.228,3.434.872,5.722,2.619,8.668a4.078,4.078,0,0,0,.515.738c.207.217.457.387.674.59,1.32,1.226,1.21,3.31,1,5.1-1.522.207-2.8-1.025-4.092-1.857-.336-.216-.782-.408-1.111-.183,1.751,1.583,4.682,3.774,5.711,5.925,1.517,3.175-1.634,7.917-3.383,10.354a8,8,0,0,1-4.982,3.164c-.985.181-1.994.175-2.985.325-2.957.448-5.708,2.275-8.687,2.01a21.842,21.842,0,0,0,12.713-2.105,11.9,11.9,0,0,1,2.771-1.186c1.97-.424,4.438,1.563,5.183,3.354,1.119,2.692-.574,5.22-2.782,6.543a18.019,18.019,0,0,0-3.451,2.264l6.771-2.46a.7.7,0,0,1,.442-.058.529.529,0,0,1,.256.2,1.418,1.418,0,0,1-.027,1.543,3.379,3.379,0,0,1-1.217,1.071c-1.908,1.137-4.172,1.767-5.7,3.377,2.6-.031,4.73-2.266,7.318-2.533a1.508,1.508,0,0,1,.97.15,1.377,1.377,0,0,1,.5,1.29c-.139,1.835.981.991,2.25.461a2.026,2.026,0,0,0,.828-.515,2.069,2.069,0,0,0,.117-1.809m-13.2-27.912c-1.524.572-4.2.132-5.832.148-2.04.022-6.3-.879-8.321-.758,2.566,3.277,13.875,3.982,14.153.61M13.426,49.748l1.458.391c.073.4.144.791.216,1.188a1.612,1.612,0,0,1-1.575-1.53m14.1-4.454c.6.318,2.111,3.982,2.763,3.8.473-1.415,2.762-12.223,1.479-13.3-.168.47-3.931,9.663-4.242,9.5" transform="translate(-13.426 -22.886)" fill="#225287"/>
                </g>
              </g>
            </g>
            <g id="Grupo_162049" data-name="Grupo 162049" transform="translate(36.616 94.533)" opacity="0.5">
              <g id="Grupo_162048" data-name="Grupo 162048">
                <g id="Grupo_162047" data-name="Grupo 162047" clip-path="url(#clip-path-7)">
                  <path id="Trazado_604985" data-name="Trazado 604985" d="M41.9,68.506c.338-4.046-.61-6.353-2.285-10.9-.322-.875-.572-1.652-.779-2.347a28.92,28.92,0,0,1-1.078-3.531L20.035,57.363l4.032,24.728s12.357-1.9,15.071-2.853a26.1,26.1,0,0,0,2.6-1.08c.048-4.986.1-8.888.168-9.652" transform="translate(-20.034 -51.724)" fill="#225287"/>
                </g>
              </g>
            </g>
            <path id="Trazado_604986" data-name="Trazado 604986" d="M29.982,19.645l.95,1.9L21.294,35.394a14.669,14.669,0,0,0-3.056,5.432l-.34,1.358-.17,11.448,6,53.5s14.4-2.226,17.118-3.176a27.365,27.365,0,0,0,4.887-2.308s-.95-10.862-1.765-13.44-5.7-18.194-5.7-18.194L35.82,63.362l.68-8.011a31.544,31.544,0,0,0,1.316,9.875c1.535,4.518,6.762,21.965,6.762,21.965l6.448,2.782S47.9,67.436,47.5,63.362s-2.308-27.153-2.444-28.919-3.939-8.011-6.382-9.911a15.651,15.651,0,0,0-6.38-2.444Z" transform="translate(14.672 16.259)" fill="#5479a2"/>
            <g id="Grupo_162052" data-name="Grupo 162052" transform="translate(21.944 40.656)" opacity="0.5">
              <g id="Grupo_162051" data-name="Grupo 162051">
                <g id="Grupo_162050" data-name="Grupo 162050" clip-path="url(#clip-path-8)">
                  <path id="Trazado_604987" data-name="Trazado 604987" d="M24.126,22.245,22.361,35.483s-3.045,3.376-4.2,10.458c-.592,3.628.976,58.17.976,58.17l-6.7-2.588S14.491,59.931,14.558,56.4s-1.935-8.926-2.111-10.958-1.276-2.827.844-5.583S21.82,24.212,21.82,24.212Z" transform="translate(-12.007 -22.245)" fill="#225287"/>
                </g>
              </g>
            </g>
            <path id="Trazado_604988" data-name="Trazado 604988" d="M25.1,20.977,22.9,35.666a24.217,24.217,0,0,0-5.05,11.185c-.662,3.617-.137,58.175-.137,58.175l-6.653-2.716s2.851-41.544,2.986-45.073-3.122-13.848-.95-16.564S21.923,25.2,21.923,25.2Z" transform="translate(9.154 17.361)" fill="#5479a2"/>
            <path id="Trazado_604989" data-name="Trazado 604989" d="M26.651,16.272c.2.166.387.344.572.526,2.257,2.246,3.511,5.682,4.375,8.668.307,1.062,1.939,10.569,1.175,11.266,2.414-2.208,5.6-6.166,8.277-8.038A27.2,27.2,0,0,0,37.763,12a12.233,12.233,0,0,0-2.908-3.648C28.13,3.022,17.793,4.254,14.6,12.893c-1.426,3.853-.826,7.709-.225,11.68.727,4.788,1.787,9.517,2.849,14.241q2.41-2.07,4.819-4.136c.93-.8,2.029-1.08,1.153-2.063a24.8,24.8,0,0,1-5.863-11.763,6.983,6.983,0,0,1-.026-2.442c1.089-5.284,5.953-5.031,9.345-2.138" transform="translate(11.354 4.27)" fill="#430f00"/>
            <path id="Trazado_604990" data-name="Trazado 604990" d="M32.152,54.559,21.108,48.316l.9,3.6,10.257,5.578Z" transform="translate(17.47 39.988)" fill="#225287"/>
            <path id="Trazado_604991" data-name="Trazado 604991" d="M62.66,60.4,46.312,63.2c.956,1.575,1.716,2.992,1.6,3.772A38.473,38.473,0,0,1,46.294,72.3a.6.6,0,0,1-1.15-.093l-.684-3.65a2.005,2.005,0,0,0-.486-.958c-2.062-2.3-1.6-3.482-3.747-3.277-3.584.345-7.329,1.179-10.893,1.789l3.624,21.142,33.323-5.711Z" transform="translate(24.279 49.989)" fill="#b6c4d3"/>
            <path id="Trazado_604992" data-name="Trazado 604992" d="M61.442,59.347,45.11,62.233c.963,1.57,1.731,2.985,1.621,3.765a38.6,38.6,0,0,1-1.594,5.335.6.6,0,0,1-1.15-.088l-.7-3.646a2.011,2.011,0,0,0-.493-.956c-2.073-2.29-1.621-3.474-3.761-3.257-3.584.364-7.323,1.215-10.884,1.846L31.88,86.354l33.3-5.883Z" transform="translate(23.296 49.118)" fill="#b6c4d3"/>
            <path id="Trazado_604993" data-name="Trazado 604993" d="M61.535,59.431l-16.244,3.35c1.007,1.543,1.815,2.933,1.727,3.716a38.563,38.563,0,0,1-1.438,5.379.6.6,0,0,1-1.153-.055L43.619,68.2a2,2,0,0,0-.519-.941c-2.135-2.23-1.718-3.427-3.851-3.149-3.573.466-7.287,1.424-10.827,2.155L32.755,87.27l33.111-6.83Z" transform="translate(23.523 49.187)" fill="#f0f3f6"/>
            <path id="Trazado_604994" data-name="Trazado 604994" d="M55.843,81.624c-.181.541-.362,11.556.181,13.543a10.252,10.252,0,0,0,.9,2.528,119.124,119.124,0,0,0-.181,12.459c.362,3.611,3.611,14.988,3.792,16.794s3.611,15.526,3.611,15.526l4.514.183s-.543-13.183.181-18.238,3.791-14.086,2.528-19.682-2.528-7.223-2.709-9.569.541-6.682.181-10.653-.724-8.668-.724-8.668Z" transform="translate(46.068 62.772)" fill="#d8a87d"/>
            <path id="Trazado_604995" data-name="Trazado 604995" d="M60.479,108.664a119.636,119.636,0,0,1,1.709-12.342A10.358,10.358,0,0,1,61.6,93.7c-.294-2.036,1.239-12.947,1.484-13.462l5.247-1.718c-.128-1.577-.212-2.676-.212-2.676l-12.28,5.779c-.181.541-.36,11.556.181,13.543a10.252,10.252,0,0,0,.9,2.528,119.651,119.651,0,0,0-.181,12.459c.362,3.611,3.611,14.987,3.792,16.792.144,1.437,2.341,10.4,3.235,14.014-.344-2.836-1.63-13.592-1.592-15.164.042-1.815-1.787-13.5-1.7-17.132m8.085,30.955c-.159,1.67-.25,2.765-.25,2.765l-4.366-.718.2.81,4.514.181s-.049-1.214-.1-3.038" transform="translate(46.068 62.772)" fill="#d09764"/>
            <path id="Trazado_604996" data-name="Trazado 604996" d="M66.125,117.891s-.265-6.448-.177-12.055a17.937,17.937,0,0,1-2.879.208,35.508,35.508,0,0,1-4.339-.278c1.058,4.651,2.88,11.944,2.88,11.944Z" transform="translate(48.607 87.536)" fill="#fff"/>
            <path id="Trazado_604997" data-name="Trazado 604997" d="M71.918,121.557a4.435,4.435,0,0,0-1.188-3.489,25.455,25.455,0,0,1-2.862-4.194l-1.734-6.781-7.17.1c-.108,1.338-.323,2.851-.278,3.233.1.863.943,4.116.663,5.958s.978,5.333,1.327,6,1.676,1.921,6.389,1.723,4.783-2.116,4.852-2.548" transform="translate(48.565 88.634)" fill="#2d7063"/>
            <path id="Trazado_604998" data-name="Trazado 604998" d="M66.292,115.65c-4.083.144-6-.5-6.892-1.115a13.594,13.594,0,0,0,.68,1.811c.349.667,1.676,1.921,6.389,1.725s4.783-2.116,4.852-2.548a4.08,4.08,0,0,0-.038-1.142c-.691.588-2.087,1.166-4.991,1.268" transform="translate(49.162 94.667)" fill="#f4e6da"/>
            <path id="Trazado_604999" data-name="Trazado 604999" d="M57.99,81.624c.181.541.362,11.556-.181,13.543a10.252,10.252,0,0,1-.9,2.528,119.125,119.125,0,0,1,.181,12.459c-.36,3.611-3.611,14.988-3.792,16.794s-3.611,15.526-3.611,15.526l-4.514.183s.543-13.183-.181-18.238S41.2,110.332,42.46,104.736s2.528-7.223,2.709-9.569-.541-6.682-.181-10.653.724-8.668.724-8.668Z" transform="translate(34.892 62.772)" fill="#d8a87d"/>
            <path id="Trazado_605000" data-name="Trazado 605000" d="M50.29,125.794c.038,1.574-1.248,12.329-1.592,15.166.9-3.617,3.091-12.58,3.235-14.016.181-1.8,3.43-13.179,3.792-16.792a119.651,119.651,0,0,0-.181-12.459,10.2,10.2,0,0,0,.9-2.526c.541-1.987.362-13,.181-13.543l-12.28-5.779s-.084,1.1-.212,2.676l5.247,1.72c.247.515,5.09,9.1,4.8,11.134s-1.2,6.971-1.2,6.971a77.415,77.415,0,0,0-.989,10.319c.086,3.628-1.744,15.316-1.7,17.13m-6.483,16.86,4.514-.181s.075-.3.2-.81l-4.366.72s-.09-1.095-.25-2.767c-.049,1.826-.1,3.038-.1,3.038" transform="translate(36.256 62.772)" fill="#d09764"/>
            <path id="Trazado_605001" data-name="Trazado 605001" d="M43.807,117.891s.265-6.448.177-12.055a17.937,17.937,0,0,0,2.879.208,35.508,35.508,0,0,0,4.339-.278c-1.058,4.651-2.88,11.944-2.88,11.944Z" transform="translate(36.256 87.536)" fill="#fff"/>
            <path id="Trazado_605002" data-name="Trazado 605002" d="M40.66,121.579a4.443,4.443,0,0,1,1.192-3.5,25.41,25.41,0,0,0,2.871-4.209l1.742-6.8,7.192.1c.108,1.341.325,2.858.278,3.242-.1.866-.945,4.13-.665,5.978s-.981,5.349-1.331,6.018-1.681,1.928-6.41,1.731-4.8-2.124-4.869-2.557" transform="translate(33.629 88.614)" fill="#2d7063"/>
            <path id="Trazado_605003" data-name="Trazado 605003" d="M45.7,115.653c4.1.144,6.02-.5,6.914-1.119a13.747,13.747,0,0,1-.682,1.818c-.351.667-1.681,1.926-6.41,1.729s-4.8-2.124-4.869-2.555a4.106,4.106,0,0,1,.038-1.146c.693.59,2.094,1.168,5.008,1.272" transform="translate(33.631 94.666)" fill="#f4e6da"/>
            <path id="Trazado_605004" data-name="Trazado 605004" d="M52.768,12.614l.362,13.181c.015.565-4.746,2.475-5.229,2.868-2.394,1.95-2,4.4.356,6.759a16.688,16.688,0,0,0,5.3,3.224,27.455,27.455,0,0,0,4.337,1.574A15.974,15.974,0,0,0,69.357,38.7c2.2-1.221,6.452-4.472,6.717-7.269.287-3.027-4.249-3.164-6.695-4.735-2.528-1.625-3.25-1.985-3.25-1.985l-.181-11.737Z" transform="translate(38.309 10.44)" fill="#6a2e24"/>
            <path id="Trazado_605005" data-name="Trazado 605005" d="M42.157,55.295c-.362.541.9,18.1.539,22.431s-.5,79.405-.5,79.405,1.935-.364,7.212,1.279c2.654.826,3.555-.768,3.555-.768S57.4,127.92,57.58,126.114s5.36-52.044,5.36-52.044l7.279,81.75s.945,3.1,2.624,2.528a41.765,41.765,0,0,1,9.343-1.731s1.08-69.982.718-77.2S82.6,56.2,82.6,56.2Z" transform="translate(34.836 45.764)" fill="#1e2022"/>
            <g id="Grupo_162055" data-name="Grupo 162055" transform="translate(82.41 38.131)" opacity="0.6" style="mix-blend-mode: multiply;isolation: isolate">
              <g id="Grupo_162054" data-name="Grupo 162054">
                <g id="Grupo_162053" data-name="Grupo 162053" clip-path="url(#clip-path-9)">
                  <path id="Trazado_605006" data-name="Trazado 605006" d="M45.091,89.118s8.848,1.806,15.889,2.528,18.057-.722,18.057-.722L75.788,27l-7.766-6.139A7.36,7.36,0,0,1,60.98,25.2a9.886,9.886,0,0,1-7.945-3.611l-7.945,7.223Z" transform="translate(-45.091 -20.864)" fill="#90bcaa"/>
                </g>
              </g>
            </g>
            <path id="Trazado_605007" data-name="Trazado 605007" d="M45.091,88.081s8.848,1.806,15.889,2.528,18.057-.722,18.057-.722l-3.25-63.922-7.766-6.139a7.36,7.36,0,0,1-7.042,4.333,9.886,9.886,0,0,1-7.945-3.611l-7.945,7.223Z" transform="translate(37.319 16.409)" fill="#fff"/>
            <path id="Trazado_605008" data-name="Trazado 605008" d="M74.159,91.969l-7.873,6.187H54.757S54.3,80.811,55.923,70.339s3.191-14.389,1.926-19.985S55.039,37.7,55.039,37.7l3.8-10.889.239-9.109a12.89,12.89,0,0,0,6.42,5.872c2.147.859,11.086,4.713,11.706,7.046.294,1.1-3.394,5.2-4.037,6.687-1.2,2.773.976,8.515.627,11.5C72.712,58,71.248,64.49,74.159,73.228c.181.541,0,18.741,0,18.741" transform="translate(45.269 14.65)" fill="#2d7063"/>
            <path id="Trazado_605009" data-name="Trazado 605009" d="M41.5,91.052,51.9,97.52h10.4s-.157-16.781-1.784-27.254-1.166-14.108.1-19.706,2.813-13.779,2.813-13.779L57.613,26.416l-.559-8.628a11.455,11.455,0,0,1-6.1,5.711c-1.859.744-6.037,2.294-6.971,4.129-.9,1.76.267,6.333.375,8.308q.554,9.951,1.1,19.9c.338,6.1-1.252,11.549-3.175,17.315-.181.543-.788,17.9-.788,17.9" transform="translate(34.346 14.722)" fill="#2d7063"/>
            <path id="Trazado_605010" data-name="Trazado 605010" d="M40.287,32.648a30.232,30.232,0,0,0,.272,8.661c.854,5.291.874,15.542,1.082,16.134a3.381,3.381,0,0,0,4.03,1.956c2.5-.667,5.878-3.509,5.878-3.509L45.2,32.2Z" transform="translate(33.188 26.648)" fill="#692c22"/>
            <path id="Trazado_605011" data-name="Trazado 605011" d="M51.183,23.933a2.3,2.3,0,0,0-.678-1.219,2.264,2.264,0,0,0-2.659.038C41.9,26.742,41.2,35.37,40.064,41.734c-1.486,8.34-2.855,15.189-2.319,23.591.042.663.888.627,1.479.5.709-.154,2.14-2.423,2.862-3.233,3.35-3.758,5.748-7.144,7.15-12.081A66.822,66.822,0,0,0,51.344,24.9a7.334,7.334,0,0,0-.161-.969" transform="translate(31.141 18.455)" fill="#2d7063"/>
            <g id="Grupo_162058" data-name="Grupo 162058" transform="translate(91.133 25.108)" style="mix-blend-mode: multiply;isolation: isolate">
              <g id="Grupo_162057" data-name="Grupo 162057">
                <g id="Grupo_162056" data-name="Grupo 162056" clip-path="url(#clip-path-10)">
                  <path id="Trazado_605012" data-name="Trazado 605012" d="M63.12,20.546l-.064-4.1c-.835,1.914-1.892,3.748-2.946,3.992-1.349.311-3.228-1.331-4.586-1.513-2-.269-4.432-2.822-5.66-5.185.031,1.133.071,2.614.113,4.123a10.146,10.146,0,0,0,2.61,3.765,12.643,12.643,0,0,0,3.791,2.243,3.632,3.632,0,0,0,2.888-.1,10.378,10.378,0,0,0,2.756-1.888,7.993,7.993,0,0,0,1.1-1.334" transform="translate(-49.864 -13.738)" fill="#e1bc9b"/>
                </g>
              </g>
            </g>
            <path id="Trazado_605013" data-name="Trazado 605013" d="M50.892,22.42A12.043,12.043,0,0,0,57.526,28.5a5.371,5.371,0,0,0,4.809-.481,13.475,13.475,0,0,0,3.134-4.377c2.624-7,4.052-20.417-7.4-20.417-10.564,0-10.924,12.013-7.173,19.192" transform="translate(40.326 2.672)" fill="#784138"/>
            <path id="Trazado_605014" data-name="Trazado 605014" d="M63.479,45.961A56.363,56.363,0,0,0,66.1,56.346c1.086,3.034,3.25,6.071,6.43,6.589.437.071,4.734-3.215,5.145-3.377,3.158-1.261-.954-9.458-1.172-12.039-.473-5.574-2.911-11.035-4.063-16.507-.444-2.111-3.281-9.674-6.8-7.373-1.164.764-1.585,2.25-1.853,3.617a54.573,54.573,0,0,0-.316,18.706" transform="translate(51.995 19.207)" fill="#2d7063"/>
            <g id="Grupo_162061" data-name="Grupo 162061" transform="translate(75.962 77.045)" style="mix-blend-mode: multiply;isolation: isolate">
              <g id="Grupo_162060" data-name="Grupo 162060">
                <g id="Grupo_162059" data-name="Grupo 162059" clip-path="url(#clip-path-11)">
                  <path id="Trazado_605015" data-name="Trazado 605015" d="M47.493,57.11l34.036.241a1.561,1.561,0,0,0,1.12-.283,1.116,1.116,0,0,0,.243-.729c.228-2.721.263-5.518.691-8.219.307-1.954,1.312-3.951.992-5.942-.037-.227-5.231,1.323-5.494,1.137a3.313,3.313,0,0,0-1.219-.386c-4.991-.894-10.54-.057-15.469.916q-4.458.877-8.782,1.908a31.85,31.85,0,0,0-6.585,2.094c-3.622,1.813-5.311,4.141-5.461,7.9a1.244,1.244,0,0,0,.369,1.117,1.8,1.8,0,0,0,1.04.217l4.518.033" transform="translate(-41.563 -42.156)" fill="#aacce5"/>
                </g>
              </g>
            </g>
            <path id="Trazado_605016" data-name="Trazado 605016" d="M37.9,46.022c2.325-2.776,10.6-6.945,10.6-6.945l.923,2.769-.154,7.071-.194,2.835a23.162,23.162,0,0,1-5.9,3.822,4.167,4.167,0,0,1-5.07-1.446c-.122-.227-.819-1.786-1.712-3.913A6.2,6.2,0,0,1,37.9,46.022" transform="translate(30.115 32.342)" fill="#6a2e24"/>
            <path id="Trazado_605017" data-name="Trazado 605017" d="M66.812,12.658a10.02,10.02,0,0,0-.9-2.224,6.854,6.854,0,0,0-4.224-2.418,12.918,12.918,0,0,0-4.944.2A10.154,10.154,0,0,0,53.455,9.4a7.621,7.621,0,0,0-3.021,3.8c-.267.689-.766,4.79-2.25,2.624a3.02,3.02,0,0,1-.4-1.21C46.678,8.509,50.125,1.317,56.675.2c6.7-1.139,12.134,2.559,12.859,9.33A8,8,0,0,1,68.411,14.6c-.817-.1-1.254-.985-1.6-1.945" transform="translate(39.378 0)" fill="#1e2022"/>
            <path id="Trazado_605018" data-name="Trazado 605018" d="M71.316,40.907c-2.3.757-6.585,2.7-8.053,4.737-1.493,2.076,1.488,7.466,4.324,8.018a4.457,4.457,0,0,0,2.652-.614c2.4-1.122,5.2-1.7,7.042-3.674a5.217,5.217,0,0,0,1.053-6.1c-1.332-2.381-4.54-3.178-7.018-2.363" transform="translate(52.029 33.6)" fill="#6a2e24"/>
            <path id="Trazado_605019" data-name="Trazado 605019" d="M78.608,62.29H47a2.719,2.719,0,0,1-2.718-2.72V37.934A2.719,2.719,0,0,1,47,35.214H78.608a2.719,2.719,0,0,1,2.72,2.72V59.571a2.719,2.719,0,0,1-2.72,2.72" transform="translate(36.652 29.144)" fill="#e2e9ee"/>
            <path id="Trazado_605020" data-name="Trazado 605020" d="M61.1,42.277a4.7,4.7,0,1,1-4.7-4.492,4.6,4.6,0,0,1,4.7,4.492" transform="translate(42.785 31.272)" fill="#52616b"/>
            <g id="Grupo_162064" data-name="Grupo 162064" transform="translate(109.459 76.997)" opacity="0.5" style="mix-blend-mode: multiply;isolation: isolate">
              <g id="Grupo_162063" data-name="Grupo 162063">
                <g id="Grupo_162062" data-name="Grupo 162062" clip-path="url(#clip-path-12)">
                  <path id="Trazado_605021" data-name="Trazado 605021" d="M69.143,48.907s.367-2.354-.526-2.959c-.022-.135-.72-.4-.833-.453-.42-.2-.848-.419-1.285-.581a3.2,3.2,0,0,1-.9-.371c-.408-.3-.793-.632-1.188-.947a1.867,1.867,0,0,0-.651-.387c-.247-.068-2.354-1.265-2.5-1.055-.512.735,1.893,2.968,2.5,3.418.724.539,3.074,2.093,3.074,2.093s-.283,1.228-1.214,1.3-5.22-.422-5.636-.024c-.47.453,1.042.952.854,1.329a.749.749,0,0,0-.113.234.324.324,0,0,0,.044.177,2.254,2.254,0,0,0,.7.724q1.113.855,2.23,1.709a12,12,0,0,0,1.988,1.475c.506.236,1.025.446,1.552.632.386.135.775.258,1.164.378.484.152.97.3,1.455.453.062.02.143.035.181-.018a.16.16,0,0,0,.016-.11,19.26,19.26,0,0,0-.316-2.376,15.484,15.484,0,0,1-.42-2.414q-.085-1.11-.17-2.224" transform="translate(-59.892 -42.129)" fill="#d29a68"/>
                </g>
              </g>
            </g>
            <path id="Trazado_605022" data-name="Trazado 605022" d="M70.488,46.67s.276-2.427-.835-2.888-8.288-2.052-8.57-1.678,1.822,1.672,2.727,2.1,3.825,1.6,3.825,1.6a1.971,1.971,0,0,1-1.363,1.5c-1.109.223-5.823.843-6.293,1.312s.172,1.151,1.215,1.044,6.322-.077,6.322-.077-6.6.358-6.764.8.009,1.044,1.553,1.022c.965-.013,5.958.943,5.958.943s-4.015.139-4.478.567.446,1.053,1.608,1.009a14.391,14.391,0,0,1,3.518.755s.9.5,1.38-.223a2.269,2.269,0,0,0,.356-1.471,1.649,1.649,0,0,0,.473-1.409,6.561,6.561,0,0,1-.135-1.818Z" transform="translate(49.509 34.8)" fill="#784138"/>
            <g id="Grupo_162067" data-name="Grupo 162067" transform="translate(77.366 67.176)" opacity="0.5" style="mix-blend-mode: multiply;isolation: isolate">
              <g id="Grupo_162066" data-name="Grupo 162066">
                <g id="Grupo_162065" data-name="Grupo 162065" clip-path="url(#clip-path-13)">
                  <path id="Trazado_605023" data-name="Trazado 605023" d="M42.634,44.525s-.716-2.226.057-2.948c0-.135.638-.5.74-.567.375-.263.755-.537,1.155-.762a3.086,3.086,0,0,0,.817-.5c.349-.351.673-.735,1.007-1.1a1.83,1.83,0,0,1,.572-.475c.227-.1,2.087-1.585,2.259-1.405.609.636-1.38,3.167-1.9,3.7-.62.632-2.659,2.5-2.659,2.5s.462,1.146,1.374,1.073,4.995-1.212,5.459-.886c.525.366-.863,1.08-.623,1.418.049.069.124.126.146.208a.31.31,0,0,1-.015.177,2.179,2.179,0,0,1-.567.81q-.949,1-1.9,2a11.753,11.753,0,0,1-1.7,1.734q-.683.461-1.407.852c-.353.19-.713.367-1.071.545l-1.34.663c-.057.027-.133.053-.179.009a.172.172,0,0,1-.033-.1,18.7,18.7,0,0,1-.057-2.352,15.078,15.078,0,0,0,.037-2.4l-.175-2.182" transform="translate(-42.331 -36.756)" fill="#d29a68"/>
                </g>
              </g>
            </g>
            <path id="Trazado_605024" data-name="Trazado 605024" d="M41.712,42.561s-.64-2.31.367-2.926,7.718-3.261,8.049-2.941-1.51,1.9-2.321,2.449-3.462,2.137-3.462,2.137A1.93,1.93,0,0,0,45.9,42.528c1.108.046,5.772-.075,6.3.307s.011,1.142-1.018,1.2-6.139.894-6.139.894,6.45-.665,6.678-.265.152,1.013-1.347,1.228c-.939.135-5.631,1.828-5.631,1.828s3.913-.481,4.427-.137-.272,1.087-1.405,1.225a14.114,14.114,0,0,0-3.293,1.27s-.8.625-1.373,0a2.221,2.221,0,0,1-.57-1.373,1.611,1.611,0,0,1-.674-1.292,6.409,6.409,0,0,0-.15-1.784Z" transform="translate(34.356 30.347)" fill="#784138"/>
          </g>
        </g>
      </g>
    </g>
    <rect id="Rectángulo_48122" data-name="Rectángulo 48122" width="1030" height="414" transform="translate(285 3675)" fill="none"/>
    <g id="Grupo_162073" data-name="Grupo 162073" transform="translate(346.37 3803.185)">
      <g id="Grupo_162072" data-name="Grupo 162072" clip-path="url(#clip-path-14)">
        <path id="Trazado_605025" data-name="Trazado 605025" d="M21.93,0a2.26,2.26,0,0,0,.293.1,2.96,2.96,0,0,1,2.523,2.39.838.838,0,0,0,.968.757,2.966,2.966,0,0,1,2.869,3.1c.018,1.6.012,3.2,0,4.8a.66.66,0,0,0,.392.689,3.305,3.305,0,0,1,1.6,3.741,3.35,3.35,0,0,1-3.158,2.508c-.206.006-.412,0-.619,0-.106.691-.158,1.349-.313,1.982A7.353,7.353,0,0,1,24,24.072a1.143,1.143,0,0,0-.448,1.02c.024,1.217.01,1.217,1.154,1.66.956.37,1.916.728,2.862,1.122a.62.62,0,0,0,.772-.16,10.228,10.228,0,0,1,4.934-2.562c.634-.135,1.039.068,1.148.563.1.462-.183.8-.8.953A8.816,8.816,0,0,0,26.8,33.147,9,9,0,1,0,37.45,26.7a1.934,1.934,0,0,1-.54-.178.709.709,0,0,1-.312-.947.756.756,0,0,1,.939-.46A10.426,10.426,0,0,1,42.2,27.323a10.552,10.552,0,0,1,1.552,14.74c-.074.095-.145.192-.244.322l1,.895a3.407,3.407,0,0,1,4.292.979c1.213,1.295,2.513,2.507,3.75,3.78a3.135,3.135,0,0,1,.621,3.571A3.177,3.177,0,0,1,50.1,53.46a3.076,3.076,0,0,1-2.056-.9C46.621,51.15,45.2,49.744,43.8,48.311c-1.02-1.047-1.148-2.213-.51-3.843l-.956-.929a11.021,11.021,0,0,1-4.394,2.242c-.11.028-.218.319-.22.488-.017,1.618-.009,3.237-.01,4.855a2.091,2.091,0,0,1-2.347,2.343c-10.894,0-21.788-.012-32.681.018A2.5,2.5,0,0,1,0,51.9V35.924c.034-.113.077-.224.1-.339a7.124,7.124,0,0,1,4.51-5.573c2.77-1.112,5.559-2.178,8.34-3.264,1.217-.475,1.2-.476,1.224-1.766a.99.99,0,0,0-.416-.873,7.226,7.226,0,0,1-2.492-3.938c-.162-.668-.233-1.358-.355-2.091-.214,0-.437.007-.659,0a3.344,3.344,0,0,1-2.7-5.106,2.273,2.273,0,0,0,.5-1.824c-.013-1.86-.037-3.722.009-5.581a5.57,5.57,0,0,1,2.287-4.426A6.879,6.879,0,0,1,13.053,0ZM12.625,28.575c-.2.072-.363.124-.52.185q-3.326,1.3-6.651,2.6a5.734,5.734,0,0,0-3.888,5.71q0,6.97,0,13.939c0,.122,0,.244,0,.365A.492.492,0,0,0,2.1,51.9c1.249.008,2.5,0,3.805,0v-.711q0-7.283,0-14.566c0-.174-.006-.348,0-.522.034-.541.33-.847.8-.835.447.011.722.307.757.825.012.173.005.348.005.522q0,7.283,0,14.566v.694h5.158Zm4.9-27.008c-1.2,0-2.4,0-3.6,0a4.149,4.149,0,0,0-4.3,4.316c-.006,1.653,0,3.307,0,4.96,0,1.072.493,1.574,1.556,1.575q4.072,0,8.145-.007a3.986,3.986,0,0,0,2.912-1.2,8.447,8.447,0,0,0,.781-1.038.882.882,0,0,1,.941-.415.858.858,0,0,1,.732.777c.019.138.03.277.057.414A1.7,1.7,0,0,0,26,12.336c.7.207,1.022-.041,1.024-.778q.005-2.558,0-5.117A1.459,1.459,0,0,0,25.383,4.8a2.1,2.1,0,0,1-2.065-1.6c-.346-1.284-.766-1.618-2.091-1.628-1.236-.009-2.471,0-3.707,0m-4.9,12.419c0,1.709-.114,3.349.024,4.967a6.143,6.143,0,0,0,6.235,5.437,6.109,6.109,0,0,0,6.163-5.266c.181-1.721.086-3.471.1-5.209a.446.446,0,0,0-.165-.283c-.518-.445-1.045-.878-1.6-1.341a5.686,5.686,0,0,1-3.513,1.649c-.552.051-1.111.042-1.667.043-1.859,0-3.717,0-5.581,0M25.06,37.761v.885c0,1.322.008,2.645-.006,3.967a.773.773,0,0,1-.809.829.788.788,0,0,1-.749-.837c-.006-.139,0-.278,0-.418V33.472a2.1,2.1,0,0,1-1.849.368c-.311-.083-.536.219-.506.6.325,4.249.622,8.5.983,12.746a5.644,5.644,0,0,1-.773,3.842,7.267,7.267,0,0,0-.422.833h2.568c0-1.809,0-3.581,0-5.354,0-.608.3-.97.777-.971s.784.363.785.967c0,1.6,0,3.2,0,4.8v.559H30.2a.491.491,0,0,0,.049-.126c0-2.262.015-4.524,0-6.786a.8.8,0,0,0-.311-.471c-.749-.644-1.576-1.21-2.261-1.915a11,11,0,0,1-2.612-4.811m-6.959-2.6a.5.5,0,0,0-.039.125c-.336,4.4-.675,8.8-.991,13.205a2,2,0,0,0,.222.948c.335.705.71,1.392,1.1,2.071.092.161.3.373.442.36a.775.775,0,0,0,.487-.377c.38-.662.747-1.335,1.063-2.029a2.281,2.281,0,0,0,.222-1.049c-.248-3.641-.525-7.28-.8-10.919-.059-.789-.131-1.578-.193-2.333ZM16.8,51.872a15.772,15.772,0,0,1-.86-1.661,4.5,4.5,0,0,1-.419-1.746c.159-2.848.4-5.692.617-8.537q.207-2.759.41-5.517c.032-.445-.23-.591-.683-.555a5.06,5.06,0,0,1-1.206-.133,1.692,1.692,0,0,1-.412-.2V51.872Zm27.567-5.721a4.431,4.431,0,0,0,.572,1.065c1.376,1.427,2.781,2.826,4.2,4.212a1.6,1.6,0,0,0,2.3-.015,1.626,1.626,0,0,0-.016-2.3c-.26-.281-.538-.544-.809-.814-1.119-1.119-2.233-2.243-3.361-3.353a1.571,1.571,0,0,0-1.83-.337,1.793,1.793,0,0,0-1.052,1.543m-8.221.042-4.289-.629V51.9c1.291,0,2.555.019,3.817-.023a.692.692,0,0,0,.451-.5c.034-1.751.021-3.5.021-5.18M22,25.345a8.408,8.408,0,0,1-6.176.033L15.5,27.433c.024.017.136.1.245.179.835.641,1.635,1.34,2.525,1.893a1.6,1.6,0,0,0,1.235-.052c.377-.153.642-.561.987-.815.6-.44,1.222-.847,1.791-1.237a7.8,7.8,0,0,1-.27-.988A8.456,8.456,0,0,1,22,25.345m4.746-8.854c1.254.094,2.017-.332,2.285-1.242a1.7,1.7,0,0,0-.809-2.025l-1.476.847ZM15.488,32.321l1.389-2.034-2.661-1.816a12.627,12.627,0,0,1-.014,1.768,1.676,1.676,0,0,0,1.286,2.081m6.783.061c.287-.194.539-.35.773-.528.16-.121.418-.267.424-.411.038-.958.02-1.919.02-2.967L20.842,30.29l1.429,2.092M10.989,14.1a11.249,11.249,0,0,1-1.481-.516c-.332-.169-.461-.054-.617.19a1.792,1.792,0,0,0,2.1,2.658V14.1Zm6.247,18.464c1.257,1.422,2.081,1.415,3.272-.067-.538-.325-.478-1.154-1.3-1.314-1.178-.229-1.486.65-1.973,1.381m7.837.741c.265-.75.46-1.434.746-2.078.292-.66.672-1.281,1.034-1.957l-1.78-.688Z" transform="translate(0 -0.001)" fill="#fff"/>
        <path id="Trazado_605026" data-name="Trazado 605026" d="M217.066,227.634c.7-.718,1.3-1.35,1.914-1.96a2.615,2.615,0,1,1,3.7,3.688q-1.817,1.835-3.652,3.652a2.6,2.6,0,0,1-3.89,0q-1.336-1.32-2.656-2.656a2.613,2.613,0,1,1,3.675-3.707c.3.289.565.607.911.982m.038,4.781a5.528,5.528,0,0,0,.87-.572c1.194-1.165,2.367-2.35,3.543-3.533.568-.572.614-1.182.137-1.644s-1.05-.4-1.606.152c-.741.733-1.474,1.475-2.213,2.209-.6.6-.921.592-1.533-.015-.419-.416-.829-.842-1.254-1.252a1.052,1.052,0,0,0-1.569-.063,1.063,1.063,0,0,0,.087,1.535c.9.916,1.807,1.829,2.733,2.72a4.041,4.041,0,0,0,.8.461" transform="translate(-182.099 -193.438)" fill="#fff"/>
      </g>
    </g>
    <g id="Grupo_162077" data-name="Grupo 162077" transform="translate(1202.836 3699)">
      <g id="Grupo_162076" data-name="Grupo 162076" clip-path="url(#clip-path-15)">
        <path id="Trazado_605027" data-name="Trazado 605027" d="M18.67,0a3.434,3.434,0,0,1,2.557,1.867,1.246,1.246,0,0,0,1.511.866,2.293,2.293,0,0,1,2.331.8c.067.1.326.075.5.076,1.945,0,3.889,0,5.834,0a4.527,4.527,0,0,1,4.8,4.778c.006,1.642,0,3.284,0,5.022.216-.1.366-.168.517-.235a5.045,5.045,0,0,1,4.782.193,5.005,5.005,0,0,0,2.514.674,5,5,0,0,1,4.5,2.611,4.823,4.823,0,0,0,1.8,1.806,4.951,4.951,0,0,1,2.611,4.492,4.959,4.959,0,0,0,.673,2.516,4.982,4.982,0,0,1-.03,5.243,4.544,4.544,0,0,0-.641,2.363,4.893,4.893,0,0,1-2.68,4.6,7.015,7.015,0,0,0-2.233,2.554c-.086.122-.045.342-.045.516,0,3.66,0,7.32-.005,10.98a2.437,2.437,0,0,1-2.033,2.534,2.527,2.527,0,0,1-1.952-.473c-1.512-1.013-3.036-2.007-4.535-3.038a.756.756,0,0,0-1.018-.011q-2.309,1.6-4.669,3.124a2.45,2.45,0,0,1-3.817-1.527,11.452,11.452,0,0,1-.058-1.746c-.008-.544,0-1.089,0-1.7H4.974a4.562,4.562,0,0,1-4.905-3.77A.85.85,0,0,0,0,44.985V7.533a1.508,1.508,0,0,0,.078-.192A4.541,4.541,0,0,1,4.9,3.616c1.889,0,3.778-.006,5.668,0A1.112,1.112,0,0,0,11.4,3.3a2.714,2.714,0,0,1,1.156-.546,3.75,3.75,0,0,1,1.213-.021.888.888,0,0,0,1.094-.661A3,3,0,0,1,16.479.4c.33-.157.682-.268,1.024-.4ZM5.441,43.464h23.8a1.022,1.022,0,0,0,.367-.013c.1-.043.256-.169.251-.249-.1-1.332.372-2.731-.638-3.954a5.729,5.729,0,0,0-1.538-1.489,5.077,5.077,0,0,1-2.768-4.777,4.045,4.045,0,0,0-.585-2.165,5.1,5.1,0,0,1,.008-5.522,3.926,3.926,0,0,0,.575-2.115,5.091,5.091,0,0,1,2.789-4.818,4.263,4.263,0,0,0,1.522-1.507c.355-.56.839-1.037,1.238-1.571a1.271,1.271,0,0,0,.291-.667c.024-1.7.014-3.394.011-5.091,0-.15-.025-.3-.04-.482h-.623c-2.156,0-4.313-.016-6.469.014a4.831,4.831,0,0,0-1.249.3,7.807,7.807,0,0,1-1.605.5c-1.479.094-2.964.089-4.447.1A5.577,5.577,0,0,1,13.6,9.246a1.653,1.653,0,0,0-.745-.193c-2.3-.014-4.6-.009-6.893-.007-.17,0-.339.017-.52.027Zm38.211-3.18a3.494,3.494,0,0,0,3.507-2.06,4.83,4.83,0,0,1,2.058-2.007,3.382,3.382,0,0,0,1.913-3.284,5.272,5.272,0,0,1,.8-2.975,3.362,3.362,0,0,0,.019-3.754,5.39,5.39,0,0,1-.817-3.024,3.356,3.356,0,0,0-1.879-3.249,5.3,5.3,0,0,1-2.183-2.175,3.428,3.428,0,0,0-3.344-1.91A5,5,0,0,1,40.9,15.1a3.479,3.479,0,0,0-3.942,0,4.982,4.982,0,0,1-2.827.747,3.427,3.427,0,0,0-3.372,1.947,5.02,5.02,0,0,1-2.1,2.108,3.393,3.393,0,0,0-1.934,3.322,5.167,5.167,0,0,1-.788,2.925,3.411,3.411,0,0,0,.008,3.846,5.057,5.057,0,0,1,.778,2.874,3.42,3.42,0,0,0,1.948,3.368A4.934,4.934,0,0,1,30.738,38.3a3.47,3.47,0,0,0,3.41,1.979,4.863,4.863,0,0,1,2.779.73,3.493,3.493,0,0,0,3.987.006,4.916,4.916,0,0,1,2.738-.734M11.523,7.234a14.515,14.515,0,0,1-.48-1.412c-.078-.334-.231-.406-.543-.4-1.891.012-3.783,0-5.674.007A2.758,2.758,0,0,0,1.807,8.461q0,17.8,0,35.591a2.762,2.762,0,0,0,3.021,3.035q12.224,0,24.448,0c.186,0,.372-.016.569-.025V45.276H5.852c-1.567,0-2.236-.663-2.236-2.215q0-16.814,0-33.629c0-1.521.677-2.2,2.2-2.2h5.708M46.157,41.819c-1.048.1-2.063.164-3.064.315a3.867,3.867,0,0,0-1.325.49,5.3,5.3,0,0,1-5.678.008,3.934,3.934,0,0,0-1.325-.495c-1-.155-2.017-.221-3.057-.326,0,.056-.017.211-.018.366q0,4.695,0,9.389c0,.343-.019.756.376.837a1.351,1.351,0,0,0,.909-.2c1.589-1.023,3.155-2.083,4.728-3.131a1.851,1.851,0,0,1,2.439-.008c1.575,1.045,3.139,2.108,4.727,3.133a1.335,1.335,0,0,0,.906.2c.425-.093.382-.528.382-.885q0-4.668,0-9.336ZM12.739,4.535a3.332,3.332,0,0,0,2.818,3.5,24.774,24.774,0,0,0,5.122-.009,3.3,3.3,0,0,0,2.785-3.487c-.82,0-1.648.009-2.476,0-.7-.01-.98-.279-1.069-.975-.013-.1-.031-.21-.054-.313a1.8,1.8,0,0,0-3.548.164c-.118.9-.366,1.123-1.266,1.126-.773,0-1.546,0-2.312,0m12.578.9-.63,1.8h.595c1.784,0,3.568-.008,5.351,0a1.808,1.808,0,0,1,1.945,1.957c.007,1.466,0,2.932,0,4.4v.556L34.36,14c.011-.121.027-.223.027-.326,0-1.855.016-3.71-.006-5.564a2.6,2.6,0,0,0-2.5-2.657c-2.186-.069-4.376-.018-6.564-.018" fill="#fff"/>
        <path id="Trazado_605028" data-name="Trazado 605028" d="M114.434,84.889q-2.355,0-4.711,0c-.695,0-1.125-.363-1.114-.922.011-.541.426-.882,1.1-.883q4.79,0,9.581,0c.669,0,1.08.346,1.086.891s-.413.911-1.068.913c-1.623,0-3.246,0-4.87,0" transform="translate(-93.219 -71.309)" fill="#fff"/>
        <path id="Trazado_605029" data-name="Trazado 605029" d="M112.677,140.623c1.006,0,2.013,0,3.019,0,.642,0,1.04.336,1.06.862a.939.939,0,0,1-1.048.942q-3.019.012-6.037,0a.94.94,0,0,1-1.058-.93c.012-.531.406-.869,1.046-.874,1.006-.007,2.013,0,3.019,0" transform="translate(-93.222 -120.695)" fill="#fff"/>
        <path id="Trazado_605030" data-name="Trazado 605030" d="M112.681,257.307c-1.006,0-2.012.007-3.019,0-.646-.006-1.035-.341-1.05-.872a.936.936,0,0,1,1.055-.933q3.019-.014,6.037,0a.936.936,0,0,1,1.052.937c-.019.527-.412.862-1.057.867-1.006.009-2.012,0-3.019,0" transform="translate(-93.222 -219.29)" fill="#fff"/>
        <path id="Trazado_605031" data-name="Trazado 605031" d="M112.2,282.909c-.829,0-1.658.008-2.486,0-.682-.008-1.085-.343-1.1-.885-.014-.559.405-.922,1.11-.925q2.513-.011,5.025,0c.7,0,1.076.322,1.087.884.011.583-.375.919-1.1.927-.846.009-1.693,0-2.539,0" transform="translate(-93.221 -241.261)" fill="#fff"/>
        <path id="Trazado_605032" data-name="Trazado 605032" d="M59.3,201.231c.688-.918,1.346-1.81,2.02-2.689a.908.908,0,0,1,1.418-.162.84.84,0,0,1,.084,1.158c-.9,1.221-1.8,2.438-2.731,3.637a.858.858,0,0,1-1.346.086c-.289-.258-.557-.54-.825-.821a.9.9,0,0,1-.118-1.278.881.881,0,0,1,1.312-.073c.053.038.1.078.186.141" transform="translate(-49.427 -170.037)" fill="#fff"/>
        <path id="Trazado_605033" data-name="Trazado 605033" d="M59.314,258.84c.669-.892,1.291-1.768,1.971-2.6a1.41,1.41,0,0,1,.858-.5.851.851,0,0,1,.735,1.318c-.914,1.295-1.878,2.556-2.855,3.8a.831.831,0,0,1-1.232.038c-.305-.266-.587-.56-.865-.854a.9.9,0,0,1-.109-1.279.888.888,0,0,1,1.314-.063l.183.134" transform="translate(-49.437 -219.502)" fill="#fff"/>
        <path id="Trazado_605034" data-name="Trazado 605034" d="M59.325,143.718c.671-.892,1.314-1.753,1.963-2.608a.936.936,0,0,1,1.364-.321.914.914,0,0,1,.082,1.4q-1.259,1.7-2.538,3.385a.909.909,0,0,1-1.526.106c-.242-.232-.478-.47-.71-.712a.906.906,0,1,1,1.19-1.362c.041.029.085.056.175.116" transform="translate(-49.443 -120.685)" fill="#fff"/>
        <path id="Trazado_605035" data-name="Trazado 605035" d="M59.333,86.186c.69-.919,1.346-1.813,2.025-2.69a.891.891,0,0,1,1.481-.056.817.817,0,0,1,.026,1.033c-.908,1.235-1.821,2.467-2.759,3.679a.857.857,0,0,1-1.345.066c-.274-.248-.53-.517-.787-.783a.907.907,0,1,1,1.18-1.372l.18.122" transform="translate(-49.45 -71.301)" fill="#fff"/>
        <path id="Trazado_605036" data-name="Trazado 605036" d="M111.837,223.682c.705,0,1.41-.009,2.115,0a.9.9,0,1,1,.037,1.8q-2.221.027-4.442,0a.9.9,0,0,1-.936-.938.89.89,0,0,1,.952-.857c.758-.014,1.516,0,2.274,0" transform="translate(-93.221 -191.984)" fill="#fff"/>
        <path id="Trazado_605037" data-name="Trazado 605037" d="M111.791,110.385c-.723,0-1.446.007-2.169,0a.92.92,0,0,1-1.017-.905.934.934,0,0,1,1.032-.9q2.142-.012,4.284,0a.909.909,0,1,1-.015,1.8c-.705.008-1.41,0-2.116,0" transform="translate(-93.217 -93.19)" fill="#fff"/>
        <path id="Trazado_605038" data-name="Trazado 605038" d="M111.782,166.155c.723,0,1.446-.008,2.169,0a.917.917,0,0,1,1,.875.927.927,0,0,1-1.005.926q-2.168.015-4.337,0a.9.9,0,1,1,.009-1.8c.723-.009,1.446,0,2.169,0" transform="translate(-93.222 -142.609)" fill="#fff"/>
        <path id="Trazado_605039" data-name="Trazado 605039" d="M111.785,198.082c.705,0,1.41-.009,2.115,0,.64.011,1.033.354,1.044.88.011.542-.4.92-1.062.925q-2.115.017-4.23,0A.929.929,0,0,1,108.61,199c-.013-.544.394-.906,1.06-.916.7-.011,1.41,0,2.115,0" transform="translate(-93.22 -170.011)" fill="#fff"/>
        <path id="Trazado_605040" data-name="Trazado 605040" d="M198.092,132.181A10.851,10.851,0,1,1,208.9,143.1a10.877,10.877,0,0,1-10.8-10.915m19.893.047a9.04,9.04,0,1,0-9.128,9.06,9.053,9.053,0,0,0,9.128-9.06" transform="translate(-170.023 -104.167)" fill="#fff"/>
        <path id="Trazado_605041" data-name="Trazado 605041" d="M245.414,172.976c1.6-2.135,3.115-4.156,4.63-6.176a3.1,3.1,0,0,1,.3-.371.9.9,0,0,1,1.428,1.047,3.062,3.062,0,0,1-.3.437q-2.513,3.351-5.028,6.7c-.577.768-1.065.8-1.74.128-.5-.5-1-1-1.5-1.5a.908.908,0,1,1,1.257-1.291c.315.306.6.645.95,1.028" transform="translate(-208.432 -142.62)" fill="#fff"/>
      </g>
    </g>
  </g>
</svg>
