<svg xmlns="http://www.w3.org/2000/svg" xmlns:xlink="http://www.w3.org/1999/xlink" width="1030" height="389.312" viewBox="0 0 1030 389.312">
  <defs>
    <linearGradient id="linear-gradient" x1="0.506" y1="1.027" x2="0.5" gradientUnits="objectBoundingBox">
      <stop offset="0" stop-color="#def8f3"/>
      <stop offset="1" stop-color="#fff"/>
    </linearGradient>
    <linearGradient id="linear-gradient-2" x1="0.506" y1="1.027" x2="0.5" gradientUnits="objectBoundingBox">
      <stop offset="0" stop-color="#def8f3"/>
      <stop offset="0.414" stop-color="#e4f9f5"/>
      <stop offset="1" stop-color="#f6fdfc"/>
    </linearGradient>
    <clipPath id="clip-path">
      <path id="Trazado_600868" data-name="Trazado 600868" d="M17,0h996c9.389,0,17,7.316,17,16.341V372.97c0,9.025-7.611,16.341-17,16.341H17c-9.389,0-17-7.316-17-16.341V16.341C0,7.316,7.611,0,17,0Z" fill="url(#linear-gradient)"/>
    </clipPath>
    <clipPath id="clip-path-2">
      <rect id="Rectángulo_47881" data-name="Rectángulo 47881" width="95.701" height="97.284" fill="#144567"/>
    </clipPath>
    <clipPath id="clip-path-3">
      <rect id="Rectángulo_47882" data-name="Rectángulo 47882" width="99.872" height="96.574" fill="none"/>
    </clipPath>
    <clipPath id="clip-path-4">
      <rect id="Rectángulo_47909" data-name="Rectángulo 47909" width="98.25" height="91.95" fill="none"/>
    </clipPath>
    <clipPath id="clip-path-5">
      <rect id="Rectángulo_47912" data-name="Rectángulo 47912" width="92.171" height="92.086" fill="none"/>
    </clipPath>
  </defs>
  <g id="Grupo_161820" data-name="Grupo 161820" transform="translate(-285 -1563)">
    <g id="Grupo_161810" data-name="Grupo 161810" transform="translate(0 -4408)">
      <path id="Trazado_600867" data-name="Trazado 600867" d="M17,0h996c9.389,0,17,7.316,17,16.341V372.97c0,9.025-7.611,16.341-17,16.341H17c-9.389,0-17-7.316-17-16.341V16.341C0,7.316,7.611,0,17,0Z" transform="translate(285 5971)" fill="url(#linear-gradient-2)"/>
      <g id="Enmascarar_grupo_67" data-name="Enmascarar grupo 67" transform="translate(285 5971)" clip-path="url(#clip-path)">
        <path id="Trazado_113530" data-name="Trazado 113530" d="M1842.37,0V17.674h-7.909V39.96h-21.969v26.9h-13.184v67.622l-25.482,22.286v36.5h-15.38V157.919l-44.379-38.807V74.54h-20.209V64.551h-31.639v7.684h-19.332v86.836h-22.849V129.1h-15.818l-27.243,23.821v29.2h-16.7V53.792L1507.553,99.9h-21.968V82.225h-14.059v18.444h-24.607v50.716h-18.454V109.12h-28.121v23.053h-36.03v10.759h-15.818v10.759h-23.726v35.347h-14.062V98.364L1222.828,85.3v9.992h-10.545V228.231h-16.7V152.155h-16.7V187.5h-13.181v48.411h-13.184V158.3H1116.5v-7.684H1077.94v37.556l-21.2-18.537h-34.934l-19.551,17.1V92.214H961.83v70.7H947.987v47.838l-18.232,15.945V162.529L905.587,141.4,880.1,163.681V241.3H858.134V199.8H833.527v30.738H822.1V175.978H811.118V207.1l-27.684-24.208V159.839h14.94v-6.723H697.534l-20.872,18.25v25.743L652.5,175.978H630.527V165.6H594.057l-10.983,9.6v26.9H569.893V163.681l-29.88-26.128V41.5H446.862V200.566H432.8V183.66L420.5,172.9V159.072H411.71v12.294H401.6V136.4l-17.136-14.984V98.364H362.5v21.516H351.075V99.131H338.331v21.9l-19.769,17.291H303.619v13.061h-8.787v87.606H277.256V156l-12.3-10.757v-56.1h-8.787v56.1l-9.667,8.452v82.224H218.377V86.837l-21.09-18.446V33.043H133.135v29.97h-21.09V86.067h-29V186.352H73.16V143.124L47.453,165.6h-14.5V265.886H10.545v-87.6H0v147.9H2045.81V120.647H1994.4v97.6h-21.091V186.734l-34.272,29.97v-29.97h-21.093V69.931h-49.209V17.674h-17.579V0Z" transform="translate(-445 93.242)" fill="#91e8d6" opacity="0.15"/>
        <path id="Trazado_600882" data-name="Trazado 600882" d="M85.555,0,18.08,17.037,0,80.623l49.394,46.549,67.474-17.038L134.95,46.547Z" transform="translate(505 129.161)" fill="#fff" opacity="0.41"/>
        <path id="Trazado_600883" data-name="Trazado 600883" d="M100.788,0,21.3,20.071,0,94.979,58.19,149.817l79.489-20.072,21.3-74.91Z" transform="translate(277.021 106.516)" fill="#fff" opacity="0.41"/>
      </g>
    </g>
    <path id="Trazado_606886" data-name="Trazado 606886" d="M3.569,11.742V16H1.079V3.914H5.794a5.455,5.455,0,0,1,2.395.5,3.67,3.67,0,0,1,1.59,1.415,3.946,3.946,0,0,1,.556,2.088,3.47,3.47,0,0,1-1.216,2.8,5.065,5.065,0,0,1-3.366,1.025Zm0-2.017H5.794A2.187,2.187,0,0,0,7.3,9.26a1.691,1.691,0,0,0,.519-1.328A1.994,1.994,0,0,0,7.3,6.5a1.953,1.953,0,0,0-1.444-.564H3.569ZM14.418,16H12.011V3.25h2.407Zm7.18,0a2.664,2.664,0,0,1-.241-.805,2.9,2.9,0,0,1-2.266.971A3.189,3.189,0,0,1,16.9,15.4a2.456,2.456,0,0,1-.867-1.926A2.538,2.538,0,0,1,17.1,11.285a5.222,5.222,0,0,1,3.059-.772h1.1V10a1.48,1.48,0,0,0-.32-1,1.257,1.257,0,0,0-1.009-.374,1.429,1.429,0,0,0-.95.291.987.987,0,0,0-.344.8h-2.4a2.41,2.41,0,0,1,.481-1.444A3.182,3.182,0,0,1,18.079,7.23a4.961,4.961,0,0,1,1.976-.378,3.92,3.92,0,0,1,2.635.834,2.918,2.918,0,0,1,.975,2.345v3.893a4.294,4.294,0,0,0,.357,1.934V16Zm-1.984-1.668a2.066,2.066,0,0,0,.979-.237,1.554,1.554,0,0,0,.664-.635V11.916h-.9q-1.8,0-1.917,1.245l-.008.141a.96.96,0,0,0,.315.739A1.225,1.225,0,0,0,19.615,14.332Zm8.1-7.313.075,1.038a3.136,3.136,0,0,1,2.582-1.2,2.606,2.606,0,0,1,2.125.838,3.912,3.912,0,0,1,.714,2.507V16h-2.4V10.256a1.556,1.556,0,0,0-.332-1.108,1.486,1.486,0,0,0-1.1-.344,1.65,1.65,0,0,0-1.519.863V16h-2.4V7.019ZM37.561,16H35.154V7.019h2.407ZM35.013,4.694a1.181,1.181,0,0,1,.361-.888,1.556,1.556,0,0,1,1.963,0,1.175,1.175,0,0,1,.365.888,1.178,1.178,0,0,1-.369.9,1.539,1.539,0,0,1-1.951,0A1.178,1.178,0,0,1,35.013,4.694ZM40.118,16V8.778H38.781V7.019h1.336V6.6a3.368,3.368,0,0,1,1.042-2.611,4.191,4.191,0,0,1,2.893-.917,9.6,9.6,0,0,1,2.723.49l-.349,1.984a10.623,10.623,0,0,0-1.262-.311,6.2,6.2,0,0,0-.963-.071q-1.677,0-1.677,1.486v.365h1.768v1.76H42.525V16ZM47.9,16H45.488V7.019H47.9Zm5.719-1.768a1.573,1.573,0,0,0,1.079-.365,1.28,1.28,0,0,0,.432-.971h2.25a3.077,3.077,0,0,1-.5,1.673,3.286,3.286,0,0,1-1.341,1.179,4.2,4.2,0,0,1-1.88.419,3.9,3.9,0,0,1-3.038-1.224,4.845,4.845,0,0,1-1.112-3.383V11.4a4.79,4.79,0,0,1,1.1-3.312,3.854,3.854,0,0,1,3.03-1.237,3.778,3.778,0,0,1,2.7.959,3.4,3.4,0,0,1,1.033,2.552h-2.25a1.648,1.648,0,0,0-.432-1.139,1.6,1.6,0,0,0-2.362.173A3.541,3.541,0,0,0,51.9,11.38v.249a3.586,3.586,0,0,0,.423,2A1.463,1.463,0,0,0,53.615,14.232ZM63.949,16a2.664,2.664,0,0,1-.241-.805,2.9,2.9,0,0,1-2.266.971,3.189,3.189,0,0,1-2.187-.764,2.456,2.456,0,0,1-.867-1.926,2.538,2.538,0,0,1,1.058-2.191,5.222,5.222,0,0,1,3.059-.772h1.1V10a1.48,1.48,0,0,0-.32-1,1.257,1.257,0,0,0-1.009-.374,1.429,1.429,0,0,0-.95.291.987.987,0,0,0-.344.8h-2.4a2.41,2.41,0,0,1,.481-1.444A3.182,3.182,0,0,1,60.43,7.23a4.961,4.961,0,0,1,1.976-.378,3.92,3.92,0,0,1,2.635.834,2.918,2.918,0,0,1,.975,2.345v3.893a4.294,4.294,0,0,0,.357,1.934V16Zm-1.984-1.668a2.066,2.066,0,0,0,.979-.237,1.554,1.554,0,0,0,.664-.635V11.916h-.9q-1.8,0-1.917,1.245l-.008.141a.96.96,0,0,0,.315.739A1.225,1.225,0,0,0,61.965,14.332Zm10.94-5.063a6.517,6.517,0,0,0-.863-.066,1.757,1.757,0,0,0-1.785.921V16h-2.4V7.019h2.266l.066,1.071a2.223,2.223,0,0,1,2-1.237,2.514,2.514,0,0,1,.747.108Z" transform="translate(439 1833)" fill="#12263f"/>
    <path id="Trazado_606887" data-name="Trazado 606887" d="M10.916,16H8.425V10.82H3.569V16H1.079V3.914h2.49v4.9H8.425v-4.9h2.49Zm7.222,0a2.664,2.664,0,0,1-.241-.805,2.9,2.9,0,0,1-2.266.971,3.189,3.189,0,0,1-2.187-.764,2.456,2.456,0,0,1-.867-1.926,2.538,2.538,0,0,1,1.058-2.191,5.222,5.222,0,0,1,3.059-.772h1.1V10a1.48,1.48,0,0,0-.32-1,1.257,1.257,0,0,0-1.009-.374,1.429,1.429,0,0,0-.95.291.987.987,0,0,0-.344.8h-2.4a2.41,2.41,0,0,1,.481-1.444A3.182,3.182,0,0,1,14.618,7.23a4.961,4.961,0,0,1,1.976-.378,3.92,3.92,0,0,1,2.635.834,2.918,2.918,0,0,1,.975,2.345v3.893a4.294,4.294,0,0,0,.357,1.934V16Zm-1.984-1.668a2.066,2.066,0,0,0,.979-.237,1.554,1.554,0,0,0,.664-.635V11.916h-.9q-1.8,0-1.917,1.245l-.008.141a.96.96,0,0,0,.315.739A1.225,1.225,0,0,0,16.153,14.332Zm9.629-.1a1.573,1.573,0,0,0,1.079-.365,1.28,1.28,0,0,0,.432-.971h2.25a3.077,3.077,0,0,1-.5,1.673A3.286,3.286,0,0,1,27.7,15.747a4.2,4.2,0,0,1-1.88.419,3.9,3.9,0,0,1-3.038-1.224,4.845,4.845,0,0,1-1.112-3.383V11.4a4.79,4.79,0,0,1,1.1-3.312,3.854,3.854,0,0,1,3.03-1.237,3.778,3.778,0,0,1,2.7.959,3.4,3.4,0,0,1,1.033,2.552h-2.25a1.648,1.648,0,0,0-.432-1.139A1.6,1.6,0,0,0,24.5,9.4a3.541,3.541,0,0,0-.427,1.983v.249a3.586,3.586,0,0,0,.423,2A1.463,1.463,0,0,0,25.782,14.232Zm9.264,1.934a4.409,4.409,0,0,1-3.217-1.212,4.308,4.308,0,0,1-1.241-3.229v-.232a5.426,5.426,0,0,1,.523-2.42,3.838,3.838,0,0,1,1.482-1.644,4.159,4.159,0,0,1,2.187-.577,3.727,3.727,0,0,1,2.9,1.162,4.722,4.722,0,0,1,1.058,3.3v.979H33.021a2.229,2.229,0,0,0,.7,1.411,2.12,2.12,0,0,0,1.482.531,2.589,2.589,0,0,0,2.167-1l1.179,1.32a3.6,3.6,0,0,1-1.461,1.191A4.793,4.793,0,0,1,35.046,16.166Zm-.274-7.379a1.5,1.5,0,0,0-1.158.484,2.5,2.5,0,0,0-.569,1.384h3.337v-.192a1.786,1.786,0,0,0-.432-1.238A1.547,1.547,0,0,0,34.772,8.787Zm10.376.481a6.517,6.517,0,0,0-.863-.066,1.757,1.757,0,0,0-1.785.921V16H40.1V7.019h2.266l.066,1.071a2.223,2.223,0,0,1,2-1.237,2.514,2.514,0,0,1,.747.108Z" transform="translate(669 1833)" fill="#12263f"/>
    <path id="Trazado_606888" data-name="Trazado 606888" d="M5.545,13,8.284,3.914h2.772L6.848,16H4.25L.058,3.914H2.822ZM15.8,16.166a4.409,4.409,0,0,1-3.217-1.212,4.308,4.308,0,0,1-1.241-3.229v-.232a5.426,5.426,0,0,1,.523-2.42,3.838,3.838,0,0,1,1.482-1.644,4.159,4.159,0,0,1,2.187-.577,3.727,3.727,0,0,1,2.9,1.162,4.722,4.722,0,0,1,1.058,3.3v.979H13.779a2.229,2.229,0,0,0,.7,1.411,2.12,2.12,0,0,0,1.482.531,2.589,2.589,0,0,0,2.167-1l1.179,1.32a3.6,3.6,0,0,1-1.461,1.191A4.793,4.793,0,0,1,15.8,16.166Zm-.274-7.379a1.5,1.5,0,0,0-1.158.484,2.5,2.5,0,0,0-.569,1.384h3.337v-.192a1.786,1.786,0,0,0-.432-1.238A1.547,1.547,0,0,0,15.531,8.787Zm10.376.481a6.517,6.517,0,0,0-.863-.066,1.757,1.757,0,0,0-1.785.921V16h-2.4V7.019h2.266l.066,1.071a2.223,2.223,0,0,1,2-1.237,2.514,2.514,0,0,1,.747.108ZM29.592,16H27.185V7.019h2.407ZM27.044,4.694a1.181,1.181,0,0,1,.361-.888,1.556,1.556,0,0,1,1.963,0,1.175,1.175,0,0,1,.365.888,1.178,1.178,0,0,1-.369.9,1.539,1.539,0,0,1-1.951,0A1.178,1.178,0,0,1,27.044,4.694ZM32.149,16V8.778H30.813V7.019h1.336V6.6a3.368,3.368,0,0,1,1.042-2.611,4.191,4.191,0,0,1,2.893-.917,9.6,9.6,0,0,1,2.723.49l-.349,1.984A10.623,10.623,0,0,0,37.2,5.238a6.2,6.2,0,0,0-.963-.071q-1.677,0-1.677,1.486v.365h1.768v1.76H34.556V16Zm7.778,0H37.52V7.019h2.407Zm5.719-1.768a1.573,1.573,0,0,0,1.079-.365,1.28,1.28,0,0,0,.432-.971h2.25a3.077,3.077,0,0,1-.5,1.673,3.286,3.286,0,0,1-1.341,1.179,4.2,4.2,0,0,1-1.88.419,3.9,3.9,0,0,1-3.038-1.224,4.845,4.845,0,0,1-1.112-3.383V11.4a4.79,4.79,0,0,1,1.1-3.312,3.854,3.854,0,0,1,3.03-1.237,3.778,3.778,0,0,1,2.7.959,3.4,3.4,0,0,1,1.033,2.552h-2.25a1.648,1.648,0,0,0-.432-1.139,1.6,1.6,0,0,0-2.362.173,3.541,3.541,0,0,0-.427,1.983v.249a3.586,3.586,0,0,0,.423,2A1.463,1.463,0,0,0,45.646,14.232ZM55.98,16a2.664,2.664,0,0,1-.241-.805,2.9,2.9,0,0,1-2.266.971,3.189,3.189,0,0,1-2.187-.764,2.456,2.456,0,0,1-.867-1.926,2.538,2.538,0,0,1,1.058-2.191,5.222,5.222,0,0,1,3.059-.772h1.1V10a1.48,1.48,0,0,0-.32-1,1.257,1.257,0,0,0-1.009-.374,1.429,1.429,0,0,0-.95.291.987.987,0,0,0-.344.8h-2.4A2.41,2.41,0,0,1,51.1,8.272,3.182,3.182,0,0,1,52.461,7.23a4.961,4.961,0,0,1,1.976-.378,3.92,3.92,0,0,1,2.635.834,2.918,2.918,0,0,1,.975,2.345v3.893a4.294,4.294,0,0,0,.357,1.934V16ZM54,14.332a2.066,2.066,0,0,0,.979-.237,1.554,1.554,0,0,0,.664-.635V11.916h-.9q-1.8,0-1.917,1.245l-.008.141a.96.96,0,0,0,.315.739A1.225,1.225,0,0,0,54,14.332Zm10.94-5.063a6.517,6.517,0,0,0-.863-.066,1.757,1.757,0,0,0-1.785.921V16h-2.4V7.019h2.266l.066,1.071a2.223,2.223,0,0,1,2-1.237,2.514,2.514,0,0,1,.747.108Z" transform="translate(873 1833)" fill="#12263f"/>
    <path id="Trazado_606889" data-name="Trazado 606889" d="M7.9,13.51H3.536L2.706,16H.058l4.5-12.086H6.865L11.389,16H8.741ZM4.208,11.493H7.23L5.711,6.969ZM16.1,14.232a1.573,1.573,0,0,0,1.079-.365,1.28,1.28,0,0,0,.432-.971h2.25a3.077,3.077,0,0,1-.5,1.673,3.286,3.286,0,0,1-1.341,1.179,4.2,4.2,0,0,1-1.88.419A3.9,3.9,0,0,1,13.1,14.942a4.845,4.845,0,0,1-1.112-3.383V11.4a4.79,4.79,0,0,1,1.1-3.312,3.854,3.854,0,0,1,3.03-1.237,3.778,3.778,0,0,1,2.7.959,3.4,3.4,0,0,1,1.033,2.552h-2.25a1.648,1.648,0,0,0-.432-1.139,1.6,1.6,0,0,0-2.362.173,3.541,3.541,0,0,0-.427,1.983v.249a3.586,3.586,0,0,0,.423,2A1.463,1.463,0,0,0,16.1,14.232Zm8-9.421V7.019h1.536v1.76H24.1v4.482a1.07,1.07,0,0,0,.191.714.959.959,0,0,0,.73.216,3.826,3.826,0,0,0,.706-.058V15.95a4.938,4.938,0,0,1-1.453.216A2.29,2.29,0,0,1,21.7,13.618V8.778H20.387V7.019H21.7V4.811Zm8.251,10.276a3.008,3.008,0,0,1-2.457,1.079,2.837,2.837,0,0,1-2.2-.83,3.543,3.543,0,0,1-.776-2.432V7.019h2.4v5.809q0,1.4,1.278,1.4a1.732,1.732,0,0,0,1.677-.848V7.019h2.407V16H32.415ZM41.687,16a2.664,2.664,0,0,1-.241-.805,2.9,2.9,0,0,1-2.266.971,3.189,3.189,0,0,1-2.187-.764,2.456,2.456,0,0,1-.867-1.926,2.538,2.538,0,0,1,1.058-2.191,5.222,5.222,0,0,1,3.059-.772h1.1V10a1.48,1.48,0,0,0-.32-1,1.257,1.257,0,0,0-1.009-.374,1.429,1.429,0,0,0-.95.291.987.987,0,0,0-.344.8h-2.4a2.41,2.41,0,0,1,.481-1.444A3.182,3.182,0,0,1,38.167,7.23a4.961,4.961,0,0,1,1.976-.378,3.92,3.92,0,0,1,2.635.834,2.918,2.918,0,0,1,.975,2.345v3.893a4.294,4.294,0,0,0,.357,1.934V16ZM39.7,14.332a2.066,2.066,0,0,0,.979-.237,1.554,1.554,0,0,0,.664-.635V11.916h-.9q-1.8,0-1.917,1.245l-.008.141a.96.96,0,0,0,.315.739A1.225,1.225,0,0,0,39.7,14.332Zm10.94-5.063A6.517,6.517,0,0,0,49.78,9.2,1.757,1.757,0,0,0,48,10.123V16H45.6V7.019h2.266l.066,1.071a2.223,2.223,0,0,1,2-1.237,2.514,2.514,0,0,1,.747.108Z" transform="translate(1096 1833)" fill="#12263f"/>
    <path id="Rectángulo_47374" data-name="Rectángulo 47374" d="M0,0H400a0,0,0,0,1,0,0V29a26,26,0,0,1-26,26H23A23,23,0,0,1,0,32V0A0,0,0,0,1,0,0Z" transform="translate(600 1563)" fill="#91e8d6"/>
    <path id="Trazado_606885" data-name="Trazado 606885" d="M8.351,10.762H3.569V14H9.181v2h-8.1V3.914H9.164V5.931H3.569v2.88H8.351ZM13.016,16H10.608V3.25h2.407Zm6.109.166a4.409,4.409,0,0,1-3.217-1.212,4.308,4.308,0,0,1-1.241-3.229v-.232a5.426,5.426,0,0,1,.523-2.42,3.838,3.838,0,0,1,1.482-1.644,4.159,4.159,0,0,1,2.187-.577,3.727,3.727,0,0,1,2.9,1.162,4.722,4.722,0,0,1,1.058,3.3v.979H17.1a2.229,2.229,0,0,0,.7,1.411,2.12,2.12,0,0,0,1.482.531,2.589,2.589,0,0,0,2.167-1l1.179,1.32a3.6,3.6,0,0,1-1.461,1.191A4.793,4.793,0,0,1,19.125,16.166Zm-.274-7.379a1.5,1.5,0,0,0-1.158.484,2.5,2.5,0,0,0-.569,1.384h3.337v-.192a1.786,1.786,0,0,0-.432-1.238A1.547,1.547,0,0,0,18.851,8.787ZM26.43,7.019l.075,1a3.156,3.156,0,0,1,2.582-1.17,2.4,2.4,0,0,1,2.382,1.37,3.084,3.084,0,0,1,2.7-1.37,2.679,2.679,0,0,1,2.175.851,3.911,3.911,0,0,1,.714,2.561V16H34.647V10.272a1.71,1.71,0,0,0-.3-1.116A1.324,1.324,0,0,0,33.294,8.8,1.5,1.5,0,0,0,31.8,9.833L31.809,16h-2.4V10.281A1.689,1.689,0,0,0,29.1,9.152,1.337,1.337,0,0,0,28.057,8.8a1.555,1.555,0,0,0-1.478.847V16h-2.4V7.019Zm16.6,9.147a4.409,4.409,0,0,1-3.217-1.212,4.308,4.308,0,0,1-1.241-3.229v-.232a5.426,5.426,0,0,1,.523-2.42,3.838,3.838,0,0,1,1.482-1.644,4.159,4.159,0,0,1,2.187-.577,3.727,3.727,0,0,1,2.9,1.162,4.722,4.722,0,0,1,1.058,3.3v.979H41.006a2.229,2.229,0,0,0,.7,1.411,2.12,2.12,0,0,0,1.482.531,2.589,2.589,0,0,0,2.167-1l1.179,1.32a3.6,3.6,0,0,1-1.461,1.191A4.793,4.793,0,0,1,43.031,16.166Zm-.274-7.379A1.5,1.5,0,0,0,41.6,9.27a2.5,2.5,0,0,0-.569,1.384h3.337v-.192a1.786,1.786,0,0,0-.432-1.238A1.547,1.547,0,0,0,42.757,8.787Zm7.537-1.768.075,1.038a3.136,3.136,0,0,1,2.582-1.2,2.606,2.606,0,0,1,2.125.838A3.912,3.912,0,0,1,55.79,10.2V16h-2.4V10.256a1.556,1.556,0,0,0-.332-1.108,1.486,1.486,0,0,0-1.1-.344,1.65,1.65,0,0,0-1.519.863V16h-2.4V7.019ZM60.479,4.811V7.019h1.536v1.76H60.479v4.482a1.07,1.07,0,0,0,.191.714.959.959,0,0,0,.73.216,3.826,3.826,0,0,0,.706-.058V15.95a4.939,4.939,0,0,1-1.453.216,2.29,2.29,0,0,1-2.573-2.548V8.778H56.769V7.019h1.312V4.811Zm2.25,6.616a5.327,5.327,0,0,1,.515-2.382,3.768,3.768,0,0,1,1.482-1.619,4.323,4.323,0,0,1,2.245-.573,4.09,4.09,0,0,1,2.968,1.112,4.464,4.464,0,0,1,1.282,3.021l.017.614a4.694,4.694,0,0,1-1.154,3.316,4.472,4.472,0,0,1-6.2,0,4.777,4.777,0,0,1-1.158-3.387Zm2.4.17a3.357,3.357,0,0,0,.481,1.958,1.73,1.73,0,0,0,2.739.008,3.674,3.674,0,0,0,.49-2.141,3.324,3.324,0,0,0-.49-1.945,1.592,1.592,0,0,0-1.378-.69,1.566,1.566,0,0,0-1.361.686A3.736,3.736,0,0,0,65.128,11.6Zm12.451,1.922a.773.773,0,0,0-.436-.693,4.95,4.95,0,0,0-1.4-.452q-3.2-.672-3.2-2.723a2.468,2.468,0,0,1,.992-2,4,4,0,0,1,2.594-.8,4.307,4.307,0,0,1,2.735.805A2.538,2.538,0,0,1,79.887,9.75h-2.4a1.161,1.161,0,0,0-.332-.851,1.405,1.405,0,0,0-1.038-.336,1.436,1.436,0,0,0-.938.274.865.865,0,0,0-.332.7.739.739,0,0,0,.378.643A3.885,3.885,0,0,0,76.5,10.6a10.407,10.407,0,0,1,1.511.4,2.482,2.482,0,0,1,1.9,2.416,2.343,2.343,0,0,1-1.054,1.988,4.548,4.548,0,0,1-2.723.76,4.75,4.75,0,0,1-2-.4,3.363,3.363,0,0,1-1.374-1.1,2.565,2.565,0,0,1-.5-1.515h2.274a1.252,1.252,0,0,0,.473.979,1.877,1.877,0,0,0,1.179.34,1.737,1.737,0,0,0,1.042-.261A.814.814,0,0,0,77.579,13.518Zm7.736-2.075A5.413,5.413,0,0,1,86.258,8.1a3.057,3.057,0,0,1,2.577-1.245A2.751,2.751,0,0,1,91,7.832V3.25h2.407V16H91.242l-.116-.955a2.823,2.823,0,0,1-2.308,1.121,3.049,3.049,0,0,1-2.544-1.249A5.587,5.587,0,0,1,85.315,11.443Zm2.4.179a3.546,3.546,0,0,0,.44,1.937,1.433,1.433,0,0,0,1.278.673A1.605,1.605,0,0,0,91,13.293V9.743A1.582,1.582,0,0,0,89.449,8.8Q87.714,8.8,87.714,11.621ZM99.4,16.166a4.409,4.409,0,0,1-3.217-1.212,4.308,4.308,0,0,1-1.241-3.229v-.232a5.426,5.426,0,0,1,.523-2.42,3.838,3.838,0,0,1,1.482-1.644,4.159,4.159,0,0,1,2.187-.577,3.727,3.727,0,0,1,2.9,1.162,4.722,4.722,0,0,1,1.058,3.3v.979H97.376a2.229,2.229,0,0,0,.7,1.411,2.12,2.12,0,0,0,1.482.531,2.589,2.589,0,0,0,2.167-1l1.179,1.32a3.6,3.6,0,0,1-1.461,1.191A4.793,4.793,0,0,1,99.4,16.166Zm-.274-7.379a1.5,1.5,0,0,0-1.158.484,2.5,2.5,0,0,0-.569,1.384h3.337v-.192a1.786,1.786,0,0,0-.432-1.238A1.547,1.547,0,0,0,99.128,8.787ZM106.989,16h-2.407V3.25h2.407Zm9.944-1.768a1.573,1.573,0,0,0,1.079-.365,1.28,1.28,0,0,0,.432-.971h2.25a3.077,3.077,0,0,1-.5,1.673,3.286,3.286,0,0,1-1.341,1.179,4.2,4.2,0,0,1-1.88.419,3.9,3.9,0,0,1-3.038-1.224,4.845,4.845,0,0,1-1.112-3.383V11.4a4.79,4.79,0,0,1,1.1-3.312,3.854,3.854,0,0,1,3.03-1.237,3.778,3.778,0,0,1,2.7.959,3.4,3.4,0,0,1,1.033,2.552h-2.25a1.648,1.648,0,0,0-.432-1.139,1.6,1.6,0,0,0-2.362.173,3.541,3.541,0,0,0-.427,1.983v.249a3.586,3.586,0,0,0,.423,2A1.463,1.463,0,0,0,116.933,14.232ZM124.595,16h-2.407V7.019h2.407ZM122.046,4.694a1.181,1.181,0,0,1,.361-.888,1.556,1.556,0,0,1,1.963,0,1.175,1.175,0,0,1,.365.888,1.178,1.178,0,0,1-.369.9,1.539,1.539,0,0,1-1.951,0A1.178,1.178,0,0,1,122.046,4.694Zm8.259,9.538a1.573,1.573,0,0,0,1.079-.365,1.28,1.28,0,0,0,.432-.971h2.25a3.077,3.077,0,0,1-.5,1.673,3.286,3.286,0,0,1-1.341,1.179,4.2,4.2,0,0,1-1.88.419,3.9,3.9,0,0,1-3.038-1.224,4.845,4.845,0,0,1-1.112-3.383V11.4a4.79,4.79,0,0,1,1.1-3.312,3.854,3.854,0,0,1,3.03-1.237,3.778,3.778,0,0,1,2.7.959,3.4,3.4,0,0,1,1.033,2.552h-2.25a1.648,1.648,0,0,0-.432-1.139,1.6,1.6,0,0,0-2.362.173,3.541,3.541,0,0,0-.427,1.983v.249a3.586,3.586,0,0,0,.423,2A1.463,1.463,0,0,0,130.306,14.232ZM137.967,16H135.56V3.25h2.407Zm1.6-4.574a5.327,5.327,0,0,1,.515-2.382,3.767,3.767,0,0,1,1.482-1.619,4.323,4.323,0,0,1,2.245-.573,4.09,4.09,0,0,1,2.968,1.112,4.464,4.464,0,0,1,1.282,3.021l.017.614a4.694,4.694,0,0,1-1.154,3.316,4.472,4.472,0,0,1-6.2,0,4.777,4.777,0,0,1-1.158-3.387Zm2.4.17a3.357,3.357,0,0,0,.481,1.958,1.73,1.73,0,0,0,2.739.008,3.674,3.674,0,0,0,.49-2.141,3.324,3.324,0,0,0-.49-1.945,1.592,1.592,0,0,0-1.378-.69,1.566,1.566,0,0,0-1.361.686A3.735,3.735,0,0,0,141.968,11.6Zm14.468.145V16h-2.49V3.914h4.715a5.455,5.455,0,0,1,2.395.5,3.67,3.67,0,0,1,1.59,1.415,3.946,3.946,0,0,1,.556,2.088,3.47,3.47,0,0,1-1.216,2.8,5.065,5.065,0,0,1-3.366,1.025Zm0-2.017h2.225a2.187,2.187,0,0,0,1.507-.465,1.691,1.691,0,0,0,.519-1.328,1.994,1.994,0,0,0-.523-1.436,1.953,1.953,0,0,0-1.444-.564h-2.283ZM174.748,16h-2.49V10.82H167.4V16h-2.49V3.914h2.49v4.9h4.856v-4.9h2.49Zm6.641-3,2.739-9.089H186.9L182.692,16h-2.6L175.9,3.914h2.764Zm12.85.506h-4.366l-.83,2.49h-2.648l4.5-12.086H193.2L197.725,16h-2.648Zm-3.694-2.017h3.021l-1.519-4.524Z" transform="translate(698 1580)" fill="#12263f"/>
    <rect id="Rectángulo_47375" data-name="Rectángulo 47375" width="820" height="4" transform="translate(390.5 1563)" fill="#66b9a8"/>
    <g id="Grupo_161802" data-name="Grupo 161802" transform="translate(397 1654)">
      <path id="Trazado_600880" data-name="Trazado 600880" d="M103.266,0,21.822,21.822,0,103.265l59.62,59.622,81.443-21.823,21.824-81.445Z" transform="translate(-0.001 0.001)" fill="#91e8d6"/>
      <path id="Trazado_601791" data-name="Trazado 601791" d="M0,1.323,2.358,0V44.818L.137,46.036Z" transform="matrix(0.259, 0.966, -0.966, 0.259, 68.571, 0)" fill="#833343"/>
    </g>
    <g id="Grupo_161803" data-name="Grupo 161803" transform="translate(612 1653.658)">
      <path id="Trazado_600880-2" data-name="Trazado 600880" d="M103.266,0,21.822,21.822,0,103.265l59.62,59.622,81.443-21.823,21.824-81.445Z" transform="translate(-0.001 0.001)" fill="#b1f5e7"/>
      <path id="Trazado_601791-2" data-name="Trazado 601791" d="M0,1.323,2.358,0V44.818L.137,46.036Z" transform="matrix(0.259, 0.966, -0.966, 0.259, 68.57, 0)" fill="#833343"/>
    </g>
    <g id="Grupo_161804" data-name="Grupo 161804" transform="translate(826 1653.658)">
      <path id="Trazado_600880-3" data-name="Trazado 600880" d="M103.266,0,21.822,21.822,0,103.265l59.62,59.622,81.443-21.823,21.824-81.445Z" transform="translate(-0.001 0.001)" fill="#91e8d6"/>
      <path id="Trazado_601791-3" data-name="Trazado 601791" d="M0,1.323,2.358,0V44.818L.137,46.036Z" transform="matrix(0.259, 0.966, -0.966, 0.259, 68.57, 0)" fill="#833343"/>
    </g>
    <g id="Grupo_161805" data-name="Grupo 161805" transform="translate(1041 1653.658)">
      <path id="Trazado_600880-4" data-name="Trazado 600880" d="M103.266,0,21.822,21.822,0,103.265l59.62,59.622,81.443-21.823,21.824-81.445Z" transform="translate(0 0.001)" fill="#b1f5e7"/>
      <path id="Trazado_601791-4" data-name="Trazado 601791" d="M0,1.323,2.358,0V44.818L.137,46.036Z" transform="matrix(0.259, 0.966, -0.966, 0.259, 68.571, 0)" fill="#833343"/>
    </g>
    <g id="Grupo_161814" data-name="Grupo 161814" transform="translate(646 1687)">
      <g id="Grupo_161813" data-name="Grupo 161813" clip-path="url(#clip-path-2)">
        <path id="Trazado_604467" data-name="Trazado 604467" d="M10.517,28.237l6.359-8.851c-.562-.78-1.249-1.721-1.923-2.671-1.3-1.834-1.043-3.528.756-4.845q3.56-2.6,7.144-5.176a3.135,3.135,0,0,1,4.773.768c.7.941,1.382,1.893,1.968,2.7l10.413-3.4c0-.944-.007-2.143,0-3.343A3.144,3.144,0,0,1,43.434.006q4.413-.013,8.826,0a3.165,3.165,0,0,1,3.436,3.4c.009,1.173,0,2.347,0,3.355l10.4,3.391c.618-.842,1.323-1.819,2.046-2.783A3.094,3.094,0,0,1,72.7,6.591q3.78,2.632,7.512,5.334a3.1,3.1,0,0,1,.717,4.566c-.689.991-1.412,1.958-2.051,2.84l6.362,8.829c.917-.279,2.057-.632,3.2-.974a3.181,3.181,0,0,1,4.314,2.21q1.38,4.182,2.722,8.377a3.2,3.2,0,0,1-2.246,4.375c-1.078.366-2.164.711-3.32,1.09.086,1.022.246,2.022.239,3.021-.018,2.35-.076,4.7-.208,7.047-.034.6.126.811.639.965.968.292,1.931.6,2.881.95a3.086,3.086,0,0,1,2.033,3.993q-1.4,4.485-2.911,8.933a3.078,3.078,0,0,1-4.015,1.989c-1.032-.306-2.041-.691-3.079-.976a.878.878,0,0,0-.768.256c-.948,1.408-1.788,2.889-2.773,4.269s-2.1,2.665-3.223,4.077c.65.907,1.335,1.848,2.007,2.8,1.3,1.842,1.049,3.532-.748,4.849q-3.558,2.607-7.144,5.175a3.143,3.143,0,0,1-4.775-.766c-.7-.941-1.382-1.889-1.97-2.693L55.7,90.511c0,.972.008,2.176,0,3.379a3.143,3.143,0,0,1-3.359,3.383q-4.511.02-9.022,0a3.142,3.142,0,0,1-3.305-3.337c-.012-1.2,0-2.41,0-3.332-3.375-1.2-6.587-2.349-9.815-3.452a1.011,1.011,0,0,0-.837.344c-.66.809-1.24,1.682-1.871,2.515a3.1,3.1,0,0,1-4.565.725q-3.755-2.668-7.461-5.406a3.083,3.083,0,0,1-.706-4.494c.706-1.017,1.446-2.011,2.077-2.886l-6.361-8.829c-.951.291-2.094.651-3.244.99a3.173,3.173,0,0,1-4.255-2.177Q1.555,63.657.2,59.365A3.134,3.134,0,0,1,2.33,55.18c1.137-.386,2.284-.748,3.342-1.093V43.2c-.881-.3-1.952-.663-3.027-1.021C.407,41.433-.381,39.922.33,37.7q1.314-4.1,2.646-8.2a3.175,3.175,0,0,1,4.429-2.267c1.084.344,2.166.7,3.112,1M78.369,82.689c-.694-.961-1.328-1.83-1.953-2.7-1.247-1.745-1.084-2.989.235-4.679,1.883-2.414,3.692-4.894,5.4-7.437,1.243-1.854,2.391-2.391,4.538-1.7,1.012.325,2.025.644,3.09.983l2.906-8.844c-1.224-.4-2.343-.755-3.45-1.141-1.814-.632-2.425-1.859-2.352-3.784.117-3.093.125-6.2.005-9.289-.079-2.028.545-3.228,2.491-3.878,1.079-.36,2.161-.711,3.311-1.089l-2.921-8.94c-1.2.385-2.247.73-3.3,1.063-1.909.6-3.091.04-4.229-1.62-1.805-2.632-3.7-5.21-5.65-7.735a3.267,3.267,0,0,1-.226-4.367c.651-.927,1.322-1.839,2.025-2.814l-7.6-5.525c-.705.96-1.359,1.855-2.017,2.747-1.256,1.7-2.565,1.95-4.53,1.215-2.834-1.06-5.706-2.037-8.61-2.885-2.135-.623-2.979-1.495-2.987-3.7,0-1.129,0-2.258,0-3.369H43.126c0,1.094,0,2.133,0,3.172-.007,2.241-.888,3.188-3.02,3.805-2.874.833-5.727,1.768-8.526,2.825-2.121.8-3.348.592-4.678-1.228-.646-.883-1.288-1.769-1.964-2.7l-7.6,5.519c.719.994,1.4,1.912,2.052,2.843,1.157,1.642.98,2.934-.255,4.53q-2.9,3.747-5.569,7.672c-1.139,1.676-2.366,2.227-4.324,1.57-1.042-.349-2.082-.7-3.21-1.086l-2.91,8.925c.687.223,1.274.413,1.859.605s1.183.371,1.762.591a3.336,3.336,0,0,1,2.192,3.62c-.112,3.061-.163,6.132-.043,9.191.093,2.367-.464,3.431-2.731,4.18L3.119,58.243,6.042,67.1c1.08-.355,2.037-.672,3-.983,2.274-.738,3.368-.213,4.676,1.76,1.655,2.5,3.424,4.927,5.283,7.277,1.4,1.766,1.573,3,.257,4.836-.637.889-1.279,1.773-1.947,2.7l7.6,5.4c.707-.965,1.34-1.835,1.978-2.7,1.3-1.76,2.576-2,4.6-1.25,2.9,1.072,5.843,2.034,8.808,2.9,1.906.558,2.833,1.539,2.845,3.53.008,1.164,0,2.329,0,3.5h9.435c0-1.107,0-2.148,0-3.189.007-2.2.87-3.142,2.947-3.76,2.962-.881,5.9-1.871,8.8-2.939,1.88-.693,3.171-.442,4.375,1.184.676.913,1.343,1.833,2.074,2.831l7.6-5.511" transform="translate(0 0)" fill="#144567"/>
        <path id="Trazado_604468" data-name="Trazado 604468" d="M87.16,91.7l-7.6,5.511c-.731-1-1.4-1.918-2.074-2.83-1.2-1.625-2.495-1.876-4.375-1.184-2.9,1.068-5.834,2.058-8.8,2.939-2.077.617-2.94,1.56-2.947,3.76,0,1.041,0,2.083,0,3.189H51.935c0-1.17.006-2.334,0-3.5-.013-1.991-.94-2.971-2.845-3.53-2.965-.869-5.91-1.831-8.808-2.9-2.026-.749-3.3-.511-4.6,1.25-.639.866-1.272,1.736-1.978,2.7l-7.6-5.4c.668-.926,1.311-1.811,1.947-2.7,1.317-1.837,1.141-3.07-.256-4.836-1.859-2.349-3.628-4.78-5.283-7.277-1.308-1.972-2.4-2.5-4.676-1.76-.959.311-1.915.629-3,.983L11.91,67.252l3.042-1.007c2.267-.749,2.824-1.814,2.731-4.18-.12-3.059-.068-6.13.043-9.191a3.336,3.336,0,0,0-2.192-3.62c-.579-.219-1.174-.4-1.762-.591s-1.172-.382-1.859-.605l2.91-8.925c1.128.382,2.169.736,3.211,1.086,1.958.656,3.185.106,4.324-1.571q2.664-3.919,5.569-7.672c1.235-1.6,1.412-2.888.255-4.53-.657-.932-1.333-1.849-2.052-2.843l7.6-5.519c.676.929,1.318,1.815,1.964,2.7,1.33,1.819,2.557,2.029,4.678,1.227,2.8-1.058,5.651-1.993,8.525-2.825,2.132-.617,3.013-1.565,3.02-3.8,0-1.039,0-2.078,0-3.172h9.416c0,1.111,0,2.24,0,3.369.008,2.2.852,3.074,2.987,3.7,2.9.847,5.776,1.824,8.61,2.885,1.965.735,3.274.486,4.53-1.215.659-.891,1.312-1.786,2.017-2.746l7.6,5.525c-.7.975-1.374,1.888-2.025,2.814a3.268,3.268,0,0,0,.226,4.368c1.953,2.526,3.845,5.1,5.65,7.735,1.138,1.66,2.32,2.22,4.229,1.62,1.056-.332,2.109-.678,3.3-1.063l2.921,8.94c-1.15.378-2.232.728-3.311,1.089-1.946.65-2.57,1.85-2.491,3.878.12,3.092.112,6.2-.006,9.289-.073,1.924.539,3.151,2.352,3.783,1.107.386,2.225.737,3.449,1.141l-2.905,8.844c-1.065-.339-2.079-.658-3.09-.983-2.148-.691-3.3-.153-4.539,1.7-1.705,2.543-3.513,5.023-5.4,7.437-1.318,1.69-1.482,2.934-.235,4.679.625.875,1.258,1.744,1.952,2.7m-26.5-38.632c2.824-3.1,3.049-6.624.476-9.256a6.287,6.287,0,0,0-8.613-.349A6.084,6.084,0,0,0,50.4,47.536a6.262,6.262,0,0,0,2.235,5.523L48.4,56.143l-2.253-1.372c2.372-2.863,2.485-5.818.294-8.049a5.483,5.483,0,0,0-7.392-.414,5.371,5.371,0,0,0-1.969,3.5,5.7,5.7,0,0,0,1.892,5,6.525,6.525,0,0,0-4.307,6.751c.061,2.155.009,4.313.012,6.469,0,1.674.487,2.164,2.148,2.165,3.43,0,6.859,0,10.341,0,.247,1.3,1.122,1.592,2.308,1.584,4.8-.036,9.607-.014,14.411-.015,1.438,0,1.713-.188,2.285-1.569,3.507,0,7.034.007,10.561,0,1.289,0,1.858-.573,1.876-1.846.014-.947,0-1.9,0-2.843,0-1.144-.055-2.291.01-3.43.194-3.381-1.025-5.911-4.277-7.251,2.442-2.958,2.529-5.946.27-8.176a5.486,5.486,0,0,0-7.323-.344,5.368,5.368,0,0,0-1.968,3.5,5.647,5.647,0,0,0,1.839,4.95l-2.279,1.38-4.226-3.075M82.19,42.178a29.844,29.844,0,0,1-26.6,45.1c-5.481-.138-14.015-3-15.826-5.432H43.64V78.72H41.714c-2.419,0-4.837-.015-7.256.007-1.345.013-2.152.832-1.781,1.938,1.025,3.054,2.151,6.073,3.259,9.164l2.938-1.077L37.3,84.312a33.153,33.153,0,0,0,44.984-5.958c10.011-12.428,8.685-28.5,2.5-37.721l-2.59,1.546M76.018,31C68.553,25.844,60.6,23.784,51.9,25.029A32.065,32.065,0,0,0,30.575,37.381c-9.351,11.9-8.5,27.516-2.088,37.307l2.551-1.5a29.939,29.939,0,0,1,8.875-40.2c11.881-7.974,26.2-5.578,33.846.449H69.724v3.058c.322.023.579.058.835.058,2.746,0,5.491.013,8.237,0,1.744-.01,2.345-.9,1.748-2.563q-1.39-3.869-2.8-7.729c-.1-.263-.236-.51-.362-.778l-2.858,1.065L76.018,31" transform="translate(-8.79 -9.009)" fill="#fff"/>
        <path id="Trazado_604469" data-name="Trazado 604469" d="M124.753,136.786l4.226,3.075,2.279-1.38a5.648,5.648,0,0,1-1.84-4.95,5.369,5.369,0,0,1,1.969-3.5,5.486,5.486,0,0,1,7.323.344c2.259,2.229,2.171,5.218-.27,8.176,3.253,1.34,4.471,3.87,4.277,7.251-.066,1.14-.01,2.287-.01,3.43,0,.947.011,1.9,0,2.843-.019,1.272-.588,1.842-1.876,1.846-3.527.01-7.055,0-10.561,0-.572,1.38-.847,1.568-2.285,1.569-4.8,0-9.608-.02-14.411.015-1.186.009-2.061-.279-2.308-1.584-3.482,0-6.912,0-10.341,0-1.661,0-2.146-.492-2.148-2.165,0-2.156.049-4.314-.012-6.469a6.526,6.526,0,0,1,4.307-6.751,5.7,5.7,0,0,1-1.892-5,5.37,5.37,0,0,1,1.969-3.5,5.482,5.482,0,0,1,7.392.414c2.191,2.231,2.077,5.186-.294,8.049l2.253,1.372,4.239-3.084a6.262,6.262,0,0,1-2.235-5.523,6.083,6.083,0,0,1,2.118-4.075,6.287,6.287,0,0,1,8.613.349c2.573,2.632,2.348,6.159-.476,9.256m2.242,15.527c0-2.818.093-5.557-.029-8.286a4.583,4.583,0,0,0-4.5-4.218c-1.108-.035-2.219-.026-3.328,0a4.458,4.458,0,0,0-4.561,3.9c-.216,2.841-.052,5.711-.052,8.606Zm-25.079-1.6h9.4c0-2.189.049-4.311-.016-6.428a3.065,3.065,0,0,0-3.019-2.906c-1.109-.038-2.222-.038-3.332,0a3.045,3.045,0,0,0-3.016,2.9c-.065,2.118-.016,4.239-.016,6.43m28.239.008h9.4c0-2.212.06-4.364-.02-6.512a3.043,3.043,0,0,0-2.988-2.829c-1.109-.041-2.222-.038-3.332,0a3.079,3.079,0,0,0-3.051,3.078c-.037,2.056-.009,4.113-.009,6.265m-9.387-21.9a3.133,3.133,0,1,0,3.1,3.141,3.14,3.14,0,0,0-3.1-3.141m-14.115,7.835a2.348,2.348,0,1,0-2.384-2.335,2.37,2.37,0,0,0,2.384,2.335m30.556-2.329a2.348,2.348,0,1,0-2.391,2.328,2.367,2.367,0,0,0,2.391-2.328" transform="translate(-72.885 -92.728)" fill="#144567"/>
        <path id="Trazado_604470" data-name="Trazado 604470" d="M140.445,122.263l2.59-1.546c6.185,9.22,7.511,25.293-2.5,37.722A33.153,33.153,0,0,1,95.552,164.4l1.577,4.441-2.938,1.077c-1.107-3.091-2.234-6.111-3.259-9.165-.371-1.106.436-1.925,1.781-1.938,2.418-.022,4.837-.007,7.256-.008h1.925v3.122H98.015c1.811,2.428,10.345,5.294,15.826,5.432a29.844,29.844,0,0,0,26.6-45.1" transform="translate(-67.045 -89.094)" fill="#144567"/>
        <path id="Trazado_604471" data-name="Trazado 604471" d="M108.983,66.124l-1.5-4.451,2.858-1.065c.126.268.266.515.362.778q1.409,3.862,2.8,7.729c.6,1.662,0,2.553-1.748,2.563-2.746.015-5.491.006-8.237,0-.256,0-.513-.035-.835-.058V68.564h4.034c-7.646-6.027-21.964-8.424-33.846-.449A29.939,29.939,0,0,0,64,108.315l-2.551,1.5c-6.411-9.791-7.263-25.406,2.088-37.307A32.065,32.065,0,0,1,84.868,60.157c8.7-1.245,16.65.815,24.114,5.966" transform="translate(-41.755 -44.138)" fill="#144567"/>
        <path id="Trazado_604472" data-name="Trazado 604472" d="M171.261,192.163H158.792c0-2.9-.165-5.765.052-8.606a4.459,4.459,0,0,1,4.561-3.9c1.109-.021,2.22-.03,3.328.005a4.583,4.583,0,0,1,4.5,4.218c.122,2.729.029,5.468.029,8.286" transform="translate(-117.151 -132.578)" fill="#fff"/>
        <path id="Trazado_604473" data-name="Trazado 604473" d="M110.773,194.971c0-2.19-.049-4.312.016-6.43a3.044,3.044,0,0,1,3.016-2.9c1.109-.038,2.222-.038,3.332,0a3.064,3.064,0,0,1,3.019,2.905c.065,2.118.016,4.239.016,6.429Z" transform="translate(-81.742 -136.987)" fill="#fff"/>
        <path id="Trazado_604474" data-name="Trazado 604474" d="M218.593,194.978c0-2.151-.028-4.208.009-6.264a3.08,3.08,0,0,1,3.051-3.079c1.11-.036,2.222-.038,3.332,0a3.044,3.044,0,0,1,2.988,2.829c.08,2.147.02,4.3.02,6.512Z" transform="translate(-161.323 -136.986)" fill="#fff"/>
        <path id="Trazado_604475" data-name="Trazado 604475" d="M173.871,137.778a3.133,3.133,0,1,1-3.164,3.074,3.147,3.147,0,0,1,3.164-3.074" transform="translate(-125.988 -101.686)" fill="#fff"/>
        <path id="Trazado_604476" data-name="Trazado 604476" d="M122.186,154.46a2.348,2.348,0,1,1,2.311-2.409,2.366,2.366,0,0,1-2.311,2.409" transform="translate(-88.418 -110.533)" fill="#fff"/>
        <path id="Trazado_604477" data-name="Trazado 604477" d="M232.317,152.132a2.348,2.348,0,1,1-2.353-2.367,2.366,2.366,0,0,1,2.353,2.367" transform="translate(-167.994 -110.533)" fill="#fff"/>
      </g>
    </g>
    <g id="Grupo_161815" data-name="Grupo 161815" transform="translate(429 1684.73)">
      <g id="Grupo_161815-2" data-name="Grupo 161815" clip-path="url(#clip-path-3)">
        <path id="Trazado_604478" data-name="Trazado 604478" d="M0,72.1c.287-1.429.479-2.884.874-4.282A22.612,22.612,0,0,1,37.819,57.144c.143.129.291.253.516.447l3.039-1.868c1.826-1.123,3.659-2.235,5.469-3.385a1.23,1.23,0,0,0,.581-.779c.048-2.074.026-4.15.026-6.284C40,44.528,34.113,41.2,29.99,34.987a21.961,21.961,0,0,1-3.541-14.858,22.629,22.629,0,0,1,44.946-.289A22.758,22.758,0,0,1,50.383,45.265c0,2.158-.008,4.263.015,6.368a.763.763,0,0,0,.334.528q5,3.108,10.01,6.178c9.487-10.109,25.035-8.761,33.267.353A22.646,22.646,0,1,1,58.877,60.64c-2.683-1.654-5.435-3.2-8.014-5a2.9,2.9,0,0,0-3.91.032c-2.081,1.485-4.335,2.729-6.585,4.118.229.333.419.62.62.9A22.624,22.624,0,1,1,.171,76.456,4.421,4.421,0,0,0,0,75.81V72.1M29.227,22.654a19.7,19.7,0,1,0,19.721-19.7,19.738,19.738,0,0,0-19.721,19.7M22.65,93.649A19.724,19.724,0,1,0,2.927,73.928,19.7,19.7,0,0,0,22.65,93.649m54.568,0a19.724,19.724,0,1,0-19.662-19.78,19.719,19.719,0,0,0,19.662,19.78" transform="translate(0 0)" fill="#144567"/>
        <path id="Trazado_604479" data-name="Trazado 604479" d="M112.132,31.024a19.7,19.7,0,1,1,19.605,19.744,19.687,19.687,0,0,1-19.605-19.744m26.37-2.19c1.852-4.218,1.159-7.855-1.908-10.248a7.733,7.733,0,0,0-9.493-.006c-3.136,2.425-3.785,5.987-1.859,10.383a6.087,6.087,0,0,0-2.877,5.2q-.035,3.265,0,6.531a2.759,2.759,0,0,0,3.091,3.067q6.58.025,13.16,0a2.694,2.694,0,0,0,3.022-3c.015-2.047-.034-4.1.013-6.141a6.036,6.036,0,0,0-3.15-5.783" transform="translate(-82.905 -8.37)" fill="#fff"/>
        <path id="Trazado_604480" data-name="Trazado 604480" d="M30.952,247.4a19.724,19.724,0,1,1,19.687-19.753A19.72,19.72,0,0,1,30.952,247.4m6.674-21.9c1.777-4.272,1.17-7.728-1.744-10.1a7.744,7.744,0,0,0-9.337-.4,7.641,7.641,0,0,0-2.956,3.89,7.878,7.878,0,0,0,.792,6.728,6.087,6.087,0,0,0-2.907,5.295c0,2.145-.024,4.29.007,6.435.03,2.1,1.034,3.08,3.155,3.086q6.483.019,12.967,0c2.159-.006,3.13-.995,3.148-3.181.016-1.82-.058-3.643.019-5.459.114-2.708-.673-4.923-3.143-6.3" transform="translate(-8.302 -153.749)" fill="#fff"/>
        <path id="Trazado_604481" data-name="Trazado 604481" d="M240.482,247.4a19.724,19.724,0,1,1,19.747-19.6,19.718,19.718,0,0,1-19.747,19.6m-6.53-21.77a5.859,5.859,0,0,0-2.89,4.876c-.073,2.37-.069,4.746-.006,7.117a2.613,2.613,0,0,0,2.84,2.8q6.776.056,13.554,0a2.624,2.624,0,0,0,2.862-2.865c.029-2.372.052-4.747-.012-7.118a5.485,5.485,0,0,0-2.619-4.64c-.179-.118-.346-.254-.512-.377a7.78,7.78,0,1,0-13.217.206" transform="translate(-163.264 -153.749)" fill="#fff"/>
        <path id="Trazado_604482" data-name="Trazado 604482" d="M167.476,44.818a6.036,6.036,0,0,1,3.15,5.783c-.047,2.046,0,4.094-.013,6.141a2.694,2.694,0,0,1-3.022,3q-6.58.025-13.16,0a2.758,2.758,0,0,1-3.091-3.067q-.04-3.265,0-6.531a6.087,6.087,0,0,1,2.877-5.2c-1.926-4.4-1.276-7.958,1.859-10.382a7.732,7.732,0,0,1,9.493.006c3.066,2.392,3.76,6.029,1.908,10.247m.213,11.964c0-2.307.022-4.515-.007-6.722-.024-1.8-1.257-3.34-3.659-2.285a7.662,7.662,0,0,1-6.33.044c-1.786-.761-3.219-.092-3.354,1.83-.165,2.349-.039,4.719-.039,7.133Zm-6.948-11.241a4.844,4.844,0,1,0-4.767-4.909,4.85,4.85,0,0,0,4.767,4.909" transform="translate(-111.879 -24.354)" fill="#144567"/>
        <path id="Trazado_604483" data-name="Trazado 604483" d="M66.658,241.577c2.469,1.374,3.257,3.589,3.143,6.3-.077,1.817,0,3.639-.018,5.459-.019,2.186-.989,3.175-3.148,3.181q-6.483.019-12.967,0c-2.121-.006-3.125-.981-3.155-3.086-.031-2.144-.009-4.29-.007-6.435a6.088,6.088,0,0,1,2.908-5.295,7.877,7.877,0,0,1-.792-6.728,7.641,7.641,0,0,1,2.956-3.89,7.744,7.744,0,0,1,9.337.4c2.914,2.372,3.52,5.829,1.744,10.1m.2,11.989c0-2.354.044-4.594-.013-6.832-.054-2.139-1.662-3.087-3.64-2.216a7.68,7.68,0,0,1-6.508-.014,2.858,2.858,0,0,0-.823-.266c-1.369-.153-2.394.926-2.427,2.633-.04,2.046-.012,4.094,0,6.141a3.636,3.636,0,0,0,.113.6c4.209,0,8.363,0,12.516,0,.221,0,.441-.027.786-.049m-6.968-11.258a4.855,4.855,0,1,0-4.768-4.9,4.906,4.906,0,0,0,4.768,4.9" transform="translate(-37.334 -169.832)" fill="#144567"/>
        <path id="Trazado_604484" data-name="Trazado 604484" d="M262.851,241.722a7.788,7.788,0,1,1,13.217-.206c.166.123.333.26.512.377a5.485,5.485,0,0,1,2.619,4.64c.063,2.371.041,4.745.012,7.118a2.624,2.624,0,0,1-2.862,2.865q-6.776.052-13.554,0a2.613,2.613,0,0,1-2.84-2.8c-.063-2.371-.067-4.746.006-7.117a5.859,5.859,0,0,1,2.89-4.876m13.464,11.851c0-2.3.038-4.53-.011-6.763-.048-2.2-1.644-3.157-3.675-2.265a7.651,7.651,0,0,1-6.417,0c-1.633-.719-3.078-.068-3.206,1.7-.175,2.412-.044,4.847-.044,7.327Zm-2.029-16.142a4.855,4.855,0,1,0-4.823,4.874,4.9,4.9,0,0,0,4.823-4.874" transform="translate(-192.163 -169.843)" fill="#144567"/>
        <path id="Trazado_604485" data-name="Trazado 604485" d="M176.012,97.885H162.623c0-2.414-.126-4.784.039-7.133.135-1.922,1.568-2.591,3.354-1.83a7.663,7.663,0,0,0,6.331-.044c2.4-1.056,3.634.483,3.658,2.285.029,2.207.007,4.415.007,6.722" transform="translate(-120.202 -65.457)" fill="#fff"/>
        <path id="Trazado_604486" data-name="Trazado 604486" d="M173.943,53.807a4.844,4.844,0,1,1,4.91-4.772,4.844,4.844,0,0,1-4.91,4.772" transform="translate(-125.081 -32.619)" fill="#fff"/>
        <path id="Trazado_604487" data-name="Trazado 604487" d="M75.157,294.677c-.345.022-.565.049-.786.049-4.153,0-8.307,0-12.516,0a3.644,3.644,0,0,1-.113-.6c-.007-2.047-.035-4.095,0-6.141.033-1.707,1.058-2.787,2.427-2.634a2.859,2.859,0,0,1,.823.266,7.681,7.681,0,0,0,6.508.014c1.978-.872,3.586.077,3.64,2.215.057,2.238.013,4.478.013,6.832" transform="translate(-45.637 -210.943)" fill="#fff"/>
        <path id="Trazado_604488" data-name="Trazado 604488" d="M73,250.519a4.855,4.855,0,1,1,4.926-4.753A4.872,4.872,0,0,1,73,250.519" transform="translate(-50.447 -178.043)" fill="#fff"/>
        <path id="Trazado_604489" data-name="Trazado 604489" d="M284.847,294.686H271.494c0-2.48-.131-4.914.044-7.327.128-1.773,1.573-2.423,3.206-1.7a7.65,7.65,0,0,0,6.417,0c2.031-.891,3.627.066,3.675,2.266.048,2.233.011,4.468.011,6.763" transform="translate(-200.695 -210.956)" fill="#fff"/>
        <path id="Trazado_604490" data-name="Trazado 604490" d="M287.53,245.632a4.856,4.856,0,1,1-4.882-4.82,4.884,4.884,0,0,1,4.882,4.82" transform="translate(-205.407 -178.045)" fill="#fff"/>
      </g>
    </g>
    <g id="Grupo_161817" data-name="Grupo 161817" transform="translate(858 1689.127)">
      <g id="Grupo_161816" data-name="Grupo 161816" clip-path="url(#clip-path-4)">
        <path id="Trazado_604491" data-name="Trazado 604491" d="M119.122,112.178a7.5,7.5,0,0,1,4.227.958,2.241,2.241,0,0,0,.5.17l.161-.192-1.663-1.839,9.014-8.979a11.968,11.968,0,0,0,1.061,1.157,3.485,3.485,0,0,0,.958.428,4.656,4.656,0,0,0,.357-1.015,15.6,15.6,0,0,0,.016-1.7h12.674c0,.65-.039,1.313.019,1.968a1.063,1.063,0,0,0,.413.747c.147.085.542-.1.726-.27.466-.434.876-.929,1.225-1.309l9.073,9.068c-.372.341-.891.771-1.346,1.261a.882.882,0,0,0-.22.741.908.908,0,0,0,.68.374c.661.05,1.328.017,2.047.017v12.673c-.636,0-1.293-.036-1.943.017-.279.023-.684.171-.774.376s.091.6.275.8c.43.469.934.87,1.348,1.245l-9.128,9.116c-.377-.43-.816-.973-1.307-1.465-.152-.152-.511-.288-.657-.209a.935.935,0,0,0-.409.655c-.054.662-.019,1.332-.019,2.066H133.749c0-.649.038-1.283-.017-1.908a1.058,1.058,0,0,0-.384-.776c-.189-.089-.6.082-.8.264-.465.431-.86.939-1.215,1.338l-9-9.008,1.738-1.941c-.274-.062-.355-.107-.389-.083-1.844,1.271-3.946,1.092-6.022,1.088q-8.779-.014-17.557,0H98.919v6.319h18.9v3.14H98.862v3.29h15.8v3.1H98.96a5.545,5.545,0,0,0-.094.693q0,.993,0,1.987V149.6c0,.619,0,1.237,0,1.856.007,1.312.56,1.868,1.853,1.916.288.011.576,0,.863,0H165.96c.351,0,.7.012,1.055-.018a1.545,1.545,0,0,0,1.568-1.6c.023-.286.014-.575.014-.863q0-31.373,0-62.747V86.92H98.915v25.273h1.114c6.364,0,12.728.02,19.093-.015" transform="translate(-73.518 -64.637)" fill="#fff"/>
        <rect id="Rectángulo_47883" data-name="Rectángulo 47883" width="9.366" height="3.096" transform="translate(82.468 25.399)" fill="#fff"/>
        <rect id="Rectángulo_47884" data-name="Rectángulo 47884" width="9.387" height="3.068" transform="translate(82.481 31.754)" fill="#fff"/>
        <rect id="Rectángulo_47885" data-name="Rectángulo 47885" width="6.247" height="3.055" transform="translate(85.63 38.099)" fill="#fff"/>
        <rect id="Rectángulo_47886" data-name="Rectángulo 47886" width="3.049" height="3.088" transform="translate(6.403 82.451)" fill="#fff"/>
        <path id="Trazado_604492" data-name="Trazado 604492" d="M52.771,324.547c0-.92.018-1.832-.019-2.742a.579.579,0,0,0-.417-.377c-.88-.036-1.762-.018-2.682-.018v3.137Z" transform="translate(-36.924 -239.01)" fill="#fff"/>
        <rect id="Rectángulo_47887" data-name="Rectángulo 47887" width="3.059" height="3.015" transform="translate(44.426 28.624)" fill="#fff"/>
        <rect id="Rectángulo_47888" data-name="Rectángulo 47888" width="3.067" height="3.038" transform="translate(38.095 28.594)" fill="#fff"/>
        <rect id="Rectángulo_47889" data-name="Rectángulo 47889" width="3.049" height="3.009" transform="translate(31.752 28.627)" fill="#fff"/>
        <rect id="Rectángulo_47890" data-name="Rectángulo 47890" width="3.05" height="2.994" transform="translate(65.044 77.732)" fill="#fff"/>
        <rect id="Rectángulo_47891" data-name="Rectángulo 47891" width="3.009" height="3.025" transform="translate(71.404 77.751)" fill="#fff"/>
        <rect id="Rectángulo_47892" data-name="Rectángulo 47892" width="3.024" height="3.005" transform="translate(77.717 77.727)" fill="#fff"/>
        <path id="Trazado_604493" data-name="Trazado 604493" d="M80.02,0A3.668,3.668,0,0,1,82.4,2.766c.028.179.578.393.888.4,3.166.029,6.332.016,9.5.018q5.462,0,5.463,5.495,0,38.905,0,77.81c0,3.565-1.868,5.432-5.443,5.433-21.747,0-43.495-.027-65.242.034-2.861.008-5.571-1.874-5.385-5.438.108-2.073.021-4.156.018-6.235,0-.312-.026-.624-.043-1.005H6.411v-3.15H41.147v3.1h-15.7a5.513,5.513,0,0,0-.095.693c-.006,2.3-.013,4.605,0,6.908.007,1.312.559,1.868,1.853,1.916.287.011.576,0,.863,0H92.442c.352,0,.705.012,1.055-.018a1.545,1.545,0,0,0,1.568-1.6c.024-.286.014-.575.014-.863q0-31.373,0-62.747V22.283H25.4V47.556h1.114c6.364,0,12.729.02,19.092-.015a7.5,7.5,0,0,1,4.228.958,2.238,2.238,0,0,0,.5.17l.161-.192-1.663-1.839,9.014-8.979A11.967,11.967,0,0,0,58.9,38.816a3.485,3.485,0,0,0,.958.428,4.631,4.631,0,0,0,.357-1.015,15.659,15.659,0,0,0,.016-1.7H72.907c0,.65-.039,1.313.019,1.968a1.064,1.064,0,0,0,.414.747c.147.085.542-.1.726-.27.466-.434.876-.929,1.225-1.309l9.073,9.068c-.372.341-.892.771-1.347,1.261a.881.881,0,0,0-.22.741.908.908,0,0,0,.68.374c.661.051,1.328.017,2.047.017V61.8c-.636,0-1.293-.037-1.943.017-.279.023-.684.171-.774.376s.091.6.275.8c.43.469.934.87,1.348,1.245L75.3,73.355c-.377-.43-.816-.973-1.307-1.465-.152-.152-.511-.288-.657-.209a.933.933,0,0,0-.409.655c-.055.662-.019,1.332-.019,2.066H60.232c0-.649.038-1.283-.017-1.908a1.058,1.058,0,0,0-.384-.775c-.189-.09-.6.082-.8.265-.465.431-.86.939-1.215,1.338l-9-9.008,1.738-1.941c-.274-.062-.355-.107-.389-.083-1.845,1.271-3.946,1.092-6.022,1.088q-8.779-.014-17.558,0H25.4v6.319H44.3v3.14H6.4V69.706h15.74V63.373H21.062q-6.188,0-12.377,0C4.015,63.37,1.328,61.3.1,56.767a.623.623,0,0,0-.1-.158v-2.3c.037-.051.093-.1.108-.154,1.2-4.513,3.9-6.6,8.582-6.6q6.187,0,12.375,0H22.2v-1.34q0-18.945,0-37.891c0-3.227,1.909-5.131,5.122-5.143,3.2-.012,6.395,0,9.592,0h1.089A3.49,3.49,0,0,1,40.49,0H45.1a3.588,3.588,0,0,1,2.5,3.149H55.43A3.463,3.463,0,0,1,57.952,0h4.606c.956.462,1.99.971,2.175,2.087s.806,1.154,1.652,1.1c.6-.039,1.208-.007,1.812-.007h4.685A3.606,3.606,0,0,1,75.223,0ZM47.555,6.384c0,2.057.017,4.063,0,6.069a3.126,3.126,0,0,1-2.975,3.361,23.09,23.09,0,0,1-3.639-.008,3.1,3.1,0,0,1-2.91-3.125c-.028-.638-.007-1.279-.007-1.918,0-1.457,0-2.914,0-4.431-3.645,0-7.157,0-10.669,0-1.45,0-2,.572-2,2.059q-.009,4.316,0,8.633v1.907h69.72c0-3.714.023-7.357-.014-11-.011-1.086-.66-1.592-1.856-1.6-2.686-.012-5.371,0-8.057,0H82.392c0,.456,0,.8,0,1.148,0,1.727.027,3.454-.014,5.179a3.036,3.036,0,0,1-2.957,3.156,22.6,22.6,0,0,1-3.827-.047,2.979,2.979,0,0,1-2.676-3.01c-.033-1.726-.01-3.453-.011-5.179,0-.4,0-.8,0-1.177H64.98c0,2.05.022,4.031-.006,6.011a3.2,3.2,0,0,1-3.406,3.444c-.831.025-1.663.014-2.494,0-2.369-.028-3.607-1.27-3.612-3.621,0-1.94,0-3.881,0-5.856ZM80.011,46.549c-.181-.193-.37-.407-.571-.608-1.218-1.223-2.429-2.454-3.674-3.65a.879.879,0,0,0-.733-.118c-2.328.716-3.943.059-5.041-2.031a1.069,1.069,0,0,0-.755-.5q-2.684-.066-5.369,0a1.07,1.07,0,0,0-.745.519,3.83,3.83,0,0,1-4.968,2.053,1.049,1.049,0,0,0-.882.165c-1.3,1.234-2.556,2.506-3.8,3.791a1.04,1.04,0,0,0-.253.727c.093,1.079.241,2.153.4,3.495l3.837,1.921c3.316-5.388,6.765-7.205,11.428-6.056A9.5,9.5,0,0,1,70,64.31a9.306,9.306,0,0,1-5.927.327,9.586,9.586,0,0,1-6.562-6.058L53.62,60.551c-.163,1.372-.306,2.417-.4,3.467a1.039,1.039,0,0,0,.232.731c1.245,1.286,2.506,2.558,3.8,3.792a1.051,1.051,0,0,0,.881.178,3.844,3.844,0,0,1,4.981,2.032,1.156,1.156,0,0,0,.82.545c1.725.05,3.453.054,5.177,0a1.245,1.245,0,0,0,.894-.571,3.846,3.846,0,0,1,4.9-2.026,1.143,1.143,0,0,0,.959-.183q1.917-1.809,3.731-3.726a1.131,1.131,0,0,0,.2-.95,3.841,3.841,0,0,1,1.992-4.916,1.166,1.166,0,0,0,.571-.806c.051-1.789.039-3.58.009-5.37a.925.925,0,0,0-.368-.67c-2.454-1.482-2.959-2.832-2-5.527M60.512,57.1a6.192,6.192,0,0,0,6.707,4.673,6.344,6.344,0,0,0-.005-12.619,6.2,6.2,0,0,0-6.7,4.664l3.208,1.659L60.512,57.1m-16.2.014H19.063v3.056H44.317ZM44.3,50.759H19.078v3.094H44.3ZM9.467,50.75c-2.385-.242-4.377.215-5.647,2.34a4.712,4.712,0,0,0,.315,5.228c1.362,1.76,3.216,2.1,5.333,1.84Zm6.326.018H12.746V60.2h3.047Zm63.389-47.5H76.117v9.366h3.065Zm-34.9-.011H41.264v9.363h3.014Zm14.435,9.367h3.025V3.239H58.712Zm-11.1,47.369c1.007-.505,1.921-.931,2.793-1.428a.965.965,0,0,0,.277-.721q.036-2.39,0-4.781a.944.944,0,0,0-.295-.709c-.872-.5-1.784-.92-2.774-1.416Zm6.35-5.87v2.7l2.69-1.376-2.69-1.326" fill="#144567"/>
        <rect id="Rectángulo_47893" data-name="Rectángulo 47893" width="9.366" height="3.096" transform="translate(82.468 25.399)" fill="#144567"/>
        <rect id="Rectángulo_47894" data-name="Rectángulo 47894" width="9.387" height="3.068" transform="translate(82.481 31.754)" fill="#144567"/>
        <rect id="Rectángulo_47895" data-name="Rectángulo 47895" width="6.247" height="3.055" transform="translate(85.63 38.099)" fill="#144567"/>
        <rect id="Rectángulo_47896" data-name="Rectángulo 47896" width="3.049" height="3.088" transform="translate(6.403 82.45)" fill="#144567"/>
        <path id="Trazado_604494" data-name="Trazado 604494" d="M52.771,324.547H49.653V321.41c.92,0,1.8-.018,2.682.018a.579.579,0,0,1,.417.377c.038.909.019,1.821.019,2.742" transform="translate(-36.924 -239.01)" fill="#144567"/>
        <rect id="Rectángulo_47897" data-name="Rectángulo 47897" width="3.059" height="3.015" transform="translate(44.426 28.624)" fill="#144567"/>
        <rect id="Rectángulo_47898" data-name="Rectángulo 47898" width="3.067" height="3.038" transform="translate(38.095 28.594)" fill="#144567"/>
        <rect id="Rectángulo_47899" data-name="Rectángulo 47899" width="3.049" height="3.009" transform="translate(31.752 28.627)" fill="#144567"/>
        <rect id="Rectángulo_47900" data-name="Rectángulo 47900" width="3.05" height="2.994" transform="translate(65.044 77.732)" fill="#144567"/>
        <rect id="Rectángulo_47901" data-name="Rectángulo 47901" width="3.009" height="3.025" transform="translate(71.404 77.751)" fill="#144567"/>
        <rect id="Rectángulo_47902" data-name="Rectángulo 47902" width="3.024" height="3.005" transform="translate(77.717 77.727)" fill="#144567"/>
        <path id="Trazado_604495" data-name="Trazado 604495" d="M121.068,24.745h7.906c0,1.975,0,3.915,0,5.856.005,2.351,1.243,3.592,3.613,3.621.831.01,1.663.021,2.494,0a3.2,3.2,0,0,0,3.406-3.444c.028-1.98.006-3.961.006-6.011h7.925c0,.376,0,.777,0,1.177,0,1.726-.022,3.453.011,5.179a2.979,2.979,0,0,0,2.676,3.009,22.6,22.6,0,0,0,3.827.047,3.035,3.035,0,0,0,2.957-3.156c.041-1.726.012-3.453.014-5.179,0-.346,0-.691,0-1.148h2.746c2.686,0,5.372-.008,8.057,0,1.2.005,1.845.511,1.856,1.6.037,3.642.014,7.285.014,11H98.857V35.387q0-4.316,0-8.632c0-1.486.553-2.056,2-2.059,3.512-.007,7.024,0,10.669,0,0,1.517,0,2.974,0,4.431,0,.639-.021,1.28.007,1.918a3.1,3.1,0,0,0,2.91,3.125,23.087,23.087,0,0,0,3.639.008,3.126,3.126,0,0,0,2.975-3.361c.023-2.006.005-4.012.005-6.069" transform="translate(-73.513 -18.361)" fill="#fff"/>
        <path id="Trazado_604496" data-name="Trazado 604496" d="M234.376,161.432c-.964,2.695-.458,4.045,2,5.527a.925.925,0,0,1,.368.67c.03,1.79.042,3.581-.009,5.37a1.165,1.165,0,0,1-.571.806,3.841,3.841,0,0,0-1.992,4.916,1.131,1.131,0,0,1-.2.95q-1.813,1.914-3.731,3.726a1.142,1.142,0,0,1-.959.183,3.846,3.846,0,0,0-4.9,2.026,1.245,1.245,0,0,1-.894.571c-1.725.055-3.453.052-5.177,0a1.156,1.156,0,0,1-.82-.545A3.844,3.844,0,0,0,212.5,183.6a1.051,1.051,0,0,1-.881-.178c-1.3-1.235-2.557-2.506-3.8-3.792a1.039,1.039,0,0,1-.232-.731c.09-1.049.234-2.094.4-3.467l3.894-1.972a9.586,9.586,0,0,0,6.562,6.058,9.305,9.305,0,0,0,5.926-.327,9.5,9.5,0,0,0-1.118-18.056c-4.663-1.15-8.113.668-11.428,6.056l-3.837-1.921c-.16-1.342-.309-2.416-.4-3.495a1.04,1.04,0,0,1,.252-.727c1.246-1.285,2.506-2.557,3.8-3.791a1.048,1.048,0,0,1,.882-.165,3.831,3.831,0,0,0,4.968-2.053,1.07,1.07,0,0,1,.745-.519q2.684-.068,5.369,0a1.07,1.07,0,0,1,.755.5c1.1,2.09,2.713,2.747,5.04,2.031a.88.88,0,0,1,.733.118c1.244,1.2,2.455,2.427,3.674,3.65.2.2.39.415.571.608" transform="translate(-154.364 -114.883)" fill="#fff"/>
        <path id="Trazado_604497" data-name="Trazado 604497" d="M236.043,199.573l3.211-1.623-3.208-1.659a6.2,6.2,0,0,1,6.7-4.664,6.344,6.344,0,0,1,.005,12.619,6.192,6.192,0,0,1-6.707-4.673" transform="translate(-175.531 -142.475)" fill="#fff"/>
        <rect id="Rectángulo_47903" data-name="Rectángulo 47903" width="25.254" height="3.056" transform="translate(19.063 57.112)" fill="#fff"/>
        <rect id="Rectángulo_47904" data-name="Rectángulo 47904" width="25.225" height="3.094" transform="translate(19.078 50.759)" fill="#fff"/>
        <path id="Trazado_604498" data-name="Trazado 604498" d="M18.677,197.794V207.2c-2.117.262-3.971-.08-5.333-1.839a4.712,4.712,0,0,1-.315-5.228c1.27-2.125,3.262-2.582,5.647-2.34" transform="translate(-9.21 -147.044)" fill="#fff"/>
        <rect id="Rectángulo_47905" data-name="Rectángulo 47905" width="3.047" height="9.432" transform="translate(12.746 50.768)" fill="#fff"/>
        <rect id="Rectángulo_47906" data-name="Rectángulo 47906" width="3.065" height="9.366" transform="translate(76.117 3.268)" fill="#fff"/>
        <rect id="Rectángulo_47907" data-name="Rectángulo 47907" width="3.014" height="9.363" transform="translate(41.264 3.256)" fill="#fff"/>
        <rect id="Rectángulo_47908" data-name="Rectángulo 47908" width="3.025" height="9.384" transform="translate(58.712 3.239)" fill="#fff"/>
        <path id="Trazado_604499" data-name="Trazado 604499" d="M185.724,207.749v-9.056c.99.5,1.9.921,2.774,1.416a.945.945,0,0,1,.295.709q.039,2.39,0,4.781a.966.966,0,0,1-.276.721c-.872.5-1.786.923-2.793,1.428" transform="translate(-138.112 -147.756)" fill="#fff"/>
        <path id="Trazado_604500" data-name="Trazado 604500" d="M210.492,211.12l2.69,1.326-2.69,1.376Z" transform="translate(-156.53 -156.997)" fill="#fff"/>
        <path id="Trazado_604501" data-name="Trazado 604501" d="M29.369,121.641,19.032,131.982l-4.105-4.1,2.246-2.142,1.657,2.235,8.548-8.605,1.991,2.275" transform="translate(-11.1 -88.765)" fill="#144567"/>
        <path id="Trazado_604502" data-name="Trazado 604502" d="M27.746,70.329l2.137,2.048L19.452,82.759,15.44,78.741l2.186-2.112L19.282,78.8l8.463-8.471" transform="translate(-11.482 -52.299)" fill="#144567"/>
        <path id="Trazado_604503" data-name="Trazado 604503" d="M14.988,29.006l2.183-2.154,1.724,2.3,8.54-8.549,2.046,2.141L19.112,33.111l-4.124-4.106" transform="translate(-11.146 -15.32)" fill="#144567"/>
      </g>
    </g>
    <g id="Grupo_161819" data-name="Grupo 161819" transform="translate(1076 1688.991)">
      <g id="Enmascarar_grupo_161818" data-name="Enmascarar grupo 161818" clip-path="url(#clip-path-5)">
        <path id="Trazado_604504" data-name="Trazado 604504" d="M90.636,77.248V92.086h-32.6V77.336h2.82a5.739,5.739,0,0,0-.994-4.747,11.139,11.139,0,0,1-1.978,1.092,10.957,10.957,0,0,1-3.064.607c-3.529.072-7.059.028-10.589.028H43.17V77.29c.419,0,.867,0,1.315,0a5.931,5.931,0,0,1,5.97,4.947A3.075,3.075,0,0,1,47.2,86.2q-15.188.006-30.375,0c-.65,0-1.3.016-1.951,0a2.976,2.976,0,0,1-2.968-3.135A5.961,5.961,0,0,1,17.593,77.3c.549-.022,1.1,0,1.694,0V74.316h-.971q-5.248,0-10.5,0A7.437,7.437,0,0,1,.014,66.488Q.005,52,.014,37.509a7.425,7.425,0,0,1,7.761-7.775q8.732-.013,17.463.011a1.42,1.42,0,0,0,1.3-.647,12.4,12.4,0,0,1,5.43-4.212,1.03,1.03,0,0,0,.754-1.161c-.039-2.321-.011-4.644-.018-6.966,0-1.382-.517-1.883-1.918-1.889-1.33-.005-2.66,0-4.074,0a13.42,13.42,0,0,1-7.231,10.392A12.924,12.924,0,0,1,10.2,26.375,13.443,13.443,0,0,1,.042,12.336,13.475,13.475,0,0,1,12.453.028,13.547,13.547,0,0,1,26.723,11.9h3.84c3.405,0,5.12,1.727,5.121,5.155,0,2.223,0,4.446,0,6.719h2.974c0-.849,0-1.731,0-2.613a4.475,4.475,0,0,1,4.822-4.8c2.812-.005,5.625,0,8.555,0a19.626,19.626,0,0,1,.024-2.066.972.972,0,0,1,.515-.682,14.241,14.241,0,0,1,2.323-.634c1.409-.248,1.712-1.219.967-2.245a27.328,27.328,0,0,1-1.5-2.6c1.853-1.851,3.66-3.673,5.5-5.461a.859.859,0,0,1,.78-.044c.854.434,1.669.943,2.507,1.409a1.068,1.068,0,0,0,1.7-.693c.314-1.1.611-2.2.917-3.3h8.206c.3,1.1.6,2.2.916,3.291a1.067,1.067,0,0,0,1.694.712c1-.553,1.982-1.124,2.9-1.648l5.845,5.84c-.53.926-1.1,1.909-1.659,2.9a1.068,1.068,0,0,0,.718,1.691c1.095.313,2.193.611,3.285.915v8.2c-1.08.3-2.149.6-3.216.9-.979.278-1.232.9-.727,1.8.454.809.943,1.6,1.359,2.428a.86.86,0,0,1-.047.779c-1.788,1.839-3.611,3.645-5.461,5.5-1.011-.574-1.971-1.128-2.94-1.667a1.637,1.637,0,0,0-2.315,1.364c0,1.915,0,3.831,0,5.832a4.612,4.612,0,0,1,4.41.863c2.586-1.9,5.88-1.372,7.3,2.028a13.893,13.893,0,0,1,2.729.03,4.223,4.223,0,0,1,3.377,4.127q.043,9.984-.012,19.969a9.437,9.437,0,0,1-1.754,5.3,16.2,16.2,0,0,1-1.665,2.228,4.079,4.079,0,0,0-.932,3.825ZM83.281,49.006c-.013-.217-.031-.367-.031-.517,0-1.765.015-3.53-.011-5.294a1.471,1.471,0,0,0-1.483-1.568,1.486,1.486,0,0,0-1.475,1.578c-.023.587-.006,1.176-.006,1.764,0,1.348,0,2.7,0,4.033H77.3c0-1.9.007-3.747,0-5.6-.006-1.1-.568-1.765-1.464-1.778s-1.486.657-1.5,1.739c-.011.681,0,1.362,0,2.043v3.569H71.358V47.8q0-11.1,0-22.2c0-1.11-.547-1.775-1.438-1.805-.925-.031-1.515.663-1.532,1.8,0,.217,0,.433,0,.65,0,8.947.031,17.894-.035,26.841a10.364,10.364,0,0,1-.791,3.762c-1.078,2.627-1.159,2.568-4.022,2.576-.681,0-.887-.233-1.006-.859-.56-2.946-1.142-5.888-1.771-8.82a6.475,6.475,0,0,0-5.649-5.138,5.261,5.261,0,0,0-1.45.305,14.589,14.589,0,0,0,.382,1.41,3.542,3.542,0,0,0,.5.777,10.969,10.969,0,0,1,2.2,5.337c.192,1.877.4,3.755.712,5.615a21.333,21.333,0,0,0,1.083,4.754c1.207,2.874,2.626,5.666,4.08,8.427A9.166,9.166,0,0,1,63.931,76.8a1.692,1.692,0,0,0,.051.425H84.735c0-.777.051-1.491-.013-2.195a2.862,2.862,0,0,1,.737-2.2c.825-1,1.582-2.062,2.341-3.117a7.047,7.047,0,0,0,1.384-4.16q.024-9.613.005-19.225c0-1.079-.61-1.748-1.513-1.729-.871.018-1.435.663-1.453,1.7-.015.89,0,1.779,0,2.711ZM8.968,65.333H53.521c0-3.252.034-6.437-.008-9.622-.07-5.4.612-3.833-2.3-8.278a3.635,3.635,0,0,1,.88-5.112,12.771,12.771,0,0,1,1.381-.759V38.648H50.527A13.582,13.582,0,0,1,37.572,50.534a13.155,13.155,0,0,1-8.334-2.63,13.444,13.444,0,0,1-5.376-9.2H8.968Zm47.6.336a3.272,3.272,0,0,1-3.394,2.711q-21.964-.023-43.927-.01a2.992,2.992,0,0,1-3.289-3.281Q5.952,52.042,5.959,39A3.017,3.017,0,0,1,9.3,35.678q6.779-.006,13.559,0h.955l.688-2.973h-.956q-7.8,0-15.6,0c-3.163,0-4.963,1.79-4.964,4.936q0,14.346,0,28.693c0,3.225,1.776,5.011,4.983,5.012q12.537,0,25.075,0,10.819,0,21.639.006a4.4,4.4,0,0,0,3.351-1.309,1,1,0,0,0,.237-.851c-.5-1.157-1.089-2.279-1.7-3.523M84.708,16.01c-.881-.249-1.73-.437-2.536-.741a1.729,1.729,0,0,1-.865-.773c-.464-.937-1.192-1.945-1.136-2.884.058-.979.908-1.911,1.41-2.865a.16.16,0,0,0,.01-.068L78.963,6.111a12.505,12.505,0,0,0-1.536.883,1.941,1.941,0,0,1-2.511.118c-.505-.331-1.165-.416-1.706-.7a1.647,1.647,0,0,1-.742-.785c-.315-.857-.524-1.753-.77-2.614H68.054a6.292,6.292,0,0,0-.314,1.075A2.784,2.784,0,0,1,65.266,6.9a2.247,2.247,0,0,0-.918.43,1.2,1.2,0,0,1-1.518-.047c-.676-.429-1.462-1.155-2.092-1.057-.68.105-1.209,1.048-1.854,1.564-.691.553-.88,1.1-.267,1.832a2.742,2.742,0,0,1,.272,3.731c-.245.335-.259.832-.472,1.2a1.573,1.573,0,0,1-.725.687c-.866.307-1.766.521-2.639.768V19.68c.869.245,1.719.433,2.525.737a1.724,1.724,0,0,1,.863.776c.463.938,1.189,1.945,1.133,2.885-.059.979-.908,1.911-1.411,2.865-.013.025-.007.06,0-.046l2.548,2.68c1.489-.513,2.723-2.515,4.7-.526,0-.978-.059-1.655.015-2.318a1.773,1.773,0,0,0-.9-1.808A8.877,8.877,0,0,1,72.1,9.235a8.487,8.487,0,0,1,6.487,6.907A8.569,8.569,0,0,1,75.03,25.1c-.255.2-.642.438-.661.682-.076.992-.032,1.993-.032,3.118a11.523,11.523,0,0,0,1.135-.582,1.111,1.111,0,0,1,1.355.034c.73.447,1.572,1.193,2.259,1.091s1.229-1.129,1.9-1.667a1,1,0,0,0,.19-1.622c-.964-1.229-1.359-2.5-.293-3.9.214-.281.2-.727.4-1.026a2.057,2.057,0,0,1,.846-.8c.83-.315,1.706-.51,2.574-.756ZM61.025,89.132H87.652V80.3H61.025ZM8.8,15.679c-1.935-2.857-1.8-5.835.424-8.019a5.93,5.93,0,0,1,7.5-.674,5.846,5.846,0,0,1,2.36,3.231,5.916,5.916,0,0,1-1.1,5.464l3.984,3.4c2.5-3,2.854-9.282-1.527-13.326a10.378,10.378,0,0,0-14.736.624C1.851,10.6,2.59,16.659,4.822,19.058L8.8,15.679m23.757,23.8c-1.924-3.275-1.689-6.228.741-8.3a5.92,5.92,0,0,1,7.671-.058c2.482,2.049,2.743,5.039.811,8.363L45.76,42.87c2.526-3.137,2.766-9.237-1.416-13.223a10.328,10.328,0,0,0-14.414.069c-4.152,4-3.837,10.091-1.347,13.152l3.977-3.392M52.022,19.34c-3.07,0-6.065-.035-9.059.023a1.363,1.363,0,0,0-1.327,1.512c-.021.99.029,1.983-.021,2.971a.9.9,0,0,0,.691,1.014,12.488,12.488,0,0,1,5.506,4.26,1.41,1.41,0,0,0,1.316.624c2.459-.029,4.918-.012,7.463-.012C56,29.158,55.428,28.56,54.81,28.01a.682.682,0,0,1-.146-1.029c.461-.732.871-1.5,1.3-2.25.574-1.013.337-1.6-.765-1.91l-3.174-.892Zm21.39,3.175a5.733,5.733,0,0,0,2.06-6.623,5.926,5.926,0,0,0-11.379.6c-.542,2.373.449,4.983,2.269,5.975,2.475-2.233,4.6-2.233,7.05.044M47.532,83.19a2.9,2.9,0,0,0-3.094-2.925q-7.747-.016-15.493,0c-3.649,0-7.3-.009-10.947,0a2.9,2.9,0,0,0-3.075,2.925ZM61.04,32.868a8.38,8.38,0,0,1,1.409,5.3c-.048,2.1.017,4.209-.024,6.313a5.433,5.433,0,0,0,.584,2.752,9.175,9.175,0,0,1,.733,2.281c.418,1.88.778,3.773,1.162,5.661l.241.014a12.356,12.356,0,0,0,.255-1.771q.028-10.259.01-20.518A1.731,1.731,0,0,0,63.3,31.578c-.735.383-1.442.819-2.263,1.291m-54-11.363c3.748,3.286,9.9,2.751,12.676-.049a7.346,7.346,0,0,0-12.676.049M43.542,45.236a7.217,7.217,0,0,0-6.82-3.586A7.051,7.051,0,0,0,30.8,45.289c3.5,3.022,9.681,2.991,12.746-.053M40.1,74.382H22.383V77.24H40.1Zm10.422-38.7c1,0,1.951-.014,2.907,0a2.964,2.964,0,0,1,3.058,3.04c.018.834-.017,1.67.017,2.5.01.237.118.6.285.678.854.386,1.742.7,2.665,1.053,0-2.062.054-4.071-.015-6.077a4.314,4.314,0,0,0-3.936-4.125c-1.871-.122-3.757-.025-5.671-.025l.689,2.95M16.358,11.93a2.97,2.97,0,1,0-2.98,2.937,2.994,2.994,0,0,0,2.98-2.937M40.14,35.645a2.97,2.97,0,1,0-2.916,3,2.994,2.994,0,0,0,2.916-3" transform="translate(0 0.001)" fill="#144567"/>
        <path id="Trazado_604505" data-name="Trazado 604505" d="M245.869,121.1h2.94c0-.932-.012-1.822,0-2.711.017-1.033.581-1.677,1.453-1.7.9-.019,1.512.649,1.513,1.729q.01,9.613-.005,19.225a7.047,7.047,0,0,1-1.384,4.16c-.759,1.055-1.516,2.115-2.341,3.117a2.861,2.861,0,0,0-.737,2.2c.064.7.013,1.418.013,2.2H226.571a1.692,1.692,0,0,1-.051-.425,9.165,9.165,0,0,0-1.308-5.562c-1.454-2.761-2.873-5.553-4.08-8.427a21.332,21.332,0,0,1-1.083-4.754c-.309-1.86-.52-3.738-.712-5.615a10.969,10.969,0,0,0-2.2-5.337,3.557,3.557,0,0,1-.5-.777,14.607,14.607,0,0,1-.382-1.41,5.252,5.252,0,0,1,1.45-.306,6.475,6.475,0,0,1,5.649,5.138c.628,2.932,1.21,5.874,1.771,8.82.119.626.325.861,1.006.86,2.863-.008,2.943.051,4.022-2.576a10.359,10.359,0,0,0,.791-3.762c.066-8.946.035-17.894.035-26.841,0-.217,0-.434,0-.65.017-1.142.607-1.835,1.532-1.8.891.03,1.438.7,1.438,1.805q.007,11.1,0,22.2v1.183h2.972V117.5c0-.681-.009-1.362,0-2.043.018-1.081.6-1.752,1.5-1.739s1.459.68,1.465,1.778c.01,1.85,0,3.7,0,5.6h2.972c0-1.337,0-2.685,0-4.033,0-.588-.017-1.177.006-1.765a1.486,1.486,0,0,1,1.475-1.578,1.471,1.471,0,0,1,1.483,1.568c.026,1.764.008,3.529.011,5.294,0,.15.017.3.031.517" transform="translate(-162.589 -72.092)" fill="#fff"/>
        <path id="Trazado_604506" data-name="Trazado 604506" d="M36.136,182.436V155.8H51.03a13.444,13.444,0,0,0,5.376,9.2,13.157,13.157,0,0,0,8.334,2.63A13.582,13.582,0,0,0,77.7,155.751h2.946v2.914a12.745,12.745,0,0,0-1.381.759,3.635,3.635,0,0,0-.88,5.112c2.914,4.445,2.232,2.878,2.3,8.278.041,3.184.007,6.37.007,9.622Zm8.852-20.7V176.5H42V158.774H39.132V179.46H74.695v-2.921H71.729v-5.874H68.776v5.82H65.789V173.65H62.8V176.5H59.849v-5.844H56.9v5.831H53.91V164.727H50.925V176.51H47.972V161.734Z" transform="translate(-27.169 -117.102)" fill="#fff"/>
        <path id="Trazado_604507" data-name="Trazado 604507" d="M65.607,164.758c.61,1.243,1.2,2.366,1.7,3.523a.994.994,0,0,1-.237.85,4.4,4.4,0,0,1-3.351,1.309q-10.819-.02-21.639-.006-12.537,0-25.075,0c-3.207,0-4.983-1.787-4.983-5.012q0-14.346,0-28.693c0-3.146,1.8-4.935,4.964-4.936q7.8,0,15.6,0h.957l-.688,2.973H31.9q-6.779,0-13.559,0A3.017,3.017,0,0,0,15,138.084q-.006,13.047,0,26.093a2.992,2.992,0,0,0,3.289,3.281q21.963.005,43.927.01a3.272,3.272,0,0,0,3.394-2.711" transform="translate(-9.037 -99.088)" fill="#fff"/>
        <path id="Trazado_604508" data-name="Trazado 604508" d="M251.511,25.131v3.661c-.868.246-1.744.441-2.575.756a2.054,2.054,0,0,0-.845.8c-.2.3-.191.744-.4,1.026-1.066,1.4-.671,2.669.293,3.9a1,1,0,0,1-.19,1.623c-.671.537-1.2,1.562-1.9,1.667s-1.529-.644-2.259-1.091a1.111,1.111,0,0,0-1.355-.034,11.493,11.493,0,0,1-1.135.582c0-1.125-.044-2.126.032-3.118.019-.244.406-.486.661-.681a8.569,8.569,0,0,0,3.559-8.957,8.487,8.487,0,0,0-6.487-6.906,8.877,8.877,0,0,0-7.573,15.691,1.772,1.772,0,0,1,.9,1.808c-.073.663-.015,1.34-.015,2.318-1.976-1.989-3.211.013-4.7.526l-2.547-2.68c-.01.105-.016.07,0,.046.5-.954,1.352-1.886,1.411-2.865.056-.939-.67-1.947-1.133-2.885a1.724,1.724,0,0,0-.863-.776c-.806-.3-1.656-.492-2.525-.737V25.127c.873-.247,1.773-.461,2.639-.768a1.573,1.573,0,0,0,.725-.686c.213-.368.227-.865.472-1.2a2.743,2.743,0,0,0-.272-3.731c-.613-.734-.424-1.279.267-1.832.644-.516,1.173-1.458,1.854-1.564.63-.1,1.416.628,2.092,1.057a1.2,1.2,0,0,0,1.518.047,2.249,2.249,0,0,1,.919-.43,2.783,2.783,0,0,0,2.473-2.816,6.3,6.3,0,0,1,.315-1.075H238.5c.246.861.455,1.757.77,2.614a1.646,1.646,0,0,0,.742.785c.541.288,1.2.374,1.706.7a1.941,1.941,0,0,0,2.512-.118,12.484,12.484,0,0,1,1.536-.883l2.628,2.567a.158.158,0,0,1-.01.068c-.5.954-1.352,1.886-1.41,2.865-.055.94.672,1.947,1.136,2.884a1.728,1.728,0,0,0,.865.773c.806.3,1.655.493,2.536.741" transform="translate(-166.803 -9.12)" fill="#fff"/>
        <rect id="Rectángulo_47910" data-name="Rectángulo 47910" width="26.627" height="8.837" transform="translate(61.025 80.296)" fill="#fff"/>
        <path id="Trazado_604509" data-name="Trazado 604509" d="M17.832,24.732l-3.98,3.379c-2.233-2.4-2.972-8.456.884-12.676a10.378,10.378,0,0,1,14.736-.624C33.853,18.856,33.5,25.137,31,28.138l-3.984-3.4a5.916,5.916,0,0,0,1.1-5.465,5.847,5.847,0,0,0-2.36-3.231,5.931,5.931,0,0,0-7.5.674c-2.22,2.184-2.358,5.162-.424,8.019" transform="translate(-9.03 -9.053)" fill="#fff"/>
        <path id="Trazado_604510" data-name="Trazado 604510" d="M113.606,120.533l-3.977,3.392c-2.49-3.061-2.8-9.151,1.347-13.152a10.328,10.328,0,0,1,14.414-.069c4.182,3.985,3.942,10.085,1.417,13.222l-3.977-3.392c1.931-3.323,1.67-6.314-.811-8.362a5.92,5.92,0,0,0-7.671.058c-2.431,2.075-2.666,5.029-.741,8.3" transform="translate(-81.048 -81.056)" fill="#fff"/>
        <path id="Trazado_604511" data-name="Trazado 604511" d="M92.743,326.367H60.133a2.9,2.9,0,0,1,3.075-2.925c3.649-.014,7.3,0,10.947,0q7.747,0,15.493,0a2.9,2.9,0,0,1,3.094,2.925" transform="translate(-45.211 -243.175)" fill="#fff"/>
        <path id="Trazado_604512" data-name="Trazado 604512" d="M28.353,75.589a7.346,7.346,0,0,1,12.676-.049c-2.774,2.8-8.928,3.335-12.676.049" transform="translate(-21.317 -54.083)" fill="#fff"/>
        <path id="Trazado_604513" data-name="Trazado 604513" d="M136.848,171.39c-3.065,3.044-9.242,3.075-12.746.053a7.052,7.052,0,0,1,5.926-3.639,7.216,7.216,0,0,1,6.82,3.587" transform="translate(-93.307 -126.153)" fill="#fff"/>
        <rect id="Rectángulo_47911" data-name="Rectángulo 47911" width="17.72" height="2.859" transform="translate(22.382 74.382)" fill="#fff"/>
        <path id="Trazado_604514" data-name="Trazado 604514" d="M201.521,134.73l-.689-2.95c1.914,0,3.8-.1,5.671.025a4.314,4.314,0,0,1,3.936,4.125c.069,2.005.015,4.014.015,6.076-.923-.355-1.811-.666-2.665-1.052-.168-.076-.275-.441-.285-.678-.034-.833,0-1.669-.017-2.5a2.964,2.964,0,0,0-3.058-3.04c-.956-.016-1.912,0-2.907,0" transform="translate(-150.996 -99.052)" fill="#fff"/>
        <path id="Trazado_604515" data-name="Trazado 604515" d="M47.922,38.98a2.97,2.97,0,1,1-2.914-3,3,3,0,0,1,2.914,3" transform="translate(-31.565 -27.05)" fill="#fff"/>
        <path id="Trazado_604516" data-name="Trazado 604516" d="M143.763,134.743a2.97,2.97,0,1,1-2.978-2.939,3,3,0,0,1,2.978,2.939" transform="translate(-103.623 -99.097)" fill="#fff"/>
        <path id="Trazado_604517" data-name="Trazado 604517" d="M54.065,170.893h2.985v14.776H60V173.886h2.985v11.762h2.986v-5.831h2.953v5.844h2.953v-2.853h2.987v2.834h2.986v-5.82h2.953V185.7h2.966v2.921H48.209V167.932H51.08v17.724h2.984Z" transform="translate(-36.246 -126.261)" fill="#144567"/>
      </g>
    </g>
  </g>
</svg>
