<svg xmlns="http://www.w3.org/2000/svg" xmlns:xlink="http://www.w3.org/1999/xlink" width="947" height="410" viewBox="0 0 947 410">
  <defs>
    <linearGradient id="linear-gradient" x1="0.5" x2="0.5" y2="1" gradientUnits="objectBoundingBox">
      <stop offset="0" stop-color="#def8f3"/>
      <stop offset="1" stop-color="#8db2cb"/>
    </linearGradient>
    <clipPath id="clip-path">
      <rect id="Rectángulo_48220" data-name="Rectángulo 48220" width="400.149" height="298.969" fill="none"/>
    </clipPath>
    <clipPath id="clip-path-2">
      <rect id="Rectángulo_48216" data-name="Rectángulo 48216" width="346.06" height="254.841" fill="none"/>
    </clipPath>
    <clipPath id="clip-path-3">
      <rect id="Rectángulo_48215" data-name="Rectángulo 48215" width="381.219" height="289.178" fill="none"/>
    </clipPath>
    <clipPath id="clip-path-4">
      <rect id="Rectángulo_48211" data-name="Rectángulo 48211" width="410" height="146.527" fill="none"/>
    </clipPath>
    <clipPath id="clip-path-6">
      <rect id="Rectángulo_48191" data-name="Rectángulo 48191" width="5.085" height="32.742" fill="none"/>
    </clipPath>
    <clipPath id="clip-path-7">
      <rect id="Rectángulo_48190" data-name="Rectángulo 48190" width="5.085" height="32.743" fill="none"/>
    </clipPath>
    <linearGradient id="linear-gradient-2" x1="-45.31" y1="3.705" x2="-45.016" y2="3.705" gradientUnits="objectBoundingBox">
      <stop offset="0" stop-color="#616860"/>
      <stop offset="1" stop-color="#7c843c"/>
    </linearGradient>
    <clipPath id="clip-path-8">
      <rect id="Rectángulo_48209" data-name="Rectángulo 48209" width="5.085" height="26.627" fill="none"/>
    </clipPath>
    <linearGradient id="linear-gradient-3" x1="-19.63" y1="4.343" x2="-19.337" y2="4.343" xlink:href="#linear-gradient-2"/>
    <clipPath id="clip-path-10">
      <rect id="Rectángulo_48222" data-name="Rectángulo 48222" width="239.5" height="107.034" fill="none"/>
    </clipPath>
    <clipPath id="clip-path-11">
      <rect id="Rectángulo_48228" data-name="Rectángulo 48228" width="85.811" height="124.019" fill="none"/>
    </clipPath>
    <clipPath id="clip-path-12">
      <path id="Trazado_605343" data-name="Trazado 605343" d="M19.663,52.9,37.85,65.343c-8.839,13-3.627,42.149-3.627,42.149l3.639-.52c-6.759-26,1.375-40.416,1.375-40.416L52.942,56.534l-3.12-2.08L38.9,64.854,24.863,51.335Z" fill="none"/>
    </clipPath>
    <clipPath id="clip-path-14">
      <path id="Trazado_605347" data-name="Trazado 605347" d="M31.622.377C14.983,4.017,20.7,25.856,20.7,25.856S6.664,13.9,7.7,22.736s5.2,10.4,5.2,10.4-21.853,15.914,0,26c0,0,14.04,4.68,23.92-5.2,0,0,14.039,13,26,8.32,0,0,33.278-19.239,19.759-34.838l-7.28,5.2S80.5.377,66.461,2.457s-16.639,18.2-16.639,18.2S48.473,0,34.93,0a15.5,15.5,0,0,0-3.308.377" fill="none"/>
    </clipPath>
    <clipPath id="clip-path-15">
      <rect id="Rectángulo_48247" data-name="Rectángulo 48247" width="113.246" height="103.154" fill="none"/>
    </clipPath>
    <clipPath id="clip-path-17">
      <rect id="Rectángulo_48231" data-name="Rectángulo 48231" width="48.97" height="101.235" fill="none"/>
    </clipPath>
    <clipPath id="clip-path-19">
      <rect id="Rectángulo_48237" data-name="Rectángulo 48237" width="44.543" height="40.732" fill="none"/>
    </clipPath>
    <clipPath id="clip-path-20">
      <rect id="Rectángulo_48242" data-name="Rectángulo 48242" width="29.786" height="29.664" fill="none"/>
    </clipPath>
    <clipPath id="clip-path-21">
      <rect id="Rectángulo_48274" data-name="Rectángulo 48274" width="507" height="375" transform="translate(580 7876)" fill="#fff" stroke="#707070" stroke-width="1"/>
    </clipPath>
    <clipPath id="clip-path-22">
      <rect id="Rectángulo_48273" data-name="Rectángulo 48273" width="453.242" height="690.657" fill="none"/>
    </clipPath>
    <clipPath id="clip-path-24">
      <rect id="Rectángulo_48264" data-name="Rectángulo 48264" width="77.803" height="393.046" fill="none"/>
    </clipPath>
    <clipPath id="clip-path-25">
      <rect id="Rectángulo_48265" data-name="Rectángulo 48265" width="74.897" height="162.678" fill="none"/>
    </clipPath>
    <clipPath id="clip-path-26">
      <rect id="Rectángulo_48266" data-name="Rectángulo 48266" width="39.04" height="33.465" fill="none"/>
    </clipPath>
    <clipPath id="clip-path-27">
      <rect id="Rectángulo_48267" data-name="Rectángulo 48267" width="32.809" height="39.517" fill="none"/>
    </clipPath>
    <clipPath id="clip-path-28">
      <rect id="Rectángulo_48268" data-name="Rectángulo 48268" width="119.609" height="80.775" fill="none"/>
    </clipPath>
    <clipPath id="clip-path-29">
      <rect id="Rectángulo_48269" data-name="Rectángulo 48269" width="82.01" height="55.924" fill="none"/>
    </clipPath>
    <clipPath id="clip-path-30">
      <path id="Trazado_605523" data-name="Trazado 605523" d="M169.833,22.341c-5.493,1.441-7.461,4.072-6.739,6.816,0,0,1.407.846,6.284-.431a15.126,15.126,0,0,0,7.47-4.516s-1.025-2.234-4.434-2.234a10.165,10.165,0,0,0-2.581.365" transform="translate(-162.95 -21.976)" fill="none"/>
    </clipPath>
    <clipPath id="clip-path-32">
      <path id="Trazado_605530" data-name="Trazado 605530" d="M150.678,26.206c-5.605.915-5.647,4.558-5.647,4.558a15.1,15.1,0,0,0,8.659,1.091c4.974-.811,5.917-2.161,5.917-2.161-.369-2.265-2.316-3.747-6.014-3.747a18.21,18.21,0,0,0-2.914.259" transform="translate(-145.031 -25.947)" fill="none"/>
    </clipPath>
  </defs>
  <g id="Grupo_162304" data-name="Grupo 162304" transform="translate(4872 3296)">
    <rect id="Rectángulo_48263" data-name="Rectángulo 48263" width="947" height="410" transform="translate(-4872 -3296)" fill="#def8f3"/>
    <rect id="Rectángulo_48275" data-name="Rectángulo 48275" width="722" height="345" transform="translate(-4767 -3296)" fill="url(#linear-gradient)"/>
    <path id="Trazado_605455" data-name="Trazado 605455" d="M-3328-3449h-169.873l106.544-106.544h720.255L-2564.531-3449Z" transform="translate(-1374 563)" fill="#b0d2d0"/>
    <g id="Grupo_162300" data-name="Grupo 162300" transform="translate(-4617 -3291.65)">
      <g id="Grupo_162198" data-name="Grupo 162198" clip-path="url(#clip-path)">
        <rect id="Rectángulo_48213" data-name="Rectángulo 48213" width="352.514" height="261.992" transform="translate(24.189 8.72)" fill="#6b889b"/>
        <rect id="Rectángulo_48214" data-name="Rectángulo 48214" width="346.06" height="254.841" transform="translate(27.416 12.295)" fill="#d4e8f5"/>
        <g id="Grupo_162197" data-name="Grupo 162197" transform="translate(27.417 12.295)">
          <g id="Grupo_162196" data-name="Grupo 162196" clip-path="url(#clip-path-2)">
            <path id="Trazado_605334" data-name="Trazado 605334" d="M49.8,292.934l3.917-235.65,37.861,1.959,2.611,240.219s26.111-.653,26.763-2.611-2.611-142.956-2.611-142.956l39.819-7.181,3.917,143.61,42.431-2.611-12.4-211.5L258.687,89.27l-2.611,193.219,33.944,4.569-7.833-107.707,54.18,7.833V292.934l33.944-.653L364.436,55.326l47.652,3.917L397.075,308.6,46.517,304.548Z" transform="translate(-39.357 -26.496)" fill="#afcfe8"/>
            <path id="Trazado_605335" data-name="Trazado 605335" d="M118.756,305.261,116.8,136.846h37.209l.653,171.026,26.763,1.958,3.264-118.8,43.736-2.611-1.959,120.762,31.333-8.486L257.143,173.4l46.347-3.917-2.611,136.429,28.069-.653L326.989,97.027l43.083-1.305,9.138,214.761L218.63,323.539Z" transform="translate(-57.396 -36.865)" fill="#8caabe"/>
            <g id="Grupo_162195" data-name="Grupo 162195" transform="translate(-27.417 -12.295)" opacity="0.34">
              <g id="Grupo_162194" data-name="Grupo 162194">
                <g id="Grupo_162193" data-name="Grupo 162193" clip-path="url(#clip-path-3)">
                  <path id="Trazado_605336" data-name="Trazado 605336" d="M8.486,133.818,148.832,0l18.93,1.958L12.4,150.791l1.959,45.694L256.539,2.612l17.625,1.305L16.319,220.637l7.87,50.076L335.524,5.876l22.194.653L37.861,277.428l94,1.958L380.565,56.139V77.68L154.707,277.428l79.638,1.958L381.219,152.749l-1.306,24.806L242.831,283.3l-38.513,1.959L29.375,289.178,0,268.942Z" transform="translate(0 0)" fill="#fff"/>
                </g>
              </g>
            </g>
          </g>
        </g>
        <rect id="Rectángulo_48217" data-name="Rectángulo 48217" width="5.222" height="259.15" transform="translate(111.996 9.792)" fill="#6b889b"/>
        <rect id="Rectángulo_48218" data-name="Rectángulo 48218" width="5.222" height="259.15" transform="translate(197.836 9.792)" fill="#6b889b"/>
        <rect id="Rectángulo_48219" data-name="Rectángulo 48219" width="5.222" height="259.15" transform="translate(283.675 9.792)" fill="#6b889b"/>
      </g>
    </g>
    <g id="Grupo_162298" data-name="Grupo 162298" transform="translate(-4807 -3116.289)">
      <g id="Grupo_162190" data-name="Grupo 162190" clip-path="url(#clip-path-4)">
        <g id="Grupo_162189" data-name="Grupo 162189" transform="translate(0 0)">
          <g id="Grupo_162188" data-name="Grupo 162188" clip-path="url(#clip-path-4)">
            <path id="Trazado_605269" data-name="Trazado 605269" d="M61.8,100.071a2.8,2.8,0,1,0-2.8-2.8,2.808,2.808,0,0,0,2.8,2.8" transform="translate(29.002 46.435)" fill="#162844" fill-rule="evenodd"/>
            <path id="Trazado_605270" data-name="Trazado 605270" d="M81.337,100.071a2.8,2.8,0,1,0-2.8-2.8,2.808,2.808,0,0,0,2.8,2.8" transform="translate(38.604 46.435)" fill="#162844" fill-rule="evenodd"/>
            <rect id="Rectángulo_48179" data-name="Rectángulo 48179" width="4.95" height="19.192" transform="translate(89.917 117.373)" fill="#b2b3b3"/>
            <path id="Trazado_605271" data-name="Trazado 605271" d="M69.249,89.964h4.439a1.119,1.119,0,0,1,1.119,1.12v2.023l22.63,1.316a3.112,3.112,0,0,1,2.931,3.107h-57.8A3.112,3.112,0,0,1,45.5,94.422l22.63-1.316V91.084a1.119,1.119,0,0,1,1.119-1.12" transform="translate(20.924 44.222)" fill="#162844" fill-rule="evenodd"/>
            <path id="Trazado_605272" data-name="Trazado 605272" d="M60.369,85.937h5.787a1.107,1.107,0,0,0,1.107-1.107V78.372h-8V84.83a1.106,1.106,0,0,0,1.107,1.107" transform="translate(29.131 38.524)" fill="#162844" fill-rule="evenodd"/>
            <path id="Trazado_605273" data-name="Trazado 605273" d="M59.2,82.781h9.425a1.266,1.266,0,0,0,1.266-1.268V72.379H57.934v9.134A1.268,1.268,0,0,0,59.2,82.781" transform="translate(28.478 35.578)" fill="#162844" fill-rule="evenodd"/>
            <path id="Trazado_605274" data-name="Trazado 605274" d="M56.6,74.16H77.889a5.4,5.4,0,0,0,5.4-5.4h-32.1a5.4,5.4,0,0,0,5.4,5.4" transform="translate(25.164 33.797)" fill="#162844" fill-rule="evenodd"/>
            <path id="Trazado_605275" data-name="Trazado 605275" d="M42.038,96.345a2.8,2.8,0,0,0,5.605,0Z" transform="translate(20.664 47.359)" fill="#162844"/>
            <path id="Trazado_605276" data-name="Trazado 605276" d="M44.841,94.465a2.808,2.808,0,0,0-2.8,2.8h5.605a2.808,2.808,0,0,0-2.8-2.8" transform="translate(20.664 46.435)" fill="#162844"/>
            <path id="Trazado_605277" data-name="Trazado 605277" d="M61.8,94.465a2.808,2.808,0,0,0-2.8,2.8h5.605a2.808,2.808,0,0,0-2.8-2.8" transform="translate(29.002 46.435)" fill="#162844"/>
            <path id="Trazado_605278" data-name="Trazado 605278" d="M81.337,94.465a2.808,2.808,0,0,0-2.8,2.8h5.605a2.808,2.808,0,0,0-2.8-2.8" transform="translate(38.604 46.435)" fill="#162844"/>
            <path id="Trazado_605279" data-name="Trazado 605279" d="M59.914,82.387h-.8a1.182,1.182,0,0,1-1.181-1.181V71.985h1.979Z" transform="translate(28.478 35.385)" fill="#274663"/>
            <path id="Trazado_605280" data-name="Trazado 605280" d="M61.241,85.06h-.8a1.181,1.181,0,0,1-1.181-1.181V78.958h1.979Z" transform="translate(29.131 38.812)" fill="#274663"/>
            <path id="Trazado_605281" data-name="Trazado 605281" d="M39.9,66.746h0a5.907,5.907,0,0,0,5.907,5.907h59.279a5.908,5.908,0,0,0,5.9-5.632,6.138,6.138,0,0,0-6.22-6.181H45.81A5.907,5.907,0,0,0,39.9,66.746" transform="translate(19.614 29.906)" fill="#33435c"/>
            <path id="Trazado_605282" data-name="Trazado 605282" d="M45.276,82.082h40.5a3.17,3.17,0,0,0,3.211-3.605L84.043,33.244a4.125,4.125,0,0,0-4-3.605H39.54a3.171,3.171,0,0,0-3.211,3.605l4.949,45.233a4.124,4.124,0,0,0,4,3.605" transform="translate(17.847 14.569)" fill="#33435c"/>
            <path id="Trazado_605283" data-name="Trazado 605283" d="M176.193,100.071a2.8,2.8,0,1,0-2.8-2.8,2.808,2.808,0,0,0,2.8,2.8" transform="translate(85.231 46.435)" fill="#162844" fill-rule="evenodd"/>
            <path id="Trazado_605284" data-name="Trazado 605284" d="M195.727,100.071a2.8,2.8,0,1,0-2.8-2.8,2.809,2.809,0,0,0,2.8,2.8" transform="translate(94.832 46.435)" fill="#162844" fill-rule="evenodd"/>
            <rect id="Rectángulo_48180" data-name="Rectángulo 48180" width="4.95" height="19.192" transform="translate(260.536 117.373)" fill="#b2b3b3"/>
            <path id="Trazado_605285" data-name="Trazado 605285" d="M183.639,89.964h4.439a1.119,1.119,0,0,1,1.119,1.12v2.023l22.63,1.316a3.112,3.112,0,0,1,2.931,3.107h-57.8a3.112,3.112,0,0,1,2.932-3.107l22.63-1.316V91.084a1.119,1.119,0,0,1,1.119-1.12" transform="translate(77.153 44.222)" fill="#162844" fill-rule="evenodd"/>
            <path id="Trazado_605286" data-name="Trazado 605286" d="M174.759,85.937h5.787a1.106,1.106,0,0,0,1.107-1.107V78.372h-8V84.83a1.106,1.106,0,0,0,1.107,1.107" transform="translate(85.359 38.524)" fill="#162844" fill-rule="evenodd"/>
            <path id="Trazado_605287" data-name="Trazado 605287" d="M173.592,82.781h9.424a1.267,1.267,0,0,0,1.268-1.268V72.379H172.324v9.134a1.268,1.268,0,0,0,1.268,1.268" transform="translate(84.707 35.578)" fill="#162844" fill-rule="evenodd"/>
            <path id="Trazado_605288" data-name="Trazado 605288" d="M170.987,74.16h21.292a5.4,5.4,0,0,0,5.4-5.4h-32.1a5.4,5.4,0,0,0,5.4,5.4" transform="translate(81.393 33.797)" fill="#162844" fill-rule="evenodd"/>
            <path id="Trazado_605289" data-name="Trazado 605289" d="M156.428,96.345a2.8,2.8,0,0,0,5.605,0Z" transform="translate(76.893 47.359)" fill="#162844"/>
            <path id="Trazado_605290" data-name="Trazado 605290" d="M159.231,94.465a2.808,2.808,0,0,0-2.8,2.8h5.605a2.808,2.808,0,0,0-2.8-2.8" transform="translate(76.893 46.435)" fill="#162844"/>
            <path id="Trazado_605291" data-name="Trazado 605291" d="M176.193,94.465a2.808,2.808,0,0,0-2.8,2.8H179a2.808,2.808,0,0,0-2.8-2.8" transform="translate(85.231 46.435)" fill="#162844"/>
            <path id="Trazado_605292" data-name="Trazado 605292" d="M195.727,94.465a2.809,2.809,0,0,0-2.8,2.8h5.607a2.809,2.809,0,0,0-2.8-2.8" transform="translate(94.832 46.435)" fill="#162844"/>
            <path id="Trazado_605293" data-name="Trazado 605293" d="M174.3,82.387h-.8a1.182,1.182,0,0,1-1.181-1.181V71.985H174.3Z" transform="translate(84.707 35.385)" fill="#274663"/>
            <path id="Trazado_605294" data-name="Trazado 605294" d="M175.632,85.06h-.8a1.18,1.18,0,0,1-1.181-1.181V78.958h1.981Z" transform="translate(85.359 38.812)" fill="#274663"/>
            <path id="Trazado_605295" data-name="Trazado 605295" d="M154.293,66.746h0a5.907,5.907,0,0,0,5.907,5.907h59.279a5.908,5.908,0,0,0,5.9-5.632,6.138,6.138,0,0,0-6.22-6.181H160.2a5.907,5.907,0,0,0-5.907,5.907" transform="translate(75.843 29.906)" fill="#33435c"/>
            <path id="Trazado_605296" data-name="Trazado 605296" d="M159.666,82.082h40.5a3.17,3.17,0,0,0,3.211-3.605l-4.949-45.233a4.125,4.125,0,0,0-4-3.605H153.928a3.171,3.171,0,0,0-3.21,3.605l4.949,45.233a4.124,4.124,0,0,0,4,3.605" transform="translate(74.075 14.569)" fill="#33435c"/>
            <rect id="Rectángulo_48181" data-name="Rectángulo 48181" width="83.976" height="3.873" transform="matrix(0.206, -0.979, 0.979, 0.206, 361.427, 145.73)" fill="#fff"/>
            <rect id="Rectángulo_48182" data-name="Rectángulo 48182" width="3.873" height="83.976" transform="matrix(0.979, -0.206, 0.206, 0.979, 382.786, 64.344)" fill="#fff"/>
            <rect id="Rectángulo_48183" data-name="Rectángulo 48183" width="34.538" height="3.872" transform="translate(365.547 133.621)" fill="#fff"/>
            <rect id="Rectángulo_48184" data-name="Rectángulo 48184" width="45.069" height="5.247" transform="translate(360.634 61.324)" fill="#fff"/>
            <rect id="Rectángulo_48185" data-name="Rectángulo 48185" width="410" height="9.151" transform="translate(0 57.556)" fill="#fff"/>
            <rect id="Rectángulo_48186" data-name="Rectángulo 48186" width="21.305" height="32.743" transform="translate(222.858 25.221)" fill="#d15030"/>
            <rect id="Rectángulo_48187" data-name="Rectángulo 48187" width="5.085" height="32.743" transform="translate(239.077 25.221)" fill="#eb7f3d"/>
            <rect id="Rectángulo_48188" data-name="Rectángulo 48188" width="21.304" height="32.743" transform="translate(214.168 25.221)" fill="#00ab9c"/>
            <g id="Grupo_162182" data-name="Grupo 162182" transform="translate(230.387 25.221)" opacity="0.3" style="mix-blend-mode: multiply;isolation: isolate">
              <g id="Grupo_162181" data-name="Grupo 162181">
                <g id="Grupo_162180" data-name="Grupo 162180" clip-path="url(#clip-path-6)">
                  <g id="Grupo_162179" data-name="Grupo 162179" transform="translate(0 0)">
                    <g id="Grupo_162178" data-name="Grupo 162178" clip-path="url(#clip-path-7)">
                      <rect id="Rectángulo_48189" data-name="Rectángulo 48189" width="5.085" height="32.743" fill="url(#linear-gradient-2)"/>
                    </g>
                  </g>
                </g>
              </g>
            </g>
            <rect id="Rectángulo_48192" data-name="Rectángulo 48192" width="21.304" height="26.627" transform="translate(205.381 31.336)" fill="#7ba4bd"/>
            <rect id="Rectángulo_48193" data-name="Rectángulo 48193" width="5.085" height="26.627" transform="translate(221.602 31.336)" fill="#a2d9fd"/>
            <path id="Trazado_605297" data-name="Trazado 605297" d="M228.5,0H165.805a2.39,2.39,0,0,0-2.392,2.384v41.45a2.391,2.391,0,0,0,2.392,2.385H228.5a2.391,2.391,0,0,0,2.392-2.385V2.384A2.39,2.39,0,0,0,228.5,0" transform="translate(80.326 0)" fill="#fff"/>
            <path id="Trazado_605298" data-name="Trazado 605298" d="M163.413,31.649a2.4,2.4,0,0,0,2.4,2.389H228.5a2.39,2.39,0,0,0,2.389-2.389V24.782H163.413Z" transform="translate(80.326 12.182)" fill="#fff"/>
            <rect id="Rectángulo_48194" data-name="Rectángulo 48194" width="27.834" height="2.591" transform="translate(262.831 57.522)" fill="#fff"/>
            <rect id="Rectángulo_48195" data-name="Rectángulo 48195" width="11.721" height="11.303" transform="translate(272.784 46.219)" fill="#fff"/>
            <path id="Trazado_605299" data-name="Trazado 605299" d="M130.328,0H67.633a2.39,2.39,0,0,0-2.392,2.384v41.45a2.391,2.391,0,0,0,2.392,2.385h62.694a2.391,2.391,0,0,0,2.392-2.385V2.384A2.39,2.39,0,0,0,130.328,0" transform="translate(32.07 0)" fill="#fff"/>
            <path id="Trazado_605300" data-name="Trazado 605300" d="M65.241,31.649a2.4,2.4,0,0,0,2.4,2.389h62.693a2.39,2.39,0,0,0,2.389-2.389V24.782H65.241Z" transform="translate(32.07 12.182)" fill="#fff"/>
            <rect id="Rectángulo_48196" data-name="Rectángulo 48196" width="27.834" height="2.591" transform="translate(116.404 57.522)" fill="#fff"/>
            <rect id="Rectángulo_48197" data-name="Rectángulo 48197" width="11.721" height="11.303" transform="translate(126.356 46.219)" fill="#fff"/>
            <path id="Trazado_605301" data-name="Trazado 605301" d="M255.521,0H192.826a2.39,2.39,0,0,0-2.392,2.384v41.45a2.391,2.391,0,0,0,2.392,2.385h62.695a2.391,2.391,0,0,0,2.393-2.385V2.384A2.39,2.39,0,0,0,255.521,0" transform="translate(93.609 0)" fill="#162844"/>
            <path id="Trazado_605302" data-name="Trazado 605302" d="M190.434,31.649a2.4,2.4,0,0,0,2.4,2.389h62.693a2.39,2.39,0,0,0,2.389-2.389V24.782H190.434Z" transform="translate(93.609 12.182)" fill="#fff"/>
            <rect id="Rectángulo_48198" data-name="Rectángulo 48198" width="27.834" height="2.591" transform="translate(303.136 57.522)" fill="#fff"/>
            <rect id="Rectángulo_48199" data-name="Rectángulo 48199" width="11.721" height="11.303" transform="translate(313.089 46.219)" fill="#fff"/>
            <path id="Trazado_605303" data-name="Trazado 605303" d="M157.5,0H94.807a2.39,2.39,0,0,0-2.392,2.384v41.45a2.391,2.391,0,0,0,2.392,2.385H157.5a2.389,2.389,0,0,0,2.391-2.385V2.384A2.389,2.389,0,0,0,157.5,0" transform="translate(45.427 0)" fill="#162844"/>
            <path id="Trazado_605304" data-name="Trazado 605304" d="M92.415,31.649a2.4,2.4,0,0,0,2.4,2.389H157.5a2.39,2.39,0,0,0,2.389-2.389V24.782H92.415Z" transform="translate(45.427 12.182)" fill="#fff"/>
            <rect id="Rectángulo_48200" data-name="Rectángulo 48200" width="27.834" height="2.591" transform="translate(156.934 57.522)" fill="#fff"/>
            <rect id="Rectángulo_48201" data-name="Rectángulo 48201" width="11.721" height="11.303" transform="translate(166.887 46.219)" fill="#fff"/>
            <path id="Trazado_605305" data-name="Trazado 605305" d="M123.24,100.071a2.8,2.8,0,1,1,2.8-2.8,2.808,2.808,0,0,1-2.8,2.8" transform="translate(59.201 46.435)" fill="#162844" fill-rule="evenodd"/>
            <path id="Trazado_605306" data-name="Trazado 605306" d="M103.707,100.071a2.8,2.8,0,1,1,2.8-2.8,2.808,2.808,0,0,1-2.8,2.8" transform="translate(49.6 46.435)" fill="#162844" fill-rule="evenodd"/>
            <rect id="Rectángulo_48202" data-name="Rectángulo 48202" width="4.95" height="19.192" transform="translate(178.378 117.373)" fill="#b2b3b3"/>
            <path id="Trazado_605307" data-name="Trazado 605307" d="M133,89.964h-4.44a1.119,1.119,0,0,0-1.119,1.12v2.023l-22.63,1.316a3.113,3.113,0,0,0-2.931,3.107h57.8a3.114,3.114,0,0,0-2.934-3.107l-22.627-1.316V91.084a1.121,1.121,0,0,0-1.12-1.12" transform="translate(50.078 44.222)" fill="#162844" fill-rule="evenodd"/>
            <path id="Trazado_605308" data-name="Trazado 605308" d="M125.463,85.937h-5.787a1.107,1.107,0,0,1-1.107-1.107V78.372h8V84.83a1.106,1.106,0,0,1-1.107,1.107" transform="translate(58.283 38.524)" fill="#162844" fill-rule="evenodd"/>
            <path id="Trazado_605309" data-name="Trazado 605309" d="M127.934,82.781h-9.424a1.267,1.267,0,0,1-1.268-1.268V72.379H129.2v9.134a1.268,1.268,0,0,1-1.268,1.268" transform="translate(57.631 35.578)" fill="#162844" fill-rule="evenodd"/>
            <path id="Trazado_605310" data-name="Trazado 605310" d="M137.177,74.16H115.885a5.4,5.4,0,0,1-5.4-5.4h32.1a5.4,5.4,0,0,1-5.4,5.4" transform="translate(54.307 33.797)" fill="#162844" fill-rule="evenodd"/>
            <path id="Trazado_605311" data-name="Trazado 605311" d="M143,96.345a2.8,2.8,0,1,1-5.605,0Z" transform="translate(67.539 47.359)" fill="#162844"/>
            <path id="Trazado_605312" data-name="Trazado 605312" d="M140.2,94.465a2.808,2.808,0,0,1,2.8,2.8H137.4a2.808,2.808,0,0,1,2.8-2.8" transform="translate(67.539 46.435)" fill="#162844"/>
            <path id="Trazado_605313" data-name="Trazado 605313" d="M123.24,94.465a2.808,2.808,0,0,1,2.8,2.8h-5.605a2.808,2.808,0,0,1,2.8-2.8" transform="translate(59.201 46.435)" fill="#162844"/>
            <path id="Trazado_605314" data-name="Trazado 605314" d="M103.707,94.465a2.808,2.808,0,0,1,2.8,2.8H100.9a2.808,2.808,0,0,1,2.8-2.8" transform="translate(49.6 46.435)" fill="#162844"/>
            <path id="Trazado_605315" data-name="Trazado 605315" d="M123.934,82.387h.8a1.182,1.182,0,0,0,1.181-1.181V71.985h-1.979Z" transform="translate(60.92 35.385)" fill="#274663"/>
            <path id="Trazado_605316" data-name="Trazado 605316" d="M122.607,85.06h.8a1.18,1.18,0,0,0,1.181-1.181V78.958h-1.979Z" transform="translate(60.268 38.812)" fill="#274663"/>
            <path id="Trazado_605317" data-name="Trazado 605317" d="M166.721,66.746h0a5.907,5.907,0,0,1-5.907,5.907H101.535a5.908,5.908,0,0,1-5.9-5.632,6.138,6.138,0,0,1,6.22-6.181h58.96a5.907,5.907,0,0,1,5.907,5.907" transform="translate(47.007 29.906)" fill="#33435c"/>
            <path id="Trazado_605318" data-name="Trazado 605318" d="M155.289,82.082h-40.5a3.17,3.17,0,0,1-3.211-3.605l4.949-45.233a4.125,4.125,0,0,1,4-3.605h40.506a3.171,3.171,0,0,1,3.21,3.605l-4.949,45.233a4.124,4.124,0,0,1-4,3.605" transform="translate(54.834 14.569)" fill="#33435c"/>
            <path id="Trazado_605319" data-name="Trazado 605319" d="M237.656,100.071a2.8,2.8,0,1,1,2.8-2.8,2.808,2.808,0,0,1-2.8,2.8" transform="translate(115.443 46.435)" fill="#162844" fill-rule="evenodd"/>
            <path id="Trazado_605320" data-name="Trazado 605320" d="M218.122,100.071a2.8,2.8,0,1,1,2.8-2.8,2.808,2.808,0,0,1-2.8,2.8" transform="translate(105.841 46.435)" fill="#162844" fill-rule="evenodd"/>
            <rect id="Rectángulo_48203" data-name="Rectángulo 48203" width="4.95" height="19.192" transform="translate(349.036 117.373)" fill="#b2b3b3"/>
            <path id="Trazado_605321" data-name="Trazado 605321" d="M247.41,89.964h-4.439a1.119,1.119,0,0,0-1.119,1.12v2.023l-22.63,1.316a3.112,3.112,0,0,0-2.931,3.107h57.8a3.112,3.112,0,0,0-2.932-3.107L248.53,93.107V91.084a1.121,1.121,0,0,0-1.12-1.12" transform="translate(106.319 44.222)" fill="#162844" fill-rule="evenodd"/>
            <path id="Trazado_605322" data-name="Trazado 605322" d="M239.879,85.937h-5.787a1.106,1.106,0,0,1-1.107-1.107V78.372h8V84.83a1.106,1.106,0,0,1-1.107,1.107" transform="translate(114.525 38.524)" fill="#162844" fill-rule="evenodd"/>
            <path id="Trazado_605323" data-name="Trazado 605323" d="M242.35,82.781h-9.424a1.267,1.267,0,0,1-1.268-1.268V72.379h11.959v9.134a1.268,1.268,0,0,1-1.268,1.268" transform="translate(113.873 35.578)" fill="#162844" fill-rule="evenodd"/>
            <path id="Trazado_605324" data-name="Trazado 605324" d="M251.593,74.16H230.3a5.4,5.4,0,0,1-5.4-5.4H257a5.4,5.4,0,0,1-5.4,5.4" transform="translate(110.549 33.797)" fill="#162844" fill-rule="evenodd"/>
            <path id="Trazado_605325" data-name="Trazado 605325" d="M257.42,96.345a2.8,2.8,0,1,1-5.605,0Z" transform="translate(123.781 47.359)" fill="#162844"/>
            <path id="Trazado_605326" data-name="Trazado 605326" d="M254.618,94.465a2.808,2.808,0,0,1,2.8,2.8h-5.605a2.808,2.808,0,0,1,2.8-2.8" transform="translate(123.781 46.435)" fill="#162844"/>
            <path id="Trazado_605327" data-name="Trazado 605327" d="M237.656,94.465a2.808,2.808,0,0,1,2.8,2.8h-5.605a2.808,2.808,0,0,1,2.8-2.8" transform="translate(115.443 46.435)" fill="#162844"/>
            <path id="Trazado_605328" data-name="Trazado 605328" d="M218.122,94.465a2.808,2.808,0,0,1,2.8,2.8h-5.605a2.808,2.808,0,0,1,2.8-2.8" transform="translate(105.841 46.435)" fill="#162844"/>
            <path id="Trazado_605329" data-name="Trazado 605329" d="M238.349,82.387h.8a1.181,1.181,0,0,0,1.181-1.181V71.985h-1.979Z" transform="translate(117.161 35.385)" fill="#274663"/>
            <path id="Trazado_605330" data-name="Trazado 605330" d="M237.022,85.06h.8A1.181,1.181,0,0,0,239,83.879V78.958h-1.979Z" transform="translate(116.509 38.812)" fill="#274663"/>
            <path id="Trazado_605331" data-name="Trazado 605331" d="M281.137,66.746h0a5.907,5.907,0,0,1-5.907,5.907H215.951a5.908,5.908,0,0,1-5.9-5.632,6.138,6.138,0,0,1,6.22-6.181h58.96a5.907,5.907,0,0,1,5.907,5.907" transform="translate(103.249 29.906)" fill="#33435c"/>
            <path id="Trazado_605332" data-name="Trazado 605332" d="M269.705,82.082H229.2a3.17,3.17,0,0,1-3.21-3.605l4.949-45.233a4.125,4.125,0,0,1,4-3.605h40.5a3.171,3.171,0,0,1,3.211,3.605L273.7,78.477a4.124,4.124,0,0,1-4,3.605" transform="translate(111.075 14.569)" fill="#33435c"/>
            <rect id="Rectángulo_48204" data-name="Rectángulo 48204" width="21.304" height="32.743" transform="translate(92.381 24.779)" fill="#eba452"/>
            <rect id="Rectángulo_48205" data-name="Rectángulo 48205" width="5.085" height="32.743" transform="translate(108.602 24.779)" fill="#fbd5a2"/>
            <rect id="Rectángulo_48206" data-name="Rectángulo 48206" width="21.304" height="26.627" transform="translate(83.596 30.895)" fill="#00ab9c"/>
            <g id="Grupo_162187" data-name="Grupo 162187" transform="translate(99.815 30.895)" opacity="0.3" style="mix-blend-mode: multiply;isolation: isolate">
              <g id="Grupo_162186" data-name="Grupo 162186">
                <g id="Grupo_162185" data-name="Grupo 162185" clip-path="url(#clip-path-8)">
                  <g id="Grupo_162184" data-name="Grupo 162184" transform="translate(0 -0.001)">
                    <g id="Grupo_162183" data-name="Grupo 162183" clip-path="url(#clip-path-8)">
                      <rect id="Rectángulo_48207" data-name="Rectángulo 48207" width="5.085" height="26.627" transform="translate(0 0)" fill="url(#linear-gradient-3)"/>
                    </g>
                  </g>
                </g>
              </g>
            </g>
          </g>
        </g>
      </g>
    </g>
    <path id="Unión_30" data-name="Unión 30" d="M4082.33,11798.221H3763a8.5,8.5,0,0,1-8.5-8.5V11709a8.5,8.5,0,0,1,8.5-8.5h353a8.5,8.5,0,0,1,8.5,8.5v80.721a8.5,8.5,0,0,1-8.5,8.5h-12.983l6.383,15.813Z" transform="translate(-8489.5 -14961.246)" fill="#fff"/>
    <text id="La_trazabilidad_documental_hace_alusión_al_rastreo_de_la_solicitud_de_servicio._" data-name="La trazabilidad documental hace alusión al rastreo de la solicitud de servicio. " transform="translate(-4704.5 -3232.746)" fill="#12263f" font-size="17" font-family="Roboto-Regular, Roboto"><tspan x="0" y="16">La trazabilidad documental hace alusión </tspan><tspan x="0" y="40">al rastreo de la solicitud de servicio. </tspan></text>
    <g id="Grupo_162303" data-name="Grupo 162303" transform="translate(-4604.5 -3253.747)">
      <g id="Grupo_162200" data-name="Grupo 162200" clip-path="url(#clip-path-10)">
        <path id="Trazado_605338" data-name="Trazado 605338" d="M223.092,107.034a1,1,0,0,1-.518-.145L196.7,91.221H1a1,1,0,0,1,0-2H196.978a.993.993,0,0,1,.517.144l23.6,14.289L216,90.583a1,1,0,0,1,.932-1.362H230a7.509,7.509,0,0,0,7.5-7.5V1a1,1,0,0,1,2,0V81.721a9.511,9.511,0,0,1-9.5,9.5H218.4l5.628,14.45a1,1,0,0,1-.932,1.363" fill="#2d4766"/>
      </g>
    </g>
    <g id="Grupo_162299" data-name="Grupo 162299" transform="translate(-4222.905 -3084)">
      <g id="Grupo_162204" data-name="Grupo 162204">
        <g id="Grupo_162203" data-name="Grupo 162203" clip-path="url(#clip-path-11)">
          <path id="Trazado_605340" data-name="Trazado 605340" d="M63.545,120.037c0,2.2-12.235,3.982-27.329,3.982s-27.329-1.783-27.329-3.982,12.236-3.982,27.329-3.982,27.329,1.783,27.329,3.982" fill="#8faec8"/>
          <path id="Trazado_605341" data-name="Trazado 605341" d="M34.223,107.492s-5.212-29.15,3.628-42.15L19.664,52.9l5.2-1.56L38.9,64.854l10.919-10.4,3.12,2.08L39.237,66.556S31.1,80.973,37.863,106.972Z" fill="#754a29"/>
        </g>
      </g>
      <g id="Grupo_162206" data-name="Grupo 162206">
        <g id="Grupo_162205" data-name="Grupo 162205" clip-path="url(#clip-path-12)">
          <path id="Trazado_605342" data-name="Trazado 605342" d="M27.39,62.092,33.872,58.3l6.008-.159,8.853,6.166,3.637-8.537-12.648-11.7L23.28,56.084l3.478,47.9,16.916-1.107-1.107-8.537L30.078,96.4Z" fill="#654124"/>
        </g>
      </g>
      <g id="Grupo_162208" data-name="Grupo 162208">
        <g id="Grupo_162207" data-name="Grupo 162207" clip-path="url(#clip-path-11)">
          <path id="Trazado_605344" data-name="Trazado 605344" d="M23.823,98.132l23.645-.943-3.952,23.873-18.133-.571Z" fill="#fff"/>
          <path id="Trazado_605345" data-name="Trazado 605345" d="M12.9,59.134s14.039,4.68,23.919-5.2c0,0,14.039,13,26,8.32,0,0,33.278-19.239,19.759-34.839l-7.28,5.2S80.5.377,66.461,2.457s-16.639,18.2-16.639,18.2S48.262-3.263,31.623.377,20.7,25.856,20.7,25.856s-14.04-11.96-13-3.12,5.2,10.4,5.2,10.4-21.854,15.914,0,26" fill="#7ebf74"/>
        </g>
      </g>
      <g id="Grupo_162210" data-name="Grupo 162210">
        <g id="Grupo_162209" data-name="Grupo 162209" clip-path="url(#clip-path-14)">
          <path id="Trazado_605346" data-name="Trazado 605346" d="M5.572,34.267c1.1-.636,14.861,29.564,33.042,13.6,0,0,17.391,16.759,45.375,4.427,0,0-13.913,21.027-38.418,13.28s-35.1,8.7-40.157-5.059-9.17-20.869.158-26.244" fill="#6aa25e"/>
        </g>
      </g>
    </g>
    <g id="Grupo_162302" data-name="Grupo 162302" transform="translate(-4177 -3198.29)">
      <g id="Grupo_162225" data-name="Grupo 162225" clip-path="url(#clip-path-15)">
        <g id="Grupo_162216" data-name="Grupo 162216">
          <g id="Grupo_162215" data-name="Grupo 162215" clip-path="url(#clip-path-15)">
            <g id="Grupo_162214" data-name="Grupo 162214" transform="translate(0 1.919)" style="mix-blend-mode: multiply;isolation: isolate">
              <g id="Grupo_162213" data-name="Grupo 162213">
                <g id="Grupo_162212" data-name="Grupo 162212" clip-path="url(#clip-path-17)">
                  <rect id="Rectángulo_48230" data-name="Rectángulo 48230" width="48.97" height="101.235" transform="translate(0 -0.001)" fill="#bac3b7"/>
                </g>
              </g>
            </g>
          </g>
        </g>
        <rect id="Rectángulo_48233" data-name="Rectángulo 48233" width="48.97" height="101.235" fill="#313a4d"/>
        <rect id="Rectángulo_48234" data-name="Rectángulo 48234" width="40.121" height="92.387" transform="translate(4.425 4.425)" fill="#fff"/>
        <g id="Grupo_162224" data-name="Grupo 162224">
          <g id="Grupo_162223" data-name="Grupo 162223" clip-path="url(#clip-path-15)">
            <path id="Trazado_605348" data-name="Trazado 605348" d="M47,100.153H6.881A.885.885,0,0,1,6,99.268V6.881A.885.885,0,0,1,6.881,6H47a.885.885,0,0,1,.885.885V99.268a.885.885,0,0,1-.885.885M7.767,98.383h38.35V7.766H7.767Z" transform="translate(-2.457 -2.457)" fill="#272735"/>
            <rect id="Rectángulo_48235" data-name="Rectángulo 48235" width="29.798" height="82.064" transform="translate(9.586 9.586)" fill="#aecbce"/>
            <path id="Trazado_605349" data-name="Trazado 605349" d="M39.322,110.969s-.037-23.54,11.024-39.89c0,0,.81,26.138-11.024,39.89" transform="translate(-16.112 -29.124)" fill="#81a8a8"/>
            <path id="Trazado_605350" data-name="Trazado 605350" d="M33.431,103.852s-13.679-28.12-6.3-50.142c0,0,8.185,29.137,6.3,50.142" transform="translate(-10.221 -22.007)" fill="#81a8a8"/>
            <path id="Trazado_605351" data-name="Trazado 605351" d="M36.44,42.8s-3.487,9.987,2.566,12.048c4.8,1.633,7.042-2.379,7.685-5.918.951-5.231-.9-6.875-1.691-7.4-1.9-1.266-4.03,1.257-4.03,1.257s-2.522-3.424-4.53.011" transform="translate(-14.522 -16.87)" fill="#d35c68"/>
            <g id="Grupo_162219" data-name="Grupo 162219" transform="translate(68.703 62.422)" style="mix-blend-mode: multiply;isolation: isolate">
              <g id="Grupo_162218" data-name="Grupo 162218">
                <g id="Grupo_162217" data-name="Grupo 162217" clip-path="url(#clip-path-19)">
                  <rect id="Rectángulo_48236" data-name="Rectángulo 48236" width="44.543" height="40.731" transform="translate(0 0)" fill="#bac3b7"/>
                </g>
              </g>
            </g>
            <rect id="Rectángulo_48238" data-name="Rectángulo 48238" width="44.543" height="40.732" transform="translate(68.703 60.504)" fill="#313a4d"/>
            <rect id="Rectángulo_48239" data-name="Rectángulo 48239" width="35.695" height="31.883" transform="translate(73.128 64.928)" fill="#fff"/>
            <path id="Trazado_605352" data-name="Trazado 605352" d="M158.971,142.154H123.276a.885.885,0,0,1-.885-.885V109.385a.885.885,0,0,1,.885-.885h35.695a.885.885,0,0,1,.885.885v31.883a.885.885,0,0,1-.885.885m-34.809-1.771h33.924V110.27H124.162Z" transform="translate(-50.149 -44.457)" fill="#272735"/>
            <rect id="Rectángulo_48240" data-name="Rectángulo 48240" width="25.371" height="21.56" transform="translate(78.289 70.09)" fill="#9ab9b9"/>
            <path id="Trazado_605353" data-name="Trazado 605353" d="M137.415,143.6s.775-4.583,3.778-7.091c0,0-3.585-5.5-.775-8.51s7.556-.585,4.165,9.1c0,0,2.292,1.841,2.7,3.585,0,0,.792-2.325,1.761-3,0,0-1.162-3.972,0-6.3s6.781-1.162,4.262,6.2a10.588,10.588,0,0,1,2.616,6.014Z" transform="translate(-56.305 -51.95)" fill="#aecbce"/>
            <g id="Grupo_162222" data-name="Grupo 162222" transform="translate(76.082 12.731)" style="mix-blend-mode: multiply;isolation: isolate">
              <g id="Grupo_162221" data-name="Grupo 162221">
                <g id="Grupo_162220" data-name="Grupo 162220" clip-path="url(#clip-path-20)">
                  <rect id="Rectángulo_48241" data-name="Rectángulo 48241" width="29.786" height="29.664" fill="#bac3b7"/>
                </g>
              </g>
            </g>
            <rect id="Rectángulo_48243" data-name="Rectángulo 48243" width="29.786" height="29.664" transform="translate(76.082 10.812)" fill="#313a4d"/>
            <rect id="Rectángulo_48244" data-name="Rectángulo 48244" width="20.938" height="20.815" transform="translate(80.506 15.236)" fill="#fff"/>
            <path id="Trazado_605354" data-name="Trazado 605354" d="M156.714,46.9H135.776a.885.885,0,0,1-.885-.885V25.2a.885.885,0,0,1,.885-.885h20.938a.885.885,0,0,1,.885.885V46.014a.885.885,0,0,1-.885.885m-20.052-1.771h19.167V26.083H136.662Z" transform="translate(-55.271 -9.962)" fill="#272735"/>
            <rect id="Rectángulo_48245" data-name="Rectángulo 48245" width="13.195" height="13.044" transform="translate(84.377 19.123)" fill="#d35c68"/>
            <path id="Trazado_605355" data-name="Trazado 605355" d="M147.426,47.6a5.339,5.339,0,0,1,1.824-2.173s-1.4-4.831,0-6.763,4.294-.875,4.509,1.709a11.165,11.165,0,0,1-.966,5.054,3.821,3.821,0,0,1,1.824,2.173Z" transform="translate(-60.407 -15.436)" fill="#aecbce"/>
          </g>
        </g>
      </g>
    </g>
    <g id="Enmascarar_grupo_161822" data-name="Enmascarar grupo 161822" transform="translate(-5237 -11137)" clip-path="url(#clip-path-21)">
      <g id="Grupo_162297" data-name="Grupo 162297" transform="translate(585.246 7895)">
        <g id="Grupo_162296" data-name="Grupo 162296" clip-path="url(#clip-path-22)">
          <g id="Grupo_162287" data-name="Grupo 162287">
            <g id="Grupo_162286" data-name="Grupo 162286" clip-path="url(#clip-path-22)">
              <path id="Trazado_605456" data-name="Trazado 605456" d="M221.059,34.105c.391-8.5-7.311-24.092-16.706-27.022C196.778.746,186.138-1.839,170.9,1.4s-23.916,9.923-28.259,18.792l0,0c-7.479,6.644-8.036,24-4.286,31.481-1.578,6.684-.433,17.375,4.777,23.916,3.073,3.858,9.881,6.149,17.42,7.373,8.071,3.489,17.82,3.73,28,1.569s18.988-6.341,24.945-12.811c6.392-4.18,11.679-9.041,12.921-13.814,2.1-8.093-1.2-18.328-5.354-23.794" transform="translate(164.595 0)" fill="#482231"/>
              <path id="Trazado_605457" data-name="Trazado 605457" d="M210,44.225a11.719,11.719,0,0,1-1.754-11.156,2.781,2.781,0,0,0-3.109-3.692L175.77,35.614,146.4,41.849a2.78,2.78,0,0,0-1.339,4.636,11.725,11.725,0,0,1,2.93,10.908c-.979,4.357-5.981,13.334.9,28.575,2.408,5.334.323,10.024,6.372,18.774,11.516,16.653,26.574,16.549,38.178,14.086s25.407-8.487,29.163-28.383c1.973-10.453-1.84-13.891-1.807-19.742.093-16.724-8.124-22.895-10.789-26.479" transform="translate(174.516 35.458)" fill="#482231"/>
              <path id="Trazado_605458" data-name="Trazado 605458" d="M148.218,228.77a18.007,18.007,0,1,0,15.292-20.365,18.008,18.008,0,0,0-15.292,20.365" transform="translate(179.048 251.845)" fill="#f6b6a2"/>
              <path id="Trazado_605459" data-name="Trazado 605459" d="M148.225,228.87l24.123,164.554c2.132,12.358,20.051,10.634,19.793-1.927L184.07,225.381a18.028,18.028,0,1,0-35.845,3.489" transform="translate(179.034 251.849)" fill="#f6b6a2"/>
              <path id="Trazado_605460" data-name="Trazado 605460" d="M160.219,332.489a6.023,6.023,0,0,0,5.088-2.784l5.236-8.219a58.637,58.637,0,0,1,9.355-11.222l3.9-3.626a13.85,13.85,0,0,0,3.953-6.646,4.384,4.384,0,0,1,4.229-3.314l-.548-.877a14.507,14.507,0,0,0-27,.749h-.02l-.146.4a2.148,2.148,0,0,1-.091.312l-2.583,7.724a63.293,63.293,0,0,0-3.093,14.958l-.53,6.445a5.3,5.3,0,0,1-2.729,4.191l-3.5,1.9h8.476Z" transform="translate(183.532 347.074)" fill="#f6b6a2"/>
              <path id="Trazado_605461" data-name="Trazado 605461" d="M180.155,298.195l-21.549-7.8a14.518,14.518,0,0,0-.9,2h-.018l-.146.4a2.148,2.148,0,0,1-.091.312l-.148.435,21.01,7.607a13.915,13.915,0,0,0,1.843-2.956" transform="translate(190.256 351.231)" fill="#37293d"/>
              <path id="Trazado_605462" data-name="Trazado 605462" d="M154.636,309.167a5.471,5.471,0,0,1-.139.661l8.175,1.562,4.543-7.13c.155-.243.329-.473.488-.714L155.341,301.2c-.055.508-.133,1.012-.175,1.522Z" transform="translate(186.863 364.299)" fill="#37293d"/>
              <path id="Trazado_605463" data-name="Trazado 605463" d="M174.285,301.411l-4.89,3.3a14.3,14.3,0,0,0-2.581,2.232l1.867,22.135a1.071,1.071,0,0,0,1.063.97h1.776a1.042,1.042,0,0,0,1.043-.97l1.226-12.815a75.633,75.633,0,0,1,1.5-9.3l2-8.807h-.02a9.192,9.192,0,0,1-2.983,3.259" transform="translate(201.762 360.613)" fill="#2b1a2c"/>
              <path id="Trazado_605464" data-name="Trazado 605464" d="M195.833,291.357a4.389,4.389,0,0,0-4.229,3.314,13.792,13.792,0,0,1-3.955,6.646l-3.9,3.624a57.534,57.534,0,0,0-9.355,11.224l-5.237,8.219a6.012,6.012,0,0,1-5.088,2.784h-8.478a7.03,7.03,0,0,0-7.031,7.028v.517a3.548,3.548,0,0,0,3.548,3.548H171.3a5.91,5.91,0,0,0,5.29-3.3l3.04-6.114a41.747,41.747,0,0,1,3.314-5.53l4.722-6.682a12.247,12.247,0,0,1,1.226-1.483,16.073,16.073,0,0,1,2.583-2.234l4.887-3.294a9.255,9.255,0,0,0,2.985-3.259h.018a9.522,9.522,0,0,0-.219-9.631Z" transform="translate(179.684 352.394)" fill="#37293d"/>
              <path id="Trazado_605465" data-name="Trazado 605465" d="M184.026,225.29a18.008,18.008,0,1,1-18.927-17.04,18.008,18.008,0,0,1,18.927,17.04" transform="translate(179.047 251.848)" fill="#f6b6a2"/>
              <path id="Trazado_605466" data-name="Trazado 605466" d="M136.938,157.215a26.5,26.5,0,1,1,27.851,25.073,26.5,26.5,0,0,1-27.851-25.073" transform="translate(165.581 156.42)" fill="#f6b6a2"/>
              <path id="Trazado_605467" data-name="Trazado 605467" d="M189.927,154.66l7.609,166.158a18.031,18.031,0,0,1-35.847,3.482L137.177,159.784a26.533,26.533,0,1,1,52.749-5.124" transform="translate(165.561 156.414)" fill="#f6b6a2"/>
              <g id="Grupo_162270" data-name="Grupo 162270" transform="translate(302.446 285.736)" style="mix-blend-mode: overlay;isolation: isolate">
                <g id="Grupo_162269" data-name="Grupo 162269">
                  <g id="Grupo_162268" data-name="Grupo 162268" clip-path="url(#clip-path-24)">
                    <path id="Trazado_605468" data-name="Trazado 605468" d="M213.488,502.349a9.518,9.518,0,0,0-.221-9.629l-3.312-5.385-.55-.877a14.527,14.527,0,0,0-4.083-5.491c-.013-.287-.029-.585-.044-.893-.007-.172-.015-.347-.024-.524-.007-.128-.013-.256-.018-.387-1.593-32.8-7.693-158.35-7.693-158.35-.007-.139-.015-.278-.027-.415l-7.59-165.738c-.009-.243-.022-.486-.04-.727l-.007-.091c-.007-.086-.011-.17-.02-.254s-.011-.155-.02-.23c0-.042-.007-.084-.011-.124-.009-.1-.018-.192-.029-.287l-.007-.057c-.011-.111-.024-.221-.038-.329l0-.015a26.537,26.537,0,1,0-52.575,7.236L156.3,288.148l6.257,1.3a2.615,2.615,0,0,1,2.044,2.992l-4.057,24.2,1.14,7.658c.02.122.04.243.062.365l5.581,38.081,29.777,147.709a14.939,14.939,0,0,0,2.32,5.5l2.36-3.339a12.02,12.02,0,0,1,1.226-1.48l.762,9.024a14.926,14.926,0,0,0,6.032,2.205l.181-1.911a76.145,76.145,0,0,1,1.5-9.3ZM201.771,497.3a13.823,13.823,0,0,0,3.822-6.171,13.78,13.78,0,0,1-3.822,6.171m6.854-9.748-.082.026-.088.033-.077.029-.084.035-.08.033c-.024.011-.051.022-.075.035l-.088.042-.066.033-.088.046-.069.038-.084.049-.064.04-.084.053c-.022.016-.044.029-.064.044s-.053.038-.082.055-.042.029-.062.046-.053.038-.077.057-.042.033-.062.049-.051.042-.075.062l-.06.051-.071.062-.062.057-.064.062a.842.842,0,0,0-.062.062l-.06.064-.06.062-.062.071-.053.062-.06.073-.051.066c-.02.024-.038.049-.057.075l-.046.064-.06.084-.04.062c-.02.029-.038.057-.055.086l-.04.066-.046.082-.044.075-.042.084c-.013.024-.027.049-.038.073s-.033.066-.049.1a.529.529,0,0,0-.027.062c-.015.033-.031.068-.044.1s-.02.044-.026.066a1.185,1.185,0,0,0-.046.124l-.018.044c-.011.038-.024.073-.035.11l-.022.069c-.018.057-.035.117-.049.175.013-.06.031-.119.049-.177.009-.033.02-.066.031-.1l.024-.073.035-.1.027-.073.038-.088.033-.08c.011-.029.026-.057.04-.086l.035-.077.042-.082c.013-.026.024-.051.04-.077l.046-.084.042-.071.046-.077c.015-.024.031-.051.049-.075s.031-.048.049-.073.031-.049.049-.073l.055-.075.051-.066a.853.853,0,0,1,.055-.071l.055-.069c.018-.022.04-.046.06-.069l.053-.062c.022-.022.042-.046.064-.069l.057-.06.062-.064.066-.06a.806.806,0,0,1,.064-.06l.06-.055.075-.062.062-.051.071-.055.071-.055.071-.051c.024-.015.049-.033.073-.051l.068-.044.082-.053.066-.04c.029-.018.055-.033.084-.049l.071-.04c.026-.013.053-.027.079-.042s.051-.027.077-.038.055-.027.082-.04l.077-.035.084-.035c.026-.011.051-.022.077-.031s.06-.024.091-.035l.077-.029a.552.552,0,0,0,.08-.026c.031-.009.062-.02.091-.026s.049-.016.073-.022h0c-.027.007-.051.013-.077.022l-.084.026m.327-.091a.593.593,0,0,0-.069.016l-.055.013.055-.013.071-.018.1-.024.038-.007-.035.007-.106.027m.435-.082.024,0-.024,0m1.1,18.233a9.32,9.32,0,0,0,2.713-2.793,9.294,9.294,0,0,1-2.713,2.793" transform="translate(-136.885 -129.321)" fill="#595959"/>
                  </g>
                </g>
              </g>
              <path id="Trazado_605469" data-name="Trazado 605469" d="M151.425,229.572a18.006,18.006,0,1,0,14.722-20.778,18,18,0,0,0-14.722,20.778" transform="translate(182.833 252.222)" fill="#f6b6a2"/>
              <path id="Trazado_605470" data-name="Trazado 605470" d="M151.434,229.672,180.078,393.5c2.472,12.3,20.336,10.078,19.733-2.472L187.17,225.2a18.029,18.029,0,1,0-35.736,4.476" transform="translate(182.818 252.225)" fill="#f6b6a2"/>
              <path id="Trazado_605471" data-name="Trazado 605471" d="M174.658,332.489h.431a4.938,4.938,0,0,0,4.1-2.106l3.416-4.98c.431-.621.844-1.244,1.235-1.885a43,43,0,0,0,3.887-8.222c.04-.128.1-.256.137-.384l3.75-10.983h.02c-.217-1.5-.471-3.04-.747-4.54h-.02c-.824-7.031-5.729-12.431-11.677-12.431-6.536,0-11.836,6.516-11.836,14.536l-.254,4.558a63.774,63.774,0,0,1-1.275,9.629l-2.532,11.883a8.869,8.869,0,0,1-2.455,4.485l-1.041,1.063a6.024,6.024,0,0,1,2.709-.623Z" transform="translate(193.276 347.074)" fill="#f6b6a2"/>
              <path id="Trazado_605472" data-name="Trazado 605472" d="M166.413,301.055a66.362,66.362,0,0,1,17.177,2.521c-.495.974-.985,1.953-1.558,2.89-.393.641-.8,1.262-1.237,1.887l-2.117,3.087a55.265,55.265,0,0,0-12.265-1.547v0a9.116,9.116,0,0,0-5.115,1.257c.062-.212.139-.422.186-.641l1.969-9.247a21.566,21.566,0,0,1,2.961-.208Z" transform="translate(195.089 364.124)" fill="#37293d"/>
              <path id="Trazado_605473" data-name="Trazado 605473" d="M164.3,295.334a4.649,4.649,0,0,0-1.076,1.909,17.192,17.192,0,0,1,1.072-5.831,12.534,12.534,0,0,1,5.433-1.109v0c7.523,0,13.1,1.151,16.715,3.392.117.539.219,1.087.285,1.653h.02c.247,1.359.473,2.744.676,4.11a4.788,4.788,0,0,0-1.149-1.754c-1.838-1.865-6.2-4.085-16.547-4.085v0c-2.5,0-4.331.577-5.429,1.717" transform="translate(197.418 351.117)" fill="#37293d"/>
              <path id="Trazado_605474" data-name="Trazado 605474" d="M171.241,318.036l.02.384a.956.956,0,0,0,.844.97H173.5a.958.958,0,0,0,.844-.97l.862-11.461-2.826,9.227a4.287,4.287,0,0,1-1.138,1.849" transform="translate(207.115 371.266)" fill="#2b1a2c"/>
              <path id="Trazado_605475" data-name="Trazado 605475" d="M162.06,323.815a4.468,4.468,0,0,1,1.262-.429,7.033,7.033,0,0,1,1.611-.188H177.37a4.938,4.938,0,0,0,4.1-2.106l3.414-4.98c.433-.621.844-1.244,1.237-1.885a43,43,0,0,0,3.887-8.222c.04-.128.1-.256.137-.384l3.75-10.983h.02c.55,3.955.884,7.707,1.058,10.418a21.14,21.14,0,0,1-.9,7.817l-2.749,8.988-2.826,9.227a4.287,4.287,0,0,1-1.138,1.849,4.92,4.92,0,0,1-3.416,1.354H161.461a3.548,3.548,0,0,1-3.548-3.548v-.515a7.031,7.031,0,0,1,4.147-6.414" transform="translate(190.995 356.364)" fill="#37293d"/>
              <path id="Trazado_605476" data-name="Trazado 605476" d="M151.408,223.618a18.007,18.007,0,1,0,20.7-14.839,18.008,18.008,0,0,0-20.7,14.839" transform="translate(182.833 252.223)" fill="#f6b6a2"/>
              <path id="Trazado_605477" data-name="Trazado 605477" d="M215.519,161.714a26.5,26.5,0,1,0-30.453,21.839,26.5,26.5,0,0,0,30.453-21.839" transform="translate(196.991 158.327)" fill="#f6b6a2"/>
              <path id="Trazado_605478" data-name="Trazado 605478" d="M177.325,153.314l-25.944,164.3a18.03,18.03,0,0,0,35.239,7.426l42.561-160.794a26.533,26.533,0,1,0-51.857-10.93" transform="translate(182.825 158.321)" fill="#f6b6a2"/>
              <g id="Grupo_162273" data-name="Grupo 162273" transform="translate(338.002 289.218)" style="mix-blend-mode: overlay;isolation: isolate">
                <g id="Grupo_162272" data-name="Grupo 162272">
                  <g id="Grupo_162271" data-name="Grupo 162271" clip-path="url(#clip-path-25)">
                    <path id="Trazado_605479" data-name="Trazado 605479" d="M193.775,289.7l-40.8,3.871,22.15-140.261a26.532,26.532,0,1,1,51.857,10.928Z" transform="translate(-152.977 -130.897)" fill="#595959"/>
                  </g>
                </g>
              </g>
              <path id="Trazado_605480" data-name="Trazado 605480" d="M141.074,79.615a13.448,13.448,0,1,1,18.516,4.346,13.449,13.449,0,0,1-18.516-4.346" transform="translate(168.186 71.459)" fill="#f6b6a2"/>
              <path id="Trazado_605481" data-name="Trazado 605481" d="M147.674,118.837a11.357,11.357,0,1,1,15.634,3.67,11.357,11.357,0,0,1-15.634-3.67" transform="translate(176.549 122.76)" fill="#f6b6a2"/>
              <path id="Trazado_605482" data-name="Trazado 605482" d="M165.862,70.922l11.118,91.97c1.35,14.629-19.631,17.652-22.479,3.235L139.24,74.751a13.451,13.451,0,1,1,26.622-3.829" transform="translate(168.185 71.456)" fill="#f6b6a2"/>
              <path id="Trazado_605483" data-name="Trazado 605483" d="M168.076,177.1a12.171,12.171,0,0,1-14.055-10.155l.221-.042c-.477-1.487-1.1-5.2-2.612-14.267l-12.875-77.1a14.558,14.558,0,0,1,11.96-16.755l.362-.057A14.57,14.57,0,0,1,167.563,71.4l11.12,91.97c.764,8.288-4.963,12.923-10.608,13.734" transform="translate(167.579 70.85)" fill="#cee1ee"/>
              <path id="Trazado_605484" data-name="Trazado 605484" d="M149.627,121.2a11.357,11.357,0,1,0-.65-16.048,11.357,11.357,0,0,0,.65,16.048" transform="translate(176.549 122.761)" fill="#f6b6a2"/>
              <path id="Trazado_605485" data-name="Trazado 605485" d="M208.923,117.982,118.466,88.8c-11.64-3.4-17.384,13.153-6.123,17.7L201.5,139.448c14.563,4.781,21.863-16.2,7.426-21.465" transform="translate(128.524 106.851)" fill="#f6b6a2"/>
              <path id="Trazado_605486" data-name="Trazado 605486" d="M107.193,91.917a52.08,52.08,0,0,1-5.164,6.668,2.567,2.567,0,0,0-.435,3.208c.027.044.06.091.093.139l.007.009c3.787,5.256,3.7,5.195,4.041,5.484l.033.031a38.664,38.664,0,0,1,3.9,2.817,1.95,1.95,0,0,0,2.793-2.685,29.523,29.523,0,0,0-2.852-3.352c-.1-.181-.031-.069-2.483-3.469.608-.6,1.206-1.206,1.805-1.836A32.025,32.025,0,0,0,112.257,95l.042-.064a2.969,2.969,0,1,0-5.106-3.016" transform="translate(122.407 109.24)" fill="#f6b6a2"/>
              <path id="Trazado_605487" data-name="Trazado 605487" d="M106.036,90.963c-.957,2.267-4.967,7.731-7.3,10.683l-.022.029-.018.022a2.789,2.789,0,0,0-.077,3.378l.007.009c7.017,9.671,3.341,5.265,8.051,8.849.84.639,1.692,1.343,2.486,2.028l.044.038a2.075,2.075,0,0,0,3.023-2.806,37.017,37.017,0,0,0-4.748-5.466l-3.076-4.233c2-2.623,5.619-7.545,6.8-10.347a2.807,2.807,0,0,0-5.172-2.183" transform="translate(118.635 107.944)" fill="#f6b6a2"/>
              <path id="Trazado_605488" data-name="Trazado 605488" d="M105.573,90.022c-1.633,3.312-7.236,10.166-9.258,12.526a3.089,3.089,0,0,0-.172,3.875c5.663,7.426,5.548,7.444,6.348,7.844a30.341,30.341,0,0,1,5.044,3.478l.051.042a2.08,2.08,0,0,0,2.8-3.067,38.793,38.793,0,0,0-4.673-4.125c-.064-.106.345.55-3.608-5.762,2.311-2.8,7.022-8.67,8.763-12.2a2.953,2.953,0,1,0-5.3-2.614" transform="translate(115.555 106.89)" fill="#f6b6a2"/>
              <path id="Trazado_605489" data-name="Trazado 605489" d="M121.947,107.772c-7.815-.588-15.926-4.291-20.166-6.507a4.647,4.647,0,0,1-2.437-4.91l.621-3.626a5.432,5.432,0,0,1,5.413-4.512l18.767.21a8.367,8.367,0,0,1,8.215,7.36l.117.972a9.859,9.859,0,0,1-10.53,11.012" transform="translate(120.074 106.699)" fill="#f6b6a2"/>
              <path id="Trazado_605490" data-name="Trazado 605490" d="M94.131,96.6c-.015.013-.093.075-.119.1l-.018.015a2.951,2.951,0,0,0-.974,2.548c.8,6.973.784,7.015.9,7.384.018.08.038.161.062.241.232.764,1.894,3.632,2.552,6.3a2.076,2.076,0,0,0,4.088-.623,36.467,36.467,0,0,0-1.569-7.3l-.1-4.494c2.225-1.074,8.381-3.794,13.2-6.606a2.953,2.953,0,0,0-2.974-5.1c-5.254,3.065-15.215,7.665-15.051,7.534" transform="translate(112.485 107.236)" fill="#f6b6a2"/>
              <path id="Trazado_605491" data-name="Trazado 605491" d="M.645,34.643,238.254,186.137a4.034,4.034,0,0,0,4.337-6.8c-.018-.009-.049-.029-.066-.04L2.115,32.283a1.39,1.39,0,0,0-1.469,2.36" transform="translate(0 38.801)" fill="#3e2e3f"/>
              <path id="Trazado_605492" data-name="Trazado 605492" d="M94.806,104.4c.312,1.54,2.322,1.975,5.76,1.6,5.141-.566,5.172-2.536,14.594-1.792,17.19,1.363,18.242-4.8,16.763-8.173s-4.211-5.765-7.844-5.21c-2.654.407-9.651,4.64-11.545,6.036-4.94,3.286-9.8,2.238-12.313,2.97-3.029.879-5.893,2.218-5.415,4.571" transform="translate(114.603 109.751)" fill="#f6b6a2"/>
              <path id="Trazado_605493" data-name="Trazado 605493" d="M210.207,131.857c1.931-5.583.3-12.941-7.868-15.913L119.392,89.183a.691.691,0,0,0-.864.433l-6.5,18.8a.692.692,0,0,0,.413.873l81.793,30.226c8.224,2.691,14.046-2.079,15.975-7.654" transform="translate(135.449 107.826)" fill="#cee1ee"/>
              <g id="Grupo_162276" data-name="Grupo 162276" transform="translate(307.349 214.646)" style="mix-blend-mode: overlay;isolation: isolate">
                <g id="Grupo_162275" data-name="Grupo 162275">
                  <g id="Grupo_162274" data-name="Grupo 162274" clip-path="url(#clip-path-26)">
                    <path id="Trazado_605494" data-name="Trazado 605494" d="M169.543,106.272l-28.286-9.125a181.837,181.837,0,0,1-2.154,24.439l22.331,8.25c8.226,2.693,14.048-2.077,15.977-7.651s.3-12.943-7.868-15.913" transform="translate(-139.105 -97.147)" fill="#595959"/>
                  </g>
                </g>
              </g>
              <path id="Trazado_605495" data-name="Trazado 605495" d="M168.637,49.42l8.016-.561c3.579-.241,5.435-.384,9.227-.647,6.94-.488,11.9,2.143,12.106,8.007,0,.007-10.329,4.631-28.659,5.605-18.776,1.005-17.132-2.987-17.132-2.987,5.263-5.866,11.176-9.041,16.443-9.417" transform="translate(184.033 58.242)" fill="#e2eef5"/>
              <path id="Trazado_605496" data-name="Trazado 605496" d="M180.383,40.169q6.973,26.753,13.133,53.854c4.048,23.1-27.9,28.7-31.952,6.149Q157.853,73.1,153.31,46.234c-2.49-17.667,21.907-23.414,27.073-6.065" transform="translate(185.213 35.926)" fill="#f6b6a2"/>
              <g id="Grupo_162279" data-name="Grupo 162279" transform="translate(338.344 65.629)" style="mix-blend-mode: overlay;isolation: isolate">
                <g id="Grupo_162278" data-name="Grupo 162278">
                  <g id="Grupo_162277" data-name="Grupo 162277" clip-path="url(#clip-path-27)">
                    <path id="Trazado_605497" data-name="Trazado 605497" d="M172.072,68.509a33.893,33.893,0,0,0,13.869-6.443q-2.708-10.977-5.557-21.9c-5.168-17.356-29.57-11.593-27.073,6.065,0,0,1.759,10.345,3.573,21.982a34.356,34.356,0,0,0,15.188.294" transform="translate(-153.132 -29.704)" fill="#595959"/>
                  </g>
                </g>
              </g>
              <path id="Trazado_605498" data-name="Trazado 605498" d="M204.532,70.327c-.387-7.87-6.768-13.9-14.178-13.443s-13.06,7.073-12.683,14.812,6.644,13.763,14.068,13.451,13.182-6.94,12.793-14.821" transform="translate(214.87 68.772)" fill="#f6b6a2"/>
              <path id="Trazado_605499" data-name="Trazado 605499" d="M165.943,71.921a13.448,13.448,0,1,0-12.824,14.136,13.408,13.408,0,0,0,12.824-14.136" transform="translate(168.197 71.481)" fill="#f6b6a2"/>
              <path id="Trazado_605500" data-name="Trazado 605500" d="M215.767,158.733c.747-15.511-10.729-28.407-25.354-28.818S163.55,141.3,162.827,156.27s10.321,27.873,24.928,28.821,27.265-10.855,28.012-26.357" transform="translate(196.898 157.118)" fill="#f6b6a2"/>
              <path id="Trazado_605501" data-name="Trazado 605501" d="M189.854,157.058A26.423,26.423,0,0,0,164.467,129.1a26.741,26.741,0,0,0-2.576,53.412,26.5,26.5,0,0,0,27.963-25.451" transform="translate(165.563 156.127)" fill="#f6b6a2"/>
              <path id="Trazado_605502" data-name="Trazado 605502" d="M152.112,134.4c-17.755-3.765-21.127-26.377-5.111-34.733a3.462,3.462,0,0,0,.4-5.906,13.139,13.139,0,0,1-5.455-10.272c-.259-5.27,2.439-10.831,7.627-13.12l0-.007c14.85-7.72,20.509-11.065,20.513-11.056l0,0c6.578-4.6,15.816-7.817,26.2-8.526s19.976,1.29,27.077,5.15l0,0c0,.015,6.05,2.607,21.7,8.924l0,.007c5.6,1.829,8.712,6.913,9.006,12.994a14.528,14.528,0,0,1-3.7,10.506,64.969,64.969,0,0,0-13.4,26.337,162.4,162.4,0,0,1-12.152,31.85c-6.324,12.645-9.032,29.3-.108,42.6,3.537,5.236,16.35,21.923,20.849,42.674l0,.015c2.055,9.393,3.792,24.53-.767,33.33l0,.007a25.908,25.908,0,0,1-16.629,14.812,23.658,23.658,0,0,1-8.429,1c-50.814-3.157,6.45.418-57.615-3.6a26.791,26.791,0,0,1-25-26.1c.007-.009-.431-14.364,2.9-27.27,5.541-23,21.1-20.2,12.086-89.619" transform="translate(165.33 61.249)" fill="#f6b6a2"/>
              <path id="Trazado_605503" data-name="Trazado 605503" d="M216.7,79.2a19.4,19.4,0,0,1-17.316,11.511q-25.626.643-51.254,1.257a20.26,20.26,0,0,1-10.67-2.727,19.712,19.712,0,0,0,18.268,11.043q20.982-.4,41.949-.824a19.314,19.314,0,0,0,19.059-19.8c0-.157-.029-.309-.038-.464" transform="translate(166.262 95.797)" fill="#f29c81"/>
              <path id="Trazado_605504" data-name="Trazado 605504" d="M248.374,165.991a27.635,27.635,0,0,0-19.9-32.745c-.5-.135-1-.256-1.509-.362a26.613,26.613,0,0,0-5.557-.572l-54.345-3.319a26.661,26.661,0,0,0-5.57-.046c-.513.051-1.03.117-1.54.194a27.637,27.637,0,0,0-23.262,31.41l18.449,123.835a.583.583,0,0,0,.63.493l68.39,2.912a.58.58,0,0,0,.594-.468Z" transform="translate(164.956 155.811)" fill="#2b1a2c"/>
              <path id="Trazado_605505" data-name="Trazado 605505" d="M220.744,104.509c-.848,7.307.027,11.087,5.25,18.851.407.614.935,1.365,1.567,2.26,5.018,7.157,15.424,22.236,19.457,40.823,1.514,6.874,4.339,24.106-.851,34.1a27.219,27.219,0,0,1-17.32,15.422,24.717,24.717,0,0,1-8.807,1.041q-28.807-1.8-57.613-3.639a27.986,27.986,0,0,1-26.03-27.177c0-.152-.4-14.66,2.936-27.577a69.579,69.579,0,0,1,6.29-15.489c4.443-8.752,9.046-13.4,8.518-38.644q33.3.033,66.6.024" transform="translate(164.954 126.374)" fill="#2b1a2c"/>
              <path id="Trazado_605506" data-name="Trazado 605506" d="M144.507,106.87q33.172.133,66.34.228a18.21,18.21,0,0,0,.979,4.985q-33.722-.189-67.449-.42c.068-1.5.122-3.084.13-4.792" transform="translate(174.623 129.259)" fill="#524356"/>
              <path id="Trazado_605507" data-name="Trazado 605507" d="M149.984,106.659q5.8.02,11.6.04a.411.411,0,0,1,.413.424q-.01,2.522-.031,5.044a.424.424,0,0,1-.418.422q-5.8-.04-11.6-.082a.412.412,0,0,1-.413-.422q.02-2.5.031-5.007a.414.414,0,0,1,.415-.42" transform="translate(180.865 129.003)" fill="#a5a0ad"/>
              <path id="Trazado_605508" data-name="Trazado 605508" d="M157.1,106.385l2.218.007q-.013,3.616-.042,7.232l-2.218-.013q.03-3.616.042-7.225" transform="translate(189.961 128.672)" fill="#2b1a2c"/>
              <path id="Trazado_605509" data-name="Trazado 605509" d="M146.674,106.354l2.218.007q-.01,3.569-.04,7.137c-.74,0-1.48-.013-2.221-.015q.03-3.563.042-7.128" transform="translate(177.35 128.634)" fill="#2b1a2c"/>
              <path id="Trazado_605510" data-name="Trazado 605510" d="M167.469,106.412c1.1,0,2.2,0,3.3.009q-.017,3.662-.044,7.331l-3.3-.022q.03-3.659.042-7.318" transform="translate(202.502 128.705)" fill="#2b1a2c"/>
              <path id="Trazado_605511" data-name="Trazado 605511" d="M142.966,101.4a6.867,6.867,0,0,0,2.364-4.527,9.2,9.2,0,0,0-1.483-5.97,14.768,14.768,0,0,1-2.4-7.455,14.574,14.574,0,0,1,8.164-14.13c.018-.013.04-.02.057-.033,12.238-6.354,18.3-9.808,20.352-10.97a.675.675,0,0,0,.066-.035,42.981,42.981,0,0,1,5.99-3.471Q173.618,66.514,171,78.145q.66,12.889,1.129,25.789,10.34-14.4,20.44-29.152,10.45-11.891,20.729-24.064a43.578,43.578,0,0,1,11.089,4.048l.009,0c.062.042,6.218,2.678,21.666,8.9.013.011.038.015.057.029,5.694,1.913,9.324,7.143,9.658,14.006A15.588,15.588,0,0,1,251.8,89.043a63.511,63.511,0,0,0-13.158,25.851,164.919,164.919,0,0,1-12.238,32.086,25.517,25.517,0,0,0-1.279,3.438,24.107,24.107,0,0,0-.418,12.952,4.338,4.338,0,0,1-1.516,4.452c-.738.572-1.48,1.147-2.221,1.717q-33.3.007-66.6-.024-.534-.418-1.072-.835a4.085,4.085,0,0,1-1.445-4.214,49.105,49.105,0,0,0,1.295-16.383c-.378-4.333-.855-8.739-1.421-12.875a19.91,19.91,0,0,1-15.343-16.567,18.832,18.832,0,0,1,6.58-17.245" transform="translate(164.723 61.344)" fill="#cee1ee"/>
              <g id="Grupo_162282" data-name="Grupo 162282" transform="translate(300.915 124.697)" style="mix-blend-mode: overlay;isolation: isolate">
                <g id="Grupo_162281" data-name="Grupo 162281">
                  <g id="Grupo_162280" data-name="Grupo 162280" clip-path="url(#clip-path-28)">
                    <path id="Trazado_605512" data-name="Trazado 605512" d="M142.966,94.48a6.867,6.867,0,0,0,2.364-4.527,9.2,9.2,0,0,0-1.483-5.97,14.768,14.768,0,0,1-2.4-7.455c-.009-.139.011-.272.009-.407a.479.479,0,0,1,.477.382,15.177,15.177,0,0,0,2.9,6.735,10.155,10.155,0,0,1,1.841,8.7,8.863,8.863,0,0,1-2.59,4.09,18.053,18.053,0,0,0-5.2,8.924,18.368,18.368,0,0,0,.621,10.19,3.873,3.873,0,0,0,2.523,2.408,20.429,20.429,0,0,0,6.463.886l.312-.009c10.369-.689,12.632-3.754,22.886-4.035,11.061-.3,14.556,3.093,25.743,2.815l4.183-.108c5.67-.144,10.606-2.943,14.49-7.1a47.9,47.9,0,0,0,5.148-6.774,65.428,65.428,0,0,0,4.87-7.822,28.681,28.681,0,0,0,2.525-11.348c.082-3.447-.537-6.781-.734-10.195A16.419,16.419,0,0,1,239,57.153c.126-.04.252-.077.378-.115a14.868,14.868,0,0,1,6.273-.455c.137.06.281.108.418.166.013.011.038.015.057.029,5.694,1.913,9.324,7.143,9.658,14.006A15.588,15.588,0,0,1,251.8,82.127a61.867,61.867,0,0,0-6.613,9.483c-4.238,7.424-5.667,13.235-7.137,18.564a160.374,160.374,0,0,1-10.25,27.038q-.762-4.173-1.547-8.341a7.365,7.365,0,0,0-3.208-4.834,6.888,6.888,0,0,0-5.583-.84c-5.937,1.677-11.313,4.808-17.572,4.925l-5.533.108a32.663,32.663,0,0,1-6.624-.572c-4.81-.937-8.783-2.243-15.785-2.1a36.377,36.377,0,0,0-8.359,1.065c-1.372.351-2.715.8-4.057,1.27a8.736,8.736,0,0,1-2.8.254l-3.785.073a6.27,6.27,0,0,1-1.642-.035,19.5,19.5,0,0,1-2.771-.948,20.888,20.888,0,0,1-4.868-2.89,19.6,19.6,0,0,1-6.244-8.624,19.279,19.279,0,0,1-1.047-4,18.832,18.832,0,0,1,6.58-17.245" transform="translate(-136.192 -56.437)" fill="#595959"/>
                  </g>
                </g>
              </g>
              <path id="Trazado_605513" data-name="Trazado 605513" d="M152.458,105.2c8.12-19.223,23.761-39.143,38.54-53.682,1.812-1.776,4.649-2.466,5.435-1.224a7.981,7.981,0,0,1,1.187,4.088c-.245,5.862-4.852,20.144-6.107,25.034a1.954,1.954,0,0,1-1.79,1.447c-4.951-.667-7.446-1.019-12.3-1.677a1.884,1.884,0,0,0-1.783,1.772c.146,2.254.245,3.389.517,5.647a1.771,1.771,0,0,1-.8,1.513C165.4,95.1,160.9,98.567,152.458,105.2" transform="translate(184.397 60.073)" fill="#e2eef5"/>
              <path id="Trazado_605514" data-name="Trazado 605514" d="M160.872,103.931c-.979-18.193,3.5-42.383,6.3-51.7.506-1.679-.771-2.017-2.45-.694a35.174,35.174,0,0,0-4.474,4.2C155.3,61.575,147.788,75.541,145.7,80.369c-.345.8-.225,1.483.205,1.348,3.162-.985,4.706-1.48,8.328-2.483.59-.168.634.818.073,1.679-1.5,2.3-2.214,3.447-3.553,5.762a1.913,1.913,0,0,0-.272,1.476c2.68,6.472,4.311,9.68,10.389,15.78" transform="translate(175.983 61.346)" fill="#e2eef5"/>
              <g id="Grupo_162285" data-name="Grupo 162285" transform="translate(313.704 215.861)" style="mix-blend-mode: overlay;isolation: isolate">
                <g id="Grupo_162284" data-name="Grupo 162284">
                  <g id="Grupo_162283" data-name="Grupo 162283" clip-path="url(#clip-path-29)">
                    <path id="Trazado_605515" data-name="Trazado 605515" d="M220.788,133.831c-.63-.895-1.16-1.646-1.564-2.26a36.9,36.9,0,0,1-4.532-8.394h.033a18.13,18.13,0,0,1-.979-4.985h-.022a32.322,32.322,0,0,1,.247-5.473c.283-.217.561-.433.844-.652A47.334,47.334,0,0,1,217.1,98.881q.046-.593.126-1.184l-43.684,9.788a11.743,11.743,0,0,0-1.646-.113,14.272,14.272,0,0,0-1.514.084,11.828,11.828,0,0,0-1.24.093l-4.567.579c-4.671.59-5.159.652-6.35,1.12l-9.724,3.887a6.92,6.92,0,0,0-1.111.572c.04,2.523.027,4.837-.033,6.967-.022.711-.049,1.407-.079,2.084h0c-.546,12-2.715,17.685-5.3,22.7a6.925,6.925,0,0,0,2.751,1.129,6.728,6.728,0,0,0,8.323,4.423,6.481,6.481,0,0,0,8.164,1.894l7.629-3.928c.135-.068.263-.141.391-.217a12.777,12.777,0,0,0,1.79-.857l6.818-3.948L223.99,138.5c-1.2-1.8-2.289-3.363-3.2-4.664" transform="translate(-141.98 -97.697)" fill="#595959"/>
                  </g>
                </g>
              </g>
              <path id="Trazado_605516" data-name="Trazado 605516" d="M141.544,24.212c2.738-1.175,6.993,3.122,9.5,9.6s2.331,12.678-.407,13.851-6.993-3.122-9.505-9.6-2.329-12.678.409-13.851" transform="translate(168.562 29.05)" fill="#f29c81"/>
              <path id="Trazado_605517" data-name="Trazado 605517" d="M174.515,17.413c-2.978.04-5.119,5.694-4.784,12.632s3.023,12.53,6,12.492,5.119-5.7,4.784-12.634-3.023-12.53-6-12.49" transform="translate(205.247 21.061)" fill="#f29c81"/>
              <path id="Trazado_605518" data-name="Trazado 605518" d="M166.385,1.726c27.329-5.8,38.516,14.1,44.1,40.4s-8.219,51.514-23.878,54.84-38.516-14.105-44.1-40.405S139.053,7.528,166.385,1.726" transform="translate(169.346 0.864)" fill="#f6b6a2"/>
              <path id="Trazado_605519" data-name="Trazado 605519" d="M162.952,34.733a3.5,3.5,0,0,1-2.786.592l-3.343-.714a.38.38,0,0,1,0-.742l8.591-1.825a.382.382,0,0,1,.424.219.376.376,0,0,1-.124.46Z" transform="translate(189.316 38.748)" fill="#f29c81"/>
              <path id="Trazado_605520" data-name="Trazado 605520" d="M178.334,20.569A21.272,21.272,0,0,0,163.711,23.1a1.66,1.66,0,0,1-1.657-2.877,23.725,23.725,0,0,1,16.763-1.467.937.937,0,0,1-.484,1.81" transform="translate(195.002 21.628)" fill="#4d2734"/>
            </g>
          </g>
          <g id="Grupo_162289" data-name="Grupo 162289" transform="translate(360.037 48.556)">
            <g id="Grupo_162288" data-name="Grupo 162288" clip-path="url(#clip-path-30)">
              <path id="Trazado_605521" data-name="Trazado 605521" d="M169.416,31.891h0a4.389,4.389,0,0,0,3.372-5.188L172.4,24.9a4.374,4.374,0,1,0-8.557,1.816l.382,1.807a4.387,4.387,0,0,0,5.188,3.369" transform="translate(-161.983 -22.635)" fill="#454676"/>
              <path id="Trazado_605522" data-name="Trazado 605522" d="M166.586,25.451l.692-.148a1.4,1.4,0,0,0,1.08-1.662l-.046-.223a1.405,1.405,0,0,0-1.664-1.08l-.692.146a1.405,1.405,0,0,0-1.08,1.664l.046.223a1.408,1.408,0,0,0,1.664,1.08" transform="translate(-160.658 -21.576)" fill="#fff"/>
            </g>
          </g>
          <g id="Grupo_162291" data-name="Grupo 162291">
            <g id="Grupo_162290" data-name="Grupo 162290" clip-path="url(#clip-path-22)">
              <path id="Trazado_605524" data-name="Trazado 605524" d="M176.759,24.782c-2.6-3.738-14.037-.241-13.021,4.684a.394.394,0,0,1-.756.2c-2.311-6.461,11.9-11.35,14.485-5.21a.392.392,0,0,1-.709.327" transform="translate(196.82 26.171)" fill="#1a0919"/>
              <path id="Trazado_605525" data-name="Trazado 605525" d="M154.82,36.5a41.432,41.432,0,0,0,11.538-.932c.8-.194.6-.168,1.012.921a9.918,9.918,0,0,1,.546,3.648c-.06.08-.144.044-.212.073a28.476,28.476,0,0,1-6.719.555c-1.7-.062-9.05-.935-7.685-3.668a1.423,1.423,0,0,1,1.52-.6" transform="translate(185.212 42.907)" fill="#d15554"/>
              <path id="Trazado_605526" data-name="Trazado 605526" d="M172.7,35.6c-2.974,3.953-7.607,5.765-12.225,6.9-.075,0-.139.068-.225.02a10.047,10.047,0,0,1-1.01-4.649c.075-.1.446-.113.577-.161l.78-.168a49.8,49.8,0,0,0,7.479-2.373,27.345,27.345,0,0,0,2.956-1.447A1.3,1.3,0,0,1,172.7,35.6" transform="translate(192.577 40.59)" fill="#d15554"/>
              <path id="Trazado_605527" data-name="Trazado 605527" d="M143.352,26.812a23.764,23.764,0,0,1,15.776-5.477,1.66,1.66,0,1,1-.3,3.3,21.246,21.246,0,0,0-14.3,3.637.938.938,0,0,1-1.18-1.458" transform="translate(172.97 25.783)" fill="#4d2734"/>
            </g>
          </g>
          <g id="Grupo_162293" data-name="Grupo 162293" transform="translate(320.445 57.33)">
            <g id="Grupo_162292" data-name="Grupo 162292" clip-path="url(#clip-path-32)">
              <path id="Trazado_605528" data-name="Trazado 605528" d="M152.1,35.568h0a4.387,4.387,0,0,1-5.188-3.372l-.382-1.805a4.374,4.374,0,1,1,8.557-1.816l.382,1.805a4.386,4.386,0,0,1-3.369,5.188" transform="translate(-143.338 -26.962)" fill="#454676"/>
              <path id="Trazado_605529" data-name="Trazado 605529" d="M149.96,28.982l-.692.146a1.405,1.405,0,0,1-1.664-1.08l-.049-.223a1.406,1.406,0,0,1,1.083-1.662l.692-.148a1.407,1.407,0,0,1,1.662,1.08l.049.223a1.409,1.409,0,0,1-1.08,1.664" transform="translate(-142.013 -25.902)" fill="#fff"/>
            </g>
          </g>
          <g id="Grupo_162295" data-name="Grupo 162295">
            <g id="Grupo_162294" data-name="Grupo 162294" clip-path="url(#clip-path-22)">
              <path id="Trazado_605531" data-name="Trazado 605531" d="M144.853,31.228c-.13-6.659,14.837-7.972,15.354-1.127a.394.394,0,0,1-.771.126c-1.067-4.907-12.941-3.467-13.8,1.01a.392.392,0,0,1-.782-.009" transform="translate(175.198 30.914)" fill="#1a0919"/>
              <path id="Trazado_605532" data-name="Trazado 605532" d="M171.909,6.666C192.679,2.255,207.6,12,216.347,18.643c-3.058-5.385-7.364-10.084-12.1-11.56C196.673.746,186.03-1.839,170.791,1.4S146.874,11.321,142.53,20.19l0,0c-3.749,3.332-5.76,9.355-6.359,15.478,5.287-9.622,14.967-24.587,35.736-29" transform="translate(164.7 0)" fill="#482231"/>
              <path id="Trazado_605533" data-name="Trazado 605533" d="M172.055,3.017c-9.481.272-22.7,7.048-29.38,13.524-6.271,6.085-9.426,22.179-3.392,33.173,0,0,2.205-29.269,32.771-46.7" transform="translate(164.554 3.649)" fill="#4d2734"/>
              <path id="Trazado_605534" data-name="Trazado 605534" d="M152.347,4.312c8.774-3.606,23.606-2.786,32.34.42,8.2,3.012,17.623,16.436,16.58,28.933,0,0-13.909-25.849-48.92-29.353" transform="translate(184.263 2.354)" fill="#4d2734"/>
              <path id="Trazado_605535" data-name="Trazado 605535" d="M171.158,3.017c-.376,13.772-19.55,18.65-21.73,39.888s-.024,23.673-6.35,29.919c-5.391-5.647-7.512-15.27-5.583-24.806,2.629-12.99,3.666-24.651,13.155-32.462C160.7,7.284,166.1,5.666,171.158,3.017" transform="translate(165.452 3.649)" fill="#5a2f3f"/>
              <path id="Trazado_605536" data-name="Trazado 605536" d="M152.347,3.017c5.939,12.431,25.442,9.1,36.063,27.619s9.642,21.618,17.959,24.755c2.632-7.351.661-17-4.978-24.934-7.68-10.8-13.365-21.034-25.21-24.315-12.541-3.476-18.133-2.76-23.834-3.124" transform="translate(184.263 3.649)" fill="#5a2f3f"/>
              <path id="Trazado_605537" data-name="Trazado 605537" d="M204.582,70.652a13.448,13.448,0,1,0-13.82,13.065,13.448,13.448,0,0,0,13.82-13.065" transform="translate(214.917 68.731)" fill="#f6b6a2"/>
              <path id="Trazado_605538" data-name="Trazado 605538" d="M217.036,108.294a11.356,11.356,0,1,0-11.671,11.034,11.359,11.359,0,0,0,11.671-11.034" transform="translate(235.04 116.86)" fill="#f6b6a2"/>
              <path id="Trazado_605539" data-name="Trazado 605539" d="M178.788,75.6l36.627,85.092c6.187,13.325,25.844,5.389,21.059-8.5L203.727,65.524A13.451,13.451,0,1,0,178.788,75.6" transform="translate(214.913 68.727)" fill="#f6b6a2"/>
              <path id="Trazado_605540" data-name="Trazado 605540" d="M231.081,168.275a12.173,12.173,0,0,0,7.044-15.844l-.212.073c-.336-1.522-1.666-5.044-4.916-13.644l-27.63-73.119a14.552,14.552,0,0,0-18.761-8.471l-.342.133a14.568,14.568,0,0,0-7.881,19.24l36.625,85.092c3.5,7.55,10.787,8.677,16.074,6.54" transform="translate(214.304 68.121)" fill="#cee1ee"/>
              <path id="Trazado_605541" data-name="Trazado 605541" d="M202.955,119a11.356,11.356,0,1,0-8.292-13.754A11.359,11.359,0,0,0,202.955,119" transform="translate(235.037 116.859)" fill="#f6b6a2"/>
              <path id="Trazado_605542" data-name="Trazado 605542" d="M253.751,96.8l-93.336,17.952c-11.838,2.625-8.909,19.9,3.151,18.465l94.007-14.028c15.067-2.817,11.366-24.722-3.822-22.389" transform="translate(184.913 116.868)" fill="#f6b6a2"/>
              <path id="Trazado_605543" data-name="Trazado 605543" d="M143.306,112.336a1.834,1.834,0,0,0,.451,3.606,20.2,20.2,0,0,0,7.992-2.126l7.8-.992,6.1,4.505a7.825,7.825,0,1,0,3.652-14.057c-8.632,1.107-9.006,1.094-9.839,1.419l-9.724,3.889c-1.206.482-3.089,2.859-6.436,3.756" transform="translate(171.682 124.833)" fill="#f6b6a2"/>
              <path id="Trazado_605544" data-name="Trazado 605544" d="M153.116,109.485c-.044.024-.1.055-.137.082-10.738,6.785-8.171,5.148-11.644,7.417a2.353,2.353,0,0,0,2.38,4.054c5.6-2.939,3.411-1.761,12.146-6.617a2.824,2.824,0,1,0-2.744-4.936" transform="translate(169.656 131.99)" fill="#f6b6a2"/>
              <path id="Trazado_605545" data-name="Trazado 605545" d="M153.954,114.949,145.9,120.38a2.307,2.307,0,0,0,2.369,3.953l8.586-4.541a2.827,2.827,0,0,0-2.645-5,2.755,2.755,0,0,0-.259.155" transform="translate(175.236 138.445)" fill="#f6b6a2"/>
              <path id="Trazado_605546" data-name="Trazado 605546" d="M156.262,116.486l-7.143,4.761a2.062,2.062,0,0,0,2.1,3.542l7.638-3.931a2.546,2.546,0,0,0-2.331-4.527,2.8,2.8,0,0,0-.261.155" transform="translate(179.261 140.361)" fill="#f6b6a2"/>
              <path id="Trazado_605547" data-name="Trazado 605547" d="M152.513,112.566l-8.884,5.528a2.569,2.569,0,0,0,2.55,4.457l9.267-4.861a2.954,2.954,0,1,0-2.744-5.232c-.062.033-.128.073-.188.108" transform="translate(172.252 135.607)" fill="#f6b6a2"/>
              <path id="Trazado_605548" data-name="Trazado 605548" d="M152.773,132.808a8.726,8.726,0,0,0,11.4,2.654l10.586-6.129a12.212,12.212,0,0,0,4.088-16.77l-1.807-3.12a13.57,13.57,0,0,0-8.162-6.081c-3.263-.831-8.431,1.22-11.363,3.84l-10.952,9.655c-1.865,1.622-1.332,5.992,1.3,9.156Z" transform="translate(175.925 124.79)" fill="#f6b6a2"/>
              <path id="Trazado_605549" data-name="Trazado 605549" d="M260.152,106.472c.994,5.824-1.812,12.819-10.358,14.415l-86.2,12.866a.7.7,0,0,1-.782-.566l-3.347-19.609a.69.69,0,0,1,.55-.791L245.64,96.315c8.555-1.312,13.52,4.344,14.512,10.157" transform="translate(192.856 116.261)" fill="#cee1ee"/>
            </g>
          </g>
        </g>
      </g>
    </g>
    <path id="Unión_29" data-name="Unión 29" d="M139.5,173.534a8.5,8.5,0,0,1-8.5-8.5V24.312a8.5,8.5,0,0,1,8.5-8.5H327.833L354.9,0l-6.383,15.811H361.5a8.5,8.5,0,0,1,8.5,8.5V165.033a8.5,8.5,0,0,1-8.5,8.5Z" transform="translate(-3869 -3055.496) rotate(180)" fill="#fff"/>
    <g id="Grupo_162301" data-name="Grupo 162301" transform="translate(-4253 -3189.619)">
      <g id="Grupo_162200-2" data-name="Grupo 162200" transform="translate(14 27.283)" clip-path="url(#clip-path-10)">
        <path id="Trazado_605338-2" data-name="Trazado 605338" d="M16.408,107.034a1,1,0,0,0,.518-.145L42.8,91.221H206.5a1,1,0,0,0,0-2H42.522a.993.993,0,0,0-.517.144l-23.6,14.289L23.5,90.583a1,1,0,0,0-.932-1.362H9.5a7.509,7.509,0,0,1-7.5-7.5V1A1,1,0,0,0,0,1V81.721a9.511,9.511,0,0,0,9.5,9.5H21.1l-5.628,14.45a1,1,0,0,0,.932,1.363" fill="#2d4766"/>
      </g>
    </g>
    <text id="La_trazabilidad_metrológica_se_refiere_al_resultado_de_medición_del_proceso_o_procedimiento_de_solicitud_de_servicio." data-name="La trazabilidad metrológica se refiere al resultado de medición del proceso o procedimiento de solicitud de servicio." transform="translate(-4210.5 -3212.573)" fill="#12263f" font-size="17" font-family="Roboto-Regular, Roboto"><tspan x="0" y="16">La trazabilidad </tspan><tspan x="0" y="40">metrológica se refiere al </tspan><tspan x="0" y="64">resultado de medición del </tspan><tspan x="0" y="88">proceso o procedimiento </tspan><tspan x="0" y="112">de solicitud de servicio.</tspan></text>
  </g>
</svg>
