<svg xmlns="http://www.w3.org/2000/svg" xmlns:xlink="http://www.w3.org/1999/xlink" width="295" height="259.136" viewBox="0 0 295 259.136">
  <defs>
    <clipPath id="clip-path">
      <path id="Trazado_604518" data-name="Trazado 604518" d="M347.2,25.211A16.174,16.174,0,1,1,363.37,41.386,16.174,16.174,0,0,1,347.2,25.211M358.755,0l-.838,4.162a21.581,21.581,0,0,0-5.571,2.311L348.807,4.12l-3.264,3.264-3.264,3.263,2.353,3.538a21.6,21.6,0,0,0-2.311,5.572l-4.162.838v9.232l4.162.838a21.6,21.6,0,0,0,2.311,5.572l-2.353,3.538,3.264,3.264,3.264,3.264,3.539-2.352a21.6,21.6,0,0,0,5.571,2.311l.838,4.162h9.231l.838-4.162A21.618,21.618,0,0,0,374.4,43.95l3.538,2.352,3.265-3.264,3.263-3.264-2.352-3.538a21.619,21.619,0,0,0,2.311-5.572l4.162-.838V20.6l-4.162-.838a21.619,21.619,0,0,0-2.311-5.572l2.352-3.538L381.2,7.384,377.934,4.12,374.4,6.473a21.6,21.6,0,0,0-5.572-2.311L367.986,0Z" transform="translate(-338.159)" fill="#144567"/>
    </clipPath>
    <clipPath id="clip-path-2">
      <path id="Trazado_604519" data-name="Trazado 604519" d="M390.251,87.961a7.415,7.415,0,1,1,7.415,7.415,7.415,7.415,0,0,1-7.415-7.415M397.666,76.4H395.55l-.384,1.907a9.933,9.933,0,0,0-2.554,1.06l-1.622-1.078-1.5,1.5-1.5,1.5,1.079,1.621a9.9,9.9,0,0,0-1.059,2.554l-1.909.384v4.232l1.909.384a9.9,9.9,0,0,0,1.059,2.554L388,94.637l1.5,1.5,1.5,1.5,1.622-1.077a9.908,9.908,0,0,0,2.554,1.059l.384,1.908h4.232l.384-1.908a9.912,9.912,0,0,0,2.555-1.059l1.622,1.077,1.5-1.5,1.5-1.5-1.079-1.622a9.9,9.9,0,0,0,1.06-2.554l1.908-.384V85.845l-1.908-.384a9.9,9.9,0,0,0-1.06-2.554l1.079-1.621-1.5-1.5-1.5-1.5-1.622,1.078a9.937,9.937,0,0,0-2.555-1.06l-.384-1.907Z" transform="translate(-386.108 -76.403)" fill="#91e8d6"/>
    </clipPath>
    <clipPath id="clip-path-3">
      <rect id="Rectángulo_47917" data-name="Rectángulo 47917" width="295" height="242.136" fill="none"/>
    </clipPath>
    <clipPath id="clip-path-4">
      <rect id="Rectángulo_47919" data-name="Rectángulo 47919" width="180.718" height="15.867" fill="#91e8d6"/>
    </clipPath>
  </defs>
  <g id="Grupo_161838" data-name="Grupo 161838" transform="translate(0 17)">
    <g id="Grupo_161829" data-name="Grupo 161829" transform="translate(221.096 -17)">
      <g id="Grupo_161828" data-name="Grupo 161828" clip-path="url(#clip-path)">
        <rect id="Rectángulo_47913" data-name="Rectángulo 47913" width="50.423" height="50.423" transform="translate(0 0)" fill="#144567"/>
      </g>
    </g>
    <g id="Grupo_161831" data-name="Grupo 161831" transform="translate(252.447 32.954)">
      <g id="Grupo_161830" data-name="Grupo 161830" clip-path="url(#clip-path-2)">
        <rect id="Rectángulo_47914" data-name="Rectángulo 47914" width="23.117" height="23.116" transform="translate(0 0)" fill="#91e8d6"/>
      </g>
    </g>
    <g id="Grupo_161833" data-name="Grupo 161833">
      <g id="Grupo_161832" data-name="Grupo 161832" clip-path="url(#clip-path-3)">
        <rect id="Rectángulo_47915" data-name="Rectángulo 47915" width="22.707" height="68.969" transform="translate(139.532 137.098)" fill="#aebecc"/>
        <path id="Trazado_604520" data-name="Trazado 604520" d="M90.8,187.263h176.13a9.973,9.973,0,0,0,9.973-9.973V58.915a9.973,9.973,0,0,0-9.973-9.972H90.8a9.972,9.972,0,0,0-9.973,9.972V177.291a9.972,9.972,0,0,0,9.973,9.973" transform="translate(-27.981 -16.943)" fill="#f0f0f0"/>
        <rect id="Rectángulo_47916" data-name="Rectángulo 47916" width="180.717" height="131.367" transform="translate(60.526 17.278)" fill="#fff"/>
      </g>
    </g>
    <g id="Grupo_161835" data-name="Grupo 161835" transform="translate(60.526 17.278)">
      <g id="Grupo_161834" data-name="Grupo 161834" transform="translate(0 -10)" clip-path="url(#clip-path-4)">
        <rect id="Rectángulo_47918" data-name="Rectángulo 47918" width="180.717" height="15.867" fill="#91e8d6"/>
      </g>
    </g>
    <g id="Grupo_161837" data-name="Grupo 161837">
      <g id="Grupo_161836" data-name="Grupo 161836" clip-path="url(#clip-path-3)">
        <path id="Trazado_604521" data-name="Trazado 604521" d="M221.1,239.168a6.325,6.325,0,1,0,6.324-6.325,6.324,6.324,0,0,0-6.324,6.325" transform="translate(-76.54 -80.605)" fill="#757575"/>
        <path id="Trazado_604522" data-name="Trazado 604522" d="M176.925,72.656h58.934a2.29,2.29,0,0,0,2.29-2.289v-.123a2.29,2.29,0,0,0-2.29-2.29H176.925a2.29,2.29,0,0,0-2.29,2.29v.123a2.29,2.29,0,0,0,2.29,2.289" transform="translate(-60.454 -23.524)" fill="#dfe1e8"/>
        <path id="Trazado_604523" data-name="Trazado 604523" d="M176.925,85.625h58.934a2.29,2.29,0,0,0,2.29-2.29v-.122a2.289,2.289,0,0,0-2.29-2.29H176.925a2.289,2.289,0,0,0-2.29,2.29v.122a2.29,2.29,0,0,0,2.29,2.29" transform="translate(-60.454 -28.014)" fill="#dfe1e8"/>
        <path id="Trazado_604524" data-name="Trazado 604524" d="M176.925,98.594h58.934a2.289,2.289,0,0,0,2.29-2.289v-.123a2.29,2.29,0,0,0-2.29-2.289H176.925a2.29,2.29,0,0,0-2.29,2.289V96.3a2.289,2.289,0,0,0,2.29,2.289" transform="translate(-60.454 -32.504)" fill="#dfe1e8"/>
        <path id="Trazado_604525" data-name="Trazado 604525" d="M183.355,180.544H115.614A10.256,10.256,0,0,1,105.37,170.3V129.093a10.256,10.256,0,0,1,10.244-10.244h67.741A10.256,10.256,0,0,1,193.6,129.093V170.3a10.255,10.255,0,0,1-10.244,10.244m-67.741-60.411a8.97,8.97,0,0,0-8.96,8.96V170.3a8.97,8.97,0,0,0,8.96,8.961h67.741a8.971,8.971,0,0,0,8.961-8.961V129.093a8.97,8.97,0,0,0-8.961-8.96Z" transform="translate(-36.477 -41.143)" fill="#dfe1e8"/>
        <path id="Trazado_604526" data-name="Trazado 604526" d="M126.837,137.355h57.025a4.524,4.524,0,0,0,4.524-4.524v-.861a4.524,4.524,0,0,0-4.524-4.524H126.837a4.525,4.525,0,0,0-4.524,4.524v.861a4.525,4.525,0,0,0,4.524,4.524" transform="translate(-42.342 -44.119)" fill="#dfe1e8"/>
        <rect id="Rectángulo_47920" data-name="Rectángulo 47920" width="102.155" height="5.206" transform="translate(99.808 203.463)" fill="#f0f0f0"/>
        <path id="Trazado_604527" data-name="Trazado 604527" d="M322.319,131.771a14.708,14.708,0,0,1-10.07,13.958q-.132.045-.266.086a14.707,14.707,0,1,1,10.336-14.044" transform="translate(-101.398 -40.525)" fill="#eef0f7"/>
        <path id="Trazado_604528" data-name="Trazado 604528" d="M309.988,133.8s-1-6.5,4.377-6.377,5.309,3.333,5.214,6.521-2.158,2.949.168,7.385-2.014,4.436-2.014,4.436l-3.368-4.627Z" transform="translate(-107.285 -44.112)" fill="#3c4145"/>
        <path id="Trazado_604529" data-name="Trazado 604529" d="M313.809,128.341s-3.644.575-3.788,5.754.983,6.282,4.172,5.2,4.2-6.5,4.268-7.337.264-4.244-4.651-3.62" transform="translate(-107.318 -44.402)" fill="#eea886"/>
        <path id="Trazado_604530" data-name="Trazado 604530" d="M318.541,153.2a3.524,3.524,0,0,1-2.042,3.252c-.088.03-.177.059-.265.086a14.761,14.761,0,0,1-10.905-.869c-.443-.884.2-2.139,1.5-4.066a8.255,8.255,0,0,1,3.276-3.334c2.216-.353,4.562-.374,6.215.56,1.317.745,2.2,2.1,2.218,4.371" transform="translate(-105.649 -51.25)" fill="#e55353"/>
        <path id="Trazado_604531" data-name="Trazado 604531" d="M307.906,151.863,306.23,154.5c0-.014.116-.414.3-1.572.037-.22.075-.467.116-.743a1.989,1.989,0,0,1,.053-.244,7.739,7.739,0,0,1,3.035-2.925Z" transform="translate(-106.01 -51.587)" fill="#e55353"/>
        <path id="Trazado_604532" data-name="Trazado 604532" d="M324.137,155.592a14.625,14.625,0,0,1-2.789,1.262c-.088.03-.177.059-.265.086-.371-.959-.694-1.79-.764-2-.02-.063-.068-.179-.133-.337a11.164,11.164,0,0,1-.987-3.644c0-.824.267-1.5,1.1-1.691a2.172,2.172,0,0,1,.879-.033,2.583,2.583,0,0,1,1.767,1.737c.005.012.01.025.014.037a5.687,5.687,0,0,1,.33,1.175l.041.162c.052.205.152.6.281,1.107.147.587.333,1.333.531,2.145" transform="translate(-110.499 -51.649)" fill="#eea886"/>
        <path id="Trazado_604533" data-name="Trazado 604533" d="M317.064,141.532a27.949,27.949,0,0,0-.65,4.3s-4.458,1.685-4,.732a3.656,3.656,0,0,0,.272-1.478,7.15,7.15,0,0,0-.05-.9c-.012-.1-.021-.153-.021-.153s4.764-3.1,4.449-2.5" transform="translate(-108.139 -48.968)" fill="#eea886"/>
        <path id="Trazado_604534" data-name="Trazado 604534" d="M312.329,132.011a18.024,18.024,0,0,0,3.572,4.244c1.7,1.2.839,2.158.839,2.158s4.441-9.351.219-10-6.812-.7-6.932,5.635c0,0,1.918-2.086,2.3-2.038" transform="translate(-107.324 -44.356)" fill="#3c4145"/>
        <path id="Trazado_604535" data-name="Trazado 604535" d="M315.312,145.048a4.236,4.236,0,0,1-2.492,1.281,7.142,7.142,0,0,0-.05-.9,5.088,5.088,0,0,0,2.542-.381" transform="translate(-108.274 -50.212)" fill="#a77860"/>
        <path id="Trazado_604536" data-name="Trazado 604536" d="M306.873,151.915h0a3.788,3.788,0,0,0-.177,1.007l.657-.991s1.172-1.681,1.574-2.118a6.168,6.168,0,0,1,.983-.821,6.694,6.694,0,0,0-3.038,2.923" transform="translate(-106.171 -51.577)" fill="#bd4444"/>
        <path id="Trazado_604537" data-name="Trazado 604537" d="M319.995,154.475a25.16,25.16,0,0,1,3.707-1.187s-.575-4.594-3.386-4.107-.321,5.295-.321,5.295" transform="translate(-110.422 -51.63)" fill="#e55353"/>
        <path id="Trazado_604538" data-name="Trazado 604538" d="M311.9,148.12s-2.1,3.23-1.389,3.512,4.56-.376,6.2-3.444a5.767,5.767,0,0,0-4.807-.068" transform="translate(-107.44 -51.099)" fill="#eea886"/>
        <path id="Trazado_604539" data-name="Trazado 604539" d="M325.936,63.811A19.133,19.133,0,1,1,306.8,44.677a19.134,19.134,0,0,1,19.133,19.134" transform="translate(-99.585 -15.466)" fill="#eef0f7"/>
        <path id="Trazado_604540" data-name="Trazado 604540" d="M322.8,87.732,321.387,92.8a19.029,19.029,0,0,1-8.7,3.369c-.566.07-1.14.114-1.721.133q-.313.01-.628.01c-.619,0-1.231-.03-1.835-.087a19.05,19.05,0,0,1-9.812-3.865c-.271-1.674-.561-3.527-.817-5.26,1.406-.524,5.882-2.046,8.706-3l.118-.04.184-.062.479-.162c.155-.052.3-.1.439-.149l1.132-.38h0l.058-.02.033,0,3.8.284.637.048.2.015.086.021c.229.059.9.233,1.776.5h0c2.25.688,5.9,2,7.274,3.578" transform="translate(-103.116 -28.83)" fill="#d9c7c1"/>
        <path id="Trazado_604541" data-name="Trazado 604541" d="M315.532,59.384s4.556.769,3.782,7.9-4.793,6.5-5.062,6.492-4.045.086-4.244-8.634c0,0-.058-6.447,5.523-5.759" transform="translate(-107.318 -20.539)" fill="#eea987"/>
        <path id="Trazado_604542" data-name="Trazado 604542" d="M318.342,77.825a16.419,16.419,0,0,0,.12,3.574c.277.639-3.657,2.66-6.1.358a25.145,25.145,0,0,0,.341-4.341c-.153-1.133,5.642.409,5.642.409" transform="translate(-108.132 -26.656)" fill="#eea987"/>
        <path id="Trazado_604543" data-name="Trazado 604543" d="M324.226,68.289s.505-.528.683.014-.807,2.945-.746,3.055c0,0-.094.209-.213.092a26.1,26.1,0,0,1,.275-3.161" transform="translate(-112.136 -23.56)" fill="#eea987"/>
        <path id="Trazado_604544" data-name="Trazado 604544" d="M309.709,67.986s-.483-.549-.683-.014a9.156,9.156,0,0,0,.619,3.083s.158.247.28.135a26.26,26.26,0,0,0-.217-3.2" transform="translate(-106.966 -23.449)" fill="#eea987"/>
        <path id="Trazado_604545" data-name="Trazado 604545" d="M319.53,64.033c-.157.976-.305,1.7-.305,1.7l-.663.866a17.461,17.461,0,0,0-.062-2.215c-.039-.114-.084-.316-.129-.535-.077-.361-.155-.768-.208-.9a9.756,9.756,0,0,0-7.306.234s.029.295.027.623c0,.382-.043.81-.218.875-.326.119-.19,2.241-.19,2.241l-.53-.612s-.154-1.108-.3-2.382l0-.009c-.034-.3-.069-.6-.1-.906-.076-1.281.051-3.607,1.719-4.974,1.125-.482,2.923-.892,5.919.026a2.07,2.07,0,0,1,.879.231c1.866,2.054,1.476,5.739,1.476,5.739" transform="translate(-107.149 -19.91)" fill="#e8734d"/>
        <path id="Trazado_604546" data-name="Trazado 604546" d="M313.358,79.966a2.9,2.9,0,0,0,2.417.972,3.291,3.291,0,0,0,2.422-.919,2.947,2.947,0,0,1-2.43,1.654,2.982,2.982,0,0,1-2.409-1.707" transform="translate(-108.477 -27.682)" fill="#c78d71"/>
        <path id="Trazado_604547" data-name="Trazado 604547" d="M311.649,83.912a4.963,4.963,0,0,0,3.537,2.326c1.469.127,2.741-1.735,3.338-2.65a8.9,8.9,0,0,0-6.875.324" transform="translate(-107.885 -28.749)" fill="#eea987"/>
        <path id="Trazado_604548" data-name="Trazado 604548" d="M319.974,82.846a12.638,12.638,0,0,1-2.915,2.526l1.234,1.9,2.1-3.755Z" transform="translate(-109.758 -28.679)" fill="#eddad3"/>
        <path id="Trazado_604549" data-name="Trazado 604549" d="M312.109,83.281a8.464,8.464,0,0,0,2.981,2.241l-1.355,1.958-2.367-3.425Z" transform="translate(-107.788 -28.83)" fill="#eddad3"/>
        <path id="Trazado_604550" data-name="Trazado 604550" d="M316.485,86.708l1.057,1.61a2.2,2.2,0,0,1-2.142-.04Z" transform="translate(-109.184 -30.016)" fill="#5073ab"/>
        <path id="Trazado_604551" data-name="Trazado 604551" d="M331.862,87.638c-.182.654-.454,1.606-1.174,4.218-.219.19-.443.375-.671.554q-.386.305-.788.59a19.021,19.021,0,0,1-8.7,3.369c.284-6.623,1.07-12.5,1.07-12.5q.93.244,1.765.485h0a40.607,40.607,0,0,1,8.157,3.081l.018.01c.219.122.321.188.321.188" transform="translate(-110.959 -29.035)" fill="#323657"/>
        <path id="Trazado_604552" data-name="Trazado 604552" d="M305.432,96.353a19.151,19.151,0,0,1-9.753-5.27c-.118-.119-.234-.239-.347-.36-.335-1.423-.558-2.351-.572-2.411v0s2.367-1.555,10.742-3.791v.005c0,.192.005,5.564-.069,11.83" transform="translate(-102.039 -29.258)" fill="#323657"/>
        <path id="Trazado_604553" data-name="Trazado 604553" d="M316.65,89.131c-.078,1.744-.086,5.129-.059,8.99-.209.007-.418.01-.628.01-.619,0-1.232-.029-1.835-.087a58.634,58.634,0,0,1,1.271-8.918c.093-.386.149-.579.149-.579l1.123.186c-.008.122-.014.254-.021.4" transform="translate(-108.744 -30.653)" fill="#5073ab"/>
        <path id="Trazado_604554" data-name="Trazado 604554" d="M337.852,91.682a19.243,19.243,0,0,1-2.139,2.167c-.218.19-.443.376-.671.554l1.845-4.772a6.486,6.486,0,0,1,.965,2.05" transform="translate(-115.984 -31.028)" fill="#323657"/>
        <path id="Trazado_604555" data-name="Trazado 604555" d="M295.339,93.09c-.118-.119-.234-.239-.347-.36q-.643-.681-1.215-1.421a2.206,2.206,0,0,1,.643-.993v0Z" transform="translate(-101.698 -31.265)" fill="#323657"/>
        <path id="Trazado_604556" data-name="Trazado 604556" d="M127.738,39.971H106.273a2.155,2.155,0,0,1-2.155-2.155V36.13a2.155,2.155,0,0,1,2.155-2.155h21.465a2.155,2.155,0,0,1,2.155,2.155v1.686a2.155,2.155,0,0,1-2.155,2.155" transform="translate(-36.043 -20.761)" fill="#f5f7ff"/>
        <path id="Trazado_604557" data-name="Trazado 604557" d="M322.318,185.366a14.7,14.7,0,1,1-14.7-14.7,14.7,14.7,0,0,1,14.7,14.7" transform="translate(-101.398 -59.079)" fill="#eef0f7"/>
        <path id="Trazado_604558" data-name="Trazado 604558" d="M315.007,195.91a.741.741,0,0,1-.741-.741V184.925a.741.741,0,1,1,1.482,0V195.17a.741.741,0,0,1-.741.741" transform="translate(-108.791 -63.76)" fill="#949494"/>
        <path id="Trazado_604559" data-name="Trazado 604559" d="M317.417,193.5H307.173a.741.741,0,0,1,0-1.482h10.244a.741.741,0,0,1,0,1.482" transform="translate(-106.079 -66.472)" fill="#949494"/>
        <path id="Trazado_604560" data-name="Trazado 604560" d="M261.588,133.622h-8.02a2.886,2.886,0,0,1-2.885-2.886v-8.02a2.886,2.886,0,0,1,2.885-2.885h8.02a2.886,2.886,0,0,1,2.886,2.885v8.02a2.886,2.886,0,0,1-2.886,2.886" transform="translate(-86.781 -41.483)" fill="#144567"/>
        <path id="Trazado_604561" data-name="Trazado 604561" d="M258.59,131.806l-3.486-3.039a.687.687,0,1,1,.9-1.036l2.465,2.149,3.516-3.921a.687.687,0,0,1,1.023.917Z" transform="translate(-88.229 -43.525)" fill="#f3f3f3"/>
        <path id="Trazado_604562" data-name="Trazado 604562" d="M261.588,160.652h-8.02a2.886,2.886,0,0,1-2.885-2.886v-8.019a2.886,2.886,0,0,1,2.885-2.886h8.02a2.886,2.886,0,0,1,2.886,2.886v8.019a2.886,2.886,0,0,1-2.886,2.886" transform="translate(-86.781 -50.84)" fill="#91e8d6"/>
        <path id="Trazado_604563" data-name="Trazado 604563" d="M258.59,158.837,255.1,155.8a.687.687,0,1,1,.9-1.035l2.465,2.149,3.516-3.922a.687.687,0,1,1,1.023.917Z" transform="translate(-88.229 -52.883)" fill="#f3f3f3"/>
        <path id="Trazado_604564" data-name="Trazado 604564" d="M261.588,187.682h-8.02a2.886,2.886,0,0,1-2.885-2.886v-8.019a2.886,2.886,0,0,1,2.885-2.886h8.02a2.886,2.886,0,0,1,2.886,2.886V184.8a2.886,2.886,0,0,1-2.886,2.886" transform="translate(-86.781 -60.197)" fill="#833343"/>
        <path id="Trazado_604565" data-name="Trazado 604565" d="M163.608,325.663a10.572,10.572,0,0,1-1.293,2.2c-.592.625-2.856,1.742-2.868,3.6-.014,2.012,3.817,1.454,5.315,1.38s1.611-1.148,2.241-2.288,1.267-.946,1.385-1.865a10.981,10.981,0,0,0-.483-2.976Z" transform="translate(-55.197 -112.737)" fill="#131c24"/>
        <path id="Trazado_604566" data-name="Trazado 604566" d="M165.654,324.631l-.11.954a8.321,8.321,0,0,0,4.583.083l-.124-1.3Z" transform="translate(-57.307 -112.287)" fill="#4f4946"/>
        <path id="Trazado_604567" data-name="Trazado 604567" d="M205.513,325.663a10.591,10.591,0,0,0,1.292,2.2c.592.625,2.857,1.742,2.868,3.6.014,2.012-3.817,1.454-5.315,1.38s-1.612-1.148-2.241-2.288-1.267-.946-1.385-1.865a11,11,0,0,1,.483-2.976Z" transform="translate(-69.483 -112.737)" fill="#131c24"/>
        <path id="Trazado_604568" data-name="Trazado 604568" d="M205.783,324.631l.11.954a8.321,8.321,0,0,1-4.583.083l.124-1.3Z" transform="translate(-69.689 -112.287)" fill="#4f4946"/>
        <path id="Trazado_604569" data-name="Trazado 604569" d="M191.482,265.515c0,2.481,2.317,25.134,2.317,25.134-.266.827-5.952.726-6.839.313S183.5,268.1,183.331,265.6s-3.866-24.26-4.643-24.177-4.463,23.4-5.085,25.3-3.437,24.455-3.437,24.455c-1.951,1.075-6.59-.271-6.59-.271s.973-23.155,1.084-23.854c.165-1.035-.008-3.824.443-10.013.4-5.536,1.863-17.589,2.787-24.116q.05-.348.095-.669c.182-1.27.318-2.2.382-2.651.028-.194.044-.3.044-.3q.374-.16.781-.3c6.5-2.177,18.862-2.037,18.862-2.037s.171,2.222.184,2.33c.016.131.042.337.076.6.073.575.18,1.433.3,2.428,0,.007,0,.014,0,.021l.012.091c.437,3.54,1.055,8.723,1,9.262-.089.828,1.853,21.326,1.853,23.807" transform="translate(-56.626 -78.572)" fill="#293e4f"/>
        <path id="Trazado_604570" data-name="Trazado 604570" d="M194.058,171.242l-3.191,11.45c-.11.371-.24.828-.379,1.359l-.006.02a.1.1,0,0,0,0,.014,45.032,45.032,0,0,0-1.388,8.609c-.133,2.356.3,11.829.3,11.829a31.825,31.825,0,0,1-12.056,1.346s-7.773-.182-7.139-4.948c1.676-12.614.036-17.815-.183-19.082,0,0-.919-5.812-1.674-10.945,2.188-.815,11.395-4.271,11.395-4.271l4.84.362s7.356,1.811,9.48,4.254" transform="translate(-58.276 -57.682)" fill="#d9c7c1"/>
        <path id="Trazado_604571" data-name="Trazado 604571" d="M186.449,141.839s4.725.8,3.923,8.194-4.972,6.744-5.251,6.734-4.194.09-4.4-8.954c0,0-.06-6.687,5.729-5.973" transform="translate(-62.561 -49.083)" fill="#eea987"/>
        <path id="Trazado_604572" data-name="Trazado 604572" d="M189.363,160.966a17.019,17.019,0,0,0,.125,3.707c.288.663-3.793,2.759-6.33.371a26.2,26.2,0,0,0,.354-4.5c-.159-1.176,5.851.424,5.851.424" transform="translate(-63.405 -55.426)" fill="#eea987"/>
        <path id="Trazado_604573" data-name="Trazado 604573" d="M195.466,151.075s.524-.548.708.014-.837,3.056-.773,3.169c0,0-.1.216-.22.1a27.155,27.155,0,0,1,.286-3.279" transform="translate(-67.559 -52.216)" fill="#eea987"/>
        <path id="Trazado_604574" data-name="Trazado 604574" d="M180.41,150.761s-.5-.569-.708-.014.549,3.044.643,3.2c0,0,.162.255.291.139a27.386,27.386,0,0,0-.226-3.323" transform="translate(-62.196 -52.101)" fill="#eea987"/>
        <path id="Trazado_604575" data-name="Trazado 604575" d="M190.6,146.645c-.163,1.012-.316,1.764-.316,1.764l-.688.9a18.211,18.211,0,0,0-.065-2.3c-.04-.118-.087-.328-.135-.554-.079-.374-.16-.8-.215-.938-.089-.224-4.049-1.381-7.577.243,0,0,.03.305.027.646,0,.4-.044.84-.226.907-.338.124-.2,2.324-.2,2.324l-.55-.635s-.159-1.149-.316-2.47v-.01c-.035-.308-.072-.625-.107-.939-.078-1.329.053-3.741,1.783-5.159,1.168-.5,4.358-1,6.139.027a13.617,13.617,0,0,1,1.153.785c1.935,2.13,1.289,5.407,1.289,5.407" transform="translate(-62.386 -48.413)" fill="#e8734d"/>
        <path id="Trazado_604576" data-name="Trazado 604576" d="M184.195,163.186a3.008,3.008,0,0,0,2.506,1.008,3.413,3.413,0,0,0,2.513-.953,3.059,3.059,0,0,1-2.521,1.716,3.092,3.092,0,0,1-2.5-1.771" transform="translate(-63.764 -56.491)" fill="#c78d71"/>
        <path id="Trazado_604577" data-name="Trazado 604577" d="M182.422,167.279a5.148,5.148,0,0,0,3.669,2.412c1.524.131,2.831-1.8,3.45-2.753a9.211,9.211,0,0,0-7.119.341" transform="translate(-63.15 -57.597)" fill="#eea987"/>
        <path id="Trazado_604578" data-name="Trazado 604578" d="M191.056,166.173a13.11,13.11,0,0,1-3.023,2.619l1.28,1.972,2.182-3.909Z" transform="translate(-65.093 -57.525)" fill="#eddad3"/>
        <path id="Trazado_604579" data-name="Trazado 604579" d="M182.907,166.624A8.792,8.792,0,0,0,186,168.949l-1.405,2.031-2.44-3.468Z" transform="translate(-63.057 -57.681)" fill="#eddad3"/>
        <path id="Trazado_604580" data-name="Trazado 604580" d="M187.437,170.18l1.1,1.669a2.282,2.282,0,0,1-2.222-.041Z" transform="translate(-64.496 -58.912)" fill="#5073ab"/>
        <path id="Trazado_604581" data-name="Trazado 604581" d="M170.776,226.742s5.928,2.187,19.334.128l-.178-2.428s-7.771,2.292-18.92.329Z" transform="translate(-59.119 -77.696)" fill="#1a2833"/>
        <path id="Trazado_604582" data-name="Trazado 604582" d="M192.684,167.217a148.108,148.108,0,0,0-1.2,19.3c.19,8.932,3.091,25.68,3.091,25.68s5.17-.507,6.453-2.122c0,0-2.967-16.12-2.883-18.509s3.8-20.355,3.8-20.355-1.453-1.938-9.268-3.995" transform="translate(-66.283 -57.887)" fill="#385369"/>
        <path id="Trazado_604583" data-name="Trazado 604583" d="M176.894,168.046s-.013,9.828-.2,18.759-1.366,25.559-1.366,25.559-6.066-.864-7.349-2.479c0,0,2.138-15.641,2.054-18.03s-2.741-20.18-2.741-20.18.919-1.311,9.605-3.629" transform="translate(-57.911 -58.174)" fill="#385369"/>
        <rect id="Rectángulo_47921" data-name="Rectángulo 47921" width="3.642" height="2.708" transform="translate(119.743 147.493)" fill="#3e5e78"/>
        <path id="Trazado_604584" data-name="Trazado 604584" d="M186.291,172.087s-1.627,5.552-1.769,16.58.2,14.19.2,14.19l1.27,2.513,1.693-2.622s-.543-25.376-.229-30.467Z" transform="translate(-63.865 -59.572)" fill="#5073ab"/>
        <path id="Trazado_604585" data-name="Trazado 604585" d="M197.633,194.649s2.408-1.212,2.741-1.425a31.938,31.938,0,0,1,4.862-.793c.507.017.529.42.386.564s-4.163.8-4.232.9.34.06.34.06,4.333-.066,4.635.224-.044.564-.22.637c0,0,.394.453-.061.639a6.819,6.819,0,0,1-1.072.306s.573.295.2.558S200.24,198,200.24,198s-1.707-3.264-2.607-3.356" transform="translate(-68.416 -66.615)" fill="#eea886"/>
        <path id="Trazado_604586" data-name="Trazado 604586" d="M199.529,195.244c-3.129.747-10.362-.466-13.118-1.074-.585-.129-1.244-.264-1.922-.4h0c-1.127-.222-2.3-.437-3.259-.607h0c-1.176-.21-2.016-.351-2.016-.351s15.18-3.41,15.74-3.41-1.4-8.874-1.4-8.874-1.955-7.431-.94-10.353a26.933,26.933,0,0,1,5.1,2.059c.7.5,1.207,3.72,1.68,5.912.6,2.777,2,9.1,2.154,10.438.145,1.217,1.115,5.909-2.014,6.656" transform="translate(-62.039 -58.912)" fill="#385369"/>
        <path id="Trazado_604587" data-name="Trazado 604587" d="M170.188,170.235s-4.662,1.593-4.886,2.2a56.893,56.893,0,0,0-1.686,6.483c-.372,1.371-1.215,5.471-1.433,6.808-.277,1.706-.808,7.747-.576,8.678.292,1.176,3.064,1.091,4.559.857s22.263-5.288,22.263-5.288-1.184-3.863-1.244-4.2c0,0-16.01,1.83-18.049,2.265a13.155,13.155,0,0,0-1.417.343s3.531-14.492,2.469-18.141" transform="translate(-55.925 -58.931)" fill="#385369"/>
        <path id="Trazado_604588" data-name="Trazado 604588" d="M174.425,194.667s-2.09-1.7-2.37-1.982a31.78,31.78,0,0,0-4.577-1.821.42.42,0,0,0-.546.5c.067.347,3.939,1.646,3.987,1.755s-.345-.014-.345-.014-4.217-1-4.575-.779-.078.56.078.669c0,0-.482.358-.078.639a6.718,6.718,0,0,0,.981.528s-.622.165-.311.5a10.551,10.551,0,0,0,2.53.845,37.343,37.343,0,0,1,5.227-.845" transform="translate(-57.404 -66.068)" fill="#eea886"/>
        <path id="Trazado_604589" data-name="Trazado 604589" d="M192.6,201.541l-7.042,3.091h0c-1.127-.222-2.3-.438-3.259-.607Z" transform="translate(-63.107 -69.769)" fill="#263947"/>
        <path id="Trazado_604590" data-name="Trazado 604590" d="M192.861,141.672s1.172-.59,1.806.183.7,4.983-.072,6.6.124-5.737-1.734-6.783" transform="translate(-66.764 -48.969)" fill="#e8734d"/>
        <rect id="Rectángulo_47922" data-name="Rectángulo 47922" width="2.096" height="95.292" transform="translate(79.381 134.435)" fill="#706865"/>
        <path id="Trazado_604591" data-name="Trazado 604591" d="M95.932,264.1h-56.4a6.293,6.293,0,0,1-6.292-6.292V151.018a6.293,6.293,0,0,1,6.292-6.293h56.4a6.293,6.293,0,0,1,6.293,6.293V257.806a6.293,6.293,0,0,1-6.293,6.292" transform="translate(-11.508 -50.1)" fill="#bdafaa"/>
        <path id="Trazado_604592" data-name="Trazado 604592" d="M95.117,260.453H42.356a6.218,6.218,0,0,1-6.218-6.217V153.883a6.217,6.217,0,0,1,6.218-6.217H95.117a6.217,6.217,0,0,1,6.217,6.217V254.235a6.217,6.217,0,0,1-6.217,6.217" transform="translate(-12.51 -51.118)" fill="#fff"/>
        <rect id="Rectángulo_47923" data-name="Rectángulo 47923" width="20.556" height="4.642" transform="translate(45.948 93.72)" fill="#706865"/>
        <path id="Trazado_604593" data-name="Trazado 604593" d="M91.317,294.2H49.586a6.138,6.138,0,0,1-6.132-6.13V264.318a6.138,6.138,0,0,1,6.132-6.131H91.317a6.138,6.138,0,0,1,6.131,6.131v23.756a6.138,6.138,0,0,1-6.131,6.13M49.586,258.977a5.348,5.348,0,0,0-5.342,5.341v23.756a5.347,5.347,0,0,0,5.342,5.34H91.317a5.347,5.347,0,0,0,5.34-5.34V264.318a5.347,5.347,0,0,0-5.34-5.341Z" transform="translate(-15.043 -89.378)" fill="#b5deff"/>
        <path id="Trazado_604594" data-name="Trazado 604594" d="M59.386,225.389a.016.016,0,0,0-.01,0c.041.017.046.019.01,0" transform="translate(-20.555 -78.024)" fill="#323657"/>
        <path id="Trazado_604595" data-name="Trazado 604595" d="M111.218,214.263a6.8,6.8,0,1,1,6.8-6.8,6.808,6.808,0,0,1-6.8,6.8m0-12.812a6.011,6.011,0,1,0,6.01,6.011,6.017,6.017,0,0,0-6.01-6.011" transform="translate(-36.147 -69.464)" fill="#b5deff"/>
        <path id="Trazado_604596" data-name="Trazado 604596" d="M111.218,238.229a6.8,6.8,0,1,1,6.8-6.8,6.808,6.808,0,0,1-6.8,6.8m0-12.811a6.011,6.011,0,1,0,6.01,6.011,6.017,6.017,0,0,0-6.01-6.011" transform="translate(-36.147 -77.761)" fill="#b5deff"/>
        <path id="Trazado_604597" data-name="Trazado 604597" d="M58.612,192.872c-.561,0-1.129-.027-1.689-.08a17.607,17.607,0,0,1-10.813-5.125c-.114-.116-.222-.228-.321-.333a17.15,17.15,0,0,1-1.117-1.307,17.446,17.446,0,0,1-3.676-10.77,17.637,17.637,0,0,1,17.617-17.617v.79a16.846,16.846,0,0,0-16.826,16.827A16.658,16.658,0,0,0,45.3,185.542a16.317,16.317,0,0,0,1.068,1.249c.095.1.2.209.306.318a16.823,16.823,0,0,0,8.576,4.634A16.525,16.525,0,0,0,57,192c.535.05,1.078.076,1.614.076.2,0,.376,0,.552-.009.511-.016,1.019-.056,1.514-.117a16.806,16.806,0,0,0,7.652-2.962c.239-.169.471-.345.693-.52.192-.15.39-.314.591-.488a17.031,17.031,0,0,0,1.88-1.906,16.866,16.866,0,0,0,3.763-13.294l.782-.114a17.819,17.819,0,0,1,.188,2.584A17.634,17.634,0,0,1,72.1,186.588a17.84,17.84,0,0,1-1.969,2c-.209.181-.418.352-.619.511-.231.182-.475.365-.724.543a17.6,17.6,0,0,1-8.013,3.1c-.517.064-1.051.105-1.585.122-.184.007-.374.01-.578.01" transform="translate(-14.191 -54.571)" fill="#b5deff"/>
        <path id="Trazado_604598" data-name="Trazado 604598" d="M73.014,188.792a1.484,1.484,0,0,0-.172-.192.287.287,0,0,0-.09-.073l-.016-.01v0a48.7,48.7,0,0,0-9.21-3.3,10.153,10.153,0,0,1-.133-2.585,7.34,7.34,0,0,0,1.484-3.571c.1.074.175-.1.175-.1-.055-.1.832-2.262.672-2.75a.256.256,0,0,0-.418-.164q.031-.187.065-.394s.352-3.318-1.328-5.165a1.849,1.849,0,0,0-.792-.209,7.385,7.385,0,0,0-5.327-.023c-1.5,1.23-1.616,3.323-1.547,4.476.03.273.061.548.092.815v.009c.012.1.025.209.037.311a.256.256,0,0,0-.426.146,8.247,8.247,0,0,0,.558,2.775s.141.222.252.122h0a7.916,7.916,0,0,0,1.456,3.786c-.06,1.065-.25,2.4-.3,2.749h0c-1.377.434-8.281,2.271-10.37,3.644a1.985,1.985,0,0,0-.578.893,16.712,16.712,0,0,0,1.093,1.28c.1.109.207.218.313.324a17.148,17.148,0,0,0,10.57,5.01q.815.077,1.652.078c.19,0,.378,0,.566-.009.522-.017,1.04-.057,1.549-.12a17.128,17.128,0,0,0,7.833-3.032q.361-.257.709-.532c.2-.161.407-.328.6-.5a17.374,17.374,0,0,0,1.924-1.95,8.4,8.4,0,0,0-.9-1.751" transform="translate(-16.304 -58.78)" fill="#b5deff"/>
        <rect id="Rectángulo_47924" data-name="Rectángulo 47924" width="20.405" height="1.211" transform="translate(241.452 168.431)" fill="#e2d2ca"/>
        <rect id="Rectángulo_47925" data-name="Rectángulo 47925" width="1.788" height="55.088" transform="translate(257.335 172.794)" fill="#706865"/>
        <rect id="Rectángulo_47926" data-name="Rectángulo 47926" width="14.183" height="1.73" transform="translate(230.461 168.087)" fill="#ccbdb7"/>
        <rect id="Rectángulo_47927" data-name="Rectángulo 47927" width="5.371" height="16.313" transform="translate(234.868 153.328)" fill="#4667a8"/>
        <rect id="Rectángulo_47928" data-name="Rectángulo 47928" width="78.587" height="3.132" transform="translate(190.59 169.662)" fill="#b59074"/>
        <path id="Trazado_604599" data-name="Trazado 604599" d="M430.169,227.711s.859,12.053-1.5,13.5c-1.476.9-7.358,3.951-7.183,4.523s3.321,5.085,3.321,5.085,11.3-7.441,11.664-9.786c.356-2.291-.556-17.649-2.109-18.356-1.163-.53-1.778-.092-3.244,1-2.058,1.527-.953,4.04-.953,4.04" transform="translate(-145.909 -77.007)" fill="#323657"/>
        <path id="Trazado_604600" data-name="Trazado 604600" d="M402.741,234.058l-1-.369s1.242-2.915,1.784-2.845a13.51,13.51,0,0,1,1.4.288Z" transform="translate(-139.075 -79.912)" fill="#ead8cf"/>
        <path id="Trazado_604601" data-name="Trazado 604601" d="M402.921,234.458c.127-.095,2.116-3.911,2.116-3.911l4.251.577-2.3,4.521Z" transform="translate(-139.482 -79.81)" fill="#da9b5b"/>
        <path id="Trazado_604602" data-name="Trazado 604602" d="M413.5,336.866s.352,2.439.4,2.806,3.909-.216,3.909-.216l.313-2.9s-4.133-.03-4.617.314" transform="translate(-143.145 -116.506)" fill="#424773"/>
        <path id="Trazado_604603" data-name="Trazado 604603" d="M410.493,340.762a10.435,10.435,0,0,1-2.409,2.111c-1.183.64-3.045.894-3.745,1.557-.505.479-1.841,2.539,3.078,2.5s7.29.291,7.817-.5-.762-5.831-.762-5.831a10.412,10.412,0,0,1-3.978.165" transform="translate(-139.781 -117.907)" fill="#292c47"/>
        <path id="Trazado_604604" data-name="Trazado 604604" d="M375.631,336.9s.351,2.439.395,2.8,3.909-.216,3.909-.216l.313-2.9s-4.133-.03-4.617.314" transform="translate(-130.035 -116.519)" fill="#424773"/>
        <path id="Trazado_604605" data-name="Trazado 604605" d="M371.419,340.8a10.439,10.439,0,0,1-2.409,2.11c-1.184.641-5.543,1.167-6.243,1.829-.505.479-1.346,2.405,5.574,2.226,4.917-.128,7.29.291,7.818-.5s-.763-5.832-.763-5.832a9.438,9.438,0,0,1-3.977.166" transform="translate(-125.468 -117.918)" fill="#292c47"/>
        <path id="Trazado_604606" data-name="Trazado 604606" d="M411.214,272.6s-14.051,2.378-17.225,2.877-20.381,4.779-22.533,6.084c-1.713,1.039.9,25.982,1.508,35.5h6.778l.492-28.547c8.134.2,13.937-1.9,19.859-1s10.861,2.178,14.623-2.87c0,0,.14-10.936-3.5-12.04" transform="translate(-128.391 -94.367)" fill="#292c47"/>
        <path id="Trazado_604607" data-name="Trazado 604607" d="M410.275,318.689l6.6-.408.644-28.161a40.152,40.152,0,0,0,7.535-.479l5.333-12.4c-4.674.934-19.648,4.711-21.645,5.922-1.713,1.04.918,26,1.528,35.521" transform="translate(-141.301 -95.976)" fill="#292c47"/>
        <path id="Trazado_604608" data-name="Trazado 604608" d="M418.343,191.913s-5.151-1.423-7.116,2.575-1.074,11.579,1.521,12.293,6.329-.109,7.407-2.6a19.1,19.1,0,0,0,1.68-8.315,5.022,5.022,0,0,0-3.492-3.956" transform="translate(-141.988 -66.35)" fill="#eea886"/>
        <path id="Trazado_604609" data-name="Trazado 604609" d="M416.025,211.707a15.737,15.737,0,0,1-.279,3.69c-.336.649,7.172.486,7.172.486a15.237,15.237,0,0,1-.512-6.763c.664-3.079-6.382,2.588-6.382,2.588" transform="translate(-143.918 -72.075)" fill="#eea886"/>
        <path id="Trazado_604610" data-name="Trazado 604610" d="M420.8,201.974s-.4.816-2.345.684-4.507-2.476-5.331-2.686-.874-.679-.874-.679l-.436.777-.845.128s.574-2.35-.677-3.177.564-7.491,6.9-5.884c0,0,4.836.885,4.9,3.586s-.354,5.82-1.293,7.25" transform="translate(-141.903 -66.081)" fill="#3a3f47"/>
        <path id="Trazado_604611" data-name="Trazado 604611" d="M415.147,218.026s.021-1.239.583-1.357,5.9-.853,6.591-.583l.3,1.635s-1.328.817-7.469.3" transform="translate(-143.714 -74.783)" fill="#e2d2ca"/>
        <path id="Trazado_604612" data-name="Trazado 604612" d="M412.749,202.169c.145-1.015,1.3-2.182,1.96-.6s-.446,3.884-1.187,3.761-.968-1.784-.772-3.161" transform="translate(-142.861 -69.51)" fill="#eea886"/>
        <path id="Trazado_604613" data-name="Trazado 604613" d="M380.926,241.468a.011.011,0,0,1,.009,0c-.039.016-.044.018-.009,0" transform="translate(-131.859 -83.59)" fill="#323657"/>
        <path id="Trazado_604614" data-name="Trazado 604614" d="M424.973,193.152s6.28-.295,1.1,9.509Z" transform="translate(-147.116 -66.864)" fill="#3a3f47"/>
        <path id="Trazado_604615" data-name="Trazado 604615" d="M435.676,341.789l-.467,1.315-19.74-6.117.946-2.661Z" transform="translate(-143.826 -115.736)" fill="#918783"/>
        <rect id="Rectángulo_47929" data-name="Rectángulo 47929" width="2.244" height="21.461" transform="translate(270.967 198.854)" fill="#918783"/>
        <rect id="Rectángulo_47930" data-name="Rectángulo 47930" width="13.233" height="1.264" transform="translate(265.471 197.714)" fill="#5e5854"/>
        <path id="Trazado_604616" data-name="Trazado 604616" d="M385.658,341.7l.467,1.315,19.74-6.117L405,334.071Z" transform="translate(-133.506 -115.647)" fill="#918783"/>
        <path id="Trazado_604617" data-name="Trazado 604617" d="M406.93,342.874V344.4l6.3-7.5-.868-2.828Z" transform="translate(-140.869 -115.647)" fill="#918783"/>
        <path id="Trazado_604618" data-name="Trazado 604618" d="M382.837,347.56a1.844,1.844,0,1,0,1.844-1.844,1.845,1.845,0,0,0-1.844,1.844" transform="translate(-132.529 -119.679)" fill="#bfb2ac"/>
        <path id="Trazado_604619" data-name="Trazado 604619" d="M406.69,347.56a1.845,1.845,0,1,0,1.844-1.844,1.845,1.845,0,0,0-1.844,1.844" transform="translate(-140.786 -119.679)" fill="#bfb2ac"/>
        <path id="Trazado_604620" data-name="Trazado 604620" d="M443.553,347.56a1.845,1.845,0,1,0,1.845-1.844,1.845,1.845,0,0,0-1.845,1.844" transform="translate(-153.548 -119.679)" fill="#bfb2ac"/>
        <path id="Trazado_604621" data-name="Trazado 604621" d="M394.407,299.861h26.62a2.365,2.365,0,0,0,2.365-2.365v-.061a2.365,2.365,0,0,0-2.365-2.364h-26.62a2.364,2.364,0,0,0-2.365,2.364v.061a2.365,2.365,0,0,0,2.365,2.365" transform="translate(-135.716 -102.146)" fill="#e2d2ca"/>
        <rect id="Rectángulo_47931" data-name="Rectángulo 47931" width="1.788" height="55.088" transform="translate(200.645 172.794)" fill="#706865"/>
        <path id="Trazado_604622" data-name="Trazado 604622" d="M330.221,229.206h41.662a2.358,2.358,0,0,0,2.358-2.358v-28a2.358,2.358,0,0,0-2.358-2.358H330.221a2.359,2.359,0,0,0-2.359,2.358v28a2.359,2.359,0,0,0,2.359,2.358" transform="translate(-113.498 -68.019)" fill="#5f8be3"/>
        <rect id="Rectángulo_47932" data-name="Rectángulo 47932" width="42.747" height="25.822" transform="translate(216.18 130.237)" fill="#f5f7ff"/>
        <rect id="Rectángulo_47933" data-name="Rectángulo 47933" width="42.747" height="2.055" transform="translate(216.18 130.236)" fill="#cecfd6"/>
        <path id="Trazado_604623" data-name="Trazado 604623" d="M334.517,225.331h2.233a1.46,1.46,0,0,0,1.46-1.46V206.16a1.46,1.46,0,0,0-1.46-1.461h-2.233a1.46,1.46,0,0,0-1.46,1.461v17.711a1.46,1.46,0,0,0,1.46,1.46" transform="translate(-115.296 -70.862)" fill="#cecfd6"/>
        <path id="Trazado_604624" data-name="Trazado 604624" d="M380.579,206.611H388.4a.788.788,0,0,0,.789-.788v-.335a.789.789,0,0,0-.789-.789h-7.824a.789.789,0,0,0-.789.789v.335a.788.788,0,0,0,.789.788" transform="translate(-131.475 -70.862)" fill="#cecfd6"/>
        <path id="Trazado_604625" data-name="Trazado 604625" d="M381.419,227.548h6.145a1.629,1.629,0,0,0,1.629-1.629V211.211a1.629,1.629,0,0,0-1.629-1.629h-6.145a1.629,1.629,0,0,0-1.628,1.629V225.92a1.628,1.628,0,0,0,1.628,1.629" transform="translate(-131.475 -72.552)" fill="#cecfd6"/>
        <path id="Trazado_604626" data-name="Trazado 604626" d="M361.041,241.684a1.5,1.5,0,1,0,1.5-1.5,1.5,1.5,0,0,0-1.5,1.5" transform="translate(-124.984 -83.147)" fill="#59524f"/>
        <path id="Trazado_604627" data-name="Trazado 604627" d="M348.645,257.33v-.583s.818-3.622,6.608-3.622,5.673,4.2,5.673,4.2Z" transform="translate(-120.693 -87.626)" fill="#314875"/>
        <path id="Trazado_604628" data-name="Trazado 604628" d="M362.031,252.762a5.7,5.7,0,0,1-1.719-.376c-.46-.278-3.217-2.132-3.865-1.835s-4.957,1.617-4.807,2.248.548.569.852.458a22.139,22.139,0,0,1,3.71-.658s-3.074,1.122-3.087,1.94.644,1.017.935,1.327.641,1.079,1.434,1.137,4.657-1.285,5.453-1.348a19.39,19.39,0,0,0,2.369-.08,21.962,21.962,0,0,0-1.274-2.812" transform="translate(-121.728 -86.724)" fill="#eea886"/>
        <path id="Trazado_604629" data-name="Trazado 604629" d="M389.746,220.64c4.011-.7,8.232-1.716,8.232-1.716l7.469-.3A72.676,72.676,0,0,1,415,221.347c.256.116.258,6.116.96,7.689l-2.238,4.722s-1.293,9.353-1.561,13.513c-.123,1.909.348,18.455.348,18.455s-.671.331-5.768.893-17.834-.2-17.914-.8,2.466-22.419,2.579-23.549c.173-1.734-.5-9.747-.5-9.747-.96,1.291-3.408,7.116-5.961,9.888-1.5,1.63-8.935,2.63-10.336,2.677-3.05.1-8.614.709-8.777.413-.129-.179-.484-4.939-.136-5.055.305-.1,10.637-.7,13.284-2.1.969-.515,3.863-6.827,3.863-6.827s4.69-9.881,6.9-10.876" transform="translate(-126.544 -75.681)" fill="#323657"/>
        <path id="Trazado_604630" data-name="Trazado 604630" d="M422.666,274.085h12.539a4.54,4.54,0,0,0,4.54-4.541V248.682a4.541,4.541,0,0,0-4.54-4.54H422.666a4.54,4.54,0,0,0-4.54,4.54v20.862a4.54,4.54,0,0,0,4.54,4.541" transform="translate(-144.745 -84.516)" fill="#e2d2ca"/>
        <path id="Trazado_604631" data-name="Trazado 604631" d="M423.348,291.159a9.907,9.907,0,0,0,7.684-3.181c4.322-4.772,3.545-13.16,3.51-13.515a1.2,1.2,0,0,0-2.394.237c.009.1.7,7.7-2.9,11.667a7.5,7.5,0,0,1-5.9,2.386,1.2,1.2,0,1,0,0,2.405" transform="translate(-146.137 -94.637)" fill="#e2d2ca"/>
        <path id="Trazado_604632" data-name="Trazado 604632" d="M357.884,212.138a6.038,6.038,0,1,1-6.037-6.037,6.038,6.038,0,0,1,6.037,6.037" transform="translate(-119.711 -71.347)" fill="#eef0f7"/>
        <path id="Trazado_604633" data-name="Trazado 604633" d="M356.894,219.687l-.447,1.6a5.986,5.986,0,0,1-2.745,1.063c-.178.022-.36.037-.543.042-.065,0-.131,0-.2,0-.195,0-.388-.009-.579-.027a6.316,6.316,0,0,1-.628-.093,6,6,0,0,1-2.468-1.127c-.086-.528-.177-1.112-.258-1.659.443-.165,1.856-.645,2.747-.947l.037-.012.058-.02.152-.051.139-.047.358-.12h0l.018-.007h.01l1.2.09.2.015.063,0,.027.007c.072.018.282.073.561.158h0a5.87,5.87,0,0,1,2.3,1.129" transform="translate(-120.825 -75.564)" fill="#d9c7c1"/>
        <path id="Trazado_604634" data-name="Trazado 604634" d="M354.6,210.74s1.437.244,1.193,2.494-1.512,2.052-1.6,2.049-1.276.027-1.339-2.725c0,0-.018-2.033,1.743-1.818" transform="translate(-122.151 -72.948)" fill="#eea987"/>
        <path id="Trazado_604635" data-name="Trazado 604635" d="M355.487,216.561a5.215,5.215,0,0,0,.038,1.128c.088.2-1.154.84-1.926.113a7.888,7.888,0,0,0,.108-1.37c-.048-.358,1.78.129,1.78.129" transform="translate(-122.408 -74.878)" fill="#eea987"/>
        <path id="Trazado_604636" data-name="Trazado 604636" d="M357.345,213.551s.159-.166.214.005-.255.93-.235.964c0,0-.029.066-.067.029a8.3,8.3,0,0,1,.088-1" transform="translate(-123.672 -73.901)" fill="#eea987"/>
        <path id="Trazado_604637" data-name="Trazado 604637" d="M352.764,213.456s-.152-.174-.216,0a2.885,2.885,0,0,0,.2.972s.049.078.088.043a8.242,8.242,0,0,0-.068-1.011" transform="translate(-122.04 -73.866)" fill="#eea987"/>
        <path id="Trazado_604638" data-name="Trazado 604638" d="M355.863,212.208c-.05.309-.1.537-.1.537l-.21.273a5.479,5.479,0,0,0-.019-.7c-.012-.037-.026-.1-.041-.169-.024-.114-.049-.242-.065-.286a3.079,3.079,0,0,0-2.3.075s.009.092.008.2c0,.12-.014.255-.069.275-.1.038-.06.707-.06.707l-.167-.193s-.048-.35-.1-.752v0c-.011-.093-.022-.19-.033-.286a1.882,1.882,0,0,1,.543-1.57,2.6,2.6,0,0,1,1.867.009.658.658,0,0,1,.278.073,2.667,2.667,0,0,1,.466,1.811" transform="translate(-122.098 -72.749)" fill="#e8734d"/>
        <path id="Trazado_604639" data-name="Trazado 604639" d="M353.915,217.236a.92.92,0,0,0,.763.307,1.042,1.042,0,0,0,.764-.291.93.93,0,0,1-.767.522.941.941,0,0,1-.76-.539" transform="translate(-122.517 -75.202)" fill="#c78d71"/>
        <path id="Trazado_604640" data-name="Trazado 604640" d="M353.376,218.482a1.566,1.566,0,0,0,1.116.734c.464.041.865-.548,1.053-.837a2.81,2.81,0,0,0-2.169.1" transform="translate(-122.33 -75.539)" fill="#eea987"/>
        <path id="Trazado_604641" data-name="Trazado 604641" d="M356,218.145a3.986,3.986,0,0,1-.92.8l.39.6.664-1.185Z" transform="translate(-122.921 -75.517)" fill="#eddad3"/>
        <path id="Trazado_604642" data-name="Trazado 604642" d="M353.521,218.283a2.668,2.668,0,0,0,.94.707l-.428.617-.747-1.081Z" transform="translate(-122.3 -75.564)" fill="#eddad3"/>
        <path id="Trazado_604643" data-name="Trazado 604643" d="M354.9,219.365l.334.507a.694.694,0,0,1-.676-.012Z" transform="translate(-122.74 -75.939)" fill="#5073ab"/>
        <path id="Trazado_604644" data-name="Trazado 604644" d="M359.754,219.658l-.01.033c-.036.13-.177.632-.36,1.3-.069.06-.14.118-.212.175s-.164.126-.249.186a6,6,0,0,1-2.745,1.063c.09-2.09.337-3.943.337-3.943q.294.077.557.153h0a12.8,12.8,0,0,1,2.574.972l.006,0c.069.039.1.06.1.06" transform="translate(-123.3 -75.629)" fill="#323657"/>
        <path id="Trazado_604645" data-name="Trazado 604645" d="M351.414,222.408a6.066,6.066,0,0,1-3.078-1.663q-.056-.056-.11-.114c-.106-.449-.177-.742-.18-.761h0a13.648,13.648,0,0,1,3.389-1.2h0c0,.061,0,1.756-.022,3.733" transform="translate(-120.485 -75.699)" fill="#323657"/>
        <path id="Trazado_604646" data-name="Trazado 604646" d="M354.954,220.128c-.024.551-.027,1.619-.018,2.837-.066,0-.131,0-.2,0-.2,0-.389-.009-.579-.027a18.631,18.631,0,0,1,.4-2.815c.029-.122.048-.182.048-.182l.354.059c0,.038-.005.08-.007.126" transform="translate(-122.601 -76.139)" fill="#5073ab"/>
        <path id="Trazado_604647" data-name="Trazado 604647" d="M361.645,220.934a6.067,6.067,0,0,1-.675.685c-.069.06-.14.118-.212.174,0-.007.347-1.011.582-1.505.16.107.232.468.3.647" transform="translate(-124.886 -76.258)" fill="#323657"/>
        <path id="Trazado_604648" data-name="Trazado 604648" d="M348.229,221.377q-.056-.056-.11-.114-.2-.215-.383-.449a.7.7,0,0,1,.2-.313h0Z" transform="translate(-120.378 -76.333)" fill="#323657"/>
        <path id="Trazado_604649" data-name="Trazado 604649" d="M282.252,331.717a5.264,5.264,0,0,0-1.866-1.788c-1.078-.5-3.289,1.249-3.484,2.222l-2.563,3.74.486.333,1.368-2c-.931,2.242-2.263,4.925-1.327,6.275,1.255,1.81,4.1,3.641,4.853,3.325s.6-5.583.6-5.583c-.811-4.648,1.932-6.528,1.932-6.528" transform="translate(-94.97 -114.183)" fill="#1d3b54"/>
        <path id="Trazado_604650" data-name="Trazado 604650" d="M283.606,331.764a28.945,28.945,0,0,0-1.414,3.191c-.48,1.395-.57,5.255-.872,5.523s-2.687-.935-3.006-2.379.649-4.33,1.57-5.846a9.429,9.429,0,0,1,1.856-2.276,2.4,2.4,0,0,1,1.866,1.788" transform="translate(-96.324 -114.23)" fill="#de9673"/>
        <path id="Trazado_604651" data-name="Trazado 604651" d="M293.439,280.957s-1.461,7.752-1.461,9.605a17.063,17.063,0,0,1-1.685,7.135c-1.18,2.247-6.356,17.6-6.806,19.386s-.834,3.476-.834,3.476-2.584-1.179-2.584-2.864,2.247-15.616,2.64-18.368,3.652-16.852,3.652-16.852Z" transform="translate(-96.954 -97.261)" fill="#de9673"/>
        <path id="Trazado_604652" data-name="Trazado 604652" d="M282.948,280.019s.505,6.46.449,8.145-.843,5.505-.843,6.517,0,21.961.838,24.488-2.354.789-2.354.789-5.561-13.779-5.561-19.528.673-8.614.28-12.265a44.549,44.549,0,0,0-2.141-8.458Z" transform="translate(-94.72 -96.828)" fill="#eea886"/>
        <path id="Trazado_604653" data-name="Trazado 604653" d="M272.917,232.629a20.1,20.1,0,0,0-3.776,8.549c-.787,4.887.93,14.1,1.542,16.769.535,2.339,1.561,9.828,1.617,10.614,0,0,10.051,1.138,17.69-1.277,0,0,.7-10.458,1.149-14.9s-1.744-19.422-1.744-19.422Z" transform="translate(-93.1 -80.531)" fill="#eb4747"/>
        <path id="Trazado_604654" data-name="Trazado 604654" d="M289.039,346.272c-3.6-3.145-2.638-6.373-2.638-6.373a5.337,5.337,0,0,0-2.608-.22c-1.169.292-1.8,3.08-1.328,3.969l.364,4.579.594-.048-.194-2.443c.7,2.359,1.355,5.32,2.951,5.787,2.143.627,5.55.256,5.941-.473s-3.082-4.779-3.082-4.779" transform="translate(-97.729 -117.558)" fill="#1d3b54"/>
        <path id="Trazado_604655" data-name="Trazado 604655" d="M293.6,180.234s-.891,5.3-.122,7.084-4.088-2.082-4.088-2.082,2.016-5.842,4.21-5" transform="translate(-100.181 -62.364)" fill="#754836"/>
        <path id="Trazado_604656" data-name="Trazado 604656" d="M288.3,157.663s-7.8-1.785-8.768,6.547,2.537,9.378.162,15.024,5.8-1.839,5.8-1.839Z" transform="translate(-96.674 -54.524)" fill="#754836"/>
        <path id="Trazado_604657" data-name="Trazado 604657" d="M288.462,157.562a6.776,6.776,0,0,1,6.941,6.407,16.457,16.457,0,0,1-.579,2.536c-.378,1.112.534,4.449.267,4.6a7.286,7.286,0,0,1-1.357.333s-1.268,3.582-2.536,3.515a10.523,10.523,0,0,1-8.179-5.754c-2.136-4.56-2.64-11.479,5.442-11.642" transform="translate(-97.508 -54.544)" fill="#eea886"/>
        <path id="Trazado_604658" data-name="Trazado 604658" d="M258.7,256.422s.186-3.206,1.036-3.7.358.494.358.494-.477,2.326-.583,3.269a4.8,4.8,0,0,1-.811-.06" transform="translate(-89.556 -87.437)" fill="#1d3b54"/>
        <path id="Trazado_604659" data-name="Trazado 604659" d="M262.7,246.269a23.557,23.557,0,0,0,.672,2.823c.435,1.385.837,1.827.662,2.621-.132.6-.81,1.05-.981.858s-.254-2.523-1.219-2.512.288,2.886-.286,2.675-2.787-1.423-2.647-2.6,1.024-2.024.967-3.778a3.778,3.778,0,0,1,.444-2.257Z" transform="translate(-89.621 -84.502)" fill="#eea886"/>
        <path id="Trazado_604660" data-name="Trazado 604660" d="M263.184,253.058s1.286.329,1.21,4.677l-1.456-.243a14.97,14.97,0,0,0-.408-3.714s.074-.851.654-.721" transform="translate(-90.882 -87.598)" fill="#1d3b54"/>
        <path id="Trazado_604661" data-name="Trazado 604661" d="M265.693,260.017,254.355,256.8l.033,13.963,11.284,6.763Z" transform="translate(-88.052 -88.898)" fill="#eddad3"/>
        <path id="Trazado_604662" data-name="Trazado 604662" d="M265.1,277.528l-1.421.262-10.974-6.825.136-14.1.942-.063Z" transform="translate(-87.481 -88.899)" fill="#eddad3"/>
        <path id="Trazado_604663" data-name="Trazado 604663" d="M285.516,186.922s3.023,1.24,3.562,1.619,1.62,4.749,1.889,5.127,2.877,3.62,2.516,6.247a6.764,6.764,0,0,1-2.206,3.966c-.755.81-1.455,5.168-1.691,5.816s.517,9.149.517,9.149-8.868,3.452-16.8-2.432a66.724,66.724,0,0,0,1.584-6.717c0-1.025-1.025-8.257-3.778-12.521s.486-8.8,2.59-9.337,6.152-2.051,6.152-2.051Z" transform="translate(-93.484 -64.315)" fill="#eb4747"/>
        <path id="Trazado_604664" data-name="Trazado 604664" d="M272.146,187.936s-4.438-.273-6.664,2.317-2.1,5.667-2.672,7-1.862,7.083-2.145,8.015-.56,6.163-.964,10.373-.323,12.07-.323,12.07l4.247-.77s.171-7.493.279-11.837,3.642-12.021,4.978-15.382,6.654-9.68,3.265-11.788" transform="translate(-89.788 -65.056)" fill="#eb4747"/>
        <path id="Trazado_604665" data-name="Trazado 604665" d="M297.5,189.623a3.663,3.663,0,0,1,2.883,2.067c.931,1.943,1.287,3.559,1.53,4.045s3.61,6.884,3.813,8.3-.122,4.007-1.9,4.7-8.176.768-8.176.768,1.619-3.289.122-4.989c0,0,4.641-.839,5.739-.95,1.159-.116-5.478-12.48-4.008-13.937" transform="translate(-102.346 -65.643)" fill="#eb4747"/>
        <path id="Trazado_604666" data-name="Trazado 604666" d="M282.221,195.759l8.648,20.2,10.781-5.079-7.973-19.4Z" transform="translate(-97.698 -66.286)" fill="#1d3b54"/>
        <path id="Trazado_604667" data-name="Trazado 604667" d="M288.92,213.2s-1.17.311-1.541.366.087.74.543.761,1-1.127,1-1.127" transform="translate(-99.437 -73.805)" fill="#eea886"/>
        <path id="Trazado_604668" data-name="Trazado 604668" d="M289.706,218.668a2.479,2.479,0,0,0,.775-.154s.4-.265.7-.435a2.356,2.356,0,0,1,.236-.122,4.533,4.533,0,0,0,1.3-.634c.508-.395,2.162-1.971,2.162-1.971L293.79,213.7l-.845-1.312a21.309,21.309,0,0,0-4.07.411,1.473,1.473,0,0,0-.142.1,5.789,5.789,0,0,0-.785.894c-.073.069-.743.8-.7,1.094a.971.971,0,0,0,.515.789,2.323,2.323,0,0,0,.559,1.145,1.439,1.439,0,0,0,.749,1.026s.2.735.638.819" transform="translate(-99.437 -73.525)" fill="#eea886"/>
        <path id="Trazado_604669" data-name="Trazado 604669" d="M295.833,208.063s5.265-.941,6.719-1.1a18.106,18.106,0,0,0-.166-3.413,13.3,13.3,0,0,0-1.552-3.666l2.692,2.466s2.214,4.241,2.264,5.233a5.054,5.054,0,0,1-1,4.075c-1.31,1.552-7.493.841-7.493.841s.517-1.9-1.467-4.442" transform="translate(-102.41 -69.197)" fill="#eb4747"/>
        <path id="Trazado_604670" data-name="Trazado 604670" d="M290.195,180.645s-.171.5-.369,1.249c-.1.382-.211.826-.307,1.3a8.906,8.906,0,0,0-.133,3.886s-2.833.892-4.938-3.134c0,0,1.072-4.245-.092-6.87s5.839,3.569,5.839,3.569" transform="translate(-98.392 -61.075)" fill="#eea886"/>
        <path id="Trazado_604671" data-name="Trazado 604671" d="M295.179,163.507a17.975,17.975,0,0,1-6.541,2.477c-3.233.356-5.031,5.246-5.031,5.246s-5.083-7.915-.99-12.78,13.437-1.1,12.562,5.057" transform="translate(-97.284 -54.082)" fill="#754836"/>
        <path id="Trazado_604672" data-name="Trazado 604672" d="M289.515,170.3a.992.992,0,0,0-1.713-.756c-1.045.823.244,3.826,1.09,3.559s.623-2.159.623-2.8" transform="translate(-99.495 -58.58)" fill="#eea886"/>
        <path id="Trazado_604673" data-name="Trazado 604673" d="M290.2,186.821s1.332,3.934-1.784,3.912-4.473-2.471-5.363-4.645a11.336,11.336,0,0,1,2.1-.8c.668-.1,5.043,1.531,5.043,1.531" transform="translate(-97.984 -64.141)" fill="#eea886"/>
        <path id="Trazado_604674" data-name="Trazado 604674" d="M264.611,259.669l-1.461.189v-.682Z" transform="translate(-91.096 -89.721)" fill="#1d3b54"/>
        <path id="Trazado_604675" data-name="Trazado 604675" d="M259.533,258.263l-.807.1s0-.243,0-.324.775.177.8.228" transform="translate(-89.565 -89.32)" fill="#1d3b54"/>
        <path id="Trazado_604676" data-name="Trazado 604676" d="M287.1,339.8a29.543,29.543,0,0,0,.919,3.414c.51,1.4,2.9,4.5,2.831,4.906s-2.712.976-3.882.041-2.248-3.824-2.489-5.605a13.243,13.243,0,0,1-.114-2.932,2.613,2.613,0,0,1,2.734.176" transform="translate(-98.43 -117.458)" fill="#eea886"/>
        <path id="Trazado_604677" data-name="Trazado 604677" d="M290.978,182.186c-.1.381-.252.841-.369,1.3a13.5,13.5,0,0,1-3.784-3.779,15.951,15.951,0,0,0,4.153,2.483" transform="translate(-99.292 -62.209)" fill="#a77860"/>
        <path id="Trazado_604678" data-name="Trazado 604678" d="M109.471,67.737h30.154a4.45,4.45,0,0,1,4.449,4.449V84.375a4.449,4.449,0,0,1-4.449,4.449H109.471a4.449,4.449,0,0,1-4.449-4.449V72.186a4.45,4.45,0,0,1,4.449-4.449" transform="translate(-36.356 -23.449)" fill="#dfe1e8"/>
        <path id="Trazado_604679" data-name="Trazado 604679" d="M74.285,229.685h-.01c.04.017.046.019.01,0" transform="translate(-25.712 -79.511)" fill="#323657"/>
        <path id="Trazado_604680" data-name="Trazado 604680" d="M45.108,222.531H73.956a1.454,1.454,0,0,0,1.455-1.455v-.885a1.455,1.455,0,0,0-1.455-1.455H45.108a1.455,1.455,0,0,0-1.455,1.455v.885a1.454,1.454,0,0,0,1.455,1.455" transform="translate(-15.112 -75.721)" fill="#b5deff"/>
        <path id="Trazado_604681" data-name="Trazado 604681" d="M45.108,233H73.956a1.455,1.455,0,0,0,1.455-1.455v-.885a1.454,1.454,0,0,0-1.455-1.455H45.108a1.454,1.454,0,0,0-1.455,1.455v.885A1.455,1.455,0,0,0,45.108,233" transform="translate(-15.112 -79.346)" fill="#b5deff"/>
        <path id="Trazado_604682" data-name="Trazado 604682" d="M45.108,243.47H73.956a1.455,1.455,0,0,0,1.455-1.455v-.887a1.454,1.454,0,0,0-1.455-1.454H45.108a1.454,1.454,0,0,0-1.455,1.454v.887a1.455,1.455,0,0,0,1.455,1.455" transform="translate(-15.112 -82.97)" fill="#b5deff"/>
        <path id="Trazado_604683" data-name="Trazado 604683" d="M115.006,182.208h-6.891a2.71,2.71,0,0,1-2.709-2.71V158.2a2.71,2.71,0,0,1,2.709-2.71h6.891a2.711,2.711,0,0,1,2.71,2.71v21.3a2.71,2.71,0,0,1-2.71,2.71" transform="translate(-36.489 -53.827)" fill="#b5deff"/>
        <path id="Trazado_604684" data-name="Trazado 604684" d="M4.453,269.207a4.108,4.108,0,0,1,.532,1.407,6.723,6.723,0,0,0,.65,1.662,15.811,15.811,0,0,1,.79,2.771,12.731,12.731,0,0,0-.373,1.854c.063.4.293,1.2-.067,1.249s-.769-.6-.769-.6a.529.529,0,0,1-.271.51.893.893,0,0,1-.907.033s-.218.406-.493.461a1.118,1.118,0,0,1-.9-.122,1.093,1.093,0,0,1-.685.22.9.9,0,0,1-.76-.472s-.677.137-.874-.179a3.021,3.021,0,0,1-.244-.939,10.93,10.93,0,0,1,.858-4.735,4.2,4.2,0,0,0-.224-3.678Z" transform="translate(-0.019 -93)" fill="#eea886"/>
        <path id="Trazado_604685" data-name="Trazado 604685" d="M5.292,280.083s.06-2.321-.551-2.815-.68.344-.68.344.083-.828-.585-.94-.7.872-.7.872a.645.645,0,0,0-.81-.507c-.7.131-.534.945-.534.945s-.67-.8-1.1-.032a3.421,3.421,0,0,0-.026,2.826s.207.35.874.178a.922.922,0,0,0,1.445.253s1.022.562,1.395-.339a.846.846,0,0,0,1.272-.785" transform="translate(0 -95.774)" fill="#db9c7c"/>
        <path id="Trazado_604686" data-name="Trazado 604686" d="M12.386,215.508s-3.973,13.239-5.315,18.123c-.42,1.532-1.439,16.158-1.619,16.746s-5.219,1.4-5.219,1.4.611-18.3.668-19.3,5.559-21.432,7.16-22.16c1.2-.546,1.831-.095,3.342,1.027,2.12,1.574.983,4.163.983,4.163" transform="translate(-0.081 -72.727)" fill="#323657"/>
        <rect id="Rectángulo_47934" data-name="Rectángulo 47934" width="10.867" height="0.807" transform="translate(51.043 124.235) rotate(-33.201)" fill="#4da8f2"/>
        <path id="Trazado_604687" data-name="Trazado 604687" d="M90.594,184.676a2.382,2.382,0,0,1-.235.721s-.3.354-.494.619a2.274,2.274,0,0,0-.143.211,4.362,4.362,0,0,1-.751,1.167c-.433.439-2.12,1.837-2.12,1.837L85.408,188l-1.5-.673a28.293,28.293,0,0,1,1.2-4.107,1.352,1.352,0,0,1,.109-.124,5.472,5.472,0,0,1,.94-.647c.073-.061.845-.617,1.121-.545a.927.927,0,0,1,.693.578,2.225,2.225,0,0,1,1.028.662,1.38,1.38,0,0,1,.893.828s.677.269.707.7" transform="translate(-29.047 -62.97)" fill="#efaa88"/>
        <path id="Trazado_604688" data-name="Trazado 604688" d="M11.372,356.462s-.362,2.513-.407,2.891-4.028-.223-4.028-.223l-.322-2.992s4.26-.031,4.758.324" transform="translate(-2.29 -123.287)" fill="#424773"/>
        <path id="Trazado_604689" data-name="Trazado 604689" d="M10.677,360.477a10.753,10.753,0,0,0,2.481,2.175c1.221.66,3.14.921,3.86,1.6.522.494,1.9,2.617-3.171,2.574s-7.512.3-8.056-.514.786-6.01.786-6.01a10.732,10.732,0,0,0,4.1.171" transform="translate(-1.96 -124.729)" fill="#292c47"/>
        <path id="Trazado_604690" data-name="Trazado 604690" d="M55.018,356.462s-.362,2.513-.407,2.891-4.028-.223-4.028-.223l-.322-2.992s4.26-.031,4.758.324" transform="translate(-17.399 -123.287)" fill="#424773"/>
        <path id="Trazado_604691" data-name="Trazado 604691" d="M54.323,360.477a10.747,10.747,0,0,0,2.482,2.175c1.22.66,5.712,1.2,6.434,1.886.521.494,1.387,2.479-5.745,2.293-5.067-.132-7.513.3-8.056-.514s.785-6.01.785-6.01a9.743,9.743,0,0,0,4.1.171" transform="translate(-17.069 -124.729)" fill="#292c47"/>
        <path id="Trazado_604692" data-name="Trazado 604692" d="M14.34,257.86s-3.742,5.946-3.463,11.32S9.52,280.423,8.958,286.037c-.626,6.259-3.191,21.077-3.285,24.425s.4,14.04.4,14.04l5.134.116s4.312-25.9,5.429-28.548,6.655-21.487,6.841-23.6S14.34,257.86,14.34,257.86" transform="translate(-1.96 -89.265)" fill="#292c47"/>
        <path id="Trazado_604693" data-name="Trazado 604693" d="M37.637,258.123s2.82,14.731,3.193,18.02.62,15.919.806,17.975,1.739,26.841,2.234,29.958H37.307s-5.038-18.063-5.038-26.609-3.893-18.58-6.406-24.219-8.264-5.772-9.809-16.234c0,0,19.492-2.208,21.583,1.11" transform="translate(-5.558 -88.723)" fill="#292c47"/>
        <path id="Trazado_604694" data-name="Trazado 604694" d="M26.822,181.161s5.023-1.876,7.339,1.948,2.093,11.478-.439,12.419-6.336.449-7.632-1.943-2.466-5.852-2.41-8.163a5.036,5.036,0,0,1,3.142-4.261" transform="translate(-8.197 -62.554)" fill="#eea886"/>
        <path id="Trazado_604695" data-name="Trazado 604695" d="M33.934,201.122a4.33,4.33,0,0,0,.137,2.024c.345.668-6.508.685-6.508.685a45.229,45.229,0,0,0-1.61-6.7c-1.055-3.07,7.982,3.995,7.982,3.995" transform="translate(-8.955 -67.973)" fill="#eea886"/>
        <path id="Trazado_604696" data-name="Trazado 604696" d="M24.973,191.4s.473.781,2.4.479,4.286-2.872,5.093-3.155.814-.755.814-.755l.5.738.856.054s-.781-2.3.4-3.234-1.223-7.438-7.414-5.274c0,0-4.756,1.311-4.583,4.015s.866,5.786,1.93,7.133" transform="translate(-7.975 -62.248)" fill="#d88a51"/>
        <path id="Trazado_604697" data-name="Trazado 604697" d="M34.961,205.626s-.022-1.276-.6-1.4-6.387-.681-7.1-.4v1.487s1.368.843,7.7.314" transform="translate(-9.438 -70.533)" fill="#e2d2ca"/>
        <path id="Trazado_604698" data-name="Trazado 604698" d="M37.556,190.263c-.108-.454-1.262-1.75-1.7-.362s.667,3.255,1.285,3.1.692-1.583.418-2.733" transform="translate(-12.376 -65.523)" fill="#eea886"/>
        <path id="Trazado_604699" data-name="Trazado 604699" d="M38.831,202.548c-3.982-.525-9.607-1.933-9.607-1.933l-7.7-.313s-7.065,1.555-9.846,2.811c-.263.12-.265,6.3-.989,7.923L13,215.9s1.332,9.639,1.609,13.926c.127,1.967-2.748,18.453-2.748,18.453a53.123,53.123,0,0,0,8.334,1.486c5.252.579,18.378-.209,18.46-.83s-2.541-23.1-2.658-24.267c-.178-1.787.616-11.282.616-11.282,1.213-.941,11.862-5.884,14.767-8.46.778-.69,4.059-3.885,4.993-4.988a89.829,89.829,0,0,0,6.341-7.979c.374-.411-3.589-2.566-3.948-2.686-.315-.105-4.78,5.68-6.5,7.542a48.021,48.021,0,0,1-3.952,3.148s-6.991,2.725-9.481,2.582" transform="translate(-3.701 -65.522)" fill="#323657"/>
        <path id="Trazado_604700" data-name="Trazado 604700" d="M24.759,182.1s-6.4.5-.2,10.1Z" transform="translate(-7.565 -63.037)" fill="#d88a51"/>
        <path id="Trazado_604701" data-name="Trazado 604701" d="M92.417,181.52l.526-.8-.968.126Z" transform="translate(-31.84 -62.56)" fill="#dfe1e8"/>
      </g>
    </g>
  </g>
</svg>
