<svg xmlns="http://www.w3.org/2000/svg" xmlns:xlink="http://www.w3.org/1999/xlink" width="1329.207" height="371" viewBox="0 0 1329.207 371">
  <defs>
    <linearGradient id="linear-gradient" x1="0.5" x2="0.5" y2="1" gradientUnits="objectBoundingBox">
      <stop offset="0" stop-color="#fff"/>
      <stop offset="0.1" stop-color="#ebfaf7"/>
      <stop offset="0.895" stop-color="#ebfaf7"/>
      <stop offset="1" stop-color="#fff"/>
    </linearGradient>
  </defs>
  <g id="Grupo_162087" data-name="Grupo 162087" transform="translate(-134.793 -5009.036)">
    <rect id="Rect치ngulo_47274" data-name="Rect치ngulo 47274" width="1328" height="371" transform="translate(1464 5380.036) rotate(180)" fill="url(#linear-gradient)"/>
    <path id="Sustracci칩n_6" data-name="Sustracci칩n 6" d="M0,260.979H0v-3.662l114.6-30.709L149.051,98.053,54.945,3.95,0,18.671V15.006L56,0l97,97-.265.988L117.5,229.5l-.989.265L0,260.979H0Z" transform="translate(136 5028.001)" fill="#fff" stroke="rgba(0,0,0,0)" stroke-miterlimit="10" stroke-width="1"/>
    <path id="Trazado_603162" data-name="Trazado 603162" d="M2.221,93.867,21.587,21.588,93.867,2.221,146.78,55.133l-19.368,72.28L55.132,146.78ZM94.462,0,20.518,19.814l-.555.149L0,94.463,54.537,149l73.944-19.813.555-.149,19.815-73.946.149-.555Z" transform="translate(180 5168.178)" fill="#fff"/>
    <path id="Trazado_603163" data-name="Trazado 603163" d="M2.221,93.867,21.587,21.588,93.867,2.221,146.78,55.133l-19.368,72.28L55.132,146.78ZM94.462,0,20.518,19.814l-.555.149L0,94.463,54.537,149l73.944-19.813.555-.149,19.815-73.946.149-.555Z" transform="translate(1282 5136.392)" fill="#fff" opacity="0.94"/>
  </g>
</svg>
