<svg xmlns="http://www.w3.org/2000/svg" xmlns:xlink="http://www.w3.org/1999/xlink" width="1030" height="433" viewBox="0 0 1030 433">
  <defs>
    <clipPath id="clip-path">
      <rect id="Rectángulo_46628" data-name="Rectángulo 46628" width="18.266" height="23.916" fill="#144567"/>
    </clipPath>
    <clipPath id="clip-path-6">
      <rect id="Rectángulo_47787" data-name="Rectángulo 47787" width="610" height="185.395" fill="#91e8d6"/>
    </clipPath>
    <linearGradient id="linear-gradient" x1="0.5" y1="0.129" x2="0.5" y2="1.135" gradientUnits="objectBoundingBox">
      <stop offset="0" stop-color="#91e8d6"/>
      <stop offset="1" stop-color="#468794"/>
    </linearGradient>
    <clipPath id="clip-path-7">
      <rect id="Rectángulo_47788" data-name="Rectángulo 47788" width="43.609" height="48.833" fill="#144567"/>
    </clipPath>
    <clipPath id="clip-path-8">
      <rect id="Rectángulo_47789" data-name="Rectángulo 47789" width="54.031" height="53.853" transform="translate(0 0)" fill="#144567"/>
    </clipPath>
    <clipPath id="clip-path-9">
      <rect id="Rectángulo_47790" data-name="Rectángulo 47790" width="53.091" height="53.102" fill="#144567"/>
    </clipPath>
    <clipPath id="clip-path-10">
      <rect id="Rectángulo_47791" data-name="Rectángulo 47791" width="55.036" height="53.904" fill="#144567"/>
    </clipPath>
    <clipPath id="clip-path-11">
      <rect id="Rectángulo_47792" data-name="Rectángulo 47792" width="54.268" height="54.266" fill="#144567"/>
    </clipPath>
  </defs>
  <g id="Grupo_161747" data-name="Grupo 161747" transform="translate(-285 -5725)">
    <path id="Rectángulo_47374" data-name="Rectángulo 47374" d="M0,0H526a0,0,0,0,1,0,0V29a26,26,0,0,1-26,26H23A23,23,0,0,1,0,32V0A0,0,0,0,1,0,0Z" transform="translate(537 5725)" fill="#91e8d6"/>
    <path id="Trazado_606875" data-name="Trazado 606875" d="M1.079,18V5.914H5.313a5.559,5.559,0,0,1,3.337.843A2.881,2.881,0,0,1,9.787,9.226a2.731,2.731,0,0,1-.457,1.565,2.637,2.637,0,0,1-1.27.992,2.551,2.551,0,0,1,1.465.938,2.773,2.773,0,0,1,.535,1.727,3.19,3.19,0,0,1-1.112,2.64A5.007,5.007,0,0,1,5.777,18Zm2.49-5.263V16H5.7a2.059,2.059,0,0,0,1.374-.419,1.437,1.437,0,0,0,.494-1.158,1.518,1.518,0,0,0-1.718-1.685Zm0-1.76H5.412Q7.3,10.944,7.3,9.475a1.388,1.388,0,0,0-.477-1.183,2.51,2.51,0,0,0-1.507-.361H3.569ZM15.9,18.166a4.409,4.409,0,0,1-3.217-1.212,4.308,4.308,0,0,1-1.241-3.229v-.232a5.426,5.426,0,0,1,.523-2.42,3.838,3.838,0,0,1,1.482-1.644,4.159,4.159,0,0,1,2.187-.577,3.727,3.727,0,0,1,2.9,1.162,4.722,4.722,0,0,1,1.058,3.3v.979H13.879a2.229,2.229,0,0,0,.7,1.411,2.12,2.12,0,0,0,1.482.531,2.589,2.589,0,0,0,2.167-1l1.179,1.32a3.6,3.6,0,0,1-1.461,1.191A4.793,4.793,0,0,1,15.9,18.166Zm-.274-7.379a1.5,1.5,0,0,0-1.158.484,2.5,2.5,0,0,0-.569,1.384h3.337v-.192a1.786,1.786,0,0,0-.432-1.238A1.547,1.547,0,0,0,15.63,10.787Zm7.537-1.768.075,1.038a3.136,3.136,0,0,1,2.582-1.2,2.606,2.606,0,0,1,2.125.838,3.912,3.912,0,0,1,.714,2.507V18h-2.4V12.256a1.556,1.556,0,0,0-.332-1.108,1.486,1.486,0,0,0-1.1-.344,1.65,1.65,0,0,0-1.519.863V18h-2.4V9.019Zm11.447,9.147A4.409,4.409,0,0,1,31.4,16.954a4.308,4.308,0,0,1-1.241-3.229v-.232a5.426,5.426,0,0,1,.523-2.42,3.838,3.838,0,0,1,1.482-1.644,4.159,4.159,0,0,1,2.187-.577,3.727,3.727,0,0,1,2.9,1.162,4.722,4.722,0,0,1,1.058,3.3v.979H32.589a2.229,2.229,0,0,0,.7,1.411,2.12,2.12,0,0,0,1.482.531,2.589,2.589,0,0,0,2.167-1l1.179,1.32a3.6,3.6,0,0,1-1.461,1.191A4.793,4.793,0,0,1,34.614,18.166Zm-.274-7.379a1.5,1.5,0,0,0-1.158.484,2.5,2.5,0,0,0-.569,1.384h3.337v-.192a1.786,1.786,0,0,0-.432-1.238A1.547,1.547,0,0,0,34.34,10.787ZM40.25,18V10.778H38.914V9.019H40.25V8.6a3.368,3.368,0,0,1,1.042-2.611,4.191,4.191,0,0,1,2.893-.917,9.6,9.6,0,0,1,2.723.49l-.349,1.984A10.623,10.623,0,0,0,45.3,7.238a6.2,6.2,0,0,0-.963-.071q-1.677,0-1.677,1.486v.365h1.768v1.76H42.658V18Zm7.778,0H45.621V9.019h2.407Zm5.719-1.768a1.573,1.573,0,0,0,1.079-.365,1.28,1.28,0,0,0,.432-.971h2.25a3.077,3.077,0,0,1-.5,1.673,3.286,3.286,0,0,1-1.341,1.179,4.2,4.2,0,0,1-1.88.419,3.9,3.9,0,0,1-3.038-1.224,4.845,4.845,0,0,1-1.112-3.383V13.4a4.79,4.79,0,0,1,1.1-3.312,3.854,3.854,0,0,1,3.03-1.237,3.778,3.778,0,0,1,2.7.959,3.4,3.4,0,0,1,1.033,2.552h-2.25a1.648,1.648,0,0,0-.432-1.139,1.6,1.6,0,0,0-2.362.173,3.541,3.541,0,0,0-.427,1.983v.249a3.586,3.586,0,0,0,.423,2A1.463,1.463,0,0,0,53.748,16.232ZM61.409,18H59V9.019h2.407ZM58.861,6.694a1.181,1.181,0,0,1,.361-.888,1.556,1.556,0,0,1,1.963,0,1.175,1.175,0,0,1,.365.888,1.178,1.178,0,0,1-.369.9,1.539,1.539,0,0,1-1.951,0A1.178,1.178,0,0,1,58.861,6.694Zm4.15,6.732a5.327,5.327,0,0,1,.515-2.382,3.768,3.768,0,0,1,1.482-1.619,4.323,4.323,0,0,1,2.245-.573A4.09,4.09,0,0,1,70.22,9.965,4.464,4.464,0,0,1,71.5,12.986l.017.614a4.694,4.694,0,0,1-1.154,3.316,4.472,4.472,0,0,1-6.2,0,4.777,4.777,0,0,1-1.158-3.387Zm2.4.17a3.357,3.357,0,0,0,.481,1.958,1.73,1.73,0,0,0,2.739.008,3.674,3.674,0,0,0,.49-2.141,3.324,3.324,0,0,0-.49-1.945,1.592,1.592,0,0,0-1.378-.69,1.566,1.566,0,0,0-1.361.686A3.736,3.736,0,0,0,65.41,13.6ZM79.762,18H77.355V9.019h2.407ZM77.214,6.694a1.181,1.181,0,0,1,.361-.888,1.556,1.556,0,0,1,1.963,0,1.175,1.175,0,0,1,.365.888,1.178,1.178,0,0,1-.369.9,1.539,1.539,0,0,1-1.951,0A1.178,1.178,0,0,1,77.214,6.694Zm6.773,2.324.075,1a3.156,3.156,0,0,1,2.582-1.17,2.4,2.4,0,0,1,2.382,1.37,3.084,3.084,0,0,1,2.7-1.37A2.679,2.679,0,0,1,93.9,9.7a3.911,3.911,0,0,1,.714,2.561V18H92.205V12.272a1.71,1.71,0,0,0-.3-1.116,1.324,1.324,0,0,0-1.054-.353,1.5,1.5,0,0,0-1.494,1.029L89.366,18h-2.4V12.281a1.689,1.689,0,0,0-.307-1.129,1.337,1.337,0,0,0-1.046-.349,1.555,1.555,0,0,0-1.478.847V18h-2.4V9.019Zm20.553,4.574a5.387,5.387,0,0,1-.942,3.324,3.021,3.021,0,0,1-2.544,1.249,2.8,2.8,0,0,1-2.2-.946v4.233h-2.4V9.019H98.68l.083.88a2.819,2.819,0,0,1,2.274-1.046,3.041,3.041,0,0,1,2.582,1.229,5.532,5.532,0,0,1,.921,3.387Zm-2.4-.174a3.535,3.535,0,0,0-.444-1.934,1.446,1.446,0,0,0-1.291-.681,1.571,1.571,0,0,0-1.552.863v3.677a1.6,1.6,0,0,0,1.569.888Q102.141,16.232,102.141,13.418ZM108.558,18H106.15V5.25h2.407Zm6.109.166a4.409,4.409,0,0,1-3.217-1.212,4.308,4.308,0,0,1-1.241-3.229v-.232a5.426,5.426,0,0,1,.523-2.42,3.838,3.838,0,0,1,1.482-1.644,4.159,4.159,0,0,1,2.187-.577,3.727,3.727,0,0,1,2.9,1.162,4.722,4.722,0,0,1,1.058,3.3v.979h-5.719a2.229,2.229,0,0,0,.7,1.411,2.12,2.12,0,0,0,1.482.531,2.589,2.589,0,0,0,2.167-1l1.179,1.32a3.6,3.6,0,0,1-1.461,1.191A4.793,4.793,0,0,1,114.667,18.166Zm-.274-7.379a1.5,1.5,0,0,0-1.158.484,2.5,2.5,0,0,0-.569,1.384H116v-.192a1.786,1.786,0,0,0-.432-1.238A1.547,1.547,0,0,0,114.393,10.787Zm7.579-1.768.075,1a3.156,3.156,0,0,1,2.582-1.17,2.4,2.4,0,0,1,2.382,1.37,3.084,3.084,0,0,1,2.7-1.37,2.679,2.679,0,0,1,2.175.851,3.911,3.911,0,0,1,.714,2.561V18h-2.407V12.272a1.71,1.71,0,0,0-.3-1.116,1.324,1.324,0,0,0-1.054-.353,1.5,1.5,0,0,0-1.494,1.029L127.351,18h-2.4V12.281a1.689,1.689,0,0,0-.307-1.129A1.337,1.337,0,0,0,123.6,10.8a1.555,1.555,0,0,0-1.478.847V18h-2.4V9.019Zm16.6,9.147a4.409,4.409,0,0,1-3.217-1.212,4.308,4.308,0,0,1-1.241-3.229v-.232a5.426,5.426,0,0,1,.523-2.42,3.838,3.838,0,0,1,1.482-1.644,4.159,4.159,0,0,1,2.187-.577,3.727,3.727,0,0,1,2.9,1.162,4.722,4.722,0,0,1,1.058,3.3v.979h-5.719a2.228,2.228,0,0,0,.7,1.411,2.12,2.12,0,0,0,1.482.531,2.589,2.589,0,0,0,2.167-1l1.179,1.32a3.6,3.6,0,0,1-1.461,1.191A4.793,4.793,0,0,1,138.573,18.166Zm-.274-7.379a1.5,1.5,0,0,0-1.158.484,2.5,2.5,0,0,0-.569,1.384h3.337v-.192a1.786,1.786,0,0,0-.432-1.238A1.547,1.547,0,0,0,138.3,10.787Zm7.537-1.768.075,1.038a3.136,3.136,0,0,1,2.582-1.2,2.606,2.606,0,0,1,2.125.838,3.912,3.912,0,0,1,.714,2.507V18h-2.4V12.256a1.556,1.556,0,0,0-.332-1.108,1.486,1.486,0,0,0-1.1-.344,1.65,1.65,0,0,0-1.519.863V18h-2.4V9.019Zm10.185-2.208V9.019h1.536v1.76h-1.536v4.482a1.07,1.07,0,0,0,.191.714.959.959,0,0,0,.73.216,3.826,3.826,0,0,0,.706-.058V17.95a4.939,4.939,0,0,1-1.453.216,2.29,2.29,0,0,1-2.573-2.548V10.778h-1.312V9.019h1.312V6.811ZM164.1,18a2.664,2.664,0,0,1-.241-.805,2.9,2.9,0,0,1-2.266.971A3.189,3.189,0,0,1,159.4,17.4a2.456,2.456,0,0,1-.867-1.926,2.538,2.538,0,0,1,1.058-2.191,5.222,5.222,0,0,1,3.059-.772h1.1V12a1.48,1.48,0,0,0-.32-1,1.257,1.257,0,0,0-1.009-.374,1.429,1.429,0,0,0-.95.291.987.987,0,0,0-.344.8h-2.4a2.41,2.41,0,0,1,.481-1.444,3.182,3.182,0,0,1,1.361-1.042,4.961,4.961,0,0,1,1.976-.378,3.92,3.92,0,0,1,2.635.834,2.918,2.918,0,0,1,.975,2.345v3.893a4.294,4.294,0,0,0,.357,1.934V18Zm-1.984-1.668a2.066,2.066,0,0,0,.979-.237,1.554,1.554,0,0,0,.664-.635V13.916h-.9q-1.8,0-1.917,1.245l-.008.141a.96.96,0,0,0,.315.739A1.225,1.225,0,0,0,162.114,16.332Zm9.629-.1a1.573,1.573,0,0,0,1.079-.365,1.28,1.28,0,0,0,.432-.971h2.25a3.077,3.077,0,0,1-.5,1.673,3.286,3.286,0,0,1-1.341,1.179,4.2,4.2,0,0,1-1.88.419,3.9,3.9,0,0,1-3.038-1.224,4.845,4.845,0,0,1-1.112-3.383V13.4a4.79,4.79,0,0,1,1.1-3.312,3.854,3.854,0,0,1,3.03-1.237,3.778,3.778,0,0,1,2.7.959,3.4,3.4,0,0,1,1.033,2.552h-2.25a1.648,1.648,0,0,0-.432-1.139,1.6,1.6,0,0,0-2.362.173,3.541,3.541,0,0,0-.427,1.983v.249a3.586,3.586,0,0,0,.423,2A1.463,1.463,0,0,0,171.743,16.232ZM179.4,18H177V9.019H179.4ZM176.856,6.694a1.181,1.181,0,0,1,.361-.888,1.556,1.556,0,0,1,1.963,0,1.175,1.175,0,0,1,.365.888,1.178,1.178,0,0,1-.369.9,1.539,1.539,0,0,1-1.951,0A1.178,1.178,0,0,1,176.856,6.694Zm4.15,6.732a5.327,5.327,0,0,1,.515-2.382A3.767,3.767,0,0,1,183,9.425a4.323,4.323,0,0,1,2.245-.573,4.09,4.09,0,0,1,2.968,1.112,4.464,4.464,0,0,1,1.282,3.021l.017.614a4.694,4.694,0,0,1-1.154,3.316,4.472,4.472,0,0,1-6.2,0,4.777,4.777,0,0,1-1.158-3.387Zm2.4.17a3.357,3.357,0,0,0,.481,1.958,1.73,1.73,0,0,0,2.739.008,3.674,3.674,0,0,0,.49-2.141,3.324,3.324,0,0,0-.49-1.945,1.592,1.592,0,0,0-1.378-.69,1.566,1.566,0,0,0-1.361.686A3.735,3.735,0,0,0,183.406,13.6Zm2.316-8.347h2.615l-2.3,2.573h-1.951ZM193.2,9.019l.075,1.038a3.136,3.136,0,0,1,2.582-1.2,2.606,2.606,0,0,1,2.125.838A3.912,3.912,0,0,1,198.7,12.2V18h-2.4V12.256a1.556,1.556,0,0,0-.332-1.108,1.486,1.486,0,0,0-1.1-.344,1.65,1.65,0,0,0-1.519.863V18h-2.4V9.019Zm15.854,6.45q.133-.664-.921-.963l-.755-.191q-2.681-.739-2.606-2.606A2.579,2.579,0,0,1,205.9,9.637a4.188,4.188,0,0,1,2.611-.784,3.757,3.757,0,0,1,2.457.805,2.653,2.653,0,0,1,.955,2.1l-2.324-.008a1.024,1.024,0,0,0-1.146-1.17,1.648,1.648,0,0,0-.95.274,1.128,1.128,0,0,0-.494.739q-.125.664,1,.938l.332.075a6.678,6.678,0,0,1,1.751.627,2.643,2.643,0,0,1,.934.876,2.167,2.167,0,0,1,.3,1.253,2.392,2.392,0,0,1-.552,1.494,3.379,3.379,0,0,1-1.444.988,5.032,5.032,0,0,1-1.93.324,3.791,3.791,0,0,1-2.49-.859,2.77,2.77,0,0,1-1.013-2.179l2.208.017a1.214,1.214,0,0,0,1.378,1.3,1.96,1.96,0,0,0,1.067-.266A1.049,1.049,0,0,0,209.055,15.468Zm8.492-6.616a3.6,3.6,0,0,1,2.046.61,3.436,3.436,0,0,1,1.262,1.635,5.059,5.059,0,0,1,.286,2.312,5.465,5.465,0,0,1-1.49,3.466,4.207,4.207,0,0,1-3.208,1.291,3.592,3.592,0,0,1-2.025-.6,3.423,3.423,0,0,1-1.262-1.623,4.948,4.948,0,0,1-.291-2.291,5.626,5.626,0,0,1,1.511-3.536A4.12,4.12,0,0,1,217.547,8.853ZM215.181,14.5a2.072,2.072,0,0,0,.374,1.256,1.241,1.241,0,0,0,1,.477,1.819,1.819,0,0,0,1.693-.99,4.937,4.937,0,0,0,.573-2.69,2.254,2.254,0,0,0-.386-1.272,1.221,1.221,0,0,0-1.009-.493,1.822,1.822,0,0,0-1.673.982A4.886,4.886,0,0,0,215.181,14.5Zm7.263,3.5,1.253-7.23H222.4l.307-1.751L224,9.01l.116-.9a3.54,3.54,0,0,1,1.17-2.254,3.542,3.542,0,0,1,2.432-.8,7.788,7.788,0,0,1,1.27.174l-.208,1.86a2.9,2.9,0,0,0-.689-.1,1.716,1.716,0,0,0-1.067.317,1.44,1.44,0,0,0-.552.975l-.125.733h1.735l-.307,1.751h-1.727L224.8,18Zm10.11-11.189-.39,2.208h1.494l-.307,1.76h-1.494l-.764,4.5a1.144,1.144,0,0,0,.066.647q.116.224.564.241.133.008.714-.042l-.166,1.834a3.937,3.937,0,0,1-1.345.191,2.11,2.11,0,0,1-1.718-.722,2.609,2.609,0,0,1-.465-1.909l.772-4.74h-1.27l.307-1.76h1.27l.382-2.208Zm9.015,7.919L243.7,9.019h2.333L242.258,18H240.3l-.664-5.62L237.012,18h-1.959l-.664-8.981h2.191l.141,5.653,2.565-5.653h1.693ZM250.858,18a2.423,2.423,0,0,1-.091-.813,3.042,3.042,0,0,1-2.291.979,2.756,2.756,0,0,1-1.955-.768,2.323,2.323,0,0,1-.726-1.855,2.685,2.685,0,0,1,1.233-2.254,5.6,5.6,0,0,1,3.15-.784l1.1.017.116-.54a1.874,1.874,0,0,0,.025-.523.9.9,0,0,0-.295-.61,1.015,1.015,0,0,0-.668-.228,1.43,1.43,0,0,0-.93.27,1.308,1.308,0,0,0-.49.826l-2.349.008a2.611,2.611,0,0,1,1.183-2.088,4.581,4.581,0,0,1,2.777-.784,3.312,3.312,0,0,1,2.391.909,2.659,2.659,0,0,1,.722,2.254l-.689,4.3-.042.531a2.563,2.563,0,0,0,.141,1l-.008.158Zm-1.8-1.652a2.144,2.144,0,0,0,1.768-.88l.291-1.552-.813-.008a2.273,2.273,0,0,0-1.868.789,1.373,1.373,0,0,0-.257.672.8.8,0,0,0,.187.71A.946.946,0,0,0,249.057,16.348Zm11.679-5.08a4.833,4.833,0,0,0-.789-.083,2.269,2.269,0,0,0-1.984.938L256.926,18h-2.341l1.561-8.981,2.2-.008-.216,1.1a2.47,2.47,0,0,1,2.092-1.27,3.415,3.415,0,0,1,.813.116Zm4.217,6.9a3.907,3.907,0,0,1-2.088-.577,3.5,3.5,0,0,1-1.357-1.561,4.349,4.349,0,0,1-.349-2.187l.025-.332a5.806,5.806,0,0,1,.764-2.407,4.613,4.613,0,0,1,1.644-1.689,4.066,4.066,0,0,1,2.225-.56,3.107,3.107,0,0,1,2.627,1.276,4.374,4.374,0,0,1,.677,3.147l-.133,1.023h-5.5a1.927,1.927,0,0,0,.423,1.395,1.616,1.616,0,0,0,1.245.54,2.872,2.872,0,0,0,2.241-1l1.071,1.328A3.331,3.331,0,0,1,267,17.755,4.777,4.777,0,0,1,264.953,18.166Zm.747-7.379a1.663,1.663,0,0,0-1.15.407,3.573,3.573,0,0,0-.9,1.469h3.221l.05-.216a2.2,2.2,0,0,0,.008-.631,1.2,1.2,0,0,0-.407-.751A1.275,1.275,0,0,0,265.7,10.787Zm13.937,4.731a.773.773,0,0,0-.436-.693,4.95,4.95,0,0,0-1.4-.452q-3.2-.672-3.2-2.723a2.468,2.468,0,0,1,.992-2,4,4,0,0,1,2.594-.8,4.307,4.307,0,0,1,2.735.805,2.537,2.537,0,0,1,1.025,2.092h-2.4a1.161,1.161,0,0,0-.332-.851,1.405,1.405,0,0,0-1.038-.336,1.436,1.436,0,0,0-.938.274.865.865,0,0,0-.332.7.739.739,0,0,0,.378.643,3.885,3.885,0,0,0,1.274.423,10.407,10.407,0,0,1,1.511.4,2.482,2.482,0,0,1,1.9,2.416,2.343,2.343,0,0,1-1.054,1.988,4.548,4.548,0,0,1-2.723.76,4.75,4.75,0,0,1-2-.4,3.363,3.363,0,0,1-1.374-1.1,2.565,2.565,0,0,1-.5-1.515h2.274a1.252,1.252,0,0,0,.473.979,1.877,1.877,0,0,0,1.179.34,1.737,1.737,0,0,0,1.042-.261A.814.814,0,0,0,279.637,15.518Zm8.01,2.648a4.409,4.409,0,0,1-3.217-1.212,4.308,4.308,0,0,1-1.241-3.229v-.232a5.426,5.426,0,0,1,.523-2.42,3.838,3.838,0,0,1,1.482-1.644,4.159,4.159,0,0,1,2.187-.577,3.727,3.727,0,0,1,2.9,1.162,4.722,4.722,0,0,1,1.058,3.3v.979h-5.719a2.229,2.229,0,0,0,.7,1.411,2.12,2.12,0,0,0,1.482.531,2.589,2.589,0,0,0,2.167-1l1.179,1.32a3.6,3.6,0,0,1-1.461,1.191A4.793,4.793,0,0,1,287.647,18.166Zm-.274-7.379a1.5,1.5,0,0,0-1.158.484,2.5,2.5,0,0,0-.569,1.384h3.337v-.192a1.786,1.786,0,0,0-.432-1.238A1.547,1.547,0,0,0,287.373,10.787Zm10.376.481a6.517,6.517,0,0,0-.863-.066,1.757,1.757,0,0,0-1.785.921V18h-2.4V9.019h2.266l.066,1.071a2.223,2.223,0,0,1,2-1.237,2.514,2.514,0,0,1,.747.108Zm4.665,3.8,1.668-6.051h2.507L303.56,18h-2.291l-3.03-8.981h2.507ZM310.175,18h-2.407V9.019h2.407ZM307.627,6.694a1.181,1.181,0,0,1,.361-.888,1.556,1.556,0,0,1,1.963,0,1.174,1.174,0,0,1,.365.888,1.178,1.178,0,0,1-.369.9,1.539,1.539,0,0,1-1.951,0A1.178,1.178,0,0,1,307.627,6.694Zm8.259,9.538a1.573,1.573,0,0,0,1.079-.365,1.28,1.28,0,0,0,.432-.971h2.25a3.077,3.077,0,0,1-.5,1.673,3.286,3.286,0,0,1-1.341,1.179,4.2,4.2,0,0,1-1.88.419,3.9,3.9,0,0,1-3.038-1.224,4.845,4.845,0,0,1-1.112-3.383V13.4a4.79,4.79,0,0,1,1.1-3.312,3.854,3.854,0,0,1,3.03-1.237,3.778,3.778,0,0,1,2.7.959,3.4,3.4,0,0,1,1.033,2.552H317.4a1.648,1.648,0,0,0-.432-1.139,1.6,1.6,0,0,0-2.362.173,3.541,3.541,0,0,0-.427,1.983v.249a3.586,3.586,0,0,0,.423,2A1.463,1.463,0,0,0,315.886,16.232ZM323.548,18h-2.407V9.019h2.407ZM321,6.694a1.181,1.181,0,0,1,.361-.888,1.556,1.556,0,0,1,1.963,0,1.174,1.174,0,0,1,.365.888,1.178,1.178,0,0,1-.369.9,1.539,1.539,0,0,1-1.951,0A1.178,1.178,0,0,1,321,6.694Zm4.15,6.732a5.326,5.326,0,0,1,.515-2.382,3.768,3.768,0,0,1,1.482-1.619,4.323,4.323,0,0,1,2.245-.573,4.09,4.09,0,0,1,2.968,1.112,4.464,4.464,0,0,1,1.282,3.021l.017.614a4.694,4.694,0,0,1-1.154,3.316,4.472,4.472,0,0,1-6.2,0,4.777,4.777,0,0,1-1.158-3.387Zm2.4.17a3.357,3.357,0,0,0,.481,1.958,1.73,1.73,0,0,0,2.739.008,3.673,3.673,0,0,0,.49-2.141,3.324,3.324,0,0,0-.49-1.945,1.592,1.592,0,0,0-1.378-.69,1.566,1.566,0,0,0-1.361.686A3.736,3.736,0,0,0,327.549,13.6ZM344.574,18a2.664,2.664,0,0,1-.241-.805,2.9,2.9,0,0,1-2.266.971,3.189,3.189,0,0,1-2.187-.764,2.456,2.456,0,0,1-.867-1.926,2.538,2.538,0,0,1,1.058-2.191,5.222,5.222,0,0,1,3.059-.772h1.1V12a1.48,1.48,0,0,0-.32-1,1.257,1.257,0,0,0-1.009-.374,1.429,1.429,0,0,0-.95.291.987.987,0,0,0-.344.8h-2.4a2.41,2.41,0,0,1,.481-1.444,3.182,3.182,0,0,1,1.361-1.042,4.961,4.961,0,0,1,1.976-.378,3.92,3.92,0,0,1,2.635.834,2.918,2.918,0,0,1,.975,2.345v3.893A4.294,4.294,0,0,0,347,17.859V18Zm-1.984-1.668a2.066,2.066,0,0,0,.979-.237,1.554,1.554,0,0,0,.664-.635V13.916h-.9q-1.8,0-1.917,1.245l-.008.141a.96.96,0,0,0,.315.739A1.225,1.225,0,0,0,342.59,16.332ZM351.015,18h-2.407V5.25h2.407Zm9.944-1.768a1.573,1.573,0,0,0,1.079-.365,1.28,1.28,0,0,0,.432-.971h2.25a3.077,3.077,0,0,1-.5,1.673,3.286,3.286,0,0,1-1.341,1.179,4.2,4.2,0,0,1-1.88.419,3.9,3.9,0,0,1-3.038-1.224,4.845,4.845,0,0,1-1.112-3.383V13.4a4.79,4.79,0,0,1,1.1-3.312,3.854,3.854,0,0,1,3.03-1.237,3.778,3.778,0,0,1,2.7.959,3.4,3.4,0,0,1,1.033,2.552h-2.25a1.648,1.648,0,0,0-.432-1.139,1.6,1.6,0,0,0-2.362.173,3.541,3.541,0,0,0-.427,1.983v.249a3.586,3.586,0,0,0,.423,2A1.463,1.463,0,0,0,360.959,16.232ZM368.621,18h-2.407V5.25h2.407Zm4.507,0h-2.407V9.019h2.407ZM370.58,6.694a1.181,1.181,0,0,1,.361-.888,1.556,1.556,0,0,1,1.963,0,1.174,1.174,0,0,1,.365.888,1.178,1.178,0,0,1-.369.9,1.539,1.539,0,0,1-1.951,0A1.178,1.178,0,0,1,370.58,6.694Zm8.658,11.472a4.409,4.409,0,0,1-3.217-1.212,4.308,4.308,0,0,1-1.241-3.229v-.232a5.426,5.426,0,0,1,.523-2.42,3.838,3.838,0,0,1,1.482-1.644,4.159,4.159,0,0,1,2.187-.577,3.727,3.727,0,0,1,2.9,1.162,4.722,4.722,0,0,1,1.058,3.3v.979h-5.719a2.229,2.229,0,0,0,.7,1.411,2.12,2.12,0,0,0,1.482.531,2.589,2.589,0,0,0,2.167-1l1.179,1.32a3.6,3.6,0,0,1-1.461,1.191A4.793,4.793,0,0,1,379.238,18.166Zm-.274-7.379a1.5,1.5,0,0,0-1.158.484,2.5,2.5,0,0,0-.569,1.384h3.337v-.192a1.786,1.786,0,0,0-.432-1.238A1.547,1.547,0,0,0,378.964,10.787ZM386.5,9.019l.075,1.038a3.136,3.136,0,0,1,2.582-1.2,2.606,2.606,0,0,1,2.125.838A3.912,3.912,0,0,1,392,12.2V18h-2.4V12.256a1.556,1.556,0,0,0-.332-1.108,1.486,1.486,0,0,0-1.1-.344,1.65,1.65,0,0,0-1.519.863V18h-2.4V9.019Zm10.185-2.208V9.019h1.536v1.76h-1.536v4.482a1.07,1.07,0,0,0,.191.714.959.959,0,0,0,.73.216,3.826,3.826,0,0,0,.706-.058V17.95a4.938,4.938,0,0,1-1.453.216,2.29,2.29,0,0,1-2.573-2.548V10.778h-1.312V9.019h1.312V6.811Zm7.006,11.355a4.409,4.409,0,0,1-3.217-1.212,4.308,4.308,0,0,1-1.241-3.229v-.232a5.426,5.426,0,0,1,.523-2.42,3.838,3.838,0,0,1,1.482-1.644,4.159,4.159,0,0,1,2.187-.577,3.727,3.727,0,0,1,2.9,1.162,4.722,4.722,0,0,1,1.058,3.3v.979h-5.719a2.229,2.229,0,0,0,.7,1.411,2.12,2.12,0,0,0,1.482.531,2.589,2.589,0,0,0,2.167-1l1.179,1.32a3.6,3.6,0,0,1-1.461,1.191A4.793,4.793,0,0,1,403.692,18.166Zm-.274-7.379a1.5,1.5,0,0,0-1.158.484,2.5,2.5,0,0,0-.569,1.384h3.337v-.192a1.786,1.786,0,0,0-.432-1.238A1.547,1.547,0,0,0,403.418,10.787Z" transform="translate(594 5742)" fill="#12263f"/>
    <rect id="Rectángulo_47375" data-name="Rectángulo 47375" width="820" height="4" transform="translate(390 5725)" fill="#66b9a8"/>
    <rect id="Rectángulo_47778" data-name="Rectángulo 47778" width="210" height="75" transform="translate(370 5824)" fill="#e2e8ec"/>
    <rect id="Rectángulo_47779" data-name="Rectángulo 47779" width="210" height="75" transform="translate(696 5803)" fill="#e2e8ec"/>
    <rect id="Rectángulo_47780" data-name="Rectángulo 47780" width="210" height="75" transform="translate(1020 5824)" fill="#e2e8ec"/>
    <rect id="Rectángulo_47781" data-name="Rectángulo 47781" width="210" height="75" transform="translate(906 6083)" fill="#e2e8ec"/>
    <rect id="Rectángulo_47782" data-name="Rectángulo 47782" width="210" height="75" transform="translate(486 6083)" fill="#e2e8ec"/>
    <path id="Trazado_606877" data-name="Trazado 606877" d="M8.077,12.837H3.013L1.876,16H.232L4.848,3.914H6.242L10.866,16H9.23Zm-4.582-1.3H7.6L5.545,5.881ZM13.92,16H12.385V3.25H13.92Zm3.9-8.981.042,1a3.317,3.317,0,0,1,2.665-1.162A2.568,2.568,0,0,1,23.093,8.3a3.4,3.4,0,0,1,1.166-1.046,3.445,3.445,0,0,1,1.7-.4q2.955,0,3,3.129V16H27.426V10.073a2.062,2.062,0,0,0-.44-1.44,1.937,1.937,0,0,0-1.478-.477,2.036,2.036,0,0,0-1.419.51,2.071,2.071,0,0,0-.656,1.374V16H21.889V10.115a1.713,1.713,0,0,0-1.917-1.959A2.055,2.055,0,0,0,17.9,9.442V16H16.369V7.019Zm19,8.981a3.226,3.226,0,0,1-.216-.946,3.426,3.426,0,0,1-2.557,1.112,3.17,3.17,0,0,1-2.179-.751,2.43,2.43,0,0,1-.851-1.905,2.539,2.539,0,0,1,1.067-2.179,5.029,5.029,0,0,1,3-.776h1.494V9.849A1.725,1.725,0,0,0,36.1,8.567a1.935,1.935,0,0,0-1.419-.477A2.239,2.239,0,0,0,33.3,8.5a1.223,1.223,0,0,0-.556,1H31.2a2.119,2.119,0,0,1,.477-1.3,3.258,3.258,0,0,1,1.295-.992,4.356,4.356,0,0,1,1.8-.365,3.551,3.551,0,0,1,2.432.776,2.8,2.8,0,0,1,.913,2.137V13.9a5.054,5.054,0,0,0,.315,1.967V16Zm-2.548-1.17a2.7,2.7,0,0,0,1.37-.374,2.259,2.259,0,0,0,.938-.971V11.642h-1.2q-2.822,0-2.822,1.652a1.4,1.4,0,0,0,.481,1.129A1.85,1.85,0,0,0,34.274,14.83Zm9.853.083a2.212,2.212,0,0,0,1.436-.5,1.752,1.752,0,0,0,.681-1.245H47.7a2.785,2.785,0,0,1-.531,1.469,3.5,3.5,0,0,1-1.307,1.112,3.772,3.772,0,0,1-1.731.415,3.7,3.7,0,0,1-2.918-1.224,4.877,4.877,0,0,1-1.083-3.349v-.257A5.407,5.407,0,0,1,40.607,9,3.667,3.667,0,0,1,41.99,7.417a3.926,3.926,0,0,1,2.129-.564,3.6,3.6,0,0,1,2.511.9A3.234,3.234,0,0,1,47.7,10.106H46.244a2.116,2.116,0,0,0-.66-1.432,2.053,2.053,0,0,0-1.465-.56,2.149,2.149,0,0,0-1.814.843,3.957,3.957,0,0,0-.643,2.436v.291a3.878,3.878,0,0,0,.639,2.391A2.16,2.16,0,0,0,44.127,14.913Zm9.023,1.253a3.924,3.924,0,0,1-2.972-1.2,4.452,4.452,0,0,1-1.146-3.208v-.282a5.39,5.39,0,0,1,.51-2.386,3.982,3.982,0,0,1,1.428-1.644,3.59,3.59,0,0,1,1.988-.594,3.364,3.364,0,0,1,2.723,1.154,5,5,0,0,1,.971,3.3v.639H50.568a3.193,3.193,0,0,0,.776,2.146,2.44,2.44,0,0,0,1.888.818,2.675,2.675,0,0,0,1.378-.332,3.462,3.462,0,0,0,.988-.88l.938.73A3.772,3.772,0,0,1,53.15,16.166Zm-.191-8.052a2.048,2.048,0,0,0-1.561.677,3.288,3.288,0,0,0-.78,1.9h4.5v-.116a2.925,2.925,0,0,0-.631-1.814A1.928,1.928,0,0,0,52.959,8.114Zm6.923-1.1.05,1.129a3.273,3.273,0,0,1,2.689-1.295q2.847,0,2.872,3.212V16H63.958V10.057a2.068,2.068,0,0,0-.444-1.436,1.78,1.78,0,0,0-1.357-.465,2.216,2.216,0,0,0-1.312.4,2.706,2.706,0,0,0-.88,1.046V16H58.429V7.019ZM73.354,16a3.226,3.226,0,0,1-.216-.946,3.426,3.426,0,0,1-2.557,1.112,3.17,3.17,0,0,1-2.179-.751,2.43,2.43,0,0,1-.851-1.905,2.539,2.539,0,0,1,1.067-2.179,5.029,5.029,0,0,1,3-.776h1.494V9.849a1.725,1.725,0,0,0-.481-1.282,1.935,1.935,0,0,0-1.419-.477,2.239,2.239,0,0,0-1.378.415,1.223,1.223,0,0,0-.556,1H67.734a2.119,2.119,0,0,1,.477-1.3,3.258,3.258,0,0,1,1.295-.992,4.356,4.356,0,0,1,1.8-.365,3.551,3.551,0,0,1,2.432.776,2.8,2.8,0,0,1,.913,2.137V13.9a5.054,5.054,0,0,0,.315,1.967V16Zm-2.548-1.17a2.7,2.7,0,0,0,1.37-.374,2.259,2.259,0,0,0,.938-.971V11.642h-1.2q-2.822,0-2.822,1.652a1.4,1.4,0,0,0,.481,1.129A1.85,1.85,0,0,0,70.806,14.83ZM78.5,7.019l.042,1a3.317,3.317,0,0,1,2.665-1.162A2.568,2.568,0,0,1,83.771,8.3a3.4,3.4,0,0,1,1.166-1.046,3.445,3.445,0,0,1,1.7-.4q2.955,0,3,3.129V16H88.1V10.073a2.062,2.062,0,0,0-.44-1.44,1.937,1.937,0,0,0-1.478-.477,2.036,2.036,0,0,0-1.419.51,2.071,2.071,0,0,0-.656,1.374V16H82.568V10.115A1.713,1.713,0,0,0,80.65,8.156a2.055,2.055,0,0,0-2.067,1.287V16H77.048V7.019ZM93.625,16H92.089V7.019h1.536ZM91.964,4.636a.917.917,0,0,1,.228-.631.857.857,0,0,1,.677-.257.87.87,0,0,1,.681.257.907.907,0,0,1,.232.631.877.877,0,0,1-.232.623.886.886,0,0,1-.681.249.872.872,0,0,1-.677-.249A.886.886,0,0,1,91.964,4.636Zm7.844,11.53a3.924,3.924,0,0,1-2.972-1.2,4.452,4.452,0,0,1-1.146-3.208v-.282A5.39,5.39,0,0,1,96.2,9.09,3.982,3.982,0,0,1,97.63,7.446a3.59,3.59,0,0,1,1.988-.594,3.364,3.364,0,0,1,2.723,1.154,5,5,0,0,1,.971,3.3v.639H97.227A3.193,3.193,0,0,0,98,14.095a2.44,2.44,0,0,0,1.888.818,2.675,2.675,0,0,0,1.378-.332,3.462,3.462,0,0,0,.988-.88l.938.73A3.772,3.772,0,0,1,99.809,16.166Zm-.191-8.052a2.048,2.048,0,0,0-1.561.677,3.288,3.288,0,0,0-.78,1.9h4.5v-.116a2.925,2.925,0,0,0-.631-1.814A1.928,1.928,0,0,0,99.618,8.114Zm6.923-1.1.05,1.129a3.273,3.273,0,0,1,2.689-1.295q2.847,0,2.872,3.212V16h-1.536V10.057a2.068,2.068,0,0,0-.444-1.436,1.78,1.78,0,0,0-1.357-.465,2.216,2.216,0,0,0-1.312.4,2.706,2.706,0,0,0-.88,1.046V16h-1.536V7.019Zm10.011-2.175V7.019h1.677V8.206h-1.677v5.577a1.247,1.247,0,0,0,.224.81.943.943,0,0,0,.764.27,3.718,3.718,0,0,0,.73-.1V16a4.478,4.478,0,0,1-1.179.165,1.912,1.912,0,0,1-1.552-.623,2.675,2.675,0,0,1-.523-1.768V8.206H113.38V7.019h1.635V4.844Zm2.9,6.583a5.3,5.3,0,0,1,.519-2.374,3.87,3.87,0,0,1,1.444-1.627,3.932,3.932,0,0,1,2.113-.573,3.788,3.788,0,0,1,2.968,1.27,4.886,4.886,0,0,1,1.133,3.378v.108a5.351,5.351,0,0,1-.5,2.353,3.813,3.813,0,0,1-1.436,1.623,3.977,3.977,0,0,1-2.146.581,3.778,3.778,0,0,1-2.959-1.27,4.861,4.861,0,0,1-1.133-3.362Zm1.544.183a3.842,3.842,0,0,0,.693,2.4A2.349,2.349,0,0,0,125.4,14a4.2,4.2,0,0,0,.689-2.569,3.836,3.836,0,0,0-.7-2.395,2.23,2.23,0,0,0-1.864-.917,2.205,2.205,0,0,0-1.834.9A4.17,4.17,0,0,0,120.992,11.609Z" transform="translate(410 5840)" fill="#12263f"/>
    <path id="Trazado_606876" data-name="Trazado 606876" d="M.789,11.435A5.261,5.261,0,0,1,1.768,8.11,3.1,3.1,0,0,1,4.333,6.853a3.115,3.115,0,0,1,2.5,1.079V3.25H8.367V16H6.956l-.075-.963a3.127,3.127,0,0,1-2.565,1.129,3.068,3.068,0,0,1-2.544-1.278,5.321,5.321,0,0,1-.984-3.337Zm1.536.174A3.984,3.984,0,0,0,2.955,14a2.039,2.039,0,0,0,1.743.863,2.24,2.24,0,0,0,2.133-1.312V9.426a2.257,2.257,0,0,0-2.117-1.27,2.049,2.049,0,0,0-1.76.872A4.386,4.386,0,0,0,2.324,11.609Zm12.152,4.557a3.924,3.924,0,0,1-2.972-1.2,4.452,4.452,0,0,1-1.146-3.208v-.282a5.39,5.39,0,0,1,.51-2.386A3.982,3.982,0,0,1,12.3,7.446a3.59,3.59,0,0,1,1.988-.594,3.364,3.364,0,0,1,2.723,1.154,5,5,0,0,1,.971,3.3v.639H11.9a3.193,3.193,0,0,0,.776,2.146,2.44,2.44,0,0,0,1.888.818,2.675,2.675,0,0,0,1.378-.332,3.462,3.462,0,0,0,.988-.88l.938.73A3.772,3.772,0,0,1,14.477,16.166Zm-.191-8.052a2.048,2.048,0,0,0-1.561.677,3.288,3.288,0,0,0-.78,1.9h4.5v-.116a2.925,2.925,0,0,0-.631-1.814A1.928,1.928,0,0,0,14.286,8.114ZM25.633,16H24.1V7.019h1.536ZM23.973,4.636a.917.917,0,0,1,.228-.631.857.857,0,0,1,.677-.257.87.87,0,0,1,.681.257.907.907,0,0,1,.232.631.877.877,0,0,1-.232.623.886.886,0,0,1-.681.249.872.872,0,0,1-.677-.249A.886.886,0,0,1,23.973,4.636Zm5.57,2.382.05,1.129a3.273,3.273,0,0,1,2.689-1.295q2.847,0,2.872,3.212V16H33.618V10.057a2.068,2.068,0,0,0-.444-1.436,1.78,1.78,0,0,0-1.357-.465,2.216,2.216,0,0,0-1.312.4,2.706,2.706,0,0,0-.88,1.046V16H28.09V7.019ZM38.225,16V8.206H36.806V7.019h1.419V6.1A3.058,3.058,0,0,1,39,3.864a2.916,2.916,0,0,1,2.183-.789,4.055,4.055,0,0,1,1.054.14l-.083,1.238a4.41,4.41,0,0,0-.83-.075,1.5,1.5,0,0,0-1.154.437,1.773,1.773,0,0,0-.407,1.253v.949h1.917V8.206H39.761V16Zm4.74-4.574a5.3,5.3,0,0,1,.519-2.374,3.87,3.87,0,0,1,1.444-1.627,3.932,3.932,0,0,1,2.113-.573,3.788,3.788,0,0,1,2.968,1.27A4.886,4.886,0,0,1,51.141,11.5v.108a5.351,5.351,0,0,1-.5,2.353A3.813,3.813,0,0,1,49.2,15.585a3.977,3.977,0,0,1-2.146.581A3.778,3.778,0,0,1,44.1,14.9a4.861,4.861,0,0,1-1.133-3.362Zm1.544.183a3.842,3.842,0,0,0,.693,2.4A2.349,2.349,0,0,0,48.917,14a4.2,4.2,0,0,0,.689-2.569,3.836,3.836,0,0,0-.7-2.395,2.23,2.23,0,0,0-1.864-.917,2.205,2.205,0,0,0-1.834.9A4.17,4.17,0,0,0,44.509,11.609ZM57.408,8.4a4.6,4.6,0,0,0-.755-.058A2.024,2.024,0,0,0,54.6,9.625V16H53.067V7.019h1.494l.025,1.038a2.391,2.391,0,0,1,2.142-1.2,1.569,1.569,0,0,1,.681.116Zm2.855-1.378.042,1A3.317,3.317,0,0,1,62.97,6.853,2.568,2.568,0,0,1,65.535,8.3,3.4,3.4,0,0,1,66.7,7.251a3.445,3.445,0,0,1,1.7-.4q2.955,0,3,3.129V16H69.868V10.073a2.062,2.062,0,0,0-.44-1.44,1.937,1.937,0,0,0-1.478-.477,2.036,2.036,0,0,0-1.419.51,2.071,2.071,0,0,0-.656,1.374V16H64.331V10.115a1.713,1.713,0,0,0-1.917-1.959,2.055,2.055,0,0,0-2.067,1.287V16H58.811V7.019Zm19,8.981a3.226,3.226,0,0,1-.216-.946,3.426,3.426,0,0,1-2.557,1.112,3.17,3.17,0,0,1-2.179-.751,2.43,2.43,0,0,1-.851-1.905,2.539,2.539,0,0,1,1.067-2.179,5.029,5.029,0,0,1,3-.776h1.494V9.849a1.725,1.725,0,0,0-.481-1.282,1.935,1.935,0,0,0-1.419-.477,2.239,2.239,0,0,0-1.378.415,1.223,1.223,0,0,0-.556,1H73.645a2.119,2.119,0,0,1,.477-1.3,3.258,3.258,0,0,1,1.295-.992,4.356,4.356,0,0,1,1.8-.365,3.551,3.551,0,0,1,2.432.776,2.8,2.8,0,0,1,.913,2.137V13.9a5.054,5.054,0,0,0,.315,1.967V16Zm-2.548-1.17a2.7,2.7,0,0,0,1.37-.374,2.259,2.259,0,0,0,.938-.971V11.642h-1.2Q75,11.642,75,13.294a1.4,1.4,0,0,0,.481,1.129A1.85,1.85,0,0,0,76.716,14.83Zm9.853.083a2.212,2.212,0,0,0,1.436-.5,1.752,1.752,0,0,0,.681-1.245h1.453a2.785,2.785,0,0,1-.531,1.469A3.5,3.5,0,0,1,88.3,15.751a3.772,3.772,0,0,1-1.731.415,3.7,3.7,0,0,1-2.918-1.224,4.877,4.877,0,0,1-1.083-3.349v-.257A5.407,5.407,0,0,1,83.049,9a3.667,3.667,0,0,1,1.382-1.585,3.926,3.926,0,0,1,2.129-.564,3.6,3.6,0,0,1,2.511.9,3.234,3.234,0,0,1,1.067,2.349H88.686a2.116,2.116,0,0,0-.66-1.432,2.053,2.053,0,0,0-1.465-.56,2.149,2.149,0,0,0-1.814.843,3.957,3.957,0,0,0-.643,2.436v.291a3.878,3.878,0,0,0,.639,2.391A2.16,2.16,0,0,0,86.569,14.913ZM93.533,16H92V7.019h1.536ZM91.873,4.636a.917.917,0,0,1,.228-.631.857.857,0,0,1,.677-.257.87.87,0,0,1,.681.257.907.907,0,0,1,.232.631.877.877,0,0,1-.232.623.886.886,0,0,1-.681.249.872.872,0,0,1-.677-.249A.886.886,0,0,1,91.873,4.636Zm3.71,6.79A5.3,5.3,0,0,1,96.1,9.052a3.87,3.87,0,0,1,1.444-1.627,3.932,3.932,0,0,1,2.113-.573,3.788,3.788,0,0,1,2.968,1.27A4.886,4.886,0,0,1,103.76,11.5v.108a5.351,5.351,0,0,1-.5,2.353,3.813,3.813,0,0,1-1.436,1.623,3.977,3.977,0,0,1-2.146.581,3.778,3.778,0,0,1-2.959-1.27,4.861,4.861,0,0,1-1.133-3.362Zm1.544.183a3.842,3.842,0,0,0,.693,2.4A2.349,2.349,0,0,0,101.535,14a4.2,4.2,0,0,0,.689-2.569,3.836,3.836,0,0,0-.7-2.395,2.23,2.23,0,0,0-1.864-.917,2.205,2.205,0,0,0-1.834.9A4.17,4.17,0,0,0,97.127,11.609Zm3.229-8.359h1.859L99.991,5.69l-1.237,0Zm6.782,3.769.05,1.129a3.273,3.273,0,0,1,2.689-1.295q2.847,0,2.872,3.212V16h-1.536V10.057a2.068,2.068,0,0,0-.444-1.436,1.78,1.78,0,0,0-1.357-.465,2.216,2.216,0,0,0-1.312.4,2.706,2.706,0,0,0-.88,1.046V16h-1.536V7.019Z" transform="translate(416 5863)" fill="#12263f"/>
    <path id="Trazado_606878" data-name="Trazado 606878" d="M4.964,10.613A7.494,7.494,0,0,1,1.98,9.164a2.768,2.768,0,0,1-.934-2.121A2.923,2.923,0,0,1,2.187,4.682a4.536,4.536,0,0,1,2.968-.934,4.951,4.951,0,0,1,2.22.481A3.651,3.651,0,0,1,8.886,5.558a3.4,3.4,0,0,1,.535,1.851h-1.6a2.21,2.21,0,0,0-.7-1.729,2.835,2.835,0,0,0-1.967-.629,2.9,2.9,0,0,0-1.839.52,1.734,1.734,0,0,0-.66,1.443,1.56,1.56,0,0,0,.627,1.252A6.147,6.147,0,0,0,5.416,9.2a9.9,9.9,0,0,1,2.357.935,3.577,3.577,0,0,1,1.262,1.191,3.04,3.04,0,0,1,.411,1.6A2.824,2.824,0,0,1,8.3,15.282a4.884,4.884,0,0,1-3.063.884,5.681,5.681,0,0,1-2.324-.477,3.911,3.911,0,0,1-1.664-1.307A3.191,3.191,0,0,1,.664,12.5h1.6a2.082,2.082,0,0,0,.809,1.731,3.408,3.408,0,0,0,2.162.635,3.133,3.133,0,0,0,1.934-.515,1.672,1.672,0,0,0,.672-1.4,1.641,1.641,0,0,0-.623-1.374A7.178,7.178,0,0,0,4.964,10.613ZM16.792,16a3.226,3.226,0,0,1-.216-.946,3.426,3.426,0,0,1-2.557,1.112,3.17,3.17,0,0,1-2.179-.751,2.43,2.43,0,0,1-.851-1.905,2.539,2.539,0,0,1,1.067-2.179,5.029,5.029,0,0,1,3-.776h1.494V9.849a1.725,1.725,0,0,0-.481-1.282,1.935,1.935,0,0,0-1.419-.477,2.239,2.239,0,0,0-1.378.415,1.223,1.223,0,0,0-.556,1H11.173a2.119,2.119,0,0,1,.477-1.3,3.258,3.258,0,0,1,1.295-.992,4.356,4.356,0,0,1,1.8-.365,3.551,3.551,0,0,1,2.432.776,2.8,2.8,0,0,1,.913,2.137V13.9a5.054,5.054,0,0,0,.315,1.967V16Zm-2.548-1.17a2.7,2.7,0,0,0,1.37-.374,2.259,2.259,0,0,0,.938-.971V11.642h-1.2q-2.822,0-2.822,1.652a1.4,1.4,0,0,0,.481,1.129A1.85,1.85,0,0,0,14.244,14.83Zm8.334-9.986V7.019h1.677V8.206H22.578v5.577a1.247,1.247,0,0,0,.224.81.943.943,0,0,0,.764.27,3.718,3.718,0,0,0,.73-.1V16a4.478,4.478,0,0,1-1.179.165,1.912,1.912,0,0,1-1.552-.623,2.675,2.675,0,0,1-.523-1.768V8.206H19.407V7.019h1.635V4.844ZM27.716,16H26.181V7.019h1.536ZM26.056,4.636a.917.917,0,0,1,.228-.631.857.857,0,0,1,.677-.257.87.87,0,0,1,.681.257.907.907,0,0,1,.232.631.877.877,0,0,1-.232.623.886.886,0,0,1-.681.249.872.872,0,0,1-.677-.249A.886.886,0,0,1,26.056,4.636ZM35.4,13.618a1.13,1.13,0,0,0-.469-.967,4.514,4.514,0,0,0-1.635-.594,7.731,7.731,0,0,1-1.851-.6,2.633,2.633,0,0,1-1.013-.83,1.986,1.986,0,0,1-.328-1.146,2.33,2.33,0,0,1,.934-1.868,3.647,3.647,0,0,1,2.386-.764,3.753,3.753,0,0,1,2.478.789,2.5,2.5,0,0,1,.95,2.017H35.312a1.386,1.386,0,0,0-.535-1.087,2.006,2.006,0,0,0-1.349-.457,2.1,2.1,0,0,0-1.312.365,1.15,1.15,0,0,0-.473.955.932.932,0,0,0,.44.838,5.413,5.413,0,0,0,1.59.54,8.283,8.283,0,0,1,1.864.614,2.718,2.718,0,0,1,1.058.859,2.112,2.112,0,0,1,.344,1.224,2.3,2.3,0,0,1-.963,1.93,4.039,4.039,0,0,1-2.5.726,4.523,4.523,0,0,1-1.909-.382,3.105,3.105,0,0,1-1.3-1.067,2.571,2.571,0,0,1-.469-1.482h1.536a1.59,1.59,0,0,0,.618,1.224,2.4,2.4,0,0,0,1.523.452,2.476,2.476,0,0,0,1.4-.353A1.084,1.084,0,0,0,35.4,13.618ZM39.694,16V8.206H38.275V7.019h1.419V6.1a3.058,3.058,0,0,1,.772-2.233,2.916,2.916,0,0,1,2.183-.789,4.055,4.055,0,0,1,1.054.14l-.083,1.238a4.41,4.41,0,0,0-.83-.075,1.5,1.5,0,0,0-1.154.437,1.773,1.773,0,0,0-.407,1.253v.949h1.917V8.206H41.23V16Zm10.691,0a3.226,3.226,0,0,1-.216-.946,3.426,3.426,0,0,1-2.557,1.112,3.17,3.17,0,0,1-2.179-.751,2.43,2.43,0,0,1-.851-1.905,2.539,2.539,0,0,1,1.067-2.179,5.029,5.029,0,0,1,3-.776h1.494V9.849a1.725,1.725,0,0,0-.481-1.282,1.935,1.935,0,0,0-1.419-.477,2.239,2.239,0,0,0-1.378.415,1.223,1.223,0,0,0-.556,1H44.766a2.119,2.119,0,0,1,.477-1.3,3.258,3.258,0,0,1,1.295-.992,4.356,4.356,0,0,1,1.8-.365,3.551,3.551,0,0,1,2.432.776,2.8,2.8,0,0,1,.913,2.137V13.9A5.054,5.054,0,0,0,52,15.867V16Zm-2.548-1.17a2.7,2.7,0,0,0,1.37-.374,2.259,2.259,0,0,0,.938-.971V11.642h-1.2q-2.822,0-2.822,1.652a1.4,1.4,0,0,0,.481,1.129A1.85,1.85,0,0,0,47.837,14.83Zm9.853.083a2.212,2.212,0,0,0,1.436-.5,1.752,1.752,0,0,0,.681-1.245H61.26a2.785,2.785,0,0,1-.531,1.469,3.5,3.5,0,0,1-1.307,1.112,3.772,3.772,0,0,1-1.731.415,3.7,3.7,0,0,1-2.918-1.224,4.877,4.877,0,0,1-1.083-3.349v-.257A5.407,5.407,0,0,1,54.171,9a3.667,3.667,0,0,1,1.382-1.585,3.926,3.926,0,0,1,2.129-.564,3.6,3.6,0,0,1,2.511.9,3.234,3.234,0,0,1,1.067,2.349H59.807a2.116,2.116,0,0,0-.66-1.432,2.053,2.053,0,0,0-1.465-.56,2.149,2.149,0,0,0-1.814.843,3.957,3.957,0,0,0-.643,2.436v.291a3.878,3.878,0,0,0,.639,2.391A2.16,2.16,0,0,0,57.69,14.913Zm8.9,0a2.212,2.212,0,0,0,1.436-.5,1.752,1.752,0,0,0,.681-1.245h1.453a2.785,2.785,0,0,1-.531,1.469,3.5,3.5,0,0,1-1.307,1.112,3.772,3.772,0,0,1-1.731.415,3.7,3.7,0,0,1-2.918-1.224,4.877,4.877,0,0,1-1.083-3.349v-.257A5.407,5.407,0,0,1,63.069,9a3.667,3.667,0,0,1,1.382-1.585,3.926,3.926,0,0,1,2.129-.564,3.6,3.6,0,0,1,2.511.9,3.234,3.234,0,0,1,1.067,2.349H68.706a2.116,2.116,0,0,0-.66-1.432,2.053,2.053,0,0,0-1.465-.56,2.149,2.149,0,0,0-1.814.843,3.957,3.957,0,0,0-.643,2.436v.291a3.878,3.878,0,0,0,.639,2.391A2.16,2.16,0,0,0,66.589,14.913ZM73.553,16H72.018V7.019h1.536ZM71.893,4.636a.917.917,0,0,1,.228-.631.857.857,0,0,1,.677-.257.87.87,0,0,1,.681.257.907.907,0,0,1,.232.631.877.877,0,0,1-.232.623.886.886,0,0,1-.681.249.872.872,0,0,1-.677-.249A.886.886,0,0,1,71.893,4.636Zm3.71,6.79a5.3,5.3,0,0,1,.519-2.374,3.87,3.87,0,0,1,1.444-1.627,3.932,3.932,0,0,1,2.113-.573,3.788,3.788,0,0,1,2.968,1.27A4.886,4.886,0,0,1,83.78,11.5v.108a5.351,5.351,0,0,1-.5,2.353,3.813,3.813,0,0,1-1.436,1.623,3.977,3.977,0,0,1-2.146.581,3.778,3.778,0,0,1-2.959-1.27A4.861,4.861,0,0,1,75.6,11.534Zm1.544.183a3.842,3.842,0,0,0,.693,2.4A2.349,2.349,0,0,0,81.555,14a4.2,4.2,0,0,0,.689-2.569,3.836,3.836,0,0,0-.7-2.395,2.23,2.23,0,0,0-1.864-.917,2.205,2.205,0,0,0-1.834.9A4.17,4.17,0,0,0,77.147,11.609ZM80.376,3.25h1.859L80.011,5.69l-1.237,0Zm6.782,3.769.05,1.129A3.273,3.273,0,0,1,89.9,6.853q2.847,0,2.872,3.212V16H91.234V10.057a2.068,2.068,0,0,0-.444-1.436,1.78,1.78,0,0,0-1.357-.465,2.216,2.216,0,0,0-1.312.4,2.706,2.706,0,0,0-.88,1.046V16H85.706V7.019Z" transform="translate(752 5819)" fill="#12263f"/>
    <path id="Trazado_606879" data-name="Trazado 606879" d="M.789,11.435A5.261,5.261,0,0,1,1.768,8.11,3.1,3.1,0,0,1,4.333,6.853a3.115,3.115,0,0,1,2.5,1.079V3.25H8.367V16H6.956l-.075-.963a3.127,3.127,0,0,1-2.565,1.129,3.068,3.068,0,0,1-2.544-1.278,5.321,5.321,0,0,1-.984-3.337Zm1.536.174A3.984,3.984,0,0,0,2.955,14a2.039,2.039,0,0,0,1.743.863,2.24,2.24,0,0,0,2.133-1.312V9.426a2.257,2.257,0,0,0-2.117-1.27,2.049,2.049,0,0,0-1.76.872A4.386,4.386,0,0,0,2.324,11.609Zm12.152,4.557a3.924,3.924,0,0,1-2.972-1.2,4.452,4.452,0,0,1-1.146-3.208v-.282a5.39,5.39,0,0,1,.51-2.386A3.982,3.982,0,0,1,12.3,7.446a3.59,3.59,0,0,1,1.988-.594,3.364,3.364,0,0,1,2.723,1.154,5,5,0,0,1,.971,3.3v.639H11.9a3.193,3.193,0,0,0,.776,2.146,2.44,2.44,0,0,0,1.888.818,2.675,2.675,0,0,0,1.378-.332,3.462,3.462,0,0,0,.988-.88l.938.73A3.772,3.772,0,0,1,14.477,16.166Zm-.191-8.052a2.048,2.048,0,0,0-1.561.677,3.288,3.288,0,0,0-.78,1.9h4.5v-.116a2.925,2.925,0,0,0-.631-1.814A1.928,1.928,0,0,0,14.286,8.114ZM21.424,16H19.889V3.25h1.536Zm10.268-1.087a2.212,2.212,0,0,0,1.436-.5,1.752,1.752,0,0,0,.681-1.245h1.453a2.785,2.785,0,0,1-.531,1.469,3.5,3.5,0,0,1-1.307,1.112,3.772,3.772,0,0,1-1.731.415,3.7,3.7,0,0,1-2.918-1.224,4.877,4.877,0,0,1-1.083-3.349v-.257A5.407,5.407,0,0,1,28.173,9a3.667,3.667,0,0,1,1.382-1.585,3.926,3.926,0,0,1,2.129-.564,3.6,3.6,0,0,1,2.511.9,3.234,3.234,0,0,1,1.067,2.349H33.809a2.116,2.116,0,0,0-.66-1.432,2.053,2.053,0,0,0-1.465-.56,2.149,2.149,0,0,0-1.814.843,3.957,3.957,0,0,0-.643,2.436v.291a3.878,3.878,0,0,0,.639,2.391A2.16,2.16,0,0,0,31.692,14.913ZM38.657,16H37.121V3.25h1.536Zm4.125,0H41.247V7.019h1.536ZM41.122,4.636a.917.917,0,0,1,.228-.631.857.857,0,0,1,.677-.257.87.87,0,0,1,.681.257.907.907,0,0,1,.232.631.877.877,0,0,1-.232.623.886.886,0,0,1-.681.249.872.872,0,0,1-.677-.249A.886.886,0,0,1,41.122,4.636Zm7.844,11.53a3.924,3.924,0,0,1-2.972-1.2,4.452,4.452,0,0,1-1.146-3.208v-.282a5.39,5.39,0,0,1,.51-2.386,3.982,3.982,0,0,1,1.428-1.644,3.59,3.59,0,0,1,1.988-.594A3.364,3.364,0,0,1,51.5,8.006a5,5,0,0,1,.971,3.3v.639H46.385a3.193,3.193,0,0,0,.776,2.146,2.44,2.44,0,0,0,1.888.818,2.675,2.675,0,0,0,1.378-.332,3.462,3.462,0,0,0,.988-.88l.938.73A3.772,3.772,0,0,1,48.966,16.166Zm-.191-8.052a2.048,2.048,0,0,0-1.561.677,3.288,3.288,0,0,0-.78,1.9h4.5v-.116A2.925,2.925,0,0,0,50.3,8.758,1.928,1.928,0,0,0,48.775,8.114Zm6.923-1.1.05,1.129a3.273,3.273,0,0,1,2.689-1.295q2.847,0,2.872,3.212V16H59.774V10.057a2.068,2.068,0,0,0-.444-1.436,1.78,1.78,0,0,0-1.357-.465,2.216,2.216,0,0,0-1.312.4,2.706,2.706,0,0,0-.88,1.046V16H54.246V7.019ZM65.709,4.844V7.019h1.677V8.206H65.709v5.577a1.247,1.247,0,0,0,.224.81.943.943,0,0,0,.764.27,3.718,3.718,0,0,0,.73-.1V16a4.478,4.478,0,0,1-1.179.165,1.912,1.912,0,0,1-1.552-.623,2.675,2.675,0,0,1-.523-1.768V8.206H62.538V7.019h1.635V4.844Zm7.2,11.322a3.924,3.924,0,0,1-2.972-1.2,4.452,4.452,0,0,1-1.146-3.208v-.282A5.39,5.39,0,0,1,69.3,9.09a3.982,3.982,0,0,1,1.428-1.644,3.59,3.59,0,0,1,1.988-.594,3.364,3.364,0,0,1,2.723,1.154,5,5,0,0,1,.971,3.3v.639H70.324a3.193,3.193,0,0,0,.776,2.146,2.44,2.44,0,0,0,1.888.818,2.675,2.675,0,0,0,1.378-.332,3.462,3.462,0,0,0,.988-.88l.938.73A3.772,3.772,0,0,1,72.906,16.166Zm-.191-8.052a2.048,2.048,0,0,0-1.561.677,3.288,3.288,0,0,0-.78,1.9h4.5v-.116a2.925,2.925,0,0,0-.631-1.814A1.928,1.928,0,0,0,72.715,8.114Z" transform="translate(761 5842)" fill="#12263f"/>
    <path id="Trazado_606880" data-name="Trazado 606880" d="M8.077,12.837H3.013L1.876,16H.232L4.848,3.914H6.242L10.866,16H9.23Zm-4.582-1.3H7.6L5.545,5.881ZM13.788,8.106a3.265,3.265,0,0,1,2.656-1.253q2.847,0,2.872,3.212V16H17.78V10.057a2.068,2.068,0,0,0-.444-1.436,1.78,1.78,0,0,0-1.357-.465,2.216,2.216,0,0,0-1.312.4,2.706,2.706,0,0,0-.88,1.046V16H12.252V3.25h1.536Zm7.421,3.32a5.3,5.3,0,0,1,.519-2.374,3.87,3.87,0,0,1,1.444-1.627,3.932,3.932,0,0,1,2.113-.573,3.788,3.788,0,0,1,2.968,1.27A4.886,4.886,0,0,1,29.385,11.5v.108a5.351,5.351,0,0,1-.5,2.353,3.813,3.813,0,0,1-1.436,1.623,3.977,3.977,0,0,1-2.146.581,3.778,3.778,0,0,1-2.959-1.27,4.861,4.861,0,0,1-1.133-3.362Zm1.544.183a3.842,3.842,0,0,0,.693,2.4A2.349,2.349,0,0,0,27.16,14a4.2,4.2,0,0,0,.689-2.569,3.836,3.836,0,0,0-.7-2.395,2.23,2.23,0,0,0-1.864-.917,2.205,2.205,0,0,0-1.834.9A4.17,4.17,0,0,0,22.752,11.609ZM35.652,8.4a4.6,4.6,0,0,0-.755-.058,2.024,2.024,0,0,0-2.05,1.287V16H31.311V7.019H32.8l.025,1.038a2.391,2.391,0,0,1,2.142-1.2,1.569,1.569,0,0,1,.681.116Zm5.752,0a4.6,4.6,0,0,0-.755-.058A2.024,2.024,0,0,0,38.6,9.625V16H37.063V7.019h1.494l.025,1.038a2.391,2.391,0,0,1,2.142-1.2,1.569,1.569,0,0,1,.681.116Zm.838,3.03a5.3,5.3,0,0,1,.519-2.374,3.87,3.87,0,0,1,1.444-1.627,3.932,3.932,0,0,1,2.113-.573,3.788,3.788,0,0,1,2.968,1.27A4.886,4.886,0,0,1,50.419,11.5v.108a5.351,5.351,0,0,1-.5,2.353,3.813,3.813,0,0,1-1.436,1.623,3.977,3.977,0,0,1-2.146.581,3.778,3.778,0,0,1-2.959-1.27,4.861,4.861,0,0,1-1.133-3.362Zm1.544.183a3.842,3.842,0,0,0,.693,2.4A2.349,2.349,0,0,0,48.194,14a4.2,4.2,0,0,0,.689-2.569,3.836,3.836,0,0,0-.7-2.395,2.23,2.23,0,0,0-1.864-.917,2.205,2.205,0,0,0-1.834.9A4.17,4.17,0,0,0,43.787,11.609Zm12.393-.174a5.261,5.261,0,0,1,.979-3.324,3.333,3.333,0,0,1,5.063-.178V3.25h1.536V16H62.347l-.075-.963a3.127,3.127,0,0,1-2.565,1.129,3.068,3.068,0,0,1-2.544-1.278,5.321,5.321,0,0,1-.984-3.337Zm1.536.174A3.984,3.984,0,0,0,58.346,14a2.039,2.039,0,0,0,1.743.863,2.24,2.24,0,0,0,2.133-1.312V9.426a2.257,2.257,0,0,0-2.117-1.27,2.049,2.049,0,0,0-1.76.872A4.386,4.386,0,0,0,57.715,11.609Zm12.152,4.557a3.924,3.924,0,0,1-2.972-1.2,4.452,4.452,0,0,1-1.146-3.208v-.282a5.39,5.39,0,0,1,.51-2.386,3.982,3.982,0,0,1,1.428-1.644,3.59,3.59,0,0,1,1.988-.594A3.364,3.364,0,0,1,72.4,8.006a5,5,0,0,1,.971,3.3v.639H67.286a3.193,3.193,0,0,0,.776,2.146,2.44,2.44,0,0,0,1.888.818,2.675,2.675,0,0,0,1.378-.332,3.462,3.462,0,0,0,.988-.88l.938.73A3.772,3.772,0,0,1,69.868,16.166Zm-.191-8.052a2.048,2.048,0,0,0-1.561.677,3.288,3.288,0,0,0-.78,1.9h4.5v-.116A2.925,2.925,0,0,0,71.2,8.758,1.928,1.928,0,0,0,69.677,8.114ZM81.439,4.844V7.019h1.677V8.206H81.439v5.577a1.247,1.247,0,0,0,.224.81.943.943,0,0,0,.764.27,3.718,3.718,0,0,0,.73-.1V16a4.478,4.478,0,0,1-1.179.165,1.912,1.912,0,0,1-1.552-.623,2.675,2.675,0,0,1-.523-1.768V8.206H78.268V7.019H79.9V4.844ZM86.577,16H85.042V7.019h1.536ZM84.917,4.636a.917.917,0,0,1,.228-.631.857.857,0,0,1,.677-.257.87.87,0,0,1,.681.257.907.907,0,0,1,.232.631.877.877,0,0,1-.232.623.886.886,0,0,1-.681.249.872.872,0,0,1-.677-.249A.886.886,0,0,1,84.917,4.636Zm7.844,11.53a3.924,3.924,0,0,1-2.972-1.2,4.452,4.452,0,0,1-1.146-3.208v-.282a5.39,5.39,0,0,1,.51-2.386,3.982,3.982,0,0,1,1.428-1.644,3.59,3.59,0,0,1,1.988-.594,3.364,3.364,0,0,1,2.723,1.154,5,5,0,0,1,.971,3.3v.639H90.18a3.193,3.193,0,0,0,.776,2.146,2.44,2.44,0,0,0,1.888.818,2.675,2.675,0,0,0,1.378-.332,3.462,3.462,0,0,0,.988-.88l.938.73A3.772,3.772,0,0,1,92.761,16.166ZM92.57,8.114a2.048,2.048,0,0,0-1.561.677,3.288,3.288,0,0,0-.78,1.9h4.5v-.116A2.925,2.925,0,0,0,94.1,8.758,1.928,1.928,0,0,0,92.57,8.114Zm6.915-1.1.042,1a3.317,3.317,0,0,1,2.665-1.162A2.568,2.568,0,0,1,104.756,8.3a3.4,3.4,0,0,1,1.166-1.046,3.445,3.445,0,0,1,1.7-.4q2.955,0,3,3.129V16h-1.536V10.073a2.062,2.062,0,0,0-.44-1.44,1.937,1.937,0,0,0-1.478-.477,2.036,2.036,0,0,0-1.419.51,2.071,2.071,0,0,0-.656,1.374V16h-1.544V10.115a1.713,1.713,0,0,0-1.917-1.959,2.055,2.055,0,0,0-2.067,1.287V16H98.032V7.019Zm21.042,4.59a5.378,5.378,0,0,1-.938,3.3,3.006,3.006,0,0,1-2.54,1.253,3.294,3.294,0,0,1-2.573-1.038v4.325H112.94V7.019h1.4l.075,1a3.163,3.163,0,0,1,2.606-1.162,3.063,3.063,0,0,1,2.561,1.22,5.437,5.437,0,0,1,.942,3.4Zm-1.536-.174a3.968,3.968,0,0,0-.647-2.4,2.086,2.086,0,0,0-1.776-.88,2.257,2.257,0,0,0-2.092,1.237v4.292a2.262,2.262,0,0,0,2.108,1.229,2.076,2.076,0,0,0,1.756-.876A4.332,4.332,0,0,0,118.992,11.435Zm3.08-.008a5.3,5.3,0,0,1,.519-2.374,3.87,3.87,0,0,1,1.444-1.627,3.932,3.932,0,0,1,2.113-.573,3.788,3.788,0,0,1,2.968,1.27,4.886,4.886,0,0,1,1.133,3.378v.108a5.351,5.351,0,0,1-.5,2.353,3.813,3.813,0,0,1-1.436,1.623,3.977,3.977,0,0,1-2.146.581A3.778,3.778,0,0,1,123.2,14.9a4.861,4.861,0,0,1-1.133-3.362Zm1.544.183a3.842,3.842,0,0,0,.693,2.4A2.349,2.349,0,0,0,128.023,14a4.2,4.2,0,0,0,.689-2.569,3.836,3.836,0,0,0-.7-2.395,2.23,2.23,0,0,0-1.864-.917,2.205,2.205,0,0,0-1.834.9A4.17,4.17,0,0,0,123.615,11.609Z" transform="translate(1059 5852)" fill="#12263f"/>
    <path id="Trazado_606881" data-name="Trazado 606881" d="M8.077,12.837H3.013L1.876,16H.232L4.848,3.914H6.242L10.866,16H9.23Zm-4.582-1.3H7.6L5.545,5.881Zm14.211,3.578a3.262,3.262,0,0,1-2.631,1.054,2.792,2.792,0,0,1-2.187-.834,3.611,3.611,0,0,1-.76-2.469V7.019h1.536v5.8q0,2.042,1.66,2.042a2.3,2.3,0,0,0,2.341-1.312V7.019H19.2V16H17.739Zm5.91-10.268V7.019h1.677V8.206H23.616v5.577a1.247,1.247,0,0,0,.224.81.943.943,0,0,0,.764.27,3.718,3.718,0,0,0,.73-.1V16a4.478,4.478,0,0,1-1.179.165,1.912,1.912,0,0,1-1.552-.623,2.675,2.675,0,0,1-.523-1.768V8.206H20.445V7.019H22.08V4.844Zm2.9,6.583a5.3,5.3,0,0,1,.519-2.374,3.87,3.87,0,0,1,1.444-1.627,3.932,3.932,0,0,1,2.113-.573,3.788,3.788,0,0,1,2.968,1.27A4.886,4.886,0,0,1,34.689,11.5v.108a5.351,5.351,0,0,1-.5,2.353,3.813,3.813,0,0,1-1.436,1.623,3.977,3.977,0,0,1-2.146.581,3.778,3.778,0,0,1-2.959-1.27,4.861,4.861,0,0,1-1.133-3.362Zm1.544.183a3.842,3.842,0,0,0,.693,2.4A2.349,2.349,0,0,0,32.464,14a4.2,4.2,0,0,0,.689-2.569,3.836,3.836,0,0,0-.7-2.395,2.23,2.23,0,0,0-1.864-.917,2.205,2.205,0,0,0-1.834.9A4.17,4.17,0,0,0,28.057,11.609Zm10-4.59.042,1a3.317,3.317,0,0,1,2.665-1.162A2.568,2.568,0,0,1,43.33,8.3,3.4,3.4,0,0,1,44.5,7.251a3.445,3.445,0,0,1,1.7-.4q2.955,0,3,3.129V16H47.663V10.073a2.062,2.062,0,0,0-.44-1.44,1.937,1.937,0,0,0-1.478-.477,2.036,2.036,0,0,0-1.419.51,2.071,2.071,0,0,0-.656,1.374V16H42.126V10.115a1.713,1.713,0,0,0-1.917-1.959,2.055,2.055,0,0,0-2.067,1.287V16H36.606V7.019ZM57.06,16a3.226,3.226,0,0,1-.216-.946,3.426,3.426,0,0,1-2.557,1.112,3.17,3.17,0,0,1-2.179-.751,2.43,2.43,0,0,1-.851-1.905,2.539,2.539,0,0,1,1.067-2.179,5.029,5.029,0,0,1,3-.776h1.494V9.849a1.725,1.725,0,0,0-.481-1.282,1.935,1.935,0,0,0-1.419-.477A2.239,2.239,0,0,0,53.54,8.5a1.223,1.223,0,0,0-.556,1H51.44a2.119,2.119,0,0,1,.477-1.3,3.258,3.258,0,0,1,1.295-.992,4.356,4.356,0,0,1,1.8-.365,3.551,3.551,0,0,1,2.432.776,2.8,2.8,0,0,1,.913,2.137V13.9a5.054,5.054,0,0,0,.315,1.967V16Zm-2.548-1.17a2.7,2.7,0,0,0,1.37-.374,2.259,2.259,0,0,0,.938-.971V11.642h-1.2q-2.822,0-2.822,1.652a1.4,1.4,0,0,0,.481,1.129A1.85,1.85,0,0,0,54.511,14.83Zm8.334-9.986V7.019h1.677V8.206H62.845v5.577a1.247,1.247,0,0,0,.224.81.943.943,0,0,0,.764.27,3.718,3.718,0,0,0,.73-.1V16a4.478,4.478,0,0,1-1.179.165,1.912,1.912,0,0,1-1.552-.623,2.675,2.675,0,0,1-.523-1.768V8.206H59.674V7.019H61.31V4.844ZM67.983,16H66.448V7.019h1.536ZM66.323,4.636a.917.917,0,0,1,.228-.631.857.857,0,0,1,.677-.257.87.87,0,0,1,.681.257.907.907,0,0,1,.232.631.877.877,0,0,1-.232.623.886.886,0,0,1-.681.249.872.872,0,0,1-.677-.249A.886.886,0,0,1,66.323,4.636Zm5.562,10.11h5.254V16h-7.13V14.871l4.956-6.583H70.083V7.019H76.89V8.106ZM84.411,16a3.226,3.226,0,0,1-.216-.946,3.426,3.426,0,0,1-2.557,1.112,3.17,3.17,0,0,1-2.179-.751,2.43,2.43,0,0,1-.851-1.905,2.539,2.539,0,0,1,1.067-2.179,5.029,5.029,0,0,1,3-.776H84.17V9.849a1.725,1.725,0,0,0-.481-1.282,1.935,1.935,0,0,0-1.419-.477,2.239,2.239,0,0,0-1.378.415,1.223,1.223,0,0,0-.556,1H78.791a2.119,2.119,0,0,1,.477-1.3,3.258,3.258,0,0,1,1.295-.992,4.356,4.356,0,0,1,1.8-.365,3.551,3.551,0,0,1,2.432.776,2.8,2.8,0,0,1,.913,2.137V13.9a5.054,5.054,0,0,0,.315,1.967V16Zm-2.548-1.17a2.7,2.7,0,0,0,1.37-.374,2.259,2.259,0,0,0,.938-.971V11.642h-1.2q-2.822,0-2.822,1.652a1.4,1.4,0,0,0,.481,1.129A1.85,1.85,0,0,0,81.862,14.83Zm9.853.083a2.212,2.212,0,0,0,1.436-.5,1.752,1.752,0,0,0,.681-1.245h1.453a2.785,2.785,0,0,1-.531,1.469,3.5,3.5,0,0,1-1.307,1.112,3.772,3.772,0,0,1-1.731.415A3.7,3.7,0,0,1,88.8,14.942a4.877,4.877,0,0,1-1.083-3.349v-.257A5.407,5.407,0,0,1,88.2,9a3.667,3.667,0,0,1,1.382-1.585,3.926,3.926,0,0,1,2.129-.564,3.6,3.6,0,0,1,2.511.9,3.234,3.234,0,0,1,1.067,2.349H93.832a2.116,2.116,0,0,0-.66-1.432,2.053,2.053,0,0,0-1.465-.56,2.149,2.149,0,0,0-1.814.843,3.957,3.957,0,0,0-.643,2.436v.291a3.878,3.878,0,0,0,.639,2.391A2.16,2.16,0,0,0,91.715,14.913ZM98.68,16H97.144V7.019H98.68ZM97.02,4.636a.917.917,0,0,1,.228-.631.857.857,0,0,1,.677-.257.87.87,0,0,1,.681.257.907.907,0,0,1,.232.631.877.877,0,0,1-.232.623.886.886,0,0,1-.681.249.872.872,0,0,1-.677-.249A.886.886,0,0,1,97.02,4.636Zm3.71,6.79a5.3,5.3,0,0,1,.519-2.374,3.87,3.87,0,0,1,1.444-1.627,3.932,3.932,0,0,1,2.113-.573,3.788,3.788,0,0,1,2.968,1.27,4.886,4.886,0,0,1,1.133,3.378v.108a5.351,5.351,0,0,1-.5,2.353,3.813,3.813,0,0,1-1.436,1.623,3.977,3.977,0,0,1-2.146.581,3.778,3.778,0,0,1-2.959-1.27,4.861,4.861,0,0,1-1.133-3.362Zm1.544.183a3.842,3.842,0,0,0,.693,2.4A2.349,2.349,0,0,0,106.682,14a4.2,4.2,0,0,0,.689-2.569,3.836,3.836,0,0,0-.7-2.395,2.23,2.23,0,0,0-1.864-.917,2.205,2.205,0,0,0-1.834.9A4.17,4.17,0,0,0,102.274,11.609ZM105.5,3.25h1.859l-2.225,2.44-1.237,0Zm6.782,3.769.05,1.129a3.273,3.273,0,0,1,2.689-1.295q2.847,0,2.872,3.212V16H116.36V10.057a2.068,2.068,0,0,0-.444-1.436,1.78,1.78,0,0,0-1.357-.465,2.216,2.216,0,0,0-1.312.4,2.706,2.706,0,0,0-.88,1.046V16h-1.536V7.019Z" transform="translate(951 6100)" fill="#12263f"/>
    <path id="Trazado_606882" data-name="Trazado 606882" d="M.789,11.435A5.261,5.261,0,0,1,1.768,8.11,3.1,3.1,0,0,1,4.333,6.853a3.115,3.115,0,0,1,2.5,1.079V3.25H8.367V16H6.956l-.075-.963a3.127,3.127,0,0,1-2.565,1.129,3.068,3.068,0,0,1-2.544-1.278,5.321,5.321,0,0,1-.984-3.337Zm1.536.174A3.984,3.984,0,0,0,2.955,14a2.039,2.039,0,0,0,1.743.863,2.24,2.24,0,0,0,2.133-1.312V9.426a2.257,2.257,0,0,0-2.117-1.27,2.049,2.049,0,0,0-1.76.872A4.386,4.386,0,0,0,2.324,11.609Zm12.152,4.557a3.924,3.924,0,0,1-2.972-1.2,4.452,4.452,0,0,1-1.146-3.208v-.282a5.39,5.39,0,0,1,.51-2.386A3.982,3.982,0,0,1,12.3,7.446a3.59,3.59,0,0,1,1.988-.594,3.364,3.364,0,0,1,2.723,1.154,5,5,0,0,1,.971,3.3v.639H11.9a3.193,3.193,0,0,0,.776,2.146,2.44,2.44,0,0,0,1.888.818,2.675,2.675,0,0,0,1.378-.332,3.462,3.462,0,0,0,.988-.88l.938.73A3.772,3.772,0,0,1,14.477,16.166Zm-.191-8.052a2.048,2.048,0,0,0-1.561.677,3.288,3.288,0,0,0-.78,1.9h4.5v-.116a2.925,2.925,0,0,0-.631-1.814A1.928,1.928,0,0,0,14.286,8.114ZM21.424,16H19.889V3.25h1.536Zm14.252-4.391a5.378,5.378,0,0,1-.938,3.3,3.006,3.006,0,0,1-2.54,1.253,3.294,3.294,0,0,1-2.573-1.038v4.325H28.09V7.019h1.4l.075,1a3.163,3.163,0,0,1,2.606-1.162,3.063,3.063,0,0,1,2.561,1.22,5.437,5.437,0,0,1,.942,3.4Zm-1.536-.174a3.968,3.968,0,0,0-.647-2.4,2.086,2.086,0,0,0-1.776-.88,2.257,2.257,0,0,0-2.092,1.237v4.292a2.262,2.262,0,0,0,2.108,1.229,2.076,2.076,0,0,0,1.756-.876A4.332,4.332,0,0,0,34.141,11.435ZM41.969,8.4a4.6,4.6,0,0,0-.755-.058,2.024,2.024,0,0,0-2.05,1.287V16H37.627V7.019h1.494l.025,1.038a2.391,2.391,0,0,1,2.142-1.2,1.569,1.569,0,0,1,.681.116Zm.838,3.03a5.3,5.3,0,0,1,.519-2.374A3.87,3.87,0,0,1,44.77,7.425a3.932,3.932,0,0,1,2.113-.573,3.788,3.788,0,0,1,2.968,1.27A4.886,4.886,0,0,1,50.983,11.5v.108a5.351,5.351,0,0,1-.5,2.353,3.813,3.813,0,0,1-1.436,1.623,3.977,3.977,0,0,1-2.146.581A3.778,3.778,0,0,1,43.94,14.9a4.861,4.861,0,0,1-1.133-3.362Zm1.544.183a3.842,3.842,0,0,0,.693,2.4A2.349,2.349,0,0,0,48.759,14a4.2,4.2,0,0,0,.689-2.569,3.836,3.836,0,0,0-.7-2.395,2.23,2.23,0,0,0-1.864-.917,2.205,2.205,0,0,0-1.834.9A4.17,4.17,0,0,0,44.351,11.609Zm12.161,3.3a2.212,2.212,0,0,0,1.436-.5,1.752,1.752,0,0,0,.681-1.245h1.453a2.785,2.785,0,0,1-.531,1.469,3.5,3.5,0,0,1-1.307,1.112,3.772,3.772,0,0,1-1.731.415,3.7,3.7,0,0,1-2.918-1.224,4.877,4.877,0,0,1-1.083-3.349v-.257A5.407,5.407,0,0,1,52.992,9a3.667,3.667,0,0,1,1.382-1.585A3.926,3.926,0,0,1,56.5,6.853a3.6,3.6,0,0,1,2.511.9,3.234,3.234,0,0,1,1.067,2.349H58.628a2.116,2.116,0,0,0-.66-1.432,2.053,2.053,0,0,0-1.465-.56,2.149,2.149,0,0,0-1.814.843,3.957,3.957,0,0,0-.643,2.436v.291a3.878,3.878,0,0,0,.639,2.391A2.16,2.16,0,0,0,56.512,14.913Zm9.023,1.253a3.924,3.924,0,0,1-2.972-1.2,4.452,4.452,0,0,1-1.146-3.208v-.282a5.39,5.39,0,0,1,.51-2.386,3.982,3.982,0,0,1,1.428-1.644,3.59,3.59,0,0,1,1.988-.594,3.364,3.364,0,0,1,2.723,1.154,5,5,0,0,1,.971,3.3v.639H62.953a3.193,3.193,0,0,0,.776,2.146,2.44,2.44,0,0,0,1.888.818A2.675,2.675,0,0,0,67,14.581a3.462,3.462,0,0,0,.988-.88l.938.73A3.772,3.772,0,0,1,65.535,16.166Zm-.191-8.052a2.048,2.048,0,0,0-1.561.677,3.288,3.288,0,0,0-.78,1.9h4.5v-.116a2.925,2.925,0,0,0-.631-1.814A1.928,1.928,0,0,0,65.344,8.114Zm10.7,5.5a1.131,1.131,0,0,0-.469-.967,4.514,4.514,0,0,0-1.635-.594,7.731,7.731,0,0,1-1.851-.6,2.633,2.633,0,0,1-1.013-.83,1.986,1.986,0,0,1-.328-1.146,2.33,2.33,0,0,1,.934-1.868,3.647,3.647,0,0,1,2.386-.764,3.753,3.753,0,0,1,2.478.789,2.5,2.5,0,0,1,.95,2.017H75.952a1.386,1.386,0,0,0-.535-1.087,2.006,2.006,0,0,0-1.349-.457,2.1,2.1,0,0,0-1.312.365,1.15,1.15,0,0,0-.473.955.932.932,0,0,0,.44.838,5.413,5.413,0,0,0,1.59.54,8.283,8.283,0,0,1,1.864.614,2.718,2.718,0,0,1,1.058.859,2.112,2.112,0,0,1,.344,1.224,2.3,2.3,0,0,1-.963,1.93,4.039,4.039,0,0,1-2.5.726,4.523,4.523,0,0,1-1.909-.382,3.105,3.105,0,0,1-1.3-1.067,2.571,2.571,0,0,1-.469-1.482h1.536a1.59,1.59,0,0,0,.618,1.224,2.4,2.4,0,0,0,1.523.452,2.476,2.476,0,0,0,1.4-.353A1.084,1.084,0,0,0,76.043,13.618Zm3.129-2.191a5.3,5.3,0,0,1,.519-2.374,3.87,3.87,0,0,1,1.444-1.627,3.932,3.932,0,0,1,2.113-.573,3.788,3.788,0,0,1,2.968,1.27A4.886,4.886,0,0,1,87.349,11.5v.108a5.351,5.351,0,0,1-.5,2.353,3.813,3.813,0,0,1-1.436,1.623,3.977,3.977,0,0,1-2.146.581,3.778,3.778,0,0,1-2.959-1.27,4.861,4.861,0,0,1-1.133-3.362Zm1.544.183a3.842,3.842,0,0,0,.693,2.4A2.349,2.349,0,0,0,85.125,14a4.2,4.2,0,0,0,.689-2.569,3.836,3.836,0,0,0-.7-2.395,2.23,2.23,0,0,0-1.864-.917,2.205,2.205,0,0,0-1.834.9A4.17,4.17,0,0,0,80.717,11.609Z" transform="translate(966 6123)" fill="#12263f"/>
    <path id="Trazado_606883" data-name="Trazado 606883" d="M1.4,16V3.914H4.814a5.492,5.492,0,0,1,2.789.7A4.716,4.716,0,0,1,9.475,6.6a6.457,6.457,0,0,1,.668,2.955v.772a6.48,6.48,0,0,1-.66,3A4.642,4.642,0,0,1,7.6,15.294,5.842,5.842,0,0,1,4.748,16ZM3,5.217V14.7H4.673A3.648,3.648,0,0,0,7.541,13.55a4.737,4.737,0,0,0,1.025-3.265V9.579a4.812,4.812,0,0,0-.967-3.2A3.441,3.441,0,0,0,4.856,5.217ZM13.979,16H12.443V7.019h1.536ZM12.318,4.636a.917.917,0,0,1,.228-.631.857.857,0,0,1,.677-.257.87.87,0,0,1,.681.257.907.907,0,0,1,.232.631.877.877,0,0,1-.232.623.886.886,0,0,1-.681.249.872.872,0,0,1-.677-.249A.886.886,0,0,1,12.318,4.636Zm9.347,8.981a1.131,1.131,0,0,0-.469-.967,4.514,4.514,0,0,0-1.635-.594,7.731,7.731,0,0,1-1.851-.6,2.633,2.633,0,0,1-1.013-.83,1.986,1.986,0,0,1-.328-1.146A2.33,2.33,0,0,1,17.3,7.616a3.647,3.647,0,0,1,2.386-.764,3.753,3.753,0,0,1,2.478.789,2.5,2.5,0,0,1,.95,2.017H21.574a1.386,1.386,0,0,0-.535-1.087,2.006,2.006,0,0,0-1.349-.457,2.1,2.1,0,0,0-1.312.365,1.15,1.15,0,0,0-.473.955.932.932,0,0,0,.44.838,5.413,5.413,0,0,0,1.59.54,8.283,8.283,0,0,1,1.864.614,2.718,2.718,0,0,1,1.058.859A2.112,2.112,0,0,1,23.2,13.51a2.3,2.3,0,0,1-.963,1.93,4.039,4.039,0,0,1-2.5.726,4.523,4.523,0,0,1-1.909-.382,3.105,3.105,0,0,1-1.3-1.067,2.571,2.571,0,0,1-.469-1.482H17.6a1.59,1.59,0,0,0,.618,1.224,2.4,2.4,0,0,0,1.523.452,2.476,2.476,0,0,0,1.4-.353A1.084,1.084,0,0,0,21.665,13.618Zm11.123-2.009a5.378,5.378,0,0,1-.938,3.3,3.006,3.006,0,0,1-2.54,1.253,3.294,3.294,0,0,1-2.573-1.038v4.325H25.2V7.019h1.4l.075,1a3.163,3.163,0,0,1,2.606-1.162,3.063,3.063,0,0,1,2.561,1.22,5.437,5.437,0,0,1,.942,3.4Zm-1.536-.174a3.968,3.968,0,0,0-.647-2.4,2.086,2.086,0,0,0-1.776-.88,2.257,2.257,0,0,0-2.092,1.237v4.292a2.262,2.262,0,0,0,2.108,1.229,2.076,2.076,0,0,0,1.756-.876A4.332,4.332,0,0,0,31.252,11.435Zm3.08-.008a5.3,5.3,0,0,1,.519-2.374A3.87,3.87,0,0,1,36.3,7.425a3.932,3.932,0,0,1,2.113-.573,3.788,3.788,0,0,1,2.968,1.27A4.886,4.886,0,0,1,42.508,11.5v.108a5.351,5.351,0,0,1-.5,2.353,3.813,3.813,0,0,1-1.436,1.623,3.977,3.977,0,0,1-2.146.581,3.778,3.778,0,0,1-2.959-1.27,4.861,4.861,0,0,1-1.133-3.362Zm1.544.183a3.842,3.842,0,0,0,.693,2.4A2.349,2.349,0,0,0,40.284,14a4.2,4.2,0,0,0,.689-2.569,3.836,3.836,0,0,0-.7-2.395,2.23,2.23,0,0,0-1.864-.917,2.205,2.205,0,0,0-1.834.9A4.17,4.17,0,0,0,35.876,11.609Zm10.011-4.59.05,1.129a3.273,3.273,0,0,1,2.689-1.295q2.847,0,2.872,3.212V16H49.962V10.057a2.068,2.068,0,0,0-.444-1.436,1.78,1.78,0,0,0-1.357-.465,2.216,2.216,0,0,0-1.312.4A2.706,2.706,0,0,0,45.97,9.6V16H44.434V7.019ZM55.482,16H53.947V7.019h1.536ZM53.822,4.636a.917.917,0,0,1,.228-.631.857.857,0,0,1,.677-.257.87.87,0,0,1,.681.257.907.907,0,0,1,.232.631.877.877,0,0,1-.232.623.886.886,0,0,1-.681.249.872.872,0,0,1-.677-.249A.886.886,0,0,1,53.822,4.636Zm11.721,6.973a5.34,5.34,0,0,1-.946,3.308,3.024,3.024,0,0,1-2.54,1.249,3.131,3.131,0,0,1-2.631-1.2L59.351,16H57.939V3.25h1.536V8.006A3.113,3.113,0,0,1,62.04,6.853a3.042,3.042,0,0,1,2.569,1.237,5.5,5.5,0,0,1,.934,3.387Zm-1.536-.174A4.15,4.15,0,0,0,63.4,9.011a2.006,2.006,0,0,0-1.743-.855,2.255,2.255,0,0,0-2.183,1.411v3.885a2.318,2.318,0,0,0,2.2,1.411,2,2,0,0,0,1.718-.855A4.413,4.413,0,0,0,64.007,11.435ZM69.146,16H67.61V7.019h1.536ZM67.485,4.636a.917.917,0,0,1,.228-.631.857.857,0,0,1,.677-.257.87.87,0,0,1,.681.257.907.907,0,0,1,.232.631.877.877,0,0,1-.232.623.886.886,0,0,1-.681.249.872.872,0,0,1-.677-.249A.886.886,0,0,1,67.485,4.636ZM73.271,16H71.735V3.25h1.536ZM77.4,16H75.861V7.019H77.4ZM75.736,4.636a.917.917,0,0,1,.228-.631.857.857,0,0,1,.677-.257.87.87,0,0,1,.681.257.907.907,0,0,1,.232.631.877.877,0,0,1-.232.623.886.886,0,0,1-.681.249.872.872,0,0,1-.677-.249A.886.886,0,0,1,75.736,4.636Zm3.744,6.8a5.261,5.261,0,0,1,.979-3.324,3.333,3.333,0,0,1,5.063-.178V3.25h1.536V16H85.647l-.075-.963a3.127,3.127,0,0,1-2.565,1.129,3.068,3.068,0,0,1-2.544-1.278,5.321,5.321,0,0,1-.984-3.337Zm1.536.174A3.984,3.984,0,0,0,81.646,14a2.039,2.039,0,0,0,1.743.863,2.24,2.24,0,0,0,2.133-1.312V9.426a2.257,2.257,0,0,0-2.117-1.27,2.049,2.049,0,0,0-1.76.872A4.386,4.386,0,0,0,81.016,11.609ZM94.986,16a3.226,3.226,0,0,1-.216-.946,3.426,3.426,0,0,1-2.557,1.112,3.17,3.17,0,0,1-2.179-.751,2.43,2.43,0,0,1-.851-1.905,2.539,2.539,0,0,1,1.067-2.179,5.029,5.029,0,0,1,3-.776h1.494V9.849a1.725,1.725,0,0,0-.481-1.282,1.935,1.935,0,0,0-1.419-.477,2.239,2.239,0,0,0-1.378.415,1.223,1.223,0,0,0-.556,1H89.366a2.119,2.119,0,0,1,.477-1.3,3.258,3.258,0,0,1,1.295-.992,4.356,4.356,0,0,1,1.8-.365,3.551,3.551,0,0,1,2.432.776,2.8,2.8,0,0,1,.913,2.137V13.9a5.054,5.054,0,0,0,.315,1.967V16Zm-2.548-1.17a2.7,2.7,0,0,0,1.37-.374,2.259,2.259,0,0,0,.938-.971V11.642h-1.2q-2.822,0-2.822,1.652a1.4,1.4,0,0,0,.481,1.129A1.85,1.85,0,0,0,92.438,14.83Zm5.877-3.4a5.261,5.261,0,0,1,.979-3.324,3.333,3.333,0,0,1,5.063-.178V3.25h1.536V16h-1.411l-.075-.963a3.127,3.127,0,0,1-2.565,1.129A3.068,3.068,0,0,1,99.3,14.888a5.321,5.321,0,0,1-.984-3.337Zm1.536.174A3.984,3.984,0,0,0,100.481,14a2.039,2.039,0,0,0,1.743.863,2.24,2.24,0,0,0,2.133-1.312V9.426a2.257,2.257,0,0,0-2.117-1.27,2.049,2.049,0,0,0-1.76.872A4.386,4.386,0,0,0,99.85,11.609Zm12.26-.174a5.261,5.261,0,0,1,.979-3.324,3.333,3.333,0,0,1,5.063-.178V3.25h1.536V16h-1.411l-.075-.963a3.127,3.127,0,0,1-2.565,1.129,3.068,3.068,0,0,1-2.544-1.278,5.321,5.321,0,0,1-.984-3.337Zm1.536.174A3.984,3.984,0,0,0,114.277,14a2.039,2.039,0,0,0,1.743.863,2.24,2.24,0,0,0,2.133-1.312V9.426a2.257,2.257,0,0,0-2.117-1.27,2.049,2.049,0,0,0-1.76.872A4.386,4.386,0,0,0,113.646,11.609ZM125.8,16.166a3.924,3.924,0,0,1-2.972-1.2,4.452,4.452,0,0,1-1.146-3.208v-.282a5.39,5.39,0,0,1,.51-2.386,3.982,3.982,0,0,1,1.428-1.644,3.59,3.59,0,0,1,1.988-.594,3.364,3.364,0,0,1,2.723,1.154,5,5,0,0,1,.971,3.3v.639h-6.084a3.193,3.193,0,0,0,.776,2.146,2.44,2.44,0,0,0,1.888.818,2.675,2.675,0,0,0,1.378-.332,3.462,3.462,0,0,0,.988-.88l.938.73A3.772,3.772,0,0,1,125.8,16.166Zm-.191-8.052a2.048,2.048,0,0,0-1.561.677,3.288,3.288,0,0,0-.78,1.9h4.5v-.116a2.925,2.925,0,0,0-.631-1.814A1.928,1.928,0,0,0,125.607,8.114Z" transform="translate(525 6100)" fill="#12263f"/>
    <path id="Trazado_606884" data-name="Trazado 606884" d="M.789,11.435A5.261,5.261,0,0,1,1.768,8.11,3.1,3.1,0,0,1,4.333,6.853a3.115,3.115,0,0,1,2.5,1.079V3.25H8.367V16H6.956l-.075-.963a3.127,3.127,0,0,1-2.565,1.129,3.068,3.068,0,0,1-2.544-1.278,5.321,5.321,0,0,1-.984-3.337Zm1.536.174A3.984,3.984,0,0,0,2.955,14a2.039,2.039,0,0,0,1.743.863,2.24,2.24,0,0,0,2.133-1.312V9.426a2.257,2.257,0,0,0-2.117-1.27,2.049,2.049,0,0,0-1.76.872A4.386,4.386,0,0,0,2.324,11.609ZM16.294,16a3.226,3.226,0,0,1-.216-.946,3.426,3.426,0,0,1-2.557,1.112,3.17,3.17,0,0,1-2.179-.751,2.43,2.43,0,0,1-.851-1.905,2.539,2.539,0,0,1,1.067-2.179,5.029,5.029,0,0,1,3-.776h1.494V9.849a1.725,1.725,0,0,0-.481-1.282,1.935,1.935,0,0,0-1.419-.477,2.239,2.239,0,0,0-1.378.415,1.223,1.223,0,0,0-.556,1H10.675a2.119,2.119,0,0,1,.477-1.3,3.258,3.258,0,0,1,1.295-.992,4.356,4.356,0,0,1,1.8-.365,3.551,3.551,0,0,1,2.432.776,2.8,2.8,0,0,1,.913,2.137V13.9a5.054,5.054,0,0,0,.315,1.967V16Zm-2.548-1.17a2.7,2.7,0,0,0,1.37-.374,2.259,2.259,0,0,0,.938-.971V11.642h-1.2q-2.822,0-2.822,1.652a1.4,1.4,0,0,0,.481,1.129A1.85,1.85,0,0,0,13.746,14.83ZM22.08,4.844V7.019h1.677V8.206H22.08v5.577a1.247,1.247,0,0,0,.224.81.943.943,0,0,0,.764.27,3.718,3.718,0,0,0,.73-.1V16a4.478,4.478,0,0,1-1.179.165,1.912,1.912,0,0,1-1.552-.623,2.675,2.675,0,0,1-.523-1.768V8.206H18.909V7.019h1.635V4.844Zm2.9,6.583A5.3,5.3,0,0,1,25.5,9.052,3.87,3.87,0,0,1,26.94,7.425a3.932,3.932,0,0,1,2.113-.573,3.788,3.788,0,0,1,2.968,1.27A4.886,4.886,0,0,1,33.153,11.5v.108a5.351,5.351,0,0,1-.5,2.353,3.813,3.813,0,0,1-1.436,1.623,3.977,3.977,0,0,1-2.146.581A3.778,3.778,0,0,1,26.11,14.9a4.861,4.861,0,0,1-1.133-3.362Zm1.544.183a3.842,3.842,0,0,0,.693,2.4A2.349,2.349,0,0,0,30.929,14a4.2,4.2,0,0,0,.689-2.569,3.836,3.836,0,0,0-.7-2.395,2.23,2.23,0,0,0-1.864-.917,2.205,2.205,0,0,0-1.834.9A4.17,4.17,0,0,0,26.521,11.609Zm13.788,2.009a1.13,1.13,0,0,0-.469-.967,4.514,4.514,0,0,0-1.635-.594,7.731,7.731,0,0,1-1.851-.6,2.633,2.633,0,0,1-1.013-.83,1.986,1.986,0,0,1-.328-1.146,2.33,2.33,0,0,1,.934-1.868,3.647,3.647,0,0,1,2.386-.764,3.753,3.753,0,0,1,2.478.789,2.5,2.5,0,0,1,.95,2.017H40.217a1.386,1.386,0,0,0-.535-1.087,2.006,2.006,0,0,0-1.349-.457,2.1,2.1,0,0,0-1.312.365,1.15,1.15,0,0,0-.473.955.932.932,0,0,0,.44.838,5.413,5.413,0,0,0,1.59.54,8.283,8.283,0,0,1,1.864.614,2.718,2.718,0,0,1,1.058.859,2.112,2.112,0,0,1,.344,1.224,2.3,2.3,0,0,1-.963,1.93,4.039,4.039,0,0,1-2.5.726,4.523,4.523,0,0,1-1.909-.382,3.105,3.105,0,0,1-1.3-1.067,2.571,2.571,0,0,1-.469-1.482h1.536a1.59,1.59,0,0,0,.618,1.224,2.4,2.4,0,0,0,1.523.452,2.476,2.476,0,0,0,1.4-.353A1.084,1.084,0,0,0,40.309,13.618ZM51.78,16.166a3.924,3.924,0,0,1-2.972-1.2,4.452,4.452,0,0,1-1.146-3.208v-.282a5.39,5.39,0,0,1,.51-2.386A3.982,3.982,0,0,1,49.6,7.446a3.59,3.59,0,0,1,1.988-.594,3.364,3.364,0,0,1,2.723,1.154,5,5,0,0,1,.971,3.3v.639H49.2a3.193,3.193,0,0,0,.776,2.146,2.44,2.44,0,0,0,1.888.818,2.675,2.675,0,0,0,1.378-.332,3.462,3.462,0,0,0,.988-.88l.938.73A3.772,3.772,0,0,1,51.78,16.166Zm-.191-8.052a2.048,2.048,0,0,0-1.561.677,3.288,3.288,0,0,0-.78,1.9h4.5v-.116a2.925,2.925,0,0,0-.631-1.814A1.928,1.928,0,0,0,51.589,8.114ZM62.937,16H61.4V7.019h1.536ZM61.276,4.636a.917.917,0,0,1,.228-.631.857.857,0,0,1,.677-.257.87.87,0,0,1,.681.257.907.907,0,0,1,.232.631.877.877,0,0,1-.232.623.886.886,0,0,1-.681.249.872.872,0,0,1-.677-.249A.886.886,0,0,1,61.276,4.636Zm5.57,2.382.05,1.129a3.273,3.273,0,0,1,2.689-1.295q2.847,0,2.872,3.212V16H70.922V10.057a2.068,2.068,0,0,0-.444-1.436,1.78,1.78,0,0,0-1.357-.465,2.216,2.216,0,0,0-1.312.4,2.706,2.706,0,0,0-.88,1.046V16H65.394V7.019ZM75.529,16V8.206H74.109V7.019h1.419V6.1A3.058,3.058,0,0,1,76.3,3.864a2.916,2.916,0,0,1,2.183-.789,4.055,4.055,0,0,1,1.054.14l-.083,1.238a4.41,4.41,0,0,0-.83-.075,1.5,1.5,0,0,0-1.154.437,1.773,1.773,0,0,0-.407,1.253v.949h1.917V8.206H77.064V16Zm4.74-4.574a5.3,5.3,0,0,1,.519-2.374,3.87,3.87,0,0,1,1.444-1.627,3.932,3.932,0,0,1,2.113-.573,3.788,3.788,0,0,1,2.968,1.27A4.886,4.886,0,0,1,88.445,11.5v.108a5.351,5.351,0,0,1-.5,2.353,3.813,3.813,0,0,1-1.436,1.623,3.977,3.977,0,0,1-2.146.581A3.778,3.778,0,0,1,81.4,14.9a4.861,4.861,0,0,1-1.133-3.362Zm1.544.183a3.842,3.842,0,0,0,.693,2.4A2.349,2.349,0,0,0,86.22,14a4.2,4.2,0,0,0,.689-2.569,3.836,3.836,0,0,0-.7-2.395,2.23,2.23,0,0,0-1.864-.917,2.205,2.205,0,0,0-1.834.9A4.17,4.17,0,0,0,81.813,11.609ZM94.712,8.4a4.6,4.6,0,0,0-.755-.058,2.024,2.024,0,0,0-2.05,1.287V16H90.371V7.019h1.494l.025,1.038a2.391,2.391,0,0,1,2.142-1.2,1.569,1.569,0,0,1,.681.116Zm2.855-1.378.042,1a3.317,3.317,0,0,1,2.665-1.162A2.568,2.568,0,0,1,102.838,8.3,3.4,3.4,0,0,1,104,7.251a3.445,3.445,0,0,1,1.7-.4q2.955,0,3,3.129V16h-1.536V10.073a2.062,2.062,0,0,0-.44-1.44,1.937,1.937,0,0,0-1.478-.477,2.036,2.036,0,0,0-1.419.51,2.071,2.071,0,0,0-.656,1.374V16h-1.544V10.115a1.713,1.713,0,0,0-1.917-1.959A2.055,2.055,0,0,0,97.65,9.442V16H96.115V7.019Zm19,8.981a3.226,3.226,0,0,1-.216-.946,3.426,3.426,0,0,1-2.557,1.112,3.17,3.17,0,0,1-2.179-.751,2.43,2.43,0,0,1-.851-1.905,2.539,2.539,0,0,1,1.067-2.179,5.029,5.029,0,0,1,3-.776h1.494V9.849a1.725,1.725,0,0,0-.481-1.282,1.935,1.935,0,0,0-1.419-.477,2.239,2.239,0,0,0-1.378.415,1.223,1.223,0,0,0-.556,1h-1.544a2.119,2.119,0,0,1,.477-1.3,3.258,3.258,0,0,1,1.295-.992,4.356,4.356,0,0,1,1.8-.365,3.551,3.551,0,0,1,2.432.776,2.8,2.8,0,0,1,.913,2.137V13.9a5.054,5.054,0,0,0,.315,1.967V16Zm-2.548-1.17a2.7,2.7,0,0,0,1.37-.374,2.259,2.259,0,0,0,.938-.971V11.642h-1.2q-2.822,0-2.822,1.652a1.4,1.4,0,0,0,.481,1.129A1.85,1.85,0,0,0,114.02,14.83Zm9.853.083a2.212,2.212,0,0,0,1.436-.5,1.752,1.752,0,0,0,.681-1.245h1.453a2.785,2.785,0,0,1-.531,1.469,3.5,3.5,0,0,1-1.307,1.112,3.772,3.772,0,0,1-1.731.415,3.7,3.7,0,0,1-2.918-1.224,4.877,4.877,0,0,1-1.083-3.349v-.257A5.407,5.407,0,0,1,120.353,9a3.667,3.667,0,0,1,1.382-1.585,3.926,3.926,0,0,1,2.129-.564,3.6,3.6,0,0,1,2.511.9,3.234,3.234,0,0,1,1.067,2.349h-1.453a2.116,2.116,0,0,0-.66-1.432,2.053,2.053,0,0,0-1.465-.56,2.149,2.149,0,0,0-1.814.843,3.957,3.957,0,0,0-.643,2.436v.291a3.878,3.878,0,0,0,.639,2.391A2.16,2.16,0,0,0,123.873,14.913ZM130.837,16H129.3V7.019h1.536Zm-1.66-11.364a.917.917,0,0,1,.228-.631.857.857,0,0,1,.677-.257.87.87,0,0,1,.681.257.907.907,0,0,1,.232.631.877.877,0,0,1-.232.623.886.886,0,0,1-.681.249.872.872,0,0,1-.677-.249A.886.886,0,0,1,129.177,4.636Zm3.71,6.79a5.3,5.3,0,0,1,.519-2.374,3.87,3.87,0,0,1,1.444-1.627,3.932,3.932,0,0,1,2.113-.573,3.788,3.788,0,0,1,2.968,1.27,4.886,4.886,0,0,1,1.133,3.378v.108a5.351,5.351,0,0,1-.5,2.353,3.813,3.813,0,0,1-1.436,1.623,3.977,3.977,0,0,1-2.146.581,3.778,3.778,0,0,1-2.959-1.27,4.861,4.861,0,0,1-1.133-3.362Zm1.544.183a3.842,3.842,0,0,0,.693,2.4A2.349,2.349,0,0,0,138.839,14a4.2,4.2,0,0,0,.689-2.569,3.836,3.836,0,0,0-.7-2.395,2.23,2.23,0,0,0-1.864-.917,2.205,2.205,0,0,0-1.834.9A4.17,4.17,0,0,0,134.431,11.609ZM137.66,3.25h1.859l-2.225,2.44-1.237,0Zm6.782,3.769.05,1.129a3.273,3.273,0,0,1,2.689-1.295q2.847,0,2.872,3.212V16h-1.536V10.057a2.068,2.068,0,0,0-.444-1.436,1.78,1.78,0,0,0-1.357-.465,2.216,2.216,0,0,0-1.312.4,2.706,2.706,0,0,0-.88,1.046V16h-1.536V7.019Z" transform="translate(513 6123)" fill="#12263f"/>
    <g id="Grupo_161729" data-name="Grupo 161729" transform="translate(-719 6789.917) rotate(-90)">
      <g id="Grupo_160582" data-name="Grupo 160582" transform="translate(932 1634)">
        <g id="Grupo_160578" data-name="Grupo 160578" transform="translate(23.916 66.734) rotate(90)">
          <g id="Grupo_160577" data-name="Grupo 160577" transform="translate(0 0)" clip-path="url(#clip-path)">
            <path id="Trazado_600822" data-name="Trazado 600822" d="M1.787,23.916A1.787,1.787,0,0,1,.523,20.866l8.908-8.908L.523,3.05A1.787,1.787,0,0,1,3.05.523L13.222,10.695a1.787,1.787,0,0,1,0,2.527L3.05,23.393a1.784,1.784,0,0,1-1.263.523" transform="translate(4.521 0)" fill="#144567"/>
          </g>
        </g>
        <rect id="Rectángulo_46641" data-name="Rectángulo 46641" width="74.251" height="3.417" rx="1.708" transform="translate(13.667) rotate(90)" fill="#144567"/>
      </g>
      <path id="Trazado_600829" data-name="Trazado 600829" d="M1.266,16.944a1.266,1.266,0,0,1-.9-2.161L6.682,8.472.371,2.161A1.266,1.266,0,0,1,2.161.371L9.367,7.577a1.266,1.266,0,0,1,0,1.79L2.161,16.574a1.264,1.264,0,0,1-.9.371" transform="translate(952.5 1700.734) rotate(90)" fill="#144567"/>
    </g>
    <g id="Grupo_160578-2" data-name="Grupo 160578" transform="translate(1143.266 6133) rotate(180)">
      <g id="Grupo_160577-2" data-name="Grupo 160577" transform="translate(0 0)" clip-path="url(#clip-path)">
        <path id="Trazado_600822-2" data-name="Trazado 600822" d="M1.787,23.916A1.787,1.787,0,0,1,.523,20.866l8.908-8.908L.523,3.05A1.787,1.787,0,0,1,3.05.523L13.222,10.695a1.787,1.787,0,0,1,0,2.527L3.05,23.393a1.784,1.784,0,0,1-1.263.523" transform="translate(4.521 0)" fill="#144567"/>
      </g>
    </g>
    <rect id="Rectángulo_46641-2" data-name="Rectángulo 46641" width="179" height="3.417" rx="1.708" transform="translate(1315 6122.75) rotate(180)" fill="#144567"/>
    <rect id="Rectángulo_47785" data-name="Rectángulo 47785" width="189.551" height="3.417" rx="1.708" transform="translate(285.449 6119.583)" fill="#144567"/>
    <rect id="Rectángulo_47784" data-name="Rectángulo 47784" width="68.064" height="3.417" rx="1.708" transform="translate(1315 5863.417) rotate(180)" fill="#144567"/>
    <path id="Trazado_600829-2" data-name="Trazado 600829" d="M1.266,16.944a1.266,1.266,0,0,1-.9-2.161L6.682,8.472.371,2.161A1.266,1.266,0,0,1,2.161.371L9.367,7.577a1.266,1.266,0,0,1,0,1.79L2.161,16.574a1.264,1.264,0,0,1-.9.371" transform="translate(1143.266 6129.583) rotate(180)" fill="#144567"/>
    <g id="Grupo_161732" data-name="Grupo 161732" transform="translate(877.045 6109) rotate(90)">
      <g id="Grupo_160582-2" data-name="Grupo 160582" transform="translate(0 0)">
        <g id="Grupo_160578-3" data-name="Grupo 160578" transform="translate(23.916 133.779) rotate(90)">
          <g id="Grupo_160577-3" data-name="Grupo 160577" transform="translate(0 0)" clip-path="url(#clip-path)">
            <path id="Trazado_600822-3" data-name="Trazado 600822" d="M1.787,23.916A1.787,1.787,0,0,1,.523,20.866l8.908-8.908L.523,3.05A1.787,1.787,0,0,1,3.05.523L13.222,10.695a1.787,1.787,0,0,1,0,2.527L3.05,23.393a1.784,1.784,0,0,1-1.263.523" transform="translate(4.521 0)" fill="#144567"/>
          </g>
        </g>
        <rect id="Rectángulo_46641-3" data-name="Rectángulo 46641" width="141.295" height="3.417" rx="1.708" transform="translate(13.667) rotate(90)" fill="#144567"/>
      </g>
      <path id="Trazado_600829-3" data-name="Trazado 600829" d="M1.266,16.944a1.266,1.266,0,0,1-.9-2.161L6.682,8.472.371,2.161A1.266,1.266,0,0,1,2.161.371L9.367,7.577a1.266,1.266,0,0,1,0,1.79L2.161,16.574a1.264,1.264,0,0,1-.9.371" transform="translate(20.5 133.779) rotate(90)" fill="#144567"/>
    </g>
    <g id="Grupo_161730" data-name="Grupo 161730" transform="translate(-1034 6789.917) rotate(-90)">
      <g id="Grupo_160582-3" data-name="Grupo 160582" transform="translate(932 1634)">
        <g id="Grupo_160578-4" data-name="Grupo 160578" transform="translate(23.916 66.734) rotate(90)">
          <g id="Grupo_160577-4" data-name="Grupo 160577" transform="translate(0 0)" clip-path="url(#clip-path)">
            <path id="Trazado_600822-4" data-name="Trazado 600822" d="M1.787,23.916A1.787,1.787,0,0,1,.523,20.866l8.908-8.908L.523,3.05A1.787,1.787,0,0,1,3.05.523L13.222,10.695a1.787,1.787,0,0,1,0,2.527L3.05,23.393a1.784,1.784,0,0,1-1.263.523" transform="translate(4.521 0)" fill="#144567"/>
          </g>
        </g>
        <rect id="Rectángulo_46641-4" data-name="Rectángulo 46641" width="74.251" height="3.417" rx="1.708" transform="translate(13.667) rotate(90)" fill="#144567"/>
      </g>
      <path id="Trazado_600829-4" data-name="Trazado 600829" d="M1.266,16.944a1.266,1.266,0,0,1-.9-2.161L6.682,8.472.371,2.161A1.266,1.266,0,0,1,2.161.371L9.367,7.577a1.266,1.266,0,0,1,0,1.79L2.161,16.574a1.264,1.264,0,0,1-.9.371" transform="translate(952.5 1700.734) rotate(90)" fill="#144567"/>
    </g>
    <g id="Grupo_160578-5" data-name="Grupo 160578" transform="translate(334.734 5850)">
      <g id="Grupo_160577-5" data-name="Grupo 160577" transform="translate(0 0)" clip-path="url(#clip-path)">
        <path id="Trazado_600822-5" data-name="Trazado 600822" d="M1.787,23.916A1.787,1.787,0,0,1,.523,20.866l8.908-8.908L.523,3.05A1.787,1.787,0,0,1,3.05.523L13.222,10.695a1.787,1.787,0,0,1,0,2.527L3.05,23.393a1.784,1.784,0,0,1-1.263.523" transform="translate(4.521 0)" fill="#144567"/>
      </g>
    </g>
    <rect id="Rectángulo_46641-5" data-name="Rectángulo 46641" width="57.251" height="3.417" rx="1.708" transform="translate(285 5860.25)" fill="#144567"/>
    <path id="Trazado_600829-5" data-name="Trazado 600829" d="M1.266,16.944a1.266,1.266,0,0,1-.9-2.161L6.682,8.472.371,2.161A1.266,1.266,0,0,1,2.161.371L9.367,7.577a1.266,1.266,0,0,1,0,1.79L2.161,16.574a1.264,1.264,0,0,1-.9.371" transform="translate(334.734 5853.417)" fill="#144567"/>
    <rect id="Rectángulo_47783" data-name="Rectángulo 47783" width="262.75" height="3.417" rx="1" transform="translate(1311.583 6122.75) rotate(-90)" fill="#144567"/>
    <rect id="Rectángulo_47786" data-name="Rectángulo 47786" width="261" height="3.417" rx="1" transform="translate(285 6123) rotate(-90)" fill="#144567"/>
    <g id="Grupo_161735" data-name="Grupo 161735" transform="translate(495 5888.462)">
      <g id="Grupo_161734" data-name="Grupo 161734" clip-path="url(#clip-path-6)">
        <path id="Trazado_604352" data-name="Trazado 604352" d="M557.007,79.408a52.765,52.765,0,0,0-25.222,6.376h0l-.018.01c-.033.017-.065.036-.1.055-7.446,4.176-12.736,7.5-20.366,7.5-15.725,0-27.92-16.372-27.95-32.1a52.993,52.993,0,1,0-104.7,0c-.03,15.727-12.224,32.1-27.95,32.1-7.629,0-12.919-3.329-20.364-7.5l-.1-.057-.017-.01h0a53.073,53.073,0,0,0-50.443,0h0l-.017.01-.1.057c-7.446,4.174-12.735,7.5-20.364,7.5-15.725,0-27.92-16.372-27.95-32.1a52.994,52.994,0,1,0-104.7,0c-.03,15.727-12.225,32.1-27.95,32.1-7.63,0-12.92-3.329-20.367-7.5-.033-.018-.065-.037-.1-.055l-.018-.01h0a53.048,53.048,0,1,0,26.818,36.624c-.04-.616-.071-1.233-.071-1.858A28.508,28.508,0,0,1,133.47,92.041c7.393,0,11.36,2.5,19.631,7.2l.012-.007a52.969,52.969,0,0,0,51.769,0l.012.007c8.27-4.7,12.236-7.2,19.63-7.2a28.509,28.509,0,0,1,28.509,28.509c0,.625-.031,1.242-.071,1.858a52.993,52.993,0,1,0,104.079,0c-.04-.616-.071-1.233-.071-1.858a28.508,28.508,0,0,1,28.508-28.509c7.393,0,11.36,2.5,19.63,7.2l.013-.007a52.967,52.967,0,0,0,51.768,0l.013.007c8.269-4.7,12.236-7.2,19.63-7.2a28.509,28.509,0,0,1,28.509,28.509c0,.625-.032,1.242-.071,1.858a52.991,52.991,0,1,0,52.039-43" transform="translate(0 0)" fill="url(#linear-gradient)"/>
        <path id="Trazado_604353" data-name="Trazado 604353" d="M239.293,55.111a39.048,39.048,0,1,0-39.048,39.048,39.048,39.048,0,0,0,39.048-39.048" transform="translate(-21.248 -2.117)" fill="#fff"/>
        <path id="Trazado_604354" data-name="Trazado 604354" d="M94.159,146.576a39.048,39.048,0,1,0-39.048,39.048,39.048,39.048,0,0,0,39.048-39.048" transform="translate(-2.117 -14.174)" fill="#fff"/>
        <path id="Trazado_604355" data-name="Trazado 604355" d="M306.331,146.576a39.048,39.048,0,1,1,39.048,39.048,39.048,39.048,0,0,1-39.048-39.048" transform="translate(-40.379 -14.174)" fill="#fff"/>
        <path id="Trazado_604356" data-name="Trazado 604356" d="M529.56,55.111a39.048,39.048,0,1,0-39.048,39.048A39.048,39.048,0,0,0,529.56,55.111" transform="translate(-59.509 -2.117)" fill="#fff"/>
        <path id="Trazado_604357" data-name="Trazado 604357" d="M596.6,146.576a39.048,39.048,0,1,1,39.048,39.048A39.048,39.048,0,0,1,596.6,146.576" transform="translate(-78.64 -14.174)" fill="#fff"/>
      </g>
    </g>
    <g id="Grupo_161737" data-name="Grupo 161737" transform="translate(1027.391 5996.763)">
      <g id="Grupo_161736" data-name="Grupo 161736" clip-path="url(#clip-path-7)">
        <path id="Trazado_604358" data-name="Trazado 604358" d="M9.416,48.833a9.392,9.392,0,0,1-.968-.371,3.281,3.281,0,0,1-1.907-2.769c-.055-.643-.01-1.294-.01-2-1.048,0-2.013-.007-2.978,0a3.4,3.4,0,0,1-2.1-.656A3.5,3.5,0,0,1,0,40.035q0-3.147,0-6.294Q0,19.771,0,5.8A3.455,3.455,0,0,1,2.368,2.269a4.716,4.716,0,0,1,1.4-.184q11.61-.016,23.221-.019a1.625,1.625,0,0,0,.87-.264A10,10,0,0,1,43.515,8.718a9.682,9.682,0,0,1-4.684,9.83.84.84,0,0,0-.451.829c.028,1.319.008,2.638.011,3.957a1.019,1.019,0,0,1-.593,1.049.938.938,0,0,1-1.309-.915c-.016-1.081,0-2.162-.005-3.242,0-.174,0-.347,0-.591a11.013,11.013,0,0,1-4.592.272v.665q0,9.679,0,19.358a3.472,3.472,0,0,1-2.42,3.588,4.778,4.778,0,0,1-1.361.168q-9.536.016-19.072.007H8.467a18.333,18.333,0,0,0,.018,2.071,1.466,1.466,0,0,0,1.355,1.153c.142.013.286.007.429.007H34.585c1.311,0,1.9-.58,1.9-1.884q0-6.27,0-12.54c0-.887.309-1.315.947-1.314s.96.45.96,1.317q0,6.032,0,12.063c0,2.52-.617,3.416-2.938,4.265ZM25.609,3.984H3.759c-1.279,0-1.851.578-1.851,1.872q0,17.021,0,34.041c0,1.32.569,1.889,1.883,1.889H28.058c1.376,0,1.926-.554,1.926-1.942q0-5.888,0-11.776c0-2.765,0-5.531.006-8.3a.531.531,0,0,0-.36-.57,13.88,13.88,0,0,1-1.7-.943,9.832,9.832,0,0,1-2.77-2.844,6.1,6.1,0,0,1-.834.12q-8.367.01-16.735,0c-.836,0-1.187-.351-1.192-1.19-.006-1.112,0-2.225,0-3.337,0-1.148.258-1.409,1.4-1.409h15.8a10.252,10.252,0,0,1,2.02-5.62m7.947,14.144A8.109,8.109,0,1,0,25.5,10a8.127,8.127,0,0,0,8.056,8.13M8.33,13.609H23.56V11.538H8.33Z" transform="translate(0 0.001)" fill="#144567"/>
        <path id="Trazado_604359" data-name="Trazado 604359" d="M286.385,211.774a.926.926,0,0,1,.94-.93.951.951,0,0,1,.953.977.964.964,0,0,1-.976.911.938.938,0,0,1-.917-.957" transform="translate(-249.896 -183.98)" fill="#144567"/>
        <path id="Trazado_604360" data-name="Trazado 604360" d="M59.8,220.834H51.6a3.977,3.977,0,0,1-.523-.019.935.935,0,0,1-.049-1.849,3.264,3.264,0,0,1,.569-.036q8.2,0,16.4,0c.9,0,1.359.337,1.343.98-.015.627-.447.926-1.34.926H59.8" transform="translate(-43.854 -191.034)" fill="#144567"/>
        <path id="Trazado_604361" data-name="Trazado 604361" d="M59.856,147.988h8.151a4.393,4.393,0,0,1,.571.022.935.935,0,0,1,.12,1.828,2.33,2.33,0,0,1-.566.054q-8.294,0-16.587,0c-.729,0-1.093-.23-1.209-.753a.92.92,0,0,1,.752-1.126,4.059,4.059,0,0,1,.618-.026q4.075,0,8.151,0" transform="translate(-43.901 -129.133)" fill="#144567"/>
        <path id="Trazado_604362" data-name="Trazado 604362" d="M59.792,254.48q4.219,0,8.437,0a1.012,1.012,0,0,1,1,.51.946.946,0,0,1-.695,1.382,2.773,2.773,0,0,1-.475.018H51.565c-.1,0-.191,0-.286,0a.975.975,0,0,1-1.02-.97.962.962,0,0,1,1.048-.933q4.243-.007,8.485,0" transform="translate(-43.855 -222.054)" fill="#144567"/>
        <path id="Trazado_604363" data-name="Trazado 604363" d="M59.8,185.342H51.556a4.146,4.146,0,0,1-.429-.008.947.947,0,0,1-.052-1.883,3.1,3.1,0,0,1,.476-.015H68.044a3.673,3.673,0,0,1,.429.009.949.949,0,0,1-.042,1.893c-.142.011-.286,0-.429,0H59.8" transform="translate(-43.854 -160.063)" fill="#144567"/>
        <path id="Trazado_604364" data-name="Trazado 604364" d="M256.339,65.615c0-1.032,0-2.063,0-3.095,0-.681.351-1.087.917-1.1a.974.974,0,0,1,.984,1.1q.013,3.118,0,6.237a.954.954,0,0,1-.954,1.074c-.577,0-.941-.4-.946-1.069-.008-1.047,0-2.095,0-3.142" transform="translate(-223.677 -53.592)" fill="#144567"/>
        <path id="Trazado_604365" data-name="Trazado 604365" d="M257.3,37.379a.947.947,0,0,1,.955.926.973.973,0,0,1-.968.971.948.948,0,0,1-.921-.961.921.921,0,0,1,.934-.936" transform="translate(-223.707 -32.616)" fill="#144567"/>
      </g>
    </g>
    <g id="Grupo_161739" data-name="Grupo 161739" transform="translate(648 5913)">
      <g id="Grupo_161738" data-name="Grupo 161738" clip-path="url(#clip-path-8)">
        <path id="Trazado_604366" data-name="Trazado 604366" d="M43.809,34.028a3.959,3.959,0,0,0-.569-5.2,4.107,4.107,0,0,0-2.9-1.026q-3.056.009-6.111,0c-1.709,0-3.418,0-5.152,0a.332.332,0,0,1-.352-.249,3.907,3.907,0,0,1-.162-2.039,23.556,23.556,0,0,0-.042-6.271,6.847,6.847,0,0,0-6.554-5.763,2.362,2.362,0,0,0-.476-.007A2.247,2.247,0,0,0,19.456,15.9c0,.416.006.834.013,1.251.014.872.029,1.773-.043,2.659a16.972,16.972,0,0,1-.637,3.984c-1.433,4.256-3.8,4.985-7.144,4.715v-.463a3.069,3.069,0,0,0-1.054-2.523,3.047,3.047,0,0,0-2.213-.743q-2.562-.012-5.119,0a4.191,4.191,0,0,0-1,.11,3.187,3.187,0,0,0-2.25,2.4L0,36.118l.063.072a1.148,1.148,0,0,0,1.342.492,1.18,1.18,0,0,0,.667-1.271V28.149c0-.963.339-1.3,1.3-1.3q2.481-.006,4.963,0c.882,0,1.242.352,1.242,1.2q.008,11.26,0,22.522c0,.856-.361,1.206-1.245,1.206-1.688.005-3.377.005-5.1,0a1.094,1.094,0,0,1-.28,0,1.033,1.033,0,0,1-.682-.4,1.058,1.058,0,0,1-.194-.8q-.01-5.513,0-11.025a1.144,1.144,0,0,0-.7-1.208,1.107,1.107,0,0,0-1.328.575L0,38.979V51.288l.019.1c.8,1.957,1.565,2.464,3.715,2.464H8.371c.065.005.131.007.2.007s.1,0,.155,0a3.077,3.077,0,0,0,2.921-3.21c.005-.219,0-.439,0-.659v-.125a2.967,2.967,0,0,1,2.477.748,8.97,8.97,0,0,0,6.586,2.474c4.2-.062,8.483-.052,12.619-.039q2.549.008,5.1.01c.285,0,.57-.005.856-.026a3.912,3.912,0,0,0,3.584-3.769,4.338,4.338,0,0,0-.648-2.334,4,4,0,0,0,.875-.552,3.969,3.969,0,0,0,.71-5.342,3.99,3.99,0,0,0,.006-7M37.258,45.176v.25l0,0v-.25l-1.094,0c-.732,0-1.466,0-2.2,0h-.069a1.954,1.954,0,0,1-1.3-.53,1.836,1.836,0,0,1-.546-1.306c0-.036,0-.071,0-.107a1.791,1.791,0,0,1,.557-1.263,1.738,1.738,0,0,1,1.3-.5c2.218-.023,4.468-.023,6.695,0h.085a1.815,1.815,0,0,1,1.775,1.865l0,.087A1.852,1.852,0,0,1,40.5,45.176Zm-2.737,5.791c-.8.007-1.627.014-2.431-.017a1.792,1.792,0,0,1-1.669-1.467,1.827,1.827,0,0,1,.964-2,2.178,2.178,0,0,1,.894-.217c2.013-.019,4.184-.023,6.661-.008a1.881,1.881,0,0,1,1.3.522,1.819,1.819,0,0,1,.553,1.3l0,.062a1.806,1.806,0,0,1-1.788,1.82c-.794.027-1.6.021-2.384.015-.349,0-.7-.006-1.048-.006v-.01c-.352,0-.7,0-1.056.006M15.783,49.313a5.06,5.06,0,0,0-2.609-1.478A10.4,10.4,0,0,0,12,47.763l-.315-.009V30.619l.053,0a6.034,6.034,0,0,0,.66-.006,21.707,21.707,0,0,0,2.8-.269,7,7,0,0,0,4.274-3.179,11.53,11.53,0,0,0,1.917-5.807c.09-1.257.1-2.537.109-3.776,0-.5.008-1.009.017-1.511a1.418,1.418,0,0,1,.059-.485,1.063,1.063,0,0,1,.463-.027,4.632,4.632,0,0,1,4.371,3.888,32.673,32.673,0,0,1,.189,4.39,14.378,14.378,0,0,1-.134,1.792,5.273,5.273,0,0,0,.328,2.65l.036.078a4.733,4.733,0,0,1-2.374,6.257c-.6.316-1.239.783-.823,1.592a.972.972,0,0,0,.591.511,1.557,1.557,0,0,0,1.208-.244,6.964,6.964,0,0,0,3.894-6.583h1.089a4.033,4.033,0,0,0-.289,2.947,3.954,3.954,0,0,0,1.922,2.377,4.073,4.073,0,0,0,0,4.619,3.968,3.968,0,0,0-1.962,2.546,3.928,3.928,0,0,0,.521,3.112,4.364,4.364,0,0,0-.4.224,4.1,4.1,0,0,0-1.477,5.263h-.155c-.816,0-1.631-.005-2.446-.01-1.875-.011-3.811-.022-5.719.028a6.408,6.408,0,0,1-4.629-1.685m24.75-15.721c-.727.006-1.458,0-2.189,0l-1.1,0-1.081,0c-.719,0-1.439,0-2.176,0a1.684,1.684,0,0,1-.256,0,1.856,1.856,0,0,1-1.077-3.254,1.83,1.83,0,0,1,1.366-.445q3.24-.009,6.483,0h.017a1.85,1.85,0,0,1,.014,3.7m1.215,5.793c-.751.013-1.5.012-2.256.009l-.875,0v.25h0v-.25l-1.046,0c-.7,0-1.393,0-2.114,0a1.622,1.622,0,0,1-.334,0,1.877,1.877,0,0,1-1.043-3.309,1.908,1.908,0,0,1,1.393-.43c2.143-.009,4.285-.014,6.435,0A1.894,1.894,0,0,1,43.8,37.217a1.831,1.831,0,0,1-1.158,2.021,2.836,2.836,0,0,1-.9.147" fill="#144567"/>
        <path id="Trazado_604367" data-name="Trazado 604367" d="M53.839,9.44a3.23,3.23,0,0,0-2.917-2.212c-.634-.083-1.266-.178-1.9-.272-.711-.108-1.422-.214-2.142-.3a1.482,1.482,0,0,1-1.252-.958c-.615-1.3-1.261-2.607-1.918-3.886A3.205,3.205,0,0,0,40.837,0h-.015a3.2,3.2,0,0,0-2.936,1.831q-1,1.979-1.973,3.992a1.317,1.317,0,0,1-1.077.8c-.59.082-1.179.172-1.768.26-.787.12-1.573.239-2.341.338a3.271,3.271,0,0,0-2.966,2.249A3.22,3.22,0,0,0,28.747,13c.435.416.864.838,1.293,1.26.552.544,1.1,1.088,1.679,1.624a1.476,1.476,0,0,1,.472,1.46c-.165.89-.326,1.783-.468,2.663a13.087,13.087,0,0,0-.306,2.333,3.23,3.23,0,0,0,.39,1.452,3.191,3.191,0,0,0,1.914,1.548,3.238,3.238,0,0,0,.916.133,3.168,3.168,0,0,0,1.523-.389c1.329-.664,2.62-1.355,3.945-2.069a1.381,1.381,0,0,1,1.435.012c.828.448,1.661.884,2.495,1.319L45.271,25a3.34,3.34,0,0,0,2.065.449,3.291,3.291,0,0,0,2.4-1.49,3.977,3.977,0,0,0,.208-3.379.964.964,0,0,0-.958-.619,1,1,0,0,0-.711.312,1.015,1.015,0,0,0-.282.736,6.3,6.3,0,0,0,.121.877,1.188,1.188,0,0,1-.464,1.3,1.239,1.239,0,0,1-1.409-.009c-.546-.293-1.1-.58-1.647-.866-.683-.356-1.367-.713-2.036-1.077a3.412,3.412,0,0,0-3.524.019c-.935.514-1.9,1.013-2.838,1.5l-1,.519a1.182,1.182,0,0,1-1.7-1.283c.086-.5.169-1,.252-1.5.151-.909.3-1.817.47-2.709a3.456,3.456,0,0,0-1.05-3.37c-.6-.569-1.184-1.144-1.771-1.719-.433-.424-.865-.847-1.315-1.28a1.17,1.17,0,0,1-.35-1.292A1.194,1.194,0,0,1,30.817,9.3c.537-.076,1.074-.156,1.611-.236.873-.13,1.746-.26,2.614-.374a3.364,3.364,0,0,0,2.743-1.978c.276-.566.556-1.129.836-1.694.346-.7.693-1.4,1.043-2.126A1.209,1.209,0,0,1,41.329,2.2a1.227,1.227,0,0,1,.629.716c.63,1.3,1.272,2.592,1.912,3.88a3.3,3.3,0,0,0,2.635,1.89c.638.088,1.274.183,1.911.277.757.113,1.515.225,2.305.331a1.273,1.273,0,0,1,1.167.823,1.254,1.254,0,0,1-.465,1.417q-1.542,1.487-3.068,2.983a3.193,3.193,0,0,0-.995,2.947l.005.068a1.051,1.051,0,0,0,1.159.926,1.032,1.032,0,0,0,.881-1.25,1.4,1.4,0,0,1,.493-1.319c.522-.5,1.037-1,1.552-1.507.468-.459.936-.917,1.394-1.356a3.213,3.213,0,0,0,.995-3.584" fill="#144567"/>
      </g>
    </g>
    <g id="Grupo_161741" data-name="Grupo 161741" transform="translate(773.454 5994.269)">
      <g id="Grupo_161740" data-name="Grupo 161740" clip-path="url(#clip-path-9)">
        <path id="Trazado_604368" data-name="Trazado 604368" d="M0,24.9c.13-.955.226-1.916.394-2.865A26.474,26.474,0,0,1,19.908.848,25.582,25.582,0,0,1,29.621.2c.713.087,1.13.543,1.064,1.142a1.077,1.077,0,0,1-1.329.905,24.459,24.459,0,0,0-19.33,42.337,23.761,23.761,0,0,0,13.55,6.252A24.375,24.375,0,0,0,50.22,32.677a23.875,23.875,0,0,0-3.652-20.189c-.078-.114-.161-.225-.246-.333-.018-.023-.057-.03-.166-.082,0,.352.011.67,0,.986a1.031,1.031,0,0,1-1,1.043,1.009,1.009,0,0,1-1.041-.954q-.051-2.046,0-4.095A.975.975,0,0,1,45.141,8.1c1.313-.015,2.627-.017,3.94,0a.992.992,0,0,1,1.011,1.026,1.019,1.019,0,0,1-1.013,1.032c-.258.017-.518.005-.777.006h-.856c.267.365.48.648.684.938A26.221,26.221,0,0,1,52.963,29.17,26.539,26.539,0,0,1,31.937,52.554c-1.081.217-2.187.306-3.281.458-.151.021-.3.06-.45.091H24.888c-.116-.028-.23-.066-.347-.083-1.211-.177-2.434-.294-3.633-.534A26.551,26.551,0,0,1,.415,31.233c-.162-1-.278-2.012-.415-3.019V24.9" transform="translate(0 0)" fill="#144567"/>
        <path id="Trazado_604369" data-name="Trazado 604369" d="M45.987,28.273a18.171,18.171,0,0,0-8.933,2.514c-.179.1-.351.222-.537.312a1.028,1.028,0,0,1-1.36-.365.992.992,0,0,1,.331-1.4,27.238,27.238,0,0,1,2.89-1.5,19.743,19.743,0,1,1-9.221,7.879,1.1,1.1,0,0,1,1.17-.668c.767.122,1.043.886.671,1.646a32.126,32.126,0,0,0-1.79,3.891A17.7,17.7,0,1,0,48.664,28.534c-.886-.131-1.784-.176-2.677-.261" transform="translate(-19.476 -19.517)" fill="#144567"/>
        <path id="Trazado_604370" data-name="Trazado 604370" d="M79.455,72.764a10.785,10.785,0,0,1,.325-1.3.5.5,0,0,0-.135-.629c-1.059-1.042-2.106-2.1-3.157-3.147a1.026,1.026,0,0,1-.261-1.27.916.916,0,0,1,1.068-.543,1.656,1.656,0,0,1,.736.435c1.016.987,2.016,1.992,3.008,3a.582.582,0,0,0,.754.179,3.263,3.263,0,0,1,2.574,0,.554.554,0,0,0,.713-.157q3.213-3.237,6.446-6.455a4.676,4.676,0,0,1,.376-.356,1.024,1.024,0,0,1,1.463,1.426,4.493,4.493,0,0,1-.388.417c-2.126,2.126-4.247,4.256-6.385,6.37a.663.663,0,0,0-.189.843,3.489,3.489,0,0,1-.915,3.841,3.572,3.572,0,0,1-3.859.642,3.7,3.7,0,0,1-2.173-3.3m5.1.032a1.485,1.485,0,1,0-1.461,1.5,1.464,1.464,0,0,0,1.461-1.5" transform="translate(-56.524 -46.253)" fill="#144567"/>
        <path id="Trazado_604371" data-name="Trazado 604371" d="M153.183,101.255c-.224,0-.448.012-.671,0a1.023,1.023,0,0,1-.109-2.036,8.42,8.42,0,0,1,1.545-.006.99.99,0,0,1,.9,1.066,1,1,0,0,1-1,.977c-.223.012-.447,0-.671,0" transform="translate(-112.535 -73.659)" fill="#144567"/>
        <path id="Trazado_604372" data-name="Trazado 604372" d="M99.1,153.21c0-.206-.008-.413,0-.619a1.026,1.026,0,0,1,2.049-.094,8.369,8.369,0,0,1-.006,1.494.992.992,0,0,1-1.073.9,1,1,0,0,1-.969-1.007c-.012-.223,0-.447,0-.671" transform="translate(-73.599 -112.561)" fill="#144567"/>
        <path id="Trazado_604373" data-name="Trazado 604373" d="M101.219,43.558c0,.224.011.448,0,.671a1.025,1.025,0,0,1-2.043.1,8.155,8.155,0,0,1,0-1.545.987.987,0,0,1,1.094-.87,1,1,0,0,1,.943.978c.014.223,0,.447,0,.671" transform="translate(-73.63 -31.124)" fill="#144567"/>
        <path id="Trazado_604374" data-name="Trazado 604374" d="M43.555,99.14c.206,0,.413-.008.619,0a1.026,1.026,0,0,1,.085,2.049,9.162,9.162,0,0,1-1.443,0,1.027,1.027,0,0,1,.068-2.05c.223-.011.447,0,.671,0" transform="translate(-31.097 -73.627)" fill="#144567"/>
        <path id="Trazado_604375" data-name="Trazado 604375" d="M129.095,5.119a1.031,1.031,0,0,1-1.052.993,1.065,1.065,0,0,1-1.008-1.053,1.044,1.044,0,0,1,1.093-1.009,1.011,1.011,0,0,1,.967,1.069" transform="translate(-94.347 -3.007)" fill="#144567"/>
        <path id="Trazado_604376" data-name="Trazado 604376" d="M49.661,48.681a1.027,1.027,0,0,1-1.031,1.013A1.044,1.044,0,0,1,47.6,48.676a1.059,1.059,0,0,1,1.064-1.045,1.044,1.044,0,0,1,1,1.051" transform="translate(-35.349 -35.374)" fill="#144567"/>
      </g>
    </g>
    <g id="Grupo_161743" data-name="Grupo 161743" transform="translate(899 5915)">
      <g id="Grupo_161742" data-name="Grupo 161742" clip-path="url(#clip-path-10)">
        <path id="Trazado_604377" data-name="Trazado 604377" d="M78.829,71.13a2.968,2.968,0,0,1,2.208,1.032c.337.335.591.954,1.23.716.668-.248.389-.878.4-1.346.028-2.1,1.1-3.184,3.185-3.186.8,0,1.6,0,2.4,0a2.8,2.8,0,0,1,3.012,3.04,4.573,4.573,0,0,0,.018.918.611.611,0,0,0,1.034.432,6.007,6.007,0,0,0,.753-.719,2.831,2.831,0,0,1,4.164,0c.66.644,1.316,1.292,1.96,1.951a2.718,2.718,0,0,1,.025,3.957,7.884,7.884,0,0,0-.768.792.881.881,0,0,0-.174.69.847.847,0,0,0,.6.386c.5.069,1.025.009,1.531.072a2.688,2.688,0,0,1,2.406,2.606c.036,1.064.035,2.131,0,3.2a2.691,2.691,0,0,1-2.4,2.61c-.506.063-1.027.005-1.531.075a.848.848,0,0,0-.6.379.86.86,0,0,0,.169.691c.257.34.607.608.894.927a2.7,2.7,0,0,1-.02,3.684c-.729.776-1.486,1.528-2.265,2.254a2.758,2.758,0,0,1-3.837-.016,9.554,9.554,0,0,0-.885-.848.889.889,0,0,0-.712-.121.8.8,0,0,0-.341.572,8.636,8.636,0,0,0-.018,1.1,2.777,2.777,0,0,1-2.8,2.814c-1,.016-2.008.019-3.012,0a2.767,2.767,0,0,1-2.761-2.729,9.611,9.611,0,0,0-.022-1.165.867.867,0,0,0-.376-.607.9.9,0,0,0-.706.161,7.513,7.513,0,0,0-.795.765,2.775,2.775,0,0,1-3.973,0c-.694-.667-1.376-1.347-2.05-2.035a2.714,2.714,0,0,1,0-4,9.235,9.235,0,0,0,.812-.837.708.708,0,0,0,.112-.6.806.806,0,0,0-.537-.392c-.484-.066-.983-.008-1.471-.058a2.735,2.735,0,0,1-2.552-2.8c-.013-.942-.011-1.885,0-2.827a2.751,2.751,0,0,1,2.637-2.845c.325-.029.655-.009.982-.02.357-.013.755.084.95-.369.21-.487-.172-.706-.429-.98-.2-.209-.412-.4-.607-.61a2.7,2.7,0,0,1,0-3.776c.72-.756,1.472-1.483,2.221-2.211a2.655,2.655,0,0,1,1.964-.736m19.054,4.878a2.3,2.3,0,0,0-.266-.477Q96.6,74.5,95.567,73.5a.563.563,0,0,0-.869.009c-.341.325-.661.674-1.021.976a2.662,2.662,0,0,1-2.932.415,2.632,2.632,0,0,1-1.7-2.481c-.011-.307,0-.614-.005-.922-.005-.8-.134-.938-.915-.942q-.737,0-1.475,0c-1.784,0-1.785-.208-1.757,1.7,0,.041,0,.082,0,.123a2.632,2.632,0,0,1-1.721,2.53,2.7,2.7,0,0,1-3.026-.512c-.273-.247-.536-.507-.789-.775a.661.661,0,0,0-1.1-.026c-.616.63-1.246,1.246-1.875,1.862a.619.619,0,0,0-.008,1.007c.292.287.594.566.865.872a2.612,2.612,0,0,1,.517,2.909A2.65,2.65,0,0,1,75.31,82c-.429.024-.86.008-1.29.016a.616.616,0,0,0-.688.684c0,.922,0,1.843,0,2.765a.6.6,0,0,0,.647.66c.43.017.861,0,1.291.015a2.8,2.8,0,0,1,1.951,4.688c-.273.305-.576.582-.866.872a.6.6,0,0,0-.005.962q.98.975,1.964,1.947a.6.6,0,0,0,.962-.011c.29-.289.574-.586.877-.861a2.672,2.672,0,0,1,2.971-.518,2.64,2.64,0,0,1,1.759,2.507c.011.327,0,.655.006.983.008.738.155.88.914.885.492,0,.983,0,1.475,0,1.79,0,1.786.184,1.757-1.7,0-.041,0-.082,0-.123a2.631,2.631,0,0,1,1.667-2.5,2.69,2.69,0,0,1,3.034.445,10.379,10.379,0,0,1,.834.816c.4.429.752.394,1.144-.012.583-.6,1.182-1.194,1.787-1.776a.657.657,0,0,0,.012-1.1c-.3-.281-.593-.567-.861-.876a2.6,2.6,0,0,1-.461-2.918,2.633,2.633,0,0,1,2.418-1.7c.409-.022.819-.011,1.229-.011.5,0,.761-.227.757-.747-.008-.881-.005-1.762,0-2.642a.635.635,0,0,0-.708-.728c-.451-.006-.9.008-1.351-.02a2.819,2.819,0,0,1-2.533-3.335,4.088,4.088,0,0,1,1.387-2.045,7.566,7.566,0,0,0,.491-.608" transform="translate(-59.431 -57.123)" fill="#144567"/>
        <path id="Trazado_604378" data-name="Trazado 604378" d="M184.814,194.1c.726.61,1.37,1.141,2,1.684s.736,1.134.318,1.655a1.155,1.155,0,0,1-1.734.032q-1.918-1.584-3.826-3.18a1.123,1.123,0,0,1-.184-1.844q1.6-1.908,3.211-3.8a1.118,1.118,0,0,1,1.717-.159,1.055,1.055,0,0,1,.03,1.5,15.478,15.478,0,0,0-1.3,1.766c.7-.243,1.417-.442,2.093-.737,7.684-3.354,12.376-9.092,13.822-17.4.092-.53.159-1.068.75-1.311a1.114,1.114,0,0,1,1.516,1.244,24,24,0,0,1-5.486,12.4,24.447,24.447,0,0,1-12.393,7.992c-.136.038-.27.081-.534.161" transform="translate(-151.276 -143.939)" fill="#144567"/>
        <path id="Trazado_604379" data-name="Trazado 604379" d="M204.722,33.4a20.8,20.8,0,0,0-2.977-6.806,22.044,22.044,0,0,0-14.36-9.6c-.14-.029-.28-.062-.419-.1a1.1,1.1,0,1,1,.432-2.148,23.549,23.549,0,0,1,7.438,2.6,24.106,24.106,0,0,1,12.009,15.376c.036.135.091.265.164.473.5-.858.953-1.653,1.415-2.445a.96.96,0,0,1,1.113-.571,1.715,1.715,0,0,1,.889.714,1.116,1.116,0,0,1-.082.917c-.848,1.542-1.731,3.065-2.623,4.581a1.07,1.07,0,0,1-1.625.424q-2.229-1.233-4.437-2.505a1.1,1.1,0,0,1-.512-1.556,1.124,1.124,0,0,1,1.607-.358c.631.335,1.254.687,1.881,1.03.01.005.031-.01.087-.03" transform="translate(-155.458 -12.303)" fill="#144567"/>
        <path id="Trazado_604380" data-name="Trazado 604380" d="M3.491,173.648c-.485.657-.928,1.268-1.383,1.872a1.135,1.135,0,0,1-1.642.4,1.1,1.1,0,0,1-.159-1.672q1.494-2.064,3.015-4.108a1.1,1.1,0,0,1,1.752-.262q2.053,1.457,4.081,2.947a1.091,1.091,0,0,1,.345,1.6,1.131,1.131,0,0,1-1.635.182c-.68-.472-1.345-.965-2.017-1.449l-.143.092c.3.926.545,1.873.909,2.773a22.134,22.134,0,0,0,15.754,13.776,2.984,2.984,0,0,1,.587.169,1.021,1.021,0,0,1,.606,1.214.983.983,0,0,1-1.055.843,6.179,6.179,0,0,1-1.379-.272c-9.026-2.7-14.878-8.551-17.449-17.64-.028-.1-.054-.2-.086-.294a1.247,1.247,0,0,0-.1-.167" transform="translate(0 -141.718)" fill="#144567"/>
        <path id="Trazado_604381" data-name="Trazado 604381" d="M36.719,3.078c-.929-.339-1.718-.619-2.5-.916-.72-.273-1.032-.816-.832-1.41A1.116,1.116,0,0,1,34.94.095q2.431.851,4.847,1.742a1.111,1.111,0,0,1,.741,1.609q-.834,2.339-1.7,4.667a1.117,1.117,0,1,1-2.072-.784c.239-.687.491-1.37.77-2.148a20.158,20.158,0,0,0-5,2.169A22.136,22.136,0,0,0,21.792,22.978c-.161.9-.615,1.3-1.317,1.186-.722-.123-1.028-.687-.848-1.612,1.874-9.61,7.49-15.994,16.662-19.311.091-.033.181-.069.43-.163" transform="translate(-16.363 0)" fill="#144567"/>
        <path id="Trazado_604382" data-name="Trazado 604382" d="M130.169,132.965a6.16,6.16,0,1,1,6.16,6.114,6.155,6.155,0,0,1-6.16-6.114m2.218-.039a3.942,3.942,0,1,0,3.98-3.9,3.937,3.937,0,0,0-3.98,3.9" transform="translate(-108.797 -105.998)" fill="#144567"/>
      </g>
    </g>
    <g id="Grupo_161745" data-name="Grupo 161745" transform="translate(521 5994.269)">
      <g id="Grupo_161744" data-name="Grupo 161744" clip-path="url(#clip-path-11)">
        <path id="Trazado_604383" data-name="Trazado 604383" d="M54.268,41.336c-.056.144-.119.286-.167.433a3.613,3.613,0,1,1-4.845-4.39c.37-.152.528-.319.489-.723s0-.812-.01-1.218c-.013-.743-.327-1.069-1.068-1.075-1.272-.01-2.544-.024-3.815,0a3.387,3.387,0,0,1-2.717-.895,16.558,16.558,0,0,1-6.745,7.694A1.69,1.69,0,0,0,36.933,42.5c2,.181,2.928,1.2,2.852,3.232-.031.837.008,1.43.972,1.881a3.382,3.382,0,0,1,1.572,4.143,3.614,3.614,0,0,1-7.009-.521,3.57,3.57,0,0,1,2.121-3.879c.43-.179.6-.383.548-.845a13.233,13.233,0,0,1-.034-1.323.782.782,0,0,0-.771-.851,3.742,3.742,0,0,1-3.436-2.185c-1.339.353-2.624.71-3.92,1.022a8.1,8.1,0,0,1-1.469.174.408.408,0,0,0-.452.392A6.373,6.373,0,0,1,21.3,48.856c-1.854-.046-3.709,0-5.564-.014a.541.541,0,0,0-.617.4A3.606,3.606,0,0,1,8.161,47.62a3.636,3.636,0,0,1,3.266-3.292,3.581,3.581,0,0,1,3.664,2.244.64.64,0,0,0,.729.476c1.925-.02,3.851,0,5.776-.013a4.522,4.522,0,0,0,4.381-3.066c.061-.177.093-.365.147-.583a16.835,16.835,0,0,1-4.987-1.127,16.036,16.036,0,0,1-5.744-3.883,1.141,1.141,0,0,0-.914-.408q-3.444.026-6.889,0a.544.544,0,0,0-.61.414,3.578,3.578,0,0,1-3.942,2.262,3.613,3.613,0,1,1,3.942-4.886c.1.244.168.419.5.416,1.925-.017,3.851-.008,5.776-.01a2.211,2.211,0,0,0,.264-.033c-3.563-6-3.565-11.974.019-18.036-.228,0-.427.01-.625,0a21.729,21.729,0,0,1-3.946-.271,7.814,7.814,0,0,1-6.115-6.5.885.885,0,0,0-.618-.77A3.565,3.565,0,0,1,.062,6.615,3.613,3.613,0,1,1,5.1,10.529c-.159.072-.322.137-.526.223a6.306,6.306,0,0,0,3.392,4.819,6.215,6.215,0,0,0,2.955.714c1.219.007,2.438.017,3.656-.011a1.074,1.074,0,0,0,.686-.281,16.16,16.16,0,0,1,10.59-5.074c.311-.026.381-.156.377-.431-.017-1.448-.01-2.9-.04-4.344A1.66,1.66,0,0,0,24.63,4.555c-1.217-.044-2.437-.034-3.655,0-.146,0-.348.238-.42.409A3.617,3.617,0,1,1,16.005.2c.179-.063.354-.136.531-.2h1.272a.464.464,0,0,0,.129.084A3.64,3.64,0,0,1,20.61,2.42a.664.664,0,0,0,.511.287c1.095.027,2.19-.005,3.285.019a3.662,3.662,0,0,1,3.65,3.944c-.045,1.27,0,2.543-.018,3.815,0,.324.118.422.43.438a7.37,7.37,0,0,1,1.363.168c1.3.316,2.581.671,3.92,1.024a.4.4,0,0,0,.065-.1,3.606,3.606,0,0,1,3.477-2.066q1.192.014,2.384,0a.911.911,0,0,0,1.017-.912c.022-.633.005-1.268.005-1.9-.177-.068-.329-.116-.473-.183a3.557,3.557,0,0,1-2.233-3.316A3.567,3.567,0,0,1,40.23.28c.257-.107.526-.187.79-.28h1.166a1.916,1.916,0,0,0,.24.1A3.609,3.609,0,0,1,42.84,7.01c-.11.043-.219.092-.333.14,0,.613,0,1.2,0,1.778a2.715,2.715,0,0,1-2.837,2.831c-.865.007-1.731,0-2.6,0a1.792,1.792,0,0,0-1.453.743c-.285.361-.275.581.166.862a16.123,16.123,0,0,1,7.2,10.071c.056.226.116.45.185.715a4.071,4.071,0,0,1,2.478-.639c.971.024,1.943.008,2.914,0,.869,0,1.166-.3,1.17-1.186,0-.971-.019-1.944.011-2.914a.637.637,0,0,0-.487-.724,3.583,3.583,0,0,1-2.184-3.9,3.653,3.653,0,0,1,3.235-3.03,3.616,3.616,0,0,1,3.77,2.479c.055.163.124.321.187.481V16a.452.452,0,0,0-.085.127A3.639,3.639,0,0,1,51.842,18.8a.607.607,0,0,0-.281.462c-.025,1.041-.008,2.083-.014,3.125a2.721,2.721,0,0,1-2.935,2.94c-1.13,0-2.26-.011-3.39,0a1.734,1.734,0,0,0-1.774,1.722c-.017.352-.034.706-.076,1.056-.111.927-.274,1.85-.343,2.78a1.375,1.375,0,0,0,1.545,1.663c1.395,0,2.79-.011,4.185,0a2.7,2.7,0,0,1,2.786,2.717,11.122,11.122,0,0,1,0,1.323.673.673,0,0,0,.534.8,3.546,3.546,0,0,1,.98.61,4.2,4.2,0,0,1,1.216,2.055ZM27.17,12.693A14.455,14.455,0,1,0,41.585,26.519,14.419,14.419,0,0,0,27.17,12.693M5.41,37.073A1.763,1.763,0,0,0,3.6,35.284,1.8,1.8,0,0,0,1.81,37.064a1.828,1.828,0,0,0,1.8,1.828,1.789,1.789,0,0,0,1.8-1.819M18.976,3.642A1.788,1.788,0,0,0,17.2,1.808a1.826,1.826,0,0,0-1.821,1.81,1.8,1.8,0,0,0,1.77,1.8,1.767,1.767,0,0,0,1.83-1.774m31.66,13.529a1.8,1.8,0,0,0,1.824-1.8,1.822,1.822,0,0,0-1.822-1.808,1.8,1.8,0,0,0-1.786,1.78,1.775,1.775,0,0,0,1.784,1.823M38.917,48.858a1.766,1.766,0,0,0-1.825,1.779,1.8,1.8,0,0,0,3.608.049,1.782,1.782,0,0,0-1.782-1.828m2.7-43.451a1.791,1.791,0,0,0,1.8-1.817,1.807,1.807,0,0,0-3.614.025,1.781,1.781,0,0,0,1.818,1.792M50.672,38.9a1.8,1.8,0,1,0-.017,3.605,1.8,1.8,0,0,0,.017-3.605M3.58,9.016A1.755,1.755,0,0,0,5.418,7.258,1.814,1.814,0,0,0,3.63,5.422,1.833,1.833,0,0,0,1.81,7.236,1.77,1.77,0,0,0,3.58,9.016m8.191,40.715a1.792,1.792,0,0,0,1.8-1.822,1.8,1.8,0,0,0-3.608.024,1.779,1.779,0,0,0,1.813,1.8" transform="translate(0)" fill="#144567"/>
        <path id="Trazado_604384" data-name="Trazado 604384" d="M148.575,117.666c.294,0,.52-.007.746,0a.954.954,0,0,1,1.062,1.094c.008,1.413,0,2.825,0,4.238q0,3.072,0,6.145c0,.874-.315,1.195-1.173,1.2q-6.966,0-13.932,0c-.869,0-1.187-.316-1.188-1.179q0-5.085,0-10.171c0-1.053.256-1.311,1.311-1.324.14,0,.28,0,.5,0,0-.889,0-1.748,0-2.608a6.337,6.337,0,0,1,12.673-.176c.021.9,0,1.8,0,2.784M135.927,128.5h12.622v-8.986H135.927Zm3.642-10.887c0-1.068-.083-2.081.019-3.074a2.629,2.629,0,0,1,3.15-2.237,2.706,2.706,0,0,1,2.217,2.765c.016.841,0,1.682,0,2.531h1.755c0-1.1.084-2.16-.018-3.2a4.44,4.44,0,0,0-4.062-3.944,4.524,4.524,0,0,0-4.673,3.072c-.445,1.339-.182,2.717-.263,4.091Zm1.783-.012h1.778c0-.926.024-1.821-.009-2.714a.863.863,0,0,0-.863-.834.853.853,0,0,0-.894.8c-.038.909-.011,1.821-.011,2.752" transform="translate(-115.103 -93.253)" fill="#144567"/>
        <path id="Trazado_604385" data-name="Trazado 604385" d="M169.739,198.022c.847,0,1.7-.01,2.542,0,.746.011,1.049.327,1.053,1.08q.008,1.642,0,3.284c0,.709-.328,1.055-1.029,1.06q-2.569.018-5.137,0c-.728,0-1.049-.348-1.053-1.09q-.008-1.642,0-3.284c0-.717.312-1.037,1.029-1.049.865-.014,1.73,0,2.6,0m1.765,1.852h-3.559v1.739H171.5Z" transform="translate(-142.59 -169.98)" fill="#144567"/>
      </g>
    </g>
  </g>
</svg>
