<svg xmlns="http://www.w3.org/2000/svg" xmlns:xlink="http://www.w3.org/1999/xlink" width="190" height="162.045" viewBox="0 0 190 162.045">
  <defs>
    <clipPath id="clip-path">
      <rect id="Rectángulo_47988" data-name="Rectángulo 47988" width="190" height="162.045" fill="none"/>
    </clipPath>
    <clipPath id="clip-path-2">
      <path id="Trazado_604702" data-name="Trazado 604702" d="M4.409,0A4.422,4.422,0,0,0,0,4.425v144.6a4.417,4.417,0,0,0,6.626,3.825l125.228-72.3a4.417,4.417,0,0,0,0-7.651L6.626.6A4.385,4.385,0,0,0,4.438,0Z" transform="translate(0 -0.001)" fill="#91e8d6"/>
    </clipPath>
    <clipPath id="clip-path-4">
      <rect id="Rectángulo_47940" data-name="Rectángulo 47940" width="45.171" height="9.311" fill="#dcc0a8"/>
    </clipPath>
    <clipPath id="clip-path-5">
      <rect id="Rectángulo_47938" data-name="Rectángulo 47938" width="39.644" height="3.558" fill="#dcc0a8"/>
    </clipPath>
    <clipPath id="clip-path-6">
      <rect id="Rectángulo_47939" data-name="Rectángulo 47939" width="45.171" height="3.558" fill="#dcc0a8"/>
    </clipPath>
    <clipPath id="clip-path-7">
      <rect id="Rectángulo_47943" data-name="Rectángulo 47943" width="36.65" height="9.311" fill="#dcc0a8"/>
    </clipPath>
    <clipPath id="clip-path-8">
      <rect id="Rectángulo_47941" data-name="Rectángulo 47941" width="29.798" height="3.558" fill="#dcc0a8"/>
    </clipPath>
    <clipPath id="clip-path-9">
      <rect id="Rectángulo_47942" data-name="Rectángulo 47942" width="36.65" height="3.558" fill="#dcc0a8"/>
    </clipPath>
    <clipPath id="clip-path-10">
      <rect id="Rectángulo_47946" data-name="Rectángulo 47946" width="43.232" height="9.31" fill="#dcc0a8"/>
    </clipPath>
    <clipPath id="clip-path-11">
      <rect id="Rectángulo_47944" data-name="Rectángulo 47944" width="43.232" height="3.558" fill="#dcc0a8"/>
    </clipPath>
    <clipPath id="clip-path-13">
      <rect id="Rectángulo_47949" data-name="Rectángulo 47949" width="45.998" height="9.481" fill="#afafaf"/>
    </clipPath>
    <clipPath id="clip-path-14">
      <rect id="Rectángulo_47947" data-name="Rectángulo 47947" width="40.37" height="3.623" fill="#afafaf"/>
    </clipPath>
    <clipPath id="clip-path-15">
      <rect id="Rectángulo_47948" data-name="Rectángulo 47948" width="45.998" height="3.623" fill="#afafaf"/>
    </clipPath>
    <clipPath id="clip-path-16">
      <rect id="Rectángulo_47952" data-name="Rectángulo 47952" width="37.321" height="9.481" fill="#afafaf"/>
    </clipPath>
    <clipPath id="clip-path-17">
      <rect id="Rectángulo_47950" data-name="Rectángulo 47950" width="30.343" height="3.623" fill="#afafaf"/>
    </clipPath>
    <clipPath id="clip-path-18">
      <rect id="Rectángulo_47951" data-name="Rectángulo 47951" width="37.321" height="3.623" fill="#afafaf"/>
    </clipPath>
    <clipPath id="clip-path-19">
      <rect id="Rectángulo_47956" data-name="Rectángulo 47956" width="96.642" height="1.53" fill="none"/>
    </clipPath>
    <linearGradient id="linear-gradient" x1="-0.395" y1="9.782" x2="-0.394" y2="9.782" gradientUnits="objectBoundingBox">
      <stop offset="0" stop-color="#9a5cff"/>
      <stop offset="0.995" stop-color="#4059bf"/>
      <stop offset="1" stop-color="#4059bf"/>
    </linearGradient>
    <clipPath id="clip-path-20">
      <rect id="Rectángulo_47972" data-name="Rectángulo 47972" width="168.83" height="162.045" fill="none"/>
    </clipPath>
    <clipPath id="clip-path-21">
      <rect id="Rectángulo_47970" data-name="Rectángulo 47970" width="31.018" height="31.018" fill="none"/>
    </clipPath>
    <clipPath id="clip-path-22">
      <rect id="Rectángulo_47971" data-name="Rectángulo 47971" width="26.039" height="22.866" fill="none"/>
    </clipPath>
    <clipPath id="clip-path-23">
      <rect id="Rectángulo_47974" data-name="Rectángulo 47974" width="8.573" height="0.509" fill="none"/>
    </clipPath>
    <linearGradient id="linear-gradient-2" x1="-1.721" y1="50.606" x2="-1.71" y2="50.606" gradientUnits="objectBoundingBox">
      <stop offset="0" stop-color="#ff9f55"/>
      <stop offset="1" stop-color="#ffd255"/>
    </linearGradient>
    <clipPath id="clip-path-25">
      <path id="Rectángulo_47984" data-name="Rectángulo 47984" d="M6.872,0h5.74a6.873,6.873,0,0,1,6.873,6.873v0a6.873,6.873,0,0,1-6.873,6.873H6.873A6.873,6.873,0,0,1,0,6.873v0A6.872,6.872,0,0,1,6.872,0Z" fill="none"/>
    </clipPath>
    <linearGradient id="linear-gradient-3" x1="-0.781" y1="3.095" x2="-0.776" y2="3.095" xlink:href="#linear-gradient-2"/>
  </defs>
  <g id="Grupo_161907" data-name="Grupo 161907" transform="translate(0 -10)">
    <g id="Grupo_161906" data-name="Grupo 161906" transform="translate(0 10)" clip-path="url(#clip-path)">
      <g id="Grupo_161840" data-name="Grupo 161840" transform="translate(0 0)">
        <g id="Grupo_161839" data-name="Grupo 161839" clip-path="url(#clip-path-2)">
          <rect id="Rectángulo_47936" data-name="Rectángulo 47936" width="134.798" height="154.55" transform="translate(0 0)" fill="#91e8d6"/>
        </g>
      </g>
      <g id="Grupo_161887" data-name="Grupo 161887" transform="translate(0 0)">
        <g id="Grupo_161886" data-name="Grupo 161886" clip-path="url(#clip-path)">
          <path id="Trazado_604703" data-name="Trazado 604703" d="M77.523,396.919a14.4,14.4,0,0,0,2.049,3.457l-1.218,2.555,2.46,1.845,2.46,1.845,2.112-1.885a14.392,14.392,0,0,0,3.893,1l.944,2.666,3.045-.435,3.045-.435.161-2.824a14.4,14.4,0,0,0,3.457-2.049l2.555,1.219,1.845-2.46,1.845-2.46-1.885-2.112a14.4,14.4,0,0,0,1-3.893l2.666-.944-.435-3.045-.435-3.045-2.824-.161a14.4,14.4,0,0,0-2.049-3.457l1.219-2.555-2.46-1.845-2.46-1.845L96.4,377.942a14.4,14.4,0,0,0-3.893-1l-.944-2.666-3.045.435-3.045.435-.161,2.824a14.4,14.4,0,0,0-3.457,2.049L79.3,378.8l-1.845,2.46-1.845,2.46,1.885,2.112a14.4,14.4,0,0,0-1,3.893l-2.666.945.435,3.045.435,3.044Zm11.847-16.248a10.776,10.776,0,1,1-9.145,12.192,10.776,10.776,0,0,1,9.145-12.192" transform="translate(-66.983 -339.566)" fill="#fff"/>
          <path id="Trazado_604704" data-name="Trazado 604704" d="M90.834,194.165a6.6,6.6,0,0,0,.939,1.585l-.559,1.172,1.128.846,1.128.846.968-.864a6.6,6.6,0,0,0,1.785.458l.433,1.222,1.4-.2,1.4-.2.074-1.295a6.605,6.605,0,0,0,1.585-.939l1.171.559.846-1.128.846-1.128-.864-.968a6.6,6.6,0,0,0,.458-1.785l1.222-.433-.2-1.4-.2-1.4-1.295-.074a6.6,6.6,0,0,0-.939-1.585l.559-1.171-1.128-.846-1.128-.846-.968.864a6.6,6.6,0,0,0-1.785-.458l-.433-1.222-1.4.2-1.4.2-.074,1.295a6.6,6.6,0,0,0-1.585.939l-1.171-.559-.846,1.128-.846,1.128.864.968a6.605,6.605,0,0,0-.458,1.785l-1.222.433.2,1.4.2,1.4Zm5.431-7.449a4.94,4.94,0,1,1-4.192,5.589,4.94,4.94,0,0,1,4.192-5.589" transform="translate(-80.874 -166.74)" fill="#fff"/>
          <path id="Trazado_604705" data-name="Trazado 604705" d="M1130.519,662.047s7.533-2.448,8.145-2.175.695.7,0,.964-7.223,2.584-7.223,2.584,9.308-1.341,9.861-1.235c.324.062.531.885.169,1.06s-9.54,2.057-9.54,2.057,8.692-1.236,9.123-1a.653.653,0,0,1-.255,1.159c-.641.138-8.668,1.763-8.668,1.763s6.362-.483,6.6-.052c.149.264.36.965-1.283,1.036s-5.521.666-5.521.666Z" transform="translate(-1025.675 -598.657)" fill="#eea886"/>
          <path id="Trazado_604706" data-name="Trazado 604706" d="M1041.023,644s2.438-.969,2.612-2.507a9.348,9.348,0,0,1,1.567-3.43c.446-.669,1.112-3.222,1.893-2.678s-.907,4.256-1.116,5.1,3.118-.956,3.95-.793,3.1,6,.692,6.962-5.51.352-5.9.608a15.9,15.9,0,0,1-1.728.774Z" transform="translate(-944.479 -576.396)" fill="#eea886"/>
          <path id="Trazado_604707" data-name="Trazado 604707" d="M179.181,587.636c.055.7.113,1.376.168,1.976H144.469c.013-.588.029-1.255.042-1.976.118-5.816.29-15.349.214-18.949-.1-5.14-1.179-18.5-1.393-19.268,0,0-7.653-11.119-15.68,10.83-1.657,4.523,13.536,15.856,11.648,16.2s-1.808,3.932-1.808,3.932-14.308-12.462-14.014-16.133c.164-2.039,11.367-31.671,13.079-32.9,1.166-.839,8.492-3.776,12.29-5.216a26.813,26.813,0,0,1,3.374-1.154c.868-.055,11.585.974,11.585.974s1.536.524,3.109,1.246c2.681,1.229,6.86,3.155,9.856,4.582.969.462,2.182,1.083,3.189,1.616q-.183,5.463-.646,11.723s-.558,9.118-.608,18.328a42.157,42.157,0,0,0-.4,6.932c-.134,4.595.378,9.311.512,11.946.084,1.649.222,3.579.365,5.3" transform="translate(-112.021 -476.298)" fill="#dbd8e3"/>
          <path id="Trazado_604708" data-name="Trazado 604708" d="M592.157,603.583c-.5-3.26-.982-6.655-1.376-9.9v-.025q-.094-.793-.189-1.573a.52.52,0,0,0-.008-.08c-.252-2.2-.457-4.3-.608-6.227a19.536,19.536,0,0,1,.193-4.33c.6-9.848.894-20.233.894-20.233.315-4.255.5-8.224.617-11.929,0,0-13.456-6.357-14.677-6.722,0,0,2.551,5.992,4.464,19.389.739,5.144,2.1,13.8,3.092,22.645.39,3.487,1.032,7.016,1.645,10.339.579,3.134,1.133,6.088,1.431,8.648.021.155.038.311.055.466.046.441.1.948.164,1.511h4.616c-.1-.65-.21-1.313-.31-1.976" transform="translate(-523.49 -492.245)" fill="#323657"/>
          <path id="Trazado_604709" data-name="Trazado 604709" d="M78.353,577.777c-.613,5.941-1.284,10.75-1.825,15.667-.071.655-.143,1.313-.21,1.976H62.165q.277-.982.537-1.976c1.519-5.727,2.732-11.572,2.732-15.118,0,0-2.946-21.181-3.932-24.592,0,0-8.908,6.588-10.989,11.149C48.65,568.961,62.3,581.419,62.14,581.839c-.927,2.455-4.481,6.94-4.481,6.94s-21.135-22.7-20.854-25.5c.2-2.035,17.921-24.659,19.629-25.885.99-.709,8.308-3.3,11.9-4.72.659-.26,2.8-1.066,3.386-1.288.759.848,6.113,6.608,7.968,28.5.315,3.692-.671,11.505-1.334,17.887" transform="translate(-33.389 -482.107)" fill="#323657"/>
          <path id="Trazado_604710" data-name="Trazado 604710" d="M429.429,425.1a75.212,75.212,0,0,0-1.491-11.122c-.379-1.992,11.567,5.242,11.567,5.242s-.037.7-.061,1.64c-.013.5-.021,1.063-.018,1.629,0,.2,0,.4.008.6.011.527.035,1.031.08,1.46a6.858,6.858,0,0,0,.4,1.435c.493,1.136-6.46,2-10.483-.88" transform="translate(-388.243 -375.267)" fill="#eea987"/>
          <path id="Trazado_604711" data-name="Trazado 604711" d="M512.373,578.858l1.98,2.661a2.4,2.4,0,0,1-3.22.407Z" transform="translate(-463.731 -525.175)" fill="#d44040"/>
          <path id="Trazado_604712" data-name="Trazado 604712" d="M524.134,608.017s7.51,28.915,5.962,51.422l-2.527,4.453-2.365-4.665s-.648-40.26-2.707-51.281Z" transform="translate(-474.041 -551.565)" fill="#d44040"/>
          <path id="Trazado_604713" data-name="Trazado 604713" d="M482.67,544.7l-2.12,2.48s-3.4-.659-4.4-2.437,6.522-.044,6.522-.044" transform="translate(-431.907 -493.497)" fill="#eea987"/>
          <path id="Trazado_604714" data-name="Trazado 604714" d="M527.113,528.7s-.246,1.891-2.607,4.651l2.576,3.461,1.394-7.18Z" transform="translate(-475.864 -479.672)" fill="#c4c1cc"/>
          <path id="Trazado_604715" data-name="Trazado 604715" d="M422.863,509.306s4.212,5.09,7.652,6.45l-1.6,3.958-8.007-8.609Z" transform="translate(-381.872 -462.073)" fill="#c4c1cc"/>
          <path id="Trazado_604716" data-name="Trazado 604716" d="M695.7,621.084S677.545,640.8,673.262,639.75c-1.98-.487-4.979-3.905-7.458-7.119-.817-1.058-1.618-2.169-2.38-3.268a.007.007,0,0,1,0,0c-3.041-4.39-5.423-8.6-5.423-8.6s-8.987-10.533-1.775-15.228c0,0,3.039-.307,4.768.969,1.6,1.178,5.48,8.592,6.11,9.967s5.535,11.064,5.993,11.35,5.274-2.6,7.849-4.338a95.065,95.065,0,0,0,9.388-7.681Z" transform="translate(-592.822 -549.346)" fill="#323657"/>
          <path id="Trazado_604717" data-name="Trazado 604717" d="M435.172,218.265s2.624,4.866,1.324,5.622c-1.075.625,1.259,5.4,1.565,6.18s-1.947,1.347-2.425,1.849-1.9,6.68-3.751,6.867-10.213-2.72-12.489-5.087-4.143-13.054-2.624-17.563,13.769-6.368,18.4,2.131" transform="translate(-377.62 -192.63)" fill="#eea886"/>
          <path id="Trazado_604718" data-name="Trazado 604718" d="M413.951,186.525a7.475,7.475,0,0,0-2.187-9.153c-4.866-3.9-13.839,2.943-14.85,3.2s-6.749.655-3.852,10.73c2.488,8.651,2.835,9.015,2.835,9.015s1.857-5.012,2.909-5.776c1.643-1.193,5.246-.906,5.246-.906s-1.717-4.558.966-5.2,6.219-2.919,8.933-1.911" transform="translate(-355.876 -159.836)" fill="#16202e"/>
          <path id="Trazado_604719" data-name="Trazado 604719" d="M449.019,314.6c-.237-.625-1-3.312-3.307-1.734s1.436,6.642,1.838,6.707,3.46.288,1.469-4.973" transform="translate(-403.701 -283.409)" fill="#eea886"/>
          <path id="Trazado_604720" data-name="Trazado 604720" d="M472.184,458.773c0,.2,0,.4.008.6-6.833-2.293-8.156-5.745-8.156-5.745,2.132,1.507,8.166,3.52,8.166,3.52-.013.5-.021,1.063-.018,1.629" transform="translate(-421.001 -411.554)" fill="#a77860"/>
          <path id="Trazado_604721" data-name="Trazado 604721" d="M252.451,1073.809a2.4,2.4,0,0,0,1.332.536c1.183-.01,2.53-1.3,3.766-.128s-1.367,6.135-2.3,6.718-3.069-.464-5.349-3.22,2.555-3.906,2.555-3.906" transform="translate(-226.166 -974.15)" fill="#eea886"/>
          <path id="Trazado_604722" data-name="Trazado 604722" d="M288.325,1075.424a49.117,49.117,0,0,1,4.943,2.066c2.237,1.092,4.862,2.759,4.595,3.325-.406.86-2.4-.753-4.693-1.685-2.109-.858-1.838-.331-1.838-.331s-.069-.154,2.047,1.233c2.275,1.491,4.656,3.188,4.446,3.657-.261.58-.342.63-1.257.226.475.347.448.528.321.742-.653,1.11-4.338-.554-5.8-1.216,1.121.515,1.888,1.014,1.05,1.435-.959.481-6.063-2.11-7.98-2.86-2.092-.818,4.169-6.593,4.169-6.593" transform="translate(-257.415 -975.69)" fill="#eea886"/>
          <path id="Trazado_604723" data-name="Trazado 604723" d="M161.536,986.672s-.52,3.045-4.481,6.939c0,0-9.078-10.014-10.7-11.889l7.1-4.121Z" transform="translate(-132.785 -886.938)" fill="#323657"/>
          <rect id="Rectángulo_47937" data-name="Rectángulo 47937" width="124.9" height="1.976" transform="translate(8.314 111.338)" fill="#fff"/>
          <path id="Trazado_604724" data-name="Trazado 604724" d="M730.4,352.092h6.908a2.275,2.275,0,0,0,2.275-2.275V342.91a2.275,2.275,0,0,0-2.275-2.275H730.4a2.274,2.274,0,0,0-2.275,2.275v6.908a2.275,2.275,0,0,0,2.275,2.275" transform="translate(-660.602 -316.979)" fill="#144567"/>
          <g id="Grupo_161849" data-name="Grupo 161849" transform="translate(83.269 8.482)" opacity="0.69">
            <g id="Grupo_161848" data-name="Grupo 161848" transform="translate(0 0)">
              <g id="Grupo_161847" data-name="Grupo 161847" clip-path="url(#clip-path-4)">
                <g id="Grupo_161843" data-name="Grupo 161843" opacity="0.72">
                  <g id="Grupo_161842" data-name="Grupo 161842">
                    <g id="Grupo_161841" data-name="Grupo 161841" clip-path="url(#clip-path-5)">
                      <path id="Trazado_604725" data-name="Trazado 604725" d="M887.728,227.426H850.45a1.183,1.183,0,0,1-1.183-1.183v-1.192a1.183,1.183,0,0,1,1.183-1.183h37.278a1.183,1.183,0,0,1,1.183,1.183v1.192a1.183,1.183,0,0,1-1.183,1.183" transform="translate(-849.267 -223.868)" fill="#dcc0a8"/>
                    </g>
                  </g>
                </g>
                <g id="Grupo_161846" data-name="Grupo 161846" transform="translate(0 5.753)" opacity="0.72">
                  <g id="Grupo_161845" data-name="Grupo 161845">
                    <g id="Grupo_161844" data-name="Grupo 161844" clip-path="url(#clip-path-6)">
                      <path id="Trazado_604726" data-name="Trazado 604726" d="M893.255,271.694H850.45a1.183,1.183,0,0,1-1.183-1.183v-1.192a1.183,1.183,0,0,1,1.183-1.183h42.805a1.183,1.183,0,0,1,1.183,1.183v1.192a1.183,1.183,0,0,1-1.183,1.183" transform="translate(-849.267 -268.137)" fill="#dcc0a8"/>
                    </g>
                  </g>
                </g>
              </g>
            </g>
          </g>
          <path id="Trazado_604727" data-name="Trazado 604727" d="M730.4,227.068h6.908a2.275,2.275,0,0,0,2.275-2.275v-6.908a2.275,2.275,0,0,0-2.275-2.275H730.4a2.275,2.275,0,0,0-2.275,2.275v6.908a2.274,2.274,0,0,0,2.275,2.275" transform="translate(-660.602 -208.203)" fill="#144567"/>
          <g id="Grupo_161858" data-name="Grupo 161858" transform="translate(83.269 24.729)" opacity="0.69">
            <g id="Grupo_161857" data-name="Grupo 161857" transform="translate(0 0)">
              <g id="Grupo_161856" data-name="Grupo 161856" clip-path="url(#clip-path-7)">
                <g id="Grupo_161852" data-name="Grupo 161852" opacity="0.72">
                  <g id="Grupo_161851" data-name="Grupo 161851">
                    <g id="Grupo_161850" data-name="Grupo 161850" clip-path="url(#clip-path-8)">
                      <path id="Trazado_604728" data-name="Trazado 604728" d="M878.039,352.45H850.293a1.026,1.026,0,0,1-1.026-1.026v-1.507a1.026,1.026,0,0,1,1.026-1.026h27.746a1.026,1.026,0,0,1,1.026,1.026v1.507a1.026,1.026,0,0,1-1.026,1.026" transform="translate(-849.267 -348.892)" fill="#dcc0a8"/>
                    </g>
                  </g>
                </g>
                <g id="Grupo_161855" data-name="Grupo 161855" transform="translate(0 5.753)" opacity="0.72">
                  <g id="Grupo_161854" data-name="Grupo 161854">
                    <g id="Grupo_161853" data-name="Grupo 161853" clip-path="url(#clip-path-9)">
                      <path id="Trazado_604729" data-name="Trazado 604729" d="M884.852,396.719H850.333a1.066,1.066,0,0,1-1.066-1.066v-1.427a1.066,1.066,0,0,1,1.066-1.065h34.519a1.065,1.065,0,0,1,1.065,1.065v1.427a1.065,1.065,0,0,1-1.065,1.066" transform="translate(-849.267 -393.161)" fill="#dcc0a8"/>
                    </g>
                  </g>
                </g>
              </g>
            </g>
          </g>
          <g id="Grupo_161867" data-name="Grupo 161867" transform="translate(83.269 40.978)" opacity="0.69">
            <g id="Grupo_161866" data-name="Grupo 161866" transform="translate(0 0)">
              <g id="Grupo_161865" data-name="Grupo 161865" clip-path="url(#clip-path-10)">
                <g id="Grupo_161861" data-name="Grupo 161861" opacity="0.72">
                  <g id="Grupo_161860" data-name="Grupo 161860">
                    <g id="Grupo_161859" data-name="Grupo 161859" clip-path="url(#clip-path-11)">
                      <path id="Trazado_604730" data-name="Trazado 604730" d="M891.264,477.474H850.5a1.235,1.235,0,0,1-1.235-1.235v-1.088a1.235,1.235,0,0,1,1.235-1.235h40.761a1.235,1.235,0,0,1,1.235,1.235v1.088a1.235,1.235,0,0,1-1.235,1.235" transform="translate(-849.267 -473.917)" fill="#dcc0a8"/>
                    </g>
                  </g>
                </g>
                <g id="Grupo_161864" data-name="Grupo 161864" transform="translate(0 5.752)" opacity="0.72">
                  <g id="Grupo_161863" data-name="Grupo 161863">
                    <g id="Grupo_161862" data-name="Grupo 161862" clip-path="url(#clip-path-5)">
                      <path id="Trazado_604731" data-name="Trazado 604731" d="M887.8,521.742H850.375a1.108,1.108,0,0,1-1.108-1.108v-1.342a1.108,1.108,0,0,1,1.108-1.108H887.8a1.108,1.108,0,0,1,1.108,1.108v1.342a1.108,1.108,0,0,1-1.108,1.108" transform="translate(-849.267 -518.184)" fill="#dcc0a8"/>
                    </g>
                  </g>
                </g>
              </g>
            </g>
          </g>
          <path id="Trazado_604732" data-name="Trazado 604732" d="M730.4,477.117h6.908a2.275,2.275,0,0,0,2.275-2.275v-6.908a2.275,2.275,0,0,0-2.275-2.274H730.4a2.274,2.274,0,0,0-2.275,2.274v6.908a2.274,2.274,0,0,0,2.275,2.275" transform="translate(-660.602 -425.756)" fill="#144567"/>
          <path id="Trazado_604733" data-name="Trazado 604733" d="M746.474,368.947l-3.179-2.762a.625.625,0,1,1,.82-.944l2.248,1.953,3.2-3.576a.625.625,0,1,1,.933.833Z" transform="translate(-673.611 -336.793)" fill="#fff"/>
          <path id="Trazado_604734" data-name="Trazado 604734" d="M746.474,493.971l-3.179-2.762a.625.625,0,1,1,.82-.944l2.248,1.953,3.2-3.576a.625.625,0,1,1,.933.833Z" transform="translate(-673.611 -445.57)" fill="#fff"/>
          <path id="Trazado_604735" data-name="Trazado 604735" d="M764.734,238.385l-.019-.252a2.225,2.225,0,0,1,.6-1.677,2.13,2.13,0,0,0,.679-1.328c0-.494-.31-.824-.921-.834a1.723,1.723,0,0,0-.979.3l-.233-.611a2.542,2.542,0,0,1,1.386-.388,1.432,1.432,0,0,1,1.619,1.425,2.624,2.624,0,0,1-.834,1.687,1.915,1.915,0,0,0-.552,1.425l.01.252Zm-.213,1.357a.573.573,0,0,1,.581-.611.607.607,0,1,1-.581.611" transform="translate(-691.692 -223.851)" fill="#fff"/>
          <path id="Trazado_604736" data-name="Trazado 604736" d="M1354.058,975.554h7.035a2.316,2.316,0,0,0,2.316-2.316V966.2a2.316,2.316,0,0,0-2.316-2.316h-7.035a2.316,2.316,0,0,0-2.316,2.316v7.035a2.316,2.316,0,0,0,2.316,2.316" transform="translate(-1226.382 -877.987)" fill="#833343"/>
          <g id="Grupo_161876" data-name="Grupo 161876" transform="translate(141.39 70.448)" opacity="0.69">
            <g id="Grupo_161875" data-name="Grupo 161875" transform="translate(0 0)">
              <g id="Grupo_161874" data-name="Grupo 161874" clip-path="url(#clip-path-13)">
                <g id="Grupo_161870" data-name="Grupo 161870" opacity="0.72">
                  <g id="Grupo_161869" data-name="Grupo 161869">
                    <g id="Grupo_161868" data-name="Grupo 161868" clip-path="url(#clip-path-14)">
                      <path id="Trazado_604737" data-name="Trazado 604737" d="M1512.046,850.743h-37.96a1.2,1.2,0,0,1-1.2-1.2v-1.214a1.2,1.2,0,0,1,1.2-1.2h37.96a1.2,1.2,0,0,1,1.2,1.2v1.214a1.2,1.2,0,0,1-1.2,1.2" transform="translate(-1472.882 -847.12)" fill="#afafaf"/>
                    </g>
                  </g>
                </g>
                <g id="Grupo_161873" data-name="Grupo 161873" transform="translate(0 5.858)" opacity="0.72">
                  <g id="Grupo_161872" data-name="Grupo 161872">
                    <g id="Grupo_161871" data-name="Grupo 161871" clip-path="url(#clip-path-15)">
                      <path id="Trazado_604738" data-name="Trazado 604738" d="M1517.676,895.011h-43.588a1.2,1.2,0,0,1-1.2-1.2v-1.214a1.2,1.2,0,0,1,1.2-1.2h43.588a1.2,1.2,0,0,1,1.2,1.2v1.214a1.2,1.2,0,0,1-1.2,1.2" transform="translate(-1472.883 -891.388)" fill="#afafaf"/>
                    </g>
                  </g>
                </g>
              </g>
            </g>
          </g>
          <path id="Trazado_604739" data-name="Trazado 604739" d="M1354.1,850.761h7.174a2.362,2.362,0,0,0,2.362-2.362v-7.174a2.363,2.363,0,0,0-2.362-2.362H1354.1a2.362,2.362,0,0,0-2.362,2.362V848.4a2.362,2.362,0,0,0,2.362,2.362" transform="translate(-1226.382 -770.025)" fill="#833343"/>
          <g id="Grupo_161885" data-name="Grupo 161885" transform="translate(141.39 86.992)" opacity="0.69">
            <g id="Grupo_161884" data-name="Grupo 161884" transform="translate(0 0)">
              <g id="Grupo_161883" data-name="Grupo 161883" clip-path="url(#clip-path-16)">
                <g id="Grupo_161879" data-name="Grupo 161879" opacity="0.72">
                  <g id="Grupo_161878" data-name="Grupo 161878">
                    <g id="Grupo_161877" data-name="Grupo 161877" clip-path="url(#clip-path-17)">
                      <path id="Trazado_604740" data-name="Trazado 604740" d="M1502.18,975.767h-28.253a1.045,1.045,0,0,1-1.045-1.044v-1.535a1.045,1.045,0,0,1,1.045-1.044h28.253a1.044,1.044,0,0,1,1.044,1.044v1.535a1.044,1.044,0,0,1-1.044,1.044" transform="translate(-1472.882 -972.144)" fill="#afafaf"/>
                    </g>
                  </g>
                </g>
                <g id="Grupo_161882" data-name="Grupo 161882" transform="translate(0 5.858)" opacity="0.72">
                  <g id="Grupo_161881" data-name="Grupo 161881">
                    <g id="Grupo_161880" data-name="Grupo 161880" clip-path="url(#clip-path-18)">
                      <path id="Trazado_604741" data-name="Trazado 604741" d="M1509.119,1020.036h-35.151a1.085,1.085,0,0,1-1.085-1.085V1017.5a1.085,1.085,0,0,1,1.085-1.085h35.151a1.085,1.085,0,0,1,1.085,1.085v1.453a1.085,1.085,0,0,1-1.085,1.085" transform="translate(-1472.883 -1016.413)" fill="#afafaf"/>
                    </g>
                  </g>
                </g>
              </g>
            </g>
          </g>
          <path id="Trazado_604742" data-name="Trazado 604742" d="M1370.15,992.3l-3.237-2.813a.637.637,0,0,1,.835-.962l2.289,1.989,3.254-3.641a.637.637,0,0,1,.949.848Z" transform="translate(-1239.355 -897.748)" fill="#fff"/>
          <path id="Trazado_604743" data-name="Trazado 604743" d="M1063.726,1122.462a33.22,33.22,0,0,1,.312,5.44c.1,3.607-.3,7.312-.4,9.38,0,.064-.007.128-.01.193-.026.488-.058,1.006-.094,1.53h26.985c-.01-.5-.019-1.009-.028-1.53-.054-3.054-.1-6.4-.107-8.787,6.167-1.629,12.827-3.754,12.7-5.308-.128-1.6-4.932-25.153-6.275-26.114a96.649,96.649,0,0,0-9.65-4.094,21.154,21.154,0,0,0-2.646-.9c-.683-.043-9.094.763-9.094.763s-1.207.413-2.439.979c-2.1.965-5.385,2.475-7.739,3.6-.76.361-1.711.85-2.5,1.27q.144,4.287.508,9.2s.437,7.158.479,14.386m26.737,2.725c.332-4.484,1.684-12.187,1.834-12.732,0,0,.634.6.638.6s.208.029.211.026a1.575,1.575,0,0,1,.192.072s4.083,5.7,4.128,8.77c.022,1.462-3.167,2.51-7,3.263" transform="translate(-964.182 -990.97)" fill="#dbd8e3"/>
          <path id="Trazado_604744" data-name="Trazado 604744" d="M1060.482,1151.51h3.535q.121-.747.259-1.53c.6-3.376,1.387-7.19,1.808-10.935h0c.777-6.939,1.847-13.737,2.424-17.776,1.5-10.515,3.506-15.22,3.506-15.22-.958.286-11.52,5.278-11.52,5.278.094,2.907.236,6.026.483,9.362,0,0,.233,8.153.7,15.885a15.44,15.44,0,0,1,.151,3.4c-.118,1.513-.282,3.164-.479,4.885,0,.024,0,.046-.007.065-.047.409-.1.82-.146,1.236,0,.007,0,.011,0,.018-.151,1.25-.319,2.526-.5,3.8q-.106.766-.218,1.53" transform="translate(-962.133 -1003.474)" fill="#323657"/>
          <path id="Trazado_604745" data-name="Trazado 604745" d="M1169.461,1131.653c.8,1.9,3.571,6.575,3.571,6.575s2-.491,4.95-1.254c.194,1.672.39,3.245.577,4.781.063.513.125,1.022.185,1.53h10.513q-.187-.772-.356-1.53a43.512,43.512,0,0,1-1.158-7.428c7.049-2.013,13.959-4.269,13.852-5.349-.16-1.6-5.454-26.289-6.8-27.251-.774-.556-6.521-2.593-9.34-3.7-.515-.2-2.274-.865-2.736-1.041-.6.666-4.72,5.215-6.177,22.4a66.842,66.842,0,0,0,.61,9.949c-4.268,1.139-7.831,1.995-7.693,2.318m19.223-6.134a80.62,80.62,0,0,1,1.254-8.075,13.648,13.648,0,0,1,1.1,5.917c-.018.71-.923,1.439-2.35,2.158" transform="translate(-1061.002 -995.249)" fill="#323657"/>
          <path id="Trazado_604746" data-name="Trazado 604746" d="M1209.71,1016.377s-1.07-2.022-.774-7.761c.082-1.59-8.352,3.771-8.352,3.771s.029.548.047,1.287c.01.308.015.645.015.992,0,.1,0,.191,0,.287,0,.157,0,.312-.006.468,0,.193-.011.382-.021.563-.01.207-.024.4-.043.581a5.319,5.319,0,0,1-.312,1.127c-.387.892,6.289.944,9.447-1.315" transform="translate(-1088.937 -914.81)" fill="#eea987"/>
          <path id="Trazado_604747" data-name="Trazado 604747" d="M1210.836,1134.551l-1.554,2.088a1.885,1.885,0,0,0,2.528.319Z" transform="translate(-1097.134 -1029.333)" fill="#e8734d"/>
          <path id="Trazado_604748" data-name="Trazado 604748" d="M1168.276,1157.44a77.714,77.714,0,0,0-4.48,31.576l1.8,3.26,2.025-2.776s.327-23.464,1.943-32.116Z" transform="translate(-1055.712 -1050.049)" fill="#e8734d"/>
          <path id="Trazado_604749" data-name="Trazado 604749" d="M1208.1,1107.738l1.664,1.947s2.671-.518,3.455-1.913-5.12-.035-5.12-.035" transform="translate(-1096.058 -1004.468)" fill="#eea987"/>
          <path id="Trazado_604750" data-name="Trazado 604750" d="M1193.506,1095.182a8.024,8.024,0,0,0,2.046,3.651l-2.022,2.717-1.094-5.636Z" transform="translate(-1081.849 -993.615)" fill="#c4c1cc"/>
          <path id="Trazado_604751" data-name="Trazado 604751" d="M1232.606,1075.931s-3.862,4.369-6.563,5.437l1.256,3.107,6.164-6.8Z" transform="translate(-1112.34 -976.15)" fill="#c4c1cc"/>
          <path id="Trazado_604752" data-name="Trazado 604752" d="M838.826,1187.85s5.126-4.972,8.489-5.8c1.554-.382,3.6-2.528,5.547-5.05.641-.831,1.27-1.7,1.869-2.565a.006.006,0,0,0,0,0c2.387-3.446,4.257-6.749,4.257-6.749s7.055-8.268,1.394-11.953a9.458,9.458,0,0,0-3.757.67c-1.368.743-4.287,6.835-4.782,7.914s-5.856,11.1-6.215,11.322a14.842,14.842,0,0,1-3.1,2.2c-2.626,1.414-6.752,5.553-6.752,5.553Z" transform="translate(-758.265 -1048.546)" fill="#323657"/>
          <path id="Trazado_604753" data-name="Trazado 604753" d="M1102.757,1479.489a3.255,3.255,0,0,0,1.023-.194s.536-.344.931-.565a3.16,3.16,0,0,1,.313-.158,5.968,5.968,0,0,0,1.722-.821c.674-.513,2.872-2.569,2.872-2.569L1108.2,1473l-.656-2.162s-5.124.51-5.807.916a2.041,2.041,0,0,0-.188.126,7.6,7.6,0,0,0-1.045,1.169c-.1.09-.988,1.045-.938,1.432a1.276,1.276,0,0,0,.668,1.046,3.05,3.05,0,0,0,.722,1.515,1.9,1.9,0,0,0,.974,1.362s.248.97.83,1.086" transform="translate(-997.587 -1334.431)" fill="#efaa88"/>
          <path id="Trazado_604754" data-name="Trazado 604754" d="M1147.846,850.161s-9.261-2.232-7.31,9.492,4.172,12.677,9.813,10.339,5.249-9.837,5.585-13.507-5.126-6.154-8.089-6.325" transform="translate(-1034.518 -771.164)" fill="#eea886"/>
          <path id="Trazado_604755" data-name="Trazado 604755" d="M1273.4,930.744a1.185,1.185,0,0,1,2.324.171c.142,1.549-.989,4.248-1.759,3.969s-.754-2.72-.565-4.141" transform="translate(-1155.204 -843.626)" fill="#eea886"/>
          <path id="Trazado_604756" data-name="Trazado 604756" d="M1150.376,835.85s-.186-3.688-1.53-3.823-1.573,1.346-1.573,1.346l-1.363.237s.477-3.223-.859-3.807-8.732,1.65-9.8.686-.461-7.507,1.5-8.375,7.381-2.8,11.289-.068c0,0,3.082-.306,3.5,2.184s-.309,9.785-1.173,11.619" transform="translate(-1029.5 -744.534)" fill="#16202e"/>
          <path id="Trazado_604757" data-name="Trazado 604757" d="M1166.776,1440.182l3.824,6.574s10.13-2.61,12.493-3.277l-5.4-6.431s-7.966,1.82-10.914,3.133" transform="translate(-1058.57 -1303.778)" fill="#323657"/>
          <path id="Trazado_604758" data-name="Trazado 604758" d="M1204.251,1048.592h0a8.857,8.857,0,0,0,6.893-4.33,10.268,10.268,0,0,1-6.866,3.012c0,.1,0,.191,0,.287,0,.157,0,.312-.005.468,0,.193-.011.381-.021.563" transform="translate(-1092.569 -947.418)" fill="#a77860"/>
          <path id="Trazado_604759" data-name="Trazado 604759" d="M778.3,1315.633l2.7,25.116H745.442l-2.7-25.116Z" transform="translate(-673.859 -1193.622)" fill="#ffc955"/>
          <rect id="Rectángulo_47953" data-name="Rectángulo 47953" width="5.939" height="2.26" transform="translate(104.031 144.868)" fill="#ffc955"/>
        </g>
      </g>
      <g id="Grupo_161889" data-name="Grupo 161889" transform="translate(38.193 147.075)">
        <g id="Grupo_161888" data-name="Grupo 161888" clip-path="url(#clip-path-19)">
          <rect id="Rectángulo_47955" data-name="Rectángulo 47955" width="96.642" height="1.53" fill="url(#linear-gradient)"/>
        </g>
      </g>
      <g id="Grupo_161897" data-name="Grupo 161897" transform="translate(0 0)">
        <g id="Grupo_161896" data-name="Grupo 161896" clip-path="url(#clip-path-20)">
          <path id="Trazado_604760" data-name="Trazado 604760" d="M931.012,1425.555a2.078,2.078,0,1,1-2.492-2.129,2.354,2.354,0,0,1,2.492,2.129" transform="translate(-841.026 -1291.389)" fill="#cfa345"/>
          <path id="Trazado_604761" data-name="Trazado 604761" d="M162.309,987.849h-32a2.784,2.784,0,0,1-2.784-2.784V954.312a2.784,2.784,0,0,1,2.784-2.784h32a2.784,2.784,0,0,1,2.784,2.784v30.753a2.784,2.784,0,0,1-2.784,2.784" transform="translate(-115.7 -863.284)" fill="#e0e0e0"/>
          <path id="Trazado_604762" data-name="Trazado 604762" d="M162.531,1118.433l-.26-.276,6.735-6.355,6.816,1.477,6.511-7.425,5.678.32,4.422-6.1.307.223-4.544,6.268-5.7-.322-6.536,7.453-6.839-1.482Z" transform="translate(-147.222 -998.055)" fill="#377b93"/>
          <path id="Trazado_604763" data-name="Trazado 604763" d="M300.219,1234.594a1.012,1.012,0,1,1-1.2-.775,1.012,1.012,0,0,1,1.2.775" transform="translate(-270.562 -1119.374)" fill="#e6e6e6"/>
          <path id="Trazado_604764" data-name="Trazado 604764" d="M297.63,1234.128a1.2,1.2,0,1,1,.92-1.428,1.2,1.2,0,0,1-.92,1.428m-.428-1.978a.822.822,0,1,0,.977.63.823.823,0,0,0-.977-.63" transform="translate(-268.707 -1117.52)" fill="#377b93"/>
          <path id="Trazado_604765" data-name="Trazado 604765" d="M370.538,1155.069a1.012,1.012,0,1,1-1.2-.775,1.012,1.012,0,0,1,1.2.775" transform="translate(-334.359 -1047.225)" fill="#e6e6e6"/>
          <path id="Trazado_604766" data-name="Trazado 604766" d="M367.948,1154.6a1.2,1.2,0,1,1,.92-1.429,1.2,1.2,0,0,1-.92,1.429m-.428-1.978a.822.822,0,1,0,.977.63.823.823,0,0,0-.977-.63" transform="translate(-332.504 -1045.369)" fill="#377b93"/>
          <path id="Trazado_604767" data-name="Trazado 604767" d="M431.317,1157.5a1.012,1.012,0,1,1-1.2-.775,1.012,1.012,0,0,1,1.2.775" transform="translate(-389.501 -1049.432)" fill="#e6e6e6"/>
          <path id="Trazado_604768" data-name="Trazado 604768" d="M428.727,1157.036a1.2,1.2,0,1,1,.92-1.428,1.2,1.2,0,0,1-.92,1.428m-.428-1.978a.822.822,0,1,0,.977.63.823.823,0,0,0-.977-.63" transform="translate(-387.646 -1047.577)" fill="#377b93"/>
          <path id="Trazado_604769" data-name="Trazado 604769" d="M226.541,1219.651a1.012,1.012,0,1,1-1.2-.775,1.012,1.012,0,0,1,1.2.775" transform="translate(-203.716 -1105.817)" fill="#e6e6e6"/>
          <path id="Trazado_604770" data-name="Trazado 604770" d="M223.95,1219.183a1.2,1.2,0,1,1,.92-1.429,1.2,1.2,0,0,1-.92,1.429m-.428-1.978a.822.822,0,1,0,.977.63.823.823,0,0,0-.977-.63" transform="translate(-201.86 -1103.961)" fill="#377b93"/>
          <rect id="Rectángulo_47957" data-name="Rectángulo 47957" width="4.142" height="0.798" transform="translate(20.824 117.809)" fill="#fff"/>
          <rect id="Rectángulo_47958" data-name="Rectángulo 47958" width="4.142" height="0.798" transform="translate(23.704 109.623)" fill="#fff"/>
          <rect id="Rectángulo_47959" data-name="Rectángulo 47959" width="4.142" height="0.798" transform="translate(32.297 115.327)" fill="#fff"/>
          <rect id="Rectángulo_47960" data-name="Rectángulo 47960" width="4.142" height="0.798" transform="translate(36.012 104.125)" fill="#fff"/>
          <rect id="Rectángulo_47961" data-name="Rectángulo 47961" width="4.142" height="0.798" transform="translate(42.028 110.8)" fill="#fff"/>
          <rect id="Rectángulo_47962" data-name="Rectángulo 47962" width="14.752" height="1.448" transform="translate(14.59 91.02)" fill="#4e8c63"/>
          <rect id="Rectángulo_47963" data-name="Rectángulo 47963" width="14.752" height="1.448" transform="translate(14.59 94.916)" fill="#fff"/>
          <rect id="Rectángulo_47964" data-name="Rectángulo 47964" width="14.752" height="1.448" transform="translate(14.59 98.811)" fill="#fff"/>
          <rect id="Rectángulo_47965" data-name="Rectángulo 47965" width="2.462" height="1.448" transform="translate(32.353 91.02)" fill="#4e8c63"/>
          <rect id="Rectángulo_47966" data-name="Rectángulo 47966" width="2.462" height="1.448" transform="translate(32.353 94.916)" fill="#fff"/>
          <rect id="Rectángulo_47967" data-name="Rectángulo 47967" width="2.462" height="1.448" transform="translate(32.353 98.811)" fill="#fff"/>
          <path id="Trazado_604771" data-name="Trazado 604771" d="M788.084,1150.464s-1.936-4.387.31-4.024a8.19,8.19,0,0,1,1.549,1.92c.594.976,1.831,3.557,1.785,4.431s-.667,1.524-1.338,2.927c0,0-1.394,2.6-1.453,2.917l-1.474-.765s1.249-2.489,2.129-4.677Z" transform="translate(-714.294 -1040.101)" fill="#dbd8e3"/>
          <rect id="Rectángulo_47968" data-name="Rectángulo 47968" width="5.117" height="30.096" transform="translate(55.465 118.465) rotate(-80.337)" fill="#e8734d"/>
          <rect id="Rectángulo_47969" data-name="Rectángulo 47969" width="3.884" height="1.608" transform="matrix(0.168, -0.986, 0.986, 0.168, 53.983, 117.587)" fill="#2d3038"/>
          <path id="Trazado_604772" data-name="Trazado 604772" d="M622.532,1548.813h-.365s.122-1.38-.216-1.394-1.177,1.123-1.678,1.3-3.071.324-3.084-.149.987-.663,1.3-.8,1.826-1.61,2.1-1.786a5.192,5.192,0,0,0,.732-1.4l1.435-.064s.081,1.143.168,1.748a5.351,5.351,0,0,1,.059.567,10.466,10.466,0,0,1-.446,1.975" transform="translate(-559.951 -1401.285)" fill="#eea886"/>
          <path id="Trazado_604773" data-name="Trazado 604773" d="M730.272,1546.859h-.3v-1.285a6.214,6.214,0,0,0-1.37,1.062c-.264.233-.625.223-1.737.293s-1.216-.594-1.04-.821.744-.325,1.04-.467a19.189,19.189,0,0,0,1.774-1.769,3.228,3.228,0,0,0,.5-1.2l1.3.113a7.95,7.95,0,0,0,.14,1.5h0a.028.028,0,0,1,0,.005q.019.088.041.171a6.468,6.468,0,0,1-.345,2.4" transform="translate(-658.447 -1399.604)" fill="#eea886"/>
          <path id="Trazado_604774" data-name="Trazado 604774" d="M663.609,1264.8a12.982,12.982,0,0,0-.534,1.454,44.627,44.627,0,0,0-1.525,4.943c-.2,1.121-.748,4.63-.793,5.076-.076.764-.436,2.449-.491,3.229-.031.436-2.178,7.128-2.7,10.622a6.442,6.442,0,0,0,2.163-.062,36.612,36.612,0,0,0,2.932-8.733,35.2,35.2,0,0,1,1.676-6,42.023,42.023,0,0,1,3.543-5.273c.289-.4,2.1-2.638.385-5.059s-4.658-.2-4.658-.2" transform="translate(-596.586 -1146.659)" fill="#323657"/>
          <path id="Trazado_604775" data-name="Trazado 604775" d="M738.779,1269.55c-.157,1.042.008,2.411.335,6.221a36.144,36.144,0,0,1-.573,8.422,4.573,4.573,0,0,1-2.433,0c.03-.268,0-9.286,0-10.089s-.231-1.716-.29-2.638a18.8,18.8,0,0,0-.662-2.97c-.1-.354-.2-.711-.3-1.056h0l-.163-.568c-.463-1.607-1.087-7.813-1.087-7.813s3.454-2.782,5.136-.163a5.343,5.343,0,0,1,.759,4.851c-.059.328-.566,4.762-.722,5.8" transform="translate(-665.573 -1141.127)" fill="#323657"/>
          <path id="Trazado_604776" data-name="Trazado 604776" d="M749.575,1324.421c-.027.06-1.748,3.88-2.191,4.542-.1-.355-.2-.711-.3-1.056h0s2.433-3.4,2.49-3.486" transform="translate(-677.801 -1201.595)" fill="#131521"/>
          <path id="Trazado_604777" data-name="Trazado 604777" d="M730.272,1560.238h-.3v-1.284a6.221,6.221,0,0,0-1.37,1.062c-.264.233-.625.223-1.737.293s-1.216-.594-1.04-.821.744-.325,1.04-.467c1.189.063,2.639-1.607,3.335-1.6.37,0,.366.207.378.246h0a.029.029,0,0,1,0,.005q.019.087.041.171a6.467,6.467,0,0,1-.345,2.4" transform="translate(-658.447 -1412.983)" fill="#c6c9cc"/>
          <path id="Trazado_604778" data-name="Trazado 604778" d="M622.532,1565.5h-.365s.122-1.38-.216-1.394-1.177,1.123-1.678,1.3-3.071.324-3.084-.149.987-.663,1.3-.8c1.06,0,2.784-1.169,3.319-1.406a1.932,1.932,0,0,1,1.113-.094,5.355,5.355,0,0,1,.059.567,10.464,10.464,0,0,1-.446,1.975" transform="translate(-559.951 -1417.971)" fill="#c6c9cc"/>
          <path id="Trazado_604779" data-name="Trazado 604779" d="M755.585,1106.947a4.272,4.272,0,0,1,.122,2.585s2.021-.131,2.1-.367a17.868,17.868,0,0,1,.2-3.067c.278-.646-2.417.848-2.417.848" transform="translate(-685.512 -1003.372)" fill="#eea886"/>
          <path id="Trazado_604780" data-name="Trazado 604780" d="M721.039,1137.693s-1.194.425-1.734.543-1.669.653-1.577,2.666a42.034,42.034,0,0,0,.551,4.624,18.249,18.249,0,0,1-.153,4.137,15.134,15.134,0,0,0,6.231,0,14.037,14.037,0,0,1-.582-2.3c.015-.472,1.99-4.357,2.082-4.97s.49-3.319-.413-3.917-1.638-.519-2.021-.786a4.2,4.2,0,0,0-2.385,0" transform="translate(-651.162 -1032.027)" fill="#dbd8e3"/>
          <path id="Trazado_604781" data-name="Trazado 604781" d="M717.237,1171.126a16.742,16.742,0,0,1-8.784.005,12.107,12.107,0,0,0,.805-2.162h0a12.932,12.932,0,0,0,.3-1.451h0a13.142,13.142,0,0,0-.121-4.705c.565-4.647,7.6-6.033,8.159-4.56s-1.091,7.8-1.175,8.346a39.28,39.28,0,0,0,.815,4.529" transform="translate(-642.751 -1050.325)" fill="#dbd8e3"/>
          <path id="Trazado_604782" data-name="Trazado 604782" d="M738.27,1052.208c-.812-.279-3.008-.575-3.571,2.8s.663,3.429,1.921,3.333,3.228-2.371,3.379-3.063.589-2.27-1.729-3.066" transform="translate(-666.436 -954.484)" fill="#eea886"/>
          <path id="Trazado_604783" data-name="Trazado 604783" d="M740.953,1050.872a5.12,5.12,0,0,0,1.551,1.935,4.34,4.34,0,0,0,1.745,2.142s3.168-2.1,1.33-4.592a2.617,2.617,0,0,0-4.625.515" transform="translate(-672.237 -951.853)" fill="#16202e"/>
          <path id="Trazado_604784" data-name="Trazado 604784" d="M755.058,1080.81a.414.414,0,0,1,.759.021c.213.481-.552,1.329-.761,1.283s-.268-.638,0-1.3" transform="translate(-684.87 -980.354)" fill="#eea886"/>
          <path id="Trazado_604785" data-name="Trazado 604785" d="M777.513,1063.111c.069-.108,2.167-1.079,2.6.95s-1.689,4.388-2.062,5.4a8.753,8.753,0,0,0,.168,3.393,7,7,0,0,1-1.666-2.475,10.132,10.132,0,0,1,.956-7.271" transform="translate(-704.279 -964.223)" fill="#16202e"/>
          <path id="Trazado_604786" data-name="Trazado 604786" d="M783.445,1065.491a2.116,2.116,0,0,0-.725,1.309,1.574,1.574,0,0,1,.138-1.007.579.579,0,0,1,.586-.3" transform="translate(-710.106 -966.672)" fill="#e54242"/>
          <path id="Trazado_604787" data-name="Trazado 604787" d="M717.138,1212.588a12.938,12.938,0,0,0,.3-1.451l.059-.447a1.507,1.507,0,0,0,.372-.566c.109-.328.919-4.356.919-4.356a8.589,8.589,0,0,1-1.651,6.82" transform="translate(-650.631 -1093.946)" fill="#1d3b54"/>
          <path id="Trazado_604788" data-name="Trazado 604788" d="M647.143,1281.832a4.738,4.738,0,0,1-.835.689,17.342,17.342,0,0,0-2.045-.392c-.127-.009-.351.1-.3.273a2.262,2.262,0,0,0,.953.695c.27.07,1.543.576,2.163.327a2.543,2.543,0,0,0,1.042-1.038Z" transform="translate(-584.236 -1162.956)" fill="#eea886"/>
          <path id="Trazado_604789" data-name="Trazado 604789" d="M674.065,1146.431a3.242,3.242,0,0,0-1.774,2.992,32.888,32.888,0,0,1-.281,3.9,12.838,12.838,0,0,1-.686,2.672,28.584,28.584,0,0,1-3.093,3.511l1.3,1.221s3.742-3.754,3.969-4.441,1.163-5.464,1.237-6.269c.06-.649.916-3.542-.671-3.59" transform="translate(-606.26 -1040.111)" fill="#dbd8e3"/>
          <path id="Trazado_604790" data-name="Trazado 604790" d="M226.707,1022.8c0,.08-.008.159-.014.239h3.063c.005-.08.008-.159.011-.239Zm-34.164-.846c0,.093,0,.184,0,.277.005.387.022.772.055,1.154a18.174,18.174,0,0,0,.519,3.181,18.532,18.532,0,0,0,4.893,8.566c.091.094.181.182.272.269.365.352.747.69,1.143,1.008a18.53,18.53,0,0,0,11.739,4.168c.074,0,.148,0,.223,0a18.519,18.519,0,0,0,9.255-2.588,18.685,18.685,0,0,0,8.176-10.091c.146-.437.278-.879.393-1.33a18.745,18.745,0,0,0,.453-2.464v0c.019-.178.038-.357.052-.538s.03-.346.038-.522c.005-.08.008-.159.011-.239.008-.176.014-.349.016-.525,0-.107,0-.214,0-.321A18.623,18.623,0,0,0,214,1003.55c-.173-.027-.346-.052-.522-.074-.192-.022-.385-.044-.577-.06-.173-.016-.349-.03-.522-.041-.4-.028-.8-.039-1.209-.039-.343,0-.684.008-1.022.027-.58.03-1.151.091-1.717.173a18.671,18.671,0,0,0-14.373,11.063c-.027.06-.052.124-.077.184s-.049.118-.071.176c-.143.343-.272.692-.39,1.044a18.269,18.269,0,0,0-.709,2.827c-.047.255-.082.514-.118.775,0,.044-.008.088-.014.135,0,0,0,.005,0,.011a.516.516,0,0,0-.006.066.645.645,0,0,0-.011.077v.019a.161.161,0,0,0-.006.039.42.42,0,0,0-.005.058c-.005.047-.011.093-.014.14-.027.286-.049.574-.063.863,0,.039-.006.08-.006.118l-.008.19c-.008.212-.011.423-.011.637m4.173,5.794-.071-.182c-.052-.135-.1-.269-.151-.407l-.113-.329c-.027-.082-.055-.165-.08-.247,0-.005,0-.011-.005-.016a.318.318,0,0,1-.014-.047c-.044-.137-.082-.277-.121-.418l-.044-.162c-.041-.148-.077-.3-.113-.451,0-.014-.008-.03-.011-.047-.03-.14-.06-.28-.088-.42-.014-.058-.025-.115-.036-.173-.033-.176-.063-.354-.091-.533-.049-.313-.085-.629-.115-.948-.011-.107-.019-.217-.027-.327,0,0,0,0,0,0,0-.036,0-.069-.005-.1-.008-.148-.016-.3-.022-.445v-.044c0-.033,0-.069,0-.1,0-.129-.006-.258-.006-.387s0-.242.006-.36a13.607,13.607,0,0,1,.1-1.429,1.351,1.351,0,0,1,.016-.148.01.01,0,0,1,0-.008s0,0,0,0a.005.005,0,0,1,0-.008.1.1,0,0,1,0-.03v-.005c0-.006,0-.008,0-.011a15.452,15.452,0,0,1,2.311-6.365,15.625,15.625,0,0,1,5.648-5.283,15.15,15.15,0,0,1,1.89-.879c.206-.08.418-.157.629-.225a15.225,15.225,0,0,1,3.712-.756c.412-.036.827-.052,1.247-.052.126,0,.25,0,.376.005.146,0,.288.008.434.014.1.006.209.014.313.022a.816.816,0,0,1,.085.006c.173.011.349.027.522.047l.132.016c.069.008.14.017.209.028s.157.019.236.033c.176.025.349.055.522.085l.047.008q.2.037.4.082l.025.006c.055.011.113.025.168.038.126.028.25.058.374.091a1.568,1.568,0,0,1,.162.041c.143.038.286.077.429.121s.272.082.407.126c.063.019.126.041.187.063.269.091.536.19.8.3.071.028.143.058.214.088.11.047.217.094.327.143.088.038.176.077.261.121.129.058.255.121.382.184q.214.107.42.223c.159.085.313.173.467.264.319.187.626.385.929.593.129.088.255.179.382.275.159.113.313.231.464.352.135.107.269.217.4.33s.269.231.4.352a15.524,15.524,0,0,1,5.088,11.511c0,.107,0,.214,0,.321,0,.176-.008.349-.019.525,0,.08-.008.159-.014.239-.014.176-.028.349-.047.522-.049.495-.124.981-.22,1.461a15.132,15.132,0,0,1-.393,1.544c-.124.4-.264.8-.42,1.181a15.56,15.56,0,0,1-14.225,9.769c-.074,0-.148,0-.223,0a15.563,15.563,0,0,1-13.75-8.263c-.069-.132-.137-.264-.2-.4l-.121-.253c-.049-.1-.093-.2-.14-.3l-.044-.1c-.038-.088-.077-.176-.113-.266Z" transform="translate(-174.687 -910.287)" fill="#323657"/>
          <g id="Grupo_161892" data-name="Grupo 161892" transform="translate(20.97 96.161)" opacity="0.1">
            <g id="Grupo_161891" data-name="Grupo 161891">
              <g id="Grupo_161890" data-name="Grupo 161890" clip-path="url(#clip-path-21)">
                <path id="Trazado_604791" data-name="Trazado 604791" d="M226.116,1052.4a15.509,15.509,0,1,0,15.509-15.509,15.509,15.509,0,0,0-15.509,15.509" transform="translate(-226.116 -1036.895)" fill="#b8b8b8"/>
              </g>
            </g>
          </g>
          <g id="Grupo_161895" data-name="Grupo 161895" transform="translate(20.915 96.106)" opacity="0.3">
            <g id="Grupo_161894" data-name="Grupo 161894">
              <g id="Grupo_161893" data-name="Grupo 161893" clip-path="url(#clip-path-22)">
                <path id="Trazado_604792" data-name="Trazado 604792" d="M251.559,1040.352s-20.2-2.5-24.223,18.814h0a15.566,15.566,0,0,1,24.224-18.814" transform="translate(-225.52 -1036.3)" fill="#869ac2"/>
              </g>
            </g>
          </g>
        </g>
      </g>
      <g id="Grupo_161899" data-name="Grupo 161899" transform="translate(14.751 136.293)">
        <g id="Grupo_161898" data-name="Grupo 161898" clip-path="url(#clip-path-23)">
          <rect id="Rectángulo_47973" data-name="Rectángulo 47973" width="8.573" height="0.509" fill="url(#linear-gradient-2)"/>
        </g>
      </g>
      <g id="Grupo_161901" data-name="Grupo 161901" transform="translate(0 0)">
        <g id="Grupo_161900" data-name="Grupo 161900" clip-path="url(#clip-path-20)">
          <rect id="Rectángulo_47975" data-name="Rectángulo 47975" width="0.751" height="23.144" transform="translate(15.9 138.126)" fill="#706865"/>
          <rect id="Rectángulo_47976" data-name="Rectángulo 47976" width="5.959" height="0.727" transform="translate(21.982 136.149)" fill="#ccbdb7"/>
          <rect id="Rectángulo_47977" data-name="Rectángulo 47977" width="2.257" height="6.854" transform="translate(23.834 129.948)" fill="#ffab55"/>
          <rect id="Rectángulo_47978" data-name="Rectángulo 47978" width="33.016" height="1.316" transform="translate(11.676 136.81)" fill="#b59074"/>
          <path id="Trazado_604793" data-name="Trazado 604793" d="M31.342,1367.7s-.361,5.064.628,5.67c.62.38,3.091,1.66,3.018,1.9s-1.4,2.137-1.4,2.137-4.747-3.126-4.9-4.111c-.149-.962.234-7.415.886-7.712.489-.223.747-.039,1.363.419a1.442,1.442,0,0,1,.4,1.7" transform="translate(-26.002 -1238.858)" fill="#ffc955"/>
          <path id="Trazado_604794" data-name="Trazado 604794" d="M141.856,1391.708l.418-.155s-.522-1.225-.749-1.195a5.644,5.644,0,0,0-.59.121Z" transform="translate(-127.865 -1261.416)" fill="#ead8cf"/>
          <path id="Trazado_604795" data-name="Trazado 604795" d="M125.723,1391.118c-.054-.04-.889-1.643-.889-1.643l-1.786.243.965,1.9Z" transform="translate(-111.637 -1260.616)" fill="#da9b5b"/>
          <path id="Trazado_604796" data-name="Trazado 604796" d="M101.578,1703.586s-.148,1.025-.166,1.179-1.642-.091-1.642-.091l-.131-1.22a9.619,9.619,0,0,1,1.94.132" transform="translate(-90.398 -1545.477)" fill="#424773"/>
          <path id="Trazado_604797" data-name="Trazado 604797" d="M98.946,1715.5a4.389,4.389,0,0,0,1.012.887c.5.269,1.279.375,1.574.654.212.2.774,1.067-1.293,1.049s-3.063.122-3.284-.209.32-2.45.32-2.45a4.377,4.377,0,0,0,1.671.069" transform="translate(-87.914 -1556.347)" fill="#292c47"/>
          <path id="Trazado_604798" data-name="Trazado 604798" d="M213.75,1703.691s-.148,1.025-.166,1.179-1.642-.091-1.642-.091l-.131-1.22a9.611,9.611,0,0,1,1.94.132" transform="translate(-192.167 -1545.572)" fill="#424773"/>
          <path id="Trazado_604799" data-name="Trazado 604799" d="M211.118,1715.609a4.387,4.387,0,0,0,1.012.887c.5.269,2.329.49,2.623.769.212.2.566,1.01-2.342.935-2.066-.054-3.063.122-3.284-.21s.32-2.45.32-2.45a3.973,3.973,0,0,0,1.671.069" transform="translate(-189.684 -1556.442)" fill="#292c47"/>
          <path id="Trazado_604800" data-name="Trazado 604800" d="M49.681,1514.03s5.9,1,7.236,1.208,8.562,2.008,9.467,2.556c.72.436-.377,10.916-.634,14.914H62.9l-.206-11.993c-3.417.086-5.855-.8-8.343-.421s-4.563.915-6.144-1.206c0,0-.059-4.595,1.472-5.058" transform="translate(-43.738 -1373.62)" fill="#292c47"/>
          <path id="Trazado_604801" data-name="Trazado 604801" d="M44.144,1545.208l-2.775-.172-.271-11.831a16.839,16.839,0,0,1-3.166-.2l-2.24-5.208c1.963.392,8.254,1.979,9.093,2.488.72.437-.386,10.925-.642,14.923" transform="translate(-32.383 -1386.11)" fill="#292c47"/>
          <path id="Trazado_604802" data-name="Trazado 604802" d="M78.843,1274.424s2.164-.6,2.99,1.082.451,4.864-.639,5.164-2.659-.045-3.112-1.091a8.022,8.022,0,0,1-.706-3.493,2.109,2.109,0,0,1,1.467-1.662" transform="translate(-70.183 -1156.141)" fill="#eea886"/>
          <path id="Trazado_604803" data-name="Trazado 604803" d="M84.3,1324.767a6.614,6.614,0,0,0,.117,1.55c.141.272-3.013.2-3.013.2a6.4,6.4,0,0,0,.215-2.841c-.279-1.294,2.681,1.087,2.681,1.087" transform="translate(-73.851 -1200.573)" fill="#eea886"/>
          <path id="Trazado_604804" data-name="Trazado 604804" d="M76.549,1276.67s.169.343.985.287,1.893-1.04,2.24-1.128.367-.285.367-.285l.183.326.355.054s-.241-.987.284-1.335-.237-3.147-2.9-2.472c0,0-2.032.372-2.059,1.506a6.294,6.294,0,0,0,.543,3.046" transform="translate(-68.955 -1154.047)" fill="#3a3f47"/>
          <path id="Trazado_604805" data-name="Trazado 604805" d="M84.984,1347.313s-.009-.52-.245-.57a15.369,15.369,0,0,0-2.769-.245l-.124.687s.558.343,3.138.128" transform="translate(-74.256 -1221.602)" fill="#e2d2ca"/>
          <path id="Trazado_604806" data-name="Trazado 604806" d="M113.8,1301.929c-.061-.427-.546-.917-.823-.252s.188,1.632.5,1.58.406-.749.324-1.328" transform="translate(-102.418 -1180.665)" fill="#eea886"/>
          <path id="Trazado_604807" data-name="Trazado 604807" d="M216.967,1421.823h0c.016.007.019.008,0,0" transform="translate(-196.842 -1289.964)" fill="#323657"/>
          <path id="Trazado_604808" data-name="Trazado 604808" d="M73.645,1278.717s-2.638-.124-.46,3.995Z" transform="translate(-65.616 -1160.129)" fill="#3a3f47"/>
          <path id="Trazado_604809" data-name="Trazado 604809" d="M23.189,1700l.2.552,8.293-2.57-.4-1.118Z" transform="translate(-21.038 -1539.496)" fill="#918783"/>
          <rect id="Rectángulo_47979" data-name="Rectángulo 47979" width="0.943" height="9.016" transform="translate(9.982 149.075)" fill="#918783"/>
          <rect id="Rectángulo_47980" data-name="Rectángulo 47980" width="5.56" height="0.531" transform="translate(7.673 148.596)" fill="#5e5854"/>
          <path id="Trazado_604810" data-name="Trazado 604810" d="M119.974,1699.312l-.2.552-8.293-2.569.364-1.188Z" transform="translate(-101.146 -1538.81)" fill="#918783"/>
          <path id="Trazado_604811" data-name="Trazado 604811" d="M114.132,1699.8v.642l-2.646-3.153.364-1.188Z" transform="translate(-101.146 -1538.81)" fill="#918783"/>
          <path id="Trazado_604812" data-name="Trazado 604812" d="M196.218,1731.372a.775.775,0,1,1-.775-.775.775.775,0,0,1,.775.775" transform="translate(-176.615 -1570.102)" fill="#bfb2ac"/>
          <path id="Trazado_604813" data-name="Trazado 604813" d="M125.566,1731.372a.775.775,0,1,1-.775-.775.775.775,0,0,1,.775.775" transform="translate(-112.515 -1570.102)" fill="#bfb2ac"/>
          <path id="Trazado_604814" data-name="Trazado 604814" d="M16.382,1731.372a.775.775,0,1,1-.775-.775.775.775,0,0,1,.775.775" transform="translate(-13.456 -1570.102)" fill="#bfb2ac"/>
          <path id="Trazado_604815" data-name="Trazado 604815" d="M54.274,1582.6H43.09a.993.993,0,0,1-.993-.994v-.026a.993.993,0,0,1,.993-.993H54.274a.993.993,0,0,1,.993.993v.026a.993.993,0,0,1-.993.994" transform="translate(-38.193 -1434.007)" fill="#e2d2ca"/>
          <rect id="Rectángulo_47981" data-name="Rectángulo 47981" width="0.751" height="23.144" transform="translate(39.717 138.126)" fill="#706865"/>
        </g>
      </g>
      <g id="Grupo_161903" data-name="Grupo 161903" transform="translate(15.219 119.504)">
        <g id="Grupo_161902" data-name="Grupo 161902" clip-path="url(#clip-path-25)">
          <rect id="Rectángulo_47983" data-name="Rectángulo 47983" width="19.485" height="13.746" fill="url(#linear-gradient-3)"/>
        </g>
      </g>
      <g id="Grupo_161905" data-name="Grupo 161905" transform="translate(0 0)">
        <g id="Grupo_161904" data-name="Grupo 161904" clip-path="url(#clip-path-20)">
          <rect id="Rectángulo_47985" data-name="Rectángulo 47985" width="17.959" height="10.849" transform="translate(15.983 120.247)" fill="#f5f7ff"/>
          <rect id="Rectángulo_47986" data-name="Rectángulo 47986" width="17.959" height="0.863" transform="translate(15.983 120.247)" fill="#cecfd6"/>
          <path id="Trazado_604816" data-name="Trazado 604816" d="M181.433,1313.725h-3.287a.331.331,0,0,1-.331-.331v-.14a.331.331,0,0,1,.331-.331h3.287a.331.331,0,0,1,.331.331v.14a.331.331,0,0,1-.331.331" transform="translate(-161.324 -1191.162)" fill="#cecfd6"/>
          <path id="Trazado_604817" data-name="Trazado 604817" d="M181.08,1334.93H178.5a.684.684,0,0,1-.684-.684v-6.18a.684.684,0,0,1,.684-.684h2.581a.684.684,0,0,1,.684.684v6.18a.684.684,0,0,1-.684.684" transform="translate(-161.324 -1204.281)" fill="#cecfd6"/>
          <path id="Trazado_604818" data-name="Trazado 604818" d="M262.181,1458.123v-.245s-.344-1.521-2.776-1.521-2.383,1.766-2.383,1.766Z" transform="translate(-233.185 -1321.295)" fill="#2e436e"/>
          <path id="Trazado_604819" data-name="Trazado 604819" d="M251.445,1449.574a2.4,2.4,0,0,0,.722-.158c.194-.117,1.352-.9,1.624-.771s2.083.679,2.02.944-.23.239-.358.192a9.327,9.327,0,0,0-1.558-.276s1.291.471,1.3.815-.27.428-.393.557-.269.453-.6.478-1.957-.54-2.291-.566a8.16,8.16,0,0,1-1-.034,9.258,9.258,0,0,1,.535-1.181" transform="translate(-227.638 -1314.287)" fill="#eea886"/>
          <path id="Trazado_604820" data-name="Trazado 604820" d="M45.226,1355c-1.685-.3-3.458-.721-3.458-.721l-3.138-.128a30.528,30.528,0,0,0-4.014,1.146,31.351,31.351,0,0,1-.4,3.23l.94,1.984s.543,3.93.656,5.677c.052.8-.146,7.754-.146,7.754a12.077,12.077,0,0,0,2.423.375c2.142.236,7.492-.085,7.526-.338s-1.036-9.419-1.084-9.893c-.073-.729.211-4.095.211-4.095.4.542,1.432,2.99,2.5,4.154.631.685,3.754,1.105,4.342,1.125,1.281.042,3.619.3,3.687.173a7.549,7.549,0,0,0,.057-2.124c-.128-.043-4.469-.292-5.581-.883a14.536,14.536,0,0,1-1.623-2.868s-1.97-4.151-2.9-4.569" transform="translate(-31.04 -1228.568)" fill="#ffc955"/>
          <path id="Trazado_604821" data-name="Trazado 604821" d="M16.1,1442.325H10.828a1.908,1.908,0,0,1-1.908-1.908v-8.765a1.908,1.908,0,0,1,1.908-1.908H16.1A1.908,1.908,0,0,1,18,1431.652v8.765a1.908,1.908,0,0,1-1.908,1.908" transform="translate(-8.093 -1297.151)" fill="#e2d2ca"/>
          <path id="Trazado_604822" data-name="Trazado 604822" d="M43.183,1523.812a4.161,4.161,0,0,1-3.228-1.337c-1.816-2-1.489-5.528-1.475-5.677a.505.505,0,0,1,1.006.1c0,.04-.293,3.234,1.22,4.9a3.152,3.152,0,0,0,2.477,1,.505.505,0,1,1,0,1.01" transform="translate(-34.882 -1375.717)" fill="#e2d2ca"/>
          <path id="Trazado_604823" data-name="Trazado 604823" d="M229,1318.662a3.724,3.724,0,0,0,1.289,2.818q.064.055.131.108t.153.115a3.7,3.7,0,0,0,1.694.656q.165.021.335.026l.122,0q.181,0,.357-.017a3.711,3.711,0,0,0,1.91-.753,3.73,3.73,0,0,0,.376-.331l.068-.07a3.625,3.625,0,0,0,.236-.277,3.725,3.725,0,1,0-6.672-2.277" transform="translate(-207.763 -1192.99)" fill="#eef0f7"/>
          <path id="Trazado_604824" data-name="Trazado 604824" d="M243,1368.783l.275.986a3.7,3.7,0,0,0,1.694.656q.165.02.335.026l.122,0q.181,0,.357-.017a3.7,3.7,0,0,0,1.91-.752c.053-.326.109-.687.159-1.024-.274-.1-1.145-.4-1.695-.584l-.023-.008-.036-.012-.093-.032-.086-.029-.221-.074h0l-.011,0h-.006l-.739.056-.124.009-.039,0-.017,0c-.045.011-.174.045-.346.1h0a3.627,3.627,0,0,0-1.416.7" transform="translate(-220.465 -1241.056)" fill="#d9c7c1"/>
          <path id="Trazado_604825" data-name="Trazado 604825" d="M259.7,1335.059s-.887.15-.736,1.538.933,1.266.985,1.264.787.017.826-1.681c0,0,.011-1.255-1.075-1.121" transform="translate(-234.931 -1211.237)" fill="#eea987"/>
          <path id="Trazado_604826" data-name="Trazado 604826" d="M262.626,1359.457a3.2,3.2,0,0,1-.023.7c-.054.125.712.518,1.188.07a4.917,4.917,0,0,1-.066-.845c.03-.221-1.1.08-1.1.08" transform="translate(-238.246 -1233.236)" fill="#eea987"/>
          <path id="Trazado_604827" data-name="Trazado 604827" d="M257.595,1347.069s-.1-.1-.133,0,.157.574.145.595c0,0,.018.041.041.018a5.094,5.094,0,0,0-.054-.615" transform="translate(-233.581 -1222.102)" fill="#eea987"/>
          <path id="Trazado_604828" data-name="Trazado 604828" d="M278.089,1346.633s.094-.107.133,0a1.784,1.784,0,0,1-.121.6s-.031.048-.055.026a5.134,5.134,0,0,1,.042-.624" transform="translate(-252.256 -1221.703)" fill="#eea987"/>
          <path id="Trazado_604829" data-name="Trazado 604829" d="M258.26,1333.825c.031.19.059.331.059.331l.129.169a3.391,3.391,0,0,1,.012-.431c.007-.022.016-.062.025-.1.015-.07.03-.149.04-.176a1.9,1.9,0,0,1,1.422.046s-.006.057-.005.121.008.158.043.17c.064.023.037.436.037.436l.1-.119s.03-.216.059-.464v0c.007-.058.013-.117.02-.176a1.16,1.16,0,0,0-.335-.968,1.6,1.6,0,0,0-1.152,0,.4.4,0,0,0-.171.045,1.647,1.647,0,0,0-.287,1.117" transform="translate(-234.303 -1208.976)" fill="#e8734d"/>
          <path id="Trazado_604830" data-name="Trazado 604830" d="M264.853,1363.367a.565.565,0,0,1-.47.189.64.64,0,0,1-.471-.179.574.574,0,0,0,.473.322.58.58,0,0,0,.469-.332" transform="translate(-239.436 -1236.929)" fill="#c78d71"/>
          <path id="Trazado_604831" data-name="Trazado 604831" d="M263.321,1367.765a.966.966,0,0,1-.688.453c-.286.025-.534-.338-.65-.516a1.731,1.731,0,0,1,1.338.063" transform="translate(-237.687 -1240.766)" fill="#eea987"/>
          <path id="Trazado_604832" data-name="Trazado 604832" d="M262.065,1367.319a2.456,2.456,0,0,0,.567.492l-.24.37-.41-.731Z" transform="translate(-237.687 -1240.515)" fill="#eddad3"/>
          <path id="Trazado_604833" data-name="Trazado 604833" d="M269.569,1367.916a1.648,1.648,0,0,1-.58.436l.264.381.461-.667Z" transform="translate(-244.043 -1241.056)" fill="#eddad3"/>
          <path id="Trazado_604834" data-name="Trazado 604834" d="M266.976,1372.621l-.206.313a.428.428,0,0,0,.417-.008Z" transform="translate(-242.03 -1245.325)" fill="#5073ab"/>
          <path id="Trazado_604835" data-name="Trazado 604835" d="M240.437,1369.462l.006.021c.023.08.11.389.223.8.043.037.086.073.131.108s.1.078.153.115a3.7,3.7,0,0,0,1.694.656c-.055-1.289-.208-2.432-.208-2.432q-.181.048-.344.094h0a7.882,7.882,0,0,0-1.588.6l0,0c-.043.024-.062.037-.062.037" transform="translate(-218.139 -1241.794)" fill="#323657"/>
          <path id="Trazado_604836" data-name="Trazado 604836" d="M277.059,1371.919a3.708,3.708,0,0,0,1.522-.695,3.755,3.755,0,0,0,.376-.331l.068-.07c.065-.277.109-.458.111-.469h0a8.442,8.442,0,0,0-2.091-.738h0c0,.037,0,1.083.013,2.3" transform="translate(-251.353 -1242.598)" fill="#323657"/>
          <path id="Trazado_604837" data-name="Trazado 604837" d="M267.678,1375.257c.015.34.017,1,.012,1.75l.122,0q.181,0,.357-.017a11.431,11.431,0,0,0-.247-1.736c-.018-.075-.029-.113-.029-.113l-.219.036c0,.024,0,.049,0,.078" transform="translate(-242.85 -1247.613)" fill="#5073ab"/>
          <path id="Trazado_604838" data-name="Trazado 604838" d="M238.412,1376.649a3.758,3.758,0,0,0,.416.422c.043.037.086.073.131.108l-.293-.968h0l0,0a.247.247,0,0,0-.057.058,1.815,1.815,0,0,0-.194.378" transform="translate(-216.302 -1248.582)" fill="#323657"/>
          <path id="Trazado_604839" data-name="Trazado 604839" d="M297.662,1378.111l.068-.07a3.6,3.6,0,0,0,.236-.277.431.431,0,0,0-.125-.193h0Z" transform="translate(-270.057 -1249.816)" fill="#323657"/>
        </g>
      </g>
    </g>
  </g>
</svg>
