<svg xmlns="http://www.w3.org/2000/svg" xmlns:xlink="http://www.w3.org/1999/xlink" width="60.508" height="60.514" viewBox="0 0 60.508 60.514">
  <defs>
    <clipPath id="clip-path">
      <rect id="Rectángulo_46869" data-name="Rectángulo 46869" width="60.508" height="60.514" fill="#144567"/>
    </clipPath>
  </defs>
  <g id="Grupo_160872" data-name="Grupo 160872" transform="translate(-309.492 -1450.345)">
    <circle id="Elipse_5621" data-name="Elipse 5621" cx="12" cy="12" r="12" transform="translate(344 1485)" fill="#fff9c8"/>
    <g id="Grupo_160871" data-name="Grupo 160871">
      <path id="Trazado_601863" data-name="Trazado 601863" d="M353.975,1484.677V1456.32l-1.437-2.97L351.1,1452.2h-25l-15.52,15.231v38.512l2.586,2.97H351.1l-6.035-4.6-1.437-10.729,3.161-5.461Z" fill="#fff"/>
      <g id="Grupo_160870" data-name="Grupo 160870" transform="translate(309.492 1450.345)">
        <g id="Grupo_160869" data-name="Grupo 160869" clip-path="url(#clip-path)">
          <path id="Trazado_601857" data-name="Trazado 601857" d="M0,55.787V15.605a7.446,7.446,0,0,1,.68-.936Q7.6,7.674,14.529.694A2.239,2.239,0,0,1,16.217,0Q28.359.013,40.5.014a6.172,6.172,0,0,1,1.632.2,5.327,5.327,0,0,1,4.082,5.449q0,12.82,0,25.64v.668c.985.118,1.912.169,2.814.346a14.195,14.195,0,0,1,2.3,27.206,38.188,38.188,0,0,1-3.93.991H4.728a1.008,1.008,0,0,0-.214-.086A5.239,5.239,0,0,1,1.181,58.5,6.358,6.358,0,0,1,0,55.787M32.3,42.669H9.37c-.217,0-.435.009-.649-.012a1.766,1.766,0,0,1,0-3.52c.215-.021.433-.012.65-.012q11.908,0,23.816.012a1.059,1.059,0,0,0,1.031-.57,13.215,13.215,0,0,1,5.143-4.755c1.055-.546,2.179-.958,3.314-1.449v-.535q0-13.028,0-26.056c0-1.519-.709-2.219-2.252-2.22H17.73v.734q0,5.7,0,11.4c0,1.508-.65,2.162-2.152,2.162q-5.673,0-11.347,0H3.546v.459q0,18.346,0,36.692A1.805,1.805,0,0,0,5.6,56.968q15.306,0,30.612,0c.164,0,.327-.023.4-.028a37.275,37.275,0,0,1-2.541-3.3,39.993,39.993,0,0,1-1.872-3.879H9.34c-1.417,0-2.243-.653-2.243-1.772s.826-1.772,2.243-1.772H31.854l.45-3.546M46.234,35.58A10.733,10.733,0,0,0,35.463,46.165a10.755,10.755,0,1,0,21.51.091A10.731,10.731,0,0,0,46.234,35.58M14.168,6.413,6.12,14.265h8.047Z" transform="translate(0 0)" fill="#144567"/>
          <path id="Trazado_601858" data-name="Trazado 601858" d="M63.935,168.509q6.855,0,13.71,0a4.185,4.185,0,0,1,.766.035,1.766,1.766,0,0,1-.181,3.5c-.156.015-.315.011-.472.011q-13.858,0-27.716.006a1.893,1.893,0,0,1-1.909-1.014,1.758,1.758,0,0,1,1.442-2.524c.215-.021.433-.012.65-.012h13.71" transform="translate(-40.853 -143.567)" fill="#144567"/>
          <path id="Trazado_601859" data-name="Trazado 601859" d="M60.718,216.418c3.6,0,7.205-.006,10.808,0a1.77,1.77,0,0,1,.264,3.53c-.2.018-.393.011-.59.011H50.176c-1.4,0-2.235-.669-2.225-1.787s.829-1.757,2.256-1.757H60.718" transform="translate(-40.853 -184.385)" fill="#144567"/>
          <path id="Trazado_601860" data-name="Trazado 601860" d="M152.584,76.237c-2.324,0-4.649.013-6.973-.005a1.756,1.756,0,0,1-1.724-2.384,1.668,1.668,0,0,1,1.633-1.146q7.091-.02,14.182,0a1.766,1.766,0,1,1-.027,3.53c-2.364.016-4.727.005-7.091.006" transform="translate(-122.485 -61.932)" fill="#144567"/>
          <path id="Trazado_601861" data-name="Trazado 601861" d="M152.476,124.132q-3.486,0-6.973,0a1.738,1.738,0,0,1-1.7-1.06,1.5,1.5,0,0,1,.269-1.806,2.319,2.319,0,0,1,1.376-.647c4.707-.047,9.415-.036,14.122-.023a1.766,1.766,0,1,1-.005,3.53c-2.364.017-4.727.005-7.091.007" transform="translate(-122.366 -102.737)" fill="#144567"/>
          <path id="Trazado_601862" data-name="Trazado 601862" d="M268.954,294.941c1.041-1.1,1.93-2.073,2.852-3.011,1.006-1.025,2.026-2.039,3.072-3.022a1.759,1.759,0,0,1,3,.769,1.647,1.647,0,0,1-.456,1.683q-3.605,3.575-7.242,7.117a1.681,1.681,0,0,1-2.447-.007q-1.857-1.73-3.65-3.529a1.737,1.737,0,0,1-.069-2.494,1.761,1.761,0,0,1,2.54-.032c.412.365.807.752,1.187,1.15s.705.8,1.216,1.377" transform="translate(-224.515 -245.674)" fill="#144567"/>
        </g>
      </g>
    </g>
  </g>
</svg>
